<svg width="356" height="355" viewBox="0 0 356 355" fill="none" xmlns="http://www.w3.org/2000/svg">
<path d="M0.62207 288.508L44.987 288.29L89.352 288.22L178.073 288.072L266.795 288.211L311.16 288.29L355.525 288.508L311.16 288.718L266.795 288.796L178.073 288.945L89.352 288.796L44.987 288.718L0.62207 288.508Z" fill="#263238"/>
<path d="M178.073 354.205C270.024 354.205 344.565 343.453 344.565 330.19C344.565 316.928 270.024 306.176 178.073 306.176C86.1223 306.176 11.5813 316.928 11.5813 330.19C11.5813 343.453 86.1223 354.205 178.073 354.205Z" fill="#DCDCDC"/>
<path d="M328.832 0.399414V250.763H144.14V0.399414H147.263L148.437 5.63696L153.483 9.05883V13.0044H159.439V6.89398H154.844L155.295 0.451787H168.501L168.892 6.89398H168.041V13.0044H173.998V6.89398H171.445L172.236 0.451787H181.196L182.583 6.89398V13.0044H188.539V6.89398H186.284L187.595 0.451787H197.644L198.171 6.89398H197.108V13.0044H203.064V6.89398H200.579V0.399414H210.237L210.492 2.31985L211.811 6.8416H211.649V12.9521H217.605V6.8416H215.333L214.882 2.68648L214.661 0.399414H227.62V2.79123C227.62 2.93962 228.735 6.8416 228.735 6.8416H226.233V12.9521H232.189V6.8416H230.607V0.399414H242.332L241.694 6.8416H240.783V12.9521H246.739V6.8416H245.293L244.961 0.399414H255.036L255.444 6.8416H255.299V12.9521H261.255V6.8416H258.771L257.001 0.399414H269.56L269.841 6.8416V12.9521H275.797V6.8416H273.372L272.657 0.399414H282.732L284.433 8.96281V12.9608H290.39V6.85033H287.105L288.22 0.408142H298.984V12.9608H304.94V6.85033H301.23L300.379 0.408142H309.875L313.542 8.58745V12.9521H319.498V6.8416H315.423L315.099 0.399414H328.832Z" fill="#EBEBEB"/>
<path d="M314.997 33.7888H157.975V34.4435H314.997V33.7888Z" fill="#DBDBDB"/>
<path d="M314.997 42.4482H157.975V43.1029H314.997V42.4482Z" fill="#DBDBDB"/>
<path d="M314.997 51.1077H157.975V51.7624H314.997V51.1077Z" fill="#DBDBDB"/>
<path d="M314.997 59.7759H157.975V60.4306H314.997V59.7759Z" fill="#DBDBDB"/>
<path d="M314.997 68.4353H157.975V69.09H314.997V68.4353Z" fill="#DBDBDB"/>
<path d="M314.997 77.0947H157.975V77.7494H314.997V77.0947Z" fill="#DBDBDB"/>
<path d="M314.997 85.7539H157.975V86.4086H314.997V85.7539Z" fill="#DBDBDB"/>
<path d="M314.997 94.4133H157.975V95.068H314.997V94.4133Z" fill="#DBDBDB"/>
<path d="M314.997 103.073H157.975V103.727H314.997V103.073Z" fill="#DBDBDB"/>
<path d="M314.997 111.741H157.975V112.396H314.997V111.741Z" fill="#DBDBDB"/>
<path d="M314.997 120.4H157.975V121.055H314.997V120.4Z" fill="#DBDBDB"/>
<path d="M314.997 129.06H157.975V129.715H314.997V129.06Z" fill="#DBDBDB"/>
<path d="M314.997 137.719H157.975V138.374H314.997V137.719Z" fill="#DBDBDB"/>
<path d="M314.997 146.379H157.975V147.033H314.997V146.379Z" fill="#DBDBDB"/>
<path d="M314.997 155.038H157.975V155.693H314.997V155.038Z" fill="#DBDBDB"/>
<path d="M314.997 163.698H157.975V164.352H314.997V163.698Z" fill="#DBDBDB"/>
<path d="M314.997 172.366H157.975V173.02H314.997V172.366Z" fill="#DBDBDB"/>
<path d="M314.997 181.025H157.975V181.68H314.997V181.025Z" fill="#DBDBDB"/>
<path d="M314.997 189.685H157.975V190.339H314.997V189.685Z" fill="#DBDBDB"/>
<path d="M314.997 198.344H157.975V198.999H314.997V198.344Z" fill="#DBDBDB"/>
<path d="M314.997 207.003H157.975V207.658H314.997V207.003Z" fill="#DBDBDB"/>
<path d="M314.997 215.663H157.975V216.318H314.997V215.663Z" fill="#DBDBDB"/>
<path d="M314.997 224.322H157.975V224.977H314.997V224.322Z" fill="#DBDBDB"/>
<path d="M314.997 232.99H157.975V233.645H314.997V232.99Z" fill="#DBDBDB"/>
<path d="M163.225 40.2311L181.536 40.0129L199.856 39.8907L236.486 39.7947L273.117 39.8907L291.436 40.0129L309.747 40.2311L291.436 40.4406L273.117 40.5628L236.486 40.6676L199.856 40.5628L181.536 40.4406L163.225 40.2311Z" fill="#263238"/>
<path d="M163.225 48.8903C172.245 48.707 181.264 48.6284 190.283 48.5586L217.341 48.4539L244.399 48.5499L257.928 48.6721L271.457 48.8903L257.928 49.0998L244.442 49.2133L217.384 49.3181L190.326 49.2133C181.264 49.1522 172.245 49.0649 163.225 48.8903Z" fill="#263238"/>
<path d="M163.225 57.5497L181.536 57.3402L199.856 57.218L236.486 57.1133L273.117 57.218L291.436 57.3402L309.747 57.5497L291.436 57.7592L273.117 57.8815L236.486 57.9862L199.856 57.8815L181.536 57.7592L163.225 57.5497Z" fill="#263238"/>
<path d="M163.225 66.2092C169.13 66.0259 175.027 65.9473 180.932 65.8775L198.639 65.7727L216.337 65.8775L225.195 65.9997C228.139 66.0695 231.092 66.1131 234.044 66.2092C231.092 66.3052 228.139 66.3488 225.195 66.4274L216.337 66.5496L198.639 66.6456L180.932 66.5409C175.027 66.471 169.13 66.3925 163.225 66.2092Z" fill="#263238"/>
<path d="M163.225 83.528L181.536 83.3185L199.856 83.1963L236.486 83.0916L273.117 83.1963L291.436 83.3185L309.747 83.528L291.436 83.7462L273.117 83.8685L236.486 83.9645L199.856 83.8685L181.536 83.7462L163.225 83.528Z" fill="#263238"/>
<path d="M163.225 92.1962C172.228 92.0129 181.238 91.9256 190.241 91.8558L217.256 91.7598L244.263 91.8558L257.775 91.978L271.279 92.1962L257.775 92.4057L244.263 92.5279L217.256 92.624L190.241 92.5279C181.238 92.4581 172.228 92.3708 163.225 92.1962Z" fill="#263238"/>
<path d="M163.225 100.856C173.24 100.672 183.247 100.585 193.261 100.515L223.289 100.419L253.317 100.515L268.335 100.637L283.353 100.856L268.335 101.065L253.317 101.187L223.289 101.292L193.261 101.187C183.247 101.118 173.24 101.03 163.225 100.856Z" fill="#263238"/>
<path d="M163.225 118.174C170.688 117.991 178.15 117.913 185.604 117.843L207.99 117.738L230.368 117.834L241.557 117.956L252.747 118.174L241.557 118.384L230.368 118.506L207.99 118.611L185.604 118.506C178.15 118.436 170.688 118.358 163.225 118.174Z" fill="#263238"/>
<path d="M163.225 126.834L181.536 126.624L199.856 126.502L236.486 126.397L273.117 126.502L291.436 126.624L309.747 126.834L291.436 127.052L273.117 127.174L236.486 127.27L199.856 127.166L181.536 127.043L163.225 126.834Z" fill="#263238"/>
<path d="M163.225 135.493C173.24 135.319 183.247 135.231 193.261 135.161L223.289 135.057L253.317 135.161L268.335 135.284L283.353 135.493L268.335 135.711L253.317 135.834L223.289 135.93L193.261 135.834C183.247 135.764 173.24 135.676 163.225 135.493Z" fill="#263238"/>
<path d="M163.225 144.153L181.536 143.943L199.856 143.821L236.486 143.716L273.117 143.821L291.436 143.943L309.747 144.153L291.436 144.371L273.117 144.493L236.486 144.589L199.856 144.493L181.536 144.371L163.225 144.153Z" fill="#263238"/>
<path d="M163.225 152.812C170.517 152.637 177.818 152.55 185.11 152.48L206.995 152.384L228.879 152.48L239.822 152.603L250.764 152.812L239.822 153.03L228.879 153.152L206.995 153.248L185.11 153.152C177.818 153.091 170.517 152.995 163.225 152.812Z" fill="#263238"/>
<path d="M160.46 114.203H100.949C100.164 109.146 99.7349 104.038 99.6643 98.9177V37.4202H174.542V99.7121C174.508 105.954 160.46 114.203 160.46 114.203Z" fill="#FFC727"/>
<path opacity="0.2" d="M174.499 99.7036C174.499 105.753 161.302 113.67 160.485 114.159C162.672 112.64 162.298 100.62 162.298 100.62C162.298 100.62 174.278 99.0227 174.499 99.7036Z" fill="black"/>
<path d="M110.683 55.5596C119.481 54.8263 128.288 54.6866 137.061 54.6168C145.833 54.547 154.665 54.8176 163.438 55.5596C154.64 56.3103 145.833 56.4325 137.061 56.5111C128.288 56.5896 119.481 56.3015 110.683 55.5596Z" fill="white"/>
<path d="M110.683 65.6857C117.61 64.9437 124.536 64.8128 131.453 64.7342C138.371 64.6556 145.306 64.9437 152.232 65.6857C145.326 66.3715 138.391 66.7007 131.453 66.6721C124.536 66.6023 117.61 66.4277 110.683 65.6857Z" fill="white"/>
<path d="M110.683 75.8113C117.61 75.0693 124.536 74.8948 131.453 74.8598C138.391 74.8196 145.326 75.1372 152.232 75.8113C145.306 76.5533 138.38 76.7279 131.453 76.7628C124.527 76.7977 117.61 76.5533 110.683 75.8113Z" fill="white"/>
<path d="M345.289 181.505H297.571L286.893 173.989L297.571 166.482H345.289V181.505Z" fill="#FFC727"/>
<path d="M355.525 162.589H307.799L297.129 155.073L307.799 147.557H355.525V162.589Z" fill="#455A64"/>
<path d="M35.9759 327.755L171.904 328.349C204.944 301.733 208.356 262.303 184.787 238.437C170.517 223.982 152.402 226.897 135.155 224.593H135.104C129.012 223.942 123.086 222.168 117.61 219.355C99.8516 209.753 89.8368 187.057 74.8953 167.992C73.0318 165.6 71.0918 163.27 69.0412 161.009C56.7545 147.548 32.3001 147.112 19.5114 166.028C-12.9753 214.074 1.94069 285.636 35.9759 327.755Z" fill="#92613E"/>
<path d="M32.9722 217.74C36.5289 274.952 100.941 296.304 141.162 279.168C176.141 264.267 164.689 230.284 135.206 224.558H135.155C129.063 223.907 123.137 222.133 117.66 219.32C99.9025 209.718 89.8876 187.022 74.9462 167.957C52.6531 156.06 30.36 175.84 32.9722 217.74Z" fill="#8A542D"/>
<path d="M80.1283 139.648C89.8198 149.076 96.4822 173.597 91.5726 189.073C85.7185 207.51 69.6879 216.92 56.5418 212.555C44.6295 208.592 39.3455 196.214 43.7275 187.005C47.982 178.118 56.0483 174.862 57.5459 166.927C58.2606 163.139 57.0268 156.854 57.3331 151.145C57.8777 140.783 72.5639 132.316 80.1283 139.648Z" fill="#263238"/>
<path d="M42.1282 189.135C42.6389 187.206 43.4337 185.37 44.4851 183.688C45.4864 182.047 46.6747 180.535 48.0248 179.183C49.3692 177.848 50.688 176.468 51.9644 175.028C53.2778 173.57 54.4201 171.958 55.3679 170.227C55.8591 169.329 56.272 168.389 56.6017 167.416C56.9002 166.403 57.0773 165.357 57.1292 164.3C57.1907 162.215 57.1453 160.129 56.9931 158.05C56.8626 156.008 56.9596 153.958 57.2824 151.939C57.7428 149.956 58.5282 148.066 59.6053 146.353C58.4033 147.998 57.5064 149.856 56.959 151.835C56.5535 153.879 56.385 155.965 56.457 158.05C56.457 160.127 56.6357 162.205 56.457 164.221C56.3914 165.211 56.2144 166.189 55.9295 167.137C55.6017 168.043 55.2004 168.919 54.7297 169.756C52.9088 173.204 50.1605 175.866 47.5908 178.694C46.2764 180.13 45.1338 181.721 44.1873 183.434C43.207 185.209 42.5117 187.133 42.1282 189.135Z" fill="#263238"/>
<path d="M150.241 353.541C148.241 352.791 103.11 315.787 102.26 313.265C101.936 312.304 106.803 305.251 112.921 296.897C114.24 295.09 115.618 293.231 117.022 291.354C126.144 279.133 136.099 266.45 136.099 266.45L166.357 291.11L146.454 315.342L142.089 320.667C142.089 320.667 153.151 342.761 153.832 345.633C154.512 348.505 152.24 354.292 150.241 353.541Z" fill="#D3766A"/>
<path d="M150.241 353.541C148.242 352.79 103.111 315.787 102.26 313.264C101.869 312.095 109.135 301.916 117.023 291.354L146.455 315.342L142.09 320.667C142.09 320.667 153.151 342.761 153.832 345.632C154.513 348.504 152.241 354.292 150.241 353.541Z" fill="white"/>
<path d="M150.241 353.541C148.241 352.79 103.11 315.787 102.26 313.264C101.936 312.304 106.803 305.251 112.921 296.897L142.089 320.693C142.089 320.693 153.151 342.787 153.832 345.659C154.512 348.531 152.24 354.292 150.241 353.541Z" fill="#974BAD"/>
<path d="M151.041 351.158C143.621 344.768 113.117 319.733 105.315 313.963C105.247 313.91 105.213 313.963 105.272 313.963C112.488 320.466 143.187 345.283 150.939 351.245C151.101 351.411 151.194 351.298 151.041 351.158Z" fill="#263238"/>
<path d="M152.223 341.591C151.401 340.878 150.443 340.348 149.41 340.036C148.378 339.723 147.293 339.635 146.225 339.775C144.299 340.008 142.537 340.997 141.307 342.534C141.307 342.578 141.358 342.647 141.4 342.604C142.855 341.278 144.69 340.472 146.629 340.307C148.568 340.141 150.507 340.626 152.155 341.687C152.168 341.692 152.181 341.693 152.194 341.689C152.207 341.686 152.218 341.678 152.226 341.667C152.234 341.656 152.238 341.642 152.238 341.628C152.237 341.615 152.232 341.602 152.223 341.591Z" fill="#263238"/>
<path d="M144.421 323.845C141.426 321.313 137.061 319.532 133.198 320.536C133.053 320.536 133.104 320.789 133.198 320.816C136.955 321.562 140.623 322.717 144.14 324.264C144.194 324.302 144.261 324.316 144.326 324.304C144.39 324.292 144.447 324.254 144.485 324.198C144.522 324.143 144.536 324.074 144.524 324.008C144.512 323.941 144.475 323.883 144.421 323.845Z" fill="#263238"/>
<path d="M146.029 326.69C143.034 324.167 138.669 322.387 134.806 323.382C134.661 323.425 134.712 323.644 134.806 323.67C138.563 324.416 142.231 325.572 145.748 327.118C145.804 327.156 145.871 327.17 145.937 327.157C146.002 327.144 146.06 327.105 146.097 327.048C146.134 326.991 146.148 326.922 146.135 326.855C146.123 326.787 146.084 326.728 146.029 326.69Z" fill="#263238"/>
<path d="M147.637 329.545C144.642 327.022 140.277 325.241 136.414 326.236C136.269 326.236 136.32 326.489 136.414 326.516C140.174 327.27 143.843 328.441 147.356 330.007C147.386 330.026 147.419 330.039 147.453 330.045C147.488 330.051 147.523 330.049 147.557 330.041C147.591 330.033 147.623 330.018 147.651 329.997C147.68 329.977 147.704 329.95 147.722 329.92C147.741 329.89 147.753 329.856 147.759 329.82C147.765 329.785 147.763 329.749 147.756 329.714C147.748 329.679 147.733 329.646 147.713 329.617C147.693 329.588 147.667 329.563 147.637 329.545Z" fill="#263238"/>
<path d="M149.245 332.399C146.25 329.867 141.885 328.087 138.031 329.082C137.878 329.125 137.937 329.344 138.031 329.37C141.788 330.115 145.456 331.271 148.973 332.818C149.027 332.855 149.094 332.868 149.157 332.855C149.221 332.842 149.277 332.804 149.314 332.748C149.35 332.693 149.363 332.625 149.35 332.559C149.337 332.494 149.3 332.436 149.245 332.399Z" fill="#263238"/>
<path d="M112.981 308.167C109.577 305.391 105.365 310.785 108.777 313.596C112.189 316.407 116.393 310.951 112.981 308.167Z" fill="white"/>
<path d="M154.147 318.232C153.636 315.674 150.743 315.368 148.71 315.945C145.299 317.005 142.22 318.968 139.784 321.636C139.772 321.646 139.762 321.658 139.755 321.673C139.748 321.687 139.744 321.703 139.744 321.719C139.744 321.735 139.748 321.751 139.755 321.765C139.762 321.78 139.772 321.792 139.784 321.802C139.753 321.871 139.737 321.946 139.739 322.021C139.74 322.097 139.759 322.171 139.792 322.239C139.826 322.306 139.874 322.364 139.933 322.41C139.992 322.455 140.06 322.486 140.133 322.5C143.485 322.736 147.033 323.417 150.343 322.588C152.3 322.107 154.64 320.693 154.147 318.232ZM145.289 321.793C143.638 321.715 142.005 321.558 140.354 321.54C142.098 320.44 143.758 319.262 145.646 318.336C146.534 317.88 147.449 317.483 148.386 317.149C149.841 316.669 154.836 316.503 152.505 320.135C151.22 322.134 147.255 321.881 145.289 321.793Z" fill="#263238"/>
<path d="M131.351 316.616C133.666 319.192 136.984 320.649 139.86 322.36C139.927 322.393 140 322.408 140.074 322.406C140.148 322.403 140.221 322.383 140.285 322.346C140.35 322.31 140.405 322.258 140.447 322.195C140.488 322.132 140.515 322.06 140.524 321.985C140.592 321.985 140.651 321.941 140.634 321.863C140.053 318.251 138.554 314.86 136.286 312.034C134.942 310.41 132.347 309.005 130.526 310.838C128.705 312.671 129.998 315.115 131.351 316.616ZM130.9 313.352C130.9 308.987 134.993 311.99 135.938 313.221C136.541 314.029 137.087 314.881 137.571 315.77C138.551 317.617 139.44 319.514 140.235 321.452C138.856 320.518 137.41 319.707 135.98 318.834C134.312 317.795 130.883 315.744 130.9 313.352Z" fill="#263238"/>
<path d="M196.92 243.692C194.853 259.815 156.078 306.377 151.628 311.719L150.607 312.933L118.563 287.662L118.929 287.173L147.152 249.27L62.9746 248.764L94.9337 223.266C94.9337 223.266 97.5289 224.802 102.915 223.99C121.498 221.206 163.379 215.025 173.257 215.436C185.995 215.942 198.826 228.887 196.92 243.692Z" fill="#37474F"/>
<path d="M157.287 235.146C156.243 236.364 155.272 237.643 154.376 238.979C153.381 240.323 152.368 241.65 151.373 242.994C151.552 242.601 151.722 242.208 151.909 241.816C152.539 240.48 153.041 239.101 153.781 237.826C153.788 237.811 153.79 237.794 153.785 237.778C153.781 237.762 153.772 237.748 153.758 237.738C153.745 237.729 153.729 237.725 153.713 237.726C153.696 237.728 153.681 237.736 153.67 237.748C152.904 239.022 152.02 240.227 151.364 241.562C151.05 242.191 150.76 242.819 150.514 243.465C150.369 243.823 150.216 244.181 150.08 244.539C150.011 244.707 149.951 244.879 149.901 245.054C149.45 245.674 149.05 246.302 148.582 246.94C147.629 248.354 146.795 249.847 145.834 251.243C145.783 251.322 145.893 251.392 145.953 251.322C146.923 250.004 148.012 248.773 149.007 247.463C150.003 246.154 150.964 244.766 151.909 243.387C152.853 242.008 153.73 240.69 154.649 239.337C155.659 238.012 156.588 236.624 157.431 235.181C157.397 235.19 157.329 235.146 157.287 235.146Z" fill="#263238"/>
<path d="M80.0179 193.063C84.5701 202.028 102.013 230.712 111.781 231.873C118.188 232.632 143.264 227.561 147.067 220.97C148.71 218.098 143.706 199.732 140.396 200.814C137.086 201.897 117.031 206.698 114.462 206.209C111.892 205.72 91.0708 185.512 83.5575 180.728C70.6071 172.488 77.5673 188.235 80.0179 193.063Z" fill="#D3766A"/>
<path d="M132.594 200.229L135.827 228.259C135.827 228.259 116.095 234.047 107.186 231.506C96.3548 228.425 78.8096 195.716 76.3505 190.348C72.3174 181.479 72.947 175.918 77.9672 176.949C79.9242 177.333 82.5364 178.694 85.8038 181.313C89.2074 184.019 108.956 201.731 115.04 204.882C118.435 206.733 132.594 200.229 132.594 200.229Z" fill="#455A64"/>
<path d="M132.594 200.229L135.827 228.268C135.827 228.268 132.551 229.228 128.067 230.188C121.55 231.594 112.471 233.008 107.187 231.506C96.3634 228.425 78.8097 195.716 76.3507 190.339C73.4322 183.932 72.9472 179.244 74.8276 177.533C75.2688 177.185 75.7844 176.95 76.3319 176.846C76.8793 176.743 77.4429 176.775 77.9759 176.94C79.9159 177.333 82.5366 178.686 85.804 181.304C89.2075 184.01 108.948 201.731 115.032 204.926C118.435 206.741 132.594 200.229 132.594 200.229Z" fill="#FFC727"/>
<path d="M130.799 228.163C130.194 224.034 128.348 207.056 128.195 203.354C128.195 203.101 128.339 203.031 128.382 203.293C130.467 215.619 130.569 224.052 130.935 228.128C130.96 228.233 130.807 228.268 130.799 228.163Z" fill="#263238"/>
<path d="M76.3506 190.348C78.8012 195.751 96.3633 228.442 107.178 231.515C109.85 232.275 113.5 232.283 117.295 231.943L77.3036 176.853C76.8668 176.78 76.4199 176.804 75.9929 176.923C75.5659 177.042 75.1686 177.253 74.8275 177.542C72.9556 179.279 73.4151 183.941 76.3506 190.348Z" fill="#263238"/>
<path d="M46.2971 245.342L97.4861 231.925L92.4404 212.965C92.4404 212.965 96.4906 207.021 94.7633 201.347C93.2317 196.293 81.5577 181.27 79.2007 179.253C75.159 175.822 67.9265 174.67 63.9699 179.463C47.65 199.199 46.2971 245.342 46.2971 245.342Z" fill="#FFC727"/>
<path opacity="0.1" d="M76.393 177.472L62.7789 180.964C63.1618 180.449 63.5532 179.951 63.9531 179.462L64.2339 179.14L74.002 176.66C74.8227 176.851 75.6235 177.123 76.393 177.472ZM79.6008 179.628L60.3879 184.578C60.3028 184.726 60.2092 184.875 60.1326 185.023L79.8986 179.934L79.6008 179.628ZM82.0769 182.439L58.2522 188.55C57.9884 189.091 57.7246 189.65 57.4694 190.208L83.0639 183.644C82.7235 183.216 82.3917 182.815 82.0769 182.439ZM85.0124 186.123L55.9888 193.595L55.8187 194.014L85.2592 186.446L85.0124 186.123ZM87.1822 189.012L54.5594 197.41C54.3722 197.945 54.1935 198.478 54.0233 199.007L88.0586 190.278C87.7863 189.824 87.48 189.414 87.1822 189.012ZM89.8624 192.766L52.9937 202.255C52.9462 202.386 52.9064 202.52 52.8746 202.656L90.0581 193.054C90.0071 192.984 89.9305 192.879 89.8624 192.766ZM91.8024 195.708L51.9642 205.965C51.8365 206.48 51.7004 207.003 51.5643 207.518L92.5853 196.965C92.3385 196.563 92.0832 196.144 91.8024 195.708ZM94.0318 199.583L50.8155 210.704C50.8155 210.835 50.7559 210.975 50.7219 211.106L94.1934 199.915C94.1481 199.8 94.0941 199.689 94.0318 199.583ZM95.0783 202.752L50.0327 214.345L49.7264 215.881L95.189 204.184C95.1899 203.704 95.1529 203.225 95.0783 202.752ZM49.1307 219.015C49.1307 219.146 49.0797 219.285 49.0627 219.416L94.7295 207.667C94.7295 207.527 94.7976 207.396 94.8231 207.256L49.1307 219.015ZM48.5351 222.611C48.4585 223.126 48.382 223.632 48.3139 224.13L92.5597 212.738C92.8977 212.191 93.2073 211.626 93.4872 211.045L48.5351 222.611ZM93.1128 215.584L47.8885 227.229L47.8374 227.622L93.2319 215.942L93.1128 215.584ZM93.9637 218.805L47.4715 230.782C47.412 231.297 47.3524 231.794 47.3013 232.283L94.3551 220.167L93.9637 218.805ZM95.0698 222.969L46.9865 235.347C46.9865 235.478 46.9865 235.609 46.9865 235.74L95.2315 223.327L95.0698 222.969ZM95.9207 226.19L46.6887 238.865C46.6887 239.389 46.6121 239.886 46.5781 240.349L96.3206 227.552L95.9207 226.19ZM97.0269 230.345L46.3994 243.387C46.3994 243.518 46.3994 243.649 46.3994 243.771L97.1885 230.677L97.0269 230.345Z" fill="black"/>
<path d="M86.0248 187.031C87.3096 188.672 88.705 190.243 90.0324 191.858C89.4453 190.671 88.8582 189.492 88.22 188.366C88.22 188.366 88.22 188.323 88.22 188.366C89.1806 189.731 90.0018 191.194 90.6706 192.731C91.6685 193.941 92.5786 195.225 93.3934 196.572C94.4042 198.139 95.1306 199.881 95.5376 201.713C95.8578 203.579 95.7794 205.494 95.3079 207.326C94.741 209.448 93.9833 211.511 93.0446 213.489C92.9254 213.751 92.5425 213.559 92.6361 213.297C93.8954 209.805 95.3164 206.122 94.7548 202.377C94.1932 198.632 92.049 195.454 89.9558 192.425C88.7177 190.567 87.3649 188.791 85.9056 187.109C85.8461 187.048 85.9737 186.961 86.0248 187.031Z" fill="#263238"/>
<path d="M84.8846 210.478C82.5432 211.352 80.268 212.402 78.0776 213.62C76.997 214.249 75.9589 214.912 74.9293 215.61C74.4103 215.96 73.8912 216.283 73.3637 216.606C72.8345 216.969 72.2627 217.262 71.6619 217.478C71.6506 217.478 71.6398 217.483 71.6318 217.491C71.6239 217.499 71.6194 217.511 71.6194 217.522C71.6194 217.534 71.6239 217.545 71.6318 217.553C71.6398 217.561 71.6506 217.566 71.6619 217.566C72.2574 217.437 72.8431 217.265 73.4147 217.051C73.9603 216.823 74.4917 216.56 75.0059 216.265C76.1035 215.645 77.1671 214.973 78.2648 214.345C80.4685 213.07 82.6638 211.796 84.9527 210.687C85.0718 210.617 84.9952 210.434 84.8846 210.478Z" fill="#263238"/>
<path d="M91.3602 211.019C89.3265 211.352 87.3125 211.8 85.3275 212.363C84.332 212.643 83.3705 212.983 82.409 213.358C81.9495 213.533 81.4985 213.716 81.0476 213.908C80.5966 214.1 80.0691 214.397 79.5755 214.598C79.516 214.598 79.5755 214.703 79.5755 214.685C80.0605 214.511 80.5626 214.415 81.0561 214.266L82.5196 213.821C83.5066 213.524 84.4851 213.236 85.4636 212.948C87.4207 212.337 89.3777 211.752 91.3602 211.202C91.5134 211.159 91.4709 211.001 91.3602 211.019Z" fill="#263238"/>
<path d="M69.1604 179.323C69.4667 180.266 74.5295 186.097 78.8094 185.477C80.1963 185.276 79.4561 177.42 79.4561 177.42L79.5326 176.835L80.5622 168.534L70.7005 163.296L69.288 162.606C69.288 162.606 69.1519 164.902 69.0072 167.748V168.158C69.0072 168.315 69.0072 168.473 69.0072 168.621C69.0072 169.049 68.9562 169.494 68.9392 169.913C68.9221 170.332 68.9392 170.568 68.9392 170.917V171.947C68.8484 174.408 68.9223 176.872 69.1604 179.323Z" fill="#D3766A"/>
<path d="M69.0161 167.757C70.0228 169.963 71.4859 171.918 73.3035 173.486C75.1212 175.054 77.2498 176.197 79.5415 176.835L80.5711 168.534L70.7094 163.296L69.2969 162.606C69.2969 162.606 69.1608 164.911 69.0161 167.757Z" fill="#263238"/>
<path d="M90.6877 153.711C94.338 167.905 86.4333 171.755 83.4808 172.558C80.775 173.291 71.4578 175.421 66.3951 161.69C61.3323 147.959 66.6078 141.743 72.7171 139.736C78.8264 137.728 87.0289 139.526 90.6877 153.711Z" fill="#D3766A"/>
<path d="M88.2204 153.091C87.8916 153.109 87.5622 153.109 87.2334 153.091C86.8845 153.131 86.5325 153.055 86.2293 152.873C86.1457 152.796 86.0889 152.693 86.0674 152.579C86.0459 152.466 86.0609 152.349 86.1102 152.245C86.2407 152.058 86.4175 151.909 86.6225 151.816C86.8274 151.722 87.053 151.686 87.2759 151.712C87.7369 151.689 88.1895 151.845 88.5437 152.149C88.6141 152.223 88.6627 152.316 88.6844 152.418C88.706 152.519 88.6996 152.625 88.6661 152.723C88.6325 152.82 88.573 152.907 88.4943 152.972C88.4156 153.037 88.3207 153.079 88.2204 153.091Z" fill="#263238"/>
<path d="M78.4266 154.497C78.7372 154.384 79.0412 154.253 79.3371 154.104C79.6746 154.013 79.9736 153.81 80.188 153.528C80.2372 153.424 80.2522 153.307 80.2307 153.193C80.2093 153.08 80.1524 152.977 80.0688 152.899C79.8804 152.774 79.663 152.703 79.4387 152.692C79.2145 152.681 78.9915 152.732 78.7925 152.838C78.3579 152.988 77.9937 153.3 77.7714 153.711C77.7172 153.81 77.6938 153.923 77.7044 154.035C77.715 154.147 77.7591 154.254 77.8306 154.34C77.9022 154.425 77.9978 154.487 78.1044 154.515C78.2111 154.543 78.3236 154.537 78.4266 154.497Z" fill="#263238"/>
<path d="M81.0135 156.863C81.0135 156.863 80.9454 156.932 80.9539 156.967C81.1922 157.936 81.3028 159.089 80.5115 159.586C80.5115 159.586 80.5115 159.656 80.5115 159.638C81.5495 159.272 81.3879 157.744 81.0135 156.863Z" fill="#263238"/>
<path d="M79.9497 156.033C78.3926 156.251 78.9287 159.429 80.3752 159.228C81.8217 159.027 81.2516 155.85 79.9497 156.033Z" fill="#263238"/>
<path d="M79.3711 156.313C79.1329 156.539 78.9201 156.906 78.5968 156.993C78.2735 157.081 77.8821 156.819 77.5843 156.539C77.5843 156.539 77.5332 156.539 77.5332 156.592C77.6353 157.203 77.9672 157.779 78.6138 157.762C79.2605 157.744 79.5413 157.124 79.5838 156.487C79.5923 156.365 79.4647 156.216 79.3711 156.313Z" fill="#263238"/>
<path d="M86.6038 155.492C86.6038 155.492 86.6804 155.492 86.6889 155.571C86.8165 156.557 87.1313 157.674 88.0503 157.849V157.91C86.9697 157.936 86.5698 156.452 86.6038 155.492Z" fill="#263238"/>
<path d="M87.293 154.322C88.8161 153.938 89.4542 157.098 88.0418 157.447C86.6293 157.797 86.0081 154.645 87.293 154.322Z" fill="#263238"/>
<path d="M87.9736 154.392C88.2544 154.506 88.5522 154.759 88.8245 154.715C89.0967 154.672 89.3435 154.27 89.4967 153.903C89.4967 153.86 89.4967 153.903 89.5477 153.903C89.6839 154.497 89.6158 155.169 89.0797 155.405C88.5437 155.641 88.1012 155.187 87.8374 154.611C87.8119 154.532 87.88 154.34 87.9736 154.392Z" fill="#263238"/>
<path d="M82.775 165.234C83.0302 165.443 83.3025 165.732 83.6258 165.714C83.9824 165.657 84.324 165.526 84.6299 165.33C84.6299 165.33 84.698 165.33 84.6809 165.33C84.5674 165.543 84.3999 165.72 84.1961 165.843C83.9924 165.966 83.7601 166.03 83.5237 166.028C83.3239 165.997 83.1372 165.907 82.9863 165.769C82.8353 165.631 82.7264 165.451 82.6729 165.251C82.6218 165.243 82.6899 165.208 82.775 165.234Z" fill="#263238"/>
<path d="M86.0847 160.948C86.0847 160.948 86.5526 162.379 86.6803 163.069C86.6803 163.13 86.5356 163.2 86.3059 163.252C85.7468 163.473 85.1392 163.53 84.5504 163.417C83.9617 163.305 83.4148 163.027 82.9704 162.615C82.9586 162.604 82.9512 162.588 82.9496 162.572C82.9479 162.555 82.9521 162.538 82.9613 162.525C82.9706 162.511 82.9843 162.501 83 162.497C83.0157 162.493 83.0324 162.494 83.047 162.502C84.0179 162.941 85.1009 163.048 86.1357 162.807C86.1357 162.606 85.2848 160.381 85.3614 160.354C85.8949 160.302 86.4328 160.323 86.9611 160.415C86.1102 157.413 84.7318 154.576 83.8979 151.564C83.89 151.541 83.8907 151.516 83.8999 151.494C83.9091 151.472 83.9261 151.454 83.9476 151.444C83.9691 151.434 83.9934 151.433 84.0157 151.441C84.0381 151.448 84.0568 151.464 84.0681 151.485C85.6019 154.482 86.8391 157.628 87.7609 160.878C87.88 161.245 86.3825 160.992 86.0847 160.948Z" fill="#263238"/>
<path d="M66.5398 162.484C67.4039 161.92 68.1116 161.137 68.5945 160.21C69.0775 159.284 69.3193 158.245 69.2967 157.194C71.6711 155.796 73.6368 153.77 74.9891 151.328C74.9295 151.643 74.4701 153.895 74.2063 155.038C83.064 152.28 85.1061 144.86 85.1061 144.86C87.0101 146.298 88.5746 148.156 89.6838 150.298C89.6838 150.298 89.1308 144.598 85.8719 141.106C84.8045 139.883 83.4384 138.973 81.9144 138.471C80.3903 137.97 78.7635 137.894 77.2014 138.252C74.9083 137.948 72.5779 138.285 70.4559 139.227C68.3339 140.169 66.4989 141.681 65.1444 143.603C59.971 150.848 66.5398 162.484 66.5398 162.484Z" fill="#263238"/>
<path d="M80.9198 152.725C79.5528 153.706 78.0498 154.471 76.4612 154.994C78.9269 153.993 81.0718 152.306 82.6556 150.124C83.3266 149.191 83.8811 148.177 84.3063 147.103C84.828 145.949 85.1174 144.699 85.1572 143.428C85.1572 143.332 85.2933 143.332 85.2933 143.428C85.3909 144.686 85.2816 145.952 84.97 147.173C84.6039 148.37 84.0271 149.489 83.2682 150.473C82.5904 151.339 81.8003 152.105 80.9198 152.751" fill="#263238"/>
<path d="M68.8797 162.188C68.8797 162.188 65.0422 158.224 63.2298 159.7C61.4174 161.175 64.8465 167.312 67.3396 167.792C67.6555 167.876 67.9847 167.893 68.3074 167.843C68.6301 167.793 68.9395 167.676 69.217 167.5C69.4945 167.324 69.7343 167.092 69.922 166.818C70.1097 166.544 70.2414 166.234 70.3091 165.906L68.8797 162.188Z" fill="#D3766A"/>
<path d="M64.2512 161.437V161.498C66.0125 161.89 67.1442 163.305 68.0206 164.815C67.8952 164.664 67.7393 164.543 67.5638 164.459C67.3882 164.376 67.1972 164.333 67.0038 164.333C66.8105 164.333 66.6194 164.376 66.4438 164.459C66.2683 164.543 66.1124 164.664 65.987 164.815C65.987 164.815 65.987 164.911 66.0466 164.893C66.3196 164.749 66.6292 164.694 66.9337 164.736C67.2381 164.778 67.5225 164.915 67.7483 165.129C68.1235 165.493 68.46 165.897 68.7524 166.334C68.8545 166.473 69.1012 166.334 69.0162 166.177C68.6758 163.968 66.5401 161.253 64.2512 161.437Z" fill="#263238"/>
<path d="M58.0396 186.743C50.3817 199.051 41.6176 218.701 41.3793 232.598C41.2602 239.38 52.6961 245.543 56.8654 243.492C66.6505 238.647 80.2816 227.526 85.6422 220.193C87.5397 217.575 67.2802 200.195 65.7911 203.302C64.3021 206.41 63.3831 208.225 61.8941 209.413C61.1623 209.998 65.4678 200.858 67.6375 188.061C70.5901 170.594 60.8135 182.282 58.0396 186.743Z" fill="#D3766A"/>
<path d="M81.8131 173.448C81.8131 173.448 78.6394 169.415 81.4983 167.425C84.3573 165.435 86.8503 169.921 86.8503 169.921L81.8131 173.448Z" fill="#FF91B4"/>
<path d="M86.7285 169.783L81.6963 173.306L101.715 203.402L106.748 199.879L86.7285 169.783Z" fill="#FFC727"/>
<path opacity="0.2" d="M86.7285 169.783L81.6963 173.306L101.715 203.402L106.748 199.879L86.7285 169.783Z" fill="black"/>
<path d="M87.0456 169.315L81.1699 173.429L81.9661 174.626L87.8417 170.512L87.0456 169.315Z" fill="#37474F"/>
<path d="M87.9149 170.639L82.0393 174.753L82.8355 175.95L88.7111 171.836L87.9149 170.639Z" fill="#37474F"/>
<path d="M106.761 199.845L107.339 204.891L107.535 206.55L106.089 205.764L101.724 203.372V202.272L102.719 202.674V201.565L103.723 201.967V200.867L104.736 201.26V200.16L105.74 200.553V199.453L106.761 199.845Z" fill="white"/>
<path d="M107.34 204.891L107.535 206.549L106.089 205.764L107.34 204.891Z" fill="#37474F"/>
<path d="M96.3123 178.293C98.1247 180.859 91.5814 184.901 91.5814 184.901C92.9095 184.845 94.2143 185.271 95.2657 186.106C97.0611 187.659 95.4699 191.221 95.4699 191.221C96.8603 191.457 98.148 192.121 99.1628 193.124C100.728 194.791 99.6223 198.615 99.6223 198.615C100.782 199.559 101.571 200.901 101.843 202.394C102.422 206.401 97.5206 210.094 94.9254 213C92.143 216.108 86.6888 219.067 84.5787 221.328L65.1445 204.908C65.1445 204.908 71.3645 188.707 76.8186 184.342C79.8563 181.898 93.547 174.374 96.3123 178.293Z" fill="#D3766A"/>
<path d="M91.479 184.866C87.5138 186.297 83.8976 188.689 80.4175 191.046C80.3409 191.099 80.4175 191.221 80.5026 191.168C83.9061 188.785 88.0499 187.284 91.564 185.058C91.5889 185.046 91.6082 185.025 91.6178 184.999C91.6273 184.973 91.6264 184.944 91.6151 184.918C91.6038 184.893 91.5831 184.873 91.5576 184.863C91.5321 184.853 91.5038 184.854 91.479 184.866Z" fill="#263238"/>
<path d="M95.1975 191.02C94.3287 191.437 93.5163 191.968 92.781 192.6C91.9302 193.211 91.1559 193.848 90.3645 194.494C88.7649 195.775 87.2021 197.104 85.6762 198.484C85.6081 198.545 85.6762 198.658 85.7528 198.606C87.3439 197.323 88.9521 196.066 90.6028 194.852C91.4537 194.241 92.245 193.648 93.0788 193.045C93.8962 192.551 94.6581 191.965 95.3507 191.299C95.3868 191.279 95.4134 191.244 95.4245 191.203C95.4357 191.162 95.4306 191.118 95.4103 191.081C95.39 191.044 95.3561 191.017 95.3162 191.005C95.2763 190.994 95.2337 190.999 95.1975 191.02Z" fill="#263238"/>
<path d="M99.5543 198.667C98.7746 199.055 98.0641 199.574 97.4526 200.203C96.7378 200.806 96.0231 201.408 95.2999 202.002C93.8619 203.189 92.4154 204.376 90.9348 205.493C90.8582 205.546 90.9348 205.668 91.0199 205.616C92.526 204.463 94.0576 203.337 95.5551 202.176C96.2954 201.609 97.0271 201.033 97.7589 200.43C98.4745 199.964 99.1052 199.374 99.6223 198.685C99.6223 198.685 99.5968 198.658 99.5543 198.667Z" fill="#263238"/>
<path d="M75.7549 185.32C77.2506 183.429 79.2762 182.055 81.5579 181.383C81.6515 181.383 81.6515 181.383 81.5579 181.453C79.4826 182.499 77.5442 183.81 75.7889 185.355L75.7549 185.32Z" fill="#263238"/>
<path d="M86.6036 223.851L65.4762 202.508L62.2513 208.505C62.2513 208.505 67.0673 195.158 68.2926 187.877C69.5179 180.597 69.3137 172.06 60.3113 182.972C51.4962 193.656 39.686 224.479 40.2901 232.466C40.8942 240.454 50.7985 245.29 55.7846 244.373C60.7708 243.457 86.6036 223.851 86.6036 223.851Z" fill="#FFC727"/>
<path d="M81.0729 226.155C78.1203 223.283 66.4632 211.08 64.1148 208.269C63.9531 208.068 64.0382 207.92 64.2339 208.103C73.2788 216.483 78.4266 223.056 81.175 226.024C81.2601 226.103 81.1665 226.225 81.0729 226.155Z" fill="#263238"/>
<path d="M47.1396 230.127C48.2798 228.102 49.6072 226.155 50.875 224.2C52.1428 222.245 53.4276 220.263 54.755 218.343C56.0824 216.422 57.5289 214.545 58.9584 212.669C59.6646 211.726 61.0515 209.893 61.7663 208.959C62.481 208.025 62.5491 208.243 61.8769 209.256C61.2047 210.268 59.9114 212.101 59.2647 213.079C57.9969 214.999 56.712 216.937 55.4442 218.832C54.1764 220.726 52.7639 222.603 51.411 224.479C50.0581 226.356 48.7393 228.346 47.2843 230.197C47.2247 230.276 47.0971 230.214 47.1396 230.127Z" fill="#263238"/>
<path d="M64.0041 201.879C64.7359 199.671 65.6208 197.515 66.1909 195.227C66.1909 195.14 66.3525 195.175 66.327 195.227C65.9016 196.72 65.5697 198.23 65.1868 199.732C65.2268 199.673 65.2637 199.611 65.2974 199.548C65.6293 198.972 65.9526 198.379 66.2674 197.803C66.31 197.724 66.4291 197.803 66.3866 197.881C66.0973 198.484 65.808 199.095 65.5357 199.706C65.3426 200.21 65.1003 200.692 64.8124 201.146C64.7188 201.469 64.6338 201.792 64.5316 202.115C63.8741 204.333 63.0637 206.5 62.1066 208.601C62.0899 208.625 62.0658 208.642 62.0383 208.65C62.0108 208.658 61.9815 208.656 61.955 208.645C61.9285 208.634 61.9064 208.614 61.8922 208.589C61.878 208.563 61.8727 208.534 61.8769 208.505C62.5066 206.287 63.2638 204.07 64.0041 201.879Z" fill="#263238"/>
<path d="M65.3146 202.386C65.3827 202.272 65.9017 202.831 66.1655 203.128C66.2081 203.171 66.1655 203.197 66.0889 203.128C66.0124 203.058 65.723 202.918 65.5614 202.778C65.0679 203.791 62.328 208.566 62.1579 208.775C61.9877 208.985 61.9877 208.775 62.0302 208.653C62.1494 208.156 64.702 203.424 65.3146 202.386Z" fill="#263238"/>
<path d="M62.7196 240.655C68.8119 236.089 75.0233 231.672 81.3794 227.491C83.0812 226.339 84.7829 225.108 86.4847 223.912C86.2975 223.79 84.5787 221.922 84.5277 221.852C84.4766 221.782 84.5277 221.765 84.5277 221.799C84.7234 221.965 86.9186 223.79 87.0803 223.999C87.242 224.209 80.7072 228.652 77.6525 230.869C74.5979 233.086 71.39 235.19 68.2163 237.285C66.4124 238.472 64.6 239.642 62.7621 240.777C62.7111 240.82 62.6515 240.707 62.7196 240.655Z" fill="#263238"/>
<path d="M132.032 231.279L100.167 234.108L111.518 190.846L143.383 188.017L132.032 231.279Z" fill="#EBEBEB"/>
<path d="M134.219 231.087L102.345 233.907L113.696 190.645L145.561 187.825L134.219 231.087Z" fill="#FFC727"/>
<path d="M117.082 190.348C116.925 191.101 116.485 191.759 115.857 192.181C115.568 192.373 115.457 191.972 115.738 191.788C116.147 191.517 116.448 191.106 116.589 190.627C116.614 190.55 116.633 190.471 116.648 190.392C116.717 190.129 116.717 189.852 116.648 189.589C116.614 189.478 116.545 189.383 116.453 189.318H116.41C116.39 189.322 116.37 189.322 116.35 189.318C116.279 189.293 116.201 189.293 116.129 189.318C115.995 189.384 115.876 189.479 115.78 189.597C115.668 189.739 115.574 189.894 115.5 190.06C115.5 190.139 115.423 190.226 115.38 190.313V190.365V190.453C115.378 190.473 115.378 190.494 115.38 190.514L114.929 190.558C115.012 190.251 115.135 189.957 115.295 189.685C115.415 189.461 115.58 189.268 115.78 189.117C115.98 188.966 116.209 188.862 116.453 188.812C116.631 188.792 116.811 188.843 116.953 188.955C117.096 189.067 117.191 189.232 117.218 189.414C117.249 189.732 117.203 190.053 117.082 190.348Z" fill="#455A64"/>
<path d="M119.575 190.13C119.418 190.882 118.978 191.541 118.35 191.963C118.061 192.155 117.95 191.753 118.239 191.57C118.643 191.294 118.944 190.884 119.09 190.409C119.09 190.33 119.133 190.243 119.141 190.173C119.21 189.91 119.21 189.633 119.141 189.37C119.106 189.258 119.034 189.163 118.937 189.1H118.869C118.797 189.075 118.72 189.075 118.648 189.1C118.515 189.16 118.398 189.253 118.307 189.37C118.146 189.595 118.012 189.838 117.908 190.095V190.147C117.905 190.176 117.905 190.205 117.908 190.234C117.904 190.255 117.904 190.275 117.908 190.296H117.457C117.54 189.989 117.663 189.696 117.822 189.423C117.942 189.199 118.107 189.006 118.307 188.855C118.507 188.704 118.736 188.6 118.98 188.55C119.158 188.53 119.338 188.581 119.48 188.693C119.623 188.805 119.718 188.97 119.745 189.152C119.773 189.488 119.715 189.825 119.575 190.13Z" fill="#455A64"/>
<path d="M122.069 189.911C121.915 190.661 121.477 191.317 120.852 191.736C120.563 191.937 120.443 191.535 120.733 191.343C121.134 191.068 121.434 190.662 121.584 190.191C121.605 190.11 121.622 190.029 121.635 189.946C121.703 189.683 121.703 189.406 121.635 189.143C121.594 189.034 121.523 188.94 121.43 188.873H121.371C121.292 188.867 121.213 188.882 121.141 188.916C121.007 188.975 120.89 189.068 120.801 189.187C120.683 189.324 120.588 189.48 120.52 189.65C120.472 189.729 120.432 189.814 120.401 189.903V189.964C120.396 189.993 120.396 190.022 120.401 190.051C120.401 190.051 120.401 190.051 120.401 190.103L119.95 190.147C120.034 189.841 120.157 189.547 120.316 189.274C120.438 189.053 120.604 188.861 120.803 188.711C121.003 188.56 121.231 188.455 121.473 188.401C121.653 188.384 121.832 188.437 121.974 188.551C122.117 188.664 122.211 188.829 122.239 189.012C122.258 189.322 122.199 189.632 122.069 189.911Z" fill="#455A64"/>
<path d="M124.561 189.685C124.487 190.057 124.341 190.411 124.132 190.726C123.923 191.041 123.655 191.31 123.345 191.518C123.055 191.71 122.936 191.308 123.225 191.125C123.632 190.851 123.933 190.44 124.076 189.964C124.098 189.886 124.115 189.808 124.127 189.728C124.196 189.465 124.196 189.188 124.127 188.925C124.09 188.814 124.018 188.719 123.923 188.654H123.881H123.821C123.749 188.634 123.672 188.634 123.6 188.654C123.464 188.718 123.344 188.814 123.251 188.934C123.136 189.073 123.041 189.229 122.97 189.396C122.925 189.478 122.886 189.563 122.851 189.65V189.702V189.789C122.851 189.789 122.851 189.789 122.851 189.85L122.392 189.894C122.474 189.587 122.597 189.294 122.757 189.021C122.879 188.8 123.045 188.608 123.245 188.457C123.444 188.307 123.673 188.202 123.915 188.148C124.094 188.128 124.275 188.179 124.419 188.291C124.563 188.403 124.66 188.568 124.689 188.75C124.723 189.068 124.679 189.389 124.561 189.685Z" fill="#455A64"/>
<path d="M127.063 189.466C126.906 190.219 126.465 190.878 125.838 191.3C125.548 191.492 125.429 191.09 125.719 190.907C126.125 190.633 126.426 190.222 126.569 189.746C126.569 189.667 126.612 189.58 126.621 189.51C126.689 189.247 126.689 188.97 126.621 188.707C126.588 188.594 126.515 188.497 126.416 188.436H126.357C126.285 188.411 126.207 188.411 126.136 188.436C126 188.497 125.88 188.589 125.787 188.707C125.674 188.851 125.58 189.01 125.506 189.178C125.463 189.257 125.429 189.344 125.387 189.431V189.484C125.38 189.513 125.38 189.542 125.387 189.571C125.387 189.571 125.387 189.571 125.387 189.632H124.936C125.014 189.325 125.134 189.032 125.293 188.759C125.412 188.536 125.578 188.342 125.778 188.191C125.977 188.041 126.207 187.937 126.45 187.886C126.63 187.864 126.812 187.914 126.957 188.027C127.101 188.139 127.197 188.305 127.225 188.489C127.255 188.823 127.199 189.161 127.063 189.466Z" fill="#455A64"/>
<path d="M129.573 189.248C129.415 189.998 128.975 190.654 128.348 191.072C128.058 191.273 127.939 190.872 128.228 190.679C128.633 190.407 128.933 190 129.079 189.527C129.103 189.447 129.123 189.365 129.139 189.283C129.208 189.023 129.208 188.749 129.139 188.488C129.107 188.375 129.038 188.276 128.943 188.209H128.722C128.646 188.202 128.569 188.217 128.501 188.253C128.363 188.31 128.243 188.404 128.152 188.523C128.04 188.665 127.945 188.82 127.871 188.986C127.871 189.065 127.795 189.152 127.752 189.239V189.3C127.748 189.329 127.748 189.359 127.752 189.388C127.752 189.388 127.752 189.388 127.752 189.44H127.301C127.382 189.134 127.502 188.84 127.658 188.567C127.781 188.347 127.947 188.155 128.147 188.005C128.346 187.854 128.574 187.749 128.816 187.694C128.996 187.676 129.177 187.729 129.32 187.843C129.464 187.956 129.561 188.121 129.59 188.305C129.661 188.616 129.655 188.94 129.573 189.248Z" fill="#455A64"/>
<path d="M132.05 189.03C131.889 189.779 131.449 190.434 130.824 190.854C130.535 191.046 130.424 190.645 130.705 190.461C131.114 190.19 131.416 189.779 131.556 189.3C131.581 189.223 131.601 189.144 131.616 189.065C131.685 188.802 131.685 188.525 131.616 188.262C131.582 188.151 131.513 188.056 131.42 187.991H131.377H131.275C131.203 187.97 131.126 187.97 131.054 187.991C130.918 188.055 130.798 188.15 130.705 188.27C130.593 188.412 130.498 188.567 130.424 188.733C130.382 188.812 130.348 188.899 130.305 188.986V189.047C130.302 189.073 130.302 189.1 130.305 189.126C130.302 189.146 130.302 189.167 130.305 189.187H129.854C129.932 188.879 130.056 188.584 130.22 188.314C130.339 188.091 130.505 187.897 130.705 187.746C130.904 187.595 131.134 187.491 131.377 187.441C131.556 187.421 131.735 187.472 131.878 187.585C132.021 187.697 132.116 187.861 132.143 188.043C132.195 188.375 132.163 188.715 132.05 189.03Z" fill="#455A64"/>
<path d="M134.542 188.803C134.385 189.555 133.944 190.214 133.317 190.636C133.027 190.828 132.917 190.426 133.206 190.243C133.61 189.967 133.91 189.557 134.057 189.082C134.057 189.004 134.1 188.916 134.108 188.846C134.177 188.583 134.177 188.306 134.108 188.043C134.073 187.932 134 187.836 133.904 187.773H133.836C133.764 187.748 133.686 187.748 133.615 187.773C133.481 187.833 133.365 187.926 133.274 188.043C133.156 188.183 133.061 188.343 132.993 188.515C132.945 188.595 132.905 188.679 132.874 188.768V188.82V188.908C132.871 188.928 132.871 188.948 132.874 188.969H132.423C132.509 188.663 132.632 188.37 132.789 188.096C132.908 187.872 133.074 187.679 133.274 187.528C133.474 187.377 133.703 187.273 133.946 187.223C134.125 187.203 134.304 187.254 134.447 187.366C134.59 187.478 134.685 187.643 134.712 187.825C134.74 188.161 134.681 188.498 134.542 188.803Z" fill="#455A64"/>
<path d="M137.035 188.585C136.881 189.334 136.444 189.99 135.819 190.409C135.529 190.61 135.41 190.208 135.699 190.025C136.1 189.744 136.399 189.336 136.55 188.864C136.571 188.783 136.588 188.702 136.601 188.619C136.67 188.359 136.67 188.085 136.601 187.825C136.564 187.712 136.492 187.615 136.397 187.546H136.304C136.225 187.54 136.145 187.555 136.074 187.589C135.94 187.648 135.822 187.741 135.733 187.86C135.617 187.998 135.522 188.154 135.453 188.323C135.404 188.403 135.365 188.487 135.334 188.576V188.637C135.33 188.666 135.33 188.695 135.334 188.724C135.334 188.724 135.334 188.724 135.334 188.777L134.883 188.82C134.966 188.514 135.089 188.22 135.248 187.947C135.37 187.726 135.536 187.534 135.736 187.384C135.935 187.233 136.164 187.128 136.406 187.074C136.585 187.057 136.765 187.11 136.907 187.224C137.049 187.337 137.144 187.503 137.171 187.685C137.197 187.992 137.15 188.3 137.035 188.585Z" fill="#455A64"/>
<path d="M139.528 188.366C139.374 189.116 138.937 189.772 138.312 190.191C138.022 190.383 137.903 189.981 138.192 189.798C138.597 189.522 138.897 189.112 139.043 188.637C139.065 188.56 139.082 188.481 139.094 188.401C139.163 188.138 139.163 187.861 139.094 187.598C139.057 187.488 138.985 187.392 138.89 187.328H138.831C138.758 187.307 138.682 187.307 138.609 187.328C138.473 187.391 138.354 187.487 138.261 187.607C138.145 187.746 138.051 187.902 137.98 188.07C137.935 188.151 137.895 188.236 137.861 188.323V188.384C137.856 188.413 137.856 188.442 137.861 188.471C137.861 188.471 137.861 188.471 137.861 188.524L137.401 188.567C137.484 188.261 137.607 187.967 137.767 187.694C137.889 187.473 138.055 187.281 138.254 187.131C138.454 186.98 138.682 186.875 138.924 186.821C139.103 186.801 139.282 186.853 139.425 186.965C139.568 187.077 139.663 187.241 139.69 187.424C139.718 187.747 139.662 188.072 139.528 188.366Z" fill="#455A64"/>
<path d="M142.03 188.139C141.873 188.892 141.433 189.551 140.805 189.973C140.516 190.165 140.397 189.763 140.686 189.58C141.092 189.306 141.393 188.895 141.537 188.419C141.558 188.341 141.575 188.263 141.588 188.183C141.656 187.92 141.656 187.643 141.588 187.38C141.555 187.267 141.482 187.17 141.384 187.109H141.324C141.252 187.084 141.175 187.084 141.103 187.109C140.969 187.173 140.85 187.265 140.754 187.38C140.641 187.524 140.547 187.683 140.473 187.851C140.473 187.93 140.397 188.017 140.354 188.105V188.157C140.348 188.186 140.348 188.216 140.354 188.244C140.354 188.244 140.354 188.288 140.354 188.305H139.903C139.979 187.998 140.1 187.703 140.26 187.432C140.38 187.209 140.545 187.015 140.745 186.865C140.945 186.714 141.174 186.61 141.418 186.559C141.598 186.537 141.779 186.587 141.924 186.7C142.068 186.812 142.165 186.978 142.192 187.162C142.222 187.497 142.167 187.834 142.03 188.139Z" fill="#455A64"/>
<path d="M144.523 187.921C144.365 188.671 143.925 189.327 143.298 189.745C143.008 189.946 142.889 189.545 143.179 189.361C143.582 189.084 143.882 188.675 144.03 188.2C144.03 188.122 144.072 188.035 144.089 187.965C144.158 187.702 144.158 187.425 144.089 187.162C144.058 187.045 143.985 186.946 143.885 186.882H143.842H143.783C143.707 186.875 143.63 186.89 143.562 186.926C143.424 186.983 143.304 187.077 143.213 187.197C143.102 187.339 143.008 187.494 142.932 187.659C142.932 187.738 142.855 187.825 142.813 187.912V187.973C142.809 188.002 142.809 188.032 142.813 188.061C142.813 188.061 142.813 188.061 142.813 188.113L142.362 188.157C142.442 187.851 142.563 187.557 142.719 187.284C142.842 187.063 143.008 186.872 143.208 186.721C143.407 186.571 143.635 186.465 143.876 186.411C144.057 186.393 144.237 186.446 144.381 186.56C144.525 186.673 144.621 186.838 144.651 187.022C144.679 187.328 144.635 187.636 144.523 187.921Z" fill="#455A64"/>
<path d="M144.489 198.213C146.123 201.783 150.25 206.226 150.573 209.142C150.679 209.857 150.558 210.588 150.227 211.226C149.895 211.865 149.372 212.377 148.735 212.686C148.735 212.686 151.56 214.152 151.432 216.841C151.364 218.229 149.152 219.338 149.152 219.338C149.152 219.338 151.364 220.612 151.101 222.995C150.896 224.898 148.71 225.727 148.71 225.727C148.71 225.727 150.275 227.962 149.458 229.83C147.808 233.619 131.786 233.54 129.344 227.473C128.203 224.645 132.117 224.855 132.117 224.855C132.117 224.855 126.578 223.109 126.51 219.73C126.442 216.352 131.505 216.972 131.505 216.972C131.505 216.972 126.144 215.226 126.399 211.734C126.68 208.068 131.641 209.587 131.641 209.587C131.641 209.587 128.093 207.091 128.91 204.446C130.245 200.081 136.967 205.615 140.49 204.777L142.464 198.833L144.489 198.213Z" fill="#D3766A"/>
<path d="M147.671 203.407C146.42 199.915 150.683 195.551 149.951 192.059C148.964 187.267 143.689 191.928 142.489 198.876V204.437L147.671 203.407Z" fill="#D3766A"/>
<path d="M148.378 225.911C148.429 225.911 148.446 225.981 148.378 225.99C142.9 227.35 137.149 226.97 131.888 224.898C131.717 224.829 131.76 224.523 131.956 224.558C137.337 225.824 142.869 226.28 148.378 225.911Z" fill="#263238"/>
<path d="M149.228 219.373C149.288 219.373 149.296 219.469 149.228 219.486C143.783 220.787 136.831 220.315 131.309 217.147C131.113 217.033 131.053 216.745 131.309 216.85C135.121 218.674 144.038 219.792 149.228 219.373Z" fill="#263238"/>
<path d="M131.334 209.238C136.746 212.066 142.498 212.834 148.514 212.73C148.599 212.73 148.59 212.843 148.514 212.86C145.587 213.733 141.707 213.367 138.78 212.86C136.016 212.416 133.413 211.236 131.232 209.439C131.156 209.36 131.224 209.177 131.334 209.238Z" fill="#263238"/>
<path d="M267.237 301.253C266.497 303.296 230.284 349.482 227.816 350.347C226.889 350.678 220.022 345.659 211.896 339.357C210.143 337.995 208.339 336.572 206.51 335.123C194.657 325.73 182.328 315.456 182.328 315.456L206.467 284.493L229.977 304.981L235.151 309.476C235.151 309.476 256.72 298.128 259.528 297.508C262.336 296.889 267.978 299.202 267.237 301.253Z" fill="#D3766A"/>
<path d="M267.237 301.253C266.497 303.296 230.284 349.482 227.816 350.346C226.676 350.748 216.755 343.258 206.544 335.122L229.977 304.98L235.151 309.476C235.151 309.476 256.72 298.128 259.528 297.508C262.336 296.888 267.978 299.202 267.237 301.253Z" fill="white"/>
<path d="M267.238 301.253C266.497 303.296 230.284 349.482 227.816 350.346C226.889 350.678 220.022 345.659 211.896 339.356L235.159 309.511C235.159 309.511 256.729 298.163 259.537 297.543C262.345 296.923 267.978 299.202 267.238 301.253Z" fill="#974BAD"/>
<path d="M264.914 300.424C258.66 308.018 234.129 339.225 228.505 347.212C228.505 347.282 228.505 347.317 228.556 347.256C234.912 339.871 259.188 308.454 265.042 300.528C265.161 300.362 265.05 300.266 264.914 300.424Z" fill="#263238"/>
<path d="M255.589 299.176C254.897 300.013 254.381 300.988 254.073 302.039C253.766 303.091 253.673 304.196 253.802 305.286C254.024 307.261 254.981 309.072 256.474 310.34C256.516 310.34 256.584 310.288 256.542 310.244C255.256 308.747 254.478 306.862 254.324 304.873C254.171 302.883 254.65 300.897 255.691 299.21C255.689 299.199 255.685 299.188 255.678 299.179C255.671 299.17 255.661 299.164 255.65 299.16C255.64 299.156 255.628 299.156 255.617 299.159C255.606 299.161 255.596 299.167 255.589 299.176Z" fill="#263238"/>
<path d="M238.265 307.128C235.797 310.192 234.01 314.661 235.006 318.624C235.006 318.782 235.252 318.729 235.278 318.624C236.019 314.771 237.16 311.011 238.682 307.407C238.718 307.351 238.73 307.281 238.717 307.215C238.703 307.149 238.664 307.091 238.609 307.054C238.554 307.017 238.487 307.004 238.422 307.018C238.357 307.032 238.301 307.071 238.265 307.128Z" fill="#263238"/>
<path d="M241.039 305.487C238.571 308.551 236.784 313.02 237.78 316.983C237.78 317.14 238.027 317.079 238.052 316.983C238.793 313.13 239.934 309.37 241.456 305.766C241.492 305.709 241.504 305.64 241.491 305.574C241.477 305.508 241.439 305.45 241.383 305.413C241.328 305.376 241.261 305.363 241.196 305.377C241.131 305.39 241.075 305.43 241.039 305.487Z" fill="#263238"/>
<path d="M243.838 303.846C241.362 306.91 239.584 311.379 240.571 315.342C240.571 315.499 240.818 315.438 240.843 315.342C241.585 311.492 242.726 307.735 244.247 304.134C244.265 304.106 244.278 304.075 244.285 304.042C244.292 304.01 244.292 303.976 244.286 303.943C244.28 303.91 244.268 303.879 244.25 303.851C244.233 303.823 244.21 303.799 244.183 303.78C244.156 303.761 244.126 303.748 244.094 303.741C244.062 303.734 244.029 303.734 243.997 303.74C243.965 303.746 243.935 303.758 243.907 303.776C243.88 303.795 243.857 303.818 243.838 303.846Z" fill="#263238"/>
<path d="M246.62 302.205C244.144 305.269 242.366 309.738 243.353 313.701C243.353 313.858 243.608 313.797 243.634 313.701C244.374 309.851 245.515 306.093 247.037 302.493C247.074 302.436 247.088 302.366 247.075 302.299C247.063 302.232 247.024 302.173 246.969 302.135C246.914 302.097 246.846 302.083 246.78 302.096C246.715 302.109 246.657 302.148 246.62 302.205Z" fill="#263238"/>
<path d="M222.889 339.33C220.166 342.822 225.442 347.186 228.165 343.695C230.888 340.203 225.604 335.838 222.889 339.33Z" fill="white"/>
<path d="M232.828 297.124C230.335 297.648 230.02 300.616 230.581 302.702C231.601 306.209 233.503 309.38 236.095 311.894C236.105 311.907 236.117 311.917 236.131 311.924C236.145 311.931 236.16 311.935 236.176 311.935C236.192 311.935 236.207 311.931 236.221 311.924C236.235 311.917 236.247 311.907 236.257 311.894C236.323 311.93 236.397 311.949 236.472 311.949C236.547 311.949 236.621 311.931 236.688 311.896C236.754 311.861 236.812 311.81 236.855 311.747C236.899 311.685 236.927 311.612 236.937 311.536C237.184 308.106 237.856 304.466 237.065 301.061C236.606 299.036 235.193 296.635 232.828 297.124ZM236.231 306.229C236.146 307.922 235.984 309.598 235.967 311.292C234.844 309.534 233.808 307.718 232.862 305.853C232.418 304.941 232.034 303.999 231.713 303.034C231.245 301.541 231.109 296.417 234.632 298.818C236.623 300.145 236.367 304.212 236.274 306.229H236.231Z" fill="#263238"/>
<path d="M231.177 320.51C233.73 318.153 235.133 314.748 236.81 311.78C236.841 311.712 236.856 311.636 236.854 311.561C236.852 311.485 236.832 311.411 236.796 311.344C236.76 311.278 236.71 311.221 236.649 311.178C236.587 311.136 236.517 311.109 236.444 311.099C236.444 311.03 236.401 310.968 236.325 310.986C232.802 311.569 229.491 313.096 226.727 315.412C225.144 316.791 223.757 319.453 225.544 321.321C227.331 323.189 229.705 321.897 231.177 320.51ZM227.995 320.963C223.74 320.92 226.676 316.765 227.884 315.796C228.677 315.183 229.51 314.626 230.377 314.128C232.18 313.127 234.032 312.221 235.925 311.414C235.014 312.828 234.223 314.303 233.372 315.778C232.343 317.48 230.326 320.99 227.995 320.963Z" fill="#263238"/>
<path d="M228.727 300.345L203.6 335.114L118.852 274.768L110.675 268.955C110.675 268.955 108.361 270.552 104.881 272.525C100.039 275.266 92.9684 278.74 86.6719 279.692C76.155 281.289 60.2946 281.115 51.4199 268.955C43.9491 258.707 46.3146 245.342 46.3146 245.342L57.8696 240.253C57.8696 240.253 85.2169 216.885 102.966 216.178C110.488 215.872 121.439 221.721 131.581 227.831C141.724 233.942 228.727 300.345 228.727 300.345Z" fill="#37474F"/>
<path d="M110.675 268.955C110.675 268.955 108.361 270.552 104.881 272.525C98.7204 264.966 85.6764 251.226 85.3105 250.702L110.675 268.955Z" fill="#263238"/>
<path d="M67.8756 232.432C66.2419 233.593 64.6592 234.832 63.0425 236.028C61.4259 237.224 59.8262 238.306 58.3116 239.59C56.7971 240.873 55.3251 242.287 53.8871 243.692C53.1893 244.373 52.4916 245.054 51.8194 245.761C51.11 246.438 50.4528 247.171 49.8539 247.952C49.8028 248.022 49.9049 248.109 49.973 248.066C50.7393 247.506 51.4698 246.897 52.1598 246.241L54.4486 244.242C55.9207 242.959 57.4182 241.72 58.8817 240.428C60.3453 239.136 61.6896 237.757 63.1361 236.465C64.5826 235.173 66.3099 233.793 67.9181 232.484C67.9351 232.458 67.9096 232.406 67.8756 232.432Z" fill="#263238"/>
<path d="M222.83 299.097C221.196 300.904 219.69 302.842 218.167 304.745C216.644 306.648 215.129 308.585 213.623 310.515C210.611 314.373 207.574 318.214 204.613 322.116C202.979 324.263 201.379 326.419 199.865 328.654C199.797 328.75 199.95 328.864 200.035 328.776C203.268 325.119 206.238 321.217 209.241 317.367C212.245 313.518 215.249 309.624 218.21 305.714C219.826 303.575 221.494 301.445 222.975 299.21C222.983 299.191 222.985 299.168 222.98 299.148C222.975 299.127 222.963 299.108 222.946 299.095C222.929 299.082 222.909 299.075 222.888 299.075C222.867 299.076 222.846 299.083 222.83 299.097Z" fill="#263238"/>
<path d="M158.503 302.885C154.249 299.481 144.693 292.821 140.32 289.626C135.946 286.431 131.624 283.253 127.208 280.163C125.943 279.284 124.669 278.412 123.387 277.544C122.111 276.672 120.784 275.868 119.533 274.969C119.465 274.917 119.397 275.039 119.465 275.092C120.613 275.964 121.694 276.881 122.868 277.754C124.042 278.627 125.012 279.439 126.093 280.259C128.212 281.865 130.347 283.445 132.492 285.034C136.814 288.238 141.179 291.415 145.587 294.514C148.088 296.26 155.797 301.498 158.35 303.156C158.444 303.235 158.631 303.008 158.503 302.885Z" fill="#263238"/>
<path d="M185.076 266.964C181.179 263.656 172.313 257.284 168.212 254.22C164.111 251.156 159.975 247.996 155.823 244.914L143.477 235.766C139.495 232.807 135.521 229.795 131.309 227.177C129.003 225.745 126.638 224.418 124.204 223.222C121.851 221.982 119.396 220.954 116.87 220.149C116.855 220.148 116.841 220.151 116.828 220.159C116.816 220.167 116.806 220.178 116.801 220.191C116.795 220.205 116.794 220.22 116.797 220.235C116.8 220.249 116.808 220.262 116.819 220.272C118.895 221.468 121.073 222.463 123.175 223.615C125.276 224.767 127.301 225.946 129.318 227.194C133.496 229.813 137.444 232.754 141.409 235.679C149.654 241.789 157.874 247.9 166.17 253.853C170.815 257.214 180.073 264.145 184.889 267.226C184.923 267.242 184.961 267.245 184.997 267.236C185.033 267.226 185.064 267.204 185.086 267.173C185.108 267.143 185.119 267.105 185.118 267.067C185.116 267.029 185.101 266.993 185.076 266.964Z" fill="#263238"/>
<path d="M351.134 226.033C342.812 237.599 334.116 251.016 332.023 265.515C332.016 265.564 332.027 265.614 332.054 265.654C332.081 265.694 332.123 265.722 332.17 265.732C332.216 265.742 332.265 265.734 332.306 265.708C332.347 265.682 332.376 265.641 332.389 265.594C333.347 261.639 334.578 257.759 336.073 253.984C341.544 252.439 346.913 251.165 349.789 245.595C352.716 239.869 352.342 232.397 351.789 226.164C351.746 225.824 351.304 225.815 351.134 226.033Z" fill="#3ACC6C"/>
<path d="M336.15 253.871C339.893 245.264 344.658 236.622 350.793 229.542C350.836 229.498 350.895 229.542 350.861 229.612C346.862 234.657 343.833 240.148 340.863 245.726C343.62 242.863 346.641 240.288 349.253 237.241C349.304 237.189 349.381 237.241 349.338 237.329C346.786 240.524 343.91 243.989 340.532 246.355C339.63 248.066 338.716 249.782 337.792 251.505C338.013 251.374 338.251 251.261 338.481 251.138C338.523 251.138 338.558 251.182 338.523 251.199C338.26 251.339 338.004 251.479 337.741 251.592C337.307 252.404 336.89 253.216 336.422 254.028C336.337 254.211 336.073 254.054 336.15 253.871Z" fill="#263238"/>
<path d="M338.932 250.859C341.169 249.577 343.306 248.117 345.322 246.494C345.373 246.451 345.458 246.494 345.399 246.573C343.448 248.306 341.31 249.803 339.026 251.034C338.89 251.086 338.83 250.929 338.932 250.859Z" fill="#263238"/>
<path d="M331.061 263.359C331.061 263.401 331.077 263.441 331.106 263.47C331.135 263.5 331.174 263.516 331.214 263.516C331.255 263.516 331.294 263.5 331.323 263.47C331.351 263.441 331.368 263.401 331.368 263.359C331.368 258.584 331.368 253.757 331.436 248.991C332.627 246.521 335.188 245.15 336.966 243.177C338.247 241.728 339.363 240.135 340.293 238.429C342.432 234.35 343.741 229.869 344.139 225.256C344.633 220.149 342.744 203.293 340.642 203.878C339.553 204.184 336.03 212.529 335.103 215.287C333.588 219.83 332.477 224.505 331.785 229.254C330.083 240.515 330.227 252.055 331.061 263.359Z" fill="#3ACC6C"/>
<path d="M331.027 242.758C331.283 236.717 332.61 230.616 333.852 224.758C335.188 218.438 336.754 212.494 339.928 206.863C339.979 206.759 340.132 206.863 340.081 206.959C337.971 211.34 336.336 215.944 335.205 220.691C335.418 220.35 335.673 220.027 335.894 219.704C335.98 219.582 336.184 219.704 336.099 219.826C335.818 220.339 335.487 220.822 335.112 221.267H335.069C333.98 225.78 333.197 230.397 332.516 234.998L332.67 234.823C332.67 234.78 332.763 234.823 332.738 234.876L332.465 235.33C332.134 237.669 331.819 240 331.504 242.313C335.563 238.76 339.026 234.561 340.983 229.394C339.068 234.753 336.048 239.511 331.402 242.767C331.328 243.384 331.243 244.003 331.147 244.626C331.147 244.757 330.934 244.722 330.934 244.626C330.934 244.076 330.934 243.526 330.985 242.968C330.971 242.952 330.961 242.934 330.955 242.914C330.95 242.893 330.949 242.872 330.953 242.852C330.957 242.831 330.966 242.812 330.979 242.796C330.992 242.779 331.009 242.766 331.027 242.758Z" fill="#263238"/>
<path d="M332.933 234.003C336.102 229.405 338.87 224.53 341.204 219.434C341.204 219.373 341.323 219.434 341.298 219.434C339.446 224.791 336.667 229.762 333.095 234.108C333.019 234.212 332.874 234.099 332.933 234.003Z" fill="#263238"/>
<path d="M337.06 218.229C338.337 215.898 339.698 213.629 340.906 211.246C340.906 211.184 341.025 211.246 341 211.307C340.008 213.786 338.752 216.146 337.256 218.342C337.241 218.369 337.217 218.389 337.188 218.397C337.159 218.405 337.129 218.401 337.103 218.386C337.077 218.371 337.058 218.346 337.05 218.317C337.042 218.287 337.046 218.256 337.06 218.229Z" fill="#263238"/>
<path d="M327.905 249.55C327.844 252.715 327.482 255.867 326.824 258.96C326.866 259.3 326.917 259.641 326.969 259.99C327.917 256.577 328.466 253.061 328.602 249.515C328.632 249.466 328.647 249.41 328.647 249.353C328.647 249.296 328.632 249.24 328.602 249.192C328.736 244.434 328.391 239.675 327.573 234.989C326.135 226.208 322.986 217.784 317.013 211.211C316.965 211.166 316.907 211.134 316.844 211.117C316.781 211.1 316.715 211.098 316.651 211.112C316.588 211.125 316.528 211.154 316.477 211.195C316.426 211.237 316.385 211.29 316.358 211.35C313.95 217.627 314.792 225.125 316.843 231.428C317.957 234.823 319.551 238.031 321.574 240.951C323.633 243.876 326.245 246.329 327.905 249.55Z" fill="#3ACC6C"/>
<path d="M317.737 214.118C323.395 223.536 327.326 234.701 327.811 245.822C327.811 246.014 327.496 246.067 327.471 245.822C327.335 244.827 327.181 243.832 327.028 242.846C324.573 240.615 322.415 238.062 320.613 235.251C320.613 235.199 320.655 235.138 320.689 235.181C322.631 237.634 324.713 239.966 326.926 242.165C326.518 239.712 326.075 237.285 325.471 234.902C325.318 234.727 325.173 234.544 325.029 234.369C324.884 234.195 325.088 234.073 325.19 234.195L325.327 234.343C324.53 231.085 323.544 227.879 322.374 224.741C320.936 222.995 319.328 221.459 318.273 219.338C318.273 219.285 318.315 219.25 318.349 219.294C319.2 220.507 320.009 221.729 320.961 222.856C321.344 223.301 321.761 223.728 322.161 224.156C320.856 220.745 319.309 217.436 317.532 214.257C317.524 214.23 317.524 214.201 317.534 214.174C317.543 214.147 317.56 214.124 317.583 214.108C317.606 214.093 317.634 214.085 317.661 214.087C317.689 214.088 317.716 214.099 317.737 214.118Z" fill="#263238"/>
<path d="M318.885 225.736C320.715 228.259 322.791 230.668 324.492 233.27C324.544 233.348 324.433 233.427 324.373 233.366C322.205 231.093 320.319 228.554 318.758 225.806C318.706 225.728 318.826 225.658 318.885 225.736Z" fill="#263238"/>
<path d="M324.748 233.855L324.824 233.942C324.884 233.994 324.824 234.081 324.739 234.02L324.663 233.942C324.612 233.889 324.697 233.802 324.748 233.855Z" fill="#263238"/>
<path d="M308.879 232.222C309.549 237.477 311.609 242.443 314.835 246.582C316.17 248.203 317.819 249.523 319.677 250.457C321.77 251.522 323.931 252.745 326.135 253.617C327.163 256.309 327.93 259.099 328.424 261.945C328.492 261.709 328.56 261.456 328.628 261.212C327.241 248.947 319.506 238.463 309.611 231.733C309.533 231.685 309.443 231.66 309.352 231.662C309.261 231.663 309.172 231.691 309.095 231.742C309.019 231.793 308.958 231.865 308.92 231.95C308.882 232.035 308.867 232.129 308.879 232.222Z" fill="#3ACC6C"/>
<path d="M312.3 235.845C312.232 235.775 312.3 235.653 312.402 235.705C317.836 239.856 322.171 245.335 325.012 251.645C325.08 251.819 324.859 251.959 324.765 251.793C324.306 250.973 323.829 250.161 323.353 249.375C321.089 248.939 318.954 247.306 317.277 245.761C317.226 245.718 317.277 245.648 317.345 245.691C318.208 246.501 319.169 247.194 320.204 247.751C321.123 248.232 322.11 248.537 323.072 248.921C322.221 247.559 321.37 246.25 320.451 244.984C318.005 244.031 315.711 242.71 313.644 241.065C313.584 241.065 313.644 240.908 313.712 240.951C315.752 242.23 317.856 243.395 320.017 244.443C318.639 242.575 317.153 240.794 315.567 239.109C314.793 238.699 314.018 238.28 313.278 237.835C313.268 237.826 313.261 237.814 313.257 237.8C313.254 237.787 313.254 237.772 313.259 237.759C313.264 237.746 313.272 237.734 313.283 237.726C313.294 237.718 313.307 237.713 313.321 237.713C313.94 237.929 314.532 238.222 315.082 238.586C314.214 237.652 313.287 236.735 312.3 235.845Z" fill="#263238"/>
<path d="M312.512 240.078C312.646 240.158 312.771 240.252 312.887 240.358C312.929 240.358 312.887 240.436 312.844 240.419C312.705 240.355 312.571 240.279 312.444 240.192C312.435 240.181 312.429 240.167 312.428 240.152C312.427 240.137 312.43 240.122 312.438 240.109C312.445 240.097 312.457 240.087 312.47 240.081C312.484 240.076 312.498 240.075 312.512 240.078Z" fill="#263238"/>
<path d="M344.08 288.508H316.971L319.157 263.176L319.642 257.589H341.408L341.893 263.176L344.08 288.508Z" fill="#455A64"/>
<path d="M341.893 263.176H319.158L319.643 257.589H341.408L341.893 263.176Z" fill="#263238"/>
<path d="M342.71 253.688H318.341V259.213H342.71V253.688Z" fill="#455A64"/>
</svg>
