<svg width="89" height="76" viewBox="0 0 89 76" fill="none" xmlns="http://www.w3.org/2000/svg">
<path d="M68.5928 0H4.76723C3.46168 0 2.40332 1.34616 2.40332 3.00673V18.0404C2.40332 19.7009 3.46168 21.0471 4.76723 21.0471H68.5928C69.8983 21.0471 70.9567 19.7009 70.9567 18.0404V3.00673C70.9567 1.34616 69.8983 0 68.5928 0Z" fill="#D8FFEA"/>
<path d="M37.2956 6.69531H25.0541C24.274 6.69531 23.6416 7.3277 23.6416 8.10779C23.6416 8.88789 24.274 9.52028 25.0541 9.52028H37.2956C38.0757 9.52028 38.7081 8.88789 38.7081 8.10779C38.7081 7.3277 38.0757 6.69531 37.2956 6.69531Z" fill="#B4F8D3"/>
<path d="M45.7705 12.8164H25.0541C24.274 12.8164 23.6416 13.4488 23.6416 14.2289C23.6416 15.009 24.274 15.6414 25.0541 15.6414H45.7705C46.5506 15.6414 47.183 15.009 47.183 14.2289C47.183 13.4488 46.5506 12.8164 45.7705 12.8164Z" fill="#B4F8D3"/>
<path d="M17.5713 4.07422H8.62562C7.32547 4.07422 6.27148 5.1282 6.27148 6.42836V15.3741C6.27148 16.6742 7.32547 17.7282 8.62562 17.7282H17.5713C18.8715 17.7282 19.9255 16.6742 19.9255 15.3741V6.42836C19.9255 5.1282 18.8715 4.07422 17.5713 4.07422Z" fill="#4CCB86"/>
<path d="M22.8102 28.2617H86.6357C87.2627 28.2617 87.864 28.5785 88.3073 29.1424C88.7506 29.7062 88.9996 30.471 88.9996 31.2684V46.3021C88.9996 47.0995 88.7506 47.8643 88.3073 48.4282C87.864 48.992 87.2627 49.3088 86.6357 49.3088H22.8102C22.1833 49.3088 21.582 48.992 21.1387 48.4282C20.6953 47.8643 20.4463 47.0995 20.4463 46.3021V31.2684C20.4463 30.471 20.6953 29.7062 21.1387 29.1424C21.582 28.5785 22.1833 28.2617 22.8102 28.2617V28.2617Z" fill="#FFF6DC"/>
<path d="M55.1393 34.7578H42.8978C42.1177 34.7578 41.4854 35.3902 41.4854 36.1703C41.4854 36.9504 42.1177 37.5828 42.8978 37.5828H55.1393C55.9194 37.5828 56.5518 36.9504 56.5518 36.1703C56.5518 35.3902 55.9194 34.7578 55.1393 34.7578Z" fill="#FDE59F"/>
<path d="M63.6142 40.8789H42.8978C42.1177 40.8789 41.4854 41.5113 41.4854 42.2914C41.4854 43.0715 42.1177 43.7039 42.8978 43.7039H63.6142C64.3943 43.7039 65.0267 43.0715 65.0267 42.2914C65.0267 41.5113 64.3943 40.8789 63.6142 40.8789Z" fill="#FDE5A0"/>
<path d="M35.3624 32.4023H26.4166C25.1165 32.4023 24.0625 33.4563 24.0625 34.7565V43.7022C24.0625 45.0024 25.1165 46.0563 26.4166 46.0563H35.3624C36.6625 46.0563 37.7165 45.0024 37.7165 43.7022V34.7565C37.7165 33.4563 36.6625 32.4023 35.3624 32.4023Z" fill="#FFC727"/>
<path d="M2.36391 54.7227H66.1895C66.8164 54.7227 67.4177 55.0394 67.861 55.6033C68.3043 56.1672 68.5534 56.9319 68.5534 57.7294V72.763C68.5534 73.5604 68.3043 74.3252 67.861 74.8891C67.4177 75.453 66.8164 75.7697 66.1895 75.7697H2.36391C1.73696 75.7697 1.13569 75.453 0.692373 74.8891C0.249054 74.3252 0 73.5604 0 72.763L0 57.7294C0 56.9319 0.249054 56.1672 0.692373 55.6033C1.13569 55.0394 1.73696 54.7227 2.36391 54.7227V54.7227Z" fill="#FFEDE1"/>
<path d="M34.8923 61.0156H22.6508C21.8707 61.0156 21.2383 61.648 21.2383 62.4281C21.2383 63.2082 21.8707 63.8406 22.6508 63.8406H34.8923C35.6724 63.8406 36.3048 63.2082 36.3048 62.4281C36.3048 61.648 35.6724 61.0156 34.8923 61.0156Z" fill="#FBDAC2"/>
<path d="M43.3672 67.1367H22.6508C21.8707 67.1367 21.2383 67.7691 21.2383 68.5492C21.2383 69.3293 21.8707 69.9617 22.6508 69.9617H43.3672C44.1473 69.9617 44.7796 69.3293 44.7796 68.5492C44.7796 67.7691 44.1473 67.1367 43.3672 67.1367Z" fill="#FBDAC2"/>
<path d="M15.1153 58.6641H6.16957C4.86941 58.6641 3.81543 59.718 3.81543 61.0182V69.9639C3.81543 71.2641 4.86941 72.3181 6.16957 72.3181H15.1153C16.4154 72.3181 17.4694 71.2641 17.4694 69.9639V61.0182C17.4694 59.718 16.4154 58.6641 15.1153 58.6641Z" fill="#FF862D"/>
<path d="M12.5619 11.025V10.925H12.4619H11.2732C11.1946 10.925 11.1193 10.8938 11.0637 10.8382C11.0082 10.7826 10.977 10.7073 10.977 10.6287V8.64749C10.977 8.56892 11.0082 8.49357 11.0637 8.43801C11.1193 8.38245 11.1946 8.35124 11.2732 8.35124H12.4619H12.5619V8.25124V7.45875C12.5619 7.38018 12.5932 7.30483 12.6487 7.24927C12.7043 7.19371 12.7796 7.1625 12.8582 7.1625C12.9368 7.1625 13.0121 7.19371 13.0677 7.24927C13.1232 7.30483 13.1544 7.38018 13.1544 7.45875V8.25124V8.35124H13.2544H15.2354C15.2799 8.35148 15.3237 8.3617 15.3636 8.38116C15.4036 8.40065 15.4387 8.4289 15.4663 8.46382L15.4667 8.46429L16.2592 9.4549L16.2592 9.45493C16.3012 9.50748 16.3242 9.57278 16.3242 9.64009C16.3242 9.7074 16.3012 9.7727 16.2592 9.82524L16.2592 9.82527L15.4671 10.8154C15.467 10.8154 15.467 10.8155 15.4669 10.8156C15.439 10.8499 15.4039 10.8775 15.364 10.8964C15.324 10.9154 15.2803 10.9251 15.236 10.925H15.2357H13.2544H13.1544V11.025V14.195V14.295H13.2544H14.0469C14.1255 14.295 14.2009 14.3262 14.2564 14.3817C14.312 14.4373 14.3432 14.5126 14.3432 14.5912C14.3432 14.6698 14.312 14.7451 14.2564 14.8007C14.2009 14.8562 14.1255 14.8874 14.0469 14.8874H11.6694C11.5909 14.8874 11.5155 14.8562 11.46 14.8007C11.4044 14.7451 11.3732 14.6698 11.3732 14.5912C11.3732 14.5126 11.4044 14.4373 11.46 14.3817C11.5155 14.3262 11.5909 14.295 11.6694 14.295H12.4619H12.5619V14.195V11.025ZM13.3544 11.025H15.2357L11.2732 8.25124C11.1681 8.25124 11.0673 8.29299 10.993 8.3673C10.9187 8.44161 10.877 8.5424 10.877 8.64749V10.6287C10.877 10.7338 10.9187 10.8346 10.993 10.9089C11.0673 10.9832 11.1681 11.025 11.2732 11.025H12.3619H12.4619V11.125V14.095V14.195H12.3619H11.6694C11.5644 14.195 11.4636 14.2367 11.3893 14.311C11.3149 14.3853 11.2732 14.4861 11.2732 14.5912C11.2732 14.6963 11.3149 14.7971 11.3893 14.8714C11.4636 14.9457 11.5644 14.9874 11.6694 14.9874H14.0469C14.152 14.9874 14.2528 14.9457 14.3271 14.8714C14.4014 14.7971 14.4432 14.6963 14.4432 14.5912C14.4432 14.4861 14.4014 14.3853 14.3271 14.311C14.2528 14.2367 14.152 14.195 14.0469 14.195H13.3544H13.2544V14.095V11.125V11.025H13.3544ZM11.6694 8.94374H11.5694V9.04374V10.2325V10.3325H11.6694H15.0455H15.0935L15.1236 10.2949L15.5991 9.70058L15.649 9.63811L15.5991 9.57564L15.1236 8.98127L15.0935 8.94374H15.0455H11.6694Z" fill="white" stroke="#EBEBFF" stroke-width="0.2"/>
<path d="M30.2729 39.3218V39.2218H30.1729H28.9841C28.9056 39.2218 28.8302 39.1906 28.7747 39.1351C28.7191 39.0795 28.6879 39.0042 28.6879 38.9256V36.9444C28.6879 36.8658 28.7191 36.7904 28.7747 36.7349C28.8302 36.6793 28.9056 36.6481 28.9841 36.6481H30.1729H30.2729V36.5481V35.7556C30.2729 35.6771 30.3041 35.6017 30.3596 35.5461C30.4152 35.4906 30.4906 35.4594 30.5691 35.4594C30.6477 35.4594 30.723 35.4906 30.7786 35.5461C30.8342 35.6017 30.8654 35.6771 30.8654 35.7556V36.5481V36.6481H30.9654H32.9464C32.9908 36.6484 33.0346 36.6586 33.0745 36.678C33.1145 36.6975 33.1496 36.7258 33.1772 36.7607L33.1776 36.7612L33.9701 37.7518L33.9701 37.7518C34.0122 37.8044 34.0351 37.8697 34.0351 37.937C34.0351 38.0043 34.0122 38.0696 33.9701 38.1221L33.9701 38.1221L33.178 39.1122C33.178 39.1123 33.1779 39.1124 33.1778 39.1125C33.15 39.1467 33.1148 39.1743 33.0749 39.1933C33.0349 39.2122 32.9912 39.222 32.947 39.2218H32.9466H30.9654H30.8654V39.3218V42.4918V42.5918H30.9654H31.7579C31.8364 42.5918 31.9118 42.623 31.9673 42.6786C32.0229 42.7342 32.0541 42.8095 32.0541 42.8881C32.0541 42.9666 32.0229 43.042 31.9673 43.0976C31.9118 43.1531 31.8364 43.1843 31.7579 43.1843H29.3804C29.3018 43.1843 29.2265 43.1531 29.1709 43.0976C29.1153 43.042 29.0841 42.9666 29.0841 42.8881C29.0841 42.8095 29.1153 42.7342 29.1709 42.6786C29.2265 42.623 29.3018 42.5918 29.3804 42.5918H30.1729H30.2729V42.4918V39.3218ZM31.0654 39.3218H32.9466L28.9841 36.5481C28.879 36.5481 28.7783 36.5899 28.7039 36.6642C28.6296 36.7385 28.5879 36.8393 28.5879 36.9444V38.9256C28.5879 39.0307 28.6296 39.1315 28.7039 39.2058C28.7783 39.2801 28.879 39.3218 28.9841 39.3218H30.0729H30.1729V39.4218V42.3918V42.4918H30.0729H29.3804C29.2753 42.4918 29.1745 42.5336 29.1002 42.6079C29.0259 42.6822 28.9841 42.783 28.9841 42.8881C28.9841 42.9932 29.0259 43.094 29.1002 43.1683C29.1745 43.2426 29.2753 43.2843 29.3804 43.2843H31.7579C31.863 43.2843 31.9637 43.2426 32.0381 43.1683C32.1124 43.094 32.1541 42.9932 32.1541 42.8881C32.1541 42.783 32.1124 42.6822 32.0381 42.6079C31.9637 42.5336 31.863 42.4918 31.7579 42.4918H31.0654H30.9654V42.3918V39.4218V39.3218H31.0654ZM29.3804 37.2406H29.2804V37.3406V38.5294V38.6294H29.3804H32.7564H32.8045L32.8345 38.5918L33.31 37.9975L33.36 37.935L33.31 37.8725L32.8345 37.2781L32.8045 37.2406H32.7564H29.3804Z" fill="white" stroke="#EBEBFF" stroke-width="0.2"/>
<path d="M10.1567 65.4547V65.3547H10.0567H8.86793C8.78936 65.3547 8.71401 65.3234 8.65845 65.2679C8.60289 65.2123 8.57168 65.137 8.57168 65.0584V63.0772C8.57168 62.9986 8.60289 62.9233 8.65845 62.8677C8.71401 62.8121 8.78936 62.7809 8.86793 62.7809H10.0567H10.1567V62.6809V61.8884C10.1567 61.8099 10.1879 61.7345 10.2434 61.679C10.299 61.6234 10.3743 61.5922 10.4529 61.5922C10.5315 61.5922 10.6068 61.6234 10.6624 61.679C10.718 61.7345 10.7492 61.8099 10.7492 61.8884V62.6809V62.7809H10.8492H12.8302C12.8746 62.7812 12.9184 62.7914 12.9583 62.8108C12.9983 62.8303 13.0334 62.8586 13.061 62.8935L13.0614 62.894L13.8539 63.8846L13.8539 63.8846C13.896 63.9372 13.9189 64.0025 13.9189 64.0698C13.9189 64.1371 13.896 64.2024 13.8539 64.2549L13.8539 64.255L13.0618 65.245C13.0617 65.2451 13.0617 65.2452 13.0616 65.2453C13.0338 65.2796 12.9986 65.3072 12.9587 65.3261C12.9187 65.345 12.875 65.3548 12.8307 65.3547H12.8304H10.8492H10.7492V65.4547V68.6246V68.7246H10.8492H11.6417C11.7202 68.7246 11.7956 68.7558 11.8511 68.8114C11.9067 68.867 11.9379 68.9423 11.9379 69.0209C11.9379 69.0995 11.9067 69.1748 11.8511 69.2304C11.7956 69.2859 11.7202 69.3171 11.6417 69.3171H9.26417C9.1856 69.3171 9.11025 69.2859 9.0547 69.2304C8.99914 69.1748 8.96793 69.0995 8.96793 69.0209C8.96793 68.9423 8.99914 68.867 9.0547 68.8114C9.11025 68.7558 9.1856 68.7246 9.26417 68.7246H10.0567H10.1567V68.6246V65.4547ZM10.9492 65.4547H12.8304L8.86793 62.6809C8.76284 62.6809 8.66205 62.7227 8.58774 62.797C8.51343 62.8713 8.47168 62.9721 8.47168 63.0772V65.0584C8.47168 65.1635 8.51343 65.2643 8.58774 65.3386C8.66205 65.4129 8.76284 65.4547 8.86793 65.4547H9.95667H10.0567V65.5547V68.5246V68.6246H9.95667H9.26417C9.15908 68.6246 9.0583 68.6664 8.98399 68.7407C8.90967 68.815 8.86793 68.9158 8.86793 69.0209C8.86793 69.126 8.90967 69.2268 8.98399 69.3011C9.0583 69.3754 9.15908 69.4171 9.26417 69.4171H11.6417C11.7467 69.4171 11.8475 69.3754 11.9218 69.3011C11.9962 69.2268 12.0379 69.126 12.0379 69.0209C12.0379 68.9158 11.9962 68.815 11.9218 68.7407C11.8475 68.6664 11.7467 68.6246 11.6417 68.6246H10.9492H10.8492V68.5246V65.5547V65.4547H10.9492ZM9.26417 63.3734H9.16417V63.4734V64.6622V64.7622H9.26417H12.6402H12.6883L12.7183 64.7246L13.1938 64.1303L13.2438 64.0678L13.1938 64.0053L12.7183 63.411L12.6883 63.3734H12.6402H9.26417Z" fill="white" stroke="#EBEBFF" stroke-width="0.2"/>
</svg>
