<svg width="580" height="362" viewBox="0 0 580 362" fill="none" xmlns="http://www.w3.org/2000/svg">
<path d="M210.158 362C322.339 362 413.279 351.888 413.279 339.414C413.279 326.94 322.339 316.828 210.158 316.828C97.9775 316.828 7.03711 326.94 7.03711 339.414C7.03711 351.888 97.9775 362 210.158 362Z" fill="#EBEBEB"/>
<path d="M0.0273438 285.877L46.3858 285.644L92.7443 285.569L185.467 285.41L278.19 285.56L324.548 285.644L370.907 285.877L324.548 286.102L278.19 286.186L185.467 286.345L92.7443 286.186L46.3858 286.102L0.0273438 285.877Z" fill="#263238"/>
<path d="M37.5745 141.39C37.5745 141.39 17.2871 138.587 22.0342 114.066C22.0342 114.066 44.6952 119.15 37.5745 141.39Z" fill="#3ACC6C"/>
<path opacity="0.1" d="M37.5745 141.39C37.5745 141.39 17.2871 138.587 22.0342 114.066C22.0342 114.066 44.6952 119.15 37.5745 141.39Z" fill="black"/>
<path d="M36.5467 136.326C36.1538 135.056 35.6921 133.808 35.1636 132.588C35.1636 132.429 35.1636 132.28 35.1636 132.13L35.0795 131.112C35.0235 130.383 34.9768 129.654 34.93 128.925C34.8459 127.458 34.7525 126 34.7338 124.533C34.7338 124.516 34.7269 124.499 34.7146 124.487C34.7024 124.474 34.6857 124.468 34.6684 124.468C34.651 124.468 34.6344 124.474 34.6221 124.487C34.6099 124.499 34.603 124.516 34.603 124.533C34.603 126 34.603 127.467 34.603 128.934C34.603 129.663 34.6403 130.392 34.7151 131.121C34.7151 131.289 34.7151 131.448 34.7151 131.607C33.5782 129.169 32.2174 126.841 30.6502 124.654C29.9493 123.72 29.2204 122.786 28.4355 121.851C27.6505 120.917 26.7721 120.048 25.9498 119.132C25.903 119.076 25.8096 119.132 25.8657 119.225C27.3248 120.833 28.6323 122.572 29.7717 124.421C30.3885 125.355 30.9679 126.29 31.5286 127.28L31.3417 127.206L30.6128 126.916L28.9681 126.318L25.7161 125.112C25.6507 125.112 25.604 125.196 25.7161 125.224C26.8001 125.654 27.8654 126.112 28.9307 126.57L30.5006 127.243L31.2949 127.57C31.4637 127.657 31.6426 127.723 31.8276 127.766C32.2387 128.495 32.6406 129.233 33.0144 129.99C33.9604 131.884 34.7875 133.834 35.4907 135.831C35.5468 135.971 35.5935 136.111 35.6402 136.251C35.1066 135.942 34.5506 135.674 33.9769 135.448L31.8837 134.513C30.4539 133.859 29.0802 133.196 27.6785 132.42C27.6131 132.42 27.5477 132.495 27.6225 132.532C29.0148 133.298 30.3792 134.102 31.7809 134.859C32.4724 135.242 33.1732 135.606 33.8928 135.952C34.4718 136.304 35.1025 136.562 35.7617 136.719C36.4419 138.575 36.8877 140.508 37.0887 142.475C37.3129 145.278 37.2849 148.026 37.3503 150.801H37.4251C37.6307 148.287 37.7428 145.746 37.7521 143.222C37.7196 140.874 37.3127 138.546 36.5467 136.326Z" fill="#263238"/>
<path d="M33.4265 121.876C33.232 123.306 33.1632 124.751 33.2209 126.193H33.2863C33.3704 124.764 33.3798 123.334 33.548 121.904C33.5573 121.829 33.4359 121.792 33.4265 121.876Z" fill="#263238"/>
<path d="M27.6221 123.101C26.7161 122.753 25.8435 122.325 25.0149 121.82C24.9495 121.82 24.8934 121.886 24.9588 121.932C25.7705 122.478 26.6586 122.9 27.5941 123.185C27.5941 123.185 27.6782 123.119 27.6221 123.101Z" fill="#263238"/>
<path d="M38.219 180.245C38.219 178.003 38.1629 175.76 38.1349 173.527C38.0975 166.051 38.0197 158.606 37.9013 151.193C37.7892 145.287 37.6521 139.369 37.4901 133.438C37.4825 133.404 37.4625 133.374 37.4341 133.354V128.513C37.4341 128.513 37.4341 128.457 37.3406 128.457C37.2472 128.457 37.2472 128.457 37.2472 128.522C37.2472 130.139 37.2472 131.756 37.2472 133.372C37.2472 133.372 37.2004 133.372 37.2004 133.438C36.9107 143.951 36.6398 154.473 36.5743 164.986C36.5743 167.125 36.5743 169.265 36.5743 171.405C36.4996 178.258 36.4747 185.111 36.4996 191.964V195.234C36.4996 201.505 36.565 207.784 36.565 214.055C36.565 214.391 36.9388 214.559 37.3406 214.578C37.7424 214.597 38.2751 214.419 38.2751 214.027C38.2751 207.112 38.3218 200.196 38.3218 193.272C38.2377 188.973 38.2564 184.619 38.219 180.245Z" fill="#263238"/>
<path d="M29.7536 173.443C29.7536 173.443 19.9977 166.229 10.7371 171.107C1.47647 175.985 0 194.815 0 194.815C0 194.815 13.5966 196.758 22.1563 188.61C30.4358 180.76 29.7536 173.443 29.7536 173.443Z" fill="#3ACC6C"/>
<path d="M32.4083 173.892C30.6277 173.192 28.7026 172.938 26.8014 173.154C26.4058 173.089 26.0062 173.052 25.6053 173.042L24.2316 172.939L21.4282 172.734C19.5032 172.594 17.5782 172.472 15.6532 172.285C15.5878 172.285 15.5691 172.397 15.6532 172.407C17.5221 172.65 19.4472 172.921 21.3535 173.107C22.2879 173.21 23.3159 173.313 24.2971 173.378L25.0073 173.453C24.7176 173.519 24.4279 173.584 24.1382 173.668C22.5742 174.104 21.0611 174.706 19.6247 175.462C18.8584 175.603 18.0922 175.817 17.3446 175.995C16.1391 176.275 14.9337 176.584 13.7375 176.929C11.364 177.546 9.01844 178.247 6.67292 178.929C6.66078 178.934 6.65037 178.942 6.64304 178.953C6.6357 178.964 6.63179 178.977 6.63179 178.99C6.63179 179.003 6.6357 179.016 6.64304 179.027C6.65037 179.037 6.66078 179.046 6.67292 179.051C9.01844 178.471 11.3453 177.948 13.7282 177.387L17.167 176.565L18.1015 176.359C15.4974 177.975 13.1716 180.001 11.2145 182.359C9.30658 184.687 7.68752 187.238 6.39258 189.956C6.39258 190.031 6.45799 190.096 6.49537 190.021C8.09949 187.229 10.0596 184.656 12.3265 182.368C12.3265 182.499 12.2424 182.63 12.1956 182.761C12.0181 183.331 11.8406 183.91 11.6537 184.48C11.2986 185.629 10.9341 186.779 10.5884 187.938C10.5884 188.012 10.6818 188.04 10.7098 187.938C11.121 186.826 11.5135 185.704 11.906 184.583C12.0929 184.031 12.2891 183.48 12.4853 182.938C12.5788 182.648 12.6816 182.368 12.775 182.078L12.8685 181.817C13.9549 180.758 15.11 179.771 16.326 178.864C17.931 177.692 19.6648 176.707 21.4936 175.93C21.4936 176.098 21.4282 176.266 21.4002 176.425C21.2974 176.873 21.204 177.313 21.1105 177.761C20.9236 178.696 20.7367 179.63 20.5592 180.565C20.1947 182.434 19.9611 184.368 19.6247 186.255C19.6247 186.33 19.7275 186.358 19.7368 186.255C20.176 184.387 20.7461 182.518 21.1666 180.583C21.3815 179.649 21.5964 178.714 21.7927 177.724C21.8861 177.285 21.9702 176.836 22.0637 176.387C22.0637 176.145 22.1665 175.892 22.1945 175.64L22.7271 175.425C25.2804 174.327 28.0838 173.943 30.8384 174.313C32.1249 174.55 33.3331 175.101 34.3566 175.916C35.38 176.731 36.1872 177.785 36.7068 178.985C36.791 179.2 37.1274 179.069 37.0806 178.854C36.7454 177.719 36.1478 176.678 35.3362 175.816C34.5245 174.954 33.5216 174.295 32.4083 173.892Z" fill="#263238"/>
<path d="M17.4752 181.929C17.2042 183.172 16.9239 184.405 16.6529 185.667C16.3473 186.853 16.1195 188.058 15.9707 189.274C15.9707 189.321 16.0361 189.321 16.0548 189.274C16.4093 188.082 16.684 186.867 16.8771 185.639C17.1201 184.424 17.3631 183.2 17.5967 181.985C17.6154 181.882 17.4939 181.854 17.4752 181.929Z" fill="#263238"/>
<path d="M8.04598 185.075C6.80313 185.701 5.59766 186.42 4.30809 186.944C4.29817 186.938 4.28683 186.934 4.27526 186.934C4.26368 186.934 4.25226 186.937 4.24219 186.943C4.23211 186.948 4.22373 186.957 4.21789 186.967C4.21206 186.977 4.20898 186.988 4.20898 187C4.20898 187.011 4.21206 187.023 4.21789 187.033C4.22373 187.043 4.23211 187.051 4.24219 187.057C4.25226 187.062 4.26368 187.065 4.27526 187.065C4.28683 187.065 4.29817 187.062 4.30809 187.056C5.56028 186.43 6.84985 185.878 8.04598 185.131C8.10205 185.103 8.07401 185.056 8.04598 185.075Z" fill="#263238"/>
<path d="M31.9489 160.174C31.9489 160.174 20.0251 160.931 14.4743 153.072C8.92354 145.213 10.1757 133.98 10.1757 133.98C10.1757 133.98 22.6977 135.504 27.669 141.148C32.6404 146.792 31.9489 160.174 31.9489 160.174Z" fill="#3ACC6C"/>
<path d="M37.5373 171.937C37.1261 170.656 36.6028 169.404 36.1356 168.152C35.6684 166.9 35.2011 165.75 34.6498 164.573C33.5837 162.173 32.3921 159.83 31.0801 157.555C30.2391 156.097 29.3326 154.696 28.4075 153.313C28.4075 153.098 28.3421 152.883 28.3141 152.677L28.1459 151.565C28.0244 150.817 27.8936 150.061 27.7721 149.304C27.4917 147.659 27.1553 146.024 26.8937 144.379C26.8937 144.304 26.7628 144.304 26.7722 144.379C27.0152 146.005 27.174 147.64 27.3983 149.276C27.5104 150.07 27.6226 150.874 27.744 151.668C27.744 151.958 27.8281 152.247 27.8749 152.537C26.0538 149.878 24.0852 147.323 21.9783 144.884L21.1093 143.949C21.1093 143.856 21.0345 143.772 20.9972 143.678L20.7355 142.996C20.5673 142.519 20.3897 142.061 20.2215 141.576C19.8851 140.641 19.5861 139.707 19.2871 138.772C19.2871 138.697 19.1469 138.772 19.1656 138.772C19.4086 139.707 19.6609 140.725 19.9505 141.697C20.0907 142.164 20.2402 142.632 20.4084 143.08L20.4925 143.314C18.9693 141.65 17.3807 140.052 15.8202 138.464C15.7641 138.408 15.68 138.464 15.7361 138.557C18.8044 141.781 21.6164 145.24 24.1463 148.902C23.8551 148.81 23.5587 148.735 23.2586 148.678C22.3241 148.5 21.3896 148.369 20.4552 148.257C18.5115 148.005 16.5771 147.762 14.6334 147.453C14.5586 147.453 14.5306 147.566 14.6334 147.575C16.5023 147.939 18.3152 148.36 20.1468 148.78C21.0158 148.977 21.8849 149.145 22.754 149.322C23.4633 149.475 24.1624 149.671 24.8472 149.911C25.0434 150.191 25.2397 150.462 25.4265 150.743C26.305 152.014 27.146 153.313 27.9683 154.621L26.7535 154.387C25.819 154.21 24.8846 154.041 23.9501 153.892C22.1372 153.584 20.315 153.275 18.5208 152.864C18.4367 152.864 18.4087 152.967 18.5208 152.985C20.3897 153.415 22.1559 153.92 23.9594 154.397C24.8378 154.621 25.7162 154.836 26.5946 155.032L27.9216 155.322C28.1001 155.364 28.2811 155.395 28.4636 155.415C30.2017 158.237 31.8308 161.125 33.3509 164.078C34.0143 165.377 34.6498 166.685 35.2759 168.002C35.902 169.32 36.4627 170.74 37.0514 172.114C37.2009 172.348 37.6401 172.236 37.5373 171.937Z" fill="#263238"/>
<path d="M25.3335 144.538C25.1092 143.398 24.8663 142.267 24.614 141.127C24.614 141.052 24.4831 141.127 24.5018 141.127C24.7261 142.248 24.941 143.37 25.1466 144.491C25.3096 145.615 25.5343 146.728 25.8194 147.827C25.7352 146.721 25.5728 145.621 25.3335 144.538Z" fill="#263238"/>
<path d="M18.3811 144.204C17.8297 143.933 17.241 143.709 16.671 143.484L15.7365 143.129L15.2786 142.942C15.1022 142.892 14.9327 142.82 14.774 142.727C14.6806 142.662 14.6245 142.811 14.7179 142.83C14.8949 142.875 15.0647 142.944 15.2226 143.036L15.6805 143.241L16.5495 143.624C17.1197 143.895 17.7065 144.129 18.3063 144.325C18.3224 144.335 18.3418 144.338 18.3602 144.334C18.3786 144.33 18.3945 144.318 18.4044 144.302C18.4144 144.286 18.4175 144.266 18.4131 144.248C18.4087 144.23 18.3972 144.214 18.3811 144.204Z" fill="#263238"/>
<path d="M44.1543 150.802C44.1543 150.802 51.3684 137.317 62.3391 135.233C73.3098 133.149 80.038 144.438 80.038 144.438C80.038 144.438 72.0296 154.67 61.956 156.455C51.8824 158.24 44.1543 150.802 44.1543 150.802Z" fill="#3ACC6C"/>
<path d="M69.7024 141.278C66.841 140.893 63.9389 140.925 61.0866 141.372L61.5818 141.11L64.0115 139.858C65.6877 138.934 67.4093 138.095 69.1697 137.344C69.1797 137.35 69.191 137.353 69.2026 137.353C69.2142 137.354 69.2256 137.351 69.2356 137.345C69.2457 137.339 69.2541 137.331 69.2599 137.321C69.2658 137.311 69.2688 137.3 69.2688 137.288C69.2688 137.276 69.2658 137.265 69.2599 137.255C69.2541 137.245 69.2457 137.237 69.2356 137.231C69.2256 137.225 69.2142 137.223 69.2026 137.223C69.191 137.223 69.1797 137.226 69.1697 137.232C67.4503 138.026 65.6655 138.699 63.946 139.493C63.0863 139.886 62.236 140.297 61.3949 140.746C60.8529 141.035 60.2549 141.306 59.7222 141.68C57.3115 142.165 54.97 142.947 52.7511 144.007L54.1247 142.512C55.1433 141.39 56.1525 140.213 57.2739 139.194C57.33 139.138 57.2739 139.054 57.1805 139.11C56.0311 140.148 54.8256 141.119 53.7042 142.203C53.1716 142.727 52.6483 143.269 52.1437 143.829C51.8914 144.11 51.6484 144.399 51.4054 144.698C47.6373 146.72 44.3634 149.55 41.8187 152.987C39.274 156.423 37.5217 160.381 36.6875 164.575C36.6924 164.587 36.7007 164.597 36.7116 164.605C36.7224 164.612 36.7352 164.616 36.7482 164.616C36.7613 164.616 36.7741 164.612 36.7849 164.605C36.7957 164.597 36.8041 164.587 36.809 164.575C38.3469 159.44 41.1078 154.755 44.8548 150.922C48.8937 146.801 53.9785 143.858 59.5634 142.409C62.8753 141.562 66.3008 141.246 69.7117 141.474C69.7288 141.464 69.7428 141.449 69.7522 141.431C69.7616 141.414 69.766 141.394 69.765 141.374C69.7641 141.354 69.7578 141.334 69.7468 141.317C69.7357 141.301 69.7204 141.287 69.7024 141.278Z" fill="#263238"/>
<path opacity="0.1" d="M80.0371 144.444C80.0371 144.444 72.0287 154.667 61.955 156.452C54.2737 157.817 47.938 153.808 45.3869 151.827L44.8262 150.892C44.8262 150.892 50.0218 146.51 59.8525 143.986C69.6831 141.463 80.0371 144.444 80.0371 144.444Z" fill="black"/>
<path d="M63.3193 136.466C62.4877 136.98 61.6653 137.485 60.8897 138.073C60.1239 138.654 59.4137 139.305 58.7685 140.017C58.7124 140.082 58.7685 140.157 58.8619 140.101C59.5908 139.475 60.3197 138.84 61.0766 138.232C61.8113 137.631 62.5821 137.076 63.3848 136.569C63.3925 136.558 63.3969 136.546 63.3973 136.532C63.3978 136.519 63.3942 136.506 63.3871 136.495C63.3801 136.484 63.3698 136.475 63.3577 136.47C63.3456 136.465 63.3323 136.464 63.3193 136.466Z" fill="#263238"/>
<path d="M69.3473 138.746C68.9455 138.924 68.5249 139.064 68.1231 139.232L66.899 139.746C66.8055 139.746 66.899 139.924 66.899 139.886L68.1325 139.391L69.3473 138.868C69.4594 138.84 69.422 138.718 69.3473 138.746Z" fill="#263238"/>
<path d="M42.7051 167.76C42.7051 167.76 44.6394 181.179 54.6944 185.851C64.7493 190.523 77.0002 185.851 77.0002 185.851C77.0002 185.851 72.1783 156.882 42.7051 167.76Z" fill="#3ACC6C"/>
<path d="M70.0856 177.114C69.1511 177.001 68.2166 176.843 67.2821 176.674C66.8336 176.6 66.3477 176.515 65.9272 176.422L65.2263 176.282C64.9553 176.03 64.6843 175.768 64.404 175.525C62.4975 173.851 60.439 172.359 58.2551 171.067C57.0667 170.371 55.8371 169.747 54.5733 169.199H54.7602L58.0682 169.339C60.2829 169.442 62.4883 169.488 64.6937 169.628C64.7684 169.628 64.7684 169.516 64.6937 169.507C62.4883 169.357 60.2829 169.114 58.0682 168.928L54.8537 168.638L53.1996 168.498L52.7791 168.451C52.1998 168.236 51.6204 168.03 51.041 167.853C48.3015 166.911 45.3541 166.749 42.528 167.386C39.9956 168.03 37.4725 169.684 36.8184 172.357C36.8184 172.441 36.9398 172.507 36.9772 172.413C37.9117 170.189 40.388 169.068 42.584 168.6C44.0885 168.316 45.6303 168.287 47.1443 168.516C47.245 169.204 47.4141 169.88 47.6489 170.535C47.9292 171.469 48.2002 172.404 48.4899 173.338C49.0599 175.207 49.686 177.076 50.2374 178.945C50.2422 178.957 50.2506 178.968 50.2614 178.975C50.2723 178.982 50.285 178.986 50.2981 178.986C50.3112 178.986 50.324 178.982 50.3348 178.975C50.3456 178.968 50.354 178.957 50.3589 178.945C49.8916 177.076 49.4991 175.207 49.0413 173.292C48.8263 172.357 48.5927 171.423 48.3591 170.488C48.2312 169.855 48.0626 169.231 47.8545 168.619C48.7341 168.773 49.6046 168.976 50.4616 169.227C52.0158 169.687 53.5389 170.245 55.0219 170.899C55.1714 171.834 55.377 172.768 55.6012 173.703C55.8722 174.88 56.1806 176.048 56.5357 177.207C56.5357 177.222 56.5416 177.236 56.5521 177.247C56.5626 177.257 56.5769 177.263 56.5918 177.263C56.6067 177.263 56.6209 177.257 56.6314 177.247C56.6419 177.236 56.6479 177.222 56.6479 177.207C56.6532 177.135 56.6532 177.064 56.6479 176.992C56.4236 175.899 56.1806 174.815 55.947 173.721C55.7695 172.834 55.5919 171.955 55.405 171.077C56.6479 171.638 57.8814 172.245 59.0681 172.946C59.0681 173.217 59.1616 173.497 59.199 173.749C59.2737 174.207 59.3578 174.684 59.4419 175.123C59.6288 176.151 59.8344 177.179 60.0774 178.198C60.5312 180.169 61.1086 182.111 61.8061 184.01C61.7996 184.023 61.7961 184.037 61.7961 184.052C61.7961 184.067 61.7996 184.081 61.8061 184.094L61.8622 184.159C61.8728 184.167 61.8855 184.172 61.8987 184.172C61.9118 184.172 61.9248 184.169 61.9359 184.162C61.947 184.155 61.9557 184.145 61.9609 184.132C61.9661 184.12 61.9675 184.107 61.965 184.094C61.5071 182.113 60.9745 180.151 60.5353 178.16C60.3203 177.17 60.0961 176.179 59.8998 175.179C59.797 174.684 59.7129 174.179 59.6195 173.684C59.6195 173.544 59.6195 173.385 59.5447 173.235C60.8963 174.033 62.2034 174.903 63.4602 175.843C65.6304 177.469 67.6366 179.303 69.4501 181.319C69.5249 181.393 69.665 181.319 69.5996 181.197C68.8518 180.183 68.0534 179.206 67.2074 178.272C66.7028 177.73 66.1701 177.207 65.6375 176.693H65.8057C66.2729 176.777 66.7402 176.843 67.2261 176.908C68.1605 177.029 69.095 177.123 70.0295 177.226C70.0856 177.235 70.151 177.123 70.0856 177.114Z" fill="#263238"/>
<path d="M63.0114 181.646L62.9553 181.3C62.9553 181.151 62.8525 181.01 62.8338 180.861C62.6282 179.973 62.4507 179.067 62.2918 178.17C62.2918 178.104 62.1797 178.17 62.1797 178.17C62.2464 179.368 62.5051 180.548 62.946 181.665C62.946 181.665 63.0301 181.665 63.0207 181.665L63.0114 181.646Z" fill="#263238"/>
<path d="M54.5925 181.431C54.5925 181.416 54.5865 181.402 54.576 181.392C54.5655 181.381 54.5513 181.375 54.5364 181.375C54.256 180.188 53.985 179.002 53.7327 177.815C53.6113 177.189 53.4804 176.563 53.3589 175.946C53.2935 175.61 53.2281 175.273 53.1721 174.937C53.1404 174.639 53.068 174.346 52.9571 174.068C52.9571 174.021 52.845 174.068 52.845 174.068C52.8323 174.675 52.9174 175.281 53.0973 175.862C53.2188 176.507 53.3403 177.161 53.4898 177.815C53.7795 179.132 54.1065 180.441 54.4803 181.74C54.4803 181.814 54.6205 181.796 54.6111 181.74L54.5925 181.431Z" fill="#263238"/>
<path d="M69.1506 173.254C67.2816 173.011 65.4781 172.74 63.6372 172.516C63.5624 172.516 63.525 172.628 63.6372 172.637C65.5061 172.908 67.3097 173.132 69.1506 173.375C69.2066 173.385 69.2347 173.273 69.1506 173.254Z" fill="#263238"/>
<path d="M37.557 136.4C37.557 136.4 31.4082 109.412 60.4049 98.4883C60.4049 98.4883 68.4413 134.017 37.557 136.4Z" fill="#3ACC6C"/>
<path d="M41.3695 114.924C41.3647 114.912 41.3563 114.901 41.3455 114.894C41.3346 114.887 41.3219 114.883 41.3088 114.883C41.2957 114.883 41.2829 114.887 41.2721 114.894C41.2613 114.901 41.2529 114.912 41.248 114.924C41.3508 116.466 41.4069 118.008 41.5658 119.54C41.5658 119.624 41.7059 119.624 41.7059 119.54C41.6499 117.998 41.491 116.466 41.3695 114.924Z" fill="#263238"/>
<path d="M55.2741 120.085C53.4613 120.814 51.6297 121.506 49.8262 122.263V122.347C51.6951 121.655 53.4613 120.908 55.2835 120.197C55.3863 120.169 55.3489 120.048 55.2741 120.085Z" fill="#263238"/>
<path d="M58.031 107.626C56.2551 108.452 54.5324 109.389 52.8727 110.429C52.7886 110.476 52.8727 110.607 52.9568 110.56C54.6389 109.57 56.349 108.626 58.0964 107.757C58.1712 107.701 58.1058 107.598 58.031 107.626Z" fill="#263238"/>
<path d="M57.5911 194.766H15.7734V238.845H57.5911V194.766Z" fill="#37474F"/>
<path d="M15.0364 210.363H12.8965V285.869H15.0364V210.363Z" fill="#263238"/>
<path d="M60.2454 210.363H58.1055V285.869H60.2454V210.363Z" fill="#263238"/>
<path d="M38.7806 210.363H36.6406V285.869H38.7806V210.363Z" fill="#263238"/>
<path d="M59.1707 236.023H13.9609V242.126H59.1707V236.023Z" fill="#263238"/>
<path d="M207.228 344.207C209.246 344.815 266.511 342.89 268.642 341.404C269.464 340.862 269.669 332.498 269.632 322.388V322.079C269.632 319.995 269.632 317.846 269.576 315.678C269.576 315.37 269.576 315.071 269.576 314.744C269.352 300.156 268.81 285.027 268.81 285.027L230.992 285.962L232.263 315.613L232.328 316.781L232.683 322.873V323.5C232.683 323.5 211.097 334.04 208.919 335.891C206.742 337.741 205.2 343.609 207.228 344.207Z" fill="#EB9481"/>
<path d="M223.236 327.602C223.367 327.555 223.442 327.518 223.451 327.48L223.236 327.602Z" fill="#4768D6"/>
<path d="M269.624 327.453C269.624 335.181 269.324 340.984 268.689 341.47C266.558 342.928 209.294 344.853 207.266 344.274C205.238 343.694 206.818 337.863 208.976 336.022C209.911 335.219 214.499 332.789 219.377 330.294C213.994 334.546 215.013 338.854 269.624 327.453Z" fill="#4768D6"/>
<path d="M289.742 118.384C289.742 118.384 269.82 218.466 268.418 225.849C268.184 227.035 273.67 320.576 273.67 320.576L229.684 321.66C229.684 321.66 229.067 235.362 230.432 224.101C232.216 209.337 254.784 118.375 254.784 118.375L289.742 118.384Z" fill="#263238"/>
<path d="M270.174 311.184C263.875 311.268 265.679 311.184 259.381 311.314C256.297 311.389 236.019 311.894 233.169 312.473C233.103 312.473 233.113 312.595 233.169 312.604C236.066 312.978 256.316 312.118 259.39 311.978C265.688 311.707 263.875 311.716 270.174 311.37C270.199 311.37 270.222 311.361 270.24 311.343C270.257 311.326 270.267 311.302 270.267 311.277C270.267 311.252 270.257 311.228 270.24 311.211C270.222 311.193 270.199 311.184 270.174 311.184Z" fill="#37474F"/>
<path d="M263.25 226.164C263.689 220.651 264.951 215.184 265.988 209.764C267.025 204.344 268.1 198.644 269.156 193.084C271.249 182.076 273.295 171.059 275.407 160.06C277.8 147.613 281.201 135.455 283.715 123.045C283.771 122.756 284.201 122.887 284.145 123.176C280.248 145.248 275.062 166.994 270.884 189.028C269.838 194.592 268.785 200.152 267.726 205.709C266.698 211.129 265.549 216.539 264.661 221.987C264.188 224.815 263.984 227.681 264.053 230.547C264.128 233.238 266.436 300.773 266.754 307.099C266.754 307.183 266.623 307.192 266.614 307.099C265.128 295.988 262.811 231.64 263.25 226.164Z" fill="#37474F"/>
<path d="M258.951 118.383L271.398 210.681C277.323 180.778 289.742 118.383 289.742 118.383H258.951Z" fill="#37474F"/>
<path d="M273.799 346.692C275.855 347.196 332.951 342.393 335.007 340.833C335.801 340.253 335.587 331.89 335.007 321.797C335.007 321.685 327.447 284.559 327.447 284.559L289.246 287.652L298.18 324.788C298.18 324.788 277.154 336.403 275.07 338.356C272.986 340.309 271.715 346.196 273.799 346.692Z" fill="#EB9481"/>
<path d="M334.961 340.833C332.905 342.393 275.809 347.196 273.762 346.692C271.716 346.187 272.996 340.309 275.052 338.356C276.192 337.291 282.958 333.357 288.882 329.993C281.836 334.805 272.622 343.421 335.269 327.488C335.587 334.871 335.597 340.365 334.961 340.833Z" fill="#4768D6"/>
<path d="M288.92 329.303C289.051 329.247 289.126 329.209 289.135 329.172L288.92 329.303Z" fill="#4768D6"/>
<path d="M295.153 323.22L337.204 318.249C337.204 318.249 315.599 234.903 314.608 231.343C313.104 225.913 309.758 182.18 306.497 155.146C306.497 155.146 312.674 140.512 301.115 118.402H254.746C254.746 118.402 257.858 139.437 263.156 152.782C263.156 152.782 262.166 152.025 268.427 155.473C268.427 155.473 272.258 224.157 275.071 237.164C277.407 247.845 295.153 323.22 295.153 323.22Z" fill="#263238"/>
<path d="M333.102 309.801C326.823 310.381 328.617 310.128 322.346 310.782C319.281 311.1 299.125 313.212 296.312 314.016C296.256 314.016 296.312 314.137 296.312 314.137C299.228 314.287 319.347 311.82 322.403 311.446C328.663 310.67 326.86 310.829 333.102 309.979C333.242 309.969 333.214 309.792 333.102 309.801Z" fill="#37474F"/>
<path d="M261.408 151.82C265.588 153.335 269.627 155.211 273.481 157.427C273.509 157.445 273.529 157.473 273.538 157.504C273.547 157.536 273.545 157.57 273.531 157.6C273.518 157.63 273.494 157.655 273.465 157.669C273.435 157.683 273.401 157.687 273.369 157.679C269.304 155.932 265.155 154.259 261.221 152.297C261.171 152.264 261.134 152.214 261.116 152.157C261.098 152.1 261.1 152.038 261.122 151.983C261.143 151.927 261.184 151.88 261.236 151.85C261.288 151.821 261.349 151.81 261.408 151.82Z" fill="#37474F"/>
<path d="M260.12 123.917C260.12 123.776 260.381 123.748 260.381 123.917C260.377 128.454 260.605 132.989 261.064 137.504C261.25 139.597 262.932 151.175 266.568 150.325C267.175 150.185 267.502 149.587 267.577 148.671C267.561 147.472 267.401 146.28 267.1 145.12C266.689 142.7 266.371 140.27 266.166 137.822C265.74 133.266 265.787 128.678 266.306 124.132C266.313 124.106 266.328 124.084 266.35 124.068C266.371 124.052 266.396 124.043 266.423 124.043C266.449 124.043 266.475 124.052 266.496 124.068C266.517 124.084 266.532 124.106 266.54 124.132C266.438 130.452 266.809 136.771 267.652 143.036C268.1 146.045 269.623 150.577 266.474 151.035C263.325 151.493 261.194 143.924 260.802 141.84C259.799 135.92 259.569 129.895 260.12 123.917Z" fill="#37474F"/>
<path d="M266.464 150.622C266.79 151.401 267.064 152.2 267.286 153.014C267.517 153.646 267.631 154.314 267.623 154.986C267.623 155.117 267.436 155.126 267.37 155.042C266.996 154.449 266.713 153.803 266.529 153.126C266.249 152.379 265.959 151.65 265.707 150.893C265.671 150.793 265.677 150.682 265.722 150.586C265.768 150.489 265.85 150.415 265.95 150.379C266.05 150.343 266.161 150.348 266.257 150.394C266.354 150.44 266.428 150.522 266.464 150.622Z" fill="#37474F"/>
<path d="M298.096 120.596C300.681 124.913 302.407 129.689 303.179 134.66C303.905 139.664 303.743 144.757 302.703 149.705C302.079 152.598 301.85 155.563 302.021 158.517C302.235 161.536 302.647 164.545 302.955 167.554L304.917 185.234C306.216 196.98 308.553 215.23 310.094 226.939C310.851 232.686 326.915 305.145 327.354 306.566C327.36 306.59 327.356 306.617 327.343 306.639C327.33 306.661 327.309 306.676 327.284 306.683C327.259 306.689 327.233 306.685 327.211 306.672C327.189 306.659 327.173 306.637 327.167 306.612C323.364 295.492 310.795 236.658 309.001 225.313C308.067 219.529 307.469 213.698 306.814 207.876C306.16 202.054 305.469 196.092 304.805 190.196C304.142 184.299 303.478 178.524 302.834 172.693L301.852 163.844C301.454 161.033 301.251 158.198 301.245 155.359C301.475 152.554 301.884 149.767 302.469 147.014C302.88 144.463 303.03 141.877 302.918 139.295C302.69 134.127 301.469 129.05 299.32 124.344C298.787 123.185 298.498 121.979 297.862 120.877C297.722 120.438 297.918 120.288 298.096 120.596Z" fill="#37474F"/>
<path d="M284.416 122.571C285.155 124.534 286.014 126.459 286.911 128.356C287.631 130.098 288.681 131.685 290.005 133.028C291.359 134.17 292.958 134.985 294.677 135.411C295.672 135.693 296.683 135.914 297.705 136.074C298.748 136.189 299.782 136.379 300.798 136.644C300.84 136.657 300.876 136.684 300.902 136.719C300.928 136.754 300.942 136.797 300.942 136.841C300.942 136.884 300.928 136.927 300.902 136.962C300.876 136.998 300.84 137.024 300.798 137.037C299.696 137.2 298.579 137.229 297.471 137.121C296.402 137.066 295.339 136.923 294.294 136.691C292.389 136.271 290.622 135.37 289.164 134.075C287.747 132.619 286.671 130.867 286.014 128.944C285.186 126.905 284.56 124.789 284.145 122.627C284.138 122.591 284.145 122.554 284.165 122.523C284.185 122.493 284.217 122.471 284.253 122.464C284.289 122.456 284.326 122.464 284.357 122.484C284.388 122.504 284.409 122.535 284.416 122.571Z" fill="#37474F"/>
<path d="M268.445 155.426C268.456 155.399 268.474 155.377 268.497 155.361C268.52 155.345 268.548 155.336 268.576 155.336C268.605 155.336 268.632 155.345 268.656 155.361C268.679 155.377 268.697 155.399 268.707 155.426C269.062 157.024 269.688 163.63 269.838 165.294C270.156 168.649 270.389 172.013 270.641 175.367C271.137 181.993 272.071 206.121 272.109 208.018C272.109 208.13 271.931 208.121 271.922 208.018C271.725 206.364 270.623 190.039 270.37 186.721C269.856 180.049 269.361 173.377 268.922 166.705C268.801 164.817 268.324 157.304 268.445 155.426Z" fill="#37474F"/>
<path d="M263.157 152.725C263.157 152.725 263.082 152.66 263.157 152.66C263.161 152.681 263.161 152.704 263.157 152.725ZM261.194 152.305C265.157 154.267 269.306 155.94 273.342 157.687C273.374 157.695 273.408 157.692 273.438 157.677C273.467 157.663 273.491 157.638 273.504 157.608C273.518 157.578 273.52 157.544 273.511 157.512C273.502 157.481 273.482 157.453 273.455 157.435C269.601 155.219 265.561 153.343 261.381 151.828C261.322 151.818 261.261 151.829 261.209 151.859C261.157 151.888 261.117 151.935 261.095 151.991C261.073 152.046 261.071 152.108 261.089 152.165C261.107 152.222 261.144 152.272 261.194 152.305ZM260.802 141.829C261.194 143.913 263.26 151.501 266.474 151.024C269.689 150.548 268.1 146.034 267.652 143.025C266.809 136.76 266.438 130.441 266.54 124.121C266.532 124.096 266.517 124.073 266.496 124.057C266.475 124.041 266.449 124.033 266.423 124.033C266.396 124.033 266.371 124.041 266.35 124.057C266.328 124.073 266.313 124.096 266.306 124.121C265.787 128.667 265.74 133.255 266.166 137.811C266.371 140.259 266.689 142.689 267.1 145.109C267.401 146.269 267.561 147.462 267.577 148.66C267.483 149.595 267.175 150.174 266.568 150.314C262.932 151.165 261.25 139.586 261.064 137.493C260.605 132.979 260.377 128.444 260.381 123.906C260.381 123.757 260.129 123.785 260.12 123.906C259.569 129.885 259.799 135.91 260.802 141.829ZM265.708 150.894C265.96 151.65 266.25 152.379 266.53 153.127C266.713 153.804 266.997 154.45 267.371 155.043C267.437 155.127 267.614 155.117 267.624 154.987C267.632 154.314 267.518 153.646 267.287 153.015C267.065 152.2 266.79 151.401 266.465 150.623C266.429 150.522 266.354 150.44 266.258 150.395C266.162 150.349 266.051 150.344 265.951 150.38C265.85 150.416 265.768 150.49 265.723 150.586C265.677 150.683 265.672 150.793 265.708 150.894ZM284.154 122.635C284.569 124.797 285.195 126.913 286.023 128.952C286.68 130.874 287.756 132.627 289.172 134.082C290.631 135.378 292.397 136.279 294.303 136.699C295.348 136.93 296.411 137.074 297.48 137.129C298.588 137.237 299.705 137.208 300.807 137.045C300.848 137.032 300.885 137.006 300.911 136.97C300.937 136.935 300.951 136.892 300.951 136.848C300.951 136.805 300.937 136.762 300.911 136.727C300.885 136.691 300.848 136.665 300.807 136.652C299.791 136.387 298.757 136.196 297.714 136.082C296.692 135.922 295.681 135.701 294.686 135.419C292.966 134.993 291.368 134.177 290.013 133.036C288.69 131.693 287.64 130.106 286.92 128.363C285.986 126.495 285.164 124.541 284.425 122.579C284.418 122.543 284.396 122.512 284.366 122.491C284.335 122.471 284.298 122.464 284.262 122.472C284.226 122.479 284.194 122.5 284.174 122.531C284.154 122.562 284.147 122.599 284.154 122.635ZM268.922 166.667C269.362 173.34 269.857 180.012 270.371 186.684C270.623 190.001 271.726 206.308 271.922 207.98C271.922 208.093 272.118 208.102 272.109 207.98C272.109 206.112 271.175 181.955 270.642 175.33C270.39 171.975 270.156 168.611 269.838 165.256C269.689 163.593 269.063 156.986 268.707 155.388C268.697 155.362 268.679 155.339 268.656 155.323C268.633 155.307 268.605 155.299 268.577 155.299C268.548 155.299 268.521 155.307 268.497 155.323C268.474 155.339 268.456 155.362 268.446 155.388C268.324 157.304 268.801 164.817 268.922 166.667Z" fill="#37474F"/>
<path d="M249.962 60.4078C249.027 71.257 248.224 82.4239 248.943 93.2918C249.504 101.758 252.831 108.832 261.54 111.187C269.614 113.364 281.21 113.589 288.266 108.384C291.555 105.973 292.789 102.459 292.704 98.4782C292.583 92.9367 289.172 62.5103 288.172 53.0254C287.565 47.2411 286.985 41.3819 285.369 35.7658C281.958 23.9821 276.183 23.898 275.389 23.6176C274.716 23.1504 270.343 21.0291 263.979 22.842C262.316 23.3097 260.77 24.1233 259.443 25.2296C258.116 26.3359 257.038 27.71 256.279 29.2618C251.438 38.5318 250.859 50.2594 249.962 60.4078Z" fill="#263238"/>
<path d="M277.127 25.3396C283.968 28.8064 285.379 36.4411 286.837 43.2814C288.874 52.813 290.743 62.382 292.154 72.0258C292.836 76.6981 293.406 81.3238 293.836 85.9868C294.256 90.4536 294.966 95.2287 294.527 99.7142C293.789 107.125 286.883 110.292 280.258 111.133C280.196 111.135 280.136 111.114 280.089 111.075C280.042 111.035 280.01 110.98 280.001 110.919C279.992 110.858 280.005 110.796 280.039 110.744C280.072 110.692 280.124 110.655 280.183 110.638C283.921 110.012 287.818 109.096 290.705 106.405C294.443 102.947 294.135 98.2751 293.864 93.6214C293.396 85.7064 292.471 77.8195 291.275 69.9793C290.079 62.1391 288.593 54.3175 286.995 46.5427C285.472 39.1417 284.5 29.4325 277.081 25.4517C277.015 25.4143 277.053 25.3022 277.127 25.3396Z" fill="#263238"/>
<path d="M252.849 35.7086C254.354 30.1017 257.522 24.6257 263.512 23.168C255.709 25.3827 253.55 33.7742 252.298 40.7921C250.971 48.1807 249.924 55.6097 249.158 63.0793C248.411 70.2654 247.813 77.5075 247.719 84.731C247.616 92.5245 248.794 99.8694 253.186 106.439C253.279 106.57 253.092 106.728 252.989 106.598C248.626 101.262 247.383 94.057 247.205 87.3475C247.166 78.4655 247.712 69.5906 248.84 60.7805C249.766 52.4637 250.691 43.8105 252.849 35.7086Z" fill="#263238"/>
<path d="M269.8 71.4093C268.408 78.315 259.614 110.423 251.849 116.582C246.504 120.824 224.189 130.879 211.377 134.701C207.994 135.701 202.032 109.629 206.705 108.134C212.62 106.265 235.673 97.4437 239.411 95.4159C243.009 93.4815 252.774 76.8946 262.259 65.9894C267.127 60.3825 271.267 64.1484 269.8 71.4093Z" fill="#EB9481"/>
<path d="M213.629 133.875C210.63 135.071 194.005 140.557 189.782 140.856C185.558 141.155 173.344 141.136 172.784 137.931C172.223 134.726 175.802 134.436 175.802 134.436C175.802 134.436 170.644 133.614 170.382 130.324C170.12 127.035 175.68 126.792 175.68 126.792C175.68 126.792 170.447 125.558 170.419 122.269C170.391 118.98 176.026 119.653 176.026 119.653C176.026 119.653 171.186 118.718 172.288 116.027C173.625 112.747 182.362 115.429 186.997 114.747C188.053 114.588 208.116 110.074 208.116 110.074L213.629 133.875Z" fill="#EB9481"/>
<path d="M175.558 119.607C181.988 121.56 185.137 121.308 191.51 119.551C191.631 119.551 191.715 119.7 191.585 119.747C185.501 122.027 181.595 122.915 175.446 119.915C175.147 119.766 175.25 119.504 175.558 119.607Z" fill="#263238"/>
<path d="M175.185 126.634C182.035 128.073 185.464 127.83 192.267 126.484C192.361 126.484 192.408 126.625 192.267 126.653C185.726 128.522 181.783 129.325 175.129 126.989C174.868 126.877 174.868 126.559 175.185 126.634Z" fill="#263238"/>
<path d="M176.147 134.362C182.885 135.297 186.641 135.166 193.089 133.017C193.12 133.004 193.155 133.005 193.185 133.018C193.216 133.031 193.24 133.056 193.253 133.087C193.265 133.118 193.265 133.153 193.251 133.183C193.238 133.214 193.213 133.238 193.182 133.25C186.819 136.054 182.128 136.259 176.138 134.568C175.736 134.456 175.727 134.297 176.147 134.362Z" fill="#263238"/>
<path d="M213.387 110.31C213.387 110.31 206.07 106.152 202.453 105.03C198.837 103.909 183.829 104.703 183.811 107.955C183.811 112.16 192.557 113.403 196.893 113.459C196.893 113.459 196.846 123.168 202.939 125.42C209.032 127.673 213.387 110.31 213.387 110.31Z" fill="#EB9481"/>
<path d="M184.184 109.113C186.931 112.954 192.669 112.646 196.902 113.019C196.965 113.021 197.026 113.037 197.081 113.067C197.136 113.098 197.182 113.141 197.216 113.194C197.251 113.246 197.271 113.307 197.277 113.369C197.282 113.431 197.272 113.494 197.248 113.552C197.5 117.626 199.042 123.299 202.724 125.532C202.742 125.547 202.754 125.568 202.758 125.591C202.763 125.614 202.759 125.637 202.748 125.658C202.737 125.679 202.72 125.695 202.698 125.705C202.677 125.714 202.653 125.716 202.63 125.709C198.36 123.841 196.397 118.402 196.407 113.926C192.052 113.617 186.286 113.664 184.146 109.132L184.184 109.113Z" fill="#263238"/>
<path d="M208.443 106.796L214.985 135.653C214.985 135.653 242.084 126.14 252.635 116.963C260.615 110.058 268.063 84.3876 270.006 73.2487C271.95 62.1098 266.979 59.5774 260.606 67.1373C254.232 74.6971 239.832 94.1061 239.225 94.7322C238.617 95.3583 208.443 106.796 208.443 106.796Z" fill="#4768D6"/>
<path opacity="0.1" d="M208.443 106.796L214.985 135.653C214.985 135.653 242.084 126.14 252.635 116.963C260.615 110.058 268.063 84.3876 270.006 73.2487C271.95 62.1098 266.979 59.5774 260.606 67.1373C254.232 74.6971 239.832 94.1061 239.225 94.7322C238.617 95.3583 208.443 106.796 208.443 106.796Z" fill="black"/>
<path d="M220.732 130.457C219.797 127.364 219.031 124.187 218.265 121.038C217.499 117.889 216.826 114.758 216.19 111.609C215.826 109.74 215.508 107.946 215.125 106.124C215.125 106.067 215.218 106.049 215.228 106.124C215.957 109.282 216.807 112.422 217.564 115.571C218.321 118.72 219.022 121.841 219.713 124.981C220.115 126.794 220.545 128.607 220.872 130.438C220.881 130.504 220.751 130.532 220.732 130.457Z" fill="#263238"/>
<path opacity="0.1" d="M269.997 73.2852C268.054 84.4241 260.596 110.094 252.616 117C245.439 123.205 230.637 129.587 221.891 133.035L265.615 63.1181C269.259 61.7818 271.38 65.3515 269.997 73.2852Z" fill="black"/>
<path d="M255.195 103.617L254.541 118.317H301.162C301.162 118.317 294.62 79.5266 281.799 66.173C275.389 59.4916 268.035 60.1457 263.437 64.9956C262.278 66.2291 251.046 82.1151 249.7 89.2919C248.569 95.693 255.195 103.617 255.195 103.617Z" fill="#EBEBEB"/>
<path d="M267.259 67.5469L264.951 77.0224C264.194 80.1809 263.474 83.3488 262.82 86.526C262.166 89.7032 261.437 92.8991 262.269 95.9829C263.03 99.0833 264.409 101.998 266.325 104.552L266.418 104.664V104.795C266.465 106.972 266.418 109.14 266.418 111.336C266.418 113.532 266.418 115.691 266.325 117.878C266.156 115.697 266.01 113.517 265.885 111.336C265.792 109.159 265.642 106.991 265.577 104.795L265.661 105.038C263.618 102.413 262.133 99.3985 261.297 96.1791C260.902 94.5426 260.823 92.8459 261.064 91.1797C261.288 89.5443 261.596 87.9371 261.942 86.3485C262.615 83.1526 263.484 80.0127 264.353 76.8729C265.222 73.7331 266.241 70.64 267.259 67.5469Z" fill="#263238"/>
<path d="M261.176 80.2556C261.162 80.461 261.227 80.664 261.357 80.8236C261.487 80.9831 261.673 81.0874 261.876 81.1153C261.976 81.1179 262.075 81.1003 262.167 81.0638C262.259 81.0272 262.343 80.9724 262.414 80.9026C262.485 80.8328 262.541 80.7494 262.578 80.6575C262.616 80.5656 262.635 80.4671 262.633 80.3678C262.649 80.1619 262.586 79.9577 262.455 79.7976C262.325 79.6375 262.137 79.5338 261.933 79.5081C261.833 79.5055 261.734 79.5231 261.642 79.5596C261.55 79.5962 261.466 79.651 261.395 79.7208C261.324 79.7906 261.269 79.8739 261.231 79.9658C261.193 80.0577 261.174 80.1563 261.176 80.2556Z" fill="#263238"/>
<path d="M258.98 89.4903C258.967 89.6947 259.032 89.8965 259.162 90.0545C259.292 90.2126 259.478 90.3149 259.681 90.3407C259.78 90.3432 259.879 90.3257 259.972 90.2891C260.064 90.2525 260.148 90.1977 260.219 90.1279C260.289 90.0581 260.345 89.9748 260.383 89.8829C260.421 89.791 260.439 89.6924 260.438 89.5931C260.452 89.3887 260.387 89.1869 260.256 89.0289C260.126 88.8708 259.94 88.7685 259.737 88.7427C259.638 88.7389 259.538 88.7555 259.445 88.7916C259.352 88.8276 259.268 88.8824 259.197 88.9525C259.126 89.0226 259.07 89.1064 259.033 89.199C258.995 89.2915 258.978 89.3906 258.98 89.4903Z" fill="#263238"/>
<path d="M259.633 98.5528C259.619 98.7572 259.684 98.959 259.814 99.117C259.945 99.2751 260.13 99.3774 260.333 99.4032C260.433 99.4057 260.532 99.3882 260.624 99.3516C260.716 99.3151 260.8 99.2602 260.871 99.1904C260.942 99.1206 260.998 99.0373 261.035 98.9454C261.073 98.8535 261.092 98.7549 261.09 98.6556C261.104 98.4512 261.039 98.2494 260.909 98.0914C260.778 97.9333 260.593 97.831 260.39 97.8052C260.29 97.8014 260.191 97.818 260.098 97.8541C260.005 97.8901 259.92 97.9449 259.849 98.015C259.778 98.0851 259.722 98.1689 259.685 98.2615C259.648 98.354 259.63 98.4531 259.633 98.5528Z" fill="#263238"/>
<path d="M263.026 105.713C263.01 105.919 263.074 106.123 263.204 106.283C263.335 106.443 263.522 106.547 263.727 106.572C263.826 106.575 263.925 106.557 264.017 106.521C264.11 106.484 264.194 106.429 264.264 106.36C264.335 106.29 264.391 106.206 264.428 106.115C264.466 106.023 264.485 105.924 264.484 105.825C264.497 105.619 264.433 105.416 264.303 105.257C264.173 105.097 263.987 104.993 263.783 104.965C263.683 104.963 263.585 104.98 263.492 105.017C263.4 105.053 263.316 105.108 263.245 105.178C263.175 105.248 263.119 105.331 263.081 105.423C263.043 105.515 263.025 105.613 263.026 105.713Z" fill="#263238"/>
<path d="M263.015 113.983C263.002 114.187 263.067 114.389 263.197 114.547C263.327 114.705 263.513 114.807 263.716 114.833C263.816 114.835 263.914 114.818 264.007 114.781C264.099 114.745 264.183 114.69 264.254 114.62C264.324 114.55 264.38 114.467 264.418 114.375C264.456 114.283 264.474 114.185 264.473 114.085C264.487 113.881 264.422 113.679 264.291 113.521C264.161 113.363 263.976 113.261 263.772 113.235C263.673 113.231 263.573 113.248 263.48 113.284C263.387 113.32 263.303 113.375 263.232 113.445C263.161 113.515 263.105 113.599 263.068 113.691C263.031 113.784 263.013 113.883 263.015 113.983Z" fill="#263238"/>
<path d="M274.734 61.6133C274.734 61.6133 272.594 90.1334 272.594 94.2637C272.594 98.3941 277.948 137.1 277.948 137.1L309.589 135.979C309.589 135.979 293.32 85.1152 288.003 74.78C282.116 63.2953 274.734 61.6133 274.734 61.6133Z" fill="#4768D6"/>
<path opacity="0.1" d="M274.734 61.6133C274.734 61.6133 272.594 90.1334 272.594 94.2637C272.594 98.3941 277.948 137.1 277.948 137.1L309.589 135.979C309.589 135.979 293.32 85.1152 288.003 74.78C282.116 63.2953 274.734 61.6133 274.734 61.6133Z" fill="black"/>
<path d="M264.138 63.9783C264.4 63.7634 257.597 83.6022 257.354 92.3489C257.111 101.096 257.354 136.512 257.354 136.512L248.729 134.036L254.709 103.834C254.709 103.834 248.588 96.5727 249.27 89.8164C249.953 83.0602 262.437 65.38 264.138 63.9783Z" fill="#4768D6"/>
<path opacity="0.1" d="M264.138 63.9783C264.4 63.7634 257.597 83.6022 257.354 92.3489C257.111 101.096 257.354 136.512 257.354 136.512L248.729 134.036L254.709 103.834C254.709 103.834 248.588 96.5727 249.27 89.8164C249.953 83.0602 262.437 65.38 264.138 63.9783Z" fill="black"/>
<path d="M272.398 161.947C275.202 163.816 279.874 155.509 281.463 153.724C283.051 151.939 283.734 151.995 283.649 153.36L287.266 138.969C285.397 140.427 281.407 143.566 279.285 145.622C276.445 148.379 269.614 160.06 272.398 161.947Z" fill="#EB9481"/>
<path d="M285.602 66.9217C297.405 76.4347 320.178 96.6286 322.934 107.525C324.962 115.682 313.534 144.903 310.029 151.65C308.506 154.594 286.742 142.483 287.266 138.97C287.63 136.54 299.04 114.141 299.18 111.487C299.32 108.833 282.491 83.6862 278.313 75.6964C272.052 63.7352 275.575 58.8292 285.602 66.9217Z" fill="#EB9481"/>
<path d="M274.379 170.211C276.248 172.239 279.986 169.781 279.986 169.781C279.986 169.781 276.641 173.921 279.257 175.528C281.874 177.135 285.462 173.603 285.462 173.603C285.462 173.603 282.584 177.575 285.313 178.986C288.041 180.397 291.574 177.313 291.574 177.313C291.574 177.313 291.377 178.846 293.76 178.967C297.171 179.173 302.03 173.631 303.899 170.146C305.768 166.66 309.983 152.493 310.59 150.316L288.284 138.168L287.247 138.953L283.631 153.344C283.565 154.278 281.014 159.764 280.089 161.352C278.014 164.95 272.295 167.94 274.379 170.211Z" fill="#EB9481"/>
<path d="M280.127 169.573C285.127 165.789 286.668 163.265 288.827 157.481C288.874 157.369 289.051 157.406 289.014 157.528C287.407 163.387 285.94 166.826 280.295 169.825C280.024 169.966 279.884 169.76 280.127 169.573Z" fill="#263238"/>
<path d="M285.229 173.702C290.079 169.31 291.771 166.591 294.49 160.704C294.49 160.619 294.667 160.704 294.639 160.76C292.453 166.759 290.901 170.16 285.491 173.917C285.248 174.095 285.014 173.917 285.229 173.702Z" fill="#263238"/>
<path d="M571.153 169.637C575.545 165.049 577.526 162.162 579.432 156.088C579.44 156.058 579.459 156.032 579.485 156.016C579.511 156.001 579.543 155.996 579.572 156.003C579.602 156.011 579.628 156.03 579.643 156.056C579.659 156.082 579.664 156.114 579.656 156.144C578.311 162.507 575.919 166.152 571.312 169.75C570.994 170.002 570.882 169.927 571.153 169.637Z" fill="#263238"/>
<path d="M286.042 137.259L313.609 149.584C313.609 149.584 326.907 116.102 323.3 105.814C319.889 96.0764 298.144 76.63 286.855 67.603C273.875 57.193 271.455 65.6313 278.398 76.7889C285.145 87.6288 297.686 110.589 298.022 111.906C298.489 113.598 286.042 137.259 286.042 137.259Z" fill="#4768D6"/>
<path opacity="0.1" d="M286.042 137.259L313.609 149.584C313.609 149.584 326.907 116.102 323.3 105.814C319.889 96.0764 298.144 76.63 286.855 67.603C273.875 57.193 271.455 65.6313 278.398 76.7889C285.145 87.6288 297.686 110.589 298.022 111.906C298.489 113.598 286.042 137.259 286.042 137.259Z" fill="black"/>
<path d="M282.21 84.6015C285.472 89.657 288.602 94.8153 291.667 99.9922C293.209 102.599 294.742 105.225 296.265 107.842C296.648 108.496 298.405 111.299 298.48 111.944C298.601 113.122 287.929 134.371 286.135 137.175C286.247 137.175 287.341 137.82 287.528 137.894C287.715 137.969 287.574 138.063 287.528 138.025C286.888 137.854 286.263 137.632 285.659 137.362C285.659 137.362 297.807 112.598 297.807 112.262C297.751 111.58 296.256 109.159 295.882 108.524C292.873 103.497 289.898 98.4504 286.958 93.3855L286.219 92.0773C285.631 91.4885 285.079 90.8438 284.556 90.2083C283.874 89.3734 283.249 88.4929 282.687 87.5731C282.678 87.5607 282.675 87.5454 282.678 87.5305C282.68 87.5156 282.689 87.5023 282.701 87.4937C282.713 87.485 282.729 87.4816 282.744 87.4842C282.759 87.4869 282.772 87.4953 282.78 87.5077C283.481 88.3113 284.154 89.143 284.827 89.9747L285.528 90.8251C284.369 88.7879 283.229 86.7383 282.108 84.6762C282.052 84.6015 282.21 84.5174 282.21 84.6015Z" fill="#263238"/>
<path d="M291.069 132.586C294.19 133.651 297.236 134.959 300.283 136.221C303.329 137.483 306.301 138.81 309.272 140.183C310.992 140.968 312.683 141.809 314.412 142.594C314.468 142.594 314.412 142.716 314.412 142.697C311.384 141.398 308.3 140.211 305.254 138.959C302.208 137.707 299.18 136.324 296.227 135.016C294.489 134.259 292.741 133.52 291.05 132.679C291.042 132.664 291.039 132.646 291.042 132.629C291.046 132.612 291.055 132.597 291.069 132.586Z" fill="#263238"/>
<path d="M274.22 62.5499C273.939 63.4844 269.108 69.0912 264.875 68.6053C263.511 68.4371 264.09 60.9426 264.09 60.9426L264.006 60.382L262.838 52.495L272.379 47.318L273.799 46.6172C273.799 46.6172 273.977 48.7945 274.173 51.5138V51.8969C274.173 52.0558 274.173 52.196 274.173 52.3362C274.173 52.7473 274.238 53.1585 274.257 53.5697C274.276 53.9808 274.304 54.1958 274.313 54.5041C274.323 54.8125 274.313 55.1583 274.313 55.4853C274.45 57.8394 274.419 60.2003 274.22 62.5499Z" fill="#EB9481"/>
<path d="M274.163 51.5325C273.219 53.6528 271.824 55.5424 270.077 57.0704C268.329 58.5985 266.27 59.7284 264.043 60.382L262.875 52.495L272.416 47.318L273.799 46.6172C273.799 46.6172 273.967 48.8132 274.163 51.5325Z" fill="#263238"/>
<path d="M252.055 40.6429C250.327 54.5199 258.447 57.127 261.4 57.4634C264.119 57.7999 273.408 58.6035 276.566 44.9696C279.725 31.3356 273.81 26.1586 267.642 25.0653C261.475 23.972 253.784 26.766 252.055 40.6429Z" fill="#EB9481"/>
<path d="M276.108 44.4852C272.744 44.1301 273.379 38.8784 273.379 38.8784C273.379 38.8784 269.641 38.0841 270.034 31.8979C269.151 33.051 268.011 33.9825 266.706 34.6184C265.4 35.2543 263.964 35.577 262.511 35.561C261.399 35.561 265.399 33.1781 265.399 33.1781C265.399 33.1781 260.54 36.6543 252.55 34.1967C251.98 34.0191 253.671 24.6464 260.418 22.4504C267.165 20.2543 273.277 23.497 276.772 27.9918C276.772 27.9918 281.519 31.7297 281.537 36.2525C281.556 40.7754 277.416 44.6254 276.108 44.4852Z" fill="#263238"/>
<path d="M273.033 44.887C273.033 44.887 276.248 40.6351 278.192 41.7939C280.135 42.9526 277.594 49.1949 275.239 49.9705C274.945 50.0929 274.628 50.154 274.31 50.1501C273.991 50.1463 273.677 50.0776 273.385 49.9482C273.094 49.8188 272.832 49.6313 272.616 49.3974C272.4 49.1634 272.233 48.8879 272.127 48.5875L273.033 44.887Z" fill="#EB9481"/>
<path d="M277.415 43.5703C277.415 43.5703 277.462 43.5703 277.415 43.6264C276.656 43.9739 275.977 44.4757 275.422 45.1C274.867 45.7242 274.448 46.4571 274.192 47.2521C274.292 47.0924 274.426 46.9564 274.584 46.8536C274.742 46.7509 274.921 46.6839 275.108 46.6572C275.295 46.6305 275.485 46.6448 275.666 46.6991C275.846 46.7535 276.013 46.8465 276.154 46.9718C276.201 46.9718 276.154 47.0652 276.154 47.0559C275.871 46.9522 275.564 46.9398 275.274 47.0202C274.984 47.1007 274.726 47.27 274.537 47.5044C274.219 47.8927 273.947 48.3159 273.724 48.766C273.64 48.9061 273.379 48.822 273.444 48.6538C273.453 46.5419 275.182 43.6918 277.415 43.5703Z" fill="#263238"/>
<path d="M254.288 38.2071C254.617 38.2008 254.944 38.1758 255.27 38.1323C255.601 38.1486 255.929 38.0568 256.204 37.8707C256.284 37.7936 256.336 37.6918 256.351 37.5816C256.367 37.4714 256.344 37.3593 256.288 37.2633C256.151 37.0887 255.969 36.9541 255.762 36.8736C255.555 36.793 255.33 36.7695 255.111 36.8054C254.653 36.8137 254.214 36.99 253.877 37.3007C253.806 37.379 253.759 37.4765 253.743 37.581C253.726 37.6856 253.741 37.7927 253.785 37.8891C253.828 37.9855 253.899 38.067 253.989 38.1235C254.078 38.18 254.183 38.2091 254.288 38.2071Z" fill="#263238"/>
<path d="M263.708 39.1419C263.381 39.0578 263.091 38.927 262.774 38.8149C262.433 38.7445 262.124 38.5639 261.895 38.3009C261.842 38.2041 261.822 38.0927 261.837 37.9833C261.852 37.8739 261.902 37.7723 261.979 37.6935C262.16 37.5637 262.372 37.4842 262.594 37.4628C262.815 37.4415 263.039 37.4792 263.241 37.572C263.674 37.7014 264.046 37.9836 264.288 38.3663C264.336 38.4558 264.358 38.5574 264.351 38.6591C264.344 38.7608 264.308 38.8582 264.247 38.9399C264.186 39.0215 264.102 39.084 264.007 39.1198C263.912 39.1556 263.808 39.1633 263.708 39.1419Z" fill="#263238"/>
<path d="M261.277 41.5508C261.277 41.5508 261.352 41.6068 261.343 41.6442C261.165 42.5787 261.118 43.7094 261.931 44.158C261.931 44.158 261.931 44.2234 261.931 44.214C260.885 43.8963 260.959 42.4198 261.277 41.5508Z" fill="#263238"/>
<path d="M262.287 40.69C263.838 40.8115 263.473 43.8952 262.044 43.7831C260.614 43.671 260.988 40.5872 262.287 40.69Z" fill="#263238"/>
<path d="M262.875 40.9255C263.118 41.1311 263.352 41.4675 263.67 41.5423C263.987 41.617 264.361 41.3274 264.604 41.047H264.651C264.585 41.6357 264.286 42.2151 263.642 42.2338C262.997 42.2525 262.707 41.6731 262.623 41.0564C262.66 41.0096 262.773 40.8414 262.875 40.9255Z" fill="#263238"/>
<path d="M256.045 40.4766C256.045 40.4766 255.96 40.4766 255.96 40.5607C255.886 41.4951 255.643 42.6072 254.736 42.8314C255.792 42.8782 256.11 41.4017 256.045 40.4766Z" fill="#263238"/>
<path d="M255.28 39.3813C253.757 39.1009 253.299 42.1847 254.71 42.437C256.121 42.6893 256.56 39.6242 255.28 39.3813Z" fill="#263238"/>
<path d="M254.606 39.4964C254.335 39.6179 254.054 39.8795 253.765 39.8609C253.475 39.8422 253.223 39.459 253.054 39.1133C253.054 39.1133 253.008 39.1133 252.998 39.1133C252.896 39.6927 252.998 40.3374 253.55 40.5337C254.101 40.7299 254.484 40.2627 254.727 39.702C254.774 39.6179 254.718 39.4403 254.606 39.4964Z" fill="#263238"/>
<path d="M260.373 49.6322C260.13 49.8378 259.877 50.1275 259.522 50.1368C259.168 50.1012 258.824 49.9931 258.513 49.8191C258.513 49.8191 258.448 49.8191 258.466 49.8191C258.588 50.0181 258.763 50.1799 258.97 50.2869C259.178 50.394 259.411 50.4423 259.644 50.4265C259.844 50.3904 260.029 50.2956 260.175 50.1542C260.322 50.0128 260.423 49.8311 260.466 49.6322C260.485 49.6228 260.41 49.5948 260.373 49.6322Z" fill="#263238"/>
<path d="M256.82 45.682C256.82 45.682 256.446 47.0838 256.352 47.7472C256.352 47.8126 256.511 47.8687 256.736 47.9061C257.299 48.083 257.899 48.1026 258.472 47.9626C259.046 47.8225 259.57 47.5283 259.988 47.1118C259.996 47.099 260 47.0839 259.999 47.0687C259.999 47.0534 259.994 47.0387 259.984 47.0265C259.975 47.0143 259.963 47.0051 259.948 47.0004C259.934 46.9956 259.918 46.9953 259.903 46.9997C258.971 47.4771 257.909 47.641 256.876 47.4669C256.876 47.2707 257.605 45.084 257.502 45.0653C256.974 45.0446 256.446 45.0949 255.932 45.2148C256.633 42.2712 257.801 39.4678 258.474 36.5336C258.478 36.5219 258.48 36.5095 258.479 36.4971C258.479 36.4847 258.476 36.4725 258.471 36.4612C258.466 36.4499 258.458 36.4398 258.449 36.4314C258.44 36.4229 258.429 36.4164 258.418 36.4121C258.406 36.4078 258.394 36.4058 258.381 36.4063C258.369 36.4068 258.357 36.4098 258.345 36.415C258.334 36.4202 258.324 36.4275 258.315 36.4367C258.307 36.4458 258.3 36.4565 258.296 36.4682C256.953 39.4358 255.905 42.5282 255.166 45.7007C255.11 46.0745 256.539 45.7475 256.82 45.682Z" fill="#263238"/>
<path d="M256.84 47.6621C257.141 48.259 257.592 48.7677 258.148 49.1386C258.455 49.3302 258.815 49.4216 259.176 49.4002C259.98 49.3441 260.11 48.6526 260.11 48.0359C260.094 47.7032 260.038 47.3738 259.942 47.0547C259 47.5855 257.912 47.7985 256.84 47.6621Z" fill="#263238"/>
<path d="M258.148 49.138C258.456 49.3296 258.815 49.421 259.176 49.3996C259.98 49.3436 260.111 48.6521 260.111 48.0353C259.707 47.9694 259.293 48.0426 258.936 48.2429C258.58 48.4433 258.302 48.7589 258.148 49.138Z" fill="#FF9BBC"/>
<path d="M264.025 62.053L266.903 68.3046L274.426 59.8477L276.799 62.324C276.799 62.324 269.679 75.5281 269.604 74.9487L266.707 69.5849L263.1 73.5937L262.932 63.978L264.025 62.053Z" fill="#EBEBEB"/>
<path d="M262.744 68.847C262.744 67.2584 262.744 65.6604 262.857 64.0718C262.857 64.0157 262.941 63.9877 262.959 64.0718C263.352 65.5857 263.221 71.6597 263.305 73.1082C263.455 72.94 266.66 69.5665 266.697 69.6226C267.305 70.4636 269.435 74.3697 269.585 74.7248C270.706 72.6316 275.042 64.9969 276.397 62.9972C276.406 62.9882 276.417 62.9825 276.43 62.9809C276.442 62.9793 276.455 62.982 276.466 62.9885C276.477 62.9949 276.485 63.0048 276.489 63.0166C276.494 63.0283 276.494 63.0412 276.491 63.0532C275.556 65.2586 269.79 75.5284 269.697 75.5097C268.589 73.6684 267.576 71.7721 266.66 69.8282C265.511 71.3339 264.262 72.7606 262.922 74.0987C262.768 72.3526 262.709 70.5995 262.744 68.847Z" fill="#263238"/>
<path d="M150.869 152.211C149.617 151.202 149.785 152.164 150.486 154.93C151.29 158.117 158.896 165.48 155.523 167.658C150.766 170.704 141.59 155.706 140.113 151.164C138.627 146.431 138.209 141.426 138.889 136.512C141.889 139.409 150.869 152.211 150.869 152.211Z" fill="#AD6359"/>
<path d="M192.851 174.126L125.859 179.504L129.118 220.088L196.109 214.71L192.851 174.126Z" fill="#4668D6"/>
<path opacity="0.1" d="M192.847 174.13L125.855 179.508L127.39 198.622L194.382 193.243L192.847 174.13Z" fill="black"/>
<path d="M193.965 168.027L123.797 173.66L125.318 192.606L195.486 186.973L193.965 168.027Z" fill="#4668D6"/>
<path d="M172.782 158.855L173.651 169.667L168.568 170.069L168.073 163.92L148.692 165.481L149.187 171.63L144.103 172.032L143.234 161.229L172.782 158.855Z" fill="#263238"/>
<path d="M139.163 186.938L134.59 187.305L135.316 196.349L139.89 195.982L139.163 186.938Z" fill="#263238"/>
<path d="M185.488 183.227L180.914 183.594L181.64 192.638L186.214 192.271L185.488 183.227Z" fill="#263238"/>
<path d="M160.505 126.25C165.551 133.857 172.288 143.014 172.84 153.284C172.932 154.426 172.636 155.566 171.999 156.518C172.335 161.124 170.261 162.657 170.261 162.657C169.251 167.04 166.915 168.32 166.915 168.32C166.915 168.32 166.981 172.058 164.112 172.058C161.243 172.058 160.673 167.572 158.197 163.218C152.534 153.256 140.843 139.202 138.928 136.492L160.505 126.25Z" fill="#AD6359"/>
<path d="M159.551 148.601C161.243 151.5 162.735 154.509 164.018 157.61C165.218 161.089 166.155 164.653 166.822 168.272C166.828 168.291 166.84 168.307 166.856 168.319C166.872 168.33 166.891 168.336 166.91 168.336C166.93 168.336 166.949 168.33 166.965 168.319C166.981 168.307 166.993 168.291 166.999 168.272C166.419 161.157 163.898 154.337 159.71 148.555C159.589 148.396 159.477 148.471 159.551 148.601Z" fill="#263238"/>
<path d="M165.073 144.313C166.475 147.284 168.914 152.527 170.138 162.694H170.203C170.286 156.201 168.558 149.813 165.213 144.247C165.11 144.07 164.98 144.116 165.073 144.313Z" fill="#263238"/>
<path d="M168.082 142.062C170.278 147.211 171.017 150.734 171.97 156.518C171.97 156.518 172.035 156.518 172.026 156.518C171.633 149.818 170.736 147.435 168.288 141.959C168.204 141.772 167.998 141.857 168.082 142.062Z" fill="#263238"/>
<path d="M161.149 127.223C159.579 124.204 149.356 104.683 145.693 98.9737C144.468 97.1048 138.478 77.2099 133.741 64.5945C130.863 56.9318 124.349 55.1376 123.461 66.669C122.873 74.6027 125.087 100.086 127.302 108.72C129.059 115.495 137.039 133.119 138.852 136.511C140.609 139.707 162.709 130.213 161.149 127.223Z" fill="#AD6359"/>
<path d="M136.431 136.463L161.232 126.249C161.232 126.249 148.075 102.196 145.673 97.3556C143.272 92.515 138.786 76.9934 134.16 65.2564C129.535 53.5195 123.881 58.6404 123.33 65.4153C122.779 72.7509 124.526 99.7104 126.386 108.401C128.245 117.092 136.431 136.463 136.431 136.463Z" fill="#4668D6"/>
<path d="M161.234 126.252L155.272 128.709L136.433 136.465C136.433 136.465 128.237 117.122 126.387 108.431C124.537 99.7406 122.78 72.7624 123.331 65.4455C123.687 60.7077 126.574 56.7829 129.873 58.8574C131.284 59.7919 132.779 61.7543 134.171 65.2866C138.844 77.0236 143.282 92.5545 145.684 97.3857C148.086 102.217 161.234 126.252 161.234 126.252Z" fill="#4668D6"/>
<path opacity="0.1" d="M155.272 128.709L136.433 136.465C136.433 136.465 128.237 117.122 126.387 108.431C124.537 99.7406 122.78 72.7624 123.331 65.4455C123.687 60.7077 126.574 56.7829 129.873 58.8574L155.272 128.709Z" fill="black"/>
<path d="M134.947 130.605C137.751 129.138 140.666 127.876 143.554 126.586C146.441 125.297 149.329 124.11 152.244 122.942C153.926 122.269 155.627 121.643 157.309 120.961C157.365 120.961 157.403 121.036 157.309 121.054C154.403 122.307 151.534 123.671 148.647 124.951C145.759 126.231 142.881 127.456 139.993 128.689C138.321 129.39 136.648 130.119 134.957 130.754C134.937 130.755 134.917 130.749 134.902 130.736C134.887 130.722 134.878 130.704 134.877 130.684C134.876 130.664 134.883 130.645 134.896 130.63C134.909 130.615 134.927 130.606 134.947 130.605Z" fill="#263238"/>
<path d="M111.443 286.617C111.443 286.617 111.443 324.65 111.443 324.678C111.443 331.948 111.499 338.322 111.855 341.62C111.85 341.639 111.85 341.658 111.855 341.676C111.856 342.454 112.035 343.221 112.378 343.919C112.378 343.919 112.378 343.919 112.425 343.966C114.583 345.442 172.689 347.433 174.735 346.816C176.782 346.199 175.202 340.321 173.006 338.406C170.81 336.49 148.897 325.818 148.897 325.818L148.579 287.841L111.443 286.617Z" fill="#AD6359"/>
<path d="M111.453 316.863V324.675C111.453 331.946 111.509 338.319 111.864 341.617C111.86 341.636 111.86 341.655 111.864 341.673C111.952 342.439 112.127 343.191 112.388 343.916C112.388 343.916 112.388 343.916 112.434 343.963C114.593 345.439 172.698 347.43 174.745 346.813C176.791 346.196 175.212 340.319 173.016 338.403C170.82 336.487 148.907 325.816 148.907 325.816L149.019 317.891L111.453 316.863Z" fill="white"/>
<path d="M174.744 346.822C172.689 347.429 114.583 345.448 112.424 343.962C111.593 343.411 111.387 334.926 111.434 324.675V324.348L148.934 325.217V325.852C148.934 325.852 170.829 336.561 173.034 338.44C175.24 340.318 176.81 346.214 174.744 346.822Z" fill="#A6A6A6"/>
<path d="M174.175 344.544C164.391 343.965 124.862 342.572 115.144 342.75C115.069 342.75 115.069 342.797 115.144 342.806C124.834 343.591 164.372 344.675 174.175 344.675C174.38 344.712 174.389 344.553 174.175 344.544Z" fill="#263238"/>
<path d="M152.066 326.07C148.235 325.22 143.507 325.649 140.47 328.303C140.348 328.406 140.47 328.565 140.619 328.528C144.345 327.468 148.173 326.81 152.038 326.565C152.097 326.558 152.151 326.53 152.191 326.487C152.231 326.444 152.255 326.388 152.258 326.329C152.261 326.27 152.244 326.212 152.209 326.165C152.174 326.118 152.124 326.084 152.066 326.07Z" fill="#263238"/>
<path d="M154.794 327.891C150.963 327.04 146.225 327.47 143.188 330.115C143.067 330.217 143.188 330.386 143.347 330.348C147.069 329.285 150.894 328.624 154.757 328.376C154.821 328.381 154.885 328.361 154.934 328.319C154.983 328.276 155.014 328.217 155.019 328.152C155.023 328.088 155.003 328.024 154.961 327.975C154.919 327.926 154.859 327.895 154.794 327.891Z" fill="#263238"/>
<path d="M157.514 329.621C153.692 328.771 148.954 329.2 145.917 331.845C145.795 331.948 145.917 332.107 146.066 332.079C149.791 331.012 153.619 330.351 157.486 330.107C157.55 330.111 157.613 330.089 157.662 330.046C157.71 330.003 157.739 329.942 157.743 329.878C157.746 329.814 157.724 329.75 157.681 329.702C157.638 329.654 157.578 329.625 157.514 329.621Z" fill="#263238"/>
<path d="M109.566 259.271L109.575 259.701L110.416 326.272L151.094 325.46L142.74 122.492H108.389L109.566 259.271Z" fill="#37474F"/>
<path d="M149.394 318.678C143.04 318.622 144.862 318.547 138.517 318.565C135.405 318.565 114.987 318.64 112.09 319.164C112.078 319.168 112.067 319.177 112.06 319.188C112.053 319.198 112.049 319.211 112.049 319.224C112.049 319.237 112.053 319.25 112.06 319.261C112.067 319.272 112.078 319.28 112.09 319.285C114.996 319.734 135.452 319.285 138.517 319.238C144.871 319.107 143.049 319.07 149.394 318.864C149.516 318.864 149.516 318.678 149.394 318.678Z" fill="#263238"/>
<path d="M117.313 296.118C117.238 290.038 117.141 283.957 117.023 277.877C116.792 265.71 116.568 253.543 116.35 241.377C115.902 217.174 115.509 192.971 115.173 168.768C114.967 155.115 114.976 141.453 114.621 127.801C114.621 127.801 114.621 127.801 114.565 127.801C114.341 139.949 114.481 152.097 114.5 164.311C114.519 176.524 114.575 188.607 114.687 200.811C114.93 225.023 115.266 249.226 115.836 273.429C115.995 280.26 116.163 287.082 116.397 293.913C116.63 300.743 116.789 307.565 117.266 314.377C117.266 314.4 117.275 314.421 117.29 314.437C117.306 314.453 117.328 314.462 117.35 314.462C117.372 314.462 117.394 314.453 117.409 314.437C117.425 314.421 117.434 314.4 117.434 314.377C117.546 308.266 117.397 302.183 117.313 296.118Z" fill="#263238"/>
<path d="M108.379 122.906L109.285 226.548L136.824 122.504H108.388L108.379 122.906Z" fill="#263238"/>
<path d="M48.0878 267.598C48.0878 267.598 28.4638 299.482 28.4638 299.51C25.2773 306.051 22.5954 311.836 21.4927 314.957C21.1506 315.661 20.9808 316.436 20.9974 317.218C20.993 317.237 20.993 317.256 20.9974 317.274C22.3057 319.545 73.8044 346.532 75.9163 346.869C78.0282 347.205 79.159 341.206 77.9909 338.571C76.8228 335.936 61.675 316.816 61.675 316.816L80.9625 284.783L48.0878 267.598Z" fill="#AD6359"/>
<path d="M20.9681 317.266C20.9638 317.284 20.9638 317.303 20.9681 317.322C22.2764 319.592 73.7751 346.58 75.887 346.916C77.999 347.253 79.1203 341.253 77.9709 338.618C76.8215 335.983 61.6737 316.817 61.6737 316.817L65.1126 311.098C56.7023 306.613 41.3957 298.735 31.8921 293.848L28.4159 299.511C25.2293 306.052 22.5474 311.827 21.4447 314.957C21.4406 314.976 21.4406 314.995 21.4447 315.013C21.1088 315.715 20.9454 316.488 20.9681 317.266Z" fill="white"/>
<path d="M75.8971 346.918C73.8226 346.582 22.2865 319.594 20.9782 317.323C20.4736 316.464 23.9685 308.736 28.454 299.512C28.454 299.419 28.5474 299.316 28.6035 299.223L62.0202 316.267L61.7119 316.819C61.7119 316.819 76.7942 335.966 77.9717 338.62C79.1491 341.274 78.009 347.264 75.8971 346.918Z" fill="#A6A6A6"/>
<path d="M76.3645 344.62C67.7954 339.854 32.7807 321.454 23.95 317.398C23.8752 317.398 23.8565 317.398 23.95 317.455C32.3602 322.36 67.4964 340.471 76.2804 344.76C76.4767 344.853 76.5421 344.713 76.3645 344.62Z" fill="#263238"/>
<path d="M64.4783 318.387C61.3945 315.958 56.9371 314.294 53.059 315.36C52.9002 315.36 52.9656 315.612 53.059 315.631C56.8743 316.291 60.6084 317.356 64.198 318.808C64.2537 318.845 64.322 318.858 64.3877 318.845C64.4534 318.832 64.5112 318.793 64.5484 318.738C64.5856 318.682 64.5991 318.614 64.5859 318.548C64.5728 318.482 64.5341 318.424 64.4783 318.387Z" fill="#263238"/>
<path d="M66.1315 321.161C63.0478 318.731 58.5997 317.068 54.7123 318.133C54.5628 318.133 54.6282 318.385 54.7123 318.413C58.5306 319.069 62.2679 320.131 65.8606 321.581C65.9163 321.617 65.9841 321.629 66.0489 321.615C66.1138 321.601 66.1704 321.562 66.2063 321.506C66.2422 321.451 66.2546 321.383 66.2405 321.318C66.2265 321.253 66.1873 321.197 66.1315 321.161Z" fill="#263238"/>
<path d="M67.824 323.938C64.7402 321.508 60.2828 319.845 56.4047 320.91C56.2459 320.957 56.3113 321.172 56.4047 321.191C60.221 321.847 63.9555 322.912 67.5437 324.368C67.6007 324.405 67.6701 324.418 67.7367 324.404C67.8033 324.39 67.8616 324.35 67.8988 324.293C67.9359 324.236 67.9489 324.167 67.9349 324.1C67.9209 324.034 67.881 323.975 67.824 323.938Z" fill="#263238"/>
<path d="M138.095 122.465C137.946 123.166 135.544 134.314 133.059 143.883C131.246 150.882 129.386 157.021 128.311 157.657C127.237 158.292 121.2 160.993 119.228 161.806C119.228 161.806 105.959 228.041 98.9596 248.572C92.4931 267.523 65.7485 318.18 65.7485 318.18L26.9492 298.557C26.9492 298.557 57.2542 247.161 60.4314 237.919C65.3747 223.621 83.8773 153.816 83.8773 153.816C83.8773 153.816 83.7371 131.959 91.1007 122.418L138.095 122.465Z" fill="#37474F"/>
<path d="M65.169 310.65C59.6276 307.557 61.2629 308.361 55.6841 305.324C52.9461 303.847 35.0042 294.11 32.2102 293.176C32.1541 293.176 32.098 293.251 32.1541 293.297C34.4903 295.082 52.6097 304.511 55.3664 305.941C60.9732 308.875 59.4126 307.968 65.0849 310.837C65.0971 310.843 65.1104 310.846 65.1238 310.846C65.1373 310.847 65.1507 310.844 65.1633 310.84C65.1758 310.835 65.1874 310.828 65.1972 310.818C65.207 310.809 65.2148 310.798 65.2204 310.786C65.2259 310.774 65.2289 310.76 65.2294 310.747C65.2298 310.733 65.2275 310.72 65.2227 310.708C65.218 310.695 65.2108 310.683 65.2015 310.674C65.1923 310.664 65.1812 310.656 65.169 310.65Z" fill="#263238"/>
<path d="M93.8291 147.779C94.8851 147.508 96.0251 147.424 97.1091 147.256C97.9875 147.116 98.8566 146.957 99.7163 146.77C101.379 146.47 102.955 145.806 104.333 144.827C105.837 143.658 106.594 141.883 107.323 140.154C107.753 139.145 108.201 138.136 108.65 137.136C108.865 136.65 109.089 136.201 109.313 135.678C109.62 135.116 109.892 134.536 110.126 133.94C110.126 133.847 110.295 133.94 110.266 133.94C110.118 134.35 109.993 134.768 109.893 135.192C109.743 135.678 109.603 136.127 109.453 136.659C109.183 137.528 108.921 138.397 108.64 139.266C108.203 140.856 107.575 142.387 106.772 143.827C105.164 146.378 102.305 147.406 99.4453 147.77C98.623 147.873 97.7913 147.929 96.969 147.976C95.9275 148.069 94.8799 148.069 93.8385 147.976C93.8135 147.95 93.7988 147.915 93.797 147.879C93.7953 147.843 93.8067 147.808 93.8291 147.779Z" fill="#263238"/>
<path d="M131.442 156.133C127.237 157.665 123.172 159.56 119.294 161.796C119.267 161.815 119.247 161.842 119.238 161.874C119.229 161.905 119.231 161.939 119.245 161.969C119.258 161.999 119.281 162.024 119.311 162.038C119.341 162.053 119.374 162.056 119.406 162.048C123.499 160.292 127.677 158.6 131.676 156.619C131.733 156.584 131.775 156.529 131.794 156.465C131.813 156.4 131.808 156.331 131.779 156.271C131.75 156.21 131.699 156.163 131.637 156.137C131.575 156.112 131.506 156.11 131.442 156.133Z" fill="#263238"/>
<path d="M132.695 128.073C132.695 127.933 132.433 127.905 132.433 128.073C132.44 132.638 132.216 137.201 131.76 141.744C131.574 143.856 129.892 155.518 126.21 154.668C125.602 154.518 125.275 153.92 125.191 152.995C125.206 151.787 125.369 150.585 125.677 149.416C126.088 146.98 126.4 144.529 126.612 142.062C127.038 137.472 126.988 132.849 126.462 128.269C126.455 128.244 126.439 128.221 126.418 128.206C126.397 128.19 126.372 128.181 126.345 128.181C126.319 128.181 126.293 128.19 126.272 128.206C126.251 128.221 126.236 128.244 126.228 128.269C126.332 134.636 125.957 141.003 125.107 147.314C124.649 150.351 123.126 154.911 126.294 155.378C129.462 155.845 131.62 148.211 132.013 146.118C133.019 140.157 133.248 134.092 132.695 128.073Z" fill="#263238"/>
<path d="M126.284 155.014C125.954 155.801 125.679 156.61 125.462 157.434C125.223 158.07 125.105 158.746 125.116 159.425C125.127 159.449 125.145 159.469 125.168 159.483C125.19 159.496 125.216 159.504 125.242 159.504C125.268 159.504 125.294 159.496 125.316 159.483C125.339 159.469 125.357 159.449 125.368 159.425C125.751 158.828 126.038 158.176 126.219 157.49C126.499 156.743 126.789 156.005 127.05 155.248C127.057 155.155 127.031 155.063 126.979 154.986C126.926 154.91 126.849 154.854 126.76 154.826C126.671 154.799 126.576 154.803 126.489 154.837C126.403 154.871 126.33 154.934 126.284 155.014Z" fill="#263238"/>
<path d="M37.3789 292.175C42.9016 281.775 48.5926 271.477 54.3115 261.179C57.115 256.105 60.0679 251.087 62.7218 245.947C65.2551 240.853 67.3104 235.535 68.8613 230.061C72.2814 218.959 75.5178 207.802 78.5704 196.588C81.623 185.374 84.4919 174.117 87.1769 162.816C87.8497 160.013 88.588 157.163 89.13 154.303C89.6206 151.421 89.6206 148.476 89.13 145.594C88.716 142.911 88.6939 140.182 89.0645 137.492C89.4851 134.807 90.1099 132.158 90.9335 129.568C91.3633 128.203 91.868 126.849 92.2978 125.494C92.3128 125.468 92.3359 125.449 92.3632 125.438C92.3906 125.428 92.4206 125.427 92.4487 125.435C92.4767 125.444 92.501 125.462 92.5177 125.486C92.5344 125.51 92.5425 125.539 92.5408 125.568C90.8681 131.035 89.1486 136.576 89.5131 142.389C89.6813 145.192 90.4476 147.911 90.3728 150.715C90.1954 153.501 89.7256 156.26 88.9711 158.948C86.3234 170.311 83.4889 181.633 80.4674 192.916C77.4459 204.198 74.2438 215.412 70.861 226.557C69.2164 231.995 67.6745 237.509 65.3383 242.695C63.0021 247.881 60.0305 252.797 57.2458 257.759C51.4801 268.038 45.6677 278.242 39.7244 288.391C38.9769 289.68 38.2106 290.96 37.4537 292.241C37.491 292.381 37.3789 292.259 37.3789 292.175Z" fill="#263238"/>
<path d="M142.674 125.39C141.815 126.324 86.8863 127.362 86.6059 127.016C85.7929 126.081 99.8567 69.3589 112.509 58.8742C115.229 56.6221 125.087 57.08 126.442 57.8275C129.592 59.5657 132.46 63.0886 134.666 69.4617C139.077 82.2266 143.422 124.53 142.674 125.39Z" fill="#4668D6"/>
<path d="M141.478 106.283C140.792 100.489 139.973 94.7109 139.02 88.9483C139.029 88.9395 139.033 88.9278 139.033 88.9156C139.033 88.9033 139.029 88.8916 139.02 88.8829C138.936 87.2102 138.815 85.5375 138.609 83.8741C138.609 83.8274 138.525 83.8274 138.534 83.8741C138.534 85.1543 138.665 86.4252 138.777 87.6961C138.198 84.3133 137.575 80.9367 136.908 77.5664C137.843 83.7059 138.702 89.8547 139.506 96.0129C139.917 99.134 140.291 102.265 140.665 105.358C141.039 108.451 141.272 111.469 141.599 114.525C141.973 117.973 142.244 121.449 142.805 124.879C142.805 125.038 143.076 124.991 143.076 124.832C143.113 118.655 142.188 112.441 141.478 106.283Z" fill="#263238"/>
<path d="M127.696 66.377C124.612 67.3115 118.902 62.9007 116.482 59.1629C116.323 58.9106 116.716 48.1922 116.566 46.0803C116.566 45.6504 130.172 48.4351 130.172 48.4351C129.585 51.1508 129.334 53.9283 129.424 56.7052C129.49 56.9949 130.677 65.4612 127.696 66.377Z" fill="#AD6359"/>
<path d="M129.462 56.6899C129.462 56.6899 129.462 56.8768 129.509 57.1104C121.79 56.6525 118.211 52.4848 116.613 49.401C116.613 47.9059 116.613 46.663 116.613 46.0743C116.613 45.6351 130.21 48.4198 130.21 48.4198C129.626 51.136 129.375 53.9131 129.462 56.6899Z" fill="#263238"/>
<path d="M129.564 57.3884L126.649 65.4529L116.369 55.7344L113.688 59.0611C113.688 59.0611 123.911 74.7135 123.967 74.0127L127.004 67.0415L131.9 71.6484L131.097 59.6872L129.564 57.3884Z" fill="#EBEBEB"/>
<path d="M131.862 65.6853C131.657 63.7136 131.517 61.7232 131.227 59.7701C131.227 59.6954 131.105 59.6673 131.087 59.7701C130.76 61.6951 131.563 69.2176 131.619 71.0305C131.414 70.8343 127.087 66.9842 127.05 67.0496C126.377 68.1617 124.153 73.2452 124.003 73.7031C122.378 71.2174 116.201 62.1904 114.304 59.8542C114.248 59.7888 114.145 59.8542 114.192 59.929C115.603 62.4988 123.798 74.6469 123.91 74.6469C125.098 72.2499 126.158 69.7919 127.087 67.2833C127.825 68.1243 132.208 72.4789 132.218 72.1892C132.212 70.0166 132.093 67.8457 131.862 65.6853Z" fill="#263238"/>
<path d="M130.881 22.6836C130.881 22.6836 135.273 24.5525 136.086 28.9539C136.899 33.3553 135.88 38.0837 135.497 38.2986C135.114 38.5135 130.881 22.6836 130.881 22.6836Z" fill="#263238"/>
<path d="M113.706 28.3455C112.164 33.074 114.407 46.8387 117.724 49.9599C122.546 54.4827 130.564 55.0621 134.451 49.2497C138.189 43.6428 134.975 25.729 131.255 22.8789C125.77 18.6831 115.986 21.3837 113.706 28.3455Z" fill="#AD6359"/>
<path d="M115.155 41.4938C116.855 41.7087 117.865 36.5318 118.061 34.5787C118.238 32.85 117.865 27.5515 117.874 27.1777C117.883 26.8039 125.714 30.5605 129.574 28.6635C133.433 26.7665 135.517 22.6455 135.274 20.9261C135.031 19.2067 129.228 15.7772 124.817 16.3191C120.406 16.8611 115.472 23.4398 115.472 23.4398C116.048 22.5033 116.548 21.5221 116.968 20.5056C116.232 20.814 115.583 21.2982 115.078 21.9157C114.573 22.5331 114.227 23.265 114.071 24.0472C114.071 24.0472 114.183 21.4214 113.968 21.412C113.753 21.4027 111.931 23.9538 112.706 25.505C112.706 25.505 110.557 28.1402 110.744 30.5979C110.931 33.0555 113.155 41.2509 115.155 41.4938Z" fill="#263238"/>
<path d="M132.312 27.3098C131.223 28.1699 130.01 28.8599 128.714 29.3563C127.241 29.7516 125.693 29.7741 124.21 29.4218C122.717 29.1233 121.283 28.5803 119.967 27.8145C118.799 27.1603 117.725 26.3006 116.51 25.7493C116.201 25.6091 115.958 26.0577 116.164 26.2726C118.425 28.5101 121.343 29.9642 124.49 30.4216C125.954 30.6327 127.447 30.4595 128.823 29.9188C130.199 29.3781 131.411 28.4887 132.34 27.3379C132.34 27.3379 132.33 27.3005 132.312 27.3098Z" fill="#263238"/>
<path d="M116.621 40.2594C116.621 40.2594 113.519 35.8207 111.501 36.9327C109.482 38.0447 111.828 44.4645 114.192 45.3429C114.487 45.4761 114.807 45.5484 115.131 45.5553C115.455 45.5623 115.777 45.5038 116.078 45.3835C116.379 45.2631 116.652 45.0832 116.882 44.8547C117.112 44.6262 117.294 44.3536 117.416 44.0534L116.621 40.2594Z" fill="#AD6359"/>
<path d="M112.221 38.7539C112.174 38.7539 112.174 38.7539 112.221 38.8193C113.884 39.4828 114.753 41.0247 115.37 42.6133C115.272 42.4484 115.139 42.3065 114.982 42.1973C114.824 42.0882 114.645 42.0142 114.456 41.9805C114.267 41.9468 114.073 41.9542 113.887 42.0021C113.702 42.05 113.528 42.1374 113.379 42.2582C113.379 42.2582 113.379 42.3516 113.426 42.3423C113.717 42.2478 114.03 42.2466 114.321 42.3388C114.613 42.4309 114.868 42.6118 115.052 42.8562C115.362 43.265 115.625 43.7069 115.837 44.1738C115.912 44.3234 116.183 44.2393 116.127 44.0711C116.136 41.9405 114.491 38.9688 112.221 38.7539Z" fill="#263238"/>
<path d="M126.507 36.4961C126.507 36.4961 126.433 36.5522 126.442 36.5989C126.61 37.5334 126.638 38.6921 125.807 39.1407C126.872 38.8883 126.816 37.3838 126.507 36.4961Z" fill="#263238"/>
<path d="M125.499 35.6071C123.92 35.7099 124.238 38.8497 125.705 38.7563C127.172 38.6628 126.817 35.523 125.499 35.6071Z" fill="#263238"/>
<path d="M131.862 35.8789C131.862 35.8789 131.946 35.8789 131.946 35.963C132.012 36.8975 132.254 38.0469 133.17 38.2805V38.3366C132.077 38.2898 131.759 36.8134 131.862 35.8789Z" fill="#263238"/>
<path d="M132.628 34.7758C134.18 34.4955 134.628 37.5792 133.189 37.8876C131.75 38.196 131.33 35.0094 132.628 34.7758Z" fill="#263238"/>
<path d="M124.116 34.2979C124.528 34.1391 124.892 33.9335 125.284 33.7466C125.725 33.6069 126.109 33.3282 126.378 32.9523C126.438 32.8177 126.452 32.6671 126.418 32.5236C126.385 32.3801 126.305 32.2516 126.191 32.158C125.936 32.0085 125.645 31.9297 125.35 31.9297C125.054 31.9297 124.764 32.0085 124.509 32.158C123.946 32.3794 123.487 32.8025 123.219 33.3448C123.167 33.4725 123.153 33.6125 123.178 33.748C123.203 33.8836 123.267 34.0091 123.362 34.1095C123.456 34.21 123.578 34.2811 123.711 34.3145C123.845 34.3479 123.986 34.3422 124.116 34.2979Z" fill="#263238"/>
<path d="M133.684 33.0744C133.254 33.0287 132.826 32.9601 132.404 32.8688C131.942 32.8656 131.494 32.7077 131.133 32.4203C131.044 32.3033 130.996 32.1606 130.996 32.0138C130.996 31.867 131.044 31.7242 131.133 31.6073C131.334 31.3918 131.589 31.2341 131.872 31.1503C132.154 31.0665 132.454 31.0597 132.74 31.1307C133.341 31.1877 133.9 31.4638 134.31 31.9063C134.404 32.015 134.462 32.1495 134.478 32.2921C134.493 32.4347 134.465 32.5787 134.398 32.7052C134.33 32.8316 134.225 32.9346 134.098 33.0005C133.971 33.0664 133.826 33.0922 133.684 33.0744Z" fill="#263238"/>
<path d="M126.844 42.5494C127.129 42.9097 127.485 43.207 127.89 43.4225C128.295 43.6381 128.741 43.7671 129.199 43.8016C129.602 43.8357 130.008 43.8137 130.404 43.7361H130.629L130.834 43.6801C130.886 43.664 130.931 43.6317 130.963 43.588C130.995 43.5442 131.012 43.4913 131.012 43.4371C131.012 43.4371 131.012 43.3717 131.012 43.3343V43.2502C130.956 42.5026 130.769 41.3813 130.769 41.3813C131.058 41.4841 132.516 41.97 132.46 41.5869C132.028 38.2162 131.258 34.8977 130.161 31.6815C130.155 31.6628 130.143 31.6465 130.127 31.6349C130.111 31.6234 130.092 31.6172 130.073 31.6172C130.053 31.6172 130.034 31.6234 130.018 31.6349C130.002 31.6465 129.99 31.6628 129.984 31.6815C130.358 34.7932 131.283 37.8209 131.713 40.9514C131.195 40.7674 130.654 40.6603 130.105 40.6337C130.003 40.6337 130.507 42.811 130.507 43.1568C129.9 43.2767 129.275 43.2749 128.669 43.1514C128.062 43.0279 127.487 42.7851 126.975 42.4372C126.844 42.4092 126.779 42.4746 126.844 42.5494Z" fill="#263238"/>
<path d="M129.891 43.4554C129.508 44.0141 128.99 44.4673 128.386 44.773C128.05 44.9261 127.674 44.9686 127.312 44.8945C126.517 44.7356 126.452 44.0254 126.564 43.3993C126.625 43.0768 126.726 42.763 126.863 42.4648C127.741 43.1097 128.802 43.4568 129.891 43.4554Z" fill="#263238"/>
<path d="M128.423 44.7449C128.087 44.898 127.711 44.9405 127.349 44.8664C126.554 44.7075 126.489 43.9973 126.601 43.3712C127.014 43.3668 127.417 43.4991 127.746 43.7476C128.076 43.9961 128.314 44.3468 128.423 44.7449Z" fill="#FF9BBC"/>
<path d="M107.464 76.4543C111.511 95.1437 116.398 118.066 121.603 121.786C129.733 127.589 152.665 131.859 161.047 132.065C164.533 132.139 168.869 105.021 165.14 104.965C157.178 104.89 140.049 105.264 138.143 104.031C136.237 102.797 126.593 85.8644 118.958 72.7257C109.782 56.8958 105.091 65.6518 107.464 76.4543Z" fill="#AD6359"/>
<path d="M160.616 104.943C160.616 104.943 171.363 104.765 178.278 105.447C182.137 105.84 188.744 107.587 191.445 109.185C195.491 111.549 210.91 124.015 207.976 127.819C205.303 131.239 193.435 118.848 193.435 118.848C193.435 118.848 206.518 130.295 202.574 133.799C198.631 137.303 187.034 121.567 187.034 121.567C187.034 121.567 200.229 133.631 195.556 136.649C192.024 138.939 180.745 125.221 180.745 125.221C180.745 125.221 192.015 135.668 188.482 138.173C184.576 140.976 173.372 128.94 173.372 128.94C163.326 133.79 156.851 133.276 152.188 131.426C152.169 131.472 157.467 112.792 160.616 104.943Z" fill="#AD6359"/>
<path d="M189.147 114.608C190.735 115.888 192.342 117.187 193.819 118.607C195.295 120.028 196.706 121.513 198.043 123.065C199.817 125.063 201.356 127.258 202.631 129.606C200.061 125.597 194.884 120.42 193.417 118.99C191.95 117.561 190.558 116.075 189.1 114.645C189.053 114.617 189.109 114.57 189.147 114.608Z" fill="#263238"/>
<path d="M183.904 119.811C186.437 121.11 192.314 126.661 194.968 130.642C195.08 130.8 194.968 130.81 194.837 130.642C193.025 128.773 185.754 121.587 183.857 119.82C183.829 119.82 183.867 119.792 183.904 119.811Z" fill="#263238"/>
<path d="M178.596 123.465C181.899 125.784 184.726 128.715 186.922 132.1C187.035 132.268 186.922 132.268 186.745 132.1C184.035 129.175 181.923 126.867 178.512 123.559C178.484 123.521 178.531 123.418 178.596 123.465Z" fill="#263238"/>
<path d="M159.168 104.159C159.168 104.159 151.244 133.66 150.758 133.202C150.272 132.745 125.798 127.596 120.172 122.11C114.547 116.625 107.763 83.3857 106.557 73.4149C105.352 63.4441 111.099 59.6408 118.135 70.6115C125.172 81.5822 137.759 102.262 138.694 102.804C139.628 103.346 159.168 104.159 159.168 104.159Z" fill="#4668D6"/>
<path d="M144.965 129.271C145.647 126.187 146.582 123.14 147.46 120.103C148.338 117.066 149.329 114.104 150.263 111.132C150.843 109.404 151.459 107.703 152.029 105.974C152.029 105.918 152.142 105.974 152.123 105.974C151.188 108.992 150.394 112.058 149.497 115.095C148.6 118.132 147.684 121.103 146.694 124.103C146.152 125.832 145.628 127.579 145.012 129.28C145.068 129.392 144.946 129.355 144.965 129.271Z" fill="#263238"/>
<path d="M127.769 126.176C125.135 125.209 122.709 123.75 120.621 121.877C118.275 119.588 117.499 116.195 116.5 113.168C114.313 106.552 112.481 99.8422 110.781 93.0953C109.846 89.2546 108.986 85.3765 108.136 81.5078C108.136 81.5078 108.061 81.5078 108.071 81.5078C108.491 84.4888 109.005 87.4604 109.612 90.4133C109.108 88.806 108.613 87.2081 108.08 85.6101C108.08 85.5541 107.968 85.6101 107.986 85.6101C108.498 87.6768 109.121 89.7139 109.855 91.7122C110.628 95.3691 111.506 99.0011 112.491 102.608C113.425 106.078 114.447 109.52 115.556 112.934C116.098 114.607 116.64 116.289 117.266 117.934C117.75 119.341 118.506 120.639 119.49 121.756C121.714 124.157 124.76 125.11 127.694 126.269C127.788 126.344 127.844 126.204 127.769 126.176Z" fill="#263238"/>
<path d="M147.553 103.506C145.208 103.3 139.629 103.104 139.143 102.721C138.696 102.277 138.313 101.774 138.003 101.225L136.068 98.1697C133.62 94.2947 131.144 90.4323 128.639 86.5822C127.985 85.0777 127.35 83.5732 126.612 82.1061C126.612 82.05 126.49 82.1061 126.518 82.1528C126.995 83.3583 127.537 84.5357 128.079 85.7132C126.621 83.4985 125.107 81.3118 123.603 79.1719H123.537C126.11 83.5764 128.758 87.9372 131.48 92.2545L135.536 98.6556L137.61 101.898C137.797 102.294 138.071 102.643 138.413 102.917C138.755 103.19 139.155 103.382 139.582 103.477C140.797 103.664 146.123 103.711 147.534 103.674C147.646 103.618 147.646 103.515 147.553 103.506Z" fill="#263238"/>
<path d="M240.982 29.9438C242.131 28.2355 242.751 26.2272 242.767 24.1688C242.767 16.8519 234.73 10.918 224.825 10.918C214.92 10.918 206.893 16.8519 206.893 24.1875C206.893 31.5231 214.92 37.4383 224.825 37.4383C229.228 37.5105 233.547 36.2285 237.197 33.7658L243.384 35.3451L240.982 29.9438Z" fill="#FFFEFD"/>
<path d="M240.982 29.9461C242.023 28.3088 242.598 26.4189 242.646 24.4795C242.664 22.556 242.135 20.6668 241.122 19.0315C238.992 15.8169 235.784 13.4677 232.077 12.4061C228.417 11.2635 224.536 11.0168 220.76 11.6866C216.984 12.2717 213.478 14.0002 210.715 16.6393C209.378 17.9372 208.378 19.5407 207.799 21.3116C207.233 23.0861 207.207 24.989 207.724 26.7783C208.257 28.5715 209.219 30.2075 210.528 31.5441C211.86 32.8922 213.412 34.0044 215.116 34.8334C216.83 35.6649 218.651 36.2561 220.527 36.5902C222.407 36.9559 224.324 37.0939 226.236 37.0014C230.085 36.8569 233.821 35.6611 237.039 33.5439L237.123 33.4878H237.216L243.375 35.1605L243.244 35.3194L240.982 29.9461ZM240.982 29.9461L243.487 35.282L243.58 35.4876L243.356 35.4315L237.151 33.9644H237.319C234.067 36.2062 230.256 37.5003 226.311 37.7023C222.357 38.0021 218.392 37.278 214.798 35.5997C212.998 34.7422 211.357 33.5822 209.949 32.1702C208.519 30.7416 207.458 28.9876 206.855 27.0586C206.277 25.0978 206.297 23.009 206.911 21.0593C207.543 19.1402 208.63 17.4025 210.079 15.9945C212.986 13.2488 216.665 11.4613 220.62 10.8736C222.567 10.5436 224.547 10.4464 226.517 10.5839C228.48 10.7438 230.416 11.1423 232.282 11.7707C234.157 12.3923 235.923 13.3035 237.515 14.4713C239.129 15.6233 240.479 17.1043 241.478 18.8166C242.471 20.522 242.953 22.4776 242.865 24.4495C242.778 26.4215 242.124 28.3265 240.982 29.9368V29.9461Z" fill="#263238"/>
<path d="M218.367 24.1893C218.367 24.5589 218.257 24.9202 218.052 25.2276C217.846 25.5349 217.555 25.7745 217.213 25.9159C216.872 26.0574 216.496 26.0944 216.133 26.0223C215.771 25.9502 215.438 25.7722 215.176 25.5108C214.915 25.2494 214.737 24.9164 214.665 24.5539C214.593 24.1913 214.63 23.8155 214.771 23.474C214.913 23.1325 215.152 22.8406 215.46 22.6353C215.767 22.4299 216.128 22.3203 216.498 22.3203C216.994 22.3203 217.469 22.5172 217.819 22.8677C218.17 23.2182 218.367 23.6936 218.367 24.1893Z" fill="#263238"/>
<path d="M224.824 26.0278C225.851 26.0278 226.684 25.1952 226.684 24.1682C226.684 23.1412 225.851 22.3086 224.824 22.3086C223.797 22.3086 222.965 23.1412 222.965 24.1682C222.965 25.1952 223.797 26.0278 224.824 26.0278Z" fill="#263238"/>
<path d="M235.002 24.1893C235.002 24.5589 234.892 24.9202 234.687 25.2276C234.481 25.5349 234.189 25.7745 233.848 25.9159C233.506 26.0574 233.131 26.0944 232.768 26.0223C232.405 25.9502 232.072 25.7722 231.811 25.5108C231.55 25.2494 231.372 24.9164 231.3 24.5539C231.227 24.1913 231.264 23.8155 231.406 23.474C231.547 23.1325 231.787 22.8406 232.094 22.6353C232.402 22.4299 232.763 22.3203 233.133 22.3203C233.628 22.3203 234.104 22.5172 234.454 22.8677C234.805 23.2182 235.002 23.6936 235.002 24.1893Z" fill="#263238"/>
<path d="M143.132 19.4126C141.985 17.7038 141.364 15.6958 141.347 13.6375C141.347 6.32062 149.384 0.386719 159.289 0.386719C169.194 0.386719 177.222 6.32062 177.222 13.6375C177.222 20.9544 169.194 26.8883 159.289 26.8883C154.887 26.9705 150.566 25.7018 146.907 23.2533L140.73 24.8232L143.132 19.4126Z" fill="white"/>
<path d="M143.133 19.4134C141.991 17.803 141.338 15.8981 141.25 13.9261C141.162 11.9541 141.644 9.99859 142.638 8.29314C143.635 6.58279 144.982 5.1021 146.591 3.94785C148.183 2.7802 149.949 1.86898 151.824 1.24722C153.694 0.619742 155.633 0.221245 157.599 0.0604474C159.569 -0.0770376 161.548 0.0202048 163.495 0.350131C167.45 0.947541 171.126 2.74484 174.027 5.49907C175.481 6.90414 176.572 8.64257 177.204 10.5639C177.822 12.5135 177.838 14.6042 177.251 16.5632C176.655 18.4932 175.597 20.2482 174.167 21.6748C172.758 23.0868 171.118 24.2468 169.317 25.1043C165.723 26.7789 161.758 27.4998 157.804 27.1975C153.856 26.9963 150.042 25.7022 146.787 23.4596H146.964L140.759 24.9267L140.535 24.9828L140.629 24.7679L143.133 19.4134ZM143.133 19.4134L140.834 24.8333L140.703 24.6838L146.862 23.0111H146.955L147.039 23.0765C150.257 25.1938 153.993 26.3895 157.842 26.534C159.751 26.6 161.661 26.44 163.533 26.0575C165.41 25.7272 167.232 25.1326 168.943 24.2913C170.649 23.469 172.201 22.3595 173.531 21.0113C174.838 19.6729 175.8 18.0375 176.335 16.2455C176.853 14.4562 176.827 12.5533 176.26 10.7788C175.671 9.01296 174.672 7.41177 173.344 6.10648C170.578 3.47385 167.073 1.74911 163.299 1.16312C159.52 0.493263 155.636 0.740018 151.973 1.88266C148.282 2.9481 145.092 5.2937 142.974 8.49873C141.977 10.1267 141.453 12.0002 141.46 13.9093C141.506 15.8621 142.084 17.7654 143.133 19.4134Z" fill="#263238"/>
<path d="M167.598 15.4965C168.625 15.4965 169.457 14.664 169.457 13.6369C169.457 12.6099 168.625 11.7773 167.598 11.7773C166.571 11.7773 165.738 12.6099 165.738 13.6369C165.738 14.664 166.571 15.4965 167.598 15.4965Z" fill="#263238"/>
<path d="M157.43 13.6385C157.43 14.0081 157.539 14.3695 157.745 14.6768C157.95 14.9842 158.242 15.2237 158.583 15.3652C158.925 15.5066 159.301 15.5436 159.663 15.4715C160.026 15.3994 160.359 15.2214 160.62 14.96C160.882 14.6986 161.06 14.3656 161.132 14.0031C161.204 13.6406 161.167 13.2648 161.025 12.9233C160.884 12.5818 160.644 12.2899 160.337 12.0845C160.03 11.8791 159.668 11.7695 159.299 11.7695C158.803 11.7695 158.328 11.9664 157.977 12.3169C157.627 12.6674 157.43 13.1428 157.43 13.6385Z" fill="#263238"/>
<path d="M149.113 13.6385C149.113 14.0081 149.223 14.3695 149.428 14.6768C149.634 14.9842 149.925 15.2237 150.267 15.3652C150.609 15.5066 150.984 15.5436 151.347 15.4715C151.709 15.3994 152.042 15.2214 152.304 14.96C152.565 14.6986 152.743 14.3656 152.815 14.0031C152.887 13.6406 152.85 13.2648 152.709 12.9233C152.567 12.5818 152.328 12.2899 152.021 12.0845C151.713 11.8791 151.352 11.7695 150.982 11.7695C150.487 11.7695 150.011 11.9664 149.661 12.3169C149.31 12.6674 149.113 13.1428 149.113 13.6385Z" fill="#263238"/>
</svg>
