<svg width="12" height="17" viewBox="0 0 12 17" fill="none" xmlns="http://www.w3.org/2000/svg">
<path d="M3.80866 8.50065V8.40065H3.70866H1.33366C1.15022 8.40065 0.974289 8.32778 0.844577 8.19807C0.714864 8.06835 0.641992 7.89243 0.641992 7.70898V3.75065C0.641992 3.56721 0.714864 3.39128 0.844577 3.26157C0.97429 3.13186 1.15022 3.05898 1.33366 3.05898H3.70866H3.80866V2.95898V1.37565C3.80866 1.19221 3.88153 1.01628 4.01124 0.886569C4.14096 0.756856 4.31688 0.683984 4.50033 0.683984C4.68377 0.683984 4.85969 0.756856 4.98941 0.886569C5.11912 1.01628 5.19199 1.19221 5.19199 1.37565V2.95898V3.05898H5.29199H9.25007C9.35389 3.05949 9.45627 3.08337 9.5496 3.12884C9.643 3.17434 9.72495 3.2403 9.78936 3.32182L9.78974 3.32229L11.3731 5.30145L11.3731 5.30148C11.4713 5.42416 11.5248 5.57663 11.5248 5.73378C11.5248 5.89093 11.4713 6.04339 11.3731 6.16607L11.3731 6.1661L9.79017 8.14473C9.79009 8.14483 9.79001 8.14493 9.78993 8.14503C9.72487 8.22514 9.6427 8.28968 9.54945 8.33391C9.45609 8.3782 9.354 8.401 9.25067 8.40065H9.25033H5.29199H5.19199V8.50065V14.834V14.934H5.29199H6.87533C7.05877 14.934 7.23469 15.0069 7.36441 15.1366C7.49412 15.2663 7.56699 15.4422 7.56699 15.6257C7.56699 15.8091 7.49412 15.985 7.36441 16.1147C7.2347 16.2444 7.05877 16.3173 6.87533 16.3173H2.12533C1.94188 16.3173 1.76596 16.2444 1.63624 16.1147C1.50653 15.985 1.43366 15.8091 1.43366 15.6257C1.43366 15.4422 1.50653 15.2663 1.63624 15.1366C1.76596 15.0069 1.94188 14.934 2.12533 14.934H3.70866H3.80866V14.834V8.50065ZM5.39199 8.50065H9.25033L1.33366 2.95898C1.1237 2.95898 0.922332 3.04239 0.773866 3.19086C0.6254 3.33932 0.541992 3.54069 0.541992 3.75065V7.70898C0.541992 7.91895 0.6254 8.12031 0.773866 8.26878C0.922332 8.41724 1.1237 8.50065 1.33366 8.50065H3.60866H3.70866V8.60065V14.734V14.834H3.60866H2.12533C1.91536 14.834 1.714 14.9174 1.56553 15.0659C1.41707 15.2143 1.33366 15.4157 1.33366 15.6257C1.33366 15.8356 1.41707 16.037 1.56553 16.1854C1.714 16.3339 1.91536 16.4173 2.12533 16.4173H6.87533C7.08529 16.4173 7.28665 16.3339 7.43512 16.1854C7.58358 16.037 7.66699 15.8356 7.66699 15.6257C7.66699 15.4157 7.58358 15.2143 7.43512 15.0659C7.28665 14.9174 7.08529 14.834 6.87533 14.834H5.39199H5.29199V14.734V8.60065V8.50065H5.39199ZM2.12533 4.44232H2.02533V4.54232V6.91732V7.01732H2.12533H8.87033H8.91839L8.94841 6.97979L9.89841 5.79229L9.94839 5.72982L9.89841 5.66735L8.94841 4.47985L8.91839 4.44232H8.87033H2.12533Z" fill="#4668D6" stroke="#4668D6" stroke-width="0.2"/>
</svg>
