<svg width="42" height="42" viewBox="0 0 42 42" fill="none" xmlns="http://www.w3.org/2000/svg">
<circle cx="21" cy="21" r="21" fill="#FFE2E2"/>
<path d="M21.0909 23.8243L17.8575 27.0576C17.4661 27.4354 16.9433 27.6466 16.3992 27.6466C15.8552 27.6466 15.3323 27.4354 14.9409 27.0576C14.7489 26.8664 14.5965 26.6391 14.4926 26.3888C14.3886 26.1386 14.3351 25.8703 14.3351 25.5993C14.3351 25.3283 14.3886 25.06 14.4926 24.8097C14.5965 24.5594 14.7489 24.3322 14.9409 24.1409L18.1742 20.9076C18.3311 20.7507 18.4193 20.5378 18.4193 20.3159C18.4193 20.094 18.3311 19.8812 18.1742 19.7243C18.0173 19.5673 17.8045 19.4792 17.5825 19.4792C17.3606 19.4792 17.1478 19.5673 16.9909 19.7243L13.7575 22.9659C13.1062 23.6749 12.7539 24.6082 12.7743 25.5707C12.7947 26.5333 13.1861 27.4508 13.8669 28.1316C14.5477 28.8124 15.4652 29.2038 16.4278 29.2242C17.3903 29.2446 18.3236 28.8923 19.0325 28.2409L22.2742 25.0076C22.4311 24.8507 22.5193 24.6378 22.5193 24.4159C22.5193 24.194 22.4311 23.9812 22.2742 23.8243C22.1173 23.6673 21.9045 23.5792 21.6825 23.5792C21.4606 23.5792 21.2478 23.6673 21.0909 23.8243ZM28.2409 13.7576C27.5399 13.0609 26.5917 12.6699 25.6034 12.6699C24.6151 12.6699 23.6669 13.0609 22.9659 13.7576L19.7242 16.9909C19.6465 17.0686 19.5849 17.1609 19.5428 17.2624C19.5008 17.3639 19.4791 17.4727 19.4791 17.5826C19.4791 17.6925 19.5008 17.8013 19.5428 17.9028C19.5849 18.0043 19.6465 18.0966 19.7242 18.1743C19.8019 18.252 19.8942 18.3136 19.9957 18.3556C20.0972 18.3977 20.206 18.4193 20.3159 18.4193C20.4258 18.4193 20.5346 18.3977 20.6361 18.3556C20.7376 18.3136 20.8298 18.252 20.9075 18.1743L24.1409 14.9409C24.5323 14.5631 25.0552 14.352 25.5992 14.352C26.1433 14.352 26.6661 14.5631 27.0575 14.9409C27.2495 15.1322 27.4019 15.3594 27.5058 15.6097C27.6098 15.86 27.6633 16.1283 27.6633 16.3993C27.6633 16.6703 27.6098 16.9386 27.5058 17.1888C27.4019 17.4391 27.2495 17.6664 27.0575 17.8576L23.8242 21.0909C23.7461 21.1684 23.6841 21.2606 23.6418 21.3621C23.5995 21.4637 23.5777 21.5726 23.5777 21.6826C23.5777 21.7926 23.5995 21.9015 23.6418 22.0031C23.6841 22.1046 23.7461 22.1968 23.8242 22.2743C23.9017 22.3524 23.9938 22.4144 24.0954 22.4567C24.1969 22.499 24.3059 22.5208 24.4159 22.5208C24.5259 22.5208 24.6348 22.499 24.7364 22.4567C24.8379 22.4144 24.9301 22.3524 25.0075 22.2743L28.2409 19.0326C28.9375 18.3316 29.3286 17.3834 29.3286 16.3951C29.3286 15.4068 28.9375 14.4586 28.2409 13.7576ZM18.3575 23.6409C18.4354 23.7182 18.5278 23.7793 18.6293 23.8207C18.7308 23.8622 18.8395 23.8832 18.9492 23.8826C19.0589 23.8832 19.1676 23.8622 19.2691 23.8207C19.3707 23.7793 19.463 23.7182 19.5409 23.6409L23.6409 19.5409C23.7978 19.384 23.886 19.1712 23.886 18.9493C23.886 18.7273 23.7978 18.5145 23.6409 18.3576C23.484 18.2007 23.2711 18.1125 23.0492 18.1125C22.8273 18.1125 22.6145 18.2007 22.4575 18.3576L18.3575 22.4576C18.2794 22.5351 18.2174 22.6272 18.1751 22.7288C18.1328 22.8303 18.111 22.9393 18.111 23.0493C18.111 23.1593 18.1328 23.2682 18.1751 23.3697C18.2174 23.4713 18.2794 23.5635 18.3575 23.6409Z" fill="#E70000"/>
</svg>
