<svg width="245" height="221" viewBox="0 0 245 221" fill="none" xmlns="http://www.w3.org/2000/svg">
<path d="M121.112 220.998C188 220.998 242.224 214.6 242.224 206.708C242.224 198.816 188 192.418 121.112 192.418C54.2237 192.418 0 198.816 0 206.708C0 214.6 54.2237 220.998 121.112 220.998Z" fill="#EBEBEB"/>
<path d="M111.438 62.0824C111.476 62.3463 111.435 62.6157 111.32 62.8562C111.205 63.0968 111.021 63.2977 110.791 63.4334C110.562 63.5692 110.297 63.6337 110.031 63.6188C109.765 63.6038 109.509 63.51 109.296 63.3494C109.083 63.1888 108.923 62.9685 108.836 62.7165C108.748 62.4646 108.738 62.1924 108.805 61.9344C108.873 61.6765 109.016 61.4445 109.215 61.2678C109.415 61.0912 109.663 60.9779 109.927 60.9424C110.279 60.8936 110.635 60.9863 110.918 61.2C111.201 61.4138 111.388 61.7311 111.438 62.0824Z" fill="#4CCB86"/>
<path d="M133.799 10.8161C133.837 11.08 133.796 11.3493 133.681 11.5899C133.566 11.8304 133.382 12.0313 133.153 12.1671C132.923 12.3029 132.659 12.3674 132.392 12.3524C132.126 12.3374 131.87 12.2437 131.657 12.083C131.445 11.9224 131.284 11.7021 131.197 11.4502C131.109 11.1983 131.099 10.9261 131.167 10.6681C131.234 10.4102 131.377 10.1781 131.577 10.0015C131.776 9.82487 132.024 9.7116 132.289 9.67606C132.64 9.62885 132.995 9.7221 133.278 9.93555C133.561 10.149 133.748 10.4654 133.799 10.8161Z" fill="#4CCB86"/>
<path d="M84.6697 78.9233C84.689 79.0554 84.6685 79.1902 84.6109 79.3106C84.5533 79.431 84.4612 79.5315 84.3463 79.5994C84.2313 79.6673 84.0988 79.6994 83.9656 79.6918C83.8323 79.6841 83.7044 79.637 83.598 79.5564C83.4916 79.4758 83.4116 79.3654 83.3682 79.2392C83.3247 79.113 83.3198 78.9767 83.3541 78.8477C83.3883 78.7187 83.4601 78.6028 83.5604 78.5148C83.6607 78.4267 83.785 78.3705 83.9173 78.3533C84.0925 78.3305 84.2695 78.3775 84.4103 78.4841C84.5511 78.5908 84.6443 78.7485 84.6697 78.9233Z" fill="#4CCB86"/>
<path d="M100.346 114.423C100.365 114.555 100.344 114.69 100.287 114.81C100.229 114.93 100.137 115.031 100.022 115.099C99.9071 115.167 99.7746 115.199 99.6414 115.191C99.5081 115.183 99.3802 115.136 99.2738 115.056C99.1674 114.975 99.0874 114.865 99.0439 114.739C99.0005 114.612 98.9956 114.476 99.0298 114.347C99.0641 114.218 99.1359 114.102 99.2362 114.014C99.3365 113.926 99.4608 113.87 99.5931 113.853C99.768 113.831 99.9443 113.879 100.085 113.985C100.225 114.092 100.319 114.249 100.346 114.423Z" fill="#37474F"/>
<path d="M204.013 13.31C204.032 13.4421 204.012 13.5769 203.954 13.6973C203.897 13.8177 203.804 13.9182 203.69 13.9861C203.575 14.054 203.442 14.0862 203.309 14.0785C203.176 14.0708 203.048 14.0237 202.941 13.9431C202.835 13.8625 202.755 13.7521 202.711 13.6259C202.668 13.4997 202.663 13.3634 202.697 13.2344C202.732 13.1054 202.803 12.9895 202.904 12.9015C203.004 12.8134 203.128 12.7572 203.261 12.74C203.436 12.7172 203.613 12.7642 203.754 12.8709C203.894 12.9775 203.988 13.1352 204.013 13.31Z" fill="#37474F"/>
<path d="M55.0458 81.6304C55.0649 81.7622 55.0444 81.8967 54.9869 82.0169C54.9294 82.137 54.8376 82.2374 54.723 82.3053C54.6084 82.3732 54.4762 82.4055 54.3432 82.3982C54.2102 82.3909 54.0824 82.3443 53.9759 82.2642C53.8695 82.1842 53.7892 82.0743 53.7452 81.9486C53.7012 81.8229 53.6956 81.6869 53.729 81.558C53.7624 81.429 53.8333 81.3129 53.9328 81.2243C54.0323 81.1357 54.1558 81.0787 54.2877 81.0604C54.4635 81.0375 54.6413 81.0843 54.783 81.1908C54.9247 81.2974 55.019 81.4552 55.0458 81.6304Z" fill="#37474F"/>
<path d="M209.777 68.3732C209.796 68.5053 209.775 68.6401 209.718 68.7605C209.66 68.8809 209.568 68.9814 209.453 69.0493C209.338 69.1172 209.206 69.1494 209.073 69.1417C208.939 69.1341 208.811 69.0869 208.705 69.0063C208.599 68.9257 208.519 68.8153 208.475 68.6891C208.432 68.5629 208.427 68.4266 208.461 68.2976C208.495 68.1686 208.567 68.0527 208.667 67.9647C208.768 67.8766 208.892 67.8204 209.024 67.8032C209.111 67.7912 209.199 67.7963 209.284 67.8185C209.369 67.8406 209.449 67.8792 209.519 67.9322C209.589 67.9851 209.647 68.0513 209.692 68.127C209.736 68.2027 209.765 68.2864 209.777 68.3732Z" fill="#37474F"/>
<path d="M145.655 18.7195C145.674 18.8516 145.654 18.9864 145.596 19.1068C145.539 19.2272 145.447 19.3277 145.332 19.3956C145.217 19.4635 145.084 19.4957 144.951 19.488C144.818 19.4804 144.69 19.4332 144.583 19.3526C144.477 19.272 144.397 19.1616 144.354 19.0354C144.31 18.9092 144.305 18.7729 144.339 18.6439C144.374 18.5149 144.445 18.399 144.546 18.311C144.646 18.223 144.77 18.1667 144.903 18.1495C145.078 18.1282 145.254 18.1758 145.394 18.2822C145.535 18.3886 145.628 18.5454 145.655 18.7195Z" fill="#37474F"/>
<path d="M144.972 64.8374C144.991 64.9694 144.971 65.1042 144.913 65.2246C144.856 65.345 144.763 65.4456 144.649 65.5135C144.534 65.5813 144.401 65.6135 144.268 65.6058C144.135 65.5982 144.007 65.5511 143.9 65.4705C143.794 65.3899 143.714 65.2795 143.67 65.1533C143.627 65.0271 143.622 64.8908 143.656 64.7618C143.691 64.6328 143.762 64.5169 143.863 64.4288C143.963 64.3408 144.087 64.2846 144.22 64.2673C144.395 64.2445 144.572 64.2915 144.713 64.3982C144.853 64.5048 144.947 64.6626 144.972 64.8374Z" fill="#37474F"/>
<path d="M148.677 31.2568C148.715 31.5207 148.674 31.79 148.559 32.0306C148.444 32.2711 148.26 32.4721 148.03 32.6078C147.801 32.7436 147.536 32.8081 147.27 32.7931C147.003 32.7782 146.748 32.6844 146.535 32.5238C146.322 32.3631 146.162 32.1429 146.074 31.8909C145.987 31.639 145.976 31.3668 146.044 31.1088C146.112 30.8509 146.254 30.6189 146.454 30.4422C146.654 30.2656 146.902 30.1523 147.166 30.1168C147.517 30.0711 147.872 30.1649 148.154 30.3781C148.437 30.5913 148.624 30.9068 148.677 31.2568Z" fill="#37474F"/>
<path d="M109.636 103.592L111.54 102.959C111.54 102.959 110.24 102.287 110.24 100.206C110.24 98.1255 112.024 97.3047 111.255 95.418L109.134 95.988C109.372 96.483 109.503 97.0222 109.52 97.5709C109.536 98.1197 109.438 98.6658 109.231 99.1744C108.673 100.377 108.16 101.796 109.636 103.592Z" fill="#4CCB86"/>
<path d="M217.888 58.2717L219.791 57.6389C219.791 57.6389 218.492 56.9663 218.492 54.8858C218.492 52.8052 220.276 51.9844 219.506 50.0977L217.386 50.6677C217.623 51.1627 217.754 51.7019 217.771 52.2506C217.788 52.7993 217.69 53.3455 217.483 53.854C216.918 55.0568 216.411 56.4761 217.888 58.2717Z" fill="#4CCB86"/>
<path d="M164.044 1.56049L162.163 0.859375C162.163 0.859375 162.733 2.19321 161.433 3.81205C160.134 5.43088 158.224 4.95207 157.631 6.89012L159.638 7.78504C159.765 7.25076 160.003 6.74902 160.335 6.31215C160.668 5.87527 161.089 5.51294 161.57 5.24848C162.767 4.66707 164.055 3.89755 164.044 1.56049Z" fill="#4CCB86"/>
<path d="M196.564 68.492L194.682 67.7852C194.682 67.7852 195.253 69.1247 193.953 70.7378C192.653 72.351 190.744 71.8779 190.151 73.8159L192.157 74.7165C192.284 74.1807 192.523 73.6775 192.856 73.2396C193.19 72.8017 193.612 72.4387 194.095 72.1743C195.287 71.5985 196.575 70.8176 196.564 68.492Z" fill="#4CCB86"/>
<path d="M130.186 83.7684L130.459 81.7791C130.459 81.7791 129.285 82.6455 127.415 81.7221C125.546 80.7987 125.603 78.8378 123.574 78.6953L123.146 80.8443C123.696 80.851 124.238 80.9726 124.737 81.2014C125.237 81.4301 125.683 81.7609 126.047 82.1724C126.874 83.2098 127.923 84.27 130.186 83.7684Z" fill="#37474F"/>
<path d="M206.054 26.1903L206.322 24.201C206.322 24.201 205.148 25.0674 203.284 24.144C201.42 23.2205 201.471 21.2597 199.442 21.1172L199.003 23.2775C199.552 23.2839 200.095 23.4054 200.594 23.6342C201.094 23.8629 201.54 24.1939 201.904 24.6057C202.742 25.6317 203.791 26.6976 206.054 26.1903Z" fill="#455A64"/>
<path d="M202.64 95.9716L202.914 93.9879C202.914 93.9879 201.74 94.8543 199.876 93.9309C198.012 93.0075 198.063 91.0466 196.034 90.8984L195.601 93.0531C196.15 93.0595 196.692 93.1809 197.192 93.4097C197.692 93.6385 198.138 93.9694 198.502 94.3812C199.334 95.4129 200.383 96.5017 202.64 95.9716Z" fill="#37474F"/>
<path d="M225.452 107.219L225.834 109.191C225.834 109.191 226.666 107.988 228.73 108.268C230.793 108.547 231.375 110.417 233.341 109.898L233.062 107.726C232.539 107.897 231.987 107.956 231.44 107.9C230.893 107.844 230.364 107.674 229.887 107.401C228.77 106.683 227.424 105.993 225.452 107.219Z" fill="#4CCB86"/>
<path d="M125.158 53.3868L128.367 52.4805C128.367 52.4805 129.889 56.4706 126.714 57.6106C126.714 57.6106 127.797 55.4787 125.158 53.3868Z" fill="#455A64"/>
<path d="M125.688 61.8396L122.935 60.0498C122.935 60.0498 123.339 57.4334 126.714 57.6101C126.714 57.6101 124.149 59.4855 125.688 61.8396Z" fill="#455A64"/>
<path d="M98.4924 77.4291L96.4005 76.2891C96.4005 76.2891 94.6904 78.8712 96.7482 80.1709C96.7254 80.1424 96.3036 78.4665 98.4924 77.4291Z" fill="#455A64"/>
<path d="M96.7826 83.2871L99.0056 82.4606C99.0056 82.4606 99.1367 80.551 96.7256 80.1406C96.7256 80.1406 98.2361 81.8678 96.7826 83.2871Z" fill="#455A64"/>
<path d="M199.066 121.081C199.028 120.818 199.069 120.548 199.184 120.308C199.299 120.067 199.483 119.866 199.713 119.73C199.942 119.595 200.207 119.53 200.473 119.545C200.739 119.56 200.995 119.654 201.208 119.814C201.421 119.975 201.581 120.195 201.668 120.447C201.756 120.699 201.766 120.971 201.699 121.229C201.631 121.487 201.488 121.719 201.289 121.896C201.089 122.073 200.841 122.186 200.577 122.221C200.225 122.27 199.869 122.178 199.586 121.964C199.303 121.75 199.116 121.433 199.066 121.081Z" fill="#37474F"/>
<path d="M208.123 45.3431C208.085 45.0792 208.126 44.8099 208.241 44.5694C208.356 44.3288 208.54 44.1279 208.77 43.9921C208.999 43.8563 209.264 43.7918 209.53 43.8068C209.796 43.8218 210.052 43.9155 210.265 44.0762C210.478 44.2368 210.638 44.4571 210.726 44.709C210.813 44.9609 210.823 45.2332 210.756 45.4911C210.688 45.7491 210.545 45.9811 210.346 46.1577C210.146 46.3343 209.898 46.4476 209.634 46.4832C209.283 46.5304 208.927 46.4371 208.644 46.2237C208.361 46.0102 208.174 45.6938 208.123 45.3431Z" fill="#37474F"/>
<path d="M87.1377 108.779L83.9343 109.685C83.9343 109.685 82.4066 105.695 85.5816 104.555C85.5702 104.538 84.5043 106.67 87.1377 108.779Z" fill="#37474F"/>
<path d="M86.6133 100.309L89.3665 102.104C89.3665 102.104 88.9618 104.715 85.5816 104.538C85.5702 104.538 88.1466 102.663 86.6133 100.309Z" fill="#37474F"/>
<path d="M228.838 83.9173L225.634 84.8293C225.634 84.8293 224.107 80.8392 227.282 79.6992C227.282 79.7106 226.204 81.8254 228.838 83.9173Z" fill="#455A64"/>
<path d="M228.313 75.4648L231.067 77.2547C231.067 77.2547 230.662 79.871 227.282 79.6943C227.282 79.7114 229.847 77.819 228.313 75.4648Z" fill="#455A64"/>
<path d="M125.665 128.259L127.78 129.399C127.78 129.399 129.49 126.817 127.432 125.512C127.432 125.523 127.86 127.199 125.665 128.259Z" fill="#37474F"/>
<path d="M127.375 122.379L125.152 123.205C125.152 123.205 125.027 125.109 127.432 125.52C127.432 125.52 125.922 123.793 127.375 122.379Z" fill="#37474F"/>
<path d="M236.624 28.0152L238.739 29.1552C238.739 29.1552 240.449 26.5731 238.391 25.2734C238.414 25.2848 238.841 26.9607 236.624 28.0152Z" fill="#4CCB86"/>
<path d="M238.363 22.1367L236.134 22.9632C236.134 22.9632 236.009 24.8728 238.414 25.2832C238.414 25.2832 236.903 23.5561 238.363 22.1367Z" fill="#4CCB86"/>
<path d="M31.4193 17.7085C31.4385 17.8405 31.418 17.9753 31.3604 18.0957C31.3028 18.2161 31.2107 18.3167 31.0958 18.3845C30.9809 18.4524 30.8483 18.4846 30.7151 18.4769C30.5819 18.4693 30.4539 18.4222 30.3475 18.3416C30.2411 18.261 30.1611 18.1505 30.1177 18.0243C30.0742 17.8981 30.0693 17.7619 30.1036 17.6329C30.1378 17.5039 30.2096 17.388 30.31 17.2999C30.4103 17.2119 30.5345 17.1557 30.6668 17.1384C30.842 17.1156 31.0191 17.1626 31.1598 17.2693C31.3006 17.3759 31.3938 17.5337 31.4193 17.7085Z" fill="#455A64"/>
<path d="M21.4154 64.3178C21.4346 64.4499 21.4141 64.5847 21.3565 64.7051C21.2989 64.8255 21.2068 64.926 21.0919 64.9939C20.977 65.0618 20.8444 65.094 20.7112 65.0863C20.5779 65.0787 20.45 65.0315 20.3436 64.9509C20.2372 64.8704 20.1572 64.7599 20.1138 64.6337C20.0703 64.5075 20.0654 64.3713 20.0997 64.2423C20.1339 64.1133 20.2057 63.9974 20.306 63.9093C20.4064 63.8213 20.5306 63.765 20.6629 63.7478C20.8381 63.725 21.0152 63.772 21.1559 63.8787C21.2967 63.9853 21.3899 64.1431 21.4154 64.3178Z" fill="#37474F"/>
<path d="M26.7737 87.4723C26.812 87.7362 26.771 88.0056 26.6559 88.2461C26.5408 88.4867 26.3568 88.6876 26.1273 88.8234C25.8978 88.9591 25.6331 89.0236 25.3669 89.0087C25.1007 88.9937 24.8449 88.8999 24.632 88.7393C24.4192 88.5787 24.2589 88.3584 24.1715 88.1065C24.0841 87.8545 24.0735 87.5823 24.1412 87.3244C24.2088 87.0664 24.3516 86.8344 24.5513 86.6578C24.7511 86.4811 24.9989 86.3678 25.2631 86.3323C25.6143 86.2851 25.97 86.3783 26.2528 86.5918C26.5356 86.8053 26.7228 87.1217 26.7737 87.4723Z" fill="#4CCB86"/>
<path d="M33.4202 59.7092L35.3241 59.0764C35.3241 59.0764 34.0244 58.4038 34.0244 56.3233C34.0244 54.2427 35.8086 53.4219 35.0391 51.5352L32.9186 52.1052C33.1559 52.6002 33.2871 53.1394 33.3038 53.6881C33.3205 54.2368 33.2223 54.783 33.0155 55.2915C32.4512 56.4943 31.9439 57.9136 33.4202 59.7092Z" fill="#4CCB86"/>
<path d="M34.1265 92.8201L32.2455 92.1133C32.2455 92.1133 32.8155 93.4528 31.5159 95.066C30.2162 96.6791 28.3067 96.206 27.7139 98.144L29.7203 99.039C29.8478 98.504 30.0861 98.0018 30.42 97.5649C30.7538 97.1279 31.1757 96.766 31.6584 96.5024C32.8497 95.9324 34.1379 95.1515 34.1265 92.8201Z" fill="#455A64"/>
<path d="M53.194 35.3973L53.4676 33.408C53.4676 33.408 52.2933 34.2744 50.4237 33.351C48.554 32.4276 48.6111 30.4667 46.5818 30.3242L46.1543 32.4732C46.7038 32.4799 47.2458 32.6015 47.7455 32.8303C48.2452 33.059 48.6915 33.3898 49.0557 33.8013C49.8822 34.8387 50.931 35.9218 53.194 35.3973Z" fill="#4CCB86"/>
<path d="M25.0574 47.972C25.0191 47.7081 25.0601 47.4388 25.1752 47.1983C25.2903 46.9577 25.4742 46.7568 25.7038 46.621C25.9333 46.4852 26.198 46.4207 26.4642 46.4357C26.7304 46.4507 26.9862 46.5444 27.1991 46.7051C27.4119 46.8657 27.5722 47.086 27.6596 47.3379C27.747 47.5899 27.7576 47.8621 27.6899 48.12C27.6223 48.378 27.4795 48.61 27.2798 48.7866C27.08 48.9632 26.8322 49.0765 26.5679 49.1121C26.2168 49.1593 25.8611 49.066 25.5783 48.8526C25.2955 48.6391 25.1083 48.3227 25.0574 47.972Z" fill="#455A64"/>
<path d="M65.2666 22.9879L67.3813 24.1279C67.3813 24.1279 69.0914 21.5457 67.0336 20.2461C67.0336 20.2575 67.4612 21.9333 65.2666 22.9879Z" fill="#37474F"/>
<path d="M66.9823 17.1094L64.7536 17.9359C64.7536 17.9359 64.6282 19.8454 67.0336 20.2558C67.0336 20.2558 65.5231 18.5287 66.9823 17.1094Z" fill="#37474F"/>
<path d="M238.904 61.8001L239.252 64.1771C239.252 64.1771 242.341 63.9947 242.148 61.5664C242.136 61.5664 241.053 62.9116 238.904 61.8001Z" fill="#4CCB86"/>
<path d="M244.604 59.6341L242.609 58.3516C242.609 58.3516 241.007 59.3947 242.124 61.5664C242.136 61.5664 242.609 59.3206 244.604 59.6341Z" fill="#4CCB86"/>
<path d="M127.815 209.31C129.075 209.715 164.923 209.31 166.285 208.455C166.798 208.124 167.049 202.903 167.175 196.576C167.175 195.213 167.22 193.806 167.232 192.369C167.311 183.072 167.186 173.211 167.186 173.211L143.2 173.393L143.907 192.574L144.055 196.781C144.055 196.781 130.375 203.051 129.007 204.191C127.638 205.331 126.561 208.899 127.815 209.31Z" fill="#FDC7A9"/>
<path d="M167.112 199.039C166.975 204.209 166.73 208.159 166.285 208.461C164.923 209.339 129.069 209.715 127.815 209.311C126.561 208.906 127.627 205.292 129.006 204.181C129.816 203.525 134.815 201.108 138.833 199.21C133.88 202.471 126.567 208.404 167.112 199.039Z" fill="#263238"/>
<path d="M173.832 70.591C173.832 70.591 166.838 129.456 166.684 130.249C166.684 130.357 168.674 184.508 168.674 184.508H142.521C142.521 184.508 141.809 138.126 142.783 128.818C144.02 116.939 151.812 70.5625 151.812 70.5625L173.832 70.591Z" fill="#263238"/>
<path d="M167.169 179.131C163.179 179.046 164.319 179.017 160.289 178.978C158.322 178.978 145.4 178.846 143.559 179.149C143.519 179.149 143.519 179.223 143.559 179.234C145.4 179.536 158.322 179.422 160.289 179.405C164.307 179.365 163.139 179.331 167.169 179.251C167.243 179.245 167.243 179.131 167.169 179.131Z" fill="#37474F"/>
<path d="M163.23 125.425C163.601 122.096 164.074 118.779 164.513 115.462C165.391 108.773 166.278 102.089 167.175 95.4084C168.195 87.8273 169.284 80.2632 170.361 72.6934C170.361 72.6022 170.515 72.6022 170.504 72.6934C169.694 79.45 168.875 86.2046 168.047 92.9574C167.22 99.6494 166.337 106.33 165.465 113.016C164.593 119.702 163.458 126.292 163.487 132.967C163.487 136.335 163.646 139.704 163.743 143.073C163.84 146.442 163.931 149.816 164.022 153.185C164.228 160.818 164.513 168.461 164.439 176.094C164.439 176.196 164.296 176.185 164.285 176.094C163.823 169.288 163.68 162.465 163.458 155.647C163.236 148.83 162.991 142.167 162.848 135.423C162.757 132.086 162.885 128.746 163.23 125.425Z" fill="#37474F"/>
<path d="M190.18 208.101C191.451 207.73 220.921 187.313 221.531 185.825C221.776 185.255 219.051 180.792 215.608 175.49C214.861 174.35 214.086 173.171 213.294 171.979C208.164 164.233 202.509 156.133 202.509 156.133L182.758 169.739L194.084 185.204L196.564 188.624C196.564 188.624 188.8 201.466 188.287 203.176C187.774 204.886 188.914 208.471 190.18 208.101Z" fill="#FDC7A9"/>
<path d="M221.553 185.823C220.921 187.311 191.451 207.735 190.203 208.105C188.954 208.476 187.797 204.879 188.304 203.175C188.606 202.177 191.4 197.355 193.668 193.53C191.286 198.968 188.156 208.214 217.329 178.105C219.912 182.198 221.758 185.356 221.553 185.823Z" fill="#263238"/>
<path d="M151.812 70.5898C151.812 70.5898 155.882 83.1301 160.488 89.4687C160.488 89.4687 161.691 135.879 163.566 141.209C166.673 150.044 186.811 180.488 186.811 180.488L208.956 165.189C208.956 165.189 189.827 136.922 188.618 133.713C187.815 131.587 185.472 94.7983 185.808 93.8749C189.884 82.714 183.75 70.5898 183.75 70.5898H151.812Z" fill="#263238"/>
<path d="M204.231 160.5C200.879 162.712 201.808 162.027 198.479 164.279C196.849 165.379 186.15 172.624 184.799 173.918C184.771 173.946 184.799 174.003 184.845 173.986C186.555 173.194 197.106 165.761 198.713 164.632C201.996 162.318 201.027 162.922 204.288 160.597C204.298 160.588 204.305 160.576 204.307 160.563C204.31 160.549 204.307 160.536 204.3 160.524C204.293 160.513 204.283 160.504 204.27 160.499C204.257 160.495 204.243 160.495 204.231 160.5Z" fill="#37474F"/>
<path d="M183.009 92.503C183.334 91.0551 183.705 89.613 183.921 88.1481C184.138 86.6612 184.201 85.1561 184.109 83.6563C183.874 80.6245 183.324 77.6253 182.468 74.7071C182.274 73.9718 182.063 73.2422 181.846 72.5183C181.807 72.3872 182.012 72.3359 182.052 72.467C183.021 75.3171 183.773 78.2362 184.303 81.1996C184.748 84.0662 184.673 86.9897 184.081 89.8296C183.477 92.7652 182.622 95.6266 182.736 98.6534C182.798 100.221 184.662 129.377 184.662 130.893C184.588 132.377 184.781 133.862 185.232 135.277C185.795 136.614 186.486 137.893 187.296 139.096C188.094 140.403 188.899 141.703 189.713 142.995C192.905 148.125 196.177 153.158 199.58 158.123L200.879 160.004C200.925 160.072 200.822 160.129 200.777 160.067C197.204 155.127 193.762 150.107 190.448 145.007C188.835 142.493 187.182 139.974 185.711 137.374C184.992 136.171 184.514 134.839 184.303 133.453C184.121 132.045 182.143 98.2772 182.263 96.7553C182.406 95.3213 182.655 93.8999 183.009 92.503Z" fill="#37474F"/>
<path d="M171.529 73.0594C172.099 75.3395 171.997 78.1439 173.604 80.0022C174.441 80.8696 175.537 81.44 176.728 81.6267C178.065 81.8828 179.43 81.9576 180.786 81.849C180.849 81.849 180.849 81.9345 180.786 81.9516C178.364 82.7211 174.995 82.5957 173.154 80.595C172.363 79.6471 171.877 78.4831 171.757 77.2547C171.55 75.8693 171.435 74.4715 171.415 73.0708C171.414 73.0557 171.418 73.0406 171.428 73.0288C171.438 73.0171 171.452 73.0096 171.467 73.0081C171.482 73.0066 171.497 73.0111 171.509 73.0208C171.52 73.0304 171.528 73.0443 171.529 73.0594Z" fill="#37474F"/>
<path d="M160.328 89.5283C160.328 89.4814 160.347 89.4365 160.38 89.4033C160.413 89.3702 160.458 89.3516 160.505 89.3516C160.552 89.3516 160.597 89.3702 160.63 89.4033C160.663 89.4365 160.682 89.4814 160.682 89.5283C160.778 90.5543 160.761 91.5917 160.79 92.6177C160.818 93.6438 160.841 94.5672 160.87 95.5419C160.919 97.5484 160.967 99.5529 161.012 101.556C161.103 105.565 161.229 109.572 161.388 113.577C161.548 117.582 161.738 121.586 161.958 125.587C162.061 127.588 162.186 129.577 162.3 131.584C162.362 133.513 162.552 135.437 162.87 137.341C163.657 141.264 165.128 145.019 167.214 148.433C167.265 148.513 167.14 148.57 167.083 148.502C164.936 145.638 163.395 142.366 162.557 138.886C161.651 135.141 161.554 131.259 161.337 127.434C160.881 119.351 160.585 111.263 160.379 103.163C160.322 100.883 160.277 98.6029 160.271 96.3228C160.271 95.217 160.271 94.1055 160.271 92.994C160.271 91.8824 160.243 90.6854 160.328 89.5283Z" fill="#37474F"/>
<path d="M156.252 87.5667C158.909 88.4891 161.483 89.6331 163.948 90.9868C163.967 90.9973 163.982 91.0148 163.988 91.0357C163.995 91.0566 163.994 91.0793 163.984 91.0991C163.974 91.1189 163.958 91.1343 163.937 91.142C163.917 91.1498 163.894 91.1493 163.874 91.1407C161.286 90.0805 158.641 89.0659 156.11 87.8688C156.07 87.85 156.039 87.8159 156.024 87.7742C156.009 87.7325 156.011 87.6866 156.03 87.6465C156.049 87.6065 156.083 87.5756 156.125 87.5606C156.166 87.5456 156.212 87.5478 156.252 87.5667Z" fill="#37474F"/>
<path d="M155.461 70.6293C155.461 70.5438 155.626 70.5267 155.626 70.6293C155.623 73.3882 155.768 76.1453 156.059 78.8888C156.179 80.1656 157.256 87.1996 159.571 86.6866C159.958 86.6011 160.141 86.2362 160.215 85.6833C160.208 84.9528 160.104 84.2264 159.907 83.523C159.65 82.0466 159.445 80.5703 159.337 79.0826C159.065 76.3134 159.096 73.5229 159.428 70.7604C159.428 70.7407 159.436 70.7219 159.45 70.708C159.464 70.6941 159.482 70.6863 159.502 70.6863C159.522 70.6863 159.541 70.6941 159.555 70.708C159.568 70.7219 159.576 70.7407 159.576 70.7604C159.496 74.6005 159.719 78.441 160.243 82.2462C160.534 84.0759 161.497 86.8348 159.491 87.1141C157.484 87.3934 156.128 82.7877 155.877 81.5222C155.246 77.9268 155.106 74.2624 155.461 70.6293Z" fill="#37474F"/>
<path d="M159.508 86.8654C159.713 87.3395 159.887 87.827 160.026 88.3246C160.177 88.7075 160.25 89.1161 160.243 89.5274C160.243 89.6015 160.129 89.6129 160.083 89.5559C159.845 89.2072 159.664 88.8222 159.548 88.4158C159.371 87.9655 159.183 87.5152 159.023 87.0592C158.915 86.7343 159.377 86.5519 159.508 86.8654Z" fill="#37474F"/>
<path d="M171.752 17.7617C172.686 18.1883 173.493 18.8512 174.093 19.6849C174.693 20.5185 175.065 21.4942 175.172 22.5156C175.26 23.8378 175.521 25.1429 175.947 26.3974C176.509 27.6431 177.257 28.7962 178.165 29.8175C179.521 31.5276 180.445 33.1863 180.684 35.4264C180.957 37.8051 180.73 40.2146 180.017 42.5003C180.609 40.0739 180.696 37.5517 180.274 35.0901C179.858 32.6163 178.455 31.0601 177.025 29.1791C175.881 27.7141 175.154 25.9672 174.921 24.1231C174.773 22.983 174.796 21.843 174.351 20.76C173.81 19.4946 172.732 18.6851 171.661 17.9726C171.648 17.9536 171.64 17.9317 171.638 17.909C171.636 17.8862 171.64 17.8633 171.649 17.8424C171.658 17.8214 171.672 17.803 171.69 17.7889C171.708 17.7748 171.729 17.7655 171.752 17.7617Z" fill="#263238"/>
<path d="M151.767 30.7855C153.129 29.0184 154.543 27.5079 155.341 25.3134C156.071 23.3069 156.481 21.1922 157.222 19.1914C157.222 19.1914 157.285 19.1914 157.273 19.1914C156.133 22.7426 155.911 26.328 153.614 29.3092C152.371 30.9337 151.123 32.4328 150.302 34.3823C149.466 36.4198 149.027 38.5983 149.008 40.8006C149.008 40.8804 148.906 40.8747 148.894 40.8006C148.569 37.2207 149.593 33.6484 151.767 30.7855Z" fill="#263238"/>
<path d="M170.161 16.8912C169.386 16.6005 168.645 12.2627 171.501 10.1935C174.357 8.12437 178.01 10.4899 176.477 14.0468C175.508 16.2927 171.809 17.5068 170.161 16.8912Z" fill="#263238"/>
<path d="M175.491 9.93359C176.336 10.6382 176.917 11.6089 177.138 12.6868C177.252 13.1883 177.231 13.7108 177.079 14.202C176.927 14.6931 176.649 15.1358 176.272 15.4855C175.464 16.1959 174.479 16.6745 173.422 16.8707C172.885 16.9861 172.34 17.0528 171.792 17.0702C171.238 17.1119 170.681 17.05 170.15 16.8878C170.651 17.1674 171.208 17.3329 171.78 17.3723C172.348 17.4393 172.922 17.4393 173.49 17.3723C174.671 17.2424 175.783 16.7483 176.671 15.9586C177.123 15.5425 177.448 15.0069 177.608 14.4137C177.769 13.8206 177.758 13.1942 177.577 12.607C177.429 12.0433 177.167 11.5157 176.808 11.0561C176.45 10.5966 176.002 10.2147 175.491 9.93359Z" fill="#263238"/>
<path d="M163.982 42.3356C155.637 51.5128 146.659 59.094 139.956 59.094C133.583 59.094 119.966 43.6182 118.968 41.5775C118.107 39.8219 129.285 30.1772 131.001 31.3857C133.885 33.3921 143.199 45.009 144.18 45.066C145.16 45.123 150.148 42.7859 158.892 38.6989C164.187 36.2137 169.768 35.98 163.982 42.3356Z" fill="#FDC7A9"/>
<path d="M120.251 43.1058C119.014 41.772 113.889 35.1599 112.875 32.9995C111.86 30.8392 109.386 24.4151 110.959 23.4689C112.533 22.5227 113.411 24.3467 113.411 24.3467C113.411 24.3467 112.795 21.4681 114.471 20.6644C116.147 19.8607 117.406 22.7393 117.406 22.7393C117.406 22.7393 116.99 19.7353 118.717 19.0513C120.444 18.3673 121.231 21.4738 121.231 21.4738C121.231 21.4738 120.724 18.7435 122.371 18.7777C124.366 18.8176 124.731 23.9534 126.031 26.2505C126.327 26.775 132.768 36.4139 132.768 36.4139L120.251 43.1058Z" fill="#FDC7A9"/>
<path d="M121.157 21.2051C121.437 24.9843 122.212 26.5861 124.429 29.5786C124.469 29.6413 124.395 29.7154 124.344 29.6584C121.904 26.9224 120.644 25.0527 120.975 21.2108C120.992 20.9999 121.146 21.0284 121.157 21.2051Z" fill="#263238"/>
<path d="M117.39 22.4351C118.022 26.3283 118.849 28.0783 120.935 31.3843C120.969 31.4299 120.889 31.4869 120.855 31.4413C118.535 28.369 117.321 26.4708 117.196 22.4978C117.196 22.3154 117.361 22.2584 117.39 22.4351Z" fill="#263238"/>
<path d="M113.502 24.5101C114.385 28.238 115.212 30.2102 117.646 33.1458C117.658 33.1594 117.664 33.1773 117.663 33.1954C117.662 33.2136 117.654 33.2306 117.64 33.2427C117.626 33.2548 117.609 33.261 117.59 33.2599C117.572 33.2589 117.555 33.2506 117.543 33.237C114.761 30.4725 113.718 28.0442 113.388 24.55C113.388 24.3106 113.468 24.2764 113.502 24.5101Z" fill="#263238"/>
<path d="M135.653 37.3116C135.653 37.3116 135.567 32.5691 135.083 30.4714C134.598 28.3738 129.89 21.3512 128.311 22.2746C126.27 23.4716 128.18 28.0774 129.405 30.2092C129.405 30.2092 124.686 32.9738 125.335 36.5763C125.985 40.1787 135.653 37.3116 135.653 37.3116Z" fill="#FDC7A9"/>
<path d="M127.843 22.8133C126.771 25.2473 128.567 27.9435 129.604 30.1038C129.621 30.135 129.63 30.1698 129.631 30.2053C129.631 30.2408 129.623 30.2759 129.607 30.3074C129.59 30.339 129.566 30.366 129.537 30.3862C129.508 30.4063 129.474 30.419 129.439 30.423C127.541 31.717 125.232 34.0882 125.204 36.5165C125.204 36.5316 125.198 36.5461 125.187 36.5568C125.176 36.5675 125.162 36.5735 125.147 36.5735C125.132 36.5735 125.117 36.5675 125.106 36.5568C125.096 36.5461 125.09 36.5316 125.09 36.5165C124.771 33.9058 126.845 31.3864 129.023 30.1038C127.923 27.9093 126.241 25.1276 127.82 22.7905C127.832 22.7848 127.854 22.7962 127.843 22.8133Z" fill="#263238"/>
<path d="M141.592 42.5908L154.167 53.5237C154.167 53.5237 163.629 45.6347 167.631 40.5103C169.876 37.6602 168.126 36.4233 164.843 36.7026C153.363 37.6887 141.592 42.5908 141.592 42.5908Z" fill="#5F27BD"/>
<path d="M163.235 42.7343C162.895 43.1654 162.615 43.641 162.403 44.148C163.238 43.432 163.907 42.5431 164.364 41.543C163.939 41.8912 163.56 42.2915 163.235 42.7343ZM148.575 44.3988C148.239 44.8322 147.961 45.3074 147.748 45.8124C148.175 45.4656 148.558 45.0673 148.888 44.6268C149.227 44.1916 149.509 43.7146 149.726 43.2074C149.294 43.5544 148.907 43.9547 148.575 44.3988ZM156.253 38.4934C155.709 38.5601 155.177 38.6961 154.668 38.8981C155.213 38.9563 155.763 38.9429 156.304 38.8582C156.849 38.7901 157.383 38.6542 157.894 38.4535C157.348 38.3952 156.796 38.4087 156.253 38.4934ZM156.401 47.6136C156.333 47.0704 156.197 46.538 155.996 46.029C155.935 46.5736 155.949 47.124 156.036 47.6649C156.104 48.2098 156.24 48.7441 156.441 49.2553C156.488 48.7114 156.467 48.1637 156.378 47.625L156.401 47.6136Z" fill="white"/>
<path d="M155.683 51.2405C153.887 49.3994 148.843 44.5429 145.2 41.8125C145.2 41.8125 145.109 41.8752 145.126 41.8923C147.839 44.6227 153.625 49.6787 155.575 51.3545C155.603 51.3887 155.683 51.2747 155.683 51.2405Z" fill="#263238"/>
<path d="M167.653 40.5117C163.663 45.6418 154.189 53.5251 154.189 53.5251L148.974 48.965L166.331 36.6641C168.588 36.8636 169.511 38.1005 167.653 40.5117Z" fill="#263238"/>
<path d="M183.75 70.5915C182.69 71.076 151.83 70.5915 151.83 70.5915L154.457 58.8151C154.457 58.8151 152.417 55.5717 152.639 52.0946C152.673 51.7172 152.748 51.3446 152.861 50.9831C152.907 50.8235 152.964 50.6582 153.021 50.4872C154.001 47.7397 156.658 43.8009 158.864 41.1047C159.578 40.1965 160.363 39.3464 161.212 38.5625C163.617 36.5047 166.074 36.2311 168.388 37.1203C169.443 37.5452 170.42 38.1423 171.278 38.8874C173.369 40.7529 175.083 43.0011 176.329 45.5109C177.994 49.0027 179.37 52.6249 180.444 56.3412C180.496 56.4837 180.535 56.6205 180.575 56.763C181.951 61.294 183.012 65.9145 183.75 70.5915Z" fill="#5F27BD"/>
<path d="M171.284 70.494L171.085 70.7676H171.535L171.575 70.7163C171.913 70.2823 172.194 69.8073 172.413 69.3026C171.991 69.6538 171.612 70.0537 171.284 70.494ZM180.575 56.768C180.238 57.202 179.956 57.677 179.737 58.1817C180.097 57.8908 180.422 57.56 180.706 57.1955C180.661 57.053 180.621 56.9105 180.575 56.768ZM163.236 42.7343C162.895 43.1654 162.615 43.641 162.403 44.1479C163.238 43.432 163.907 42.5431 164.364 41.543C163.94 41.8912 163.56 42.2915 163.236 42.7343ZM160.055 57.207C159.719 57.6384 159.442 58.1117 159.228 58.6149C160.071 57.909 160.742 57.02 161.189 56.0156C160.76 56.3608 160.379 56.7615 160.055 57.207ZM172.521 43.994C172.087 43.658 171.612 43.3783 171.107 43.1618C171.454 43.5916 171.854 43.9747 172.299 44.3018C172.732 44.6395 173.207 44.9192 173.712 45.1341C173.363 44.707 172.963 44.3242 172.521 43.994ZM155.153 64.2637C154.717 63.9279 154.243 63.6465 153.739 63.4258C154.079 63.8593 154.478 64.243 154.925 64.5658C155.357 64.901 155.83 65.1806 156.333 65.398C155.99 64.9706 155.593 64.5893 155.153 64.2637ZM170.053 60.4446C169.62 60.108 169.147 59.8266 168.645 59.6067C168.984 60.0392 169.381 60.4229 169.825 60.7467C170.259 61.0846 170.734 61.3661 171.239 61.5847C170.894 61.1548 170.496 60.7716 170.053 60.4446ZM152.913 55.0295C152.924 55.0911 152.94 55.152 152.958 55.2119C153.089 55.1663 153.22 55.1207 153.352 55.0637C153.206 55.0412 153.06 55.0298 152.913 55.0295ZM177.155 64.4917C176.61 64.5571 176.075 64.6931 175.565 64.8964C176.112 64.9547 176.663 64.9413 177.207 64.8565C177.751 64.7884 178.286 64.6525 178.797 64.4518C178.25 64.3909 177.698 64.4043 177.155 64.4917ZM166.188 51.1534C165.643 51.2181 165.108 51.3541 164.598 51.5581C165.695 51.6552 166.8 51.5032 167.83 51.1135C167.283 51.0495 166.731 51.063 166.188 51.1534ZM156.378 47.625C156.311 47.0818 156.175 46.5494 155.974 46.0404C155.913 46.585 155.926 47.1353 156.013 47.6763C156.082 48.2212 156.218 48.7555 156.418 49.2667C156.474 48.7199 156.46 48.1684 156.378 47.625ZM163.218 67.718C163.148 67.1729 163.011 66.6386 162.808 66.1277C162.753 66.6744 162.766 67.2259 162.848 67.7693C162.916 68.313 163.054 68.8456 163.258 69.3539C163.307 68.8163 163.292 68.2748 163.213 67.7408L163.218 67.718ZM182.781 70.5396C182.709 69.9924 182.57 69.4562 182.365 68.9435C182.311 69.4906 182.328 70.0425 182.416 70.5852V70.6878H182.781V70.5396ZM175.223 51.94C175.148 51.3934 175.008 50.8576 174.807 50.344C174.722 51.4435 174.877 52.5484 175.263 53.5817C175.31 53.0345 175.295 52.4837 175.217 51.94H175.223Z" fill="white"/>
<path d="M156.914 58.9219C158.151 58.8032 159.394 58.7556 160.636 58.7794C161.258 58.7794 161.879 58.8364 162.495 58.9048C162.791 58.9333 163.065 58.9732 163.378 59.0131C163.692 59.053 164.022 59.1442 164.347 59.1841C164.381 59.1841 164.381 59.2411 164.347 59.2354C164.045 59.2069 163.732 59.2354 163.424 59.2354L162.495 59.2012C161.873 59.2012 161.252 59.167 160.636 59.1385C159.394 59.0872 158.157 59.0473 156.92 59.0359C156.823 59.0245 156.852 58.9276 156.914 58.9219Z" fill="#263238"/>
<path d="M173.148 38.9264C180.872 42.5061 199.939 52.1735 199.454 58.3696C198.987 64.0697 194.261 68.6298 190.117 65.871C186.327 63.3458 172.595 48.8903 169.141 43.8285C166.661 40.1919 166.65 35.9111 173.148 38.9264Z" fill="#FDC7A9"/>
<path d="M181.618 61.1304L187.227 45.4379C187.227 45.4379 176.437 39.4927 170.207 37.6287C166.712 36.5856 166.216 38.6605 167.676 41.6188C172.783 51.9475 181.618 61.1304 181.618 61.1304Z" fill="#4668D6"/>
<path d="M181.618 61.1304L187.227 45.4379C187.227 45.4379 176.437 39.4927 170.207 37.6287C166.712 36.5856 166.216 38.6605 167.676 41.6188C172.783 51.9475 181.618 61.1304 181.618 61.1304Z" fill="#5F27BD"/>
<path d="M175.217 51.9384C175.142 51.3917 175.003 50.8559 174.801 50.3423C174.746 50.8894 174.764 51.4413 174.852 51.984C174.918 52.5251 175.052 53.0557 175.251 53.5629C175.302 53.0219 175.291 52.4768 175.217 51.9384ZM172.521 43.9924C172.087 43.6563 171.612 43.3767 171.107 43.1602C171.454 43.5899 171.854 43.9731 172.299 44.3002C172.732 44.6378 173.207 44.9176 173.712 45.1324C173.363 44.7054 172.963 44.3225 172.521 43.9924ZM180.575 56.7664C180.238 57.2003 179.956 57.6753 179.737 58.18C180.166 57.8325 180.549 57.4322 180.877 56.9887C181.216 56.556 181.495 56.0807 181.71 55.5751C181.287 55.9272 180.906 56.3269 180.575 56.7664ZM181.658 46.7854C181.319 47.2153 181.039 47.6889 180.826 48.1934C181.258 47.8491 181.641 47.4484 181.966 47.002C182.305 46.571 182.587 46.0977 182.804 45.5941C182.373 45.9413 181.988 46.3416 181.658 46.7854Z" fill="white"/>
<path d="M184.554 44.8644C183.488 47.2072 180.792 53.6426 179.583 58.0545C179.583 58.083 179.675 58.1229 179.686 58.0944C181.242 54.5775 183.841 47.3497 184.697 44.9214C184.714 44.8758 184.571 44.8188 184.554 44.8644Z" fill="#263238"/>
<path d="M181.619 61.13C180.547 60.1324 179.55 59.0608 178.575 57.9721C177.6 56.8834 176.671 55.7604 175.765 54.609C174.858 53.4576 173.998 52.2833 173.188 51.0692C172.365 49.8603 171.604 48.6103 170.908 47.3242C171.364 47.8942 171.775 48.4985 172.236 49.0685C172.698 49.6385 173.103 50.2085 173.547 50.8127C174.442 51.9527 175.32 53.0928 176.221 54.2328L181.619 61.13Z" fill="#263238"/>
<path d="M170.97 48.6953C171.325 48.8907 171.657 49.1238 171.962 49.3907C172.269 49.6528 172.558 49.9346 172.828 50.2343C172.627 50.1729 172.435 50.0827 172.258 49.9664C172.085 49.8617 171.921 49.7415 171.768 49.6073C171.457 49.3457 171.188 49.0382 170.97 48.6953Z" fill="#263238"/>
<path d="M189.564 64.8258C192.164 69.1579 197.989 64.9683 198.867 61.554C200.93 53.5339 199.95 41.3983 198.166 34.1306C197.596 31.7935 183.625 41.1076 183.499 43.6783C183.391 46.004 185.323 57.7463 189.564 64.8258Z" fill="#FDC7A9"/>
<path d="M199.164 39.4262C198.223 42.6582 185.375 44.3682 183.471 44.3682C183.129 44.3682 181.408 41.5466 181.191 37.4539C181.077 35.4988 186.441 26.0195 189.633 24.7768C192.825 23.5342 200.275 35.6014 199.164 39.4262Z" fill="#FDC7A9"/>
<path d="M196.023 0.370505C195.333 15.5785 195.122 20.1899 191.035 20.0018C186.948 19.8137 187.165 15.2023 187.855 0L196.023 0.370505Z" fill="#EBEBEB"/>
<path d="M191.758 17.0327L190.607 16.9805L189.757 35.6975L190.908 35.7498L191.758 17.0327Z" fill="#EBEBEB"/>
<path d="M196.638 37.5578L183.87 36.9764L190.339 35.3633L196.638 37.5578Z" fill="#EBEBEB"/>
<path d="M191.092 18.7476C192.665 18.816 193.942 17.7843 194.689 9.15431C194.245 9.63038 193.683 9.97879 193.059 10.1632C192.09 10.3228 190.579 8.9662 188.538 8.875C188.538 8.875 187.415 18.5766 191.092 18.7476Z" fill="#FFC727"/>
<path d="M181.157 37.8085C181.157 37.8085 180.775 34.035 181.767 32.268C183.742 29.0756 186.158 26.1779 188.943 23.6608C191.046 21.7626 192.016 25.0231 190.231 27.6509C187.381 31.8633 187.951 31.3788 187.951 31.3788C187.911 32.0343 191.018 36.3322 186.161 40.499C184.469 41.9753 181.157 37.8085 181.157 37.8085Z" fill="#FDC7A9"/>
<path d="M188.607 23.9632C188.849 23.6758 189.143 23.4361 189.473 23.2563C189.627 23.1656 189.802 23.1177 189.981 23.1177C190.159 23.1177 190.334 23.1656 190.488 23.2563C190.766 23.4811 190.952 23.7992 191.012 24.1513C191.089 24.5092 191.102 24.8775 191.052 25.24C190.948 25.9647 190.685 26.6576 190.283 27.2692C189.901 27.9191 189.513 28.5632 189.114 29.2016L187.917 31.1225L187.843 31.2365L187.803 31.2992C187.791 31.3363 187.791 31.3762 187.803 31.4132V31.4417V31.4759V31.5101L187.951 31.7495C188.048 31.9092 188.134 32.0688 188.214 32.2341C188.372 32.5657 188.5 32.911 188.596 33.2658C188.962 34.7206 188.952 36.2448 188.567 37.6948C189.107 36.2563 189.219 34.6927 188.892 33.1917C188.797 32.8157 188.667 32.4493 188.504 32.0973C188.424 31.9216 188.335 31.7504 188.236 31.5842L188.094 31.3391V31.379C188.105 31.4124 188.105 31.4483 188.094 31.4816L188.134 31.4246L188.214 31.3049C188.624 30.6722 189.029 30.0338 189.416 29.384C189.804 28.7342 190.192 28.0844 190.556 27.4288C190.756 27.0988 190.926 26.7516 191.064 26.3914C191.191 26.0225 191.273 25.6398 191.309 25.2514C191.34 24.8686 191.307 24.4835 191.212 24.1114C191.133 23.716 190.905 23.3666 190.574 23.1366C190.396 23.0424 190.196 22.9984 189.995 23.0095C189.794 23.0205 189.6 23.0862 189.434 23.1993C189.107 23.3931 188.826 23.6534 188.607 23.9632Z" fill="#263238"/>
<path d="M200.954 33.5411C201.119 30.9019 200.555 25.5096 198.463 22.2662C197.043 20.0773 188.904 16.224 188.157 17.6605C187.41 19.0969 188.157 21.0008 190.044 22.0439C190.722 22.4258 194.233 24.8084 194.29 25.9086C194.37 27.4932 192.917 31.6429 192.917 31.6429L200.954 33.5411Z" fill="#FDC7A9"/>
<path d="M199.659 34.2532C199.825 31.6141 199.26 26.2217 197.163 22.9841C195.749 20.7952 186.577 19.1479 185.831 20.59C185.084 22.0321 186.235 22.87 188.111 23.9189C188.789 24.3008 192.95 25.5206 193.007 26.6264C193.093 28.2054 191.639 32.3266 191.639 32.3266L199.659 34.2532Z" fill="#FDC7A9"/>
<path d="M199.454 30.0497C199.272 28.6065 198.973 27.1806 198.559 25.786C198.346 25.0866 198.075 24.406 197.75 23.7511C197.428 23.0872 196.963 22.5032 196.387 22.0411C195.798 21.5938 195.142 21.2418 194.444 20.9979C193.75 20.7548 193.04 20.5643 192.318 20.4279C191.599 20.2854 190.881 20.1771 190.157 20.0916L189.074 19.9662C188.709 19.932 188.356 19.8864 187.974 19.875C187.786 19.875 187.598 19.875 187.404 19.875C187.212 19.9031 187.021 19.9431 186.834 19.9947C186.455 20.0958 186.107 20.292 185.825 20.5647C185.675 20.7099 185.562 20.8896 185.496 21.0882C185.43 21.2869 185.414 21.4985 185.449 21.7047C185.484 21.905 185.554 22.0977 185.654 22.2748C185.762 22.4358 185.884 22.5865 186.019 22.7251C186.572 23.2248 187.203 23.6293 187.889 23.9221C188.544 24.2413 189.217 24.5263 189.901 24.7828C190.585 25.0393 191.28 25.2616 191.93 25.5466C192.252 25.6616 192.529 25.875 192.722 26.1566C192.845 26.4818 192.892 26.8308 192.859 27.1769C192.819 27.8966 192.708 28.6107 192.528 29.3087C192.363 30.0098 192.164 30.711 191.958 31.4007C192.223 30.7236 192.451 30.0329 192.642 29.3315C192.853 28.6309 192.992 27.911 193.059 27.1826C193.107 26.7971 193.06 26.4057 192.922 26.0426C192.716 25.7145 192.41 25.4609 192.05 25.3186C191.377 25.0051 190.693 24.7486 190.02 24.5035C189.348 24.2584 188.692 23.9335 188.048 23.62C187.399 23.3391 186.8 22.954 186.275 22.48C186.158 22.3594 186.053 22.2277 185.962 22.0867C185.882 21.9474 185.828 21.7948 185.802 21.6363C185.778 21.4835 185.791 21.327 185.842 21.1807C185.893 21.0345 185.979 20.9031 186.093 20.7984C186.333 20.565 186.633 20.4015 186.959 20.3253C187.124 20.2778 187.292 20.2416 187.461 20.217C187.632 20.217 187.809 20.217 187.98 20.217C188.322 20.217 188.687 20.2626 189.051 20.3025L190.129 20.4165C190.847 20.4963 191.559 20.5932 192.266 20.73C193.69 20.9366 195.051 21.45 196.256 22.2349C196.818 22.6688 197.274 23.2242 197.59 23.8594C197.925 24.4967 198.207 25.1601 198.434 25.843C198.876 27.2184 199.217 28.6244 199.454 30.0497Z" fill="#263238"/>
<path d="M198.274 38.3783C199.414 35.99 200.867 30.7686 200.115 26.978C199.602 24.4187 191.65 21.6028 190.425 22.663C189.199 23.7233 190.185 25.5131 192.066 27.0293C192.676 27.5138 195.487 28.671 195.105 29.7198C194.597 31.2189 193.315 34.9126 193.315 34.9126L198.274 38.3783Z" fill="#FDC7A9"/>
<path d="M199.876 33.3103C200.166 32.04 200.345 30.7469 200.412 29.4456C200.443 28.7888 200.414 28.1306 200.326 27.479L200.229 26.9888C200.178 26.8292 200.138 26.6639 200.075 26.51C200.008 26.3517 199.928 26.1992 199.836 26.054C199.743 25.9124 199.638 25.7789 199.522 25.655C198.566 24.7388 197.436 24.0236 196.199 23.5516C194.994 23.022 193.734 22.6245 192.443 22.366C192.275 22.3379 192.106 22.3189 191.936 22.309C191.764 22.3062 191.592 22.3176 191.423 22.3432C191.076 22.3889 190.742 22.5053 190.442 22.6852C190.126 22.8644 189.877 23.1429 189.735 23.4775C189.607 23.8196 189.597 24.195 189.707 24.5435C189.959 25.1791 190.374 25.7373 190.91 26.1623C191.4 26.5955 191.913 27.0059 192.437 27.3878C192.962 27.7697 193.514 28.1402 194.062 28.488C194.337 28.6492 194.593 28.8404 194.826 29.058C194.875 29.1022 194.91 29.1595 194.928 29.2233C194.935 29.2953 194.935 29.3678 194.928 29.4399C194.927 29.5967 194.912 29.7532 194.883 29.9073C194.612 31.1771 194.231 32.4207 193.742 33.6238C194.01 33.0538 194.256 32.4267 194.484 31.8168C194.719 31.2064 194.91 30.5797 195.054 29.9415C195.087 29.7762 195.106 29.6084 195.111 29.4399C195.122 29.3509 195.122 29.2609 195.111 29.172C195.088 29.0766 195.038 28.9896 194.968 28.9212C194.727 28.6901 194.464 28.4839 194.181 28.3056C193.64 27.9464 193.11 27.5816 192.597 27.1655C192.084 26.7494 191.594 26.3504 191.103 25.9229C190.622 25.5302 190.248 25.0224 190.015 24.4466C189.92 24.1705 189.928 23.8695 190.038 23.5991C190.148 23.3288 190.353 23.1075 190.613 22.9759C190.874 22.8187 191.166 22.7196 191.468 22.6852C191.77 22.6342 192.078 22.6342 192.38 22.6852C193.645 22.932 194.879 23.3142 196.062 23.8252C197.263 24.2799 198.367 24.9568 199.317 25.8203C199.425 25.9319 199.525 26.052 199.614 26.1794C199.699 26.3091 199.775 26.4443 199.842 26.5841C199.899 26.7266 199.944 26.8805 199.996 27.0287L200.098 27.4904C200.202 28.1271 200.246 28.7722 200.229 29.4171C200.212 30.722 200.094 32.0236 199.876 33.3103Z" fill="#263238"/>
<path d="M198.782 40.159C199.112 39.0189 201.244 35.1599 201.706 33.6437C202.778 30.1324 194.98 23.6913 193.025 26.376C191.685 28.2172 196.507 31.6886 196.245 32.3042C195.816 33.3622 195.213 34.341 194.461 35.1999L198.782 40.159Z" fill="#FDC7A9"/>
<path d="M194.905 34.6786C195.156 34.3594 195.395 34.0288 195.623 33.6925C195.861 33.3588 196.071 33.0061 196.25 32.6379C196.298 32.5356 196.327 32.4256 196.336 32.313C196.326 32.1933 196.287 32.0778 196.222 31.9767C196.111 31.8017 195.99 31.6341 195.857 31.4751C195.595 31.1559 195.321 30.8538 195.053 30.5517C194.511 29.9621 194.01 29.3354 193.554 28.6763C193.331 28.3571 193.164 28.0025 193.058 27.6275C192.954 27.2773 192.978 26.9011 193.127 26.5673C193.206 26.4094 193.321 26.2721 193.462 26.1663C193.604 26.0604 193.768 25.9889 193.942 25.9574C194.32 25.8864 194.71 25.902 195.082 26.003C195.848 26.2077 196.58 26.5246 197.254 26.9435C197.943 27.3579 198.586 27.8431 199.175 28.3913C199.781 28.9251 200.32 29.5299 200.782 30.1926C199.936 28.7885 198.78 27.5971 197.402 26.7098C196.716 26.2451 195.957 25.8983 195.156 25.6838C194.74 25.5688 194.304 25.5473 193.879 25.6211C193.653 25.6613 193.439 25.7533 193.254 25.8897C193.069 26.0261 192.918 26.2034 192.813 26.4077C192.629 26.8186 192.6 27.2827 192.733 27.713C192.859 28.122 193.051 28.5073 193.303 28.853C193.771 29.527 194.298 30.1584 194.877 30.7398C195.156 31.0305 195.447 31.3098 195.703 31.6176C195.838 31.7618 195.962 31.9162 196.074 32.0793C196.12 32.1487 196.153 32.226 196.171 32.3073C196.162 32.3972 196.141 32.4855 196.108 32.5695C195.768 33.3055 195.365 34.0111 194.905 34.6786Z" fill="#263238"/>
<path d="M181.168 37.4766C181.173 38.0954 181.227 38.7129 181.328 39.3234C181.416 39.9371 181.543 40.5445 181.71 41.1417C182.024 42.359 182.582 43.4994 183.352 44.4934L183.317 44.4136C183.511 45.9641 183.745 47.5088 184.007 49.0478C184.269 50.5869 184.577 52.1145 184.936 53.6422C185.295 55.1698 185.7 56.6746 186.185 58.1567C186.43 58.9034 186.698 59.6387 187.005 60.3569C187.304 61.0796 187.657 61.7789 188.06 62.4489C187.373 61.0511 186.816 59.5934 186.395 58.094C185.957 56.6005 185.597 55.0843 185.255 53.568C184.913 52.0518 184.64 50.5185 184.361 49.0079C184.081 47.4974 183.83 45.9356 183.625 44.3965V44.3509L183.597 44.3167C182.812 43.3761 182.23 42.2836 181.887 41.1075C181.697 40.5242 181.541 39.9304 181.419 39.3291C181.295 38.7178 181.211 38.0989 181.168 37.4766Z" fill="#263238"/>
<path d="M167.995 38.7201C167.795 39.2901 164.654 42.619 162.089 42.1858C161.251 42.0433 161.821 37.4433 161.821 37.4433L161.782 37.0956L161.286 32.2048L167.311 29.2864L168.177 28.9102C168.177 28.9102 168.223 30.2554 168.263 31.9312C168.263 32.011 168.263 32.0908 168.263 32.1706C168.263 32.2504 168.263 32.353 168.263 32.4442C168.263 32.695 168.263 32.9515 168.263 33.2081C168.263 33.4646 168.263 33.59 168.263 33.7781C168.263 33.9662 168.263 34.1828 168.263 34.388C168.27 35.8364 168.18 37.2836 167.995 38.7201Z" fill="#FDC7A9"/>
<path d="M168.263 31.9312C167.622 33.2107 166.71 34.3354 165.591 35.2272C164.472 36.119 163.172 36.7566 161.782 37.0956L161.286 32.2048L167.311 29.2864L168.177 28.9102C168.177 28.9102 168.223 30.2554 168.263 31.9312Z" fill="#263238"/>
<path d="M155.421 23.3426C153.004 31.6192 157.701 34.0019 159.473 34.5263C161.092 34.9937 166.673 36.3959 169.933 28.4157C173.194 20.4355 170.11 16.6905 166.462 15.4137C162.814 14.1369 157.843 15.066 155.421 23.3426Z" fill="#FDC7A9"/>
<path d="M156.919 23.0002C157.109 23.0108 157.299 23.0108 157.489 23.0002C157.7 23.0318 157.914 22.9917 158.099 22.8862C158.15 22.842 158.185 22.7827 158.199 22.717C158.214 22.6513 158.207 22.5827 158.179 22.5214C158.104 22.4088 157.999 22.3186 157.877 22.2604C157.754 22.2022 157.619 22.1781 157.484 22.1908C157.207 22.1726 156.934 22.2557 156.714 22.4245C156.662 22.467 156.625 22.5243 156.607 22.5887C156.59 22.6531 156.592 22.7214 156.615 22.7844C156.637 22.8473 156.678 22.9018 156.733 22.9404C156.787 22.9791 156.852 22.9999 156.919 23.0002Z" fill="#263238"/>
<path d="M162.591 24.0213C162.406 23.9502 162.225 23.8684 162.05 23.7762C161.847 23.7166 161.668 23.5926 161.542 23.4228C161.515 23.3615 161.508 23.2929 161.522 23.2272C161.536 23.1616 161.571 23.1022 161.622 23.058C161.739 22.9893 161.871 22.9531 162.007 22.9531C162.142 22.9531 162.275 22.9893 162.392 23.058C162.652 23.1569 162.866 23.3475 162.996 23.5938C163.016 23.6512 163.02 23.7131 163.007 23.7727C162.995 23.8322 162.966 23.8872 162.924 23.9314C162.882 23.9756 162.829 24.0074 162.77 24.0233C162.711 24.0391 162.649 24.0385 162.591 24.0213Z" fill="#263238"/>
<path d="M161.001 25.3711C161.001 25.3711 161.035 25.411 161.03 25.4338C160.876 26.0038 160.79 26.6707 161.263 26.9899C161.263 26.9899 161.263 27.0241 161.263 27.0184C160.642 26.779 160.762 25.8841 161.001 25.3711Z" fill="#263238"/>
<path d="M161.651 24.8967C162.586 25.0506 162.221 26.9089 161.349 26.7664C160.477 26.6239 160.87 24.7713 161.651 24.8967Z" fill="#263238"/>
<path d="M161.998 25.0707C162.141 25.2075 162.261 25.4298 162.454 25.4868C162.648 25.5438 162.882 25.3956 163.07 25.236C163.07 25.236 163.104 25.236 163.099 25.236C163.03 25.5951 162.819 25.9314 162.426 25.9086C162.033 25.8858 161.884 25.521 161.856 25.1448C161.862 25.1049 161.953 24.9909 161.998 25.0707Z" fill="#263238"/>
<path d="M157.855 24.4531C157.855 24.4531 157.809 24.4531 157.803 24.493C157.706 25.063 157.507 25.7243 156.948 25.8155V25.8497C157.598 25.8839 157.86 25.0174 157.855 24.4531Z" fill="#263238"/>
<path d="M157.456 23.7538C156.544 23.503 156.11 25.3499 156.96 25.5779C157.809 25.8059 158.225 23.9647 157.456 23.7538Z" fill="#263238"/>
<path d="M157.045 23.7805C156.874 23.8489 156.692 23.9914 156.515 23.9629C156.338 23.9344 156.207 23.695 156.122 23.4727C156.122 23.4727 156.122 23.4727 156.088 23.4727C155.996 23.8261 156.025 24.2194 156.35 24.3676C156.675 24.5158 156.92 24.2479 157.108 23.9173C157.142 23.8489 157.114 23.7577 157.045 23.7805Z" fill="#263238"/>
<path d="M160.037 30.2377C159.878 30.3517 159.712 30.517 159.496 30.4999C159.281 30.4638 159.077 30.3821 158.897 30.2605C158.897 30.2605 158.857 30.2605 158.869 30.2605C158.934 30.3869 159.031 30.4933 159.152 30.5686C159.272 30.6439 159.411 30.6851 159.553 30.688C159.676 30.6771 159.793 30.6293 159.888 30.5511C159.984 30.4728 160.054 30.3676 160.089 30.2491C160.106 30.2377 160.06 30.2206 160.037 30.2377Z" fill="#263238"/>
<path d="M158.083 27.6506C158.083 27.6506 157.781 28.4828 157.695 28.8818C157.695 28.9217 157.781 28.9616 157.917 29.0015C158.251 29.14 158.617 29.1835 158.974 29.1272C159.331 29.0708 159.666 28.9169 159.941 28.6823C159.946 28.6745 159.949 28.6653 159.948 28.656C159.948 28.6467 159.945 28.6377 159.939 28.6303C159.934 28.6228 159.926 28.6173 159.917 28.6143C159.908 28.6114 159.899 28.6113 159.89 28.6139C159.3 28.8558 158.649 28.9017 158.031 28.745C158.031 28.6253 158.601 27.3371 158.533 27.3143C158.213 27.2746 157.89 27.2746 157.57 27.3143C158.14 25.5643 159 23.8942 159.548 22.1842C159.548 22.1214 159.479 22.0815 159.451 22.1328C158.48 23.8694 157.686 25.6988 157.08 27.5936C157.005 27.8387 157.906 27.6848 158.083 27.6506Z" fill="#263238"/>
<path d="M157.963 28.8593C158.118 29.2368 158.367 29.5684 158.687 29.8227C158.865 29.9561 159.08 30.0317 159.302 30.0393C159.787 30.0393 159.918 29.6289 159.929 29.2527C159.938 29.0499 159.921 28.8469 159.878 28.6484C159.279 28.9223 158.607 28.9962 157.963 28.8593Z" fill="#263238"/>
<path d="M158.709 29.8243C158.888 29.9578 159.103 30.0334 159.325 30.0409C159.81 30.0409 159.941 29.6305 159.952 29.2543C159.711 29.1952 159.457 29.2194 159.231 29.3228C159.006 29.4263 158.822 29.603 158.709 29.8243Z" fill="#FF9BBC"/>
<path d="M169.837 28.8728C169.324 28.5296 168.909 28.0593 168.632 27.5078C168.355 26.9563 168.226 26.3425 168.258 25.7263C166.849 24.8658 165.694 23.6461 164.912 22.1922C164.946 22.3746 165.185 23.7084 165.334 24.3811C160.032 22.6197 158.921 18.2306 158.921 18.2306C157.748 19.0443 156.774 20.112 156.071 21.3543C156.071 21.3543 156.487 18.014 158.505 16.0133C159.168 15.3133 160.005 14.8024 160.93 14.5329C161.856 14.2635 162.837 14.2452 163.772 14.4799C165.159 14.3385 166.559 14.5735 167.823 15.1603C169.088 15.7471 170.172 16.664 170.96 17.8145C173.975 22.1409 169.837 28.8728 169.837 28.8728Z" fill="#263238"/>
<path d="M161.321 22.913C162.131 23.5081 163.024 23.9824 163.971 24.321C162.499 23.6965 161.231 22.6716 160.312 21.3626C159.92 20.8044 159.6 20.1993 159.36 19.5613C159.073 18.8731 158.924 18.1352 158.921 17.3896C158.923 17.3827 158.924 17.3753 158.923 17.368C158.922 17.3607 158.92 17.3537 158.915 17.3477C158.911 17.3416 158.906 17.3367 158.899 17.3333C158.893 17.3299 158.885 17.3281 158.878 17.3281C158.871 17.3281 158.863 17.3299 158.857 17.3333C158.85 17.3367 158.845 17.3416 158.841 17.3477C158.836 17.3537 158.834 17.3607 158.833 17.368C158.832 17.3753 158.833 17.3827 158.835 17.3896C158.757 18.1258 158.805 18.8699 158.978 19.5898C159.174 20.2984 159.499 20.965 159.935 21.5564C160.329 22.0763 160.793 22.5387 161.315 22.9301" fill="#263238"/>
<path d="M168.434 28.6648C168.434 28.6648 170.805 26.3847 171.854 27.2911C172.903 28.1974 170.766 31.7372 169.255 31.9766C169.064 32.0216 168.866 32.0276 168.673 31.9942C168.48 31.9608 168.296 31.8887 168.131 31.7822C167.967 31.6757 167.825 31.537 167.716 31.3745C167.606 31.212 167.531 31.029 167.494 30.8366L168.434 28.6648Z" fill="#FDC7A9"/>
<path d="M171.227 28.2942C171.227 28.2942 171.227 28.3284 171.227 28.3341C170.161 28.5336 169.46 29.3431 168.907 30.2209C168.983 30.132 169.077 30.0606 169.182 30.0116C169.288 29.9626 169.403 29.9373 169.52 29.9373C169.637 29.9373 169.752 29.9626 169.858 30.0116C169.963 30.0606 170.057 30.132 170.133 30.2209C170.133 30.2209 170.133 30.2836 170.093 30.2722C169.932 30.1813 169.746 30.1429 169.563 30.1623C169.379 30.1817 169.205 30.258 169.067 30.3805C168.836 30.5881 168.628 30.8193 168.445 31.0702C168.383 31.15 168.229 31.0702 168.286 30.979C168.525 29.7136 169.853 28.1517 171.227 28.2942Z" fill="#263238"/>
<path d="M97.746 207.654C96.5091 208.024 61.5786 206.85 60.279 205.944C59.7774 205.613 59.652 200.511 59.709 194.344V194.156C59.709 192.885 59.709 191.574 59.7489 190.251C59.7489 190.063 59.7489 189.881 59.7489 189.681C59.8857 180.783 60.2163 171.555 60.2163 171.555L83.2848 172.125L82.5095 190.211L82.4696 190.924L82.2473 194.64V195.022C82.2473 195.022 95.4146 201.452 96.7428 202.581C98.0709 203.709 98.9772 207.289 97.746 207.654Z" fill="#FDC7A9"/>
<path d="M87.9815 197.527C87.896 197.499 87.8561 197.476 87.8447 197.453L87.9815 197.527Z" fill="#4668D6"/>
<path d="M98.4242 207.901C97.6091 208.14 82.4638 207.724 71.491 207.149C68.9488 207.012 66.6231 206.869 64.7421 206.732C62.1599 206.527 60.4271 206.333 60.1477 206.162C59.6746 205.832 59.3782 191.559 59.5777 189.883L82.612 190.647L82.5721 195.041C82.5721 195.041 96.0244 201.619 97.3924 202.771C98.7605 203.922 99.6782 207.519 98.4242 207.901Z" fill="#4668D6"/>
<path d="M97.6324 206.445C91.6529 206.092 67.5186 205.237 61.5847 205.345C61.5391 205.345 61.5334 205.38 61.5847 205.38C67.5015 205.858 91.6415 206.52 97.6267 206.52C97.7521 206.542 97.7578 206.451 97.6324 206.445Z" fill="#263238"/>
<path d="M83.1141 193.713C80.7713 193.195 77.8814 193.457 76.0288 195.07C75.9547 195.133 76.0288 195.235 76.12 195.212C78.3949 194.567 80.7316 194.164 83.0913 194.01C83.1306 194.013 83.1695 194 83.1994 193.974C83.2294 193.949 83.2479 193.912 83.2509 193.873C83.2539 193.834 83.2412 193.795 83.2155 193.765C83.1899 193.735 83.1534 193.716 83.1141 193.713Z" fill="#263238"/>
<path d="M84.7782 194.795C82.4354 194.277 79.5454 194.539 77.6929 196.152C77.6188 196.215 77.6929 196.317 77.7841 196.294C80.0583 195.646 82.3954 195.243 84.7554 195.092C84.7947 195.095 84.8336 195.082 84.8635 195.056C84.8934 195.031 84.9119 194.994 84.915 194.955C84.918 194.916 84.9053 194.877 84.8796 194.847C84.854 194.817 84.8175 194.798 84.7782 194.795Z" fill="#263238"/>
<path d="M86.4367 195.877C84.0996 195.359 81.2096 195.621 79.3514 197.234C79.283 197.297 79.3514 197.399 79.4483 197.376C81.7225 196.728 84.0596 196.325 86.4196 196.174C86.4589 196.176 86.4975 196.163 86.5269 196.136C86.5563 196.11 86.574 196.073 86.5763 196.034C86.5786 195.995 86.5651 195.956 86.5389 195.927C86.5128 195.897 86.476 195.88 86.4367 195.877Z" fill="#263238"/>
<path d="M88.1017 196.962C85.7646 196.437 82.8747 196.705 81.0164 198.318C80.948 198.381 81.0164 198.484 81.1133 198.461C83.387 197.81 85.7243 197.407 88.0846 197.258C88.1239 197.261 88.1625 197.247 88.1919 197.221C88.2213 197.195 88.2391 197.158 88.2414 197.119C88.2436 197.079 88.2302 197.041 88.204 197.011C88.1778 196.982 88.141 196.964 88.1017 196.962Z" fill="#263238"/>
<path d="M87.6455 188.417C86.762 187.112 85.0235 187.631 84.0089 188.417C82.298 189.809 80.9846 191.628 80.2012 193.69C80.2012 193.736 80.2012 193.764 80.2525 193.775C80.2525 193.952 80.4121 194.146 80.6116 194.083C82.5838 193.428 84.767 192.972 86.477 191.735C87.4745 191.011 88.4778 189.654 87.6455 188.417ZM83.3932 192.481C82.4356 192.823 81.4666 193.12 80.5147 193.502C81.2226 192.455 81.9836 191.444 82.7947 190.475C83.1935 190.011 83.624 189.575 84.083 189.17C84.8069 188.554 87.6284 187.294 87.1211 189.865C86.8646 191.279 84.539 192.071 83.3932 192.481Z" fill="#263238"/>
<path d="M74.239 192.867C76.1543 193.756 78.383 193.796 80.4408 194.064C80.6517 194.093 80.7657 193.87 80.7372 193.694C80.746 193.691 80.7541 193.686 80.7608 193.679C80.7675 193.673 80.7727 193.665 80.776 193.656C80.7793 193.647 80.7806 193.638 80.7798 193.629C80.779 193.619 80.7761 193.61 80.7714 193.602C79.612 191.726 77.9781 190.188 76.0346 189.145C74.8945 188.575 73.0876 188.381 72.4663 189.829C71.845 191.277 73.1275 192.343 74.239 192.867ZM73.2358 191.157C72.2611 188.729 75.265 189.447 76.0859 189.903C76.6148 190.213 77.1214 190.56 77.6021 190.94C78.6167 191.716 79.5002 192.616 80.4522 193.483C79.4489 193.289 78.44 193.181 77.4311 193.021C76.2056 192.827 73.7773 192.491 73.2358 191.151V191.157Z" fill="#263238"/>
<path d="M47.4077 69.9062C47.4077 69.9062 59.5661 130.955 60.4211 135.458C60.5636 136.182 59.8511 183.618 59.8511 183.618L82.7201 184.736C82.7201 184.736 84.4301 141.266 83.5922 134.398C82.5035 125.391 68.7376 69.9062 68.7376 69.9062H47.4077Z" fill="#FDC7A9"/>
<path d="M66.1897 69.9062L58.6028 126.207C54.9889 107.966 47.4077 69.9062 47.4077 69.9062H66.1897Z" fill="#263238"/>
<path d="M57.1556 209.169C55.9073 209.477 21.0794 206.547 19.8254 205.595C19.3409 205.242 19.472 200.14 19.8254 193.984C19.8254 193.916 19.8254 193.853 19.8254 193.79C19.8938 192.519 19.9679 191.214 20.0591 189.891L20.0933 189.321L24.4197 171.246L47.7276 173.133L42.8197 191.02L42.7399 191.727L42.3067 195.42L42.2668 195.802C42.2668 195.802 55.0978 202.888 56.369 204.079C57.6401 205.27 58.4096 208.867 57.1556 209.169Z" fill="#FDC7A9"/>
<path d="M47.9096 198.564C47.8298 198.53 47.7899 198.507 47.7842 198.484L47.9096 198.564Z" fill="#4668D6"/>
<path d="M57.8222 209.446C56.9957 209.646 41.9188 208.472 30.9631 207.343C28.4266 207.081 26.1123 206.824 24.2427 206.59C21.6719 206.26 19.9505 205.975 19.6826 205.775C19.2266 205.422 19.6484 191.149 19.9106 189.484L42.8764 191.434L42.6142 195.817C42.6142 195.817 55.7245 203.062 57.0128 204.282C58.301 205.502 59.0933 209.133 57.8222 209.446Z" fill="#4668D6"/>
<path d="M57.1037 207.962C51.1527 207.312 27.0867 205.248 21.1586 205.055C21.1073 205.055 21.1073 205.089 21.1586 205.095C27.0411 205.87 51.1242 207.739 57.098 208.064C57.2234 208.059 57.2291 207.962 57.1037 207.962Z" fill="#263238"/>
<path d="M43.2411 194.51C40.9325 193.871 38.0312 193.991 36.0988 195.507C36.019 195.57 36.0988 195.672 36.1843 195.655C38.4876 195.119 40.8422 194.834 43.2069 194.806C43.2408 194.801 43.2723 194.786 43.2963 194.761C43.3202 194.737 43.3354 194.705 43.3393 194.671C43.3433 194.637 43.3357 194.603 43.3179 194.573C43.3001 194.544 43.2731 194.522 43.2411 194.51Z" fill="#263238"/>
<path d="M44.849 195.673C42.5404 195.035 39.639 195.155 37.7067 196.677C37.6326 196.734 37.7067 196.836 37.7922 196.819C40.0972 196.296 42.4513 196.019 44.8148 195.993C44.8357 195.995 44.8569 195.993 44.8771 195.987C44.8974 195.981 44.9162 195.971 44.9326 195.958C44.949 195.945 44.9627 195.928 44.9728 195.91C44.9829 195.891 44.9892 195.871 44.9915 195.85C44.9937 195.829 44.9918 195.808 44.9859 195.788C44.9799 195.767 44.97 195.749 44.9568 195.732C44.9436 195.716 44.9272 195.702 44.9087 195.692C44.8902 195.682 44.8699 195.676 44.849 195.673Z" fill="#263238"/>
<path d="M46.4559 196.835C44.1759 196.202 41.246 196.316 39.3137 197.838C39.2339 197.895 39.3137 198.003 39.3992 197.986C41.7027 197.451 44.057 197.164 46.4217 197.131C46.4557 197.127 46.4871 197.111 46.5111 197.087C46.5351 197.062 46.5502 197.03 46.5542 196.996C46.5581 196.962 46.5506 196.928 46.5328 196.899C46.515 196.87 46.488 196.847 46.4559 196.835Z" fill="#263238"/>
<path d="M48.0639 197.999C45.7838 197.366 42.8539 197.48 40.9216 199.002C40.8418 199.059 40.9216 199.167 41.0071 199.15C43.3106 198.615 45.665 198.328 48.0297 198.295C48.0636 198.291 48.095 198.275 48.119 198.251C48.143 198.226 48.1582 198.194 48.1621 198.16C48.166 198.126 48.1585 198.092 48.1407 198.063C48.1229 198.034 48.0959 198.011 48.0639 197.999Z" fill="#263238"/>
<path d="M48.0354 189.45C47.2202 188.105 45.4532 188.527 44.4044 189.268C42.6267 190.573 41.2232 192.323 40.3345 194.341C40.3345 194.387 40.3345 194.415 40.3858 194.427C40.3796 194.472 40.3843 194.519 40.3995 194.562C40.4148 194.606 40.4402 194.645 40.4736 194.677C40.507 194.708 40.5475 194.732 40.5917 194.745C40.6359 194.758 40.6825 194.76 40.7278 194.751C42.7285 194.181 44.9345 193.857 46.7015 192.705C47.7332 192.032 48.8049 190.727 48.0354 189.45ZM43.5893 193.292C42.6088 193.589 41.6227 193.834 40.6594 194.17C41.4226 193.158 42.2368 192.186 43.099 191.257C43.5256 190.816 43.9807 190.402 44.4614 190.02C45.2081 189.45 48.0867 188.31 47.4596 190.864C47.1119 192.266 44.7521 192.939 43.5893 193.292Z" fill="#263238"/>
<path d="M34.4229 193.216C36.2869 194.208 38.5156 194.356 40.5563 194.727C40.7672 194.767 40.8926 194.55 40.8698 194.374C40.8791 194.371 40.8878 194.367 40.8952 194.361C40.9025 194.354 40.9084 194.347 40.9122 194.338C40.9161 194.329 40.9179 194.319 40.9174 194.31C40.917 194.3 40.9143 194.291 40.9097 194.282C39.8446 192.352 38.2919 190.734 36.4066 189.591C35.295 188.947 33.4938 188.685 32.8041 190.098C32.1143 191.512 33.3342 192.641 34.4229 193.216ZM33.5052 191.432C32.6502 188.958 35.6199 189.819 36.418 190.326C36.9305 190.664 37.4199 191.035 37.8829 191.438C38.8519 192.259 39.6898 193.205 40.5734 194.117C39.5815 193.872 38.5783 193.712 37.5808 193.507C36.3895 193.279 33.9783 192.817 33.5052 191.432Z" fill="#263238"/>
<path d="M43.9593 186.802L21.3184 184.226C21.3184 184.226 31.647 140.95 32.2455 138.779C33.1632 135.467 35.2096 108.79 37.1989 92.2997C37.1989 92.2997 33.4311 83.3732 40.4822 69.8867H68.7663C68.7663 69.8867 66.8682 82.7177 63.6362 90.8575C63.6362 90.8575 64.2062 90.3958 60.4213 92.4992C60.4213 92.4992 58.0785 134.395 56.3685 142.33C54.9378 148.874 43.9593 186.802 43.9593 186.802Z" fill="#FDC7A9"/>
<path opacity="0.1" d="M63.6366 90.8125C63.6759 90.8125 63.6366 90.8406 63.6366 90.8518C63.6342 90.8388 63.6342 90.8255 63.6366 90.8125Z" fill="black"/>
<path d="M40.4765 69.8867H68.7606L81.4263 115.169C81.4263 115.169 71.166 119.415 56.8017 119.415C48.2914 119.415 32.4336 116.622 32.4336 116.622L36.8911 92.7158C36.8911 92.7158 33.2088 83.4473 40.4765 69.8867Z" fill="#4668D6"/>
<path opacity="0.1" d="M38.6983 73.9413C38.6999 74.1887 38.6435 74.4331 38.5336 74.6548C38.4237 74.8765 38.2635 75.0694 38.0656 75.2181C38.2537 74.7108 38.4532 74.1978 38.6755 73.6734C38.6918 73.7617 38.6995 73.8514 38.6983 73.9413ZM46.0458 72.3281C45.7268 72.3281 45.4149 72.4227 45.1496 72.6C44.8843 72.7772 44.6776 73.0292 44.5555 73.3239C44.4334 73.6187 44.4014 73.943 44.4637 74.256C44.5259 74.5689 44.6796 74.8563 44.9052 75.0819C45.1308 75.3075 45.4182 75.4612 45.7311 75.5234C46.044 75.5856 46.3684 75.5537 46.6631 75.4316C46.9579 75.3095 47.2098 75.1028 47.3871 74.8375C47.5643 74.5722 47.659 74.2603 47.659 73.9413C47.659 73.7294 47.6172 73.5197 47.5362 73.3239C47.4551 73.1282 47.3363 72.9504 47.1865 72.8006C47.0367 72.6508 46.8589 72.532 46.6631 72.4509C46.4674 72.3699 46.2577 72.3281 46.0458 72.3281ZM55.0064 72.3281C54.6874 72.3281 54.3755 72.4227 54.1102 72.6C53.8449 72.7772 53.6382 73.0292 53.5161 73.3239C53.394 73.6187 53.362 73.943 53.4243 74.256C53.4865 74.5689 53.6402 74.8563 53.8658 75.0819C54.0914 75.3075 54.3788 75.4612 54.6917 75.5234C55.0046 75.5856 55.329 75.5537 55.6238 75.4316C55.9185 75.3095 56.1705 75.1028 56.3477 74.8375C56.525 74.5722 56.6196 74.2603 56.6196 73.9413C56.6196 73.7294 56.5778 73.5197 56.4968 73.3239C56.4157 73.1282 56.2969 72.9504 56.1471 72.8006C55.9973 72.6508 55.8195 72.532 55.6238 72.4509C55.428 72.3699 55.2183 72.3281 55.0064 72.3281ZM63.9671 72.3281C63.648 72.3281 63.3361 72.4227 63.0708 72.6C62.8056 72.7772 62.5988 73.0292 62.4767 73.3239C62.3546 73.6187 62.3227 73.943 62.3849 74.256C62.4471 74.5689 62.6008 74.8563 62.8264 75.0819C63.052 75.3075 63.3394 75.4612 63.6523 75.5234C63.9653 75.5856 64.2896 75.5537 64.5844 75.4316C64.8791 75.3095 65.1311 75.1028 65.3083 74.8375C65.4856 74.5722 65.5802 74.2603 65.5802 73.9413C65.5802 73.7294 65.5385 73.5197 65.4574 73.3239C65.3763 73.1282 65.2575 72.9504 65.1077 72.8006C64.9579 72.6508 64.7801 72.532 64.5844 72.4509C64.3887 72.3699 64.1789 72.3281 63.9671 72.3281ZM37.0852 84.4523C36.6824 84.452 36.294 84.6025 35.9965 84.8741C35.9509 85.7234 35.9509 86.5101 35.9965 87.234C36.1874 87.4157 36.42 87.5479 36.6739 87.6189C36.9278 87.69 37.1952 87.6977 37.4527 87.6414C37.7103 87.5852 37.9501 87.4667 38.1513 87.2963C38.3524 87.1259 38.5087 86.9088 38.6065 86.664C38.7044 86.4192 38.7407 86.1542 38.7124 85.8921C38.684 85.63 38.5919 85.3788 38.444 85.1606C38.2962 84.9424 38.0971 84.7637 37.8642 84.6402C37.6312 84.5167 37.3716 84.4522 37.108 84.4523H37.0852ZM46.0458 84.4523C45.7268 84.4523 45.4149 84.5469 45.1496 84.7242C44.8843 84.9014 44.6776 85.1534 44.5555 85.4481C44.4334 85.7429 44.4014 86.0672 44.4637 86.3802C44.5259 86.6931 44.6796 86.9805 44.9052 87.2061C45.1308 87.4317 45.4182 87.5854 45.7311 87.6476C46.044 87.7098 46.3684 87.6779 46.6631 87.5558C46.9579 87.4337 47.2098 87.2269 47.3871 86.9617C47.5643 86.6964 47.659 86.3845 47.659 86.0654C47.659 85.8536 47.6172 85.6438 47.5362 85.4481C47.4551 85.2524 47.3363 85.0746 47.1865 84.9248C47.0367 84.775 46.8589 84.6562 46.6631 84.5751C46.4674 84.494 46.2577 84.4523 46.0458 84.4523ZM55.0064 84.4523C54.6874 84.4523 54.3755 84.5469 54.1102 84.7242C53.8449 84.9014 53.6382 85.1534 53.5161 85.4481C53.394 85.7429 53.362 86.0672 53.4243 86.3802C53.4865 86.6931 53.6402 86.9805 53.8658 87.2061C54.0914 87.4317 54.3788 87.5854 54.6917 87.6476C55.0046 87.7098 55.329 87.6779 55.6238 87.5558C55.9185 87.4337 56.1705 87.2269 56.3477 86.9617C56.525 86.6964 56.6196 86.3845 56.6196 86.0654C56.6196 85.8536 56.5778 85.6438 56.4968 85.4481C56.4157 85.2524 56.2969 85.0746 56.1471 84.9248C55.9973 84.775 55.8195 84.6562 55.6238 84.5751C55.428 84.494 55.2183 84.4523 55.0064 84.4523ZM63.9671 84.4523C63.648 84.4523 63.3361 84.5469 63.0708 84.7242C62.8056 84.9014 62.5988 85.1534 62.4767 85.4481C62.3546 85.7429 62.3227 86.0672 62.3849 86.3802C62.4471 86.6931 62.6008 86.9805 62.8264 87.2061C63.052 87.4317 63.3394 87.5854 63.6523 87.6476C63.9653 87.7098 64.2896 87.6779 64.5844 87.5558C64.8791 87.4337 65.1311 87.2269 65.3083 86.9617C65.4856 86.6964 65.5802 86.3845 65.5802 86.0654C65.5802 85.8536 65.5385 85.6438 65.4574 85.4481C65.3763 85.2524 65.2575 85.0746 65.1077 84.9248C64.9579 84.775 64.7801 84.6562 64.5844 84.5751C64.3887 84.494 64.1789 84.4523 63.9671 84.4523ZM72.8365 84.4523C72.5952 84.4654 72.3599 84.5324 72.1481 84.6486C71.9362 84.7647 71.7531 84.927 71.6124 85.1234C71.4716 85.3198 71.3768 85.5453 71.3349 85.7832C71.2929 86.0212 71.305 86.2655 71.3702 86.4982C71.4353 86.7308 71.5519 86.9459 71.7113 87.1274C71.8708 87.309 72.0689 87.4524 72.2912 87.5471C72.5135 87.6419 72.7542 87.6854 72.9956 87.6746C73.237 87.6638 73.4728 87.599 73.6858 87.4848L72.8365 84.4523ZM41.5655 78.1822C41.2465 78.1822 40.9346 78.2768 40.6693 78.454C40.404 78.6313 40.1973 78.8832 40.0752 79.178C39.9531 79.4727 39.9211 79.7971 39.9834 80.11C40.0456 80.4229 40.1992 80.7104 40.4248 80.936C40.6505 81.1616 40.9379 81.3152 41.2508 81.3774C41.5637 81.4397 41.8881 81.4077 42.1828 81.2856C42.4776 81.1635 42.7295 80.9568 42.9068 80.6915C43.084 80.4262 43.1787 80.1143 43.1787 79.7953C43.1741 79.3704 43.0022 78.9645 42.7002 78.6657C42.3981 78.3668 41.9904 78.1992 41.5655 78.1993V78.1822ZM50.5261 78.1822C50.2071 78.1822 49.8952 78.2768 49.6299 78.454C49.3646 78.6313 49.1579 78.8832 49.0358 79.178C48.9137 79.4727 48.8817 79.7971 48.944 80.11C49.0062 80.4229 49.1599 80.7104 49.3855 80.936C49.6111 81.1616 49.8985 81.3152 50.2114 81.3774C50.5243 81.4397 50.8487 81.4077 51.1434 81.2856C51.4382 81.1635 51.6901 80.9568 51.8674 80.6915C52.0447 80.4262 52.1393 80.1143 52.1393 79.7953C52.1348 79.3704 51.9628 78.9645 51.6608 78.6657C51.3587 78.3668 50.951 78.1992 50.5261 78.1993V78.1822ZM59.4867 78.1822C59.1677 78.1822 58.8558 78.2768 58.5905 78.454C58.3253 78.6313 58.1185 78.8832 57.9964 79.178C57.8743 79.4727 57.8424 79.7971 57.9046 80.11C57.9668 80.4229 58.1205 80.7104 58.3461 80.936C58.5717 81.1616 58.8591 81.3152 59.172 81.3774C59.485 81.4397 59.8093 81.4077 60.1041 81.2856C60.3988 81.1635 60.6508 80.9568 60.828 80.6915C61.0053 80.4262 61.0999 80.1143 61.0999 79.7953C61.0954 79.3704 60.9234 78.9645 60.6214 78.6657C60.3194 78.3668 59.9116 78.1992 59.4867 78.1993V78.1822ZM68.4474 78.1822C68.1283 78.1822 67.8164 78.2768 67.5511 78.454C67.2859 78.6313 67.0791 78.8832 66.957 79.178C66.8349 79.4727 66.803 79.7971 66.8652 80.11C66.9275 80.4229 67.0811 80.7104 67.3067 80.936C67.5323 81.1616 67.8197 81.3152 68.1327 81.3774C68.4456 81.4397 68.7699 81.4077 69.0647 81.2856C69.3594 81.1635 69.6114 80.9568 69.7886 80.6915C69.9659 80.4262 70.0605 80.1143 70.0605 79.7953C70.0561 79.3744 69.8873 78.9718 69.5901 78.6736C69.293 78.3754 68.8911 78.2052 68.4702 78.1993L68.4474 78.1822ZM37.0966 96.5594C36.7448 96.5577 36.4023 96.6719 36.1219 96.8843L35.7229 99.0219C35.8708 99.2607 36.0785 99.4568 36.3255 99.5907C36.5725 99.7246 36.8502 99.7917 37.1311 99.7853C37.412 99.7789 37.6863 99.6992 37.927 99.5542C38.1676 99.4092 38.3662 99.2038 38.5031 98.9584C38.6399 98.7131 38.7104 98.4362 38.7074 98.1553C38.7044 97.8744 38.628 97.5991 38.4859 97.3567C38.3438 97.1143 38.1409 96.9132 37.8972 96.7734C37.6535 96.6336 37.3776 96.5598 37.0966 96.5594ZM46.0572 96.5594C45.7382 96.5594 45.4263 96.654 45.161 96.8313C44.8957 97.0085 44.689 97.2605 44.5669 97.5552C44.4448 97.85 44.4128 98.1743 44.4751 98.4873C44.5373 98.8002 44.691 99.0876 44.9166 99.3132C45.1422 99.5388 45.4296 99.6924 45.7425 99.7547C46.0554 99.8169 46.3798 99.785 46.6745 99.6629C46.9693 99.5408 47.2212 99.334 47.3985 99.0687C47.5758 98.8035 47.6704 98.4916 47.6704 98.1726C47.6689 97.961 47.6256 97.7518 47.5431 97.5569C47.4606 97.3621 47.3404 97.1855 47.1895 97.0372C47.0386 96.8889 46.8598 96.7719 46.6636 96.6928C46.4673 96.6138 46.2574 96.5742 46.0458 96.5765L46.0572 96.5594ZM55.0178 96.5594C54.6988 96.5594 54.3869 96.654 54.1216 96.8313C53.8563 97.0085 53.6496 97.2605 53.5275 97.5552C53.4054 97.85 53.3734 98.1743 53.4357 98.4873C53.4979 98.8002 53.6516 99.0876 53.8772 99.3132C54.1028 99.5388 54.3902 99.6924 54.7031 99.7547C55.016 99.8169 55.3404 99.785 55.6352 99.6629C55.9299 99.5408 56.1819 99.334 56.3591 99.0687C56.5364 98.8035 56.631 98.4916 56.631 98.1726C56.6265 97.7457 56.4529 97.338 56.1484 97.0389C55.8439 96.7397 55.4333 96.5735 55.0064 96.5765L55.0178 96.5594ZM63.9784 96.5594C63.6594 96.5594 63.3475 96.654 63.0822 96.8313C62.817 97.0085 62.6102 97.2605 62.4881 97.5552C62.366 97.85 62.3341 98.1743 62.3963 98.4873C62.4585 98.8002 62.6122 99.0876 62.8378 99.3132C63.0634 99.5388 63.3508 99.6924 63.6637 99.7547C63.9767 99.8169 64.301 99.785 64.5958 99.6629C64.8905 99.5408 65.1425 99.334 65.3197 99.0687C65.497 98.8035 65.5916 98.4916 65.5916 98.1726C65.5871 97.7457 65.4136 97.338 65.1091 97.0389C64.8046 96.7397 64.3939 96.5735 63.9671 96.5765L63.9784 96.5594ZM72.9391 96.5594C72.62 96.5594 72.3081 96.654 72.0429 96.8313C71.7776 97.0085 71.5708 97.2605 71.4487 97.5552C71.3266 97.85 71.2947 98.1743 71.3569 98.4873C71.4192 98.8002 71.5728 99.0876 71.7984 99.3132C72.024 99.5388 72.3114 99.6924 72.6244 99.7547C72.9373 99.8169 73.2616 99.785 73.5564 99.6629C73.8511 99.5408 74.1031 99.334 74.2803 99.0687C74.4576 98.8035 74.5522 98.4916 74.5522 98.1726C74.5477 97.7457 74.3742 97.338 74.0697 97.0389C73.7652 96.7397 73.3545 96.5735 72.9277 96.5765L72.9391 96.5594ZM41.5883 90.2893C41.2693 90.2893 40.9574 90.3839 40.6921 90.5611C40.4268 90.7384 40.2201 90.9903 40.098 91.2851C39.9759 91.5798 39.9439 91.9042 40.0062 92.2171C40.0684 92.53 40.222 92.8175 40.4476 93.0431C40.6732 93.2687 40.9607 93.4223 41.2736 93.4845C41.5865 93.5468 41.9109 93.5148 42.2056 93.3927C42.5004 93.2706 42.7523 93.0639 42.9296 92.7986C43.1068 92.5333 43.2014 92.2214 43.2014 91.9024C43.1977 91.6913 43.1525 91.483 43.0683 91.2894C42.984 91.0958 42.8625 90.9207 42.7106 90.774C42.5586 90.6274 42.3793 90.5121 42.1829 90.4348C41.9864 90.3575 41.7766 90.3197 41.5655 90.3235L41.5883 90.2893ZM50.5489 90.2893C50.2299 90.2893 49.918 90.3839 49.6527 90.5611C49.3874 90.7384 49.1807 90.9903 49.0586 91.2851C48.9365 91.5798 48.9045 91.9042 48.9668 92.2171C49.029 92.53 49.1827 92.8175 49.4083 93.0431C49.6339 93.2687 49.9213 93.4223 50.2342 93.4845C50.5471 93.5468 50.8715 93.5148 51.1662 93.3927C51.461 93.2706 51.7129 93.0639 51.8902 92.7986C52.0675 92.5333 52.1621 92.2214 52.1621 91.9024C52.1531 91.4765 51.976 91.0715 51.6695 90.7757C51.3631 90.4799 50.952 90.3173 50.5261 90.3235L50.5489 90.2893ZM59.5095 90.2893C59.1905 90.2893 58.8786 90.3839 58.6133 90.5611C58.348 90.7384 58.1413 90.9903 58.0192 91.2851C57.8971 91.5798 57.8652 91.9042 57.9274 92.2171C57.9896 92.53 58.1433 92.8175 58.3689 93.0431C58.5945 93.2687 58.8819 93.4223 59.1948 93.4845C59.5077 93.5468 59.8321 93.5148 60.1269 93.3927C60.4216 93.2706 60.6736 93.0639 60.8508 92.7986C61.0281 92.5333 61.1227 92.2214 61.1227 91.9024C61.1137 91.4765 60.9366 91.0715 60.6302 90.7757C60.3237 90.4799 59.9126 90.3173 59.4867 90.3235L59.5095 90.2893ZM68.4702 90.2893C68.1511 90.2893 67.8392 90.3839 67.5739 90.5611C67.3087 90.7384 67.1019 90.9903 66.9798 91.2851C66.8577 91.5798 66.8258 91.9042 66.888 92.2171C66.9503 92.53 67.1039 92.8175 67.3295 93.0431C67.5551 93.2687 67.8425 93.4223 68.1554 93.4845C68.4684 93.5468 68.7927 93.5148 69.0875 93.3927C69.3822 93.2706 69.6342 93.0639 69.8114 92.7986C69.9887 92.5333 70.0833 92.2214 70.0833 91.9024C70.0744 91.4805 69.9005 91.0789 69.5989 90.7838C69.2973 90.4886 68.8921 90.3234 68.4702 90.3235V90.2893ZM37.1194 108.661C36.7987 108.66 36.485 108.754 36.2179 108.931C35.9508 109.109 35.7424 109.361 35.6192 109.657C35.496 109.954 35.4634 110.279 35.5257 110.594C35.588 110.909 35.7423 111.198 35.969 111.424C36.1958 111.651 36.4847 111.805 36.7993 111.868C37.1138 111.93 37.4398 111.897 37.7358 111.774C38.0319 111.651 38.2847 111.443 38.4621 111.175C38.6395 110.908 38.7337 110.595 38.7325 110.274C38.7221 109.847 38.543 109.441 38.2344 109.145C37.9257 108.849 37.5126 108.687 37.0852 108.695L37.1194 108.661ZM46.08 108.661C45.7594 108.66 45.4456 108.754 45.1785 108.931C44.9114 109.109 44.703 109.361 44.5798 109.657C44.4566 109.954 44.424 110.279 44.4863 110.594C44.5486 110.909 44.7029 111.198 44.9296 111.424C45.1564 111.651 45.4453 111.805 45.7599 111.868C46.0745 111.93 46.4004 111.897 46.6965 111.774C46.9925 111.651 47.2453 111.443 47.4227 111.175C47.6002 110.908 47.6943 110.595 47.6932 110.274C47.6887 110.062 47.6426 109.853 47.5574 109.659C47.4722 109.465 47.3496 109.29 47.1966 109.143C47.0436 108.997 46.8632 108.882 46.6658 108.805C46.4683 108.728 46.2577 108.69 46.0458 108.695L46.08 108.661ZM55.0406 108.661C54.72 108.66 54.4062 108.754 54.1391 108.931C53.872 109.109 53.6637 109.361 53.5404 109.657C53.4172 109.954 53.3847 110.279 53.4469 110.594C53.5092 110.909 53.6635 111.198 53.8902 111.424C54.117 111.651 54.406 111.805 54.7205 111.868C55.0351 111.93 55.361 111.897 55.6571 111.774C55.9531 111.651 56.2059 111.443 56.3833 111.175C56.5608 110.908 56.6549 110.595 56.6538 110.274C56.6493 110.062 56.6032 109.853 56.518 109.659C56.4328 109.465 56.3102 109.29 56.1572 109.143C56.0042 108.997 55.8239 108.882 55.6264 108.805C55.429 108.728 55.2183 108.69 55.0064 108.695L55.0406 108.661ZM64.0013 108.661C63.6806 108.66 63.3668 108.754 63.0997 108.931C62.8326 109.109 62.6243 109.361 62.501 109.657C62.3778 109.954 62.3453 110.279 62.4076 110.594C62.4698 110.909 62.6241 111.198 62.8509 111.424C63.0776 111.651 63.3666 111.805 63.6811 111.868C63.9957 111.93 64.3217 111.897 64.6177 111.774C64.9137 111.651 65.1665 111.443 65.3439 111.175C65.5214 110.908 65.6155 110.595 65.6144 110.274C65.6099 110.062 65.5638 109.853 65.4786 109.659C65.3934 109.465 65.2708 109.29 65.1178 109.143C64.9649 108.997 64.7845 108.882 64.587 108.805C64.3896 108.728 64.1789 108.69 63.9671 108.695L64.0013 108.661ZM72.9619 108.661C72.6412 108.66 72.3274 108.754 72.0603 108.931C71.7933 109.109 71.5849 109.361 71.4617 109.657C71.3384 109.954 71.3059 110.279 71.3682 110.594C71.4305 110.909 71.5847 111.198 71.8115 111.424C72.0382 111.651 72.3272 111.805 72.6417 111.868C72.9563 111.93 73.2823 111.897 73.5783 111.774C73.8743 111.651 74.1271 111.443 74.3046 111.175C74.482 110.908 74.5761 110.595 74.575 110.274C74.5706 110.062 74.5244 109.853 74.4392 109.659C74.354 109.465 74.2314 109.29 74.0784 109.143C73.9255 108.997 73.7451 108.882 73.5476 108.805C73.3502 108.728 73.1395 108.69 72.9277 108.695L72.9619 108.661ZM41.6111 102.391C41.2907 102.39 40.9772 102.484 40.7102 102.661C40.4432 102.838 40.2348 103.09 40.1114 103.386C39.988 103.682 39.9552 104.007 40.017 104.322C40.0788 104.636 40.2325 104.925 40.4587 105.152C40.6849 105.379 40.9733 105.534 41.2875 105.597C41.6017 105.66 41.9275 105.628 42.2236 105.506C42.5197 105.383 42.7729 105.176 42.951 104.909C43.1292 104.643 43.2243 104.33 43.2243 104.009C43.2183 103.798 43.1707 103.589 43.0842 103.396C42.9976 103.202 42.8738 103.028 42.7197 102.882C42.5657 102.736 42.3844 102.623 42.1864 102.547C41.9884 102.472 41.7774 102.436 41.5655 102.442L41.6111 102.391ZM50.5717 102.391C50.2513 102.39 49.9378 102.484 49.6708 102.661C49.4038 102.838 49.1955 103.09 49.0721 103.386C48.9487 103.682 48.9158 104.007 48.9776 104.322C49.0394 104.636 49.1931 104.925 49.4193 105.152C49.6455 105.379 49.9339 105.534 50.2481 105.597C50.5623 105.66 50.8881 105.628 51.1842 105.506C51.4803 105.383 51.7335 105.176 51.9116 104.909C52.0898 104.643 52.1849 104.33 52.1849 104.009C52.1714 103.582 51.9895 103.177 51.6787 102.884C51.3679 102.59 50.9536 102.431 50.5261 102.442L50.5717 102.391ZM59.5323 102.391C59.2119 102.39 58.8984 102.484 58.6314 102.661C58.3645 102.838 58.1561 103.09 58.0327 103.386C57.9093 103.682 57.8764 104.007 57.9382 104.322C58 104.636 58.1538 104.925 58.3799 105.152C58.6061 105.379 58.8945 105.534 59.2087 105.597C59.5229 105.66 59.8487 105.628 60.1448 105.506C60.441 105.383 60.6941 105.176 60.8723 104.909C61.0504 104.643 61.1455 104.33 61.1455 104.009C61.1321 103.582 60.9501 103.177 60.6393 102.884C60.3286 102.59 59.9142 102.431 59.4867 102.442L59.5323 102.391ZM68.493 102.391C68.1725 102.39 67.859 102.484 67.592 102.661C67.3251 102.838 67.1167 103.09 66.9933 103.386C66.8699 103.682 66.837 104.007 66.8988 104.322C66.9607 104.636 67.1144 104.925 67.3405 105.152C67.5667 105.379 67.8552 105.534 68.1693 105.597C68.4835 105.66 68.8093 105.628 69.1054 105.506C69.4016 105.383 69.6547 105.176 69.8329 104.909C70.011 104.643 70.1061 104.33 70.1061 104.009C70.0927 103.586 69.9139 103.185 69.6081 102.892C69.3022 102.599 68.8937 102.437 68.4702 102.442L68.493 102.391ZM77.9324 102.465C77.778 102.414 77.6162 102.389 77.4536 102.391C77.1829 102.39 76.9164 102.457 76.6783 102.586C76.4402 102.714 76.2383 102.901 76.0909 103.128C75.9435 103.355 75.8554 103.615 75.8346 103.885C75.8138 104.155 75.861 104.426 75.9719 104.673C76.0828 104.92 76.2539 105.135 76.4694 105.299C76.6849 105.462 76.9381 105.569 77.2057 105.61C77.4733 105.651 77.7468 105.623 78.0012 105.531C78.2556 105.439 78.4828 105.284 78.662 105.081L77.9324 102.465ZM32.8614 114.526L32.4795 116.573L34.0983 116.846C34.205 116.622 34.2614 116.377 34.2636 116.128C34.2482 115.739 34.0935 115.368 33.8277 115.084C33.562 114.799 33.2029 114.62 32.8158 114.578L32.8614 114.526ZM41.6111 114.526C41.2905 114.525 40.9767 114.619 40.7096 114.797C40.4425 114.974 40.2341 115.227 40.1109 115.523C39.9877 115.819 39.9551 116.145 40.0174 116.459C40.0797 116.774 40.234 117.063 40.4607 117.29C40.6875 117.516 40.9764 117.671 41.291 117.733C41.6055 117.795 41.9315 117.763 42.2275 117.64C42.5236 117.516 42.7764 117.308 42.9538 117.041C43.1313 116.774 43.2254 116.46 43.2243 116.139C43.2191 115.927 43.172 115.718 43.0858 115.524C42.9995 115.33 42.8758 115.154 42.7217 115.008C42.5676 114.862 42.3861 114.748 42.1877 114.672C41.9893 114.596 41.7778 114.56 41.5655 114.566L41.6111 114.526ZM50.5717 114.526C50.2511 114.525 49.9373 114.619 49.6702 114.797C49.4031 114.974 49.1947 115.227 49.0715 115.523C48.9483 115.819 48.9157 116.145 48.978 116.459C49.0403 116.774 49.1946 117.063 49.4213 117.29C49.6481 117.516 49.9371 117.671 50.2516 117.733C50.5662 117.795 50.8921 117.763 51.1882 117.64C51.4842 117.516 51.737 117.308 51.9144 117.041C52.0919 116.774 52.186 116.46 52.1849 116.139C52.1797 115.927 52.1326 115.718 52.0464 115.524C51.9602 115.33 51.8364 115.154 51.6823 115.008C51.5282 114.862 51.3467 114.748 51.1483 114.672C50.9499 114.596 50.7385 114.56 50.5261 114.566L50.5717 114.526ZM59.5323 114.526C59.2117 114.525 58.8979 114.619 58.6308 114.797C58.3637 114.974 58.1554 115.227 58.0321 115.523C57.9089 115.819 57.8764 116.145 57.9386 116.459C58.0009 116.774 58.1552 117.063 58.382 117.29C58.6087 117.516 58.8977 117.671 59.2122 117.733C59.5268 117.795 59.8527 117.763 60.1488 117.64C60.4448 117.516 60.6976 117.308 60.875 117.041C61.0525 116.774 61.1466 116.46 61.1455 116.139C61.1403 115.927 61.0933 115.718 61.007 115.524C60.9208 115.33 60.797 115.154 60.6429 115.008C60.4888 114.862 60.3073 114.748 60.1089 114.672C59.9105 114.596 59.6991 114.56 59.4867 114.566L59.5323 114.526ZM68.493 114.526C68.1723 114.525 67.8585 114.619 67.5914 114.797C67.3244 114.974 67.116 115.227 66.9927 115.523C66.8695 115.819 66.837 116.145 66.8993 116.459C66.9615 116.774 67.1158 117.063 67.3426 117.29C67.5693 117.516 67.8583 117.671 68.1728 117.733C68.4874 117.795 68.8134 117.763 69.1094 117.64C69.4054 117.516 69.6582 117.308 69.8356 117.041C70.0131 116.774 70.1072 116.46 70.1061 116.139C70.0956 115.715 69.9179 115.311 69.6116 115.016C69.3053 114.722 68.8951 114.56 68.4702 114.566L68.493 114.526ZM77.4536 114.526C77.0257 114.526 76.6154 114.696 76.3129 114.999C76.0104 115.301 75.8404 115.712 75.8404 116.139C75.84 116.397 75.9005 116.651 76.0171 116.88C77.2199 116.561 78.2402 116.248 79.0667 115.985C79.0171 115.585 78.8195 115.217 78.5126 114.954C78.2057 114.692 77.8117 114.553 77.408 114.566L77.4536 114.526Z" fill="#030402"/>
<path d="M67.4386 16.6494C65.6545 13.8392 62.0862 12.7163 58.4324 12.9272C54.7786 13.1381 50.2926 14.3294 49.0557 20.2006C48.0582 24.9659 48.8847 29.8908 48.0981 35.2375C47.3114 40.5842 39.4111 52.8224 48.2292 60.5803C56.1524 67.5516 74.6037 64.7984 76.821 53.0733C78.5824 43.782 68.7098 33.5617 68.0656 29.7027C67.4215 25.8437 69.3938 19.7332 67.4386 16.6494Z" fill="#263238"/>
<path d="M68.2877 22.1367C67.9001 24.851 68.0512 27.615 68.7323 30.2708C68.9228 30.9518 69.2088 31.6023 69.5816 32.2032C69.935 32.8074 70.3226 33.3774 70.7216 33.9531C71.4969 35.0931 72.2664 36.2332 73.0017 37.3732C74.4565 39.644 75.5757 42.1129 76.3249 44.7036C77.0165 47.3039 77.2099 50.0115 76.8949 52.6838C77.1987 51.3563 77.3498 49.9984 77.3452 48.6367C77.3302 47.2653 77.1716 45.8994 76.8721 44.5611C76.2283 41.8686 75.1357 39.3038 73.6401 36.9742C72.9105 35.8341 72.1182 34.6941 71.3316 33.5541C70.4996 32.5055 69.8237 31.342 69.3251 30.0998C68.9037 28.8282 68.6302 27.5123 68.51 26.1781C68.3529 24.8368 68.2787 23.4871 68.2877 22.1367Z" fill="#263238"/>
<path d="M48.7363 24.2773C48.4171 27.0191 48.2005 29.7723 47.7445 32.4684C47.5222 33.8158 47.2176 35.1484 46.8325 36.4585C46.4449 37.7411 45.8635 39.0008 45.3505 40.289C44.8374 41.5773 44.3472 42.8826 43.9368 44.2107C43.529 45.548 43.2447 46.9199 43.0875 48.3091C42.9475 49.7074 43.0109 51.1186 43.2756 52.4987C43.608 53.8674 44.2171 55.1536 45.0654 56.2779C44.3554 55.0962 43.8757 53.7906 43.6518 52.4303C43.4608 51.088 43.4608 49.7255 43.6518 48.3832C44.1439 45.6924 44.9473 43.0679 46.0459 40.5626C46.5418 39.2801 47.1232 38.0204 47.5108 36.6523C47.8816 35.309 48.1465 33.9387 48.3031 32.5539C48.6182 29.8067 48.7628 27.0425 48.7363 24.2773Z" fill="#263238"/>
<path d="M60.2389 40.3777C62.519 44.8865 75.8288 60.6075 83.6095 60.7158C91.5555 60.8298 107.584 47.8221 109.26 46.4655C110.372 45.5819 101.154 32.5343 99.4216 33.8511C94.7988 37.4137 83.8603 46.266 81.5802 45.3995C76.7066 43.5812 72.8305 40.7995 65.711 36.9747C60.7177 34.3071 57.7423 35.4072 60.2389 40.3777Z" fill="#FDC7A9"/>
<path d="M104.586 49.5349C105.555 49.1815 113.165 47.0724 116.557 44.0912C118.352 42.5066 122.787 37.6045 121.96 36.3904C121.208 35.2845 119.68 36.3333 119.68 36.3333C119.68 36.3333 121.624 34.116 120.558 32.5941C119.492 31.0721 116.979 32.9646 116.979 32.9646C116.979 32.9646 118.808 30.5477 117.64 29.0999C116.471 27.652 114.254 29.9891 114.254 29.9891C114.254 29.9891 116.032 27.8572 114.567 27.0706C112.806 26.1301 109.967 30.4337 107.727 31.8074C107.214 32.121 96.897 37.3879 96.897 37.3879L104.586 49.5349Z" fill="#FDC7A9"/>
<path d="M114.122 29.9594C112.03 33.123 110.565 34.1433 107.162 35.6595C107.1 35.6937 107.128 35.7963 107.196 35.7735C110.668 34.5765 112.686 33.5562 114.282 30.0392C114.356 29.8853 114.219 29.8112 114.122 29.9594Z" fill="#263238"/>
<path d="M116.847 32.9232C114.384 36.0184 112.811 37.1413 109.363 39.0053C109.317 39.0053 109.363 39.1193 109.408 39.0965C112.942 37.546 114.932 36.4858 116.984 33.0714C117.075 32.9175 116.961 32.7807 116.847 32.9232Z" fill="#263238"/>
<path d="M119.48 36.4185C116.881 39.24 115.211 40.5454 111.631 41.9305C111.614 41.9358 111.599 41.9478 111.591 41.9638C111.582 41.9798 111.58 41.9986 111.585 42.016C111.591 42.0334 111.603 42.048 111.619 42.0565C111.635 42.0651 111.654 42.0669 111.671 42.0616C115.462 41.0071 117.559 39.3939 119.56 36.504C119.697 36.3102 119.645 36.2418 119.48 36.4185Z" fill="#263238"/>
<path d="M104.644 7.375C104.039 22.583 103.851 27.1944 107.944 27.3597C112.037 27.525 112.208 22.9079 112.812 7.69991L104.644 7.375Z" fill="#EBEBEB"/>
<path d="M106.734 43.0634L107.884 43.1094L108.633 24.388L107.482 24.342L106.734 43.0634Z" fill="#EBEBEB"/>
<path d="M100.858 44.3757L113.632 44.883L107.322 42.7227L100.858 44.3757Z" fill="#EBEBEB"/>
<path d="M107.995 26.1269C106.416 26.0642 105.225 24.9298 105.225 16.2656C105.627 16.7757 106.158 17.1693 106.764 17.4057C107.716 17.6451 109.334 16.4252 111.375 16.5107C111.375 16.4879 111.671 26.2466 107.995 26.1269Z" fill="#FFC727"/>
<path d="M95.2949 36.9606C95.2949 36.9606 98.3388 32.5145 99.9861 31.1521C101.633 29.7898 109.642 26.9796 110.349 28.6783C111.261 30.8614 106.929 33.398 104.683 34.3784C104.683 34.3784 106.798 39.4345 104.113 41.9254C101.428 44.4164 95.2949 36.9606 95.2949 36.9606Z" fill="#FDC7A9"/>
<path d="M110.4 29.3434C109.79 31.9427 106.729 33.0143 104.597 34.1202C104.566 34.1355 104.539 34.1581 104.518 34.1861C104.497 34.214 104.482 34.2465 104.476 34.2809C104.47 34.3154 104.472 34.3508 104.482 34.3842C104.493 34.4177 104.51 34.4483 104.535 34.4736C105.281 36.651 105.675 39.9457 104.255 41.8837C104.21 41.9407 104.29 42.0091 104.335 41.9578C106.165 40.0654 106.045 36.7935 105.059 34.4622C107.259 33.362 110.28 32.1821 110.423 29.332C110.429 29.332 110.406 29.332 110.4 29.3434Z" fill="#263238"/>
<path d="M69.3763 58.7884L68.7378 69.9036H40.4766C40.4766 69.9036 45.3616 45.5698 53.1765 37.4129C57.0811 33.3373 60.7976 33.6736 63.602 36.6377C64.3145 37.3844 71.2117 47.1088 72.0382 51.4922C72.7564 55.3512 69.3763 58.7884 69.3763 58.7884Z" fill="#DBDBDB"/>
<path d="M64.3376 56.8406C62.8384 56.9855 61.3521 57.2427 59.8915 57.6101C59.1675 57.8039 58.455 58.0262 57.7482 58.2656C57.3948 58.3853 57.0357 58.4936 56.6823 58.6019C56.313 58.723 55.93 58.7977 55.5423 58.8243C55.5081 58.8243 55.5081 58.8813 55.5423 58.8813C55.9111 58.8945 56.2804 58.885 56.6481 58.8528C57.0019 58.8055 57.3523 58.7351 57.6969 58.6418C58.4322 58.4537 59.1618 58.2314 59.8972 58.0376C61.3792 57.6443 62.8555 57.251 64.3661 56.9603C64.4288 56.9489 64.4117 56.8292 64.3376 56.8406Z" fill="#263238"/>
<path d="M68.0597 58.1365C66.8226 58.0188 65.58 57.9693 64.3375 57.9883C63.7105 57.9883 63.0949 58.051 62.4793 58.1194C62.1829 58.1194 61.9093 58.1878 61.5957 58.2278C61.2822 58.2677 60.9516 58.3589 60.6267 58.3988C60.5925 58.3988 60.5925 58.4558 60.6267 58.4501C60.9345 58.4501 61.248 58.4501 61.5558 58.4501H62.485C63.1063 58.4501 63.7219 58.4159 64.3432 58.3874C65.5858 58.3361 66.8171 58.2962 68.0597 58.2848C68.1281 58.2392 68.1224 58.1422 68.0597 58.1365Z" fill="#263238"/>
<path d="M57.3317 36.9928C57.497 37.5628 60.3813 41.0513 62.9463 40.7891C63.7786 40.6979 63.5164 36.1207 63.5164 36.1207L63.5734 35.7787L64.3714 30.9849L58.6085 27.7244L57.782 27.2969C57.782 27.2969 57.6509 28.6193 57.5027 30.2723C57.5027 30.3521 57.5027 30.4262 57.5027 30.5118C57.5027 30.5973 57.5027 30.6942 57.5027 30.7797C57.5027 31.0248 57.4514 31.2756 57.4343 31.5321C57.4172 31.7886 57.4058 31.9083 57.3944 32.1021C57.383 32.2959 57.3944 32.5011 57.3545 32.6721C57.2514 34.1102 57.2438 35.5537 57.3317 36.9928Z" fill="#FDC7A9"/>
<path d="M57.4912 30.2723C58.0423 31.5761 58.8709 32.7441 59.9193 33.695C60.9677 34.6459 62.2107 35.357 63.5619 35.7787L64.3599 30.9849L58.597 27.7244L57.7705 27.2969C57.7705 27.2969 57.6394 28.6193 57.4912 30.2723Z" fill="#263238"/>
<path d="M69.9353 22.0599C72.0216 30.3308 67.3019 32.514 65.5177 32.9643C63.8989 33.369 58.3355 34.5489 55.4 26.5403C52.4644 18.5316 55.6565 14.9405 59.3103 13.8175C62.964 12.6946 67.8434 13.789 69.9353 22.0599Z" fill="#FDC7A9"/>
<path d="M68.3333 20.3122C68.1338 20.3122 67.94 20.3122 67.7633 20.3122C67.5574 20.3482 67.3453 20.3162 67.1591 20.221C67.107 20.1792 67.0699 20.1215 67.0534 20.0567C67.037 19.992 67.042 19.9236 67.0679 19.8619C67.1399 19.7486 67.2405 19.6563 67.3596 19.5942C67.4787 19.5322 67.6121 19.5026 67.7462 19.5085C68.0198 19.4838 68.293 19.5587 68.5157 19.7194C68.5728 19.7586 68.6159 19.815 68.6387 19.8804C68.6615 19.9458 68.6628 20.0167 68.6425 20.0829C68.6221 20.1491 68.5811 20.207 68.5255 20.2483C68.4699 20.2895 68.4026 20.3119 68.3333 20.3122Z" fill="#263238"/>
<path d="M62.9066 21.724C63.0877 21.6458 63.2647 21.5583 63.4367 21.4618C63.6348 21.3955 63.8066 21.2677 63.9269 21.097C63.9528 21.0353 63.9579 20.967 63.9414 20.9022C63.925 20.8374 63.8879 20.7797 63.8357 20.7379C63.7202 20.6691 63.5883 20.6328 63.4538 20.6328C63.3194 20.6328 63.1874 20.6691 63.0719 20.7379C62.8166 20.8489 62.6129 21.0526 62.5019 21.3079C62.3651 21.5701 62.6615 21.8152 62.9066 21.724Z" fill="#263238"/>
<path d="M63.4366 23.8134C63.4087 23.8748 63.3701 23.9308 63.3226 23.9787C63.287 24.0208 63.2424 24.0544 63.1921 24.0771C63.1418 24.0998 63.0871 24.111 63.0319 24.1098C62.6842 24.1098 62.5075 23.7678 62.4619 23.4201C62.4619 23.4201 62.4619 23.3802 62.4619 23.4201C62.6215 23.5797 62.8039 23.7507 63.0319 23.6994C63.2599 23.6481 63.2542 23.5341 63.3511 23.4258C63.3665 23.5575 63.3951 23.6874 63.4366 23.8134Z" fill="#263238"/>
<path d="M63.2882 23.7389C63.2747 23.5777 63.3062 23.4158 63.3794 23.2715C63.4217 23.1937 63.4802 23.1259 63.551 23.0728C63.6219 23.0197 63.7033 22.9825 63.7898 22.9637C63.8774 22.9436 63.9685 22.9444 64.0557 22.9662C64.1428 22.988 64.2236 23.0301 64.2914 23.0891C64.408 23.1949 64.4995 23.3254 64.5593 23.471C64.5912 23.5606 64.6178 23.6519 64.6391 23.7446C64.6837 23.932 64.6837 24.1272 64.6391 24.3146C64.6167 24.1758 64.5785 24.04 64.5251 23.9099C64.4762 23.7921 64.4191 23.6778 64.3541 23.5679C64.223 23.3456 64.0349 23.1746 63.8411 23.2316C63.6473 23.2886 63.5276 23.4767 63.5048 23.7389C63.4796 24.0081 63.4796 24.2791 63.5048 24.5483C63.3708 24.299 63.2966 24.0219 63.2882 23.7389Z" fill="#263238"/>
<path d="M68.818 22.4342C68.878 22.4696 68.9435 22.4946 69.0118 22.5083C69.0645 22.5239 69.1201 22.5275 69.1744 22.5186C69.2287 22.5097 69.2803 22.4886 69.3253 22.457C69.6103 22.2632 69.5761 21.887 69.4279 21.5621C69.4279 21.5621 69.3994 21.5279 69.3937 21.5621C69.3538 21.7844 69.2911 22.0238 69.103 22.0922C68.9599 22.1177 68.8123 22.0978 68.6812 22.0352C68.7424 22.1623 68.7883 22.2963 68.818 22.4342Z" fill="#263238"/>
<path d="M68.903 22.2872C68.8251 22.1473 68.7109 22.0311 68.5724 21.9508C68.4938 21.9102 68.4077 21.8862 68.3195 21.8803C68.2312 21.8744 68.1427 21.8868 68.0594 21.9166C67.9755 21.9484 67.9002 21.9996 67.8398 22.066C67.7794 22.1323 67.7355 22.212 67.7117 22.2985C67.6749 22.4522 67.6749 22.6123 67.7117 22.766C67.7296 22.8576 67.7563 22.9473 67.7915 23.0339C67.8553 23.22 67.9628 23.3881 68.105 23.5241C68.047 23.3948 68.0048 23.2589 67.9796 23.1194C67.9517 22.9957 67.9345 22.8698 67.9283 22.7432C67.9283 22.481 67.9853 22.2358 68.1734 22.1731C68.2809 22.1432 68.3953 22.1499 68.4985 22.1922C68.6017 22.2345 68.6879 22.3101 68.7434 22.4069C68.9083 22.623 69.0497 22.8561 69.1652 23.1023C69.1429 22.8138 69.0531 22.5346 68.903 22.2872Z" fill="#263238"/>
<path d="M65.5577 28.0387C65.7173 28.147 65.8883 28.3066 66.1277 28.2838C66.3332 28.2382 66.5272 28.1509 66.6977 28.0273C66.6977 28.0273 66.7376 28.0273 66.6977 28.0273C66.6371 28.1548 66.5431 28.2635 66.4256 28.3417C66.3082 28.42 66.1717 28.465 66.0308 28.472C65.9093 28.4645 65.7928 28.4209 65.6963 28.3468C65.5998 28.2726 65.5277 28.1713 65.4893 28.0558C65.4893 28.0444 65.5292 28.0273 65.5577 28.0387Z" fill="#263238"/>
<path d="M67.4042 25.4158C67.4042 25.4158 67.7291 26.2309 67.826 26.6242C67.826 26.6641 67.7462 26.704 67.6151 26.7439C67.2892 26.8903 66.9295 26.9448 66.5749 26.9016C66.2203 26.8584 65.8842 26.7191 65.603 26.4988C65.5966 26.4915 65.5927 26.4823 65.5919 26.4727C65.5912 26.463 65.5935 26.4533 65.5986 26.445C65.6037 26.4368 65.6112 26.4303 65.6202 26.4267C65.6292 26.423 65.6392 26.4224 65.6486 26.4247C66.2407 26.6462 66.8885 26.6702 67.4954 26.4931C67.4954 26.3734 66.8912 25.1194 66.9539 25.0966C67.2699 25.0559 67.5898 25.0559 67.9058 25.0966C67.2788 23.3866 66.3782 21.7905 65.774 20.0748C65.774 20.0121 65.8424 19.9722 65.8709 20.0235C66.8886 21.706 67.7364 23.4856 68.4017 25.336C68.4701 25.5583 67.5809 25.4443 67.4042 25.4158Z" fill="#263238"/>
<path d="M67.5409 26.4771C67.418 26.8658 67.1984 27.2169 66.9025 27.4974C66.7424 27.6388 66.5441 27.73 66.3325 27.7596C65.848 27.8052 65.6884 27.4062 65.6428 27.03C65.6178 26.8294 65.6178 26.6264 65.6428 26.4258C66.2542 26.6429 66.9187 26.6608 67.5409 26.4771Z" fill="#263238"/>
<path d="M66.9023 27.4975C66.7422 27.639 66.5439 27.7302 66.3323 27.7597C65.8478 27.8054 65.6882 27.4063 65.6426 27.0301C65.8747 26.9579 66.1242 26.9646 66.3521 27.0492C66.58 27.1337 66.7735 27.2914 66.9023 27.4975Z" fill="#FF9BBC"/>
<path d="M55.5653 26.3267C56.9676 26.2184 56.8251 23.26 56.8251 23.26C56.8251 23.26 59.6751 22.8211 59.9373 18.6201C60.0502 19.8486 59.8005 21.0832 59.2191 22.1713C59.2191 22.1713 64.1098 20.8603 65.5463 16.3743C65.5463 16.3743 65.0447 18.6201 64.3778 19.4979C65.5799 18.9165 66.5487 17.9436 67.1252 16.7391C67.1252 16.7391 68.3735 19.0191 69.1431 19.5891C69.1431 19.5891 67.5698 10.9192 59.658 13.1138C59.658 13.1138 54.6704 14.2538 53.4848 18.5232C52.2992 22.7926 55.5653 26.3267 55.5653 26.3267Z" fill="#263238"/>
<path d="M56.9787 26.1956C56.9787 26.1956 54.6986 23.8642 53.627 24.7136C52.5554 25.5629 54.5447 29.1483 56.0267 29.4447C56.2147 29.4956 56.4111 29.5078 56.604 29.4808C56.7968 29.4537 56.9822 29.3878 57.149 29.2872C57.3157 29.1865 57.4603 29.0531 57.5741 28.895C57.6878 28.7369 57.7684 28.5574 57.8109 28.3673L56.9787 26.1956Z" fill="#FDC7A9"/>
<path d="M54.2197 25.7303V25.7702C55.2686 26.0096 55.9298 26.8361 56.4485 27.7196C56.3736 27.6318 56.2805 27.5613 56.1757 27.513C56.0709 27.4646 55.9568 27.4396 55.8414 27.4396C55.726 27.4396 55.612 27.4646 55.5071 27.513C55.4023 27.5613 55.3093 27.6318 55.2344 27.7196C55.2344 27.7196 55.2343 27.7766 55.2685 27.7652C55.4328 27.6829 55.6186 27.6535 55.8003 27.6811C55.982 27.7086 56.1507 27.7918 56.2832 27.9192C56.5001 28.1296 56.6915 28.3649 56.8532 28.6203C56.9159 28.7001 57.0641 28.6203 57.0185 28.5348C56.8475 27.2351 55.5935 25.6391 54.2197 25.7303Z" fill="#263238"/>
<path d="M85.5703 22.3711L86.1574 26.2985L65.9333 28.6298L65.54 26.0135L85.5703 22.3711Z" fill="#EBEBEB"/>
<path d="M77.6416 23.8138L78.1489 27.2225L86.1576 26.2991L90.4498 36.1204L92.234 35.3794L87.8562 26.7494L95.3405 35.2825L97.7346 33.0025L90.1534 26.2706L101.468 31.4805L102.072 28.9554L92.5019 25.256L100.351 25.9457L100.169 23.2894L91.2022 23.7283L102.671 20.0973L101.89 17.4468L88.5232 23.4205L98.5155 17.082L96.9138 15.1211L89.2585 21.6079L94.685 13.0292L92.6501 11.9062L87.5655 21.2773L88.8937 13.7759L86.4084 13.5308L85.5705 22.3717L77.6416 23.8138Z" fill="#FF862D"/>
<path d="M53.8724 46.268C61.8526 59.4752 77.5165 72.3917 81.4439 68.3047C85.0293 64.5712 89.3842 49.6938 90.1993 43.3666C90.4387 41.5084 74.2389 39.8554 73.9824 41.839C73.6746 44.2388 73.2699 50.3892 73.1673 50.5944C72.9507 51.0675 63.4771 44.0336 58.461 40.2316C51.4384 34.9418 50.8285 41.2063 53.8724 46.268Z" fill="#FDC7A9"/>
<path d="M74.1701 23.4717C74.6305 23.2935 75.1344 23.2603 75.6142 23.3764C76.094 23.4926 76.5269 23.7525 76.8549 24.1215C77.3361 23.4346 78.0415 22.9367 78.8499 22.7135C80.2921 22.3886 81.4321 24.5091 81.4321 24.5091C82.0809 23.9025 82.8972 23.5052 83.7749 23.3691C85.1828 23.1981 86.6249 25.1703 86.6249 25.1703C87.5282 24.9385 88.4846 25.0375 89.3211 25.4496C91.5099 26.6466 91.7323 30.4486 91.8976 32.8598C92.0629 35.2709 90.2673 42.2821 90.0621 43.6502L74.5691 44.8472C74.5691 44.8472 70.75 34.2278 70.9552 31.3606C71.132 28.9324 72.4145 24.2184 74.1701 23.4717Z" fill="#FDC7A9"/>
<path d="M76.5981 24.2545C75.7944 26.7739 75.7773 29.3846 75.6177 32.0181C75.6177 32.0751 75.7032 32.0808 75.7089 32.0181C75.84 29.4131 76.4841 26.8879 76.7178 24.2716C76.7292 24.2032 76.6209 24.1861 76.5981 24.2545Z" fill="#263238"/>
<path d="M81.2157 24.5728C81.091 25.1646 81.0431 25.77 81.0732 26.374C81.0732 27.0124 81.0732 27.6508 81.0732 28.2893C81.096 29.5737 81.1549 30.8543 81.2499 32.1311C81.2499 32.1881 81.3411 32.1939 81.3354 32.1311C81.3354 30.8543 81.3069 29.5775 81.3354 28.3007C81.3354 27.6622 81.3696 27.0238 81.3981 26.3854C81.4636 25.7849 81.4636 25.179 81.3981 24.5785C81.3988 24.5543 81.3899 24.5308 81.3734 24.5131C81.3568 24.4955 81.3339 24.4852 81.3097 24.4844C81.2855 24.4837 81.262 24.4925 81.2444 24.5091C81.2268 24.5257 81.2164 24.5486 81.2157 24.5728Z" fill="#263238"/>
<path d="M86.6254 25.2112C86.5217 25.7466 86.5063 26.2953 86.5798 26.8357C86.5798 27.4057 86.6254 27.9757 86.6482 28.5856C86.6824 29.7542 86.7166 30.917 86.7109 32.0855C86.7109 32.1425 86.8021 32.1482 86.8021 32.0855C86.8021 30.8999 86.842 29.7143 86.842 28.5286C86.842 27.9586 86.842 27.3601 86.842 26.7787C86.8871 26.2481 86.8388 25.7137 86.6995 25.1998C86.698 25.1899 86.6926 25.1811 86.6846 25.1752C86.6766 25.1693 86.6666 25.1669 86.6568 25.1684C86.6469 25.1699 86.6381 25.1753 86.6322 25.1833C86.6263 25.1913 86.6239 25.2013 86.6254 25.2112Z" fill="#263238"/>
<path d="M85.5703 60.5057L87.058 55.5523C87.5483 53.8992 88.0385 52.2462 88.4717 50.5817C88.9049 48.9173 89.3438 47.2529 89.7029 45.5713C89.891 44.7334 90.005 43.8613 90.1703 43.0291C90.3356 42.1968 90.5408 41.319 90.7403 40.5039C90.632 41.3589 90.5009 42.214 90.3755 43.0633C90.2501 43.9126 90.176 44.7733 90.0221 45.6283C89.7314 47.3384 89.321 49.0199 88.8821 50.6958C88.4432 52.3716 87.9245 54.0132 87.3716 55.6492C86.8186 57.2851 86.2144 58.9096 85.5703 60.5057Z" fill="#263238"/>
<path d="M73.3725 41.3203C73.572 41.8105 73.7601 42.3064 73.9425 42.7967V42.8309C73.8779 44.0621 73.8019 45.2914 73.7145 46.5188C73.6062 47.7444 73.5321 48.9756 73.401 50.2011C73.2699 51.4267 73.2357 52.6351 73.1958 53.8663L73.1559 57.5543C73.0134 56.3345 72.9279 55.1033 72.888 53.8663C72.8395 52.6304 72.8738 51.3926 72.9906 50.1612C73.0818 48.93 73.23 47.7102 73.344 46.4846C73.458 45.2591 73.6176 44.0393 73.7772 42.8195V42.848C73.6518 42.3406 73.5036 41.8333 73.3725 41.3203Z" fill="#263238"/>
<path d="M71.5083 49.7227C71.8162 49.801 72.1116 49.9219 72.3861 50.0818C72.6558 50.2381 72.9165 50.4093 73.167 50.5948C73.002 50.6074 72.8362 50.5821 72.6825 50.5207C72.5318 50.4713 72.3866 50.4064 72.2493 50.3269C71.9659 50.1748 71.7143 49.9697 71.5083 49.7227Z" fill="#263238"/>
</svg>
