<svg width="121" height="143" viewBox="0 0 121 143" fill="none" xmlns="http://www.w3.org/2000/svg">
<path d="M120.947 35.316C120.947 35.316 113.251 96.9395 100.601 110.796C85.3738 127.429 74.3985 124.993 68.2725 133.579C62.1347 124.981 51.1243 127.429 35.9204 110.785C23.2701 96.9278 15.5979 35.3043 15.5979 35.3043C48.9222 19.1282 68.3076 0.996094 68.3076 0.996094C68.8699 1.58176 88.1382 19.3976 120.947 35.316Z" fill="#50BFA5"/>
<path opacity="0.1" d="M68.2725 1.05466V133.579C62.1347 124.981 51.1243 127.429 35.9204 110.785C23.2701 96.9278 15.5979 35.3043 15.5979 35.3043C48.9222 19.1282 68.3076 0.996094 68.3076 0.996094L68.2725 1.05466Z" fill="black"/>
<path d="M23.762 40.2823C23.762 40.2823 30.2511 92.3361 40.9336 104.049C53.8182 118.105 63.0951 116.055 68.2724 123.294C73.4497 116.055 82.7617 118.117 95.5994 104.049C106.282 92.3361 112.771 40.2823 112.771 40.2823C84.6593 26.6129 68.2607 11.292 68.2607 11.292C68.2607 11.292 51.909 26.6129 23.762 40.2823Z" fill="#50BFA5"/>
<path opacity="0.2" d="M112.759 40.2824C112.759 40.2824 106.259 92.3244 95.5761 104.049C82.7501 118.105 73.438 116.056 68.2607 123.283V11.3154C68.7527 11.784 85.0459 26.8238 112.759 40.2824Z" fill="white"/>
<path d="M68.2606 87.9319C79.6591 87.9319 88.8994 78.6916 88.8994 67.2931C88.8994 55.8946 79.6591 46.6543 68.2606 46.6543C56.8621 46.6543 47.6218 55.8946 47.6218 67.2931C47.6218 78.6916 56.8621 87.9319 68.2606 87.9319Z" fill="#455A64"/>
<path d="M65.9178 80.7044L56.7229 71.1464L60.1315 67.8667L65.2033 73.1377L76.1201 56.376L80.0909 58.9646L65.9178 80.7044Z" fill="white"/>
<path d="M112.76 124.524L109.843 125.074L109.187 128.143L108.531 125.074L105.615 124.524L108.519 123.821L109.187 120.916L109.855 123.821L112.76 124.524Z" fill="#4668D6"/>
<path d="M26.3038 101.133L23.3872 101.672L22.7313 104.752L22.0753 101.672L19.1587 101.133L22.0636 100.419L22.7313 97.5137L23.3989 100.419L26.3038 101.133Z" fill="#4668D6"/>
<path d="M39.6216 20.0305L36.705 20.5693L36.0491 23.6382L35.4049 20.5693L32.4766 20.0188L35.3932 19.316L36.0491 16.4111L36.7168 19.316L39.6216 20.0305Z" fill="#4668D6"/>
<path d="M107.535 110.69L105.907 110.995L105.544 112.717L105.181 110.995L103.541 110.69L105.169 110.292L105.544 108.664L105.907 110.292L107.535 110.69Z" fill="#4668D6"/>
<path d="M118.815 76.4532L117.187 76.7577L116.824 78.4796L116.461 76.7577L114.821 76.4532L116.449 76.0549L116.824 74.4385L117.199 76.0549L118.815 76.4532Z" fill="#4668D6"/>
<path d="M104.97 16.4112L103.342 16.7157L102.979 18.4258L102.604 16.7157L100.976 16.4112L102.604 16.0129L102.979 14.3848L103.342 16.0129L104.97 16.4112Z" fill="#4668D6"/>
<path d="M63.3058 140.981L61.6776 141.286L61.3028 142.996L60.9397 141.286L59.3115 140.981L60.9397 140.583L61.3028 138.955L61.6776 140.583L63.3058 140.981Z" fill="#4668D6"/>
<path d="M17.2376 105.139L15.6095 105.443L15.2347 107.165L14.8716 105.443L13.2434 105.139L14.8716 104.74L15.2347 103.112L15.6095 104.74L17.2376 105.139Z" fill="#4668D6"/>
<path d="M19.7794 57.4659L18.1395 57.7704L17.7764 59.4922L17.4133 57.7704L15.7852 57.4659L17.4016 57.0676L17.7764 55.4395L18.1512 57.0676L19.7794 57.4659Z" fill="#4668D6"/>
<path d="M88.2084 118.41C88.0954 118.428 87.9925 118.486 87.9182 118.573C87.8438 118.659 87.803 118.77 87.803 118.885C87.803 118.999 87.8438 119.11 87.9182 119.197C87.9925 119.284 88.0954 119.341 88.2084 119.359C88.3215 119.341 88.4244 119.284 88.4987 119.197C88.5731 119.11 88.6139 118.999 88.6139 118.885C88.6139 118.77 88.5731 118.659 88.4987 118.573C88.4244 118.486 88.3215 118.428 88.2084 118.41Z" fill="#50BFA5"/>
<path d="M13.0092 32.6807C12.8962 32.6985 12.7933 32.7561 12.719 32.843C12.6446 32.93 12.6038 33.0406 12.6038 33.1551C12.6038 33.2695 12.6446 33.3801 12.719 33.4671C12.7933 33.554 12.8962 33.6116 13.0092 33.6294C13.1222 33.6116 13.2252 33.554 13.2995 33.4671C13.3739 33.3801 13.4147 33.2695 13.4147 33.1551C13.4147 33.0406 13.3739 32.93 13.2995 32.843C13.2252 32.7561 13.1222 32.6985 13.0092 32.6807Z" fill="#50BFA5"/>
<path d="M102.979 121.068C102.866 121.086 102.763 121.144 102.689 121.231C102.614 121.318 102.573 121.428 102.573 121.543C102.573 121.657 102.614 121.768 102.689 121.855C102.763 121.942 102.866 121.999 102.979 122.017C103.092 121.999 103.195 121.942 103.269 121.855C103.344 121.768 103.384 121.657 103.384 121.543C103.384 121.428 103.344 121.318 103.269 121.231C103.195 121.144 103.092 121.086 102.979 121.068Z" fill="#50BFA5"/>
<path d="M55.0833 47.2168C54.959 47.2168 54.8398 47.2662 54.752 47.354C54.6641 47.4419 54.6147 47.5611 54.6147 47.6853C54.6147 47.8096 54.6641 47.9288 54.752 48.0166C54.8398 48.1045 54.959 48.1539 55.0833 48.1539C55.2075 48.1539 55.3267 48.1045 55.4146 48.0166C55.5024 47.9288 55.5518 47.8096 55.5518 47.6853C55.5518 47.5611 55.5024 47.4419 55.4146 47.354C55.3267 47.2662 55.2075 47.2168 55.0833 47.2168Z" fill="#50BFA5"/>
<path d="M11.2993 66.2627C11.1863 66.2805 11.0833 66.3381 11.009 66.4251C10.9346 66.512 10.8938 66.6227 10.8938 66.7371C10.8938 66.8515 10.9346 66.9621 11.009 67.0491C11.0833 67.1361 11.1863 67.1937 11.2993 67.2115C11.4123 67.1937 11.5152 67.1361 11.5896 67.0491C11.6639 66.9621 11.7047 66.8515 11.7047 66.7371C11.7047 66.6227 11.6639 66.512 11.5896 66.4251C11.5152 66.3381 11.4123 66.2805 11.2993 66.2627Z" fill="#50BFA5"/>
<path d="M0.276853 61.1084C0.199025 61.123 0.12877 61.1644 0.0782124 61.2254C0.0276552 61.2863 0 61.363 0 61.4422C0 61.5214 0.0276552 61.5981 0.0782124 61.6591C0.12877 61.72 0.199025 61.7614 0.276853 61.7761C0.354682 61.7614 0.424973 61.72 0.47553 61.6591C0.526087 61.5981 0.553742 61.5214 0.553742 61.4422C0.553742 61.363 0.526087 61.2863 0.47553 61.2254C0.424973 61.1644 0.354682 61.123 0.276853 61.1084Z" fill="#50BFA5"/>
<path d="M90.5041 10.2383C90.4263 10.2529 90.3561 10.2943 90.3055 10.3553C90.255 10.4162 90.2273 10.4929 90.2273 10.5721C90.2273 10.6513 90.255 10.728 90.3055 10.789C90.3561 10.8499 90.4263 10.8913 90.5041 10.9059C90.582 10.8913 90.6523 10.8499 90.7028 10.789C90.7534 10.728 90.781 10.6513 90.781 10.5721C90.781 10.4929 90.7534 10.4162 90.7028 10.3553C90.6523 10.2943 90.582 10.2529 90.5041 10.2383Z" fill="#50BFA5"/>
<path d="M43.815 124.759C43.7371 124.773 43.6669 124.815 43.6163 124.876C43.5658 124.937 43.5381 125.013 43.5381 125.093C43.5381 125.172 43.5658 125.249 43.6163 125.309C43.6669 125.37 43.7371 125.412 43.815 125.426C43.8928 125.412 43.9631 125.37 44.0136 125.309C44.0642 125.249 44.0919 125.172 44.0919 125.093C44.0919 125.013 44.0642 124.937 44.0136 124.876C43.9631 124.815 43.8928 124.773 43.815 124.759Z" fill="#50BFA5"/>
<path d="M33.3553 118.609C33.1323 118.635 32.9264 118.741 32.777 118.909C32.6275 119.076 32.5449 119.293 32.5449 119.517C32.5449 119.742 32.6275 119.958 32.777 120.126C32.9264 120.293 33.1323 120.4 33.3553 120.425C33.5783 120.4 33.7841 120.293 33.9335 120.126C34.083 119.958 34.1656 119.742 34.1656 119.517C34.1656 119.293 34.083 119.076 33.9335 118.909C33.7841 118.741 33.5783 118.635 33.3553 118.609Z" fill="#50BFA5"/>
</svg>
