<svg width="323" height="379" viewBox="0 0 323 379" fill="none" xmlns="http://www.w3.org/2000/svg">
<path d="M167.736 378.668C252.971 378.668 322.068 370.176 322.068 359.701C322.068 349.225 252.971 340.733 167.736 340.733C82.5007 340.733 13.4038 349.225 13.4038 359.701C13.4038 370.176 82.5007 378.668 167.736 378.668Z" fill="#DCDCDC"/>
<path d="M245.395 292.96H187.457V296.853H245.395V292.96Z" fill="#455A64"/>
<path d="M191.807 157.532L191.529 175.974L189.766 292.96L189.709 296.853L188.932 348.169H185.981L185.205 296.853L185.147 292.96L183.384 175.974L183.106 157.532H191.807Z" fill="#455A64"/>
<path d="M183.106 157.532H191.807L191.529 175.974H183.384L183.106 157.532Z" fill="#263238"/>
<path d="M249.736 157.532L249.458 175.974L246.861 348.169H243.91L243.133 296.853L243.076 292.96L241.313 175.974L241.035 157.532H249.736Z" fill="#455A64"/>
<path d="M249.736 157.532L249.458 175.974H241.313L241.035 157.532H249.736Z" fill="#263238"/>
<path d="M218.371 292.96H160.433V296.853H218.371V292.96Z" fill="#37474F"/>
<path d="M164.784 157.532L164.506 175.974L162.743 292.96L162.685 296.853L161.909 348.169H158.957L156.36 175.974L156.083 157.532H164.784Z" fill="#37474F"/>
<path d="M156.083 157.532H164.784L164.506 175.974H156.36L156.083 157.532Z" fill="#263238"/>
<path d="M222.722 157.532L222.444 175.974L220.681 292.96L220.623 296.853L219.847 348.169H216.895L216.119 296.853L216.062 292.96L214.298 175.974L214.021 157.532H222.722Z" fill="#37474F"/>
<path d="M214.021 157.532H222.722L222.444 175.974H214.298L214.021 157.532Z" fill="#263238"/>
<path d="M254.259 148.948H152.623V159.05H254.259V148.948Z" fill="#FFC727"/>
<path opacity="0.1" d="M234.442 148.948H152.623V159.05H234.442V148.948Z" fill="#263238"/>
<path d="M260.727 60.0188L254.24 148.948H193.619L193.072 140.414L187.831 59.2598L252.601 59.9312L260.727 60.0188Z" fill="#FFC727"/>
<path opacity="0.1" d="M252.601 59.9312L248.145 148.948H193.619L193.072 140.414L187.831 59.2598L252.601 59.9312Z" fill="#263238"/>
<path d="M254.863 140.414L254.24 148.948H193.618L193.072 140.414H254.863Z" fill="#263238"/>
<path d="M181.44 11.7003C169.538 24.5853 168.436 56.2916 184.784 76.8355C198.622 94.2263 229.009 96.2213 241.505 84.874C254.768 72.8357 252.593 53.4986 241.419 45.9467C230.629 38.6575 218.248 40.2341 211.578 32.2734C208.377 28.4586 206.873 20.1378 202.398 14.2987C197.405 7.79788 187.535 5.09242 181.44 11.7003Z" fill="#263238"/>
<path d="M195.738 60.4275C192.642 81.2633 189.921 97.4085 184.669 101.934C180.434 105.554 174.234 108.483 167.775 110.79C160.859 113.163 153.797 115.071 146.635 116.502C144.431 116.96 142.591 117.3 141.288 117.553C138.058 118.157 130.181 96.9803 132.174 94.0412C132.634 93.3697 134.723 92.6399 137.684 91.8905C147.66 89.3797 167.564 86.6743 168.618 85.3799C169.672 84.0856 175.125 74.6165 182.513 62.2084C187.611 53.6347 192.269 50.7346 194.54 52.6712C195.814 53.7709 196.332 56.4082 195.738 60.4275Z" fill="#EB9481"/>
<path d="M146.635 116.502C143.43 118.449 140.1 120.175 136.668 121.67C133.909 122.741 125.888 125.563 124.431 122.643C123.473 120.619 127.958 118.381 131.139 116.726C132.807 115.85 134.79 113.807 134.186 112.756C133.142 110.809 128.858 113.203 126.079 115.169C120.703 118.965 113.622 125.592 109.98 122.955C108.591 121.981 109.98 119.831 111.993 117.69C108.591 120.278 104.901 122.468 103.368 121.427C102.963 121.159 102.672 120.745 102.555 120.268C102.438 119.792 102.502 119.288 102.735 118.858C102.3 119.11 101.8 119.224 101.299 119.186C100.799 119.148 100.322 118.959 99.9277 118.643C98.6627 117.495 99.0844 115.617 100.206 113.632C99.9856 113.627 99.7699 113.569 99.5765 113.462C99.3831 113.355 99.2177 113.203 99.0939 113.018C96.3053 109.388 107.805 97.3697 112.012 95.9878C124.364 91.9004 137.885 91.9004 137.885 91.9004C143.022 95.5012 146.644 116.493 146.635 116.502Z" fill="#EB9481"/>
<path d="M127.153 106.109C124.184 106.808 121.405 108.167 119.017 110.089C116.238 112.386 114.129 115.374 111.6 117.875C111.593 117.882 111.588 117.89 111.585 117.899C111.582 117.908 111.581 117.917 111.581 117.927C111.582 117.936 111.584 117.945 111.588 117.954C111.592 117.963 111.597 117.97 111.604 117.977C111.611 117.983 111.619 117.988 111.628 117.991C111.637 117.995 111.646 117.996 111.656 117.996C111.665 117.995 111.674 117.993 111.683 117.989C111.691 117.985 111.699 117.979 111.705 117.972C112.884 116.668 114.206 115.481 115.442 114.225C116.679 112.97 117.819 111.724 119.103 110.585C121.423 108.491 124.183 106.96 127.172 106.109C127.172 106.109 127.181 106.099 127.153 106.109Z" fill="#263238"/>
<path d="M124.374 100.873C121.072 101.96 117.887 103.385 114.868 105.126C111.648 107.14 109.243 110.196 106.876 113.145C105.445 114.91 104.062 116.707 102.726 118.536C102.669 118.614 102.726 118.721 102.832 118.643C105.227 115.607 107.716 112.645 110.297 109.758C112.671 107.064 115.547 104.875 118.759 103.316C120.589 102.421 122.496 101.681 124.384 100.932C124.422 100.922 124.403 100.863 124.374 100.873Z" fill="#263238"/>
<path d="M120.454 96.4257C117.292 97.3989 114.532 98.1677 111.83 100.153C108.806 102.574 106.093 105.37 103.751 108.474C102.467 110.118 101.231 111.812 100.024 113.515C99.9757 113.583 100.091 113.671 100.148 113.602C102.923 109.84 105.935 106.264 109.166 102.897C110.677 101.271 112.429 99.8952 114.36 98.8198C116.324 97.8447 118.366 97.0406 120.464 96.416C120.464 96.416 120.464 96.416 120.454 96.4257Z" fill="#263238"/>
<path d="M195.737 60.4277C192.642 81.2635 189.92 97.4086 184.669 101.934C180.433 105.554 174.233 108.483 167.774 110.79L194.539 52.6714C195.814 53.7711 196.331 56.4084 195.737 60.4277Z" fill="#263238"/>
<path d="M197.041 56.8268C197.041 57.148 197.041 57.4886 197.041 57.8C197.041 58.1114 197.041 58.345 196.983 58.6369C196.547 63.8383 195.705 68.9963 194.463 74.0619H193.62H192.796L186.088 74.2857H185.129L178.479 74.5096H177.626L175.182 74.5874L173.266 74.6555C173.266 74.6555 179.974 61.5954 187.64 53.7126C188.356 52.9574 189.168 52.3028 190.055 51.7663C193.524 49.888 196.974 50.9974 197.041 56.8268Z" fill="#4668D6"/>
<path d="M193.227 52.2238C193.502 52.2238 193.725 51.9972 193.725 51.7177C193.725 51.4382 193.502 51.2117 193.227 51.2117C192.952 51.2117 192.729 51.4382 192.729 51.7177C192.729 51.9972 192.952 52.2238 193.227 52.2238Z" fill="white"/>
<path d="M186.135 63.0843C186.135 63.1848 186.106 63.283 186.051 63.3664C185.995 63.4498 185.917 63.5147 185.825 63.5527C185.734 63.5907 185.633 63.6001 185.536 63.5798C185.439 63.5595 185.351 63.5103 185.281 63.4385C185.212 63.3668 185.165 63.2757 185.147 63.1769C185.129 63.0781 185.14 62.9761 185.179 62.8838C185.219 62.7915 185.284 62.7132 185.367 62.6587C185.45 62.6043 185.548 62.5763 185.647 62.5782C185.712 62.5782 185.776 62.5914 185.836 62.6169C185.896 62.6425 185.95 62.6799 185.996 62.727C186.041 62.7741 186.077 62.83 186.101 62.8914C186.125 62.9527 186.137 63.0183 186.135 63.0843Z" fill="white"/>
<path d="M193.227 63.5709C193.502 63.5709 193.725 63.3444 193.725 63.0649C193.725 62.7854 193.502 62.5588 193.227 62.5588C192.952 62.5588 192.729 62.7854 192.729 63.0649C192.729 63.3444 192.952 63.5709 193.227 63.5709Z" fill="white"/>
<path d="M189.432 57.8293C189.707 57.8293 189.93 57.6027 189.93 57.3232C189.93 57.0437 189.707 56.8171 189.432 56.8171C189.157 56.8171 188.934 57.0437 188.934 57.3232C188.934 57.6027 189.157 57.8293 189.432 57.8293Z" fill="white"/>
<path d="M197.041 56.8268C197.041 57.148 197.041 57.4886 197.041 57.8C196.967 57.8215 196.889 57.8253 196.813 57.8109C196.737 57.7966 196.666 57.7646 196.604 57.7174C196.542 57.6703 196.492 57.6092 196.458 57.5391C196.424 57.469 196.406 57.3918 196.406 57.3134C196.406 57.2351 196.424 57.1579 196.458 57.0877C196.492 57.0176 196.542 56.9566 196.604 56.9094C196.666 56.8623 196.737 56.8302 196.813 56.8159C196.889 56.8016 196.967 56.8053 197.041 56.8268Z" fill="white"/>
<path d="M178.555 74.4026C178.556 74.4842 178.536 74.5647 178.497 74.6362H177.645C177.595 74.5578 177.568 74.4667 177.568 74.3734C177.598 74.2677 177.66 74.1746 177.747 74.1084C177.833 74.0422 177.939 74.0063 178.047 74.0063C178.155 74.0063 178.261 74.0422 178.347 74.1084C178.434 74.1746 178.496 74.2677 178.526 74.3734L178.555 74.4026Z" fill="white"/>
<path d="M186.135 74.3734H185.177C185.207 74.2677 185.269 74.1746 185.356 74.1084C185.442 74.0422 185.548 74.0063 185.656 74.0063C185.764 74.0063 185.87 74.0422 185.956 74.1084C186.042 74.1746 186.105 74.2677 186.135 74.3734Z" fill="white"/>
<path d="M193.629 74.1203H192.805C192.848 74.0459 192.91 73.9844 192.984 73.9417C193.058 73.8991 193.141 73.8767 193.226 73.877C193.308 73.8809 193.387 73.9052 193.457 73.9476C193.528 73.99 193.587 74.0493 193.629 74.1203Z" fill="white"/>
<path d="M181.852 69.1764C182.127 69.1764 182.35 68.9499 182.35 68.6704C182.35 68.3909 182.127 68.1643 181.852 68.1643C181.577 68.1643 181.354 68.3909 181.354 68.6704C181.354 68.9499 181.577 69.1764 181.852 69.1764Z" fill="white"/>
<path d="M189.432 69.1764C189.707 69.1764 189.93 68.9499 189.93 68.6704C189.93 68.3909 189.707 68.1643 189.432 68.1643C189.157 68.1643 188.934 68.3909 188.934 68.6704C188.934 68.9499 189.157 69.1764 189.432 69.1764Z" fill="white"/>
<path d="M197.04 56.8269C197.04 57.1481 197.04 57.4887 197.04 57.8001C197.04 58.1116 197.04 58.3451 196.983 58.6371C196.547 63.8385 195.704 68.9964 194.462 74.062H193.619H192.795L186.087 74.2859H185.129L178.478 74.5097H177.625L175.182 74.5875L190.006 51.7859C193.523 49.8881 196.973 50.9976 197.04 56.8269Z" fill="#263238"/>
<path d="M149.653 306.575C152.02 306.166 209.517 274.947 210.983 272.348C211.539 271.375 207.553 262.616 202.436 252.135C201.324 249.877 200.174 247.551 198.986 245.196C191.319 229.898 182.81 213.85 182.81 213.85L144.287 234.628L161.536 265.4L165.311 272.163C165.311 272.163 148.551 294.118 147.257 297.135C145.964 300.152 147.286 306.984 149.653 306.575Z" fill="#EB9481"/>
<path d="M149.653 306.575C152.02 306.166 209.517 274.946 210.983 272.348C211.654 271.141 205.626 258.451 198.986 245.196L161.526 265.4L165.302 272.163C165.302 272.163 148.551 294.118 147.257 297.135C145.963 300.152 147.286 306.984 149.653 306.575Z" fill="white"/>
<path d="M149.653 306.575C152.02 306.166 209.517 274.946 210.983 272.348C211.539 271.375 207.553 262.616 202.435 252.135L165.302 272.163C165.302 272.163 148.551 294.118 147.257 297.135C145.963 300.152 147.286 306.984 149.653 306.575Z" fill="#974BAD"/>
<path d="M149.251 303.792C158.766 298.322 197.635 277.146 207.447 272.475C207.524 272.475 207.553 272.475 207.447 272.533C198.142 278.168 159.102 299.013 149.308 303.957C149.126 304.054 149.049 303.908 149.251 303.792Z" fill="#263238"/>
<path d="M149.845 293.028C150.901 292.417 152.071 292.036 153.28 291.908C154.49 291.781 155.712 291.91 156.869 292.288C158.96 292.945 160.719 294.4 161.776 296.347C161.776 296.405 161.699 296.463 161.661 296.405C160.313 294.644 158.439 293.375 156.32 292.789C154.202 292.203 151.953 292.331 149.912 293.155C149.835 293.184 149.768 293.077 149.845 293.028Z" fill="#263238"/>
<path d="M162.072 275.16C165.905 273.01 171.099 271.968 175.182 273.866C175.345 273.944 175.239 274.168 175.086 274.178C170.768 274.214 166.467 274.716 162.254 275.676C162.187 275.701 162.113 275.697 162.048 275.666C161.983 275.635 161.934 275.579 161.909 275.511C161.885 275.442 161.889 275.367 161.919 275.301C161.95 275.236 162.005 275.185 162.072 275.16Z" fill="#263238"/>
<path d="M159.715 277.963C163.549 275.813 168.742 274.762 172.825 276.669C172.988 276.737 172.882 276.971 172.729 276.971C168.411 277.005 164.109 277.511 159.897 278.479C159.864 278.491 159.829 278.497 159.793 278.495C159.758 278.493 159.723 278.484 159.691 278.469C159.659 278.454 159.63 278.432 159.607 278.405C159.583 278.379 159.564 278.348 159.552 278.314C159.54 278.28 159.535 278.244 159.537 278.208C159.539 278.172 159.547 278.137 159.562 278.104C159.578 278.072 159.599 278.043 159.625 278.018C159.651 277.994 159.682 277.975 159.715 277.963Z" fill="#263238"/>
<path d="M157.358 280.756C161.191 278.606 166.385 277.564 170.467 279.462C170.63 279.54 170.525 279.764 170.371 279.764C166.054 279.799 161.752 280.305 157.54 281.272C157.473 281.297 157.398 281.293 157.334 281.262C157.269 281.231 157.219 281.175 157.195 281.107C157.171 281.038 157.174 280.963 157.205 280.897C157.236 280.832 157.291 280.781 157.358 280.756Z" fill="#263238"/>
<path d="M155 283.549C158.833 281.399 164.027 280.357 168.11 282.255C168.272 282.333 168.167 282.557 168.014 282.566C163.696 282.602 159.394 283.107 155.182 284.075C155.117 284.087 155.05 284.075 154.993 284.041C154.936 284.007 154.893 283.954 154.871 283.891C154.849 283.828 154.85 283.758 154.874 283.696C154.898 283.633 154.942 283.581 155 283.549Z" fill="#263238"/>
<path d="M200.097 264.533C204.428 262.198 208.012 269.039 203.671 271.346C199.33 273.652 195.756 266.849 200.097 264.533Z" fill="#263238"/>
<path d="M155.728 272.552C159.245 274.148 163.318 274.139 167.084 274.577C167.168 274.58 167.252 274.563 167.329 274.527C167.405 274.491 167.472 274.437 167.524 274.37C167.575 274.302 167.61 274.223 167.625 274.138C167.641 274.054 167.636 273.968 167.611 273.886C167.628 273.88 167.643 273.87 167.655 273.857C167.667 273.845 167.677 273.829 167.682 273.812C167.688 273.795 167.689 273.777 167.687 273.76C167.685 273.742 167.678 273.725 167.669 273.71C165.493 270.272 162.466 267.473 158.891 265.594C156.792 264.543 153.486 264.271 152.394 266.976C151.301 269.681 153.668 271.618 155.728 272.552ZM153.812 269.399C151.953 264.932 157.463 266.149 158.977 266.986C159.954 267.546 160.892 268.173 161.785 268.864C163.653 270.265 165.292 271.91 167.007 273.487C165.177 273.156 163.328 272.99 161.488 272.728C159.312 272.416 154.876 271.861 153.841 269.399H153.812Z" fill="#263238"/>
<path d="M180.06 263.765C178.411 261.371 175.268 262.383 173.419 263.881C170.341 266.516 167.998 269.926 166.624 273.769C166.619 273.786 166.616 273.803 166.618 273.821C166.62 273.838 166.626 273.855 166.635 273.87C166.644 273.885 166.657 273.898 166.672 273.907C166.686 273.917 166.703 273.923 166.72 273.925C166.717 274.01 166.732 274.096 166.767 274.174C166.801 274.252 166.853 274.322 166.918 274.376C166.983 274.431 167.059 274.47 167.141 274.489C167.223 274.509 167.309 274.509 167.391 274.489C170.966 273.214 174.942 272.299 178.019 269.954C179.791 268.582 181.612 266.032 180.06 263.765ZM172.393 271.433C170.649 272.105 168.886 272.679 167.161 273.38C168.493 271.433 169.739 269.487 171.263 267.696C171.981 266.824 172.756 266.001 173.582 265.234C174.875 264.076 179.993 261.653 179.149 266.431C178.708 269.098 174.492 270.635 172.422 271.433H172.393Z" fill="#263238"/>
<path d="M171.167 178.893C172.125 190.289 197.941 240.204 197.941 240.204L164.008 257.478L157.214 260.942C157.214 260.942 125.811 204.722 127.507 179.419C128.954 157.95 165.551 130.896 188.061 104.484H218.401C208.818 134.428 173.706 167.488 171.253 177.579C171.161 178.011 171.132 178.453 171.167 178.893Z" fill="#455A64"/>
<path d="M157.176 252.651C163.884 249.021 161.881 249.975 168.589 246.422C171.876 244.68 188.359 235.912 191.684 234.803C191.701 234.798 191.719 234.8 191.735 234.807C191.751 234.814 191.764 234.827 191.772 234.843C191.78 234.859 191.782 234.877 191.778 234.895C191.774 234.912 191.765 234.928 191.751 234.939C188.876 237.021 172.25 245.439 168.934 247.113C162.169 250.539 164.076 249.488 157.272 252.836C157.26 252.846 157.246 252.854 157.23 252.858C157.215 252.862 157.199 252.862 157.184 252.859C157.168 252.856 157.153 252.85 157.141 252.84C157.128 252.83 157.118 252.818 157.11 252.804C157.103 252.79 157.099 252.774 157.098 252.758C157.098 252.742 157.101 252.726 157.107 252.711C157.113 252.697 157.123 252.684 157.135 252.673C157.147 252.663 157.161 252.655 157.176 252.651Z" fill="#263238"/>
<path d="M214.836 109.135C205.209 125.674 194.315 141.417 182.254 156.218C179.302 159.819 176.255 163.322 173.198 166.835C170.611 169.755 167.995 173.093 167.496 177.161C166.95 181.696 168.895 186.105 170.457 190.231C172.182 194.785 173.926 199.33 175.747 203.855C177.721 208.721 179.782 213.587 182.072 218.268C183.247 220.682 184.477 223.066 185.761 225.421C186.4 226.595 187.061 227.763 187.745 228.925C188.08 229.509 190.457 233.489 190.802 234.073C190.917 234.258 191.204 234.481 190.917 233.995C190.265 232.905 187.611 228.389 186.998 227.28C184.583 222.901 182.426 218.395 180.385 213.821C178.344 209.247 176.389 204.498 174.549 199.778C172.709 195.058 170.812 190.425 169.25 185.706C168.326 183.29 167.868 180.716 167.899 178.124C168.101 175.623 168.976 173.226 170.429 171.195C173.035 167.303 176.523 163.916 179.523 160.325C185.758 152.87 191.68 145.163 197.29 137.202C203.667 128.198 209.578 118.862 214.999 109.233C214.999 109.126 214.884 109.067 214.836 109.135Z" fill="#263238"/>
<path d="M197.941 240.204L164.008 257.478L171.167 178.893C172.125 190.289 197.941 240.204 197.941 240.204Z" fill="#263238"/>
<path d="M185.187 367.691C187.592 367.691 249.459 346.767 251.308 344.461C252.018 343.585 249.545 334.262 246.239 323.051C245.53 320.637 244.773 318.185 243.997 315.626C238.975 299.237 233.264 281.953 233.264 281.953L191.837 295.831L203.72 329.114L206.317 336.422C206.317 336.422 186.193 355.195 184.382 357.949C182.571 360.703 182.791 367.632 185.187 367.691Z" fill="#EB9481"/>
<path d="M185.186 367.691C187.592 367.691 249.459 346.767 251.308 344.461C252.171 343.39 248.337 329.863 243.996 315.645L203.748 329.133L206.345 336.442C206.345 336.442 186.221 355.215 184.41 357.969C182.599 360.723 182.791 367.632 185.186 367.691Z" fill="white"/>
<path d="M185.187 367.691C187.592 367.691 249.459 346.767 251.308 344.461C252.018 343.585 249.545 334.262 246.239 323.051L206.317 336.422C206.317 336.422 186.193 355.195 184.382 357.949C182.571 360.703 182.791 367.632 185.187 367.691Z" fill="#974BAD"/>
<path d="M185.253 364.82C195.536 361.064 237.375 346.855 247.82 343.936C247.906 343.936 247.925 343.936 247.82 343.994C237.71 347.955 195.766 361.813 185.292 364.995C185.09 365.063 185.033 364.908 185.253 364.82Z" fill="#263238"/>
<path d="M187.63 354.319C188.772 353.898 189.988 353.722 191.2 353.802C192.412 353.883 193.595 354.218 194.673 354.786C196.63 355.8 198.124 357.544 198.842 359.652C198.842 359.711 198.746 359.75 198.717 359.652C197.682 357.685 196.046 356.113 194.055 355.17C192.065 354.228 189.827 353.967 187.678 354.426C187.592 354.465 187.544 354.348 187.63 354.319Z" fill="#263238"/>
<path d="M202.646 338.807C206.776 337.337 212.076 337.201 215.784 339.78C215.928 339.877 215.784 340.082 215.641 340.062C211.379 339.355 207.055 339.114 202.742 339.342C202.674 339.35 202.606 339.332 202.551 339.291C202.495 339.25 202.458 339.189 202.446 339.12C202.433 339.052 202.447 338.981 202.485 338.923C202.522 338.865 202.58 338.823 202.646 338.807Z" fill="#263238"/>
<path d="M199.858 341.152C203.988 339.692 209.288 339.556 212.996 342.125C213.14 342.232 212.996 342.437 212.853 342.407C208.59 341.704 204.266 341.466 199.954 341.697C199.89 341.696 199.828 341.672 199.779 341.63C199.73 341.587 199.697 341.529 199.686 341.465C199.675 341.4 199.686 341.334 199.717 341.277C199.749 341.22 199.798 341.176 199.858 341.152Z" fill="#263238"/>
<path d="M197.04 343.507C201.171 342.048 206.47 341.902 210.179 344.481C210.322 344.578 210.179 344.782 210.044 344.763C205.779 344.059 201.452 343.821 197.136 344.052C197.072 344.051 197.01 344.027 196.961 343.985C196.912 343.942 196.879 343.884 196.868 343.82C196.857 343.756 196.868 343.689 196.899 343.632C196.931 343.575 196.981 343.531 197.04 343.507Z" fill="#263238"/>
<path d="M194.281 345.862C198.411 344.393 203.71 344.257 207.419 346.836C207.563 346.933 207.419 347.137 207.285 347.118C203.02 346.411 198.692 346.169 194.377 346.398C194.309 346.406 194.24 346.388 194.185 346.347C194.13 346.305 194.093 346.244 194.081 346.176C194.068 346.108 194.082 346.037 194.119 345.979C194.157 345.921 194.214 345.879 194.281 345.862Z" fill="#263238"/>
<path d="M241.897 334.817C246.564 333.26 248.96 340.656 244.284 342.174C239.607 343.692 237.231 336.383 241.897 334.817Z" fill="#263238"/>
<path d="M196.83 335.138C200.03 337.318 204.055 338.009 207.687 339.089C208.061 339.196 208.329 338.826 208.32 338.495C208.337 338.492 208.354 338.485 208.369 338.475C208.383 338.464 208.396 338.451 208.405 338.435C208.414 338.419 208.42 338.402 208.421 338.384C208.423 338.365 208.421 338.347 208.415 338.33C206.84 334.565 204.319 331.286 201.104 328.822C199.187 327.43 195.996 326.593 194.472 329.075C192.949 331.557 194.961 333.863 196.83 335.138ZM195.498 331.683C194.405 326.953 199.628 329.104 200.989 330.194C201.857 330.913 202.676 331.69 203.442 332.52C204.993 334.262 206.455 336.085 207.821 337.98C206.068 337.337 204.276 336.851 202.503 336.276C200.385 335.624 196.082 334.32 195.498 331.683Z" fill="#263238"/>
<path d="M222.272 330.71C221.046 328.063 217.759 328.51 215.708 329.678C212.237 331.749 209.362 334.709 207.371 338.262C207.361 338.277 207.355 338.295 207.354 338.313C207.352 338.331 207.354 338.349 207.361 338.366C207.367 338.383 207.378 338.399 207.391 338.411C207.405 338.423 207.421 338.432 207.438 338.437C207.39 338.758 207.61 339.167 208.003 339.099C211.741 338.456 215.804 338.242 219.234 336.452C221.237 335.362 223.432 333.152 222.272 330.71ZM213.466 336.948C211.635 337.308 209.805 337.58 207.984 338.009C209.623 336.335 211.175 334.602 212.967 333.143C213.82 332.404 214.723 331.727 215.67 331.119C217.136 330.194 222.579 328.676 220.959 333.25C220.039 335.673 215.65 336.471 213.466 336.899V336.948Z" fill="#263238"/>
<path d="M199.158 325.494L243.997 310.487C243.997 310.487 222.454 247.493 217.327 215.874C214.625 199.242 227.361 152.004 231.884 147.226C243.441 135.012 243.958 122.234 235.592 104.406H197.75C197.75 104.406 200.069 123.266 199.743 124.015C191.291 143.469 166.759 187.107 170.745 219.767C177.242 273.088 199.158 325.494 199.158 325.494Z" fill="#455A64"/>
<path d="M197.826 316.112C207.045 312.356 236.465 302.595 239.732 302.03C239.809 302.03 239.847 302.137 239.78 302.167C236.905 303.782 221.458 309.144 197.894 316.317C197.88 316.321 197.866 316.323 197.852 316.322C197.839 316.321 197.825 316.317 197.813 316.311C197.8 316.304 197.789 316.296 197.78 316.285C197.771 316.274 197.764 316.262 197.759 316.248C197.755 316.235 197.753 316.221 197.754 316.207C197.755 316.193 197.759 316.179 197.765 316.166C197.771 316.154 197.78 316.142 197.79 316.133C197.801 316.124 197.813 316.117 197.826 316.112Z" fill="#263238"/>
<path d="M196.801 105.175C197.415 110.109 197.606 118.566 200.433 118.566C203.26 118.566 202.292 108.25 202.263 105.914C202.263 103.754 202.973 104.017 203.174 106.557C203.701 113.427 203.806 119.51 200.184 119.403C196.562 119.296 196.083 108.571 196.083 106.128C196.083 104.863 196.61 103.618 196.801 105.175Z" fill="#263238"/>
<path d="M200.26 118.896C200.515 120.623 200.557 122.375 200.385 124.113C200.385 124.259 199.8 124.171 199.743 124.064C199.369 123.363 199.484 119.967 199.35 119.062C199.328 118.939 199.356 118.813 199.426 118.711C199.496 118.609 199.603 118.539 199.724 118.517C199.844 118.495 199.969 118.523 200.069 118.594C200.17 118.665 200.239 118.774 200.26 118.896Z" fill="#263238"/>
<path d="M199.743 124.064C192.805 136.317 182.666 159.43 181.967 163.692C181.967 163.906 182.158 164.013 182.245 163.799C183.826 159.907 194.396 136.638 200.385 124.113C200.51 123.87 199.858 123.85 199.743 124.064Z" fill="#263238"/>
<path d="M218.851 178.465C221.86 166.66 225.387 154.788 231.52 144.219C233.216 141.299 235.267 138.584 236.867 135.616C238.384 132.857 239.213 129.763 239.282 126.604C239.407 119.792 236.551 113.33 233.782 107.286C233.705 107.111 233.446 107.286 233.532 107.452C236.196 113.291 238.975 119.607 238.928 126.186C238.902 129.418 238.064 132.59 236.493 135.402C235.075 138 233.312 140.384 231.798 142.915C225.626 153.172 221.937 164.714 218.918 176.275C215.708 188.606 211.885 201.286 213.408 214.161C214.317 220.523 215.665 226.813 217.443 232.983C219.158 239.523 220.95 246.043 222.771 252.563C226.853 267.161 230.945 281.856 235.698 296.279C235.698 296.327 235.803 296.279 235.784 296.279C232.018 283.199 228.013 270.207 224.371 257.089C222.57 250.568 220.806 244.038 219.081 237.498C217.366 230.978 215.507 224.467 214.386 217.811C213.231 211.07 213.25 204.176 214.443 197.442C215.574 191.029 217.251 184.732 218.851 178.465Z" fill="#263238"/>
<path d="M237.125 105.486C235.35 106.546 233.51 107.489 231.615 108.308L230.714 108.678C225.44 110.778 219.919 112.169 214.289 112.814C197.452 114.897 181.564 111.335 180.222 109.116L182.014 91.8419L182.11 90.8687L182.35 88.5233C182.35 88.5233 178.191 83.1124 177.97 76.8451C177.96 76.1685 178.025 75.4928 178.162 74.8307C178.21 74.5387 178.277 74.237 178.354 73.9159C179.58 68.8553 183.547 61.3618 186.93 56.165C188.021 54.4167 189.248 52.7602 190.6 51.2115C194.434 47.1144 198.717 46.1801 202.924 47.3188C204.85 47.8865 206.67 48.7744 208.31 49.9464C212.321 52.9029 215.734 56.6168 218.362 60.8849C221.39 65.5854 224.61 72.4756 227.504 79.4338C227.61 79.6771 227.705 79.9204 227.801 80.1637C233.005 92.8735 237.125 105.486 237.125 105.486Z" fill="#4668D6"/>
<path d="M193.725 51.7177C193.725 51.8519 193.673 51.9807 193.579 52.0756C193.486 52.1705 193.359 52.2238 193.227 52.2238C193.128 52.2238 193.032 52.1941 192.95 52.1385C192.868 52.0829 192.804 52.0039 192.766 51.9114C192.729 51.8189 192.719 51.7172 192.738 51.619C192.757 51.5208 192.805 51.4307 192.874 51.3599C192.944 51.2891 193.033 51.2409 193.13 51.2214C193.226 51.2019 193.326 51.2119 193.418 51.2502C193.509 51.2885 193.586 51.3534 193.641 51.4366C193.696 51.5198 193.725 51.6176 193.725 51.7177ZM200.807 51.2214C200.708 51.2214 200.611 51.2514 200.529 51.3074C200.447 51.3635 200.383 51.4431 200.346 51.5361C200.308 51.6292 200.299 51.7314 200.319 51.8298C200.339 51.9282 200.387 52.0184 200.458 52.0888C200.529 52.1591 200.618 52.2065 200.716 52.2249C200.813 52.2434 200.913 52.2319 201.004 52.1921C201.095 52.1523 201.172 52.086 201.226 52.0015C201.28 51.917 201.307 51.8182 201.305 51.7177C201.305 51.6517 201.292 51.5864 201.267 51.5255C201.242 51.4647 201.205 51.4095 201.159 51.3633C201.112 51.3171 201.057 51.2807 200.997 51.2564C200.936 51.232 200.872 51.2201 200.807 51.2214ZM208.397 51.2214C208.297 51.2195 208.2 51.2478 208.116 51.3026C208.033 51.3575 207.967 51.4364 207.929 51.5293C207.89 51.6221 207.879 51.7247 207.898 51.8237C207.917 51.9228 207.964 52.0138 208.035 52.0852C208.105 52.1566 208.195 52.2049 208.292 52.2242C208.39 52.2434 208.491 52.2325 208.582 52.193C208.674 52.1535 208.751 52.0872 208.805 52.0025C208.859 51.9178 208.887 51.8186 208.885 51.7177C208.885 51.5861 208.834 51.4598 208.742 51.3668C208.65 51.2737 208.526 51.2214 208.397 51.2214ZM185.647 62.559C185.581 62.559 185.517 62.5721 185.456 62.5975C185.396 62.6229 185.341 62.6602 185.294 62.7072C185.248 62.7542 185.211 62.81 185.186 62.8714C185.161 62.9328 185.148 62.9986 185.148 63.065C185.127 63.1404 185.124 63.2196 185.138 63.2966C185.152 63.3736 185.183 63.4463 185.23 63.5088C185.276 63.5713 185.336 63.6221 185.405 63.657C185.474 63.6919 185.55 63.7101 185.628 63.7101C185.705 63.7101 185.781 63.6919 185.85 63.657C185.919 63.6221 185.979 63.5713 186.025 63.5088C186.072 63.4463 186.103 63.3736 186.118 63.2966C186.132 63.2196 186.128 63.1404 186.107 63.065C186.109 62.9366 186.063 62.8122 185.977 62.7178C185.891 62.6234 185.773 62.5665 185.647 62.559ZM193.227 62.559C193.161 62.559 193.097 62.5721 193.036 62.5975C192.976 62.6229 192.921 62.6602 192.874 62.7072C192.828 62.7542 192.791 62.81 192.766 62.8714C192.741 62.9328 192.729 62.9986 192.729 63.065C192.729 63.1993 192.781 63.328 192.874 63.4229C192.968 63.5178 193.095 63.5711 193.227 63.5711C193.358 63.5686 193.484 63.5145 193.576 63.4201C193.669 63.3258 193.723 63.1985 193.725 63.065C193.725 62.9969 193.712 62.9295 193.685 62.8668C193.659 62.8041 193.621 62.7474 193.572 62.7001C193.524 62.6529 193.467 62.616 193.404 62.5918C193.342 62.5675 193.275 62.5564 193.208 62.559H193.227ZM200.807 62.559C200.742 62.559 200.678 62.5721 200.618 62.5977C200.558 62.6232 200.503 62.6607 200.458 62.7078C200.412 62.7549 200.377 62.8108 200.353 62.8721C200.329 62.9335 200.317 62.999 200.318 63.065C200.318 63.1655 200.348 63.2638 200.403 63.3472C200.458 63.4306 200.536 63.4954 200.628 63.5334C200.72 63.5714 200.82 63.5809 200.917 63.5605C201.014 63.5402 201.103 63.491 201.172 63.4193C201.242 63.3475 201.288 63.2565 201.306 63.1577C201.324 63.0589 201.313 62.9568 201.274 62.8645C201.235 62.7723 201.169 62.6939 201.086 62.6395C201.003 62.5851 200.906 62.5571 200.807 62.559ZM208.397 62.559C208.331 62.559 208.266 62.5721 208.206 62.5975C208.145 62.6229 208.09 62.6602 208.044 62.7072C207.998 62.7542 207.961 62.81 207.936 62.8714C207.911 62.9328 207.898 62.9986 207.898 63.065C207.877 63.1404 207.873 63.2196 207.887 63.2966C207.902 63.3736 207.933 63.4463 207.98 63.5088C208.026 63.5713 208.086 63.6221 208.155 63.657C208.224 63.6919 208.3 63.7101 208.377 63.7101C208.454 63.7101 208.531 63.6919 208.6 63.657C208.669 63.6221 208.729 63.5713 208.775 63.5088C208.822 63.4463 208.853 63.3736 208.867 63.2966C208.881 63.2196 208.878 63.1404 208.856 63.065C208.859 62.9366 208.813 62.8122 208.727 62.7178C208.641 62.6234 208.523 62.5665 208.397 62.559ZM215.977 62.559C215.911 62.559 215.846 62.5721 215.786 62.5975C215.725 62.6229 215.67 62.6602 215.624 62.7072C215.578 62.7542 215.541 62.81 215.516 62.8714C215.491 62.9328 215.478 62.9986 215.478 63.065C215.478 63.1993 215.531 63.328 215.624 63.4229C215.718 63.5178 215.844 63.5711 215.977 63.5711C216.108 63.5686 216.233 63.5145 216.326 63.4201C216.419 63.3258 216.472 63.1985 216.475 63.065C216.475 62.9986 216.462 62.9328 216.437 62.8714C216.412 62.81 216.375 62.7542 216.329 62.7072C216.283 62.6602 216.228 62.6229 216.167 62.5975C216.107 62.5721 216.042 62.559 215.977 62.559ZM189.432 56.8269C189.333 56.827 189.236 56.8569 189.154 56.9129C189.072 56.969 189.008 57.0486 188.971 57.1417C188.933 57.2347 188.924 57.3369 188.944 57.4353C188.964 57.5338 189.013 57.6239 189.083 57.6943C189.154 57.7647 189.244 57.8121 189.341 57.8305C189.438 57.8489 189.539 57.8375 189.629 57.7977C189.72 57.7579 189.797 57.6915 189.851 57.607C189.905 57.5225 189.932 57.4237 189.93 57.3233C189.93 57.2573 189.917 57.1919 189.892 57.1311C189.867 57.0702 189.83 57.015 189.784 56.9688C189.737 56.9226 189.682 56.8863 189.622 56.8619C189.562 56.8375 189.497 56.8256 189.432 56.8269ZM197.022 56.8269C196.922 56.825 196.825 56.8533 196.741 56.9082C196.658 56.963 196.593 57.0419 196.554 57.1348C196.515 57.2277 196.504 57.3302 196.523 57.4293C196.542 57.5283 196.59 57.6194 196.66 57.6907C196.73 57.7621 196.82 57.8105 196.917 57.8297C197.015 57.8489 197.116 57.8381 197.207 57.7986C197.299 57.7591 197.376 57.6927 197.43 57.608C197.484 57.5233 197.512 57.4242 197.51 57.3233C197.51 57.1949 197.462 57.0716 197.374 56.979C197.287 56.8865 197.167 56.832 197.041 56.8269H197.022ZM204.602 56.8269C204.528 56.8054 204.449 56.8017 204.374 56.816C204.298 56.8303 204.226 56.8624 204.165 56.9095C204.103 56.9567 204.053 57.0177 204.019 57.0878C203.984 57.158 203.967 57.2352 203.967 57.3135C203.967 57.3919 203.984 57.4691 204.019 57.5392C204.053 57.6093 204.103 57.6704 204.165 57.7175C204.226 57.7647 204.298 57.7967 204.374 57.811C204.449 57.8254 204.528 57.8216 204.602 57.8001C204.676 57.8216 204.754 57.8254 204.83 57.811C204.906 57.7967 204.977 57.7647 205.039 57.7175C205.1 57.6704 205.15 57.6093 205.185 57.5392C205.219 57.4691 205.237 57.3919 205.237 57.3135C205.237 57.2352 205.219 57.158 205.185 57.0878C205.15 57.0177 205.1 56.9567 205.039 56.9095C204.977 56.8624 204.906 56.8303 204.83 56.816C204.754 56.8017 204.676 56.8054 204.602 56.8269ZM212.182 56.8269C212.083 56.827 211.986 56.8569 211.904 56.9129C211.822 56.969 211.758 57.0486 211.721 57.1417C211.683 57.2347 211.674 57.3369 211.694 57.4353C211.714 57.5338 211.762 57.6239 211.833 57.6943C211.904 57.7647 211.993 57.8121 212.091 57.8305C212.188 57.8489 212.288 57.8375 212.379 57.7977C212.47 57.7579 212.547 57.6915 212.601 57.607C212.654 57.5225 212.682 57.4237 212.68 57.3233C212.68 57.2573 212.667 57.1919 212.642 57.1311C212.617 57.0702 212.58 57.015 212.534 56.9688C212.487 56.9226 212.432 56.8863 212.372 56.8619C212.311 56.8375 212.247 56.8256 212.182 56.8269ZM178.325 73.9842C178.249 74.3053 178.182 74.607 178.134 74.899C178.251 74.8824 178.359 74.8229 178.437 74.7315C178.514 74.6402 178.557 74.5233 178.555 74.4026C178.556 74.3187 178.535 74.236 178.495 74.1627C178.454 74.0893 178.396 74.0278 178.325 73.9842ZM185.647 73.9063C185.547 73.9044 185.45 73.9327 185.366 73.9875C185.283 74.0424 185.218 74.1213 185.179 74.2142C185.14 74.307 185.129 74.4096 185.148 74.5086C185.167 74.6077 185.215 74.6987 185.285 74.7701C185.355 74.8415 185.445 74.8899 185.542 74.9091C185.64 74.9283 185.741 74.9174 185.832 74.8779C185.924 74.8384 186.001 74.7721 186.056 74.6874C186.11 74.6027 186.137 74.5035 186.135 74.4026C186.135 74.271 186.084 74.1448 185.992 74.0517C185.901 73.9586 185.776 73.9063 185.647 73.9063ZM193.227 73.9063C193.153 73.8848 193.075 73.8811 192.999 73.8954C192.923 73.9097 192.851 73.9417 192.79 73.9889C192.728 74.0361 192.678 74.0971 192.644 74.1672C192.61 74.2373 192.592 74.3146 192.592 74.3929C192.592 74.4712 192.61 74.5485 192.644 74.6186C192.678 74.6887 192.728 74.7497 192.79 74.7969C192.851 74.8441 192.923 74.8761 192.999 74.8904C193.075 74.9047 193.153 74.901 193.227 74.8795C193.301 74.901 193.379 74.9047 193.455 74.8904C193.531 74.8761 193.602 74.8441 193.664 74.7969C193.725 74.7497 193.775 74.6887 193.81 74.6186C193.844 74.5485 193.862 74.4712 193.862 74.3929C193.862 74.3146 193.844 74.2373 193.81 74.1672C193.775 74.0971 193.725 74.0361 193.664 73.9889C193.602 73.9417 193.531 73.9097 193.455 73.8954C193.379 73.8811 193.301 73.8848 193.227 73.9063ZM200.807 73.9063C200.708 73.9063 200.611 73.9363 200.529 73.9923C200.447 74.0484 200.383 74.128 200.346 74.221C200.308 74.3141 200.299 74.4163 200.319 74.5147C200.339 74.6131 200.387 74.7033 200.458 74.7737C200.529 74.844 200.618 74.8914 200.716 74.9099C200.813 74.9283 200.913 74.9168 201.004 74.8771C201.095 74.8373 201.172 74.7709 201.226 74.6864C201.28 74.6019 201.307 74.5031 201.305 74.4026C201.305 74.3366 201.292 74.2713 201.267 74.2104C201.242 74.1496 201.205 74.0944 201.159 74.0482C201.112 74.002 201.057 73.9656 200.997 73.9413C200.936 73.9169 200.872 73.905 200.807 73.9063ZM208.397 73.9063C208.297 73.9044 208.2 73.9327 208.116 73.9875C208.033 74.0424 207.967 74.1213 207.929 74.2142C207.89 74.307 207.879 74.4096 207.898 74.5086C207.917 74.6077 207.964 74.6987 208.035 74.7701C208.105 74.8415 208.195 74.8899 208.292 74.9091C208.39 74.9283 208.491 74.9174 208.582 74.8779C208.674 74.8384 208.751 74.7721 208.805 74.6874C208.859 74.6027 208.887 74.5035 208.885 74.4026C208.885 74.271 208.834 74.1448 208.742 74.0517C208.65 73.9586 208.526 73.9063 208.397 73.9063ZM215.977 73.9063C215.902 73.8848 215.824 73.8811 215.749 73.8954C215.673 73.9097 215.601 73.9417 215.54 73.9889C215.478 74.0361 215.428 74.0971 215.394 74.1672C215.359 74.2373 215.341 74.3146 215.341 74.3929C215.341 74.4712 215.359 74.5485 215.394 74.6186C215.428 74.6887 215.478 74.7497 215.54 74.7969C215.601 74.8441 215.673 74.8761 215.749 74.8904C215.824 74.9047 215.902 74.901 215.977 74.8795C216.051 74.901 216.129 74.9047 216.205 74.8904C216.28 74.8761 216.352 74.8441 216.414 74.7969C216.475 74.7497 216.525 74.6887 216.559 74.6186C216.594 74.5485 216.612 74.4712 216.612 74.3929C216.612 74.3146 216.594 74.2373 216.559 74.1672C216.525 74.0971 216.475 74.0361 216.414 73.9889C216.352 73.9417 216.28 73.9097 216.205 73.8954C216.129 73.8811 216.051 73.8848 215.977 73.9063ZM223.557 73.9063C223.458 73.9063 223.361 73.9363 223.279 73.9923C223.197 74.0484 223.133 74.128 223.095 74.221C223.058 74.3141 223.049 74.4163 223.069 74.5147C223.089 74.6131 223.137 74.7033 223.208 74.7737C223.278 74.844 223.368 74.8914 223.465 74.9099C223.563 74.9283 223.663 74.9168 223.754 74.8771C223.845 74.8373 223.922 74.7709 223.976 74.6864C224.029 74.6019 224.057 74.5031 224.055 74.4026C224.055 74.3366 224.042 74.2713 224.017 74.2104C223.992 74.1496 223.955 74.0944 223.908 74.0482C223.862 74.002 223.807 73.9656 223.747 73.9413C223.686 73.9169 223.622 73.905 223.557 73.9063ZM181.852 68.1645C181.72 68.1645 181.593 68.2178 181.5 68.3127C181.406 68.4076 181.354 68.5364 181.354 68.6706C181.354 68.8048 181.406 68.9335 181.5 69.0284C181.593 69.1233 181.72 69.1766 181.852 69.1766C181.983 69.1741 182.109 69.12 182.202 69.0257C182.295 68.9313 182.348 68.804 182.35 68.6706C182.35 68.6041 182.337 68.5383 182.312 68.4769C182.287 68.4155 182.251 68.3597 182.204 68.3127C182.158 68.2657 182.103 68.2285 182.043 68.203C181.982 68.1776 181.917 68.1645 181.852 68.1645ZM189.432 68.1645C189.367 68.1645 189.303 68.1777 189.243 68.2032C189.183 68.2288 189.129 68.2662 189.083 68.3133C189.037 68.3604 189.002 68.4163 188.978 68.4777C188.954 68.539 188.942 68.6046 188.943 68.6706C188.943 68.7711 188.973 68.8693 189.028 68.9527C189.083 69.0361 189.162 69.101 189.253 69.139C189.345 69.177 189.445 69.1864 189.542 69.1661C189.639 69.1458 189.728 69.0966 189.797 69.0248C189.867 68.9531 189.913 68.862 189.931 68.7632C189.95 68.6644 189.938 68.5624 189.899 68.4701C189.86 68.3778 189.795 68.2995 189.711 68.245C189.628 68.1906 189.531 68.1626 189.432 68.1645ZM197.022 68.1645C196.89 68.1645 196.763 68.2178 196.669 68.3127C196.576 68.4076 196.523 68.5364 196.523 68.6706C196.502 68.7459 196.498 68.8252 196.513 68.9022C196.527 68.9792 196.558 69.0518 196.605 69.1143C196.651 69.1769 196.711 69.2276 196.78 69.2625C196.849 69.2975 196.925 69.3156 197.002 69.3156C197.08 69.3156 197.156 69.2975 197.225 69.2625C197.294 69.2276 197.354 69.1769 197.4 69.1143C197.447 69.0518 197.478 68.9792 197.492 68.9022C197.506 68.8252 197.503 68.7459 197.482 68.6706C197.485 68.5453 197.441 68.4235 197.359 68.3296C197.277 68.2358 197.164 68.1768 197.041 68.1645H197.022ZM204.602 68.1645C204.47 68.1645 204.343 68.2178 204.249 68.3127C204.156 68.4076 204.103 68.5364 204.103 68.6706C204.103 68.8048 204.156 68.9335 204.249 69.0284C204.343 69.1233 204.47 69.1766 204.602 69.1766C204.733 69.1741 204.858 69.12 204.951 69.0257C205.044 68.9313 205.098 68.804 205.1 68.6706C205.1 68.6041 205.087 68.5383 205.062 68.4769C205.037 68.4155 205 68.3597 204.954 68.3127C204.908 68.2657 204.853 68.2285 204.792 68.203C204.732 68.1776 204.667 68.1645 204.602 68.1645ZM212.182 68.1645C212.117 68.1645 212.052 68.1777 211.993 68.2032C211.933 68.2288 211.878 68.2662 211.833 68.3133C211.787 68.3604 211.751 68.4163 211.727 68.4777C211.703 68.539 211.692 68.6046 211.693 68.6706C211.693 68.7711 211.723 68.8693 211.778 68.9527C211.833 69.0361 211.911 69.101 212.003 69.139C212.095 69.177 212.195 69.1864 212.292 69.1661C212.389 69.1458 212.478 69.0966 212.547 69.0248C212.616 68.9531 212.663 68.862 212.681 68.7632C212.699 68.6644 212.688 68.5624 212.649 68.4701C212.61 68.3778 212.544 68.2995 212.461 68.245C212.378 68.1906 212.281 68.1626 212.182 68.1645ZM219.771 68.1645C219.639 68.1645 219.512 68.2178 219.419 68.3127C219.326 68.4076 219.273 68.5364 219.273 68.6706C219.252 68.7459 219.248 68.8252 219.262 68.9022C219.276 68.9792 219.308 69.0518 219.354 69.1143C219.401 69.1769 219.461 69.2276 219.53 69.2625C219.599 69.2975 219.675 69.3156 219.752 69.3156C219.829 69.3156 219.905 69.2975 219.974 69.2625C220.044 69.2276 220.104 69.1769 220.15 69.1143C220.197 69.0518 220.228 68.9792 220.242 68.9022C220.256 68.8252 220.253 68.7459 220.231 68.6706C220.234 68.5422 220.188 68.4177 220.102 68.3233C220.016 68.229 219.898 68.1721 219.771 68.1645ZM185.647 85.2439C185.515 85.2439 185.388 85.2972 185.294 85.3921C185.201 85.487 185.148 85.6157 185.148 85.7499C185.127 85.8253 185.124 85.9045 185.138 85.9815C185.152 86.0585 185.183 86.1312 185.23 86.1937C185.276 86.2562 185.336 86.307 185.405 86.3419C185.474 86.3768 185.55 86.395 185.628 86.395C185.705 86.395 185.781 86.3768 185.85 86.3419C185.919 86.307 185.979 86.2562 186.025 86.1937C186.072 86.1312 186.103 86.0585 186.118 85.9815C186.132 85.9045 186.128 85.8253 186.107 85.7499C186.109 85.6215 186.063 85.4971 185.977 85.4027C185.891 85.3083 185.773 85.2514 185.647 85.2439ZM193.227 85.2439C193.095 85.2439 192.968 85.2972 192.874 85.3921C192.781 85.487 192.729 85.6157 192.729 85.7499C192.729 85.8842 192.781 86.0129 192.874 86.1078C192.968 86.2027 193.095 86.256 193.227 86.256C193.358 86.2535 193.484 86.1994 193.576 86.105C193.669 86.0107 193.723 85.8834 193.725 85.7499C193.725 85.6818 193.712 85.6144 193.685 85.5517C193.659 85.489 193.621 85.4323 193.572 85.3851C193.524 85.3378 193.467 85.3009 193.404 85.2767C193.342 85.2524 193.275 85.2413 193.208 85.2439H193.227ZM200.807 85.2439C200.742 85.2439 200.678 85.257 200.618 85.2826C200.558 85.3081 200.503 85.3456 200.458 85.3927C200.412 85.4398 200.377 85.4957 200.353 85.557C200.329 85.6184 200.317 85.6839 200.318 85.7499C200.318 85.8504 200.348 85.9487 200.403 86.0321C200.458 86.1155 200.536 86.1803 200.628 86.2183C200.72 86.2563 200.82 86.2658 200.917 86.2454C201.014 86.2251 201.103 86.1759 201.172 86.1042C201.242 86.0324 201.288 85.9414 201.306 85.8426C201.324 85.7438 201.313 85.6417 201.274 85.5495C201.235 85.4572 201.169 85.3788 201.086 85.3244C201.003 85.27 200.906 85.242 200.807 85.2439ZM208.397 85.2439C208.264 85.2439 208.138 85.2972 208.044 85.3921C207.951 85.487 207.898 85.6157 207.898 85.7499C207.877 85.8253 207.873 85.9045 207.887 85.9815C207.902 86.0585 207.933 86.1312 207.98 86.1937C208.026 86.2562 208.086 86.307 208.155 86.3419C208.224 86.3768 208.3 86.395 208.377 86.395C208.454 86.395 208.531 86.3768 208.6 86.3419C208.669 86.307 208.729 86.2562 208.775 86.1937C208.822 86.1312 208.853 86.0585 208.867 85.9815C208.881 85.9045 208.878 85.8253 208.856 85.7499C208.859 85.6215 208.813 85.4971 208.727 85.4027C208.641 85.3083 208.523 85.2514 208.397 85.2439ZM215.977 85.2439C215.844 85.2439 215.718 85.2972 215.624 85.3921C215.531 85.487 215.478 85.6157 215.478 85.7499C215.478 85.8842 215.531 86.0129 215.624 86.1078C215.718 86.2027 215.844 86.256 215.977 86.256C216.108 86.2535 216.233 86.1994 216.326 86.105C216.419 86.0107 216.472 85.8834 216.475 85.7499C216.475 85.6835 216.462 85.6177 216.437 85.5563C216.412 85.4949 216.375 85.4391 216.329 85.3921C216.283 85.3451 216.228 85.3078 216.167 85.2824C216.107 85.257 216.042 85.2439 215.977 85.2439ZM223.557 85.2439C223.492 85.2439 223.427 85.257 223.367 85.2826C223.307 85.3081 223.253 85.3456 223.208 85.3927C223.162 85.4398 223.126 85.4957 223.102 85.557C223.078 85.6184 223.067 85.6839 223.068 85.7499C223.068 85.8504 223.097 85.9487 223.153 86.0321C223.208 86.1155 223.286 86.1803 223.378 86.2183C223.469 86.2563 223.57 86.2658 223.667 86.2454C223.764 86.2251 223.853 86.1759 223.922 86.1042C223.991 86.0324 224.038 85.9414 224.056 85.8426C224.074 85.7438 224.063 85.6417 224.024 85.5495C223.985 85.4572 223.919 85.3788 223.836 85.3244C223.753 85.27 223.656 85.242 223.557 85.2439ZM181.852 79.5118C181.778 79.4903 181.7 79.4866 181.624 79.5009C181.548 79.5153 181.477 79.5473 181.415 79.5944C181.353 79.6416 181.303 79.7026 181.269 79.7727C181.235 79.8428 181.217 79.9201 181.217 79.9984C181.217 80.0768 181.235 80.154 181.269 80.2241C181.303 80.2942 181.353 80.3553 181.415 80.4024C181.477 80.4496 181.548 80.4816 181.624 80.4959C181.7 80.5103 181.778 80.5065 181.852 80.485C181.926 80.5065 182.004 80.5103 182.08 80.4959C182.156 80.4816 182.227 80.4496 182.289 80.4024C182.35 80.3553 182.4 80.2942 182.435 80.2241C182.469 80.154 182.487 80.0768 182.487 79.9984C182.487 79.9201 182.469 79.8428 182.435 79.7727C182.4 79.7026 182.35 79.6416 182.289 79.5944C182.227 79.5473 182.156 79.5153 182.08 79.5009C182.004 79.4866 181.926 79.4903 181.852 79.5118ZM189.432 79.5118C189.333 79.5119 189.236 79.5418 189.154 79.5979C189.072 79.6539 189.008 79.7335 188.971 79.8266C188.933 79.9196 188.924 80.0218 188.944 80.1203C188.964 80.2187 189.013 80.3088 189.083 80.3792C189.154 80.4496 189.244 80.497 189.341 80.5154C189.438 80.5338 189.539 80.5224 189.629 80.4826C189.72 80.4428 189.797 80.3764 189.851 80.2919C189.905 80.2074 189.932 80.1086 189.93 80.0082C189.93 79.9422 189.917 79.8768 189.892 79.816C189.867 79.7551 189.83 79.6999 189.784 79.6537C189.737 79.6075 189.682 79.5712 189.622 79.5468C189.562 79.5224 189.497 79.5106 189.432 79.5118ZM197.022 79.5118C196.922 79.5099 196.825 79.5382 196.741 79.5931C196.658 79.6479 196.593 79.7269 196.554 79.8197C196.515 79.9126 196.504 80.0151 196.523 80.1142C196.542 80.2132 196.59 80.3043 196.66 80.3757C196.73 80.447 196.82 80.4954 196.917 80.5146C197.015 80.5338 197.116 80.523 197.207 80.4835C197.299 80.444 197.376 80.3776 197.43 80.2929C197.484 80.2082 197.512 80.1091 197.51 80.0082C197.51 79.8798 197.462 79.7565 197.374 79.6639C197.287 79.5714 197.167 79.5169 197.041 79.5118H197.022ZM204.602 79.5118C204.528 79.4903 204.449 79.4866 204.374 79.5009C204.298 79.5153 204.226 79.5473 204.165 79.5944C204.103 79.6416 204.053 79.7026 204.019 79.7727C203.984 79.8428 203.967 79.9201 203.967 79.9984C203.967 80.0768 203.984 80.154 204.019 80.2241C204.053 80.2942 204.103 80.3553 204.165 80.4024C204.226 80.4496 204.298 80.4816 204.374 80.4959C204.449 80.5103 204.528 80.5065 204.602 80.485C204.676 80.5065 204.754 80.5103 204.83 80.4959C204.906 80.4816 204.977 80.4496 205.039 80.4024C205.1 80.3553 205.15 80.2942 205.185 80.2241C205.219 80.154 205.237 80.0768 205.237 79.9984C205.237 79.9201 205.219 79.8428 205.185 79.7727C205.15 79.7026 205.1 79.6416 205.039 79.5944C204.977 79.5473 204.906 79.5153 204.83 79.5009C204.754 79.4866 204.676 79.4903 204.602 79.5118ZM212.182 79.5118C212.083 79.5119 211.986 79.5418 211.904 79.5979C211.822 79.6539 211.758 79.7335 211.721 79.8266C211.683 79.9196 211.674 80.0218 211.694 80.1203C211.714 80.2187 211.762 80.3088 211.833 80.3792C211.904 80.4496 211.993 80.497 212.091 80.5154C212.188 80.5338 212.288 80.5224 212.379 80.4826C212.47 80.4428 212.547 80.3764 212.601 80.2919C212.654 80.2074 212.682 80.1086 212.68 80.0082C212.68 79.9422 212.667 79.8768 212.642 79.816C212.617 79.7551 212.58 79.6999 212.534 79.6537C212.487 79.6075 212.432 79.5712 212.372 79.5468C212.311 79.5224 212.247 79.5106 212.182 79.5118ZM219.771 79.5118C219.672 79.5099 219.574 79.5382 219.491 79.5931C219.408 79.6479 219.342 79.7269 219.303 79.8197C219.264 79.9126 219.254 80.0151 219.273 80.1142C219.292 80.2132 219.339 80.3043 219.41 80.3757C219.48 80.447 219.569 80.4954 219.667 80.5146C219.765 80.5338 219.866 80.523 219.957 80.4835C220.048 80.444 220.126 80.3776 220.18 80.2929C220.234 80.2082 220.262 80.1091 220.26 80.0082C220.26 79.943 220.248 79.8784 220.223 79.8182C220.198 79.758 220.162 79.7033 220.117 79.6572C220.072 79.6111 220.018 79.5746 219.958 79.5496C219.899 79.5247 219.836 79.5118 219.771 79.5118ZM227.438 79.5118H227.304C227.215 79.5108 227.129 79.5336 227.052 79.5778C226.975 79.622 226.911 79.6861 226.867 79.7635C226.823 79.8409 226.799 79.9289 226.8 80.0184C226.8 80.108 226.823 80.1959 226.868 80.2732C226.912 80.3505 226.976 80.4145 227.053 80.4585C227.13 80.5025 227.216 80.5251 227.305 80.5239C227.393 80.5227 227.479 80.4977 227.555 80.4515C227.63 80.4054 227.692 80.3397 227.735 80.2612C227.706 80.0179 227.591 79.7746 227.486 79.5313L227.438 79.5118ZM185.599 96.5718C185.5 96.5698 185.402 96.5981 185.318 96.653C185.235 96.7078 185.17 96.7868 185.131 96.8796C185.092 96.9725 185.081 97.075 185.1 97.1741C185.119 97.2731 185.167 97.3642 185.237 97.4356C185.307 97.5069 185.397 97.5553 185.494 97.5745C185.592 97.5937 185.693 97.5829 185.784 97.5434C185.876 97.5039 185.954 97.4375 186.008 97.3528C186.062 97.2681 186.089 97.169 186.088 97.0681C186.084 96.9478 186.037 96.8332 185.955 96.7455C185.874 96.6578 185.765 96.6029 185.647 96.5912L185.599 96.5718ZM193.179 96.5718C193.105 96.5502 193.027 96.5465 192.951 96.5608C192.875 96.5752 192.804 96.6072 192.742 96.6543C192.68 96.7015 192.63 96.7626 192.596 96.8327C192.562 96.9028 192.544 96.98 192.544 97.0583C192.544 97.1367 192.562 97.2139 192.596 97.284C192.63 97.3541 192.68 97.4152 192.742 97.4623C192.804 97.5095 192.875 97.5415 192.951 97.5559C193.027 97.5702 193.105 97.5664 193.179 97.5449C193.253 97.5664 193.331 97.5702 193.407 97.5559C193.483 97.5415 193.554 97.5095 193.616 97.4623C193.677 97.4152 193.727 97.3541 193.762 97.284C193.796 97.2139 193.814 97.1367 193.814 97.0583C193.814 96.98 193.796 96.9028 193.762 96.8327C193.727 96.7626 193.677 96.7015 193.616 96.6543C193.554 96.6072 193.483 96.5752 193.407 96.5608C193.331 96.5465 193.253 96.5502 193.179 96.5718ZM200.759 96.5718C200.66 96.5718 200.563 96.6017 200.481 96.6578C200.399 96.7138 200.335 96.7934 200.298 96.8865C200.26 96.9795 200.251 97.0817 200.271 97.1802C200.291 97.2786 200.339 97.3687 200.41 97.4391C200.481 97.5095 200.57 97.5569 200.668 97.5753C200.765 97.5937 200.866 97.5823 200.956 97.5425C201.047 97.5027 201.124 97.4363 201.178 97.3518C201.232 97.2673 201.259 97.1686 201.257 97.0681C201.253 96.9463 201.205 96.8304 201.122 96.7425C201.039 96.6545 200.927 96.6007 200.807 96.5912L200.759 96.5718ZM208.349 96.5718C208.249 96.5698 208.152 96.5981 208.068 96.653C207.985 96.7078 207.919 96.7868 207.881 96.8796C207.842 96.9725 207.831 97.075 207.85 97.1741C207.869 97.2731 207.916 97.3642 207.987 97.4356C208.057 97.5069 208.147 97.5553 208.244 97.5745C208.342 97.5937 208.443 97.5829 208.534 97.5434C208.626 97.5039 208.703 97.4375 208.757 97.3528C208.811 97.2681 208.839 97.169 208.837 97.0681C208.833 96.9478 208.786 96.8332 208.705 96.7455C208.624 96.6578 208.514 96.6029 208.397 96.5912L208.349 96.5718ZM215.929 96.5718C215.854 96.5502 215.776 96.5465 215.701 96.5608C215.625 96.5752 215.553 96.6072 215.492 96.6543C215.43 96.7015 215.38 96.7626 215.346 96.8327C215.311 96.9028 215.293 96.98 215.293 97.0583C215.293 97.1367 215.311 97.2139 215.346 97.284C215.38 97.3541 215.43 97.4152 215.492 97.4623C215.553 97.5095 215.625 97.5415 215.701 97.5559C215.776 97.5702 215.854 97.5664 215.929 97.5449C216.003 97.5664 216.081 97.5702 216.157 97.5559C216.233 97.5415 216.304 97.5095 216.366 97.4623C216.427 97.4152 216.477 97.3541 216.512 97.284C216.546 97.2139 216.564 97.1367 216.564 97.0583C216.564 96.98 216.546 96.9028 216.512 96.8327C216.477 96.7626 216.427 96.7015 216.366 96.6543C216.304 96.6072 216.233 96.5752 216.157 96.5608C216.081 96.5465 216.003 96.5502 215.929 96.5718ZM223.509 96.5718C223.41 96.5718 223.313 96.6017 223.231 96.6578C223.149 96.7138 223.085 96.7934 223.048 96.8865C223.01 96.9795 223.001 97.0817 223.021 97.1802C223.041 97.2786 223.089 97.3687 223.16 97.4391C223.231 97.5095 223.32 97.5569 223.418 97.5753C223.515 97.5937 223.615 97.5823 223.706 97.5425C223.797 97.5027 223.874 97.4363 223.928 97.3518C223.981 97.2673 224.009 97.1686 224.007 97.0681C224.003 96.9463 223.954 96.8304 223.871 96.7425C223.788 96.6545 223.676 96.6007 223.557 96.5912L223.509 96.5718ZM231.098 96.5718C230.999 96.5698 230.901 96.5981 230.818 96.653C230.735 96.7078 230.669 96.7868 230.63 96.8796C230.591 96.9725 230.581 97.075 230.6 97.1741C230.619 97.2731 230.666 97.3642 230.736 97.4356C230.807 97.5069 230.896 97.5553 230.994 97.5745C231.092 97.5937 231.192 97.5829 231.284 97.5434C231.375 97.5039 231.453 97.4375 231.507 97.3528C231.561 97.2681 231.589 97.169 231.587 97.0681C231.583 96.9478 231.536 96.8332 231.455 96.7455C231.374 96.6578 231.264 96.6029 231.146 96.5912L231.098 96.5718ZM181.804 90.83C181.672 90.83 181.545 90.8833 181.452 90.9782C181.358 91.0731 181.306 91.2018 181.306 91.336C181.306 91.4702 181.358 91.5989 181.452 91.6939C181.545 91.7888 181.672 91.8421 181.804 91.8421C181.935 91.8396 182.061 91.7855 182.154 91.6911C182.247 91.5967 182.3 91.4695 182.302 91.336C182.298 91.2132 182.25 91.0961 182.167 91.0066C182.085 90.917 181.972 90.8612 181.852 90.8494L181.804 90.83ZM189.384 90.83C189.319 90.8299 189.255 90.8431 189.195 90.8687C189.135 90.8942 189.081 90.9316 189.035 90.9788C188.99 91.0259 188.954 91.0817 188.93 91.1431C188.906 91.2044 188.894 91.27 188.895 91.336C188.895 91.4365 188.925 91.5347 188.98 91.6182C189.035 91.7016 189.114 91.7664 189.205 91.8044C189.297 91.8424 189.398 91.8518 189.494 91.8315C189.591 91.8112 189.68 91.762 189.749 91.6903C189.819 91.6185 189.865 91.5275 189.884 91.4287C189.902 91.3299 189.89 91.2278 189.851 91.1355C189.812 91.0432 189.747 90.9649 189.664 90.9105C189.58 90.8561 189.483 90.828 189.384 90.83ZM196.974 90.83C196.842 90.83 196.715 90.8833 196.621 90.9782C196.528 91.0731 196.475 91.2018 196.475 91.336C196.454 91.4113 196.451 91.4906 196.465 91.5676C196.479 91.6446 196.51 91.7172 196.557 91.7798C196.603 91.8423 196.663 91.893 196.732 91.928C196.801 91.9629 196.877 91.9811 196.955 91.9811C197.032 91.9811 197.108 91.9629 197.177 91.928C197.246 91.893 197.306 91.8423 197.352 91.7798C197.399 91.7172 197.43 91.6446 197.444 91.5676C197.459 91.4906 197.455 91.4113 197.434 91.336C197.434 91.2213 197.395 91.1101 197.323 91.0214C197.251 90.9327 197.152 90.8719 197.041 90.8494L196.974 90.83ZM204.554 90.83C204.422 90.83 204.295 90.8833 204.201 90.9782C204.108 91.0731 204.055 91.2018 204.055 91.336C204.055 91.4702 204.108 91.5989 204.201 91.6939C204.295 91.7888 204.422 91.8421 204.554 91.8421C204.685 91.8396 204.811 91.7855 204.903 91.6911C204.996 91.5967 205.05 91.4695 205.052 91.336C205.048 91.2132 205 91.0961 204.917 91.0066C204.834 90.917 204.722 90.8612 204.602 90.8494L204.554 90.83ZM212.134 90.83C212.069 90.8299 212.005 90.8431 211.945 90.8687C211.885 90.8942 211.83 90.9316 211.785 90.9788C211.739 91.0259 211.704 91.0817 211.68 91.1431C211.656 91.2044 211.644 91.27 211.645 91.336C211.645 91.4365 211.675 91.5347 211.73 91.6182C211.785 91.7016 211.863 91.7664 211.955 91.8044C212.047 91.8424 212.147 91.8518 212.244 91.8315C212.341 91.8112 212.43 91.762 212.499 91.6903C212.568 91.6185 212.615 91.5275 212.633 91.4287C212.651 91.3299 212.64 91.2278 212.601 91.1355C212.562 91.0432 212.496 90.9649 212.413 90.9105C212.33 90.8561 212.233 90.828 212.134 90.83ZM219.723 90.83C219.591 90.83 219.465 90.8833 219.371 90.9782C219.278 91.0731 219.225 91.2018 219.225 91.336C219.204 91.4113 219.2 91.4906 219.214 91.5676C219.229 91.6446 219.26 91.7172 219.306 91.7798C219.353 91.8423 219.413 91.893 219.482 91.928C219.551 91.9629 219.627 91.9811 219.704 91.9811C219.781 91.9811 219.858 91.9629 219.927 91.928C219.996 91.893 220.056 91.8423 220.102 91.7798C220.149 91.7172 220.18 91.6446 220.194 91.5676C220.208 91.4906 220.205 91.4113 220.183 91.336C220.183 91.2185 220.141 91.1051 220.065 91.016C219.99 90.9269 219.886 90.8679 219.771 90.8494L219.723 90.83ZM227.304 90.83C227.171 90.83 227.045 90.8833 226.951 90.9782C226.858 91.0731 226.805 91.2018 226.805 91.336C226.805 91.4702 226.858 91.5989 226.951 91.6939C227.045 91.7888 227.171 91.8421 227.304 91.8421C227.435 91.8396 227.56 91.7855 227.653 91.6911C227.746 91.5967 227.799 91.4695 227.802 91.336C227.798 91.2132 227.75 91.0961 227.667 91.0066C227.584 90.917 227.472 90.8612 227.351 90.8494L227.304 90.83ZM185.599 107.909C185.533 107.909 185.469 107.922 185.408 107.948C185.348 107.973 185.293 108.011 185.246 108.058C185.2 108.105 185.164 108.16 185.138 108.222C185.113 108.283 185.101 108.349 185.101 108.415C185.079 108.491 185.076 108.57 185.09 108.647C185.104 108.724 185.135 108.797 185.182 108.859C185.228 108.922 185.288 108.972 185.357 109.007C185.427 109.042 185.503 109.06 185.58 109.06C185.657 109.06 185.733 109.042 185.802 109.007C185.871 108.972 185.931 108.922 185.978 108.859C186.024 108.797 186.055 108.724 186.07 108.647C186.084 108.57 186.08 108.491 186.059 108.415C186.058 108.298 186.016 108.184 185.941 108.095C185.865 108.006 185.761 107.947 185.647 107.929L185.599 107.909ZM193.179 107.909C193.047 107.909 192.92 107.963 192.827 108.058C192.733 108.152 192.681 108.281 192.681 108.415C192.681 108.55 192.733 108.678 192.827 108.773C192.92 108.868 193.047 108.921 193.179 108.921C193.31 108.919 193.436 108.865 193.529 108.77C193.621 108.676 193.675 108.549 193.677 108.415C193.673 108.289 193.622 108.17 193.535 108.08C193.448 107.99 193.332 107.936 193.208 107.929L193.179 107.909ZM200.759 107.909C200.694 107.909 200.63 107.922 200.57 107.948C200.51 107.974 200.455 108.011 200.41 108.058C200.364 108.105 200.329 108.161 200.305 108.222C200.281 108.284 200.269 108.349 200.27 108.415C200.27 108.516 200.3 108.614 200.355 108.698C200.41 108.781 200.489 108.846 200.58 108.884C200.672 108.922 200.772 108.931 200.869 108.911C200.966 108.891 201.055 108.841 201.124 108.77C201.194 108.698 201.24 108.607 201.258 108.508C201.277 108.409 201.265 108.307 201.226 108.215C201.187 108.123 201.122 108.044 201.038 107.99C200.955 107.935 200.858 107.907 200.759 107.909ZM208.349 107.909C208.283 107.909 208.218 107.922 208.158 107.948C208.097 107.973 208.043 108.011 207.996 108.058C207.95 108.105 207.913 108.16 207.888 108.222C207.863 108.283 207.85 108.349 207.85 108.415C207.829 108.491 207.825 108.57 207.84 108.647C207.854 108.724 207.885 108.797 207.932 108.859C207.978 108.922 208.038 108.972 208.107 109.007C208.176 109.042 208.252 109.06 208.329 109.06C208.407 109.06 208.483 109.042 208.552 109.007C208.621 108.972 208.681 108.922 208.727 108.859C208.774 108.797 208.805 108.724 208.819 108.647C208.833 108.57 208.83 108.491 208.809 108.415C208.808 108.298 208.766 108.184 208.69 108.095C208.615 108.006 208.511 107.947 208.397 107.929L208.349 107.909ZM215.929 107.909C215.863 107.909 215.798 107.922 215.738 107.948C215.678 107.973 215.623 108.011 215.576 108.058C215.53 108.105 215.493 108.16 215.468 108.222C215.443 108.283 215.43 108.349 215.43 108.415C215.43 108.55 215.483 108.678 215.576 108.773C215.67 108.868 215.796 108.921 215.929 108.921C216.06 108.919 216.185 108.865 216.278 108.77C216.371 108.676 216.425 108.549 216.427 108.415C216.423 108.293 216.375 108.175 216.292 108.086C216.209 107.996 216.097 107.941 215.977 107.929L215.929 107.909ZM223.509 107.909C223.444 107.909 223.379 107.922 223.319 107.948C223.26 107.974 223.205 108.011 223.16 108.058C223.114 108.105 223.078 108.161 223.054 108.222C223.03 108.284 223.019 108.349 223.02 108.415C223.02 108.516 223.049 108.614 223.105 108.698C223.16 108.781 223.238 108.846 223.33 108.884C223.422 108.922 223.522 108.931 223.619 108.911C223.716 108.891 223.805 108.841 223.874 108.77C223.943 108.698 223.99 108.607 224.008 108.508C224.026 108.409 224.015 108.307 223.976 108.215C223.937 108.123 223.871 108.044 223.788 107.99C223.705 107.935 223.608 107.907 223.509 107.909ZM231.098 107.909C230.966 107.909 230.839 107.963 230.746 108.058C230.653 108.152 230.6 108.281 230.6 108.415C230.598 108.501 230.622 108.586 230.667 108.659L231.568 108.289C231.543 108.192 231.489 108.106 231.413 108.041C231.338 107.977 231.244 107.937 231.146 107.929L231.098 107.909ZM181.804 102.177C181.73 102.156 181.652 102.152 181.576 102.166C181.5 102.181 181.429 102.213 181.367 102.26C181.306 102.307 181.256 102.368 181.221 102.438C181.187 102.508 181.169 102.586 181.169 102.664C181.169 102.742 181.187 102.819 181.221 102.89C181.256 102.96 181.306 103.021 181.367 103.068C181.429 103.115 181.5 103.147 181.576 103.161C181.652 103.176 181.73 103.172 181.804 103.15C181.878 103.172 181.956 103.176 182.032 103.161C182.108 103.147 182.179 103.115 182.241 103.068C182.303 103.021 182.353 102.96 182.387 102.89C182.421 102.819 182.439 102.742 182.439 102.664C182.439 102.586 182.421 102.508 182.387 102.438C182.353 102.368 182.303 102.307 182.241 102.26C182.179 102.213 182.108 102.181 182.032 102.166C181.956 102.152 181.878 102.156 181.804 102.177ZM189.384 102.177C189.285 102.177 189.188 102.207 189.106 102.263C189.024 102.319 188.96 102.399 188.923 102.492C188.885 102.585 188.876 102.687 188.896 102.786C188.916 102.884 188.965 102.974 189.035 103.045C189.106 103.115 189.196 103.162 189.293 103.181C189.39 103.199 189.491 103.188 189.582 103.148C189.672 103.108 189.75 103.042 189.803 102.957C189.857 102.873 189.884 102.774 189.882 102.674C189.878 102.552 189.83 102.436 189.747 102.348C189.664 102.26 189.552 102.206 189.432 102.197L189.384 102.177ZM196.974 102.177C196.874 102.175 196.777 102.204 196.693 102.259C196.61 102.313 196.545 102.392 196.506 102.485C196.467 102.578 196.456 102.681 196.475 102.78C196.494 102.879 196.542 102.97 196.612 103.041C196.682 103.112 196.772 103.161 196.869 103.18C196.967 103.199 197.068 103.188 197.159 103.149C197.251 103.109 197.328 103.043 197.382 102.958C197.436 102.874 197.464 102.774 197.462 102.674C197.459 102.556 197.415 102.444 197.338 102.357C197.26 102.27 197.155 102.213 197.041 102.197L196.974 102.177ZM204.554 102.177C204.48 102.156 204.402 102.152 204.326 102.166C204.25 102.181 204.178 102.213 204.117 102.26C204.055 102.307 204.005 102.368 203.971 102.438C203.937 102.508 203.919 102.586 203.919 102.664C203.919 102.742 203.937 102.819 203.971 102.89C204.005 102.96 204.055 103.021 204.117 103.068C204.178 103.115 204.25 103.147 204.326 103.161C204.402 103.176 204.48 103.172 204.554 103.15C204.628 103.172 204.706 103.176 204.782 103.161C204.858 103.147 204.929 103.115 204.991 103.068C205.052 103.021 205.102 102.96 205.137 102.89C205.171 102.819 205.189 102.742 205.189 102.664C205.189 102.586 205.171 102.508 205.137 102.438C205.102 102.368 205.052 102.307 204.991 102.26C204.929 102.213 204.858 102.181 204.782 102.166C204.706 102.152 204.628 102.156 204.554 102.177ZM212.134 102.177C212.035 102.177 211.938 102.207 211.856 102.263C211.774 102.319 211.71 102.399 211.673 102.492C211.635 102.585 211.626 102.687 211.646 102.786C211.666 102.884 211.714 102.974 211.785 103.045C211.856 103.115 211.945 103.162 212.043 103.181C212.14 103.199 212.24 103.188 212.331 103.148C212.422 103.108 212.499 103.042 212.553 102.957C212.606 102.873 212.634 102.774 212.632 102.674C212.628 102.552 212.58 102.436 212.496 102.348C212.413 102.26 212.301 102.206 212.182 102.197L212.134 102.177ZM219.723 102.177C219.624 102.175 219.527 102.204 219.443 102.259C219.36 102.313 219.294 102.392 219.255 102.485C219.217 102.578 219.206 102.681 219.225 102.78C219.244 102.879 219.291 102.97 219.362 103.041C219.432 103.112 219.522 103.161 219.619 103.18C219.717 103.199 219.818 103.188 219.909 103.149C220 103.109 220.078 103.043 220.132 102.958C220.186 102.874 220.214 102.774 220.212 102.674C220.208 102.553 220.161 102.439 220.08 102.351C219.999 102.263 219.889 102.208 219.771 102.197L219.723 102.177ZM227.304 102.177C227.229 102.156 227.151 102.152 227.075 102.166C227 102.181 226.928 102.213 226.867 102.26C226.805 102.307 226.755 102.368 226.721 102.438C226.686 102.508 226.668 102.586 226.668 102.664C226.668 102.742 226.686 102.819 226.721 102.89C226.755 102.96 226.805 103.021 226.867 103.068C226.928 103.115 227 103.147 227.075 103.161C227.151 103.176 227.229 103.172 227.304 103.15C227.378 103.172 227.456 103.176 227.532 103.161C227.607 103.147 227.679 103.115 227.741 103.068C227.802 103.021 227.852 102.96 227.886 102.89C227.921 102.819 227.939 102.742 227.939 102.664C227.939 102.586 227.921 102.508 227.886 102.438C227.852 102.368 227.802 102.307 227.741 102.26C227.679 102.213 227.607 102.181 227.532 102.166C227.456 102.152 227.378 102.156 227.304 102.177ZM234.884 102.177C234.785 102.177 234.688 102.207 234.606 102.263C234.524 102.319 234.46 102.399 234.422 102.492C234.385 102.585 234.376 102.687 234.396 102.786C234.416 102.884 234.464 102.974 234.535 103.045C234.605 103.115 234.695 103.162 234.792 103.181C234.89 103.199 234.99 103.188 235.081 103.148C235.172 103.108 235.249 103.042 235.303 102.957C235.356 102.873 235.384 102.774 235.382 102.674C235.378 102.552 235.329 102.436 235.246 102.348C235.163 102.26 235.051 102.206 234.932 102.197L234.884 102.177Z" fill="white"/>
<path d="M237.126 105.486C230.227 109.641 222.139 111.85 214.261 112.814C210.601 93.8174 204.372 56.2817 202.906 47.416C204.832 47.9837 206.651 48.8716 208.291 50.0436C212.303 53.0002 215.716 56.7141 218.344 60.9822C226.968 74.3829 237.126 105.486 237.126 105.486Z" fill="#263238"/>
<path d="M214.932 54.9486C227.514 69.5464 244.907 94.6253 238.295 100.902C227.418 111.208 194.214 118.906 186.595 120.366C183.299 120.989 175.259 99.3744 177.3 96.3868C179.341 93.3991 214.673 89.0684 214.769 86.8398C214.836 85.5844 209.911 75.0254 205.608 61.8777C200.634 46.696 211.329 50.7542 214.932 54.9486Z" fill="#EB9481"/>
<path d="M182.992 94.168C182.992 94.168 172.815 94.7519 166.174 95.4526C162.466 95.8418 156.179 97.0875 153.583 98.6349C149.749 100.951 134.953 113.165 137.79 116.863C140.358 120.21 151.723 108.104 151.723 108.104C151.723 108.104 139.189 119.315 143.022 122.76C146.855 126.205 157.885 110.77 157.885 110.77C157.885 110.77 145.265 122.575 149.759 125.504C153.161 127.714 163.942 114.303 163.942 114.303C163.942 114.303 153.161 124.531 156.563 126.955C160.319 129.631 171.033 117.894 171.033 117.894C180.692 122.585 187.19 120.814 191.655 118.974C192.738 118.556 182.992 94.168 182.992 94.168Z" fill="#EB9481"/>
<path d="M155.834 103.958C154.32 105.214 152.767 106.488 151.368 107.851C149.969 109.213 148.608 110.693 147.334 112.211C145.64 114.17 144.17 116.318 142.955 118.614C145.408 114.722 150.353 109.622 151.761 108.23C153.17 106.839 154.492 105.369 155.891 103.978C155.911 103.958 155.834 103.9 155.834 103.958Z" fill="#263238"/>
<path d="M160.875 108.98C158.958 110.683 157.042 112.289 155.288 114.079C153.535 115.87 151.953 117.69 150.286 119.587C150.161 119.733 150.286 119.753 150.411 119.587C152.145 117.768 153.889 116.211 155.652 114.41C157.416 112.61 159.102 110.732 160.913 108.999C160.942 108.999 160.904 108.951 160.875 108.98Z" fill="#263238"/>
<path d="M165.973 112.532C163.042 115.062 160.377 117.893 158.019 120.979C157.895 121.135 158.019 121.144 158.192 120.979C160.779 118.118 162.791 115.85 166.059 112.61C166.117 112.58 166.04 112.473 165.973 112.532Z" fill="#263238"/>
<path d="M176.102 94.5376C171.455 94.8101 166.692 95.0923 162.083 95.7541C158.083 96.2064 154.258 97.6685 150.957 100.007C147.846 102.456 144.959 105.185 142.332 108.162C140.822 109.666 139.478 111.333 138.327 113.135C137.685 114.235 136.746 115.967 137.771 117.028C139.017 118.361 143.214 116.707 147.459 112.259C147.613 112.104 147.507 112.016 147.344 112.162C141.345 117.797 138.777 117.359 138.058 116.502C137.598 115.957 137.943 114.926 138.279 114.138C138.83 112.995 139.522 111.929 140.339 110.965C143.038 107.606 146.069 104.537 149.385 101.807C152.94 98.7697 157.269 96.8161 161.872 96.1725C166.587 95.4718 171.455 95.5302 176.131 94.7614C176.227 94.703 176.198 94.5376 176.102 94.5376Z" fill="#263238"/>
<path d="M229.91 72.5827L208.301 73.8771C206.569 68.8509 205.233 63.693 204.305 58.4521C204.247 58.1407 204.199 57.8293 204.151 57.5373C204.151 57.44 204.151 57.3524 204.151 57.2648C202.934 49.1874 205.416 46.9491 213.111 53.2164C216.756 56.2257 220.11 59.5823 223.125 63.2402L223.403 63.5711C224.86 65.3228 226.087 66.948 227.074 68.3202C227.275 68.6024 227.476 68.8749 227.649 69.1377C229.105 71.2203 229.91 72.5827 229.91 72.5827Z" fill="#4668D6"/>
<path d="M208.885 51.7176C208.887 51.8185 208.859 51.9177 208.805 52.0024C208.751 52.0871 208.673 52.1534 208.582 52.1929C208.491 52.2324 208.39 52.2433 208.292 52.224C208.195 52.2048 208.105 52.1564 208.035 52.0851C207.964 52.0137 207.917 51.9227 207.898 51.8236C207.879 51.7245 207.89 51.622 207.928 51.5291C207.967 51.4363 208.033 51.3574 208.116 51.3025C208.199 51.2476 208.297 51.2194 208.396 51.2213C208.526 51.2213 208.65 51.2736 208.742 51.3667C208.834 51.4597 208.885 51.586 208.885 51.7176Z" fill="white"/>
<path d="M208.885 63.0843C208.885 63.1848 208.855 63.283 208.8 63.3664C208.745 63.4498 208.667 63.5147 208.575 63.5527C208.483 63.5907 208.383 63.6001 208.286 63.5798C208.189 63.5595 208.1 63.5103 208.031 63.4385C207.961 63.3668 207.915 63.2757 207.897 63.1769C207.878 63.0781 207.89 62.9761 207.929 62.8838C207.968 62.7915 208.033 62.7132 208.117 62.6587C208.2 62.6043 208.297 62.5763 208.396 62.5782C208.461 62.5782 208.525 62.5914 208.585 62.6169C208.645 62.6425 208.7 62.6799 208.745 62.727C208.791 62.7741 208.826 62.83 208.85 62.8914C208.874 62.9527 208.886 63.0183 208.885 63.0843Z" fill="white"/>
<path d="M215.976 63.5709C216.252 63.5709 216.475 63.3444 216.475 63.0649C216.475 62.7854 216.252 62.5588 215.976 62.5588C215.701 62.5588 215.478 62.7854 215.478 63.0649C215.478 63.3444 215.701 63.5709 215.976 63.5709Z" fill="white"/>
<path d="M204.602 57.8293C204.877 57.8293 205.1 57.6027 205.1 57.3232C205.1 57.0437 204.877 56.8171 204.602 56.8171C204.327 56.8171 204.104 57.0437 204.104 57.3232C204.104 57.6027 204.327 57.8293 204.602 57.8293Z" fill="white"/>
<path d="M212.181 57.8293C212.457 57.8293 212.68 57.6027 212.68 57.3232C212.68 57.0437 212.457 56.8171 212.181 56.8171C211.906 56.8171 211.683 57.0437 211.683 57.3232C211.683 57.6027 211.906 57.8293 212.181 57.8293Z" fill="white"/>
<path d="M212.181 69.1764C212.457 69.1764 212.68 68.9499 212.68 68.6704C212.68 68.3909 212.457 68.1643 212.181 68.1643C211.906 68.1643 211.683 68.3909 211.683 68.6704C211.683 68.9499 211.906 69.1764 212.181 69.1764Z" fill="white"/>
<path d="M219.771 69.1764C220.046 69.1764 220.269 68.9499 220.269 68.6704C220.269 68.3909 220.046 68.1643 219.771 68.1643C219.496 68.1643 219.272 68.3909 219.272 68.6704C219.272 68.9499 219.496 69.1764 219.771 69.1764Z" fill="white"/>
<path d="M227.61 69.0987C227.533 69.1493 227.443 69.1763 227.351 69.1766C227.219 69.1766 227.092 69.1233 226.999 69.0284C226.906 68.9335 226.853 68.8047 226.853 68.6705C226.852 68.5958 226.868 68.5218 226.899 68.4543C226.931 68.3868 226.977 68.3276 227.035 68.2812C227.236 68.5635 227.438 68.836 227.61 69.0987Z" fill="white"/>
<path d="M195.661 12.4788C194.463 12.0214 193.313 5.19943 197.74 1.949C202.167 -1.30144 207.812 2.40639 205.406 8.0022C203.94 11.5057 198.21 13.452 195.661 12.4788Z" fill="#263238"/>
<path d="M208.291 50.0438L208.224 50.1216C204.697 53.956 197.596 60.9142 192.843 60.3109C191.436 60.0776 190.093 59.5452 188.903 58.7487C187.712 57.9521 186.701 56.9092 185.934 55.6882C187.339 53.8856 188.87 52.1879 190.515 50.6082C196.082 44.7399 202.474 46.0245 208.291 50.0438Z" fill="#EB9481"/>
<path d="M201.468 48.983C201.391 50.0243 197.635 57.3134 193.102 57.8195C191.617 57.9752 190.38 49.781 190.38 49.781L190.15 49.1971L186.979 41.0126L195.804 33.0617L197.088 31.9912C197.088 31.9912 197.817 34.2879 198.689 37.1588C198.689 37.2951 198.765 37.4216 198.813 37.5675C198.861 37.7135 198.919 37.879 198.957 38.0347C199.091 38.4531 199.225 38.8911 199.36 39.329C199.494 39.7669 199.551 39.9908 199.647 40.3022C199.743 40.6136 199.829 40.9932 199.935 41.3532C200.613 43.8588 201.125 46.4078 201.468 48.983Z" fill="#EB9481"/>
<path d="M198.689 37.1588C198.212 39.6746 197.201 42.0547 195.726 44.1336C194.252 46.2125 192.349 47.9404 190.15 49.1971L186.979 41.0126L195.804 33.0617L197.088 31.9912C197.088 31.9912 197.817 34.2879 198.689 37.1588Z" fill="#263238"/>
<path d="M173.524 29.2662C174.483 44.6717 183.701 45.8104 186.94 45.5963C189.911 45.4016 199.992 44.3409 200.586 28.9256C201.181 13.5104 193.821 9.09215 187.007 9.17974C180.194 9.26732 172.547 13.8705 173.524 29.2662Z" fill="#EB9481"/>
<path d="M176.179 26.7457C176.524 26.6484 176.83 26.5122 177.137 26.3857C177.509 26.3096 177.846 26.1113 178.095 25.8212C178.155 25.7168 178.179 25.5951 178.163 25.4754C178.148 25.3556 178.093 25.2444 178.009 25.1595C177.813 25.0186 177.585 24.932 177.346 24.9081C177.108 24.8842 176.867 24.9239 176.648 25.0232C176.178 25.1649 175.776 25.4765 175.517 25.8991C175.466 26.0005 175.445 26.1147 175.456 26.2281C175.467 26.3415 175.51 26.4492 175.58 26.5385C175.649 26.6278 175.743 26.6948 175.849 26.7315C175.955 26.7683 176.07 26.7732 176.179 26.7457Z" fill="#263238"/>
<path d="M186.643 25.6362C186.291 25.6297 185.939 25.6037 185.589 25.5584C185.22 25.5847 184.852 25.4854 184.544 25.2761C184.457 25.1908 184.401 25.0785 184.384 24.957C184.366 24.8355 184.389 24.7116 184.449 24.6047C184.6 24.4162 184.797 24.2719 185.021 24.1864C185.245 24.1009 185.487 24.0773 185.723 24.1181C186.211 24.1173 186.68 24.3052 187.036 24.6436C187.114 24.7246 187.168 24.827 187.189 24.9383C187.211 25.0497 187.201 25.165 187.159 25.2704C187.117 25.3757 187.046 25.4664 186.955 25.5314C186.863 25.5963 186.755 25.6328 186.643 25.6362Z" fill="#263238"/>
<path d="M185.148 29.7722C185.148 29.7722 185.234 29.7722 185.234 29.8501C185.321 30.9011 185.589 32.0884 186.557 32.3317V32.3901C185.397 32.3512 185.062 30.7746 185.148 29.7722Z" fill="#263238"/>
<path d="M185.943 28.5754C187.582 28.2639 188.09 31.6117 186.566 31.9036C185.043 32.1956 184.583 28.8381 185.943 28.5754Z" fill="#263238"/>
<path d="M186.624 28.6532C186.94 28.7992 187.266 29.0912 187.582 29.0717C187.898 29.0522 188.243 28.6532 188.454 28.2737C188.454 28.2737 188.512 28.2737 188.521 28.2737C188.627 28.916 188.521 29.6167 187.812 29.8113C187.103 30.0059 186.681 29.4999 186.423 28.8381C186.413 28.7895 186.499 28.5948 186.624 28.6532Z" fill="#263238"/>
<path d="M178.67 30.2783C178.67 30.2783 178.593 30.3464 178.603 30.3854C178.795 31.4169 178.852 32.6334 177.98 33.1297C177.98 33.1297 177.98 33.1979 177.98 33.1881C179.101 32.8378 179.015 31.232 178.67 30.2783Z" fill="#263238"/>
<path d="M177.587 29.344C175.92 29.4803 176.323 32.8572 177.856 32.721C179.389 32.5847 178.977 29.2273 177.587 29.344Z" fill="#263238"/>
<path d="M176.916 29.6555C176.677 29.8598 176.456 30.2199 176.15 30.2783C175.843 30.3367 175.479 30.0155 175.191 29.6944C175.249 30.3367 175.536 30.9887 176.15 31.0374C176.763 31.086 177.06 30.4827 177.108 29.8209C177.127 29.7333 177.012 29.5679 176.916 29.6555Z" fill="#263238"/>
<path d="M181.593 33.8208C181.039 33.9557 180.505 34.1618 180.002 34.4339C179.907 31.1348 180.328 27.8454 180.184 24.5561C180.184 24.5303 180.174 24.5055 180.156 24.4872C180.138 24.469 180.114 24.4587 180.089 24.4587C180.063 24.4587 180.039 24.469 180.021 24.4872C180.003 24.5055 179.993 24.5303 179.993 24.5561C179.426 28.0674 179.211 31.6279 179.351 35.1832C179.351 35.5433 181.622 33.9959 181.622 33.9959C181.622 33.9959 181.612 33.8208 181.593 33.8208Z" fill="#263238"/>
<path d="M199.647 30.2394C195.881 30.6384 193.179 19.0964 192.862 17.6756C193.016 18.5807 193.821 23.3784 193.476 23.6217C193.073 23.6704 192.665 23.6506 192.268 23.5634C192.186 22.9868 192.062 22.4175 191.895 21.8603C191.827 21.5975 191.895 22.4539 191.895 23.5147L191.176 23.4174C191.047 22.1804 190.757 20.9662 190.313 19.8069C190.141 19.3689 190.313 21.4321 190.122 23.2811C186.794 22.7858 183.423 22.665 180.069 22.9211C179.111 23.0184 178.325 23.1449 177.616 23.2811C177.415 21.8603 177.367 20.3616 177.309 20.6633C177.148 21.562 177.074 22.4747 177.089 23.3882L176.035 23.6217C175.661 21.6754 176.159 18.2887 175.91 18.8239C175.181 20.4684 174.764 22.2384 174.684 24.0402C173.371 24.4976 173.035 24.8188 172.949 24.4684C172.811 20.4558 174.081 16.5238 176.533 13.3741C180.596 8.22598 189.786 5.77356 196.006 11.9241C196.006 11.9241 200.74 14.1819 202.062 18.7364C203.384 23.2909 201.832 29.9961 199.647 30.2394Z" fill="#263238"/>
<path d="M198.277 30.2588C198.277 30.2588 200.845 24.9939 203.145 25.8503C205.445 26.7067 204.026 33.9959 201.669 35.3291C201.378 35.5196 201.051 35.6485 200.71 35.708C200.368 35.7676 200.019 35.7566 199.681 35.6758C199.344 35.5949 199.026 35.4458 198.747 35.2375C198.468 35.0291 198.233 34.7657 198.056 34.463L198.277 30.2588Z" fill="#EB9481"/>
<path d="M202.685 27.9331V27.9915C201.037 28.9647 200.366 30.7748 199.973 32.5849C200.048 32.3912 200.164 32.2164 200.313 32.0725C200.461 31.9286 200.638 31.8192 200.832 31.7516C201.026 31.6841 201.232 31.6601 201.436 31.6813C201.641 31.7025 201.838 31.7684 202.014 31.8745C202.024 31.879 202.033 31.8865 202.039 31.896C202.045 31.9055 202.049 31.9167 202.049 31.928C202.049 31.9394 202.045 31.9505 202.039 31.96C202.033 31.9695 202.024 31.977 202.014 31.9816C201.691 31.9261 201.359 31.9751 201.065 32.1218C200.771 32.2685 200.53 32.5054 200.375 32.799C200.114 33.2862 199.908 33.8021 199.762 34.3367C199.705 34.5118 199.408 34.4632 199.436 34.2783V34.2296C199.063 31.9426 200.328 28.5267 202.685 27.9331Z" fill="#263238"/>
<path d="M181.545 36.4679C182.006 37.0416 182.603 37.487 183.279 37.7623C183.657 37.8838 184.062 37.8838 184.439 37.7623C185.273 37.519 185.273 36.7891 185.1 36.0787C185.006 35.7401 184.874 35.4136 184.707 35.1055C183.822 35.8885 182.715 36.3656 181.545 36.4679Z" fill="#263238"/>
<path d="M183.28 37.7815C183.657 37.9031 184.062 37.9031 184.439 37.7815C185.273 37.5382 185.273 36.8083 185.101 36.0979C184.654 36.1275 184.231 36.3102 183.9 36.6161C183.569 36.922 183.351 37.3329 183.28 37.7815Z" fill="#FF9CBD"/>
<path d="M168.732 50.7835C170.015 52.7133 170.709 54.985 170.725 57.3135C170.725 65.5856 161.785 72.2908 150.755 72.2908C139.725 72.2908 130.803 65.5856 130.803 57.3135C130.803 49.0415 139.734 42.3362 150.755 42.3362C155.654 42.2554 160.461 43.7023 164.525 46.482L171.406 44.7108L168.732 50.7835Z" fill="white"/>
<path d="M168.732 50.7835C170.007 52.6012 170.736 54.7551 170.832 56.9847C170.927 59.2143 170.384 61.4242 169.269 63.3473C168.154 65.2638 166.655 66.9215 164.87 68.2132C163.1 69.5287 161.137 70.5534 159.053 71.2495C156.975 71.9606 154.819 72.4084 152.633 72.5828C150.446 72.7438 148.249 72.636 146.088 72.2616C141.695 71.5935 137.609 69.5763 134.378 66.4809C132.772 64.8901 131.566 62.931 130.861 60.7683C130.181 58.5729 130.161 56.2214 130.803 54.0144C131.467 51.8414 132.645 49.8667 134.234 48.2629C135.795 46.6606 137.617 45.3437 139.619 44.3702C143.612 42.4746 148.018 41.6567 152.413 41.9956C156.803 42.2403 161.041 43.712 164.659 46.2484H164.477L171.377 44.5745L171.617 44.5162L171.511 44.74L168.732 50.7835ZM168.732 50.7835L171.3 44.6621L171.435 44.8178L164.583 46.6961H164.487L164.401 46.6377C160.819 44.2459 156.658 42.8993 152.374 42.745C150.246 42.6334 148.112 42.787 146.021 43.2024C143.926 43.5758 141.894 44.2474 139.984 45.1974C138.079 46.1273 136.348 47.3851 134.866 48.9149C133.392 50.4228 132.303 52.2737 131.694 54.3064C131.114 56.3386 131.144 58.5005 131.781 60.5153C132.42 62.5377 133.535 64.3715 135.029 65.8581C138.118 68.8449 142.035 70.798 146.251 71.4539C150.458 72.2117 154.783 71.9313 158.862 70.6364C162.99 69.4304 166.561 66.7704 168.933 63.1332C170.051 61.2762 170.635 59.1392 170.62 56.9632C170.558 54.7668 169.905 52.6296 168.732 50.7835Z" fill="#263238"/>
<path d="M143.577 57.3135C143.577 56.8978 143.455 56.4913 143.228 56.1456C143.001 55.8 142.677 55.5305 142.299 55.3714C141.921 55.2123 141.505 55.1707 141.103 55.2518C140.702 55.3329 140.333 55.5331 140.043 55.8271C139.754 56.1211 139.557 56.4956 139.477 56.9034C139.397 57.3112 139.438 57.7338 139.595 58.1179C139.751 58.502 140.017 58.8303 140.357 59.0613C140.697 59.2923 141.098 59.4156 141.507 59.4156C142.056 59.4156 142.582 59.1941 142.971 58.7999C143.359 58.4057 143.577 57.871 143.577 57.3135Z" fill="#263238"/>
<path d="M152.835 57.3135C152.835 56.8978 152.713 56.4913 152.486 56.1456C152.258 55.8 151.935 55.5305 151.557 55.3714C151.179 55.2123 150.762 55.1707 150.361 55.2518C149.959 55.3329 149.591 55.5331 149.301 55.8271C149.012 56.1211 148.814 56.4956 148.735 56.9034C148.655 57.3112 148.696 57.7338 148.852 58.1179C149.009 58.502 149.274 58.8303 149.615 59.0613C149.955 59.2923 150.355 59.4156 150.765 59.4156C151.314 59.4156 151.84 59.1941 152.228 58.7999C152.617 58.4057 152.835 57.871 152.835 57.3135Z" fill="#263238"/>
<path d="M162.082 57.3135C162.082 56.8978 161.96 56.4913 161.733 56.1456C161.505 55.8 161.182 55.5305 160.804 55.3714C160.426 55.2123 160.009 55.1707 159.608 55.2518C159.206 55.3329 158.838 55.5331 158.548 55.8271C158.259 56.1211 158.062 56.4956 157.982 56.9034C157.902 57.3112 157.943 57.7338 158.099 58.1179C158.256 58.502 158.521 58.8303 158.862 59.0613C159.202 59.2923 159.602 59.4156 160.012 59.4156C160.561 59.4156 161.087 59.1941 161.475 58.7999C161.864 58.4057 162.082 57.871 162.082 57.3135Z" fill="#263238"/>
<path d="M171.406 123.928H96.1997V127.353H171.406V123.928Z" fill="#455A64"/>
<path d="M134.052 123.928H96.1997V127.353H134.052V123.928Z" fill="#263238"/>
<path d="M129.979 127.353H56.6893L47.1064 76.7964H120.396L129.979 127.353Z" fill="#455A64"/>
<path d="M92.9991 102.07C93.0633 102.647 93.0055 103.231 92.8296 103.783C92.6537 104.335 92.3638 104.843 91.9792 105.272C91.5945 105.701 91.1241 106.042 90.5993 106.272C90.0745 106.502 89.5074 106.616 88.936 106.605C87.7196 106.585 86.5529 106.112 85.6572 105.276C84.7616 104.44 84.1994 103.299 84.0774 102.07C84.0162 101.493 84.0764 100.91 84.2541 100.359C84.4318 99.8081 84.7229 99.3018 85.1081 98.8738C85.4933 98.4458 85.9638 98.1059 86.4883 97.8767C87.0128 97.6476 87.5793 97.5343 88.1502 97.5446C89.364 97.5646 90.5283 98.0365 91.4221 98.8707C92.316 99.7048 92.8771 100.843 92.9991 102.07Z" fill="#A6A6A6"/>
<path d="M223.029 119.373C222.414 120.885 221.304 122.135 219.886 122.911C218.468 123.688 216.83 123.944 215.248 123.636C214.589 123.507 213.946 123.305 213.332 123.032L214.472 120.346C214.805 120.5 215.151 120.62 215.507 120.707C216.493 120.955 217.534 120.834 218.439 120.366C219.344 119.897 220.052 119.113 220.432 118.157C221.688 115.393 221.266 109.71 219.139 107.899C218.995 107.763 218.449 107.607 216.523 108.425C216.168 108.581 215.766 108.756 215.315 108.98C214.97 109.178 214.604 109.335 214.223 109.447L213.907 108.026L213.504 106.625C213.629 106.576 213.82 106.479 214.069 106.352C214.945 105.9 215.855 105.519 216.791 105.213C218.238 104.776 219.819 104.659 220.988 105.661C224.429 108.62 224.601 115.909 223.029 119.373Z" fill="#FFC727"/>
<path d="M214.453 120.346C214.786 120.5 215.132 120.62 215.488 120.707L215.248 123.626C214.589 123.498 213.946 123.295 213.332 123.023L214.453 120.346Z" fill="#263238"/>
<path d="M216.772 105.213L216.503 108.425C216.149 108.581 215.746 108.756 215.296 108.98C214.951 109.178 214.584 109.335 214.204 109.447L213.887 108.026L213.485 106.625C213.609 106.576 213.801 106.479 214.05 106.352C214.926 105.9 215.836 105.519 216.772 105.213Z" fill="#263238"/>
<path d="M215.229 99.0337L215.133 101.632L215.076 103.218L215.047 104.172L214.213 127.013H194.808L193.974 104.172L193.945 103.218L193.888 101.632L193.792 99.0337H215.229Z" fill="#FFC727"/>
<path d="M215.229 99.0337L215.133 101.632H193.888L193.792 99.0337H215.229Z" fill="#455A64"/>
<path d="M215.076 103.218L215.047 104.172H193.974L193.945 103.218H215.076Z" fill="#455A64"/>
<path d="M81.4896 133.485L81.2501 152.666L78.6148 363.049H75.6537L73.0184 152.666L72.7788 133.485H81.4896Z" fill="#455A64"/>
<path d="M72.7788 133.485H81.4896L81.2501 152.666H73.0184L72.7788 133.485Z" fill="#263238"/>
<path d="M291.537 133.485L291.297 152.666L288.662 363.049H285.701L283.066 152.666L282.826 133.485H291.537Z" fill="#455A64"/>
<path d="M291.537 133.485L291.297 152.666H283.066L282.826 133.485H291.537Z" fill="#263238"/>
<path d="M51.2748 133.485L51.0352 152.666L48.3999 363.049H45.4388L42.8035 152.666L42.564 133.485H51.2748Z" fill="#37474F"/>
<path d="M42.564 133.485H51.2748L51.0352 152.666H42.8035L42.564 133.485Z" fill="#263238"/>
<path d="M261.313 133.485L261.073 152.666L258.438 363.049H255.477L252.842 152.666L252.602 133.485H261.313Z" fill="#37474F"/>
<path d="M252.602 133.485H261.313L261.073 152.666H252.842L252.602 133.485Z" fill="#263238"/>
<path d="M254.787 296.483H46.9243V300.376H254.787V296.483Z" fill="#37474F"/>
<path d="M296.712 127.013H269.784V138.117H296.712V127.013Z" fill="#455A64"/>
<path d="M269.784 127.013H33.0581V138.117H269.784V127.013Z" fill="#37474F"/>
<path d="M81.5283 242.5C66.1095 265.059 50.0965 291.16 46.8096 318.993C46.8096 319.411 47.442 319.528 47.5187 319.109C49.1522 311.503 51.3138 304.023 53.9872 296.726C64.4612 293.466 74.7532 290.741 79.9951 279.939C85.3327 268.835 84.2115 254.636 82.7933 242.714C82.6974 242.072 81.8446 242.072 81.5283 242.5Z" fill="#3ACC6C"/>
<path d="M53.6421 296.21C60.743 279.715 69.8851 263.122 81.5666 249.498C81.6433 249.41 81.7678 249.498 81.7008 249.634C74.0344 259.317 68.2847 269.847 62.6308 280.562C67.911 275.034 73.699 270.08 78.7013 264.232C78.7971 264.125 78.9505 264.232 78.8642 264.397C73.9003 270.528 68.486 277.194 61.9984 281.749C60.2734 285.038 58.5326 288.331 56.7757 291.627C57.2069 291.383 57.6573 291.16 58.1077 290.926C58.1844 290.926 58.2514 291.004 58.1748 291.043C57.6765 291.306 57.2165 291.578 56.6799 291.802C55.8461 293.359 55.0124 294.926 54.1596 296.483C53.9679 296.853 53.4888 296.561 53.6421 296.21Z" fill="#263238"/>
<path d="M58.9703 290.43C63.2719 287.947 67.3734 285.122 71.2364 281.982C71.3418 281.895 71.4951 282.051 71.3897 282.138C67.6475 285.471 63.5416 288.357 59.1524 290.741C58.9511 290.809 58.7691 290.546 58.9703 290.43Z" fill="#263238"/>
<path d="M44.8544 321.591C44.8544 321.932 45.4581 321.903 45.4389 321.591C45.2664 312.463 44.931 303.305 44.7968 294.138C46.9626 289.359 51.8307 286.605 55.1559 282.722C57.5482 279.892 59.6094 276.789 61.2986 273.477C65.2063 265.57 67.4886 256.938 68.0066 248.106C68.6774 238.326 64.1159 206.259 60.0911 207.476C58.0116 208.118 51.6678 224.263 50.0195 229.586C47.3476 238.365 45.4649 247.371 44.3944 256.495C41.7303 278.012 42.6311 300.045 44.8544 321.591Z" fill="#3ACC6C"/>
<path d="M43.7144 282.255C43.8773 270.703 46.1101 258.976 48.18 247.717C50.4224 235.581 53.1152 224.136 58.9224 213.207C59.0278 213.003 59.3249 213.207 59.2291 213.383C55.4071 221.865 52.5149 230.748 50.6045 239.873C50.9974 239.211 51.4765 238.588 51.8886 237.926C52.0419 237.683 52.4444 237.926 52.2911 238.15C51.7732 239.14 51.1601 240.076 50.4607 240.943C50.4324 240.951 50.4028 240.951 50.3745 240.943C48.525 249.624 47.2601 258.46 46.2251 267.316C46.3114 267.2 46.4072 267.073 46.503 266.966C46.5988 266.859 46.6755 266.966 46.6372 267.063C46.4838 267.365 46.3114 267.657 46.1484 267.949C45.6214 272.435 45.1902 276.902 44.6631 281.34C52.3294 274.314 58.7499 266.119 62.2381 256.144C62.2381 256.096 62.3243 256.144 62.3148 256.144C58.9128 266.489 53.3452 275.754 44.5673 282.226C44.4331 283.423 44.3085 284.62 44.1744 285.807C44.1744 286.05 43.7527 286.002 43.7527 285.807C43.7527 284.756 43.7527 283.705 43.7527 282.644C43.7205 282.625 43.6933 282.598 43.6732 282.566C43.6531 282.534 43.6407 282.497 43.6369 282.459C43.6332 282.421 43.6383 282.383 43.6517 282.348C43.6652 282.312 43.6866 282.28 43.7144 282.255Z" fill="#263238"/>
<path d="M46.8767 265.429C52.6264 256.193 57.9353 247.22 62.0272 237.08C62.0272 236.963 62.2572 237.08 62.2188 237.158C58.8169 247.22 53.9392 257.448 47.1833 265.652C47.0491 265.818 46.7617 265.613 46.8767 265.429Z" fill="#263238"/>
<path d="M53.9675 235.075C56.3153 230.55 58.8069 226.141 61.0013 221.528C61.0684 221.402 61.2409 221.528 61.193 221.635C59.4178 226.421 57.1229 230.991 54.3508 235.26C54.3192 235.297 54.2767 235.322 54.2296 235.332C54.1826 235.342 54.1336 235.336 54.0902 235.315C54.0468 235.294 54.0113 235.259 53.9892 235.216C53.967 235.173 53.9594 235.123 53.9675 235.075Z" fill="#263238"/>
<path d="M53.0475 237.041C53.1052 237.041 53.1052 237.109 53.0475 237.119C52.9899 237.129 52.9995 237.041 53.0475 237.041Z" fill="#263238"/>
<path d="M40.1207 294.099C40.172 300.148 39.6392 306.188 38.5299 312.132C38.6449 312.774 38.7504 313.416 38.8654 314.078C40.5519 307.48 41.4815 294.449 41.4719 293.34C41.4677 284.243 40.5428 275.17 38.712 266.266C35.4538 249.585 28.9183 233.674 17.0547 221.499C16.9571 221.42 16.8429 221.363 16.7207 221.335C16.5986 221.307 16.4717 221.308 16.3498 221.337C16.2278 221.366 16.114 221.423 16.017 221.503C15.9199 221.584 15.8422 221.685 15.7898 221.801C11.4871 233.927 13.5186 248.194 17.8118 260.037C20.1454 266.432 23.3832 272.448 27.4234 277.895C31.5632 283.413 36.7379 288.036 40.1207 294.099Z" fill="#3ACC6C"/>
<path d="M18.5782 227.017C29.9914 244.671 38.1943 265.769 39.7276 286.975C39.7276 287.355 39.1335 287.471 39.0664 287.082C38.7502 285.184 38.4148 283.306 38.0602 281.428C33.4221 277.175 28.6594 272.669 25.267 267.288C25.2096 267.2 25.3437 267.083 25.4204 267.161C29.4739 271.609 33.2687 276.163 37.8206 280.095C36.9134 275.423 35.8465 270.83 34.6199 266.314L33.7287 265.341C33.5371 265.117 33.8437 264.777 34.045 265.001L34.3133 265.283C32.5926 259.074 30.5094 252.974 28.0748 247.016C25.2 243.737 22.0089 240.924 19.8719 236.924C19.8661 236.906 19.8667 236.885 19.8736 236.867C19.8805 236.849 19.8933 236.833 19.9098 236.823C19.9264 236.813 19.9459 236.809 19.9651 236.811C19.9842 236.814 20.0021 236.823 20.0156 236.837C21.7022 239.104 23.3505 241.391 25.2479 243.483C26.0145 244.32 26.8386 245.099 27.6244 245.916C24.9288 239.471 21.764 233.238 18.1566 227.27C18.1367 227.215 18.1366 227.154 18.1562 227.098C18.1759 227.043 18.214 226.996 18.264 226.966C18.314 226.936 18.3728 226.925 18.4302 226.934C18.4876 226.943 18.5399 226.973 18.5782 227.017Z" fill="#263238"/>
<path d="M21.4145 249.128C25.0751 253.848 29.2245 258.324 32.6456 263.21C32.7414 263.346 32.5402 263.502 32.4156 263.395C28.0937 259.502 24.3756 254.13 21.1749 249.274C21.0791 249.128 21.2995 248.962 21.4145 249.128Z" fill="#263238"/>
<path d="M33.1736 264.309L33.3369 264.456C33.4426 264.563 33.2792 264.729 33.1736 264.631L33.0198 264.475C32.9045 264.378 33.0583 264.202 33.1736 264.309Z" fill="#263238"/>
<path d="M0.351586 256.748C1.49195 265.964 6.59962 276.873 12.6464 283.832C15.3196 286.855 18.583 289.281 22.2293 290.955C26.3308 292.902 30.6335 295.082 34.8595 296.619C36.993 301.704 38.6237 306.992 39.7276 312.404C39.8426 311.937 39.9672 311.431 40.0918 310.983C36.7378 287.627 21.2423 268.066 1.76027 255.784C1.60638 255.7 1.4326 255.66 1.2578 255.668C1.083 255.677 0.91385 255.734 0.768695 255.833C0.62354 255.932 0.507922 256.07 0.434392 256.231C0.360862 256.393 0.332225 256.571 0.351586 256.748Z" fill="#3ACC6C"/>
<path d="M7.14601 263.443C7.01185 263.327 7.14601 263.074 7.33767 263.181C17.668 270.489 27.0976 281.321 32.5215 292.902C32.6748 293.213 32.2436 293.515 32.0519 293.194C31.0936 291.646 30.1353 290.138 29.1771 288.649C24.7977 287.938 20.5525 284.951 17.2655 282.09C17.1793 282.012 17.2655 281.875 17.3901 281.953C19.1011 283.445 20.9912 284.71 23.0153 285.72C24.8481 286.504 26.7192 287.192 28.6212 287.783C26.9251 285.233 25.1714 282.79 23.3507 280.416C18.6167 278.936 14.0649 276.143 10.04 273.331C9.91547 273.243 10.04 273.029 10.1646 273.107C14.1712 275.408 18.2944 277.494 22.5169 279.355C19.7554 275.871 16.7889 272.559 13.6336 269.438C12.1291 268.689 10.6054 267.93 9.14884 267.122C9.12862 267.105 9.11419 267.082 9.10761 267.056C9.10104 267.03 9.10264 267.003 9.1122 266.978C9.12176 266.954 9.13878 266.932 9.16085 266.918C9.18291 266.904 9.20889 266.897 9.23508 266.898C10.4403 267.285 11.5954 267.817 12.6753 268.484C10.9217 266.781 9.10092 265.088 7.14601 263.443Z" fill="#263238"/>
<path d="M7.78769 271.511C8.04991 271.663 8.29986 271.835 8.53516 272.027C8.60224 272.085 8.53515 272.183 8.44891 272.144C8.17375 272.031 7.91048 271.891 7.66311 271.725C7.64125 271.706 7.62677 271.679 7.62218 271.65C7.61758 271.621 7.62315 271.591 7.63793 271.566C7.65271 271.54 7.67577 271.521 7.70312 271.511C7.73046 271.501 7.76038 271.501 7.78769 271.511Z" fill="#263238"/>
<path d="M63.3114 298.371L62.5447 316.171L60.4365 364.995H26.4652L24.357 316.171L23.5903 298.371H63.3114Z" fill="#37474F"/>
<path d="M63.3114 298.371L62.5447 316.171H24.357L23.5903 298.371H63.3114Z" fill="#263238"/>
<path d="M66.2336 294.722H20.667V305.942H66.2336V294.722Z" fill="#37474F"/>
</svg>
