<svg width="12" height="15" viewBox="0 0 12 15" fill="none" xmlns="http://www.w3.org/2000/svg">
<path d="M10.725 4.80272L11.4075 4.09296C11.5487 3.94446 11.6281 3.74304 11.6281 3.53303C11.6281 3.32302 11.5487 3.12161 11.4075 2.97311C11.2663 2.82461 11.0747 2.74118 10.875 2.74118C10.6753 2.74118 10.4837 2.82461 10.3425 2.97311L9.66752 3.69076C8.61643 2.83577 7.32515 2.37189 5.99627 2.37189C4.66739 2.37189 3.3761 2.83577 2.32502 3.69076L1.64252 2.96522C1.5003 2.81672 1.3078 2.73371 1.10737 2.73445C0.906938 2.73519 0.714997 2.81962 0.57377 2.96917C0.432542 3.11871 0.353596 3.32113 0.354299 3.53188C0.355003 3.74263 0.435297 3.94446 0.57752 4.09296L1.26752 4.8106C0.444781 5.91274 -0.00163737 7.27375 1.96717e-05 8.67486C-0.00242959 9.68069 0.223867 10.6726 0.660037 11.5677C1.09621 12.4629 1.72961 13.2355 2.50741 13.821C3.28522 14.4065 4.18488 14.7879 5.13138 14.9335C6.07787 15.0792 7.04376 14.9847 7.94848 14.6581C8.85321 14.3314 9.67055 13.7821 10.3323 13.0558C10.9941 12.3295 11.4812 11.4474 11.7529 10.483C12.0246 9.51859 12.0731 8.49986 11.8943 7.51175C11.7155 6.52365 11.3146 5.59481 10.725 4.80272ZM6.00002 13.4066C5.11 13.4066 4.23997 13.1291 3.49995 12.6092C2.75993 12.0892 2.18316 11.3502 1.84256 10.4856C1.50197 9.621 1.41285 8.66961 1.58649 7.75174C1.76012 6.83387 2.1887 5.99076 2.81804 5.32901C3.44738 4.66727 4.2492 4.21661 5.12211 4.03404C5.99503 3.85146 6.89983 3.94517 7.7221 4.3033C8.54436 4.66143 9.24717 5.26791 9.74163 6.04604C10.2361 6.82417 10.5 7.73901 10.5 8.67486C10.5 9.92979 10.0259 11.1333 9.182 12.0207C8.33809 12.9081 7.19349 13.4066 6.00002 13.4066ZM4.50002 1.57725H7.50002C7.69893 1.57725 7.8897 1.49416 8.03035 1.34626C8.171 1.19837 8.25002 0.997779 8.25002 0.788623C8.25002 0.579467 8.171 0.378878 8.03035 0.230982C7.8897 0.0830868 7.69893 0 7.50002 0H4.50002C4.30111 0 4.11034 0.0830868 3.96969 0.230982C3.82904 0.378878 3.75002 0.579467 3.75002 0.788623C3.75002 0.997779 3.82904 1.19837 3.96969 1.34626C4.11034 1.49416 4.30111 1.57725 4.50002 1.57725ZM6.75002 6.30899C6.75002 6.09983 6.671 5.89924 6.53035 5.75135C6.3897 5.60345 6.19893 5.52036 6.00002 5.52036C5.80111 5.52036 5.61034 5.60345 5.46969 5.75135C5.32904 5.89924 5.25002 6.09983 5.25002 6.30899V7.79949C5.0802 7.9592 4.9605 8.16937 4.90676 8.40219C4.85302 8.635 4.86778 8.87949 4.94908 9.10329C5.03037 9.3271 5.17438 9.51967 5.36205 9.65553C5.54971 9.79139 5.77218 9.86413 6.00002 9.86413C6.22786 9.86413 6.45033 9.79139 6.63799 9.65553C6.82566 9.51967 6.96967 9.3271 7.05096 9.10329C7.13226 8.87949 7.14702 8.635 7.09328 8.40219C7.03954 8.16937 6.91984 7.9592 6.75002 7.79949V6.30899Z" fill="#4668D6"/>
</svg>
