<svg width="361" height="373" viewBox="0 0 361 373" fill="none" xmlns="http://www.w3.org/2000/svg">
<path d="M180.392 373C248.205 373 303.179 364.313 303.179 353.598C303.179 342.882 248.205 334.196 180.392 334.196C112.578 334.196 57.6045 342.882 57.6045 353.598C57.6045 364.313 112.578 373 180.392 373Z" fill="#DCDCDC"/>
<path d="M0.345703 331.558L45.3638 331.344L90.373 331.263L180.391 331.111L270.41 331.263L315.419 331.344L360.437 331.558L315.419 331.782L270.41 331.853L180.391 332.005L90.373 331.853L45.3638 331.773L0.345703 331.558Z" fill="#263238"/>
<path d="M136.312 331.558H64.417C64.417 331.558 64.5779 320.829 71.6503 318.021C73.5647 317.184 75.6994 316.993 77.7319 317.477C79.7644 317.961 81.5841 319.094 82.916 320.703C82.916 320.703 85.795 301.033 99.0098 301.033C112.225 301.033 118.483 318.021 118.483 318.021C118.483 318.021 121.38 312.916 128.703 313.81C136.026 314.704 136.312 331.558 136.312 331.558Z" fill="#37474F"/>
<path d="M349.779 331.558C349.779 331.558 347.571 321.276 343.172 319.693C338.773 318.111 336.09 322.724 336.09 322.724C336.09 322.724 335.071 312.916 328.812 309.956C322.554 306.997 317.886 313.032 317.886 313.032C317.886 313.032 313.103 300.568 304.546 300.568C295.99 300.568 291.671 318.808 291.671 318.808C291.671 318.808 286.62 313.372 281.425 316.492C276.23 319.613 276.248 331.603 276.248 331.603L349.779 331.558Z" fill="#37474F"/>
<path d="M77.3007 331.558H11.0029C11.0029 331.558 13.1935 322.214 17.5835 321.553C21.9736 320.891 24.0211 325.219 24.0211 325.219C24.0211 325.219 23.8244 312.183 32.068 309.965C40.3116 307.748 47.1694 319.264 47.1694 319.264C47.1694 319.264 52.3194 312.692 59.3292 313.112C66.339 313.533 68.1272 324.387 68.1272 324.387C68.1272 324.387 74.4753 320.623 77.3007 331.558Z" fill="#455A64"/>
<path d="M281.022 331.558H240.296C240.296 331.558 240.394 325.496 244.4 323.887C245.486 323.414 246.696 323.307 247.848 323.583C248.999 323.859 250.03 324.502 250.784 325.415C250.784 325.415 252.411 314.275 259.877 314.275C267.343 314.275 270.91 323.887 270.91 323.887C271.543 322.968 272.43 322.255 273.462 321.834C274.495 321.413 275.627 321.303 276.722 321.517C280.852 322.063 281.022 331.558 281.022 331.558Z" fill="#455A64"/>
<path d="M208.788 10.1995C219.195 28.0816 215.672 52.9108 194.053 69.6752C174.382 84.9286 144.877 82.6934 133.915 70.0687C122.292 56.6571 126.763 38.0866 138.779 32.114C150.358 26.3559 162.428 29.4317 170.019 22.5113C173.649 19.1942 176.162 11.2635 181.312 6.12239C187.061 0.400123 202.091 -1.27185 208.788 10.1995Z" fill="#263238"/>
<path d="M147.863 79.7162C155.958 82.285 164.573 82.7527 172.898 81.0752C181.255 79.3634 189.105 75.7502 195.841 70.5159C202.692 65.3959 208.041 58.5278 211.327 50.631C214.454 42.7099 215.381 34.0904 214.009 25.6855C214.988 34.0591 213.812 42.5439 210.594 50.336C208.949 54.1846 206.793 57.7936 204.183 61.0652C201.559 64.3181 198.541 67.2314 195.197 69.738C191.885 72.2876 188.317 74.4841 184.548 76.2918C176.96 79.8864 168.641 81.6708 160.247 81.5044C156.059 81.446 151.896 80.8449 147.863 79.7162Z" fill="#263238"/>
<path d="M135.302 33.0619C137.362 31.4672 139.661 30.2089 142.115 29.3335C144.546 28.4453 147.072 27.8452 149.643 27.5453C152.236 27.2413 154.829 26.8747 157.413 26.4097C160.033 25.9469 162.59 25.1787 165.031 24.1208C166.262 23.5944 167.441 22.9538 168.553 22.2075C169.645 21.4158 170.628 20.4839 171.477 19.4357C173.087 17.3566 174.571 15.1831 175.921 12.9267C177.266 10.7146 178.889 8.68341 180.749 6.88252C182.634 5.09145 184.831 3.66108 187.231 2.66235C184.724 3.49262 182.401 4.80131 180.391 6.51594C178.427 8.28206 176.696 10.2922 175.241 12.4975C173.73 14.6433 172.416 16.9054 170.771 18.8635C169.965 19.8408 169.033 20.7067 167.999 21.4385C166.931 22.1386 165.799 22.7373 164.619 23.2267C159.916 25.3189 154.668 25.909 149.536 26.7316C146.931 27.1259 144.382 27.8313 141.945 28.8328C139.506 29.8544 137.26 31.2846 135.302 33.0619Z" fill="#263238"/>
<path d="M62.2442 197.917C59.8659 193.231 99.278 142.178 133.772 99.6099C133.776 99.6031 133.778 99.5954 133.778 99.5875C133.778 99.5797 133.776 99.572 133.772 99.5652C149.348 80.3598 162.795 60.6538 172.97 49.6474C179.434 42.6466 185.353 40.9478 187.088 40.9478C192.828 40.9478 208.01 44.8192 205.551 75.7284C203.691 99.1002 198.917 123.742 204.398 149.546C209.879 175.349 224.023 199.052 238.418 209.513C252.813 219.974 274.102 220.913 271.867 220.725C271.178 220.663 268.29 224.525 261.066 227.198C252.125 230.471 238.284 231.356 231.882 234.432C218.775 240.69 208.144 255.094 188.357 256.784C167.516 258.572 145.047 244.526 124.59 236.631C99.7787 227.02 82.7192 238.321 62.2442 197.917Z" fill="#FFC727"/>
<g opacity="0.1">
<path opacity="0.1" d="M62.2442 197.917C59.8659 193.231 99.278 142.178 133.772 99.6099C133.776 99.6031 133.778 99.5954 133.778 99.5875C133.778 99.5797 133.776 99.572 133.772 99.5652C149.348 80.3598 162.795 60.6538 172.97 49.6474C179.434 42.6466 185.353 40.9478 187.088 40.9478C192.828 40.9478 208.01 44.8192 205.551 75.7284C203.691 99.1002 198.917 123.742 204.398 149.546C209.879 175.349 224.023 199.052 238.418 209.513C252.813 219.974 274.102 220.913 271.867 220.725C271.178 220.663 268.29 224.525 261.066 227.198C252.125 230.471 238.284 231.356 231.882 234.432C218.775 240.69 208.144 255.094 188.357 256.784C167.516 258.572 145.047 244.526 124.59 236.631C99.7787 227.02 82.7192 238.321 62.2442 197.917Z" fill="black"/>
</g>
<path opacity="0.1" d="M133.719 240.396C130.652 239.054 127.621 237.767 124.626 236.613C118.791 234.482 112.75 232.966 106.601 232.089C106.601 232.089 132.53 178.443 148.668 170.012C157.502 165.389 142.061 187.742 133.719 240.396Z" fill="black"/>
<path opacity="0.1" d="M244.016 231.186C239.223 232.08 234.806 233.046 231.919 234.432C228.621 236.098 225.471 238.042 222.504 240.243C206.41 222.039 196.369 208.217 194.545 193.222C193.374 183.602 213.786 222.343 244.016 231.186Z" fill="black"/>
<path opacity="0.1" d="M150.724 247.978C147.944 246.788 145.172 245.546 142.409 244.303C148.543 225.169 150.277 206.089 152.343 207.573C154.596 209.2 152.343 233.439 150.724 247.978Z" fill="black"/>
<path d="M91.7051 244.723C91.7051 244.723 70.1035 233.681 58.5696 202.968C57.443 199.973 65.9996 171.335 76.5679 156.224C87.1362 141.114 100.262 133.872 116.677 119.101C133.093 104.331 164.798 55.2355 176.082 46.357C183.833 40.2592 187.124 40.9924 187.124 40.9924C187.124 40.9924 177.181 47.3674 172.925 52.6426C156.116 73.5288 136.589 119.209 128.462 128.641C118.528 140.265 106.628 152.38 100.995 163.789C94.6824 176.61 90.2208 232.956 91.7051 244.723Z" fill="#FFC727"/>
<path d="M272.823 354.161C270.57 354.894 204.415 354.295 201.983 352.713C201.089 352.132 205.926 289.419 205.926 289.419L248.021 289.687L243.64 331.692C243.64 331.692 268.183 342.904 270.695 344.925C273.208 346.946 275.085 353.428 272.823 354.161Z" fill="#EB9481"/>
<path d="M272.823 354.161C270.57 354.894 204.416 354.295 201.984 352.713C201.689 352.534 201.528 346.168 202.475 337.879C214.492 339.739 257.373 345.774 260.681 343.772C262.988 342.377 260.905 340.267 258.983 338.854C264.481 341.536 269.614 344.067 270.678 344.934C273.154 346.946 275.077 353.437 272.823 354.161Z" fill="#263238"/>
<path d="M246.921 321.562H200.544C200.544 321.562 209.279 222.826 208.913 220.931C208.448 218.508 205.712 207.519 202.064 193.214C200.919 188.743 199.694 183.924 198.407 178.908C194.956 165.434 191.138 150.708 187.821 137.886C182.841 118.69 178.951 103.776 178.951 103.776H218.247C218.247 103.776 222.834 118.297 228.601 137.189C238.007 167.893 250.578 210.148 251.847 220.421C253.832 237.06 246.921 321.562 246.921 321.562Z" fill="#37474F"/>
<path d="M244.865 313.649C237.784 313.506 239.822 313.444 232.732 313.381C229.272 313.381 206.49 313.149 203.227 313.685C203.208 313.685 203.19 313.693 203.176 313.706C203.163 313.72 203.155 313.738 203.155 313.757C203.155 313.776 203.163 313.794 203.176 313.807C203.19 313.821 203.208 313.828 203.227 313.828C206.463 314.365 229.245 314.168 232.732 314.132C239.822 314.061 237.784 314.007 244.865 313.855C244.887 313.848 244.907 313.835 244.921 313.816C244.934 313.798 244.942 313.775 244.942 313.752C244.942 313.729 244.934 313.707 244.921 313.688C244.907 313.67 244.887 313.656 244.865 313.649Z" fill="#263238"/>
<path d="M217.639 214.314C216.119 207.609 213.848 201.037 211.863 194.456C207.846 181.093 203.804 167.732 199.739 154.374C197.713 147.698 195.671 141.019 193.615 134.337C192.577 130.975 191.549 127.604 190.494 124.242C189.439 120.881 188.286 117.689 187.356 114.407C186.971 113.057 186.766 113.799 187.249 115.516C188.232 118.976 189.198 122.436 190.208 125.888C192.199 132.719 194.208 139.547 196.234 146.371C200.258 159.962 204.314 173.54 208.403 187.107C210.442 193.914 212.486 200.715 214.537 207.51C215.572 210.735 216.411 214.019 217.049 217.345C217.593 220.841 217.731 224.387 217.46 227.914C217.013 235.004 216.191 242.085 215.538 249.167C214.885 256.248 214.224 263.356 213.562 270.446C212.257 284.564 211.559 289.106 210.29 303.233C210.129 305.021 209.968 306.809 209.834 308.598C209.789 309.197 210.728 309.152 210.728 308.598C212.257 294.641 212.82 290.206 214.134 276.222C215.449 262.238 216.736 248.398 218.042 234.485C218.363 230.998 218.739 227.493 218.739 223.989C218.733 220.733 218.365 217.488 217.639 214.314Z" fill="#263238"/>
<path d="M213.785 103.821C211.058 124.931 205.855 164.513 202.064 193.231C193.203 158.442 178.951 103.821 178.951 103.821H213.785Z" fill="#263238"/>
<path d="M223.442 354.939C221.189 355.672 155.034 355.073 152.603 353.491C151.708 352.909 153.64 290.197 153.64 290.197L195.734 290.474L194.25 332.434C194.25 332.434 218.802 343.691 221.296 345.712C223.791 347.733 225.695 354.206 223.442 354.939Z" fill="#EB9481"/>
<path d="M223.443 354.939C221.189 355.672 155.035 355.073 152.603 353.49C152.308 353.312 152.299 347.115 152.424 338.657C164.441 340.517 207.992 346.552 211.301 344.549C213.607 343.155 211.524 341.044 209.602 339.632C215.101 342.314 220.233 344.844 221.297 345.712C223.773 347.714 225.696 354.206 223.443 354.939Z" fill="#263238"/>
<path d="M216.978 103.821C216.978 103.821 216.083 122.597 211.765 137.52C211.425 138.754 211.05 139.961 210.647 141.096C206.703 142.69 202.911 144.638 199.319 146.917C199.319 146.917 198.863 162.054 198.425 178.926C197.924 197.782 197.406 218.83 197.531 223.291C197.924 239.984 195.895 321.347 195.895 321.347L149.526 321.535C149.526 321.535 157.457 229.443 157.403 223.336C157.314 213.501 159.648 170.056 161.454 138.396C162.509 118.896 163.403 103.821 163.403 103.821H216.978Z" fill="#37474F"/>
<path d="M194.267 313.131C187.186 313.015 189.224 312.943 182.134 312.907C178.674 312.907 155.892 312.791 152.629 313.337C152.557 313.337 152.557 313.471 152.629 313.48C155.865 314.007 178.647 313.712 182.134 313.658C189.216 313.56 187.177 313.515 194.258 313.337C194.281 313.331 194.301 313.318 194.316 313.3C194.33 313.282 194.339 313.26 194.34 313.237C194.341 313.214 194.334 313.191 194.321 313.172C194.308 313.153 194.289 313.138 194.267 313.131Z" fill="#263238"/>
<path d="M167.32 110.545C166.47 136.411 165.531 162.278 164.405 188.135C163.278 213.993 161.678 239.993 159.505 265.922C158.298 280.38 157.601 290.286 156.045 304.708C156.045 304.807 156.179 304.842 156.197 304.708C159.568 279.047 160.998 257.759 162.661 231.937C164.324 206.115 165.442 180.258 166.327 154.401C166.828 139.773 167.221 125.145 167.641 110.518C167.65 110.312 167.329 110.339 167.32 110.545Z" fill="#263238"/>
<path d="M212.579 140.005C207.97 141.931 203.537 144.253 199.329 146.944C199.159 147.051 199.284 147.31 199.463 147.221C203.933 145.048 208.502 142.956 212.874 140.542C212.945 140.503 212.998 140.437 213.021 140.359C213.043 140.281 213.034 140.197 212.995 140.126C212.956 140.055 212.89 140.002 212.812 139.98C212.734 139.957 212.65 139.966 212.579 140.005Z" fill="#263238"/>
<path d="M212.829 124.055C212.525 125.7 212.123 127.327 211.774 128.972C211.426 130.617 211.193 132.075 210.782 133.595C210.453 135.064 209.708 136.408 208.636 137.466C208.028 138.03 207.366 138.521 206.723 139.04C206.374 139.317 205.998 139.585 205.641 139.863C205.686 139.648 205.721 139.424 205.766 139.201L206.088 137.323C206.32 135.937 206.544 134.543 206.75 133.157C207.17 130.421 207.554 127.658 208.126 124.949C208.128 124.928 208.122 124.907 208.11 124.891C208.098 124.874 208.08 124.862 208.06 124.856C208.04 124.851 208.019 124.853 208 124.862C207.981 124.87 207.966 124.885 207.957 124.904C207.277 127.586 206.526 130.269 205.927 132.951C205.641 134.274 204.604 140.828 204.55 141.293C204.496 141.758 204.47 142.25 204.452 142.733C204.385 143.219 204.385 143.712 204.452 144.199C204.452 144.315 204.622 144.297 204.675 144.199C204.877 143.746 205.018 143.268 205.095 142.777C205.212 142.303 205.319 141.83 205.408 141.356C205.408 141.186 205.462 141.007 205.48 140.837C206.124 140.444 206.732 139.943 207.331 139.487C207.93 139.031 208.645 138.593 209.262 138.039C210.396 137.077 211.215 135.796 211.613 134.364C212.008 132.819 212.265 131.242 212.382 129.652C212.588 127.792 212.74 125.923 213.008 124.064C213.017 123.983 212.856 123.939 212.829 124.055Z" fill="#263238"/>
<path d="M195.01 56.4605C208.001 77.2663 240.501 107.773 249.237 102.06C259.966 95.0857 256.783 61.691 256.667 55.9687C256.595 51.9631 227.161 56.9522 228.681 60.9667C229.576 63.3987 230.327 66.5728 229.728 66.2777C227.85 65.3836 223.88 60.2604 206.043 48.1274C196.109 41.3948 186.408 42.6823 195.01 56.4605Z" fill="#EB9481"/>
<path d="M247.699 21.3671C246.835 21.27 245.961 21.441 245.197 21.8568C244.432 22.2725 243.814 22.9131 243.426 23.6917C242.299 22.7407 240.876 22.2126 239.402 22.1986C236.791 22.2969 235.826 26.4277 235.826 26.4277C234.459 25.6878 232.901 25.3762 231.355 25.5336C228.87 25.8733 227.287 29.8968 227.287 29.8968C225.641 29.9124 224.054 30.5183 222.817 31.6045C219.634 34.6356 220.984 41.2072 221.797 45.3916C222.611 49.576 228.843 60.6897 229.844 62.9339L256.766 57.9359C256.766 57.9359 258.456 38.1226 256.766 33.3302C255.317 29.2888 251.026 21.8499 247.699 21.3671Z" fill="#EB9481"/>
<path d="M243.872 23.7988C246.385 27.7329 247.601 32.1945 249.058 36.5756C249.065 36.5957 249.064 36.6179 249.055 36.6372C249.046 36.6564 249.029 36.6713 249.009 36.6784C248.989 36.6855 248.967 36.6843 248.947 36.6751C248.928 36.6659 248.913 36.6494 248.906 36.6292C247.502 32.2481 245.249 28.2067 243.676 23.8972C243.663 23.8711 243.66 23.8409 243.67 23.8132C243.679 23.7856 243.699 23.7627 243.725 23.7496C243.751 23.7366 243.781 23.7345 243.809 23.7437C243.836 23.7529 243.859 23.7727 243.872 23.7988Z" fill="#263238"/>
<path d="M236.166 26.4455C236.658 27.4051 237.016 28.428 237.23 29.4855C237.534 30.5763 237.832 31.6671 238.124 32.7579C238.66 34.9455 239.14 37.1509 239.563 39.3743C239.563 39.4726 239.438 39.5263 239.411 39.3743C238.875 37.1926 238.302 35.02 237.677 32.8562C237.364 31.7744 237.033 30.7015 236.702 29.6196C236.326 28.6262 236.059 27.5949 235.906 26.5439C235.911 26.5163 235.923 26.4904 235.941 26.4688C235.958 26.4471 235.982 26.4305 236.008 26.4206C236.034 26.4107 236.062 26.4078 236.09 26.4121C236.118 26.4165 236.144 26.428 236.166 26.4455Z" fill="#263238"/>
<path d="M227.251 29.986C227.676 30.8482 227.951 31.7765 228.065 32.7309C228.288 33.7323 228.512 34.7427 228.744 35.7441C229.218 37.7469 229.683 39.7496 230.228 41.7346C230.228 41.7559 230.22 41.7764 230.205 41.7915C230.19 41.8065 230.169 41.815 230.148 41.815C230.127 41.815 230.106 41.8065 230.091 41.7915C230.076 41.7764 230.067 41.7559 230.067 41.7346C229.513 39.7228 228.932 37.7111 228.396 35.6994C228.127 34.7069 227.868 33.7144 227.618 32.7131C227.297 31.8305 227.137 30.898 227.144 29.9592C227.151 29.9508 227.161 29.9445 227.172 29.9412C227.183 29.9379 227.194 29.9376 227.205 29.9403C227.217 29.9431 227.227 29.9488 227.235 29.9569C227.243 29.9649 227.248 29.975 227.251 29.986Z" fill="#263238"/>
<path d="M228.494 62.8711L258.286 57.4439C258.286 57.4439 261.111 103.848 246.841 103.848C235.388 103.848 205.605 74.8878 195.636 58.7403C185.667 42.5928 194.59 40.3933 206.008 47.2779C215.315 52.8929 225.776 62.585 228.924 65.16L228.494 62.8711Z" fill="#EBEBEB"/>
<path d="M228.816 65.1512L260.521 62.3258L259.591 56.0134L227.823 61.995L228.816 65.1512Z" fill="#EBEBEB"/>
<path d="M249.755 103.106C248.863 103.598 247.86 103.853 246.841 103.848C235.387 103.848 205.605 74.8881 195.635 58.7406C188.697 47.5106 190.906 43.0312 196.735 43.657L249.755 103.106Z" fill="#DBDBDB"/>
<path d="M228.923 65.1511L229.647 68.0033L230.344 70.8466L231.739 76.5331C232.213 78.4196 232.696 80.3062 233.206 82.1838C233.465 83.1226 233.724 84.0614 234.028 84.9913C234.332 85.9211 234.618 86.8421 234.922 87.7898C233.993 86.0689 233.207 84.2747 232.571 82.4252C231.9 80.5744 231.382 78.6789 230.89 76.7834C230.398 74.8879 229.996 72.9567 229.692 71.0254C229.335 69.0817 229.079 67.121 228.923 65.1511Z" fill="#263238"/>
<path d="M257.704 62.3168C253.09 62.6119 248.486 63.2109 243.89 63.7385C241.61 64.0067 239.321 64.2839 237.041 64.5789C234.761 64.874 232.41 65.2584 230.076 65.473C229.996 65.473 229.996 65.625 230.076 65.6161C232.427 65.3657 234.797 65.2495 237.157 65.0349C239.518 64.8203 241.726 64.5968 244.015 64.3375C248.584 63.8189 253.189 63.3003 257.713 62.4331C257.802 62.442 257.775 62.3079 257.704 62.3168Z" fill="#263238"/>
<path d="M226.295 125.968L222.325 113.164L219.535 94.2631C219.535 94.2631 225.428 83.668 221.833 76.1664C220.045 72.3665 204.246 48.7801 197.693 44.1307C191.523 39.7675 182.707 44.6314 179.444 48.1452C166.926 61.6999 164.173 95.041 160.051 131.297L204.175 127.72L208.502 118.234L212.544 127.05L226.295 125.968Z" fill="#EBEBEB"/>
<path d="M222.924 78.3391C222.416 76.753 221.685 75.2477 220.751 73.8686C220.438 73.359 219.741 72.295 218.909 71.0432C218.668 70.4442 218.4 69.8451 218.105 69.255C217.615 68.412 217.17 67.5435 216.773 66.6532C216.765 66.6354 216.752 66.6212 216.734 66.6136C216.716 66.6061 216.696 66.6058 216.679 66.6129C216.661 66.6201 216.647 66.6339 216.639 66.6516C216.632 66.6692 216.631 66.689 216.638 66.7068C217.061 67.5604 217.44 68.4347 217.774 69.3265C216.37 67.2522 214.886 65.1153 214.251 64.2391C214.197 64.1676 214.081 64.2391 214.135 64.3106C215.485 66.0273 219.911 73.5735 220.984 75.4869C222.025 77.3801 222.576 79.5043 222.584 81.6652C222.588 83.9001 222.324 86.1274 221.797 88.2994C221.744 88.4872 221.932 88.5766 222.003 88.3978C222.624 86.8133 223.015 85.1484 223.165 83.4534C223.39 81.7478 223.308 80.0159 222.924 78.3391Z" fill="#263238"/>
<path d="M184.236 54.2789C180.248 60.4392 160.64 85.0718 159.952 87.3607C159.263 89.6496 165.236 94.8086 165.2 95.7563C165.066 99.592 158.199 125.503 154.757 123.098C150.215 119.933 128.685 97.169 130.715 86.4398C132.744 75.7105 174.427 47.9933 181.133 45.4541C187.839 42.9148 188.17 48.2079 184.236 54.2789Z" fill="#EB9481"/>
<path d="M145.083 114.631L163.725 93.7446C163.725 93.7446 160.265 88.7287 160.283 87.9866C160.301 87.2445 177.459 66.9126 184.066 55.7989C190.674 44.6852 187.973 41.2518 175.349 47.5821C162.724 53.9123 132.119 77.6418 130.581 85.4026C128.238 97.2406 145.083 114.631 145.083 114.631Z" fill="#EBEBEB"/>
<path d="M142.061 114.077L147.059 119.084L164.833 94.612L162.786 91.7866L142.061 114.077Z" fill="#EBEBEB"/>
<path d="M161.758 92.4749C160.115 93.9882 158.557 95.5911 157.091 97.2762C155.553 98.8946 154.06 100.558 152.558 102.203C149.545 105.52 146.612 108.864 143.778 112.333C143.765 112.347 143.758 112.366 143.759 112.385C143.76 112.405 143.768 112.423 143.782 112.436C143.797 112.449 143.815 112.456 143.835 112.455C143.854 112.454 143.872 112.446 143.885 112.431C147.077 109.248 150.144 105.967 153.148 102.596C154.65 100.942 156.143 99.288 157.619 97.5981C159.129 95.9902 160.549 94.3008 161.875 92.5375C161.91 92.4839 161.812 92.4302 161.758 92.4749Z" fill="#263238"/>
<path d="M176.448 68.5399C175.706 69.2016 174.964 69.8543 174.213 70.4801L173.945 70.7126C175.25 68.9244 176.532 67.1362 177.789 65.348C177.789 65.348 177.745 65.2586 177.718 65.2943C173.855 69.7653 170.249 74.4519 166.917 79.3318C166.913 79.3458 166.913 79.3607 166.918 79.3746C166.922 79.3884 166.931 79.4005 166.943 79.4093C166.954 79.4181 166.968 79.423 166.983 79.4236C166.998 79.4241 167.012 79.4201 167.024 79.4122C169.125 77.0339 171.101 74.5394 173.006 71.9912C173.48 71.5799 173.9 71.1507 174.383 70.7126C175.089 70.0063 175.813 69.3178 176.547 68.6383C176.618 68.5757 176.511 68.4863 176.448 68.5399Z" fill="#263238"/>
<path d="M171.45 131.315C173.971 128.785 169.536 127.265 169.536 127.265C169.536 127.265 176.439 127.908 178.021 124.296C179.604 120.684 174.123 119.164 173.739 119.039C174.105 119.039 180.462 119.495 181.678 115.695C182.939 111.743 177.208 111.028 176.85 110.983C177.208 110.903 181.866 109.776 182.134 106.682C182.59 101.318 168.973 103.446 165.441 100.933C165.441 100.933 165.441 94.0308 165.513 93.8252C165.513 93.8252 164.538 96.7131 162.312 97.8397C159.549 99.2435 157.01 100.245 156.107 101.881C155.673 102.602 155.484 103.444 155.566 104.281C155.648 105.119 155.998 105.907 156.563 106.53C156.563 106.53 152.79 106.825 151.735 109.785C151.198 111.314 153.156 113.522 153.156 113.522C153.156 113.522 150.143 113.889 149.374 116.58C148.748 118.726 150.805 120.613 150.805 120.613C150.805 120.613 148.078 122.302 148.123 124.708C148.266 129.545 166.023 136.778 171.45 131.315Z" fill="#EB9481"/>
<path d="M151.056 120.961C150.994 120.961 150.949 121.006 151.002 121.042C156.471 125.013 163.022 127.222 169.779 127.372C169.993 127.372 170.092 127.023 169.85 126.978C163.327 125.895 156.996 123.868 151.056 120.961Z" fill="#263238"/>
<path d="M153.023 113.531C152.951 113.531 152.898 113.611 152.96 113.656C158.405 117.537 166.309 120.192 173.829 119.289C174.088 119.289 174.294 118.976 173.99 118.985C168.947 119.2 158.539 116.33 153.023 113.531Z" fill="#263238"/>
<path d="M177.316 110.742C170.073 111.332 163.368 109.535 156.751 106.7C156.671 106.7 156.626 106.79 156.689 106.843C159.55 109.114 163.958 110.473 167.48 111.251C170.726 112.019 174.115 111.929 177.316 110.992C177.468 110.956 177.477 110.733 177.316 110.742Z" fill="#263238"/>
<path d="M150.582 120.63C149.277 119.522 148.204 118.002 148.624 116.213C148.806 115.402 149.276 114.684 149.947 114.193C150.764 113.713 151.684 113.437 152.629 113.388C151.413 112.038 150.698 110.116 151.565 108.39C151.986 107.645 152.673 107.086 153.488 106.825C154.431 106.544 155.409 106.39 156.394 106.369C155.906 105.982 155.516 105.486 155.253 104.921C154.991 104.356 154.864 103.737 154.883 103.115C154.931 102.431 155.142 101.768 155.498 101.181C155.854 100.595 156.345 100.102 156.93 99.744C158.302 98.9193 159.767 98.259 161.293 97.777C162.072 97.4981 162.813 97.1258 163.502 96.6683C164.233 96.136 164.79 95.3985 165.102 94.5492C165.165 94.3973 165.183 94.5492 165.102 94.6744C164.892 95.2497 164.59 95.7872 164.208 96.2659C163.806 96.7679 163.344 97.2184 162.831 97.6071C161.517 98.4149 160.145 99.1261 158.727 99.7351C157.498 100.335 156.499 101.321 155.884 102.543C155.623 103.179 155.544 103.876 155.656 104.555C155.768 105.234 156.067 105.868 156.519 106.387C156.519 106.387 156.519 106.53 156.438 106.539C155.57 106.701 154.726 106.971 153.926 107.344C153.262 107.665 152.71 108.179 152.343 108.819C152.035 109.593 151.937 110.434 152.058 111.259C152.179 112.083 152.515 112.86 153.032 113.513C152.11 113.769 151.241 114.186 150.466 114.747C149.98 115.195 149.633 115.772 149.464 116.41C149.27 117.146 149.285 117.921 149.506 118.648C149.727 119.376 150.146 120.028 150.716 120.532C150.722 120.549 150.722 120.568 150.716 120.586C150.722 120.603 150.722 120.622 150.716 120.639C150.716 120.639 149.822 121.211 149.822 121.229C149.822 121.247 149.822 121.229 149.822 121.176C150.063 120.978 150.317 120.796 150.582 120.63Z" fill="#263238"/>
<path d="M184.423 44.0414C184.682 45.0875 192.398 51.6323 197.182 51.3551C198.738 51.2568 195.957 42.9327 195.957 42.9327L196.091 42.3068L197.96 33.4731L187.543 26.9461L186.032 26.052C186.032 26.052 185.684 28.5018 185.272 31.5597C185.272 31.7027 185.228 31.8458 185.21 31.9978C185.192 32.1498 185.156 32.3286 185.138 32.4895C185.076 32.9455 185.004 33.3836 184.951 33.8754C184.897 34.3672 184.861 34.5728 184.825 34.9483C184.79 35.3239 184.745 35.6904 184.709 36.057C184.426 38.7084 184.33 41.3765 184.423 44.0414Z" fill="#EB9481"/>
<path d="M185.272 31.5865C186.19 34.0524 187.633 36.2893 189.501 38.142C191.369 39.9947 193.618 41.4188 196.091 42.3157L197.96 33.482L187.543 26.9461L186.032 26.052C186.032 26.052 185.684 28.5287 185.272 31.5865Z" fill="#263238"/>
<path d="M210.389 20.4638C212.561 36.1643 203.406 39.24 200.017 39.696C196.95 40.1252 186.427 41.1623 182.645 25.7748C178.862 10.3873 185.479 4.41469 192.48 3.08247C199.481 1.75026 208.216 4.76339 210.389 20.4638Z" fill="#EB9481"/>
<path d="M205.086 18.0052C204.723 17.9771 204.361 17.9264 204.004 17.8532C203.616 17.8507 203.24 17.722 202.931 17.4866C202.854 17.3887 202.812 17.2674 202.812 17.1424C202.812 17.0174 202.854 16.8961 202.931 16.7982C203.099 16.615 203.313 16.4802 203.55 16.4078C203.788 16.3355 204.04 16.3282 204.281 16.3869C204.79 16.4212 205.267 16.6483 205.614 17.0217C205.692 17.1134 205.741 17.2266 205.754 17.3465C205.766 17.4664 205.743 17.5874 205.686 17.6936C205.629 17.7999 205.541 17.8865 205.434 17.9421C205.327 17.9977 205.206 18.0197 205.086 18.0052Z" fill="#263238"/>
<path d="M194.59 20.1689C194.956 20.2315 195.314 20.2225 195.681 20.2494C196.06 20.3309 196.455 20.287 196.807 20.1242C196.909 20.0513 196.983 19.9468 197.019 19.827C197.054 19.7072 197.049 19.579 197.004 19.4625C196.879 19.2463 196.699 19.0669 196.482 18.9428C196.266 18.8188 196.02 18.7544 195.77 18.7562C195.266 18.6827 194.752 18.8007 194.33 19.087C194.237 19.1584 194.166 19.2556 194.126 19.3666C194.087 19.4777 194.08 19.5978 194.108 19.7125C194.135 19.8271 194.195 19.9313 194.281 20.0123C194.366 20.0933 194.474 20.1478 194.59 20.1689Z" fill="#263238"/>
<path d="M196.888 22.9316C196.888 22.9316 196.807 22.9853 196.807 23.03C196.941 24.1029 196.914 25.3547 195.976 25.8017C195.976 25.8017 195.976 25.8643 195.976 25.8554C197.156 25.5871 197.183 23.9241 196.888 22.9316Z" fill="#263238"/>
<path d="M195.823 21.8944C194.08 21.8944 194.259 25.3992 195.877 25.3724C197.495 25.3456 197.281 21.8765 195.823 21.8944Z" fill="#263238"/>
<path d="M195.153 22.1179C194.858 22.3236 194.572 22.6902 194.214 22.7438C193.857 22.7975 193.454 22.4666 193.159 22.1269H193.097C193.097 22.7885 193.419 23.4591 194.134 23.5217C194.849 23.5843 195.225 22.9673 195.359 22.2878C195.386 22.2073 195.269 22.0285 195.153 22.1179Z" fill="#263238"/>
<path d="M203.271 22.0911C203.271 22.0911 203.352 22.0911 203.36 22.1805C203.36 23.2623 203.566 24.4962 204.559 24.8091V24.8717C203.352 24.7555 203.11 23.1193 203.271 22.0911Z" fill="#263238"/>
<path d="M204.183 20.9199C205.909 20.7143 206.204 24.1834 204.594 24.3801C202.985 24.5768 202.744 21.0987 204.183 20.9199Z" fill="#263238"/>
<path d="M204.925 21.0897C205.212 21.2506 205.516 21.5636 205.82 21.5546C206.124 21.5457 206.445 21.1523 206.66 20.7678H206.714C206.794 21.4295 206.633 22.1358 205.998 22.3236C205.364 22.5113 204.952 21.948 204.747 21.3043C204.729 21.2238 204.809 21.0271 204.925 21.0897Z" fill="#263238"/>
<path d="M202.1 26.9909C202.1 26.9909 202.422 28.5824 202.476 29.3424C202.476 29.414 202.297 29.4587 202.037 29.4944C201.395 29.6561 200.721 29.6363 200.09 29.4374C199.458 29.2385 198.894 28.8683 198.461 28.3679C198.454 28.3529 198.451 28.336 198.454 28.3196C198.457 28.3032 198.465 28.2881 198.477 28.2763C198.488 28.2645 198.504 28.2567 198.52 28.2539C198.536 28.2511 198.553 28.2534 198.568 28.2606C199.578 28.8594 200.754 29.1165 201.921 28.9937C201.966 28.7792 201.277 26.3114 201.394 26.3114C202 26.3195 202.602 26.4128 203.182 26.5886C202.601 23.2447 201.492 20.0259 200.964 16.6909C200.964 16.5746 201.116 16.5299 201.152 16.6283C202.448 20.045 203.4 23.5823 203.995 27.1877C204.004 27.5721 202.413 27.0982 202.1 26.9909Z" fill="#263238"/>
<path d="M201.939 28.9133C201.592 29.5887 201.074 30.1619 200.437 30.5763C200.086 30.7903 199.677 30.8902 199.266 30.8624C198.372 30.7909 198.202 29.9683 198.238 29.3067C198.26 28.9307 198.326 28.5586 198.434 28.198C199.495 28.8072 200.725 29.0581 201.939 28.9133Z" fill="#263238"/>
<path d="M200.437 30.5761C200.086 30.7901 199.677 30.89 199.266 30.8622C198.372 30.7907 198.202 29.9681 198.238 29.3065C198.694 29.2381 199.16 29.3264 199.559 29.557C199.959 29.7876 200.268 30.1469 200.437 30.5761Z" fill="#E587B4"/>
<path d="M182.832 24.6572C186.606 24.4963 186.266 18.5505 186.266 18.5505C186.266 18.5505 190.531 17.9425 190.486 11.0222C191.389 12.3653 192.592 13.4808 193.999 14.2813C195.406 15.0817 196.979 15.5453 198.595 15.6357C199.838 15.752 195.556 12.7835 195.556 12.7835C195.556 12.7835 200.714 16.9948 209.781 14.831C210.424 14.6701 208.547 5.09426 201.197 2.17054C193.848 -0.753179 187.482 1.44631 183.315 6.20294C183.315 6.20294 178.183 8.88526 177.843 13.9101C177.504 18.935 181.366 24.7109 182.832 24.6572Z" fill="#263238"/>
<path d="M185.326 25.5513C185.326 25.5513 181.616 20.7857 179.443 22.1269C177.27 23.468 180.221 30.5046 182.903 31.3451C183.24 31.477 183.599 31.5396 183.96 31.5292C184.321 31.5188 184.677 31.4355 185.005 31.2844C185.333 31.1332 185.627 30.9173 185.87 30.6497C186.113 30.382 186.299 30.0681 186.417 29.7267L185.326 25.5513Z" fill="#EB9481"/>
<path d="M180.337 24.1208C180.337 24.1208 180.293 24.1834 180.337 24.1924C182.224 24.8451 183.279 26.5081 184.048 28.2516C183.932 28.0723 183.778 27.9203 183.598 27.8061C183.417 27.6919 183.214 27.6182 183.003 27.5901C182.791 27.5621 182.576 27.5803 182.372 27.6436C182.168 27.7068 181.98 27.8136 181.821 27.9566C181.777 27.9566 181.821 28.0638 181.875 28.0549C182.194 27.9331 182.543 27.9142 182.874 28.0008C183.204 28.0874 183.499 28.2751 183.717 28.5377C184.064 28.9788 184.364 29.4554 184.611 29.9593C184.709 30.1203 185.004 30.013 184.933 29.8252C184.861 27.429 182.877 24.2281 180.337 24.1208Z" fill="#263238"/>
<path d="M195.395 51.8379C196.664 57.3366 197.844 62.8622 198.971 68.3788C200.098 73.8954 201.215 79.4478 202.342 84.9734C203.468 90.4989 204.497 96.0602 205.516 101.613L207.027 109.937C207.501 112.726 208.001 115.498 208.448 118.288C207.805 115.543 207.215 112.78 206.598 110.026L204.809 101.747C203.656 96.2212 202.565 90.6777 201.439 85.1522C200.312 79.6266 199.284 74.0653 198.265 68.5129C197.245 62.9605 196.307 57.3903 195.395 51.8379Z" fill="#263238"/>
<path d="M202.842 68.0034C202.888 68.2091 202.873 68.4241 202.797 68.621C202.722 68.818 202.589 68.9879 202.416 69.1093C202.244 69.2307 202.039 69.298 201.828 69.3027C201.617 69.3075 201.41 69.2494 201.232 69.1359C201.054 69.0224 200.914 68.8586 200.829 68.6652C200.745 68.4719 200.72 68.2578 200.757 68.0502C200.795 67.8426 200.893 67.6508 201.04 67.4991C201.186 67.3475 201.375 67.243 201.581 67.1987C201.855 67.14 202.141 67.1915 202.377 67.3422C202.613 67.4928 202.78 67.7304 202.842 68.0034Z" fill="#263238"/>
<path d="M204.729 78.7415C204.774 78.9455 204.757 79.1583 204.681 79.3528C204.605 79.5474 204.473 79.7149 204.301 79.8343C204.13 79.9536 203.927 80.0194 203.718 80.0232C203.509 80.0271 203.304 79.9688 203.128 79.8559C202.952 79.7429 202.814 79.5803 202.731 79.3887C202.648 79.1971 202.623 78.9851 202.661 78.7795C202.698 78.574 202.796 78.3842 202.941 78.2342C203.086 78.0841 203.273 77.9807 203.477 77.9368C203.75 77.8783 204.035 77.9301 204.269 78.0809C204.504 78.2317 204.669 78.4692 204.729 78.7415Z" fill="#263238"/>
<path d="M206.624 89.4887C206.666 89.6925 206.648 89.9043 206.571 90.0975C206.493 90.2907 206.36 90.4568 206.189 90.5747C206.017 90.6926 205.815 90.7571 205.606 90.7601C205.398 90.7631 205.194 90.7045 205.019 90.5916C204.844 90.4788 204.707 90.3167 204.624 90.1258C204.541 89.9349 204.516 89.7237 204.553 89.5188C204.59 89.3139 204.686 89.1245 204.83 88.9743C204.974 88.8242 205.16 88.7201 205.363 88.6751C205.499 88.6449 205.64 88.6421 205.778 88.6667C205.915 88.6914 206.046 88.7431 206.163 88.8187C206.281 88.8944 206.382 88.9926 206.461 89.1076C206.54 89.2226 206.595 89.3521 206.624 89.4887Z" fill="#263238"/>
<path d="M208.519 100.227C208.564 100.433 208.547 100.647 208.47 100.843C208.393 101.039 208.259 101.208 208.086 101.328C207.913 101.448 207.708 101.514 207.498 101.518C207.287 101.521 207.08 101.462 206.903 101.348C206.726 101.234 206.587 101.069 206.503 100.876C206.42 100.683 206.395 100.469 206.434 100.261C206.472 100.054 206.57 99.863 206.717 99.712C206.864 99.561 207.053 99.457 207.259 99.4131C207.534 99.3547 207.821 99.4075 208.057 99.5599C208.293 99.7124 208.459 99.9521 208.519 100.227Z" fill="#263238"/>
<path d="M210.415 110.965C210.46 111.171 210.443 111.385 210.366 111.582C210.289 111.778 210.155 111.946 209.982 112.066C209.809 112.187 209.604 112.252 209.393 112.256C209.183 112.259 208.976 112.2 208.799 112.086C208.622 111.972 208.482 111.808 208.399 111.614C208.315 111.421 208.291 111.207 208.329 111C208.367 110.793 208.466 110.601 208.613 110.45C208.76 110.299 208.948 110.195 209.154 110.151C209.429 110.093 209.716 110.146 209.952 110.298C210.189 110.451 210.355 110.69 210.415 110.965Z" fill="#263238"/>
<path d="M196.047 43.1741L194.581 50.5772L184.388 43.4781L182.483 46.7326C182.483 46.7326 193.463 58.9908 193.4 58.3559L195.117 51.8916L199.99 55.2445L197.71 44.9444L196.047 43.1741Z" fill="#EBEBEB"/>
<path d="M199.167 50.0497C198.738 48.3688 198.345 46.6521 197.835 44.9891C197.835 44.9265 197.719 44.9175 197.71 44.9891C197.71 46.7057 199.382 53.1522 199.668 54.7259C199.462 54.5828 195.198 51.8111 195.198 51.8737C194.759 52.9287 193.49 57.6406 193.409 58.0609C191.666 56.1117 185.094 49.1198 183.136 47.3316C183.125 47.3186 183.11 47.3103 183.093 47.3086C183.077 47.307 183.06 47.312 183.047 47.3227C183.034 47.3334 183.025 47.3488 183.024 47.3655C183.022 47.3823 183.027 47.3991 183.038 47.4121C184.647 49.5132 193.392 59.0354 193.49 58.955C194.206 56.711 194.803 54.4309 195.278 52.124C196.038 52.7588 200.428 55.9687 200.392 55.7004C200.088 53.7958 199.679 51.9094 199.167 50.0497Z" fill="#263238"/>
<path d="M184.37 41.2875C183.252 39.9911 182.018 43.3172 184.075 44.7835C187.123 46.9562 192.971 49.254 193.963 49.1288C194.956 49.0037 196.78 45.2216 196.976 44.4706C197.173 43.7195 196.315 42.3158 196.082 42.5125C195.85 42.7092 194.071 46.5896 193.722 46.8131C193.373 47.0366 186.784 44.0593 184.37 41.2875Z" fill="#FFC727"/>
<path d="M194.348 293.63L199.337 294.846L194.33 295.74L193.204 301.025L192.086 295.74L187.079 294.846L192.068 293.63L193.204 288.641L194.348 293.63ZM80.9757 258.188L79.8312 263.177L74.8869 264.393L79.8938 265.287L81.0204 270.562L82.138 265.287L87.145 264.393L82.1559 263.177L80.9757 258.188ZM293.406 206.196L292.27 201.216L291.126 206.196L286.137 207.412L291.144 208.306L292.27 213.581L293.388 208.306L298.395 207.412L293.406 206.196ZM102.434 103.642L101.29 108.622L96.3453 109.847L101.352 110.742L102.47 116.017L103.588 110.742L108.595 109.847L103.605 108.622L102.434 103.642ZM299.754 237.427L299.119 240.217L296.329 240.896L299.128 241.415L299.754 244.374L300.38 241.415L303.178 240.905L300.389 240.217L299.754 237.427ZM145.521 252.913L144.886 255.694L142.097 256.373L144.895 256.901L145.521 259.851L146.147 256.901L148.945 256.382L146.165 255.694L145.521 252.913ZM236.183 272.825L235.539 275.614L232.759 276.294L235.557 276.812L236.183 279.763L236.809 276.812L239.607 276.294L236.818 275.614L236.183 272.825ZM165.486 309.984L164.852 312.773L162.062 313.453L164.86 313.971L165.486 316.922L166.112 313.971L168.911 313.453L166.13 312.773L165.486 309.984ZM65.2663 245.966L64.6315 248.755L61.8419 249.435L64.6404 249.953L65.2663 252.913L65.8922 249.953L68.6907 249.444L65.9011 248.755L65.2663 245.966ZM55.8335 171.755L55.1987 174.545L52.4091 175.224L55.2166 175.743L55.8335 178.702L56.4594 175.743L59.2669 175.233L56.4773 174.545L55.8335 171.755ZM256.622 277.528C256.422 277.549 256.237 277.643 256.103 277.792C255.968 277.942 255.894 278.136 255.894 278.337C255.894 278.538 255.968 278.732 256.103 278.881C256.237 279.031 256.422 279.125 256.622 279.146C256.822 279.125 257.007 279.031 257.142 278.881C257.276 278.732 257.351 278.538 257.351 278.337C257.351 278.136 257.276 277.942 257.142 277.792C257.007 277.643 256.822 277.549 256.622 277.528ZM311.359 183.513C311.143 183.513 310.937 183.598 310.784 183.751C310.631 183.903 310.546 184.11 310.546 184.326C310.546 184.542 310.631 184.749 310.784 184.902C310.937 185.054 311.143 185.14 311.359 185.14C311.575 185.14 311.782 185.054 311.935 184.902C312.087 184.749 312.173 184.542 312.173 184.326C312.173 184.11 312.087 183.903 311.935 183.751C311.782 183.598 311.575 183.513 311.359 183.513ZM89.1925 128.481C88.9767 128.481 88.7698 128.566 88.6172 128.719C88.4646 128.871 88.3789 129.078 88.3789 129.294C88.3789 129.51 88.4646 129.717 88.6172 129.869C88.7698 130.022 88.9767 130.108 89.1925 130.108C89.4083 130.108 89.6152 130.022 89.7678 129.869C89.9204 129.717 90.0061 129.51 90.0061 129.294C90.0061 129.078 89.9204 128.871 89.7678 128.719C89.6152 128.566 89.4083 128.481 89.1925 128.481ZM284.787 249.032C284.587 249.054 284.402 249.148 284.267 249.297C284.132 249.447 284.058 249.641 284.058 249.842C284.058 250.043 284.132 250.237 284.267 250.386C284.402 250.535 284.587 250.63 284.787 250.651C284.986 250.63 285.172 250.535 285.306 250.386C285.441 250.237 285.515 250.043 285.515 249.842C285.515 249.641 285.441 249.447 285.306 249.297C285.172 249.148 284.986 249.054 284.787 249.032ZM49.4228 233.1C49.2229 233.121 49.0378 233.215 48.9033 233.364C48.7688 233.514 48.6943 233.708 48.6943 233.909C48.6943 234.11 48.7688 234.304 48.9033 234.453C49.0378 234.603 49.2229 234.697 49.4228 234.718C49.6227 234.697 49.8078 234.603 49.9423 234.453C50.0768 234.304 50.1513 234.11 50.1513 233.909C50.1513 233.708 50.0768 233.514 49.9423 233.364C49.8078 233.215 49.6227 233.121 49.4228 233.1ZM65.8475 160.024C65.9992 160.024 66.1448 159.964 66.2521 159.857C66.3594 159.75 66.4197 159.604 66.4197 159.452C66.4197 159.3 66.3594 159.155 66.2521 159.048C66.1448 158.94 65.9992 158.88 65.8475 158.88C65.6957 158.88 65.5502 158.94 65.4428 159.048C65.3355 159.155 65.2752 159.3 65.2752 159.452C65.2752 159.604 65.3355 159.75 65.4428 159.857C65.5502 159.964 65.6957 160.024 65.8475 160.024ZM159.621 278.332C159.48 278.35 159.351 278.418 159.257 278.524C159.164 278.63 159.112 278.767 159.112 278.909C159.112 279.051 159.164 279.187 159.257 279.294C159.351 279.4 159.48 279.468 159.621 279.486C159.762 279.468 159.891 279.4 159.985 279.294C160.078 279.187 160.13 279.051 160.13 278.909C160.13 278.767 160.078 278.63 159.985 278.524C159.891 278.418 159.762 278.35 159.621 278.332ZM299.995 162.206C300.147 162.206 300.293 162.146 300.4 162.039C300.507 161.931 300.567 161.786 300.567 161.634C300.567 161.482 300.507 161.337 300.4 161.229C300.293 161.122 300.147 161.062 299.995 161.062C299.843 161.068 299.7 161.134 299.597 161.245C299.494 161.357 299.439 161.504 299.445 161.656C299.451 161.808 299.517 161.951 299.629 162.054C299.74 162.157 299.888 162.212 300.04 162.206H299.995ZM102.989 276.258C102.848 276.275 102.719 276.344 102.625 276.45C102.531 276.556 102.479 276.693 102.479 276.835C102.479 276.976 102.531 277.113 102.625 277.219C102.719 277.325 102.848 277.394 102.989 277.411C103.129 277.394 103.258 277.325 103.352 277.219C103.446 277.113 103.498 276.976 103.498 276.835C103.498 276.693 103.446 276.556 103.352 276.45C103.258 276.344 103.129 276.275 102.989 276.258ZM202.306 271.537C201.893 271.537 201.497 271.701 201.205 271.993C200.914 272.284 200.75 272.68 200.75 273.093C200.75 273.505 200.914 273.901 201.205 274.193C201.497 274.485 201.893 274.649 202.306 274.649C202.673 274.592 203.008 274.406 203.251 274.124C203.493 273.842 203.626 273.483 203.626 273.111C203.626 272.739 203.493 272.379 203.251 272.097C203.008 271.815 202.673 271.629 202.306 271.573V271.537ZM110.338 270.983C109.925 270.983 109.53 271.147 109.238 271.438C108.946 271.73 108.782 272.126 108.782 272.538C108.782 272.951 108.946 273.347 109.238 273.639C109.53 273.93 109.925 274.094 110.338 274.094C110.706 274.038 111.041 273.852 111.283 273.57C111.525 273.288 111.659 272.928 111.659 272.556C111.659 272.184 111.525 271.825 111.283 271.543C111.041 271.261 110.706 271.075 110.338 271.018V270.983ZM80.9757 126.764C81.3883 126.764 81.784 126.6 82.0758 126.308C82.3675 126.016 82.5314 125.621 82.5314 125.208C82.5314 124.795 82.3675 124.4 82.0758 124.108C81.784 123.816 81.3883 123.652 80.9757 123.652C80.5583 123.652 80.1581 123.818 79.863 124.113C79.5679 124.408 79.4021 124.809 79.4021 125.226C79.4021 125.643 79.5679 126.044 79.863 126.339C80.1581 126.634 80.5583 126.8 80.9757 126.8V126.764ZM303.178 209.781C302.766 209.781 302.37 209.945 302.078 210.237C301.786 210.529 301.622 210.924 301.622 211.337C301.622 211.75 301.786 212.145 302.078 212.437C302.37 212.729 302.766 212.893 303.178 212.893C303.546 212.837 303.881 212.651 304.123 212.368C304.366 212.086 304.499 211.727 304.499 211.355C304.499 210.983 304.366 210.624 304.123 210.341C303.881 210.059 303.546 209.873 303.178 209.817V209.781Z" fill="#4668D6"/>
</svg>
