<svg width="42" height="42" viewBox="0 0 42 42" fill="none" xmlns="http://www.w3.org/2000/svg">
<circle cx="21" cy="21" r="21" fill="#EBEBFF"/>
<path d="M27.3 17.59L28.21 16.69C28.3983 16.5017 28.5041 16.2463 28.5041 15.98C28.5041 15.7137 28.3983 15.4583 28.21 15.27C28.0217 15.0817 27.7663 14.9759 27.5 14.9759C27.2337 14.9759 26.9783 15.0817 26.79 15.27L25.89 16.18C24.4886 15.0959 22.7669 14.5076 20.995 14.5076C19.2232 14.5076 17.5015 15.0959 16.1 16.18L15.19 15.26C15.0004 15.0717 14.7437 14.9664 14.4765 14.9674C14.2093 14.9683 13.9533 15.0754 13.765 15.265C13.5767 15.4546 13.4715 15.7113 13.4724 15.9785C13.4733 16.2458 13.5804 16.5017 13.77 16.69L14.69 17.6C13.593 18.9975 12.9978 20.7233 13 22.5C12.9968 23.7754 13.2985 25.0331 13.88 26.1683C14.4616 27.3034 15.3061 28.283 16.3432 29.0254C17.3803 29.7679 18.5798 30.2516 19.8418 30.4362C21.1038 30.6208 22.3917 30.5011 23.598 30.0869C24.8043 29.6727 25.8941 28.9761 26.7764 28.0552C27.6588 27.1342 28.3082 26.0157 28.6705 24.7928C29.0328 23.5699 29.0974 22.2781 28.859 21.0251C28.6206 19.7722 28.0861 18.5944 27.3 17.59ZM21 28.5C19.8133 28.5 18.6533 28.1481 17.6666 27.4888C16.6799 26.8295 15.9109 25.8925 15.4567 24.7961C15.0026 23.6997 14.8838 22.4933 15.1153 21.3295C15.3468 20.1656 15.9183 19.0965 16.7574 18.2574C17.5965 17.4182 18.6656 16.8468 19.8295 16.6153C20.9934 16.3838 22.1998 16.5026 23.2961 16.9567C24.3925 17.4108 25.3296 18.1799 25.9888 19.1666C26.6481 20.1533 27 21.3133 27 22.5C27 24.0913 26.3679 25.6174 25.2427 26.7426C24.1174 27.8679 22.5913 28.5 21 28.5ZM19 13.5H23C23.2652 13.5 23.5196 13.3946 23.7071 13.2071C23.8947 13.0196 24 12.7652 24 12.5C24 12.2348 23.8947 11.9804 23.7071 11.7929C23.5196 11.6054 23.2652 11.5 23 11.5H19C18.7348 11.5 18.4805 11.6054 18.2929 11.7929C18.1054 11.9804 18 12.2348 18 12.5C18 12.7652 18.1054 13.0196 18.2929 13.2071C18.4805 13.3946 18.7348 13.5 19 13.5ZM22 19.5C22 19.2348 21.8947 18.9804 21.7071 18.7929C21.5196 18.6054 21.2652 18.5 21 18.5C20.7348 18.5 20.4805 18.6054 20.2929 18.7929C20.1054 18.9804 20 19.2348 20 19.5V21.39C19.7736 21.5925 19.614 21.859 19.5423 22.1542C19.4707 22.4495 19.4904 22.7595 19.5988 23.0433C19.7072 23.3271 19.8992 23.5712 20.1494 23.7435C20.3996 23.9158 20.6962 24.008 21 24.008C21.3038 24.008 21.6004 23.9158 21.8507 23.7435C22.1009 23.5712 22.2929 23.3271 22.4013 23.0433C22.5097 22.7595 22.5294 22.4495 22.4577 22.1542C22.3861 21.859 22.2265 21.5925 22 21.39V19.5Z" fill="#4668D6"/>
</svg>
