<svg width="208" height="205" viewBox="0 0 208 205" fill="none" xmlns="http://www.w3.org/2000/svg">
<rect x="8.58346" y="54.2832" width="5.07754" height="5.07754" rx="2.53877" transform="rotate(159.041 8.58346 54.2832)" stroke="#9E9FA9" stroke-width="2"/>
<mask id="mask0_2392_23019" style="mask-type:alpha" maskUnits="userSpaceOnUse" x="6" y="62" width="58" height="58">
<rect x="1.58203" y="76.0332" width="51.6387" height="51.6387" rx="16" transform="rotate(-20.959 1.58203 76.0332)" fill="#FFC467"/>
</mask>
<g mask="url(#mask0_2392_23019)">
<rect x="1.58203" y="76.0332" width="51.6387" height="51.6387" rx="16" transform="rotate(-20.959 1.58203 76.0332)" fill="#FFC467"/>
<rect opacity="0.15" x="24.6211" y="69.2852" width="122.743" height="77.0315" rx="20" transform="rotate(-4.49304 24.6211 69.2852)" fill="#151B5E"/>
</g>
<rect opacity="0.2" x="45.5156" y="67.7188" width="122.743" height="77.0315" rx="20" transform="rotate(8.15099 45.5156 67.7188)" fill="#5665FF"/>
<rect x="28.8555" y="67.5898" width="122.743" height="77.0315" rx="20" transform="rotate(-4.49304 28.8555 67.5898)" fill="#3747E9"/>
<path opacity="0.11" d="M30.7752 92.064C29.9329 81.3443 37.94 71.9714 48.6597 71.1291L132.206 64.5641C142.925 63.7217 152.298 71.7289 153.141 82.4486V82.4486L100.223 106.255C95.9942 108.157 91.2357 108.531 86.7617 107.313L30.7752 92.064V92.064Z" fill="#5B5B5B"/>
<path d="M30.4222 87.5284C29.5569 76.5166 37.7823 66.8884 48.794 66.0231L131.282 59.5412C142.294 58.6759 151.922 66.9012 152.788 77.913L152.879 79.0719L97.6003 97.4994C94.5068 98.5307 91.2081 98.7899 87.9915 98.2545L30.5133 88.6873L30.4222 87.5284Z" fill="#949EFF"/>
<circle opacity="0.2" r="2.5395" transform="matrix(1 0 0 -1 87.9223 185.382)" fill="#27308C"/>
<path d="M48.1838 44.6961C47.0365 41.8386 49.4127 38.8107 52.461 39.2458L57.6128 39.9812C60.6611 40.4163 62.0952 43.9881 60.1942 46.4105L56.9815 50.5043C55.0805 52.9267 51.2702 52.3828 50.1228 49.5253L48.1838 44.6961Z" fill="#FF9E87"/>
<path d="M27.7407 141.677C26.72 139.136 28.8338 136.442 31.5455 136.829V136.829C34.2572 137.216 35.533 140.394 33.8419 142.548V142.548C32.1509 144.703 28.7613 144.219 27.7407 141.677V141.677Z" fill="#FF9E87"/>
<path d="M181.349 121.895C179.364 116.952 183.474 111.715 188.747 112.467V112.467C194.02 113.22 196.501 119.398 193.213 123.589V123.589C189.925 127.779 183.333 126.838 181.349 121.895V121.895Z" fill="#FF9E87"/>
<path opacity="0.2" d="M141.43 179.765C139.27 177.571 140.296 173.861 143.276 173.088L148.314 171.781C151.294 171.008 153.994 173.752 153.173 176.719L151.786 181.735C150.965 184.703 147.239 185.669 145.08 183.474L141.43 179.765Z" fill="#FF9E87"/>
<path opacity="0.3" d="M170.676 47.8981C168.271 53.9855 164.448 37.7017 158.361 35.2971C152.273 32.8924 137.061 33.9206 139.465 27.8332C141.87 21.7457 159.611 21.2286 165.699 23.6332C171.786 26.0378 173.081 41.8107 170.676 47.8981Z" fill="#03A9F4"/>
<path d="M114.826 2.85348C112.933 2.05267 108.235 1.95566 104.592 7.9741C100.948 13.9925 95.568 14.2369 93.3333 13.6068" stroke="#FF83CC" stroke-width="3" stroke-linecap="round"/>
<path d="M38.5367 202.663C38.3279 201.925 37.2843 200.583 34.7808 201.119C32.2773 201.656 30.9833 200.211 30.6492 199.421" stroke="#FF83CC" stroke-width="3" stroke-linecap="round"/>
<path d="M189.517 162.652C189.231 163.837 189.628 166.507 193.511 167.717C197.393 168.927 198.057 171.935 197.903 173.288" stroke="#FF83CC" stroke-width="3" stroke-linecap="round"/>
</svg>
