<svg width="388" height="389" viewBox="0 0 388 389" fill="none" xmlns="http://www.w3.org/2000/svg">
<path d="M388 368.401C388 379.444 301.138 388.404 193.981 388.404C86.8233 388.404 0 379.444 0 368.401C0 357.359 86.8622 348.398 194.019 348.398C301.177 348.398 388 357.359 388 368.401Z" fill="#DCDCDC"/>
<path d="M82.8826 82.1099V368.401H271.629V82.1099H82.8826ZM199.555 102.619H154.966V94.6216H199.555V102.619Z" fill="#EBEBEB"/>
<path d="M271.639 157.239V368.401H82.8826V265.223L271.639 157.239Z" fill="#974BAD"/>
<path d="M271.639 122.661V143.705L82.8826 251.563V250.872L271.639 122.661Z" fill="#974BAD"/>
<path d="M243.015 121.99H111.516V279.282H243.015V121.99Z" fill="white"/>
<path d="M165.201 94.6216H172.469C172.469 94.6216 172.868 98.7857 176.166 99.4084C179.464 100.031 184.494 97.4042 188.814 88.9981C193.134 80.5921 190.692 72.9742 189.709 72.5461C188.726 72.118 180.632 73.9082 175.242 82.1099H166.719C168.758 78.2329 171.492 74.7636 174.785 71.8748C180.622 66.5724 185.876 64.7044 188.182 64.4903L193.601 58.4485L202.912 66.2318L207.348 66.8642L201.773 75.5427C201.762 78.0374 201.498 80.5245 200.985 82.966C199.465 87.6211 197.197 91.9979 194.272 95.9253C191.558 99.3403 187.004 104.526 178.91 104.37C170.815 104.215 166.777 99.4084 165.201 94.6216Z" fill="#455A64"/>
<path d="M193.601 58.4485L202.912 66.2221L207.348 66.8545L197.95 58.9155L193.601 58.4485Z" fill="#263238"/>
<path d="M189.709 72.5458C188.736 72.108 180.632 73.9079 175.242 82.1096H172.605C180.174 71.5924 188.609 71.1935 189.709 72.5458Z" fill="#37474F"/>
<path d="M176.166 99.4083C176.166 99.4083 172.041 100.226 170.328 94.6216H172.508C172.508 94.6216 172.887 98.5814 175.971 99.35L176.166 99.4083Z" fill="#37474F"/>
<path d="M207.348 66.8545L201.763 75.5329C201.752 78.0239 201.491 80.5075 200.985 82.9466C200.207 86.0988 196.977 92.4909 194.272 95.9156C191.567 99.3403 187.004 104.506 178.91 104.361C177.699 104.347 176.493 104.21 175.31 103.952H175.456C184.796 105.304 190.517 99.0873 195.07 90.9926C199.321 83.4428 198.086 74.0638 198.086 74.0638L202.95 66.2026L207.348 66.8545Z" fill="#37474F"/>
<path d="M207.821 64.7519L196.942 56.0952L195.276 58.1888L206.156 66.8455L207.821 64.7519Z" fill="#455A64"/>
<path d="M234.132 49.6435C231.856 47.9214 210.413 34.1643 204.838 30.7202C199.263 27.2761 194.934 24.513 192.268 27.6458C189.602 30.7786 188.454 38.0949 189.865 41.1985C191.275 44.3021 197.376 54.3621 197.512 55.335C197.545 55.6188 197.513 55.9064 197.418 56.176C197.324 56.4457 197.17 56.6904 196.967 56.8917L206.881 65.0156C207.267 64.4258 207.844 63.9863 208.515 63.7702C209.488 63.5757 225.892 64.461 227.536 64.3832C229.586 64.4412 231.619 63.992 233.454 63.0755C235.288 62.159 236.868 60.8035 238.053 59.1294C241.673 53.8854 236.409 51.3753 234.132 49.6435ZM225.931 59.2267C221.066 59.1586 212.796 58.0397 206.56 53.9048C203.271 51.7158 194.661 43.7476 193.912 37.9782C193.808 35.989 194.318 34.0159 195.371 32.3255C196.276 30.7105 201.452 34.4465 205.655 37.1901C209.858 39.9337 228.237 52.2314 229.657 53.2141C231.077 54.1967 233.354 55.4712 233.228 56.2496C233.101 57.0279 230.756 59.2754 225.931 59.2267Z" fill="#455A64"/>
<path d="M214.056 55.3109L203.768 48.5557L201.717 51.6786L212.005 58.4339L214.056 55.3109Z" fill="#455A64"/>
<path d="M238.053 59.0711C236.868 60.7462 235.289 62.1036 233.454 63.0233C231.62 63.943 229.587 64.3967 227.536 64.3443C225.892 64.4124 209.459 63.5271 208.515 63.7314C207.842 63.9384 207.264 64.3758 206.881 64.967L203.408 62.1455C203.602 62.1455 204.828 60.6083 205.986 60.5305C207.144 60.4526 224.822 63.1573 229.151 63.1573C233.481 63.1573 237.051 59.2657 238.102 56.5804C239.289 53.5352 234.405 49.9548 234.152 49.6921C236.428 51.385 241.673 53.8951 238.053 59.0711Z" fill="#37474F"/>
<path d="M139.069 297.339H135.527L134.807 299.236C134.747 299.388 134.642 299.519 134.507 299.611C134.372 299.702 134.212 299.752 134.048 299.752C133.955 299.751 133.863 299.734 133.776 299.703C133.573 299.627 133.409 299.474 133.318 299.277C133.227 299.081 133.217 298.856 133.289 298.652L136.52 290.062C136.583 289.908 136.69 289.777 136.828 289.685C136.965 289.593 137.127 289.544 137.293 289.544C137.459 289.544 137.621 289.593 137.758 289.685C137.896 289.777 138.003 289.908 138.066 290.062L141.287 298.652C141.36 298.855 141.351 299.078 141.262 299.275C141.173 299.471 141.011 299.625 140.81 299.703C140.72 299.736 140.624 299.752 140.528 299.752C140.367 299.752 140.209 299.702 140.077 299.61C139.945 299.518 139.844 299.387 139.789 299.236L139.069 297.339ZM138.475 295.734L137.288 292.601L136.111 295.734H138.475Z" fill="white"/>
<path d="M144.896 298.944C144.894 299.154 144.811 299.356 144.664 299.506C144.517 299.656 144.318 299.744 144.108 299.752C143.894 299.752 143.689 299.667 143.537 299.515C143.386 299.364 143.301 299.159 143.301 298.944V290.451C143.298 290.322 143.326 290.194 143.381 290.077C143.437 289.96 143.52 289.858 143.622 289.779C143.793 289.659 144.005 289.61 144.212 289.643C144.419 289.675 144.605 289.787 144.731 289.955L149.45 296.483V290.47C149.45 290.261 149.533 290.061 149.68 289.913C149.828 289.765 150.029 289.682 150.238 289.682C150.448 289.682 150.649 289.765 150.798 289.912C150.948 290.06 151.033 290.26 151.035 290.47V298.944C151.035 299.157 150.952 299.361 150.802 299.512C150.653 299.663 150.45 299.749 150.238 299.752C150.122 299.75 150.008 299.723 149.904 299.672C149.8 299.622 149.708 299.549 149.634 299.46C149.606 299.436 149.583 299.406 149.566 299.372L144.896 292.893V298.944Z" fill="white"/>
<path d="M155.666 298.944C155.664 299.154 155.581 299.356 155.434 299.506C155.287 299.656 155.088 299.744 154.878 299.752C154.664 299.752 154.459 299.667 154.307 299.515C154.156 299.364 154.071 299.159 154.071 298.944V290.451C154.068 290.322 154.096 290.194 154.152 290.077C154.207 289.96 154.29 289.858 154.392 289.779C154.563 289.659 154.775 289.61 154.982 289.643C155.189 289.675 155.375 289.787 155.501 289.955L160.22 296.483V290.47C160.22 290.261 160.303 290.061 160.451 289.913C160.598 289.765 160.799 289.682 161.008 289.682C161.218 289.682 161.419 289.765 161.568 289.912C161.718 290.06 161.803 290.26 161.806 290.47V298.944C161.806 299.157 161.722 299.361 161.572 299.512C161.423 299.663 161.22 299.749 161.008 299.752C160.892 299.75 160.778 299.723 160.674 299.672C160.57 299.622 160.478 299.549 160.405 299.46C160.376 299.436 160.353 299.406 160.336 299.372L155.666 292.893V298.944Z" fill="white"/>
<path d="M164.365 298.944V290.334C164.363 290.229 164.383 290.125 164.423 290.027C164.462 289.93 164.521 289.841 164.595 289.767C164.67 289.693 164.758 289.634 164.856 289.594C164.953 289.555 165.057 289.535 165.162 289.536H169.939C170.15 289.539 170.352 289.624 170.501 289.773C170.65 289.922 170.735 290.123 170.737 290.334C170.737 290.547 170.654 290.752 170.505 290.905C170.356 291.058 170.153 291.146 169.939 291.151H165.98V293.827H169.385C169.595 293.832 169.795 293.917 169.943 294.066C170.092 294.214 170.178 294.415 170.183 294.625C170.184 294.731 170.164 294.836 170.125 294.934C170.085 295.033 170.027 295.123 169.953 295.198C169.879 295.274 169.791 295.335 169.693 295.377C169.596 295.418 169.491 295.441 169.385 295.442H165.98V298.127H169.939C170.14 298.149 170.325 298.244 170.459 298.394C170.593 298.544 170.668 298.738 170.668 298.939C170.668 299.141 170.593 299.335 170.459 299.485C170.325 299.635 170.14 299.73 169.939 299.752H165.201C165.093 299.756 164.985 299.738 164.883 299.699C164.782 299.66 164.689 299.601 164.611 299.526C164.533 299.451 164.471 299.36 164.429 299.26C164.386 299.16 164.364 299.053 164.365 298.944Z" fill="white"/>
<path d="M177.071 297.212C177.2 297.058 177.384 296.96 177.584 296.94C177.784 296.92 177.984 296.98 178.141 297.105C178.924 297.77 179.899 298.165 180.924 298.234C181.575 298.245 182.214 298.055 182.753 297.689C182.934 297.578 183.086 297.424 183.195 297.241C183.303 297.058 183.365 296.851 183.375 296.638C183.38 296.474 183.336 296.311 183.249 296.171C183.137 295.995 182.987 295.846 182.811 295.734C182.19 295.386 181.511 295.155 180.807 295.052C180.16 294.937 179.53 294.745 178.929 294.478C178.374 294.239 177.901 293.843 177.567 293.34C177.348 292.98 177.233 292.565 177.236 292.143C177.25 291.722 177.363 291.309 177.566 290.939C177.769 290.569 178.056 290.252 178.404 290.013C179.143 289.499 180.024 289.23 180.924 289.244C182.078 289.299 183.189 289.707 184.105 290.412C184.187 290.466 184.257 290.535 184.311 290.616C184.366 290.698 184.403 290.789 184.422 290.885C184.441 290.981 184.441 291.079 184.422 291.175C184.402 291.271 184.364 291.362 184.309 291.443C184.258 291.527 184.19 291.6 184.109 291.657C184.029 291.714 183.938 291.754 183.841 291.775C183.745 291.796 183.645 291.797 183.549 291.779C183.452 291.76 183.36 291.722 183.278 291.667C182.611 291.109 181.789 290.77 180.924 290.694C180.34 290.686 179.769 290.859 179.289 291.19C179.131 291.288 178.998 291.422 178.902 291.581C178.805 291.74 178.748 291.919 178.734 292.105C178.725 292.249 178.763 292.392 178.841 292.513C178.943 292.665 179.076 292.795 179.231 292.893C179.793 293.223 180.414 293.441 181.06 293.535C181.753 293.659 182.429 293.864 183.074 294.148C183.665 294.408 184.17 294.83 184.533 295.364C184.76 295.736 184.881 296.163 184.883 296.599C184.87 297.05 184.749 297.491 184.53 297.885C184.312 298.279 184.003 298.616 183.628 298.866C182.837 299.421 181.89 299.71 180.924 299.693C179.552 299.631 178.239 299.118 177.188 298.234C177.047 298.107 176.958 297.933 176.936 297.745C176.915 297.557 176.963 297.368 177.071 297.212Z" fill="white"/>
<path d="M195.916 290.334V298.944C195.911 299.159 195.823 299.363 195.671 299.513C195.518 299.664 195.313 299.749 195.099 299.752C194.885 299.752 194.679 299.667 194.528 299.515C194.376 299.364 194.291 299.159 194.291 298.944V292.805L192.19 295.724C192.116 295.828 192.018 295.912 191.905 295.969C191.791 296.027 191.665 296.056 191.538 296.055C191.408 296.056 191.279 296.027 191.163 295.97C191.046 295.912 190.945 295.828 190.867 295.724L188.775 292.805V298.944C188.775 299.159 188.69 299.364 188.538 299.515C188.387 299.667 188.181 299.752 187.967 299.752C187.753 299.752 187.548 299.667 187.396 299.515C187.245 299.364 187.16 299.159 187.16 298.944V290.334C187.16 290.122 187.244 289.919 187.393 289.77C187.543 289.62 187.746 289.536 187.958 289.536C188.083 289.537 188.207 289.567 188.318 289.625C188.43 289.682 188.526 289.765 188.6 289.867L191.518 293.895L194.437 289.867C194.511 289.763 194.609 289.679 194.722 289.621C194.836 289.564 194.962 289.535 195.089 289.536C195.303 289.536 195.509 289.619 195.664 289.768C195.818 289.917 195.908 290.12 195.916 290.334Z" fill="white"/>
<path d="M199.545 290.334C199.544 290.228 199.564 290.123 199.604 290.025C199.644 289.927 199.704 289.838 199.779 289.763C199.855 289.689 199.944 289.63 200.043 289.591C200.141 289.552 200.247 289.533 200.353 289.536C200.459 289.535 200.564 289.554 200.662 289.594C200.761 289.633 200.851 289.691 200.926 289.766C201.002 289.84 201.063 289.928 201.105 290.025C201.146 290.123 201.169 290.228 201.17 290.334V298.944C201.167 299.159 201.08 299.364 200.927 299.516C200.774 299.667 200.568 299.752 200.353 299.752C200.246 299.753 200.141 299.733 200.042 299.693C199.943 299.653 199.854 299.593 199.779 299.518C199.703 299.443 199.644 299.353 199.604 299.255C199.564 299.156 199.544 299.05 199.545 298.944V290.334Z" fill="white"/>
<path d="M210.141 291.151H207.825V298.934C207.837 299.047 207.826 299.161 207.791 299.269C207.757 299.377 207.7 299.477 207.624 299.562C207.548 299.646 207.455 299.714 207.352 299.76C207.248 299.806 207.136 299.83 207.022 299.83C206.909 299.83 206.797 299.806 206.693 299.76C206.589 299.714 206.497 299.646 206.421 299.562C206.345 299.477 206.288 299.377 206.253 299.269C206.219 299.161 206.207 299.047 206.22 298.934V291.151H203.914C203.699 291.148 203.493 291.061 203.342 290.908C203.191 290.755 203.106 290.549 203.106 290.334C203.105 290.228 203.125 290.123 203.165 290.025C203.206 289.927 203.265 289.838 203.341 289.763C203.416 289.689 203.506 289.63 203.604 289.591C203.703 289.552 203.808 289.533 203.914 289.536H210.141C210.353 289.536 210.557 289.62 210.708 289.769C210.859 289.918 210.946 290.121 210.948 290.334C210.946 290.548 210.86 290.753 210.709 290.905C210.559 291.058 210.355 291.146 210.141 291.151Z" fill="white"/>
<path d="M213.351 298.944V290.334C213.35 290.228 213.37 290.123 213.41 290.025C213.45 289.927 213.51 289.838 213.585 289.763C213.66 289.689 213.75 289.63 213.849 289.591C213.947 289.552 214.052 289.533 214.158 289.536C214.264 289.535 214.37 289.554 214.468 289.594C214.567 289.633 214.656 289.691 214.732 289.766C214.808 289.84 214.869 289.928 214.911 290.025C214.952 290.123 214.974 290.228 214.976 290.334V293.836H218.712V290.334C218.71 290.228 218.73 290.123 218.771 290.025C218.811 289.927 218.87 289.838 218.946 289.763C219.021 289.689 219.111 289.63 219.209 289.591C219.308 289.552 219.413 289.533 219.519 289.536C219.625 289.535 219.731 289.554 219.829 289.594C219.927 289.633 220.017 289.691 220.093 289.766C220.169 289.84 220.23 289.928 220.271 290.025C220.313 290.123 220.335 290.228 220.336 290.334V298.944C220.336 299.051 220.315 299.157 220.274 299.255C220.233 299.354 220.173 299.443 220.097 299.518C220.02 299.594 219.93 299.653 219.831 299.693C219.732 299.733 219.626 299.753 219.519 299.752C219.413 299.753 219.307 299.733 219.209 299.693C219.11 299.653 219.021 299.593 218.945 299.518C218.87 299.443 218.811 299.353 218.771 299.255C218.73 299.156 218.71 299.05 218.712 298.944V295.442H214.937V298.944C214.937 299.051 214.916 299.157 214.874 299.255C214.833 299.354 214.773 299.443 214.697 299.518C214.621 299.594 214.531 299.653 214.432 299.693C214.332 299.733 214.226 299.753 214.12 299.752C213.911 299.744 213.714 299.655 213.571 299.504C213.427 299.353 213.348 299.152 213.351 298.944Z" fill="white"/>
<path d="M132.89 321.059C132.889 320.995 132.9 320.932 132.924 320.873C132.947 320.814 132.982 320.761 133.027 320.715C133.071 320.67 133.124 320.634 133.182 320.609C133.241 320.585 133.304 320.572 133.367 320.572C133.497 320.572 133.622 320.623 133.715 320.714C133.807 320.805 133.861 320.929 133.863 321.059V326.225C133.862 326.289 133.848 326.352 133.823 326.41C133.797 326.469 133.76 326.522 133.714 326.566C133.668 326.61 133.614 326.645 133.554 326.668C133.495 326.692 133.431 326.703 133.367 326.702C133.304 326.703 133.242 326.692 133.183 326.668C133.125 326.645 133.072 326.61 133.027 326.565C132.983 326.52 132.947 326.467 132.924 326.409C132.9 326.35 132.889 326.288 132.89 326.225V321.059Z" fill="white"/>
<path d="M135.498 326.225V321.059C135.497 320.995 135.508 320.932 135.531 320.873C135.555 320.814 135.59 320.761 135.634 320.715C135.679 320.67 135.731 320.634 135.79 320.609C135.848 320.585 135.911 320.572 135.975 320.572H136.987C137.799 320.572 138.579 320.895 139.154 321.47C139.728 322.045 140.051 322.824 140.051 323.637C140.051 324.45 139.728 325.229 139.154 325.804C138.579 326.379 137.799 326.702 136.987 326.702H136.014C135.947 326.709 135.881 326.701 135.818 326.68C135.754 326.659 135.697 326.625 135.648 326.58C135.599 326.535 135.56 326.48 135.535 326.419C135.509 326.357 135.496 326.291 135.498 326.225ZM136.471 325.729H136.987C137.541 325.729 138.073 325.508 138.466 325.116C138.858 324.724 139.078 324.192 139.078 323.637C139.078 323.082 138.858 322.55 138.466 322.158C138.073 321.766 137.541 321.545 136.987 321.545H136.442L136.471 325.729Z" fill="white"/>
<path d="M145.383 326.225C145.38 326.35 145.329 326.47 145.24 326.559C145.152 326.648 145.032 326.699 144.906 326.701C144.843 326.703 144.781 326.691 144.722 326.668C144.664 326.644 144.611 326.609 144.566 326.565C144.522 326.52 144.486 326.467 144.463 326.409C144.44 326.35 144.428 326.288 144.429 326.225V321.136C144.424 321.059 144.44 320.981 144.474 320.911C144.508 320.841 144.56 320.781 144.624 320.737C144.725 320.664 144.851 320.632 144.975 320.651C145.098 320.669 145.21 320.735 145.286 320.835L148.117 324.726V321.136C148.117 321.012 148.166 320.892 148.253 320.803C148.34 320.713 148.459 320.662 148.584 320.66C148.71 320.662 148.831 320.713 148.922 320.801C149.012 320.89 149.065 321.01 149.07 321.136V326.225C149.068 326.352 149.015 326.473 148.924 326.562C148.833 326.651 148.711 326.701 148.584 326.701C148.515 326.7 148.447 326.684 148.385 326.653C148.322 326.623 148.268 326.58 148.224 326.526V326.478L145.422 322.586L145.383 326.225Z" fill="white"/>
<path d="M151.473 326.069C151.081 325.65 150.865 325.096 150.87 324.522C150.874 323.956 151.089 323.411 151.473 322.995C151.664 322.784 151.897 322.615 152.156 322.5C152.416 322.384 152.697 322.324 152.981 322.323C153.259 322.321 153.533 322.38 153.786 322.496C154.038 322.612 154.262 322.782 154.44 322.995C154.842 323.401 155.066 323.951 155.063 324.522C155.069 324.809 155.016 325.093 154.909 325.359C154.802 325.625 154.643 325.866 154.44 326.069C154.258 326.277 154.034 326.443 153.782 326.557C153.53 326.671 153.257 326.73 152.981 326.731C152.698 326.73 152.418 326.671 152.158 326.557C151.899 326.443 151.665 326.277 151.473 326.069ZM151.823 324.522C151.806 324.875 151.921 325.221 152.144 325.495C152.371 325.706 152.671 325.821 152.981 325.816C153.281 325.816 153.57 325.701 153.789 325.495C154.022 325.226 154.144 324.878 154.129 324.522C154.135 324.188 154.013 323.865 153.789 323.617C153.57 323.409 153.283 323.288 152.981 323.277C152.67 323.282 152.371 323.404 152.144 323.617C151.93 323.869 151.816 324.191 151.823 324.522Z" fill="white"/>
<path d="M156.922 325.466C157.007 325.466 157.092 325.483 157.171 325.515C157.25 325.548 157.322 325.596 157.382 325.657C157.443 325.717 157.491 325.789 157.524 325.868C157.556 325.947 157.573 326.032 157.573 326.118C157.573 326.203 157.556 326.288 157.524 326.367C157.491 326.446 157.443 326.518 157.382 326.579C157.322 326.639 157.25 326.687 157.171 326.72C157.092 326.753 157.007 326.77 156.922 326.77C156.836 326.77 156.751 326.753 156.672 326.72C156.593 326.687 156.521 326.639 156.461 326.579C156.4 326.518 156.352 326.446 156.319 326.367C156.287 326.288 156.27 326.203 156.27 326.118C156.27 326.032 156.287 325.947 156.319 325.868C156.352 325.789 156.4 325.717 156.461 325.657C156.521 325.596 156.593 325.548 156.672 325.515C156.751 325.483 156.836 325.466 156.922 325.466Z" fill="white"/>
<path d="M167.663 326.225C167.663 326.288 167.65 326.351 167.626 326.409C167.601 326.468 167.565 326.521 167.52 326.565C167.474 326.61 167.421 326.645 167.362 326.668C167.303 326.691 167.24 326.703 167.176 326.701H164.063C163.995 326.704 163.928 326.691 163.865 326.664C163.803 326.637 163.748 326.597 163.703 326.546C163.614 326.455 163.564 326.333 163.564 326.205C163.564 326.078 163.614 325.956 163.703 325.865L166.301 323.52C166.459 323.363 166.567 323.163 166.613 322.945C166.659 322.727 166.639 322.501 166.558 322.294C166.476 322.087 166.335 321.908 166.153 321.78C165.97 321.652 165.755 321.581 165.532 321.574C165.252 321.577 164.983 321.68 164.773 321.866L164.501 322.109C164.457 322.156 164.404 322.193 164.346 322.218C164.287 322.244 164.224 322.257 164.16 322.257C164.096 322.257 164.033 322.244 163.975 322.218C163.916 322.193 163.863 322.156 163.82 322.109C163.774 322.065 163.738 322.012 163.714 321.953C163.689 321.895 163.677 321.832 163.677 321.769C163.677 321.705 163.689 321.643 163.714 321.584C163.738 321.526 163.774 321.473 163.82 321.428L164.092 321.185C164.472 320.831 164.974 320.636 165.493 320.64C165.788 320.643 166.078 320.705 166.348 320.824C166.617 320.943 166.859 321.115 167.06 321.331C167.245 321.535 167.389 321.775 167.482 322.035C167.574 322.295 167.615 322.571 167.6 322.847C167.586 323.123 167.517 323.393 167.397 323.642C167.278 323.892 167.11 324.114 166.904 324.298L165.25 325.797H167.147C167.272 325.788 167.394 325.828 167.49 325.908C167.586 325.987 167.648 326.101 167.663 326.225Z" fill="white"/>
<path d="M173.286 325.077C173.286 325.14 173.273 325.203 173.249 325.261C173.224 325.32 173.188 325.373 173.143 325.417C173.098 325.462 173.044 325.496 172.985 325.52C172.926 325.543 172.863 325.555 172.8 325.553H172.712V326.225C172.712 326.288 172.699 326.351 172.675 326.409C172.65 326.468 172.614 326.521 172.569 326.565C172.524 326.61 172.47 326.645 172.411 326.668C172.352 326.691 172.289 326.703 172.226 326.701C172.163 326.703 172.1 326.691 172.042 326.668C171.983 326.644 171.93 326.609 171.886 326.565C171.841 326.52 171.806 326.467 171.782 326.409C171.759 326.35 171.748 326.288 171.749 326.225V325.553H168.986C168.88 325.56 168.775 325.525 168.694 325.456C168.642 325.418 168.599 325.37 168.566 325.314C168.534 325.258 168.514 325.196 168.506 325.133C168.499 325.069 168.505 325.004 168.524 324.942C168.543 324.881 168.574 324.824 168.616 324.775L171.856 320.747H171.905H172.012H172.07H172.294V320.796V320.854C172.298 320.87 172.298 320.887 172.294 320.903V324.464H172.381C172.463 324.344 172.588 324.261 172.731 324.233C172.873 324.206 173.02 324.236 173.14 324.318C173.26 324.399 173.343 324.525 173.37 324.667C173.398 324.809 173.367 324.957 173.286 325.077ZM171.749 322.43L170.007 324.59H171.749V322.43Z" fill="white"/>
<path d="M189.115 324.62C189.119 324.984 189.027 325.344 188.849 325.662C188.671 325.981 188.413 326.248 188.101 326.436C187.789 326.625 187.433 326.729 187.068 326.739C186.704 326.748 186.343 326.663 186.021 326.49C185.7 326.318 185.428 326.065 185.234 325.756C185.04 325.447 184.93 325.093 184.914 324.728C184.899 324.364 184.978 324.002 185.145 323.677C185.312 323.353 185.56 323.077 185.866 322.878C185.675 322.63 185.572 322.325 185.574 322.012C185.574 321.625 185.728 321.254 186.001 320.98C186.275 320.706 186.646 320.553 187.033 320.553C187.42 320.553 187.791 320.706 188.065 320.98C188.339 321.254 188.493 321.625 188.493 322.012C188.494 322.325 188.391 322.63 188.201 322.878C188.484 323.071 188.716 323.331 188.875 323.635C189.035 323.938 189.117 324.277 189.115 324.62ZM188.142 324.62C188.142 324.319 188.024 324.031 187.812 323.818C187.601 323.605 187.314 323.484 187.014 323.481C186.856 323.467 186.697 323.485 186.547 323.535C186.397 323.586 186.259 323.667 186.142 323.773C186.025 323.88 185.931 324.01 185.867 324.155C185.803 324.3 185.77 324.456 185.77 324.615C185.77 324.773 185.803 324.93 185.867 325.074C185.931 325.219 186.025 325.349 186.142 325.456C186.259 325.563 186.397 325.644 186.547 325.694C186.697 325.744 186.856 325.763 187.014 325.748C187.163 325.749 187.311 325.721 187.449 325.665C187.587 325.609 187.712 325.526 187.818 325.421C187.924 325.316 188.008 325.191 188.065 325.054C188.123 324.916 188.152 324.769 188.152 324.62H188.142ZM186.518 322.012C186.516 322.111 186.543 322.208 186.596 322.29C186.65 322.373 186.727 322.438 186.817 322.477C186.908 322.516 187.008 322.528 187.104 322.51C187.201 322.492 187.291 322.445 187.361 322.376C187.431 322.307 187.48 322.219 187.5 322.122C187.52 322.026 187.51 321.925 187.473 321.834C187.436 321.743 187.372 321.665 187.29 321.61C187.209 321.555 187.112 321.526 187.014 321.526C186.886 321.528 186.763 321.58 186.673 321.671C186.582 321.762 186.53 321.884 186.527 322.012H186.518Z" fill="white"/>
<path d="M194.486 326.225C194.487 326.288 194.476 326.351 194.453 326.409C194.429 326.468 194.394 326.521 194.349 326.565C194.305 326.61 194.252 326.645 194.193 326.668C194.135 326.692 194.072 326.703 194.009 326.702H190.886C190.819 326.703 190.752 326.69 190.69 326.663C190.628 326.636 190.572 326.596 190.526 326.546C190.481 326.502 190.445 326.449 190.421 326.39C190.396 326.332 190.383 326.269 190.383 326.206C190.383 326.142 190.396 326.079 190.421 326.021C190.445 325.962 190.481 325.909 190.526 325.865L193.114 323.52C193.335 323.316 193.466 323.034 193.481 322.734C193.496 322.433 193.392 322.14 193.192 321.915C193.087 321.797 192.958 321.703 192.814 321.639C192.67 321.575 192.513 321.543 192.355 321.545C192.075 321.545 191.805 321.649 191.597 321.837L191.324 322.08C191.281 322.127 191.228 322.164 191.169 322.189C191.111 322.215 191.047 322.228 190.984 322.228C190.92 322.228 190.857 322.215 190.798 322.189C190.74 322.164 190.687 322.127 190.643 322.08C190.598 322.036 190.562 321.983 190.537 321.925C190.513 321.866 190.5 321.803 190.5 321.74C190.5 321.677 190.513 321.614 190.537 321.555C190.562 321.497 190.598 321.444 190.643 321.399L190.916 321.156C191.3 320.803 191.804 320.609 192.326 320.611C192.619 320.613 192.909 320.675 193.177 320.794C193.445 320.913 193.685 321.086 193.883 321.302C194.257 321.715 194.452 322.26 194.424 322.816C194.397 323.372 194.15 323.895 193.737 324.27L192.083 325.768H193.951C194.017 325.761 194.083 325.768 194.145 325.787C194.208 325.807 194.266 325.839 194.316 325.882C194.366 325.925 194.407 325.977 194.436 326.036C194.466 326.095 194.483 326.159 194.486 326.225Z" fill="white"/>
<path d="M199.487 321.243L197.308 326.419C197.273 326.508 197.21 326.583 197.13 326.633C197.049 326.684 196.955 326.708 196.86 326.701C196.799 326.715 196.736 326.715 196.675 326.701C196.56 326.648 196.469 326.553 196.421 326.436C196.372 326.319 196.369 326.188 196.412 326.069L198.31 321.574H196.043C195.915 321.571 195.794 321.519 195.705 321.428C195.616 321.337 195.566 321.215 195.566 321.088C195.565 321.024 195.576 320.961 195.599 320.902C195.623 320.843 195.658 320.789 195.702 320.744C195.747 320.699 195.8 320.663 195.858 320.638C195.917 320.614 195.979 320.601 196.043 320.601H199.137C199.2 320.619 199.262 320.642 199.321 320.669C199.321 320.669 199.321 320.669 199.321 320.718C199.321 320.766 199.321 320.718 199.321 320.718C199.331 320.782 199.331 320.848 199.321 320.912L199.487 321.243Z" fill="white"/>
<path d="M203.846 322.985C204.049 323.184 204.21 323.422 204.321 323.684C204.431 323.946 204.488 324.228 204.488 324.513C204.493 324.945 204.369 325.37 204.131 325.731C203.893 326.093 203.552 326.375 203.152 326.541C202.752 326.708 202.312 326.751 201.888 326.665C201.464 326.579 201.075 326.368 200.771 326.06C200.721 326.015 200.68 325.96 200.651 325.899C200.623 325.837 200.607 325.771 200.605 325.703C200.603 325.636 200.615 325.568 200.64 325.506C200.665 325.443 200.702 325.386 200.75 325.338C200.798 325.29 200.855 325.252 200.918 325.227C200.981 325.203 201.048 325.191 201.116 325.193C201.183 325.195 201.25 325.21 201.311 325.239C201.372 325.268 201.427 325.308 201.472 325.359C201.696 325.577 201.996 325.7 202.309 325.7C202.621 325.699 202.921 325.577 203.145 325.359C203.258 325.249 203.347 325.117 203.408 324.972C203.468 324.826 203.498 324.67 203.495 324.513C203.498 324.358 203.468 324.204 203.408 324.062C203.347 323.92 203.258 323.791 203.145 323.686C202.927 323.464 202.629 323.338 202.318 323.335C202.25 323.338 202.183 323.326 202.12 323.299C202.058 323.272 202.003 323.231 201.958 323.18C201.866 323.087 201.814 322.961 201.814 322.829C201.814 322.698 201.866 322.572 201.958 322.479L202.853 321.565H201.433C201.368 321.565 201.304 321.552 201.244 321.527C201.185 321.502 201.131 321.465 201.085 321.419C201.04 321.373 201.005 321.318 200.981 321.258C200.957 321.197 200.945 321.133 200.946 321.068C200.945 321.004 200.957 320.939 200.981 320.879C201.005 320.819 201.04 320.764 201.085 320.718C201.131 320.672 201.185 320.635 201.244 320.61C201.304 320.585 201.368 320.572 201.433 320.572H204.021C204.152 320.572 204.279 320.625 204.372 320.718C204.465 320.811 204.517 320.937 204.517 321.068C204.514 321.149 204.494 321.229 204.459 321.302L204.371 321.428L203.262 322.567C203.483 322.665 203.681 322.808 203.846 322.985Z" fill="white"/>
<path d="M205.831 322.693C205.847 322.158 206.064 321.649 206.439 321.267C206.814 320.885 207.318 320.658 207.853 320.631C208.387 320.604 208.912 320.779 209.324 321.121C209.735 321.464 210.002 321.948 210.072 322.479C210.072 322.644 210.072 322.819 210.072 322.985C210.079 323.596 209.974 324.202 209.761 324.775C209.555 325.382 209.159 325.907 208.633 326.273C208.241 326.53 207.787 326.675 207.319 326.692C207.191 326.694 207.066 326.647 206.972 326.56C206.878 326.473 206.821 326.353 206.813 326.225C206.813 326.095 206.862 325.971 206.951 325.877C207.04 325.783 207.161 325.726 207.29 325.719C207.581 325.713 207.864 325.626 208.107 325.466C208.34 325.31 208.53 325.1 208.662 324.853L208.779 324.629C208.512 324.747 208.223 324.806 207.932 324.804C207.375 324.797 206.844 324.571 206.451 324.177C206.058 323.782 205.836 323.25 205.831 322.693ZM206.803 322.693C206.789 322.853 206.808 323.015 206.859 323.167C206.91 323.32 206.993 323.46 207.101 323.579C207.21 323.698 207.342 323.793 207.489 323.858C207.636 323.923 207.795 323.957 207.956 323.957C208.117 323.957 208.277 323.923 208.424 323.858C208.571 323.793 208.703 323.698 208.812 323.579C208.92 323.46 209.003 323.32 209.054 323.167C209.105 323.015 209.124 322.853 209.109 322.693C209.083 322.405 208.95 322.138 208.737 321.944C208.523 321.749 208.245 321.641 207.956 321.641C207.668 321.641 207.389 321.749 207.176 321.944C206.963 322.138 206.83 322.405 206.803 322.693Z" fill="white"/>
<path d="M211.444 323.637C211.433 322.895 211.643 322.167 212.047 321.545C212.213 321.258 212.449 321.018 212.734 320.848C213.018 320.677 213.341 320.583 213.672 320.572C214.004 320.583 214.327 320.677 214.611 320.848C214.895 321.018 215.131 321.258 215.297 321.545C215.679 322.176 215.881 322.899 215.881 323.637C215.881 324.374 215.679 325.098 215.297 325.729C215.127 326.012 214.889 326.248 214.606 326.418C214.323 326.588 214.002 326.685 213.672 326.702C213.341 326.691 213.018 326.596 212.734 326.426C212.449 326.256 212.213 326.016 212.047 325.729C211.643 325.107 211.433 324.379 211.444 323.637ZM214.908 323.637C214.917 323.089 214.772 322.55 214.49 322.08C214.413 321.927 214.296 321.797 214.153 321.703C214.009 321.609 213.844 321.554 213.672 321.545C213.5 321.56 213.334 321.617 213.188 321.71C213.042 321.803 212.921 321.93 212.836 322.08C212.561 322.553 212.417 323.09 212.417 323.637C212.417 324.184 212.561 324.721 212.836 325.194C212.923 325.343 213.044 325.469 213.189 325.562C213.335 325.655 213.5 325.712 213.672 325.729C213.842 325.714 214.006 325.657 214.148 325.564C214.291 325.471 214.408 325.343 214.49 325.194C214.772 324.724 214.917 324.185 214.908 323.637Z" fill="white"/>
<path d="M221.767 324.62C221.771 324.985 221.681 325.345 221.504 325.665C221.328 325.984 221.071 326.252 220.759 326.442C220.447 326.632 220.091 326.738 219.726 326.748C219.361 326.759 218.999 326.674 218.677 326.502C218.355 326.331 218.083 326.078 217.888 325.769C217.693 325.46 217.582 325.106 217.566 324.741C217.55 324.376 217.629 324.013 217.796 323.688C217.963 323.363 218.211 323.087 218.517 322.888C218.326 322.64 218.224 322.335 218.225 322.022C218.225 321.635 218.379 321.264 218.653 320.99C218.926 320.716 219.297 320.562 219.685 320.562C220.072 320.562 220.443 320.716 220.716 320.99C220.99 321.264 221.144 321.635 221.144 322.022C221.145 322.335 221.043 322.64 220.852 322.888C221.134 323.08 221.365 323.338 221.524 323.64C221.684 323.942 221.767 324.278 221.767 324.62ZM220.794 324.62C220.791 324.318 220.67 324.03 220.457 323.817C220.244 323.605 219.956 323.484 219.655 323.481C219.498 323.467 219.339 323.485 219.189 323.535C219.038 323.586 218.9 323.667 218.783 323.773C218.666 323.88 218.573 324.01 218.509 324.155C218.445 324.3 218.412 324.456 218.412 324.615C218.412 324.773 218.445 324.93 218.509 325.075C218.573 325.219 218.666 325.349 218.783 325.456C218.9 325.563 219.038 325.644 219.189 325.694C219.339 325.744 219.498 325.763 219.655 325.748C219.806 325.751 219.955 325.724 220.095 325.668C220.234 325.613 220.362 325.53 220.469 325.425C220.577 325.32 220.663 325.195 220.722 325.057C220.781 324.918 220.812 324.77 220.813 324.62H220.794ZM219.159 322.012C219.157 322.111 219.185 322.208 219.238 322.29C219.291 322.373 219.368 322.438 219.459 322.477C219.549 322.517 219.649 322.528 219.746 322.51C219.843 322.492 219.932 322.445 220.003 322.376C220.073 322.307 220.121 322.219 220.141 322.122C220.161 322.026 220.152 321.926 220.115 321.834C220.077 321.743 220.014 321.665 219.932 321.61C219.85 321.555 219.754 321.526 219.655 321.526C219.529 321.531 219.409 321.584 219.32 321.674C219.232 321.765 219.181 321.886 219.179 322.012H219.159Z" fill="white"/>
<path d="M136.286 333.074H133.134V352.805H136.286V333.074Z" fill="#263238"/>
<path d="M146.268 333.074H143.116V352.805H146.268V333.074Z" fill="#263238"/>
<path d="M154.664 333.074H151.512V352.805H154.664V333.074Z" fill="#263238"/>
<path d="M158.702 333.074H155.55V352.805H158.702V333.074Z" fill="#263238"/>
<path d="M140.674 333.074H139.886V352.805H140.674V333.074Z" fill="#263238"/>
<path d="M221.397 333.074H220.609V352.805H221.397V333.074Z" fill="#263238"/>
<path d="M150.539 333.074H149.751V352.805H150.539V333.074Z" fill="#263238"/>
<path d="M172.693 333.074H171.905V352.805H172.693V333.074Z" fill="#263238"/>
<path d="M142.211 333.074H141.423V352.805H142.211V333.074Z" fill="#263238"/>
<path d="M138.942 333.074H137.366V352.805H138.942V333.074Z" fill="#263238"/>
<path d="M179.425 333.074H176.273V352.805H179.425V333.074Z" fill="#263238"/>
<path d="M183.813 333.074H183.025V352.805H183.813V333.074Z" fill="#263238"/>
<path d="M185.35 333.074H184.562V352.805H185.35V333.074Z" fill="#263238"/>
<path d="M182.082 333.074H180.505V352.805H182.082V333.074Z" fill="#263238"/>
<path d="M187.831 333.074H186.255V352.805H187.831V333.074Z" fill="#263238"/>
<path d="M190.371 333.074H188.794V352.805H190.371V333.074Z" fill="#263238"/>
<path d="M170.912 333.074H167.76V352.805H170.912V333.074Z" fill="#263238"/>
<path d="M194.535 333.074H191.383V352.805H194.535V333.074Z" fill="#263238"/>
<path d="M165.318 333.074H164.53V352.805H165.318V333.074Z" fill="#263238"/>
<path d="M166.855 333.074H166.067V352.805H166.855V333.074Z" fill="#263238"/>
<path d="M163.586 333.074H162.01V352.805H163.586V333.074Z" fill="#263238"/>
<path d="M148.769 333.074H147.192V352.805H148.769V333.074Z" fill="#263238"/>
<path d="M161.124 333.074H159.548V352.805H161.124V333.074Z" fill="#263238"/>
<path d="M175.164 333.074H173.588V352.805H175.164V333.074Z" fill="#263238"/>
<path d="M196.305 333.074H195.517V352.805H196.305V333.074Z" fill="#263238"/>
<path d="M203.038 333.074H199.886V352.805H203.038V333.074Z" fill="#263238"/>
<path d="M213.03 333.074H209.878V352.805H213.03V333.074Z" fill="#263238"/>
<path d="M217.126 333.074H213.974V352.805H217.126V333.074Z" fill="#263238"/>
<path d="M207.426 333.074H206.638V352.805H207.426V333.074Z" fill="#263238"/>
<path d="M208.963 333.074H208.175V352.805H208.963V333.074Z" fill="#263238"/>
<path d="M205.704 333.074H204.128V352.805H205.704V333.074Z" fill="#263238"/>
<path d="M198.786 333.074H197.21V352.805H198.786V333.074Z" fill="#263238"/>
<path d="M219.704 333.074H218.128V352.805H219.704V333.074Z" fill="#263238"/>
<path d="M197.415 305H157V307.228H197.415V305Z" fill="#263238"/>
<path d="M378.339 354.488C378.344 354.641 378.313 354.793 378.249 354.931C378.185 355.07 378.089 355.191 377.969 355.286C371.158 361.308 357.45 363.39 343.265 363.39H324.235C338.42 363.39 352.089 361.308 358.958 355.286C359.074 355.189 359.167 355.067 359.227 354.928C359.288 354.79 359.316 354.639 359.308 354.488C359.25 352.007 352.683 346.88 345.084 340.935C331.162 330.068 312.112 315.173 312.112 301.046C312.112 287.425 320.654 265.291 330.52 239.645C344.802 202.528 361.011 160.459 357.888 128.576C355.095 100.031 317.998 36.2173 283.897 10.0652C276.435 4.34444 270.199 1.4646 265.276 1.4646H284.296C289.219 1.4646 295.465 4.38336 302.928 10.0652C337.028 36.2173 374.116 100.031 376.869 128.576C379.992 160.459 363.793 202.518 349.501 239.645C339.626 265.291 331.103 287.435 331.103 301.046C331.103 315.202 350.153 330.097 364.066 340.935C371.703 346.88 378.27 352.007 378.339 354.488Z" fill="#FFC727"/>
<g opacity="0.2">
<path opacity="0.2" d="M378.339 354.488C378.344 354.641 378.313 354.793 378.249 354.931C378.185 355.07 378.089 355.191 377.969 355.286C371.158 361.308 357.45 363.39 343.265 363.39H324.235C338.42 363.39 352.089 361.308 358.958 355.286C359.074 355.189 359.167 355.067 359.227 354.928C359.288 354.79 359.316 354.639 359.308 354.488C359.25 352.007 352.683 346.88 345.084 340.935C331.162 330.068 312.112 315.173 312.112 301.046C312.112 287.425 320.654 265.291 330.52 239.645C344.802 202.528 361.011 160.459 357.888 128.576C355.095 100.031 317.998 36.2173 283.897 10.0652C276.435 4.34444 270.199 1.4646 265.276 1.4646H284.296C289.219 1.4646 295.465 4.38336 302.928 10.0652C337.028 36.2173 374.116 100.031 376.869 128.576C379.992 160.459 363.793 202.518 349.501 239.645C339.626 265.291 331.103 287.435 331.103 301.046C331.103 315.202 350.153 330.097 364.066 340.935C371.703 346.88 378.27 352.007 378.339 354.488Z" fill="black"/>
</g>
<path d="M343.148 364.353H324.127C306.158 364.353 287.448 361.065 280.453 358.185C266.54 352.455 278.313 259.979 287.779 185.677C292.965 144.912 297.44 109.702 295.699 102.755C292.43 89.8152 280.55 70.6487 263.923 51.4141C250.03 35.3804 236.516 23.7734 231.817 23.7734H250.818C255.537 23.7734 269.05 35.3804 282.924 51.4141C299.551 70.6195 311.431 89.8152 314.7 102.755C316.451 109.702 311.976 144.912 306.78 185.677C297.324 259.979 285.541 352.455 299.454 358.185C306.479 361.065 325.178 364.353 343.148 364.353Z" fill="#FFC727"/>
<g opacity="0.1">
<path opacity="0.1" d="M343.148 364.354H324.127C306.158 364.354 287.448 361.065 280.453 358.185C266.54 352.455 278.313 259.979 287.779 185.677C292.965 144.912 297.44 109.702 295.699 102.755C292.43 89.8154 280.55 70.6489 263.923 51.4143C250.03 35.3806 236.516 23.7737 231.817 23.7737H250.818C255.537 23.7737 269.05 35.3806 282.924 51.4143C299.551 70.6197 311.431 89.8154 314.7 102.755C316.451 109.702 311.976 144.912 306.78 185.677C297.324 259.979 285.541 352.455 299.454 358.185C306.479 361.065 325.178 364.354 343.148 364.354Z" fill="black"/>
</g>
<path d="M243.414 25.6805H224.394C226.486 24.4117 228.75 23.4516 231.116 22.8298H250.137C247.771 23.4516 245.506 24.4117 243.414 25.6805Z" fill="#FFC727"/>
<g opacity="0.2">
<path opacity="0.2" d="M243.414 25.6805H224.394C226.486 24.4117 228.75 23.4516 231.116 22.8298H250.137C247.771 23.4516 245.506 24.4117 243.414 25.6805Z" fill="black"/>
</g>
<path d="M364.65 340.108C373.095 346.714 379.243 351.472 379.243 354.459C379.254 354.764 379.196 355.068 379.073 355.347C378.95 355.627 378.765 355.875 378.533 356.074C371.518 362.223 357.557 364.353 343.1 364.353C325.13 364.353 306.43 361.065 299.425 358.185C285.512 352.455 297.295 259.979 306.751 185.677C311.947 144.912 316.422 109.702 314.671 102.755C311.402 89.8152 299.523 70.6487 282.895 51.4141C269.012 35.3804 255.498 23.7735 250.789 23.7735C245.156 24.9604 237.674 30.4088 232.479 34.6118C227.001 39.2429 219.335 46.2868 219.208 46.3549L217.953 46.1604C218.216 45.9171 224.131 40.4882 226.057 38.8051C226.651 38.2505 228.752 36.3631 231.593 34.0378C244.592 23.0049 268.506 3.8773 281.446 0.734776C282.364 0.516959 283.304 0.409178 284.248 0.413711C289.385 0.413711 295.816 3.33247 303.434 9.16998C332.417 31.3914 374.457 94.4171 377.813 128.411C380.966 160.517 364.718 202.742 350.387 239.975C340.55 265.524 332.057 287.58 332.057 300.987C332.096 314.657 350.922 329.367 364.65 340.108ZM377.959 355.276C378.076 355.181 378.169 355.061 378.232 354.924C378.294 354.788 378.324 354.638 378.319 354.488C378.251 352.007 371.684 346.88 364.085 340.935C350.173 330.068 331.123 315.172 331.123 301.046C331.123 287.425 339.646 265.291 349.521 239.645C363.813 202.528 380.012 160.469 376.889 128.576C374.097 100.031 336.999 36.2171 302.947 10.0553C295.485 4.3443 289.239 1.46446 284.326 1.46446C283.444 1.4631 282.566 1.56432 281.708 1.76607C272.213 4.08162 256.257 15.5231 243.434 25.7096C245.526 24.4408 247.79 23.4807 250.157 22.8589C261.948 22.7908 308.454 73.9664 315.654 102.522C317.453 109.672 313.173 143.287 307.763 185.842C298.841 255.892 286.631 351.822 299.844 357.271C306.8 360.131 325.451 363.419 343.284 363.419C357.47 363.419 371.139 361.337 377.998 355.305" fill="#FFC727"/>
<path d="M284.287 0.413825C283.343 0.407563 282.401 0.518679 281.485 0.744617C268.545 3.89687 244.63 23.005 231.632 34.0282C228.791 36.3632 226.69 38.2506 226.096 38.7955C224.151 40.4786 218.245 45.9172 217.982 46.1605L207.037 38.7955C207.621 38.2506 209.732 36.3632 212.563 34.0282C225.571 23.005 249.476 3.86769 262.415 0.744617C263.332 0.519271 264.273 0.408163 265.217 0.413825H284.287Z" fill="#FFC727"/>
<g opacity="0.1">
<path opacity="0.1" d="M284.286 0.413825C283.342 0.407563 282.401 0.518679 281.484 0.744617C268.545 3.89687 244.63 23.005 231.632 34.0282C228.791 36.3632 226.69 38.2506 226.096 38.7955C224.15 40.4786 218.245 45.9172 217.982 46.1605L207.037 38.7955C207.62 38.2506 209.732 36.3632 212.563 34.0282C225.571 23.005 249.475 3.86769 262.415 0.744617C263.332 0.519271 264.273 0.408163 265.217 0.413825H284.286Z" fill="black"/>
</g>
<path d="M159.85 136.749C149.829 149.582 156.26 164.049 152.855 173.292C150.773 178.935 141.773 186.28 140.937 192.478C139.565 202.654 148.321 204.444 147.553 209.99C146.482 217.832 136.559 219.243 137.21 231.579C137.862 243.916 153.624 253.995 185.633 251.135C217.642 248.274 232.508 233.34 231.574 222.92C230.64 212.5 219.549 211.245 217.311 203.793C215.881 199.035 221.621 194.355 220.152 185.307C218.683 176.259 209.382 175.169 206.609 167.795C203.836 160.42 204.118 141.341 191.061 134.141C178.005 126.942 164.793 130.415 159.85 136.749Z" fill="#263238"/>
<path d="M161.31 136.739C158.404 139.824 156.288 143.566 155.141 147.645C153.984 151.956 153.331 156.387 153.196 160.848C153.175 163.494 152.849 166.128 152.223 168.699C151.539 170.884 150.472 172.93 149.07 174.741C146.298 178.477 142.727 181.62 140.382 185.677C138.164 189.568 136.802 194.326 138.845 198.539C139.964 200.825 141.949 202.479 143.398 204.532C144.848 206.585 145.675 209.056 144.206 211.196C142.941 213.035 140.81 214.183 139.293 215.789C137.781 217.358 136.539 219.166 135.615 221.14C134.659 223.099 134.125 225.237 134.048 227.416C133.971 229.595 134.352 231.766 135.167 233.788C138.972 243.157 149.216 246.844 158.352 248.634C159.627 248.887 160.911 249.121 162.185 249.345C162.38 249.345 162.487 249.092 162.283 249.043C153.05 246.961 142.338 244.499 137.172 235.695C136.016 233.779 135.319 231.623 135.133 229.394C134.947 227.164 135.279 224.922 136.101 222.842C136.928 220.774 138.121 218.872 139.623 217.229C141.073 215.633 142.883 214.465 144.371 212.919C145.121 212.203 145.667 211.3 145.953 210.303C146.239 209.306 146.253 208.251 145.996 207.246C145.422 204.98 143.904 203.209 142.406 201.487C140.908 199.765 139.409 197.799 139.088 195.338C138.882 193.014 139.309 190.677 140.324 188.576C142.211 184.315 145.617 181.085 148.545 177.553C151.474 174.021 153.643 170.149 154.032 165.479C154.227 163.115 154.169 160.741 154.276 158.367C154.363 156.172 154.568 153.983 154.888 151.809C155.454 147.457 156.962 143.281 159.306 139.57C159.935 138.618 160.659 137.732 161.465 136.924C161.534 136.797 161.397 136.642 161.31 136.739Z" fill="#263238"/>
<path d="M231.438 215.215C230.725 213.63 229.672 212.221 228.353 211.09C226.991 209.932 225.435 209.037 223.975 208.005C222.512 207.114 221.329 205.83 220.56 204.299C219.763 202.353 220.21 200.29 220.804 198.383C221.516 196.419 222.085 194.407 222.506 192.361C222.985 189.284 222.738 186.138 221.786 183.173C220.833 180.209 219.201 177.508 217.019 175.286C215.598 173.749 214.1 172.367 212.631 170.811C211.058 169.158 209.713 167.303 208.632 165.294C206.268 160.858 204.964 155.954 202.853 151.411C200.653 146.764 197.99 142.35 194.904 138.237C194.827 138.14 194.681 138.237 194.759 138.374C197.507 142.097 199.864 146.095 201.793 150.302C203.632 154.291 204.867 158.484 206.463 162.56C207.209 164.575 208.154 166.511 209.284 168.339C210.397 170.015 211.66 171.584 213.059 173.029C215.871 176.045 218.741 179.012 220.152 182.982C221.547 186.885 221.666 191.13 220.492 195.104C219.519 198.549 217.865 202.44 220.035 205.807C221.874 208.638 225.191 209.893 227.663 212.053C228.976 213.253 230.021 214.716 230.73 216.347C231.439 217.978 231.796 219.741 231.778 221.519C231.856 230.626 223.995 236.745 215.822 238.837C215.771 238.85 215.727 238.883 215.699 238.928C215.671 238.973 215.662 239.027 215.673 239.079C215.685 239.131 215.716 239.176 215.76 239.205C215.804 239.235 215.858 239.246 215.91 239.236C223.041 237.709 230.182 233 232.187 225.615C233.151 222.166 232.887 218.49 231.438 215.215Z" fill="#263238"/>
<path d="M221.884 279.281H137.824L139.604 269.455L139.974 267.451L141.112 261.224L141.2 260.728L143.146 250.298L143.262 249.646L144.323 243.809V243.712L144.488 242.865L144.644 241.951C144.644 241.951 144.294 241.308 143.797 240.209C143.7 239.985 143.593 239.752 143.496 239.509C143.087 238.536 142.62 237.31 142.192 235.918C141.939 235.121 141.706 234.265 141.511 233.36C140.8 230.93 140.6 228.379 140.921 225.868C141.242 223.356 142.079 220.939 143.379 218.766C144.06 217.501 144.858 216.168 145.753 214.767C152.495 204.308 164.491 191.213 167.4 188.498C167.702 188.226 168.004 187.944 168.315 187.691C168.963 187.138 169.649 186.631 170.368 186.173C174.872 183.254 180.399 182.136 185.711 184.364C187.063 184.937 188.335 185.683 189.495 186.582C189.768 186.786 190.031 187 190.313 187.234C190.595 187.467 191.023 187.856 191.383 188.207C191.879 188.712 192.356 189.238 192.881 189.812C192.969 189.9 193.048 189.998 193.115 190.104C193.523 190.571 193.932 191.077 194.331 191.602C203.019 203.034 209.898 224.681 214.577 243.634C219.325 262.888 221.884 279.281 221.884 279.281Z" fill="#4668D6"/>
<path d="M168.295 187.73C168.295 187.73 164.988 199.405 168.247 200.193C171.506 200.981 179.338 195.153 189.486 186.572C189.525 186.611 179.795 176.103 168.295 187.73Z" fill="#D3766A"/>
<path d="M185.535 185.833C185.117 187.175 177.927 195.63 171.671 194.89C169.638 194.647 170.475 183.468 170.475 183.468L170.348 182.632L168.578 170.879L182.782 163.095L184.825 162.123C184.825 162.123 185.098 165.372 185.399 169.419C185.399 169.604 185.399 169.789 185.399 169.993C185.399 170.198 185.399 170.431 185.458 170.645C185.516 171.249 185.565 171.871 185.604 172.484C185.643 173.097 185.662 173.457 185.681 173.905C185.701 174.352 185.681 174.878 185.75 175.374C185.917 178.861 185.845 182.355 185.535 185.833Z" fill="#D3766A"/>
<path d="M185.399 169.4C183.999 172.564 181.928 175.387 179.329 177.671C176.73 179.956 173.666 181.649 170.348 182.632L168.578 170.879L182.782 163.095L184.825 162.123C184.825 162.123 185.098 165.353 185.399 169.4Z" fill="#263238"/>
<path d="M154.129 151.275C150.773 171.862 162.73 176.191 167.166 176.911C171.204 177.563 185.01 179.265 190.468 159.136C195.926 139.006 187.413 130.921 178.277 128.975C169.142 127.029 157.476 130.688 154.129 151.275Z" fill="#D3766A"/>
<path d="M159.909 148.113C160.388 148.082 160.865 148.027 161.339 147.947C161.852 147.951 162.353 147.791 162.769 147.49C162.88 147.371 162.948 147.218 162.962 147.056C162.976 146.894 162.936 146.731 162.847 146.595C162.632 146.346 162.355 146.159 162.043 146.055C161.731 145.951 161.398 145.932 161.076 146.001C160.406 146.033 159.773 146.318 159.306 146.799C159.203 146.913 159.136 147.055 159.114 147.207C159.091 147.359 159.113 147.514 159.177 147.654C159.241 147.793 159.344 147.911 159.474 147.992C159.604 148.074 159.755 148.116 159.909 148.113Z" fill="#263238"/>
<path d="M173.773 150.078C173.286 149.971 172.858 149.796 172.391 149.65C171.886 149.567 171.421 149.321 171.068 148.949C170.98 148.81 170.941 148.646 170.956 148.482C170.972 148.318 171.042 148.164 171.156 148.044C171.409 147.841 171.711 147.707 172.032 147.658C172.353 147.608 172.682 147.644 172.985 147.762C173.635 147.924 174.202 148.319 174.58 148.871C174.665 149.001 174.71 149.152 174.71 149.307C174.709 149.462 174.663 149.613 174.576 149.742C174.49 149.871 174.368 149.971 174.225 150.031C174.082 150.091 173.925 150.107 173.773 150.078Z" fill="#263238"/>
<path d="M170.523 155.059C170.523 155.011 170.621 155.137 170.611 155.195C170.407 156.606 170.407 158.25 171.633 158.863C171.633 158.863 171.633 158.951 171.633 158.941C170.066 158.542 170.066 156.363 170.523 155.059Z" fill="#263238"/>
<path d="M171.953 153.736C174.24 153.823 173.899 158.396 171.769 158.309C169.638 158.221 170.066 153.658 171.953 153.736Z" fill="#263238"/>
<path d="M172.829 154.047C173.208 154.329 173.568 154.816 174.045 154.903C174.522 154.991 175.018 154.553 175.456 154.115C175.456 154.115 175.534 154.115 175.524 154.174C175.475 155.059 175.067 155.925 174.123 155.983C173.179 156.042 172.693 155.225 172.547 154.32C172.518 154.154 172.673 153.931 172.829 154.047Z" fill="#263238"/>
<path d="M162.156 153.862C162.156 153.814 162.039 153.921 162.039 153.979C161.981 155.4 161.689 157.024 160.376 157.404C160.376 157.404 160.376 157.491 160.376 157.482C161.962 157.365 162.331 155.215 162.156 153.862Z" fill="#263238"/>
<path d="M160.988 152.296C158.722 151.975 158.235 156.528 160.337 156.83C162.438 157.131 162.895 152.627 160.988 152.296Z" fill="#263238"/>
<path d="M160.006 152.5C159.617 152.695 159.218 153.103 158.78 153.084C158.342 153.065 157.963 152.529 157.7 152.024C157.7 151.965 157.632 152.024 157.622 152.024C157.505 152.889 157.7 153.833 158.517 154.086C159.334 154.339 159.899 153.639 160.2 152.792C160.259 152.675 160.161 152.413 160.006 152.5Z" fill="#263238"/>
<path d="M168.704 165.858C168.392 166.218 168.091 166.695 167.575 166.831C167.049 166.859 166.523 166.78 166.028 166.598C166.023 166.594 166.017 166.591 166.011 166.59C166.005 166.588 165.999 166.588 165.992 166.589C165.986 166.59 165.98 166.592 165.974 166.595C165.969 166.598 165.964 166.602 165.96 166.608C165.956 166.613 165.954 166.618 165.952 166.625C165.95 166.631 165.95 166.637 165.951 166.644C165.952 166.65 165.954 166.656 165.957 166.662C165.96 166.667 165.965 166.672 165.97 166.676C166.197 166.935 166.488 167.129 166.815 167.238C167.141 167.347 167.491 167.368 167.828 167.298C168.104 167.194 168.343 167.011 168.516 166.773C168.689 166.534 168.788 166.25 168.801 165.956C168.859 165.829 168.743 165.8 168.704 165.858Z" fill="#263238"/>
<path d="M163.129 160.41C163.129 160.41 162.652 162.502 162.565 163.494C162.565 163.592 162.798 163.65 163.129 163.699C163.971 163.93 164.86 163.925 165.699 163.685C166.538 163.445 167.295 162.978 167.887 162.337C167.9 162.317 167.906 162.294 167.905 162.27C167.903 162.247 167.894 162.224 167.878 162.206C167.863 162.189 167.842 162.176 167.819 162.172C167.796 162.167 167.772 162.17 167.751 162.181C166.404 162.94 164.847 163.24 163.314 163.037C163.314 162.755 164.287 159.496 164.102 159.466C163.32 159.467 162.541 159.572 161.787 159.778C162.662 155.4 164.219 151.206 165.017 146.828C165.021 146.797 165.015 146.765 164.998 146.738C164.982 146.711 164.956 146.69 164.926 146.68C164.896 146.669 164.864 146.67 164.834 146.681C164.804 146.692 164.779 146.713 164.764 146.741C162.818 151.031 161.709 156.051 160.697 160.546C160.6 161.062 162.721 160.498 163.129 160.41Z" fill="#263238"/>
<path d="M163.324 163.329C163.807 164.197 164.504 164.927 165.348 165.45C165.821 165.715 166.365 165.827 166.904 165.771C168.082 165.645 168.257 164.613 168.179 163.689C168.134 163.202 168.033 162.722 167.877 162.259C166.514 163.095 164.917 163.47 163.324 163.329Z" fill="#263238"/>
<path d="M165.347 165.401C165.821 165.666 166.365 165.778 166.904 165.722C168.081 165.596 168.256 164.564 168.179 163.64C167.578 163.575 166.973 163.713 166.459 164.033C165.946 164.352 165.555 164.834 165.347 165.401Z" fill="#FF9ABB"/>
<path d="M188.338 159.116C183.619 158.532 184.65 151.099 184.65 151.099C184.65 151.099 179.358 149.903 180.116 141.224C180.116 141.224 176.847 146.089 169.414 146.196C167.848 146.196 173.52 142.917 173.52 142.917C173.52 142.917 166.612 147.675 155.453 144.046C154.665 143.783 157.263 130.658 166.787 127.74C176.312 124.821 184.816 129.51 189.612 135.902C189.612 135.902 195.79 139.794 195.703 146.137C195.615 152.481 190.176 159.34 188.338 159.116Z" fill="#263238"/>
<path d="M179.727 155.867C179.561 154.583 179.03 153.375 178.197 152.385C177.364 151.395 176.264 150.665 175.028 150.282C174.716 150.194 174.395 150.126 174.055 150.068C173.871 150.039 173.686 150.019 173.5 150.01H173.043C171.672 150.008 170.334 150.424 169.205 151.203C168.077 151.982 167.213 153.086 166.729 154.368C166.729 154.504 166.631 154.631 166.593 154.767C166.554 154.903 166.485 155.137 166.447 155.322C166.095 156.97 166.373 158.69 167.227 160.143C168.08 161.597 169.447 162.678 171.058 163.173C171.592 163.337 172.145 163.435 172.702 163.465C174.196 163.534 175.671 163.105 176.894 162.246C178.118 161.387 179.022 160.146 179.464 158.717C179.657 158.087 179.756 157.431 179.756 156.771C179.766 156.469 179.756 156.167 179.727 155.867ZM178.637 158.464C178.317 159.509 177.711 160.443 176.886 161.16C176.062 161.877 175.052 162.348 173.973 162.52C172.894 162.692 171.789 162.557 170.782 162.132C169.776 161.706 168.909 161.007 168.281 160.113C167.652 159.219 167.287 158.167 167.227 157.076C167.167 155.985 167.414 154.899 167.941 153.941C168.467 152.984 169.252 152.194 170.206 151.66C171.159 151.127 172.243 150.872 173.335 150.924C173.821 150.946 174.302 151.035 174.765 151.187C176.242 151.64 177.479 152.661 178.205 154.025C178.931 155.389 179.086 156.986 178.637 158.464Z" fill="white"/>
<path d="M163.003 151.518C162.891 151.022 162.721 150.542 162.497 150.087C162.093 149.25 161.467 148.54 160.687 148.035C160.26 147.767 159.783 147.589 159.286 147.509H159.121C158.436 147.443 157.746 147.537 157.105 147.784C156.463 148.03 155.888 148.423 155.424 148.93C155.093 149.253 154.799 149.612 154.548 150C154.459 150.121 154.378 150.248 154.305 150.379C153.793 151.284 153.444 152.272 153.273 153.298C153.06 154.536 153.127 155.806 153.468 157.015C153.468 157.151 153.546 157.277 153.585 157.413C153.677 157.667 153.788 157.915 153.915 158.153C154.022 158.377 154.142 158.595 154.275 158.805C154.589 159.308 155.003 159.74 155.492 160.075C155.981 160.41 156.534 160.64 157.116 160.751C157.261 160.777 157.407 160.793 157.554 160.799C158.211 160.811 158.862 160.68 159.463 160.417C160.064 160.153 160.601 159.762 161.037 159.272C161.608 158.691 162.076 158.016 162.419 157.277C162.769 156.54 163.015 155.757 163.148 154.952C163.148 154.796 163.148 154.641 163.148 154.504C163.148 154.368 163.148 154.3 163.148 154.203C163.148 153.95 163.148 153.707 163.148 153.463C163.18 152.811 163.131 152.158 163.003 151.518ZM162.234 154.816C162.216 154.964 162.187 155.11 162.146 155.254C162.153 155.289 162.153 155.325 162.146 155.361C162.057 155.752 161.937 156.136 161.786 156.509C161.709 156.693 161.631 156.869 161.543 157.034C160.57 158.98 158.907 160.147 157.243 159.875C156.532 159.711 155.881 159.351 155.365 158.834C154.849 158.318 154.488 157.667 154.324 156.956C153.984 155.834 153.911 154.648 154.11 153.493C154.264 152.588 154.57 151.716 155.015 150.914C155.292 150.425 155.636 149.976 156.036 149.581C156.387 149.201 156.812 148.897 157.286 148.689C157.76 148.481 158.272 148.374 158.79 148.375H159.121C159.684 148.495 160.211 148.748 160.656 149.114C161.101 149.48 161.452 149.947 161.679 150.477C162.17 151.514 162.391 152.658 162.321 153.804C162.339 154.142 162.325 154.48 162.283 154.816H162.234Z" fill="white"/>
<path d="M166.719 155.546L167.4 154.962C166.534 153.989 164.394 152.423 162.536 153.892L163.08 154.602C164.744 153.298 166.632 155.468 166.719 155.546Z" fill="white"/>
<path d="M196.004 162.181L196.86 161.908C196.734 161.51 195.547 158.017 193.62 157.336C191.694 156.655 179.737 155.867 179.221 155.837L179.163 156.732C182.626 156.976 191.937 157.705 193.329 158.192C194.72 158.678 195.693 161.218 196.004 162.181Z" fill="white"/>
<path d="M185.507 160.109C185.507 160.109 190.527 153.96 193.358 155.799C196.189 157.637 192.064 166.793 188.493 167.824C188.046 167.985 187.571 168.055 187.096 168.028C186.621 168.002 186.157 167.88 185.73 167.671C185.303 167.461 184.923 167.167 184.612 166.808C184.301 166.448 184.066 166.029 183.921 165.576L185.507 160.109Z" fill="#D3766A"/>
<path d="M192.112 158.386C192.161 158.386 192.171 158.464 192.112 158.484C189.612 159.282 188.162 161.403 187.102 163.699C187.261 163.471 187.467 163.279 187.707 163.138C187.946 162.996 188.213 162.908 188.49 162.878C188.767 162.849 189.046 162.879 189.31 162.967C189.574 163.055 189.816 163.198 190.02 163.387C190.079 163.436 190.02 163.533 189.952 163.514C189.535 163.348 189.078 163.314 188.641 163.416C188.204 163.519 187.809 163.753 187.51 164.088C187.018 164.657 186.587 165.276 186.226 165.936C186.1 166.141 185.71 165.995 185.817 165.751C185.813 165.732 185.813 165.712 185.817 165.693C186.041 162.599 188.765 158.464 192.112 158.386Z" fill="#263238"/>
<path d="M144.53 214.337L140.442 272.742L185.313 275.883L189.401 217.478L144.53 214.337Z" fill="#37474F"/>
<path d="M154.988 218.919L176.207 220.366L176.645 213.94L155.426 212.494L154.988 218.919Z" fill="#A6A6A6"/>
<path d="M160.24 212.831L162.857 213.006L163.051 210.048L169.405 210.476L169.2 213.444L171.817 213.619L172.187 208.219L160.571 207.431L160.24 212.831Z" fill="#A6A6A6"/>
<path d="M230.572 279.281H184.845C181.926 278.61 179.085 277.9 176.565 277.219C174.901 276.771 173.364 276.333 171.973 275.915L170.153 275.331C169.989 275.277 169.846 275.171 169.745 275.03C167.964 272.772 171.749 259.774 175.68 251.611C177.625 247.671 179.523 244.859 180.875 244.937C180.956 244.927 181.038 244.927 181.118 244.937C181.809 245.171 182.665 245.433 183.619 245.696L186.391 246.455C190.487 247.535 195.284 248.663 197.911 249.247C199.001 249.481 199.701 249.627 199.857 249.627C200.012 249.627 199.983 249.344 199.925 248.79C199.827 247.759 199.448 245.803 198.893 243.215C198.898 243.186 198.898 243.157 198.893 243.128C196.529 232.163 190.964 210.194 188.931 200.144C186.927 190.288 188.376 187.321 191.383 188.177C194.175 188.975 198.31 193.09 202.25 198.004C210.423 208.19 217.661 222.151 222.905 235.821C222.973 236.025 223.061 236.239 223.139 236.444C223.304 236.872 223.469 237.319 223.625 237.747C230.056 255.221 233.14 271.877 230.572 279.281Z" fill="#D3766A"/>
<path d="M140.363 234.352C138.271 237.076 140.304 239.985 140.304 239.985C138.705 240.589 137.367 241.731 136.52 243.215C135.148 245.9 138.757 249.228 138.757 249.228C137.228 250.198 136.025 251.604 135.303 253.265C134.253 255.97 137.424 259.842 137.424 259.842C136.511 261.51 136.227 263.451 136.627 265.31C137.891 270.233 145.286 272.588 149.975 274.125C154.665 275.662 169.433 275.643 172.216 275.925L182.364 245.92C182.364 245.92 163.304 233.029 157.535 231.997C152.67 231.141 142.717 231.316 140.363 234.352Z" fill="#D3766A"/>
<path d="M140.674 239.586C146.064 239.265 151.259 240.559 156.513 241.532C156.532 241.538 156.549 241.551 156.561 241.567C156.573 241.584 156.58 241.604 156.58 241.624C156.58 241.645 156.573 241.665 156.561 241.681C156.549 241.698 156.532 241.71 156.513 241.717C151.298 240.666 145.947 240.666 140.703 239.82C140.678 239.813 140.656 239.8 140.64 239.781C140.623 239.762 140.612 239.738 140.609 239.713C140.606 239.688 140.61 239.662 140.622 239.639C140.634 239.617 140.652 239.598 140.674 239.586Z" fill="#263238"/>
<path d="M138.991 248.877C140.222 248.922 141.443 249.128 142.62 249.49C143.885 249.802 145.15 250.133 146.405 250.463C148.925 251.164 151.425 251.913 153.896 252.75C154.013 252.75 153.984 252.954 153.896 252.925C151.386 252.234 148.866 251.582 146.327 250.979C145.062 250.687 143.788 250.405 142.513 250.133C141.294 249.942 140.099 249.616 138.952 249.16C138.934 249.14 138.92 249.116 138.912 249.09C138.904 249.064 138.902 249.036 138.905 249.009C138.909 248.982 138.919 248.957 138.933 248.934C138.948 248.911 138.968 248.892 138.991 248.877Z" fill="#263238"/>
<path d="M137.532 259.881C138.642 259.941 139.734 260.187 140.762 260.611C141.91 260.952 143.048 261.292 144.187 261.584C146.483 262.246 148.769 262.897 151.075 263.53C151.098 263.53 151.12 263.539 151.137 263.555C151.153 263.572 151.162 263.594 151.162 263.617C151.162 263.641 151.153 263.663 151.137 263.679C151.12 263.696 151.098 263.705 151.075 263.705C148.73 263.131 146.376 262.596 144.031 261.993C142.873 261.701 141.725 261.409 140.577 261.097C139.505 260.923 138.474 260.558 137.532 260.018C137.514 260.018 137.496 260.01 137.484 259.998C137.471 259.985 137.464 259.968 137.464 259.949C137.464 259.931 137.471 259.914 137.484 259.901C137.496 259.889 137.514 259.881 137.532 259.881Z" fill="#263238"/>
<path d="M231.934 279.281H179.26C177.752 278.921 176.799 278.668 176.439 278.571L176.273 278.523L176.575 277.219L176.945 275.536L182.364 251.378L183.629 245.735L183.687 245.492V245.424L186.421 246.085C190.653 247.058 198.349 248.839 198.699 248.576C198.765 248.516 198.812 248.438 198.835 248.352C198.84 248.317 198.84 248.281 198.835 248.245C199.361 245.745 195.138 230.353 191.684 216.139C190.04 209.406 188.571 202.927 187.861 198.237C186.742 190.863 187.773 187.399 190.264 187.253C192.901 187.088 197.181 190.687 202.289 197.352C210.986 209.081 218.095 221.908 223.431 235.5C223.509 235.714 223.596 235.928 223.684 236.142C223.83 236.531 223.985 236.901 224.122 237.29C228.159 247.944 231.185 259.483 231.905 270.973C232.177 274.135 232.469 276.976 231.934 279.281Z" fill="#4668D6"/>
<path d="M183.775 278.873C187.588 265.855 189.612 251.631 190.167 249.131C190.16 249.111 190.148 249.094 190.131 249.082C190.115 249.07 190.095 249.064 190.074 249.064C190.054 249.064 190.034 249.07 190.017 249.082C190.001 249.094 189.988 249.111 189.982 249.131C189.583 251.573 185.487 267.616 183.57 278.863C183.541 278.98 183.736 279 183.775 278.873Z" fill="#263238"/>
<path d="M214.596 252.536C213.33 252.053 212.029 251.666 210.705 251.378C209.479 251.057 208.253 250.707 207.027 250.405L205.441 249.987H205.597L207.786 249.86C208.516 249.812 209.245 249.705 209.975 249.714C210.092 249.714 210.101 249.52 209.975 249.53C209.245 249.53 208.525 249.53 207.796 249.481C207.066 249.432 206.288 249.481 205.529 249.481C204.77 249.481 204.206 249.481 203.583 249.481C202.396 249.179 201.209 248.887 200.022 248.615C199.691 246.202 199.049 243.75 198.524 241.396C197.998 239.042 197.385 236.424 196.753 233.943C196.121 231.462 195.479 229.079 194.759 226.695C194.399 225.489 192.56 218.134 191.918 216.197C191.918 216.081 191.723 216.12 191.752 216.266C192.054 218.211 193.932 225.742 194.194 226.968C194.389 227.853 194.583 228.738 194.788 229.633L194.69 229.487L193.406 227.435C192.521 226.053 191.706 224.627 190.964 223.163C190.906 223.037 190.711 223.164 190.77 223.261C191.441 224.788 192.083 226.325 192.813 227.824C193.182 228.573 193.562 229.312 193.97 230.032C194.341 230.762 194.788 231.45 195.303 232.085C195.469 232.815 195.624 233.545 195.79 234.274C196.335 236.716 196.889 239.139 197.434 241.6C197.93 243.838 198.329 246.134 198.923 248.352C196.49 247.808 194.058 247.311 191.587 246.805C190.341 246.543 189.086 246.29 187.841 246.047C186.596 245.803 185.078 245.657 183.774 245.307C183.658 245.307 183.599 245.463 183.706 245.482C185.029 245.745 186.343 246.27 187.598 246.611L191.276 247.584C193.873 248.255 196.471 248.936 199.059 249.53C201.647 250.123 204.235 250.668 206.842 251.193L210.734 251.962C211.988 252.271 213.262 252.489 214.548 252.614C214.564 252.609 214.578 252.599 214.587 252.584C214.596 252.57 214.599 252.553 214.596 252.536Z" fill="#263238"/>
<path d="M180.067 279.282H178.452C177.479 278.99 176.818 278.805 176.507 278.717C176.49 278.716 176.475 278.71 176.461 278.701C176.448 278.691 176.438 278.678 176.432 278.662C176.426 278.647 176.424 278.631 176.427 278.615C176.43 278.598 176.437 278.583 176.448 278.571C176.448 278.571 176.448 278.571 176.536 278.571C177.577 278.776 178.764 279.029 180.067 279.282Z" fill="#263238"/>
</svg>
