<svg width="18" height="20" viewBox="0 0 18 20" fill="none" xmlns="http://www.w3.org/2000/svg">
<path d="M7.64027 10.1443V15.0125C7.64027 15.2657 7.74084 15.5085 7.91985 15.6875C8.09886 15.8665 8.34165 15.9671 8.59482 15.9671C8.84798 15.9671 9.09077 15.8665 9.26978 15.6875C9.44879 15.5085 9.54936 15.2657 9.54936 15.0125V10.1443C10.7082 9.90779 11.738 9.24937 12.439 8.29673C13.14 7.34409 13.4623 6.1651 13.3434 4.98834C13.2245 3.81157 12.6729 2.72086 11.7956 1.92767C10.9182 1.13448 9.77757 0.695312 8.59482 0.695312C7.41206 0.695312 6.27144 1.13448 5.39408 1.92767C4.51672 2.72086 3.96513 3.81157 3.84626 4.98834C3.72738 6.1651 4.04968 7.34409 4.75067 8.29673C5.45167 9.24937 6.48141 9.90779 7.64027 10.1443ZM8.59482 2.60343C9.16119 2.60343 9.71484 2.77138 10.1858 3.08604C10.6567 3.4007 11.0237 3.84794 11.2405 4.3712C11.4572 4.89446 11.5139 5.47024 11.4034 6.02573C11.2929 6.58122 11.0202 7.09148 10.6197 7.49196C10.2192 7.89245 9.70897 8.16518 9.15348 8.27568C8.59799 8.38617 8.02221 8.32946 7.49895 8.11272C6.97569 7.89598 6.52845 7.52894 6.21379 7.05802C5.89913 6.58709 5.73118 6.03344 5.73118 5.46707C5.73118 4.70758 6.03288 3.97921 6.56992 3.44217C7.10695 2.90513 7.83533 2.60343 8.59482 2.60343V2.60343ZM12.6135 12.5498C12.4881 12.5235 12.3588 12.5221 12.2329 12.5457C12.107 12.5694 11.987 12.6176 11.8798 12.6876C11.7725 12.7577 11.6801 12.8481 11.6078 12.9539C11.5355 13.0596 11.4848 13.1785 11.4585 13.3039C11.4321 13.4292 11.4308 13.5585 11.4544 13.6844C11.4781 13.8103 11.5263 13.9303 11.5963 14.0376C11.6663 14.1448 11.7568 14.2372 11.8625 14.3095C11.9682 14.3818 12.0872 14.4326 12.2125 14.4589C14.3794 14.8884 15.2766 15.6616 15.2766 15.9671C15.2766 16.5207 12.938 17.8762 8.59482 17.8762C4.25163 17.8762 1.913 16.5207 1.913 15.9671C1.913 15.6616 2.81027 14.8884 4.97709 14.4207C5.10244 14.3944 5.22138 14.3436 5.32712 14.2713C5.43286 14.199 5.52332 14.1066 5.59334 13.9994C5.66337 13.8921 5.71158 13.7721 5.73523 13.6462C5.75888 13.5204 5.7575 13.3911 5.73118 13.2657C5.70485 13.1403 5.6541 13.0214 5.58181 12.9157C5.50952 12.8099 5.41711 12.7195 5.30986 12.6494C5.2026 12.5794 5.08261 12.5312 4.95673 12.5076C4.83084 12.4839 4.70153 12.4853 4.57618 12.5116C1.67436 13.1798 0.00390625 14.4302 0.00390625 15.9671C0.00390625 18.4775 4.328 19.7852 8.59482 19.7852C12.8616 19.7852 17.1857 18.4775 17.1857 15.9671C17.1857 14.4302 15.5153 13.1798 12.6135 12.5498Z" fill="white"/>
</svg>
