<svg width="441" height="449" viewBox="0 0 441 449" fill="none" xmlns="http://www.w3.org/2000/svg">
<path d="M433.878 30.3093C427.107 30.3093 313.014 31.0637 305.848 30.8279C305.329 30.8279 305.056 30.0547 305.565 29.8001C310.091 27.5652 315.212 28.0178 319.908 26.4336C322.68 25.4906 324.368 23.6989 326.292 21.6243C327.879 19.8161 329.93 18.4759 332.223 17.7486C334.324 17.1151 336.555 17.0436 338.692 17.5412C341.002 18.0975 343.011 19.4272 345.227 20.257C350.706 22.3221 356.034 20.3607 359.938 16.3059C363.172 12.9582 366.341 9.80865 370.726 8.00753C372.518 7.19882 374.457 6.76727 376.423 6.73969C378.39 6.71211 380.34 7.0891 382.155 7.84723C386.341 9.73321 389.218 13.5617 393.14 15.8532C397.808 18.5785 403.381 17.9278 408.521 18.7482C413.66 19.5686 417.62 23.9064 422.137 26.4053C423.607 27.347 425.305 27.8717 427.05 27.9235C428.056 27.8368 429.057 27.6983 430.049 27.5086C431.605 27.3106 433.076 27.3577 434.123 28.6496C434.377 28.9891 434.33 30.3093 433.878 30.3093Z" fill="#EBEBEB"/>
<path d="M165.803 126.929C159.023 126.929 44.9308 127.684 37.7641 127.457C37.2549 127.457 36.972 126.684 37.4812 126.43C42.0076 124.195 47.1469 124.61 51.8618 123.054C54.6248 122.111 56.3222 120.319 58.2364 118.244C59.8286 116.438 61.8822 115.098 64.1773 114.369C66.2759 113.738 68.5035 113.67 70.6368 114.171C72.9471 114.718 74.9651 116.057 77.1717 116.877C82.6505 118.952 87.9784 116.981 91.8918 112.926C95.1168 109.588 98.2853 106.429 102.68 104.628C104.47 103.818 106.409 103.387 108.374 103.361C110.339 103.335 112.288 103.715 114.099 104.477C118.286 106.363 121.162 110.135 125.094 112.473C129.753 115.199 135.326 114.557 140.465 115.378C145.605 116.198 149.565 120.536 154.082 123.025C155.554 123.971 157.256 124.499 159.004 124.553C160.004 124.553 160.994 124.251 161.994 124.129C163.55 123.94 165.021 123.978 166.067 125.279C166.294 125.553 166.247 126.929 165.803 126.929Z" fill="#EBEBEB"/>
<path d="M215.328 90.377C210.377 90.377 127.083 90.924 121.849 90.7542C121.472 90.7542 121.264 90.1979 121.642 90.0093C124.942 88.3779 128.686 88.6985 132.118 87.5481C134.136 86.8691 135.372 85.5489 136.767 84.0307C137.932 82.714 139.43 81.7365 141.105 81.2017C142.638 80.7467 144.263 80.6979 145.82 81.0603C147.508 81.4563 148.969 82.4276 150.535 83.0406C154.543 84.5494 158.428 83.116 161.285 80.155C163.642 77.7127 166 75.4401 169.159 74.0916C170.468 73.5024 171.884 73.1884 173.32 73.1689C174.755 73.1495 176.18 73.425 177.504 73.9784C180.56 75.3646 182.653 78.1465 185.529 79.825C188.924 81.8053 192.998 81.3432 196.751 81.9373C200.504 82.5314 203.352 85.7092 206.69 87.5292C207.766 88.2167 209.007 88.6012 210.283 88.6419C211.017 88.5759 211.747 88.472 212.47 88.3308C213.602 88.1893 214.677 88.2176 215.441 89.17C215.686 89.3963 215.648 90.377 215.328 90.377Z" fill="#EBEBEB"/>
<path d="M399.74 77.4586C394.789 77.4586 311.495 78.0055 306.261 77.8358C306.175 77.8328 306.092 77.8025 306.024 77.7492C305.956 77.6959 305.907 77.6223 305.884 77.5393C305.861 77.4563 305.865 77.368 305.895 77.2874C305.926 77.2067 305.981 77.1379 306.053 77.0908C309.354 75.4594 313.098 75.7801 316.53 74.6296C318.548 73.9506 319.783 72.6305 321.188 71.1122C322.349 69.7958 323.845 68.8183 325.517 68.2833C327.05 67.8286 328.674 67.7799 330.232 68.1418C331.92 68.5379 333.391 69.5092 335.003 70.1221C339.002 71.6309 342.887 70.1975 345.744 67.2366C348.101 64.7942 350.459 62.5216 353.618 61.1731C354.927 60.5818 356.343 60.2665 357.779 60.2471C359.215 60.2276 360.639 60.5043 361.963 61.06C365.019 62.4462 367.112 65.228 369.988 66.9065C373.392 68.8868 377.457 68.4247 381.21 69.0188C384.963 69.6129 387.858 72.7908 391.149 74.6107C392.225 75.297 393.466 75.6813 394.742 75.7235C395.477 75.7235 396.203 75.4972 396.93 75.4123C398.061 75.2708 399.146 75.2991 399.909 76.2515C400.098 76.5156 400.06 77.4586 399.74 77.4586Z" fill="#EBEBEB"/>
<path d="M163.068 26.5366C158.117 26.5366 74.8227 27.0835 69.5891 26.9232C69.5009 26.9214 69.4158 26.8909 69.3465 26.8363C69.2773 26.7817 69.2277 26.706 69.2053 26.6208C69.1829 26.5355 69.1889 26.4452 69.2225 26.3637C69.256 26.2821 69.3152 26.2137 69.391 26.1688C72.6915 24.5374 76.4352 24.8675 79.8583 23.7076C81.8763 23.0286 83.121 21.7085 84.5166 20.1997C85.6767 18.8778 87.177 17.8994 88.8544 17.3707C90.3854 16.9064 92.0118 16.8543 93.5693 17.2198C95.2005 17.7774 96.7943 18.4388 98.3409 19.2001C102.339 20.7089 106.234 19.2755 109.091 16.3146C111.439 13.8722 113.806 11.5996 116.965 10.2606C118.274 9.6699 119.689 9.35425 121.125 9.33316C122.56 9.31208 123.985 9.586 125.31 10.138C128.366 11.5242 130.459 14.306 133.326 15.9845C136.73 17.9742 140.794 17.5027 144.557 18.0968C148.319 18.6909 151.158 21.8688 154.496 23.6887C155.571 24.3776 156.813 24.7621 158.089 24.8015C158.833 24.7264 159.572 24.6131 160.305 24.462C160.829 24.3184 161.383 24.3207 161.907 24.4686C162.43 24.6165 162.903 24.9044 163.275 25.3013C163.436 25.5276 163.398 26.5366 163.068 26.5366Z" fill="#EBEBEB"/>
<path d="M52.1422 191.775C51.5952 191.549 51.3595 192.435 51.897 192.652C52.5851 192.931 53.144 193.457 53.4634 194.127C53.7828 194.797 53.8396 195.563 53.6227 196.273C53.603 196.386 53.6262 196.502 53.6876 196.599C53.7489 196.696 53.8442 196.767 53.9547 196.797C54.0653 196.828 54.1833 196.816 54.2858 196.765C54.3882 196.713 54.4678 196.625 54.5091 196.518C54.7816 195.575 54.6895 194.563 54.251 193.685C53.8126 192.806 53.0598 192.124 52.1422 191.775Z" fill="#EBEBEB"/>
<path d="M56.1402 190.921C55.5673 192.187 55.3835 193.595 55.6121 194.966C55.7064 195.551 56.5551 195.296 56.4891 194.721C56.3091 193.589 56.4631 192.429 56.9323 191.383C57.1681 190.855 56.376 190.383 56.1402 190.921Z" fill="#EBEBEB"/>
<path d="M346.407 201.568C345.86 201.342 345.624 202.219 346.162 202.445C346.843 202.724 347.398 203.245 347.716 203.909C348.035 204.573 348.096 205.332 347.887 206.038C347.868 206.151 347.891 206.267 347.952 206.364C348.013 206.461 348.109 206.532 348.219 206.562C348.33 206.593 348.448 206.581 348.55 206.53C348.653 206.478 348.732 206.39 348.774 206.283C349.038 205.344 348.942 204.339 348.504 203.467C348.066 202.595 347.318 201.917 346.407 201.568Z" fill="#EBEBEB"/>
<path d="M350.403 200.708C349.819 201.974 349.625 203.386 349.847 204.763C349.932 205.338 350.79 205.093 350.724 204.517C350.543 203.385 350.697 202.225 351.167 201.179C351.431 200.632 350.639 200.17 350.403 200.708Z" fill="#EBEBEB"/>
<path d="M43.93 390.011C43.3831 389.794 43.1473 390.671 43.6848 390.897C44.3671 391.176 44.922 391.697 45.2424 392.36C45.5629 393.024 45.6261 393.783 45.4199 394.49C45.3887 394.606 45.4049 394.73 45.465 394.835C45.5251 394.939 45.6243 395.015 45.7405 395.046C45.8568 395.078 45.9808 395.061 46.0851 395.001C46.1895 394.941 46.2656 394.842 46.2969 394.726C46.5637 393.786 46.4686 392.781 46.0304 391.908C45.5922 391.035 44.8428 390.358 43.93 390.011Z" fill="#EBEBEB"/>
<path d="M47.9291 389.165C47.3601 390.432 47.1764 391.839 47.401 393.21C47.4953 393.785 48.344 393.54 48.2874 392.965C48.1082 391.833 48.2588 390.675 48.7212 389.627C48.957 389.089 48.1743 388.646 47.9291 389.165Z" fill="#EBEBEB"/>
<path d="M112.92 211.362C112.373 211.145 112.138 212.022 112.675 212.249C113.357 212.527 113.912 213.048 114.233 213.712C114.553 214.375 114.616 215.134 114.41 215.842C114.379 215.958 114.395 216.082 114.455 216.186C114.515 216.29 114.614 216.367 114.731 216.398C114.847 216.429 114.971 216.413 115.075 216.353C115.18 216.293 115.256 216.194 115.287 216.077C115.554 215.138 115.459 214.132 115.021 213.259C114.582 212.387 113.833 211.71 112.92 211.362Z" fill="#EBEBEB"/>
<path d="M116.929 210.544C116.36 211.811 116.177 213.218 116.401 214.589C116.496 215.165 117.344 214.919 117.288 214.344C117.108 213.213 117.259 212.054 117.721 211.006C117.948 210.469 117.165 210.006 116.929 210.544Z" fill="#EBEBEB"/>
<path d="M232.737 191.334C232.218 191.06 231.794 191.853 232.275 192.126C232.773 192.386 233.183 192.788 233.452 193.282C233.721 193.776 233.836 194.339 233.784 194.898C233.784 195.483 234.651 195.483 234.727 194.898C234.782 194.175 234.622 193.451 234.268 192.817C233.915 192.183 233.382 191.667 232.737 191.334Z" fill="#EBEBEB"/>
<path d="M235.465 189.911C235.182 189.392 234.39 189.854 234.673 190.373C235.32 191.568 235.62 192.92 235.541 194.277C235.541 194.871 236.418 194.871 236.484 194.277C236.552 192.756 236.199 191.245 235.465 189.911Z" fill="#EBEBEB"/>
<path d="M237.634 190.513C237.133 191.4 236.928 192.424 237.049 193.436C237.115 194.012 237.992 194.021 237.992 193.436C237.875 192.589 238.034 191.726 238.445 190.975C238.506 190.868 238.522 190.74 238.49 190.621C238.457 190.501 238.378 190.4 238.271 190.339C238.163 190.277 238.036 190.261 237.916 190.294C237.797 190.327 237.695 190.405 237.634 190.513Z" fill="#EBEBEB"/>
<path d="M395.11 412.166C394.592 411.892 394.167 412.685 394.648 412.958C395.147 413.216 395.557 413.616 395.828 414.108C396.098 414.6 396.216 415.162 396.166 415.721C396.119 416.315 397.034 416.306 397.109 415.721C397.159 414.998 396.996 414.276 396.641 413.645C396.286 413.013 395.754 412.499 395.11 412.166Z" fill="#EBEBEB"/>
<path d="M397.789 410.731C397.506 410.212 396.724 410.674 396.997 411.193C397.643 412.392 397.944 413.747 397.865 415.107C397.865 415.691 398.742 415.691 398.808 415.107C398.876 413.582 398.524 412.069 397.789 410.731Z" fill="#EBEBEB"/>
<path d="M399.909 411.342C399.405 412.225 399.2 413.247 399.325 414.256C399.4 414.841 400.268 414.841 400.268 414.256C400.155 413.412 400.313 412.553 400.72 411.804C400.984 411.276 400.192 410.824 399.909 411.342Z" fill="#EBEBEB"/>
<path d="M422.458 230.221C421.939 229.948 421.515 230.73 421.996 231.013C422.493 231.273 422.901 231.674 423.17 232.165C423.439 232.657 423.555 233.218 423.505 233.776C423.457 234.361 424.372 234.361 424.448 233.776C424.501 233.054 424.34 232.332 423.987 231.7C423.633 231.068 423.101 230.554 422.458 230.221Z" fill="#EBEBEB"/>
<path d="M425.133 228.743C424.85 228.224 424.058 228.686 424.341 229.205C424.983 230.405 425.284 231.759 425.209 233.118C425.209 233.703 426.086 233.703 426.152 233.118C426.22 231.594 425.868 230.08 425.133 228.743Z" fill="#EBEBEB"/>
<path d="M427.257 229.356C426.753 230.239 426.548 231.261 426.672 232.27C426.738 232.845 427.615 232.854 427.615 232.27C427.498 231.425 427.656 230.565 428.068 229.818C428.332 229.28 427.54 228.837 427.257 229.356Z" fill="#EBEBEB"/>
<path d="M283.632 313.037C283.736 312.993 283.852 312.988 283.959 313.023C284.066 313.059 284.156 313.132 284.213 313.229C284.27 313.327 284.289 313.441 284.267 313.552C284.245 313.662 284.184 313.761 284.094 313.829C283.497 314.174 283.008 314.68 282.684 315.288C282.359 315.896 282.21 316.583 282.255 317.271C282.255 317.865 281.369 317.856 281.312 317.271C281.27 316.42 281.464 315.574 281.874 314.826C282.283 314.079 282.892 313.46 283.632 313.037Z" fill="#EBEBEB"/>
<path d="M280.282 315.223L280.593 317.062C280.696 317.637 279.81 317.892 279.716 317.307C279.621 316.722 279.499 316.081 279.395 315.421C279.291 314.761 280.178 314.648 280.282 315.223Z" fill="#EBEBEB"/>
<path d="M71.0336 282.881C70.93 282.837 70.8139 282.832 70.7069 282.867C70.6 282.902 70.5096 282.976 70.4528 283.073C70.3961 283.17 70.3768 283.285 70.3987 283.396C70.4205 283.506 70.482 283.605 70.5715 283.673C71.1781 284.011 71.6769 284.513 72.0106 285.122C72.3442 285.731 72.4991 286.422 72.4575 287.115C72.4575 287.7 73.3439 287.7 73.4005 287.115C73.4383 286.259 73.2369 285.409 72.8188 284.662C72.4007 283.914 71.7825 283.297 71.0336 282.881Z" fill="#EBEBEB"/>
<path d="M74.3795 285.069L74.0684 286.908C73.9646 287.483 74.851 287.729 74.9453 287.153C75.0396 286.578 75.1528 285.928 75.266 285.315C75.3791 284.702 74.4927 284.485 74.3795 285.069Z" fill="#EBEBEB"/>
<path d="M104.668 233.676C104.225 233.309 103.574 233.95 104.027 234.327C104.557 234.753 104.976 235.3 105.25 235.922C105.524 236.544 105.645 237.223 105.602 237.901C105.602 238.495 106.488 238.495 106.545 237.901C106.586 237.099 106.437 236.298 106.111 235.564C105.785 234.83 105.291 234.184 104.668 233.676Z" fill="#EBEBEB"/>
<path d="M209.68 324.919C209.227 324.551 208.576 325.192 209.029 325.569C209.562 325.995 209.984 326.543 210.259 327.167C210.535 327.791 210.657 328.472 210.613 329.153C210.613 329.737 211.5 329.737 211.556 329.153C211.597 328.349 211.448 327.548 211.122 326.812C210.796 326.077 210.302 325.428 209.68 324.919Z" fill="#EBEBEB"/>
<path d="M347.745 255.77C348.198 255.393 348.848 256.044 348.396 256.411C347.864 256.838 347.442 257.386 347.166 258.01C346.891 258.633 346.769 259.314 346.812 259.995C346.812 260.589 345.925 260.579 345.869 259.995C345.825 259.192 345.973 258.391 346.299 257.657C346.625 256.922 347.121 256.276 347.745 255.77Z" fill="#EBEBEB"/>
<path d="M334.439 390.231C334.882 389.854 335.533 390.504 335.08 390.872C334.551 391.301 334.132 391.85 333.858 392.473C333.584 393.096 333.463 393.776 333.505 394.456C333.505 395.05 332.619 395.04 332.562 394.456C332.519 393.653 332.666 392.852 332.993 392.118C333.319 391.383 333.815 390.737 334.439 390.231Z" fill="#EBEBEB"/>
<path d="M83.3767 351.047C83.8293 350.67 84.48 351.321 84.0273 351.698C83.4949 352.122 83.0728 352.668 82.797 353.291C82.5211 353.913 82.3997 354.593 82.4431 355.272C82.4431 355.866 81.5567 355.857 81.5001 355.272C81.459 354.47 81.6075 353.669 81.9335 352.935C82.2595 352.201 82.7539 351.555 83.3767 351.047Z" fill="#EBEBEB"/>
<path d="M313.874 239.651C313.255 240.277 312.798 241.045 312.545 241.889C312.292 242.732 312.25 243.625 312.422 244.488C312.525 245.063 313.365 244.818 313.299 244.243C313.168 243.537 313.211 242.809 313.423 242.123C313.634 241.436 314.009 240.811 314.515 240.301C314.958 239.905 314.279 239.255 313.874 239.651Z" fill="#EBEBEB"/>
<path d="M310.534 240.182V243.247C310.534 243.372 310.584 243.492 310.673 243.581C310.761 243.669 310.881 243.719 311.006 243.719C311.131 243.719 311.251 243.669 311.339 243.581C311.428 243.492 311.477 243.372 311.477 243.247V240.182C311.477 240.057 311.428 239.937 311.339 239.849C311.251 239.761 311.131 239.711 311.006 239.711C310.881 239.711 310.761 239.761 310.673 239.849C310.584 239.937 310.534 240.057 310.534 240.182Z" fill="#EBEBEB"/>
<path d="M315.429 241.141C315.015 241.408 314.679 241.778 314.452 242.215C314.226 242.651 314.117 243.139 314.137 243.631C314.137 244.216 315.08 244.225 315.08 243.631C315.057 243.299 315.123 242.967 315.271 242.669C315.418 242.371 315.642 242.117 315.919 241.933C316.381 241.613 315.9 240.821 315.429 241.141Z" fill="#EBEBEB"/>
<path d="M242.764 302.834C242.148 303.463 241.694 304.231 241.441 305.074C241.188 305.917 241.143 306.808 241.311 307.672C241.415 308.247 242.254 308.002 242.188 307.427C242.06 306.719 242.104 305.992 242.318 305.305C242.531 304.619 242.907 303.995 243.414 303.485C243.82 303.089 243.178 302.438 242.764 302.834Z" fill="#EBEBEB"/>
<path d="M239.431 303.362V306.427C239.431 306.552 239.481 306.672 239.569 306.76C239.658 306.849 239.778 306.898 239.903 306.898C240.028 306.898 240.148 306.849 240.236 306.76C240.324 306.672 240.374 306.552 240.374 306.427V303.362C240.374 303.237 240.324 303.117 240.236 303.029C240.148 302.94 240.028 302.891 239.903 302.891C239.778 302.891 239.658 302.94 239.569 303.029C239.481 303.117 239.431 303.237 239.431 303.362Z" fill="#EBEBEB"/>
<path d="M244.319 304.333C243.907 304.599 243.571 304.967 243.345 305.402C243.119 305.837 243.009 306.323 243.027 306.813C243.027 307.398 243.97 307.407 243.97 306.813C243.948 306.481 244.014 306.149 244.161 305.851C244.308 305.553 244.532 305.299 244.809 305.115C245.271 304.795 244.819 304.003 244.319 304.333Z" fill="#EBEBEB"/>
<path d="M441 311.875C441 335.29 404.959 352.707 355.772 371.133C243 413.37 278.447 441.989 287.528 448.053H0.000732422C44.5382 397.131 133.283 368.445 192.475 353.499C260.257 336.384 323.692 319.372 323.692 310.706C323.692 299.833 281.059 292.667 226.366 284.095C172.955 275.731 147.758 263.547 147.758 250.308C147.758 237.341 192.748 227.949 228.921 223.781C262.18 219.953 371.982 213.012 371.982 206.723C371.982 201.611 313.404 195.293 296.119 193.436C272.968 190.937 259.408 187.844 259.408 182.61C259.408 181.564 260.257 180.602 261.671 179.781H266.386C266.386 179.781 264.821 181.017 264.821 182.167C264.821 185.826 291.668 187.825 300.598 188.428C327.351 190.314 408.778 198.452 408.778 209.485C408.778 215.756 393.134 220.386 376.49 223.395C346.965 228.722 267.65 235.437 251.77 237.539C234.287 239.878 209.712 243.961 209.712 248.403C209.712 252.552 232.391 256.135 257.324 258.926C299.702 263.67 441 275.627 441 311.875Z" fill="#EBEBEB"/>
<path d="M36.1837 179.357C164.034 178.782 307.463 178.782 435.314 179.357C307.463 179.942 164.034 179.942 36.1837 179.357Z" fill="#263238"/>
<path d="M430.827 179.356C430.827 179.356 386.95 135.507 378.02 131.575C371.202 128.576 352.04 103.558 338.15 86.0847C336.471 83.9724 330.069 85.7075 328.531 83.746C323.336 77.1451 319.102 71.6097 316.952 68.7808C312.519 62.9908 286.974 65.6595 282.796 68.7808C280.656 70.3744 265.493 93.9681 255.846 105.152C252.743 108.745 232.384 111.046 224.02 112.884C215.948 114.667 194.259 148.605 187.988 151.066C153.305 164.692 144.733 176.876 137.84 179.356H430.827Z" fill="#F5A77B"/>
<path opacity="0.4" d="M430.827 179.356C430.827 179.356 386.95 135.507 378.02 131.575C371.202 128.576 352.04 103.558 338.15 86.0847C336.471 83.9724 330.069 85.7075 328.531 83.746C323.336 77.1451 319.102 71.6097 316.952 68.7808C312.519 62.9908 286.974 65.6595 282.796 68.7808C280.656 70.3744 265.493 93.9681 255.846 105.152C252.743 108.745 232.384 111.046 224.02 112.884C215.948 114.667 194.259 148.605 187.988 151.066C153.305 164.692 144.733 176.876 137.84 179.356H430.827Z" fill="black"/>
<path opacity="0.1" d="M430.81 179.347H256.271C266.814 173.529 289.276 160.94 291.247 158.234C293.831 154.697 297.178 129.086 298.131 125.691C299.083 122.296 316.991 102.003 317.707 98.3443C318.424 94.6855 315.491 68.0743 315.435 67.5273C315.503 67.5559 315.566 67.594 315.623 67.6405C315.701 67.6787 315.774 67.7262 315.84 67.7819L316.048 67.9328L316.227 68.0743C316.297 68.129 316.363 68.1889 316.425 68.2534L316.5 68.3195C316.555 68.3682 316.606 68.4219 316.651 68.4798C316.688 68.5119 316.723 68.5466 316.755 68.5835L316.896 68.7627L317.217 69.1776L317.566 69.6302L317.934 70.1111L318.33 70.6298C320.687 73.6945 324.252 78.3434 328.476 83.7279C328.529 83.8027 328.593 83.8695 328.665 83.926C328.726 83.985 328.792 84.0386 328.863 84.0863C328.952 84.1504 329.047 84.2072 329.146 84.256L329.382 84.3503C329.382 84.3503 329.957 97.1844 329.834 98.3254C329.712 99.4664 324.553 107.614 324.242 109.377C323.931 111.141 324.704 117.958 324.242 119.42C323.959 120.259 318.801 129.18 317.453 131.368C317.076 131.952 321.159 131.566 321.272 131.566C321.781 131.566 326.6 123.635 327.524 123.079C328.448 122.523 329.221 111.857 329.872 111.046C330.523 110.235 336.793 101.418 337.614 100.447C338.434 99.4759 338.133 86.0854 338.133 86.0854C340.735 89.3576 343.526 92.8938 346.384 96.5149L348.543 99.2307L349.26 100.174C349.92 101.013 350.58 101.843 351.25 102.673C352.193 103.804 353.06 104.936 353.965 106.049L355.323 107.727C355.766 108.283 356.219 108.83 356.662 109.377L357.992 111.009C359.765 113.168 361.509 115.243 363.178 117.204L364.433 118.647C367.601 122.315 370.524 125.474 372.976 127.794C373.382 128.171 373.768 128.529 374.145 128.859L374.9 129.51L375.343 129.868C375.777 130.217 376.192 130.529 376.578 130.811C376.578 130.811 361.189 140.307 358.916 143.004C356.643 145.701 351.118 162.807 349.335 164.693C347.553 166.579 335.709 174.51 336.218 175.151C336.727 175.792 358.548 171.964 361.009 168.276C363.471 164.589 368.761 150.605 371.203 148.709C373.089 147.257 381.953 140.92 386.772 137.922C407.376 155.48 429.933 178.715 430.81 179.347Z" fill="black"/>
<path opacity="0.1" d="M264.376 136.354C263.697 136.778 251.175 133.959 250.448 133.77C249.722 133.582 245.63 125.048 244.838 125.198C244.046 125.349 233.71 122.841 232.315 121.747C230.919 120.653 227.317 112.393 227.317 112.393L230.721 111.629C238.454 110.318 248.496 108.743 253.353 106.688C253.617 108.47 254.871 117.164 254.635 118.531C254.371 120.05 252.325 123.576 252.938 124.699C253.551 125.821 265.055 135.92 264.376 136.354Z" fill="black"/>
<path d="M265.991 179.345C265.991 179.345 204.225 166.558 196.389 164.889C191.41 163.823 168.363 146.34 152.634 136.288C151.417 135.514 145.354 136.203 144.618 135.901C138.281 133.317 133.425 128.734 129.531 128.734C125.287 128.734 92.7539 157.533 89.378 159.947C86.0021 162.361 67.6892 171.112 62.0312 171.999C56.3733 172.885 40.7102 179.345 40.7102 179.345H265.991Z" fill="#F5A77B"/>
<path opacity="0.2" d="M265.991 179.345C265.991 179.345 204.225 166.558 196.389 164.889C191.41 163.823 168.363 146.34 152.634 136.288C151.417 135.514 145.354 136.203 144.618 135.901C138.281 133.317 133.425 128.734 129.531 128.734C125.287 128.734 92.7539 157.533 89.378 159.947C86.0021 162.361 67.6892 171.112 62.0312 171.999C56.3733 172.885 40.7102 179.345 40.7102 179.345H265.991Z" fill="black"/>
<path opacity="0.1" d="M134.463 160.836C133.68 160.431 133.426 155.716 133.18 154.867C132.935 154.019 121.864 146.55 121.761 145.437C121.657 144.325 129.531 128.699 129.531 128.699C125.288 128.699 92.7543 157.498 89.3784 159.912C89.1615 160.063 88.8975 160.242 88.5769 160.44L88.0488 160.751C87.3981 161.138 86.606 161.572 85.6913 162.053L84.8898 162.477L83.5885 163.147L82.6455 163.609L81.2027 164.316L80.1937 164.806C79.1753 165.287 78.1285 165.749 77.0535 166.268C73.1401 168.069 69.0475 169.795 65.8791 170.889L65.0398 171.162C64.7758 171.256 64.5117 171.332 64.2571 171.407C64.0025 171.483 63.5122 171.624 63.1727 171.709L62.5409 171.86L61.9751 171.964C61.6168 172.02 61.2301 172.096 60.7964 172.19L60.1363 172.35L59.429 172.539L58.6746 172.746L57.892 172.973L56.2512 173.482L54.516 174.057L53.177 174.519L52.7338 174.679L51.838 175L51.3947 175.16L50.4518 175.481C45.2842 177.367 40.6069 179.31 40.6069 179.31H176.049C162.422 173.378 135.038 161.129 134.463 160.836ZM103.504 159.412C103.061 159.328 100.11 156.791 99.7325 156.706C99.3553 156.621 98.4311 154.622 98.6574 154.528C98.8838 154.433 100.242 154.028 100.459 154C100.675 153.971 101.873 155.216 102.09 155.216C103.664 155.188 105.238 155.251 106.805 155.405C107.201 155.593 110.332 159.101 110.209 159.412C110.086 159.724 103.938 159.497 103.504 159.412Z" fill="black"/>
<path d="M311.675 27.112C311.109 21.3786 307.158 15.6641 300.199 15.6641C293.24 15.6641 289.307 21.3786 288.732 27.112C287.855 35.9761 293.834 43.9915 300.199 51.3185C306.583 43.9915 312.562 35.9667 311.675 27.112ZM300.199 33.4866C298.954 33.4903 297.736 33.1246 296.699 32.4358C295.663 31.7469 294.853 30.7659 294.375 29.6169C293.896 28.468 293.768 27.2027 294.009 25.9814C294.249 24.76 294.847 23.6376 295.726 22.756C296.605 21.8745 297.725 21.2736 298.946 21.0294C300.167 20.7851 301.432 20.9086 302.583 21.3841C303.733 21.8596 304.717 22.6657 305.408 23.7005C306.1 24.7352 306.47 25.952 306.47 27.1968C306.471 28.0216 306.31 28.8385 305.995 29.6009C305.681 30.3634 305.219 31.0564 304.637 31.6405C304.055 32.2245 303.363 32.6882 302.602 33.0049C301.84 33.3217 301.024 33.4853 300.199 33.4866Z" fill="#974BAD"/>
<path d="M300.207 23.3789L301.602 25.3686L303.931 26.0853L302.47 28.0373L302.508 30.4702L300.207 29.6875L297.906 30.4702L297.934 28.0373L296.482 26.0853L298.802 25.3686L300.207 23.3789Z" fill="#FFC727"/>
<path d="M400.771 274.747C400.771 274.747 400.479 274.361 399.913 273.644L400.281 273.352C400.865 274.078 401.148 274.474 401.148 274.474L400.771 274.747Z" fill="#263238"/>
<path d="M398.073 271.449C397.535 270.808 396.904 270.092 396.187 269.299L396.536 268.988C397.243 269.78 397.875 270.507 398.422 271.148L398.073 271.449ZM394.301 267.187L392.283 265.113L392.622 264.783C393.32 265.509 393.98 266.197 394.593 266.857L394.301 267.187ZM390.34 263.095C389.69 262.453 389.011 261.784 388.303 261.105L388.624 260.765C389.341 261.444 390.02 262.114 390.67 262.755L390.34 263.095ZM386.229 259.143C385.55 258.521 384.852 257.88 384.126 257.257L384.437 256.909C385.163 257.559 385.871 258.2 386.549 258.795L386.229 259.143ZM381.985 255.372C381.288 254.768 380.561 254.146 379.817 253.486L380.118 253.127C380.863 253.75 381.589 254.372 382.297 255.013L381.985 255.372ZM377.619 251.713C376.893 251.128 376.158 250.534 375.394 249.94L375.686 249.572C376.45 250.166 377.186 250.76 377.921 251.345L377.619 251.713ZM373.121 248.139C372.376 247.573 371.613 246.998 370.839 246.432L371.113 246.055C371.895 246.621 372.659 247.196 373.404 247.762L373.121 248.139ZM368.529 244.763C367.756 244.225 366.982 243.678 366.19 243.141L366.454 242.754C367.246 243.292 368.029 243.839 368.793 244.386L368.529 244.763ZM363.814 241.547C363.031 241.029 362.239 240.51 361.428 240.001L361.683 239.595C362.494 240.114 363.295 240.633 364.078 241.151L363.814 241.547ZM359.014 238.483C358.213 237.992 357.402 237.492 356.581 237.011L356.826 236.606L359.269 238.086L359.014 238.483ZM354.12 235.569L351.64 234.183L351.866 233.768C352.706 234.23 353.535 234.711 354.356 235.163L354.12 235.569ZM349.132 232.825C348.302 232.381 347.463 231.948 346.614 231.514L346.821 231.09C347.679 231.523 348.519 231.966 349.358 232.41L349.132 232.825ZM344.068 230.241C343.219 229.826 342.361 229.411 341.493 229.005L341.701 228.581C342.568 228.987 343.427 229.402 344.275 229.816L344.068 230.241ZM338.91 227.817C338.051 227.431 337.184 227.044 336.307 226.667L336.486 226.233L339.108 227.384L338.91 227.817ZM333.676 225.564C332.808 225.205 331.922 224.856 331.036 224.507L331.215 224.064L333.855 225.13L333.676 225.564ZM328.376 223.489C327.499 223.159 326.604 222.838 325.708 222.546L325.859 222.103C326.802 222.423 327.66 222.744 328.546 223.046L328.376 223.489ZM323.011 221.603C322.124 221.301 321.219 221.009 320.304 220.717L320.446 220.273C321.389 220.556 322.266 220.858 323.162 221.16L323.011 221.603ZM208.041 220.66L207.909 220.207L210.663 219.462L210.785 219.915L208.041 220.66ZM317.589 219.84L314.854 219.047L314.986 218.595C315.929 218.849 316.815 219.123 317.721 219.396L317.589 219.84ZM213.548 219.198L213.426 218.746L216.198 218.067L216.311 218.519L213.548 219.198ZM312.129 218.359C311.186 218.114 310.299 217.878 309.366 217.652L309.479 217.19C310.416 217.416 311.34 217.652 312.251 217.897L312.129 218.359ZM219.093 217.963L218.989 217.51L221.818 216.888L221.922 217.35L219.093 217.963ZM306.593 217.02C305.65 216.803 304.707 216.605 303.811 216.407L303.915 215.945C304.858 216.143 305.801 216.341 306.697 216.558L306.593 217.02ZM224.657 216.756L224.563 216.294L227.391 215.747L227.486 216.209L224.657 216.756ZM301.039 215.813L298.21 215.285L298.295 214.823L301.124 215.351L301.039 215.813ZM230.315 215.681L230.23 215.219L233.059 214.738L233.134 215.2C232.135 215.342 231.192 215.502 230.258 215.672L230.315 215.681ZM295.475 214.813C294.532 214.663 293.589 214.512 292.646 214.38L292.712 213.908L295.541 214.342L295.475 214.813ZM235.935 214.757L235.86 214.295L238.689 213.889L238.755 214.361C237.755 214.474 236.821 214.615 235.878 214.747L235.935 214.757ZM241.593 213.993L241.536 213.522C242.479 213.408 243.422 213.295 244.365 213.201L244.412 213.663L241.593 213.993ZM289.865 213.993C288.922 213.87 287.979 213.748 287.036 213.644L287.092 213.173L289.921 213.522L289.865 213.993ZM247.251 213.371V212.909L250.08 212.654V213.126L247.251 213.371ZM284.207 213.371C283.264 213.286 282.321 213.192 281.378 213.116L281.425 212.645L284.254 212.899L284.207 213.371ZM252.928 212.946V212.475L255.757 212.305V212.767L252.928 212.946ZM278.53 212.946C277.587 212.88 276.644 212.824 275.701 212.777V212.305C276.644 212.352 277.587 212.409 278.53 212.475V212.946ZM258.614 212.682V212.211L261.443 212.117V212.588L258.614 212.682ZM272.853 212.682C271.91 212.682 270.967 212.626 270.024 212.607V212.135C270.967 212.135 271.91 212.135 272.853 212.211V212.682ZM264.31 212.569V212.098H267.139V212.569H264.31Z" fill="#263238"/>
<path d="M202.629 222.28L203.751 221.47C203.751 221.47 204.138 221.187 204.92 220.668L205.166 221.045L205.298 221.498L203.93 221.894L202.629 222.28Z" fill="#263238"/>
<path d="M207.585 219.517L207.33 219.112C208.047 218.668 208.867 218.169 209.792 217.622L210.037 218.027C209.113 218.574 208.292 219.074 207.585 219.517ZM212.526 216.594L212.29 216.179C213.076 215.733 213.916 215.27 214.808 214.793L215.035 215.208C214.148 215.689 213.309 216.151 212.526 216.594ZM217.571 213.859L217.354 213.444C218.165 213.01 219.023 212.577 219.91 212.133L220.127 212.558C219.24 213.001 218.382 213.435 217.571 213.859ZM222.701 211.294L222.494 210.87C223.333 210.464 224.2 210.049 225.096 209.644L225.294 210.068L222.701 211.294ZM227.906 208.88L227.718 208.446L230.349 207.296L230.537 207.73L227.906 208.88ZM233.178 206.617L232.999 206.183C233.876 205.825 234.762 205.457 235.667 205.099L235.837 205.542L233.178 206.617ZM238.515 204.495L238.345 204.052L241.042 203.043L241.203 203.486C240.288 203.816 239.392 204.156 238.515 204.495ZM243.9 202.515L243.739 202.072C244.635 201.751 245.54 201.44 246.464 201.129L246.615 201.581L243.9 202.515ZM249.331 200.629L249.19 200.176L251.934 199.309L252.066 199.761C251.142 200.091 250.236 200.384 249.331 200.676V200.629ZM254.819 198.922L254.678 198.47L257.441 197.668L257.573 198.13C256.639 198.432 255.725 198.705 254.819 198.969V198.922ZM260.336 197.357L260.213 196.904L262.995 196.169L263.108 196.631L260.336 197.357ZM265.89 195.933L265.777 195.471L268.606 194.811L268.71 195.273L265.89 195.933ZM271.482 194.641L271.378 194.179L274.207 193.585L274.302 194.047C273.349 194.283 272.406 194.481 271.482 194.688V194.641ZM277.14 193.481L277.055 193.019L279.884 192.491L279.969 192.962L277.14 193.481ZM371.25 193.481L368.421 192.981L368.497 192.51L371.326 193.019L371.25 193.481ZM365.592 192.538L362.764 192.095L362.83 191.633L365.658 192.076L365.592 192.538ZM282.779 192.538L282.704 192.076L285.533 191.614L285.608 192.076L282.779 192.538ZM359.925 191.718L357.096 191.341L357.162 190.869L359.991 191.256L359.925 191.718ZM288.446 191.652L288.38 191.19C289.323 191.048 290.266 190.916 291.209 190.794L291.275 191.265L288.446 191.652ZM354.229 190.982L351.4 190.662L351.457 190.19L354.286 190.511L354.229 190.982ZM294.133 190.907L294.076 190.435C295.019 190.322 295.962 190.209 296.905 190.115L296.962 190.577L294.133 190.907ZM348.534 190.369L345.705 190.105V189.634L348.534 189.898V190.369ZM299.838 190.284L299.791 189.822L302.62 189.558V190.03L299.838 190.284ZM342.819 189.879L339.99 189.681V189.209C340.933 189.266 341.876 189.332 342.819 189.407V189.879ZM305.524 189.775V189.304L308.353 189.115V189.587L305.524 189.775ZM337.058 189.483L334.229 189.351V188.879L337.058 189.011V189.483ZM311.257 189.426V188.955L314.133 188.832V189.304L311.257 189.426ZM331.334 189.247L328.458 189.172V188.728L331.334 188.804V189.247ZM316.991 189.247V188.728L319.82 188.672V189.143L316.991 189.247ZM325.591 189.172H322.762V188.7H325.638L325.591 189.172Z" fill="#263238"/>
<path d="M376.345 194.52L375.402 194.341L374.016 194.068L374.101 193.606L374.525 193.681L374.195 193.436L374.468 193.059C375.204 193.596 375.581 193.917 375.6 193.926L376.345 194.52Z" fill="#263238"/>
<path d="M371.96 191.84C371.215 191.34 370.423 190.841 369.622 190.341L369.867 189.945C370.678 190.445 371.47 190.944 372.224 191.454L371.96 191.84ZM367.246 188.936C366.453 188.483 365.633 187.993 364.813 187.597L365.029 187.182C365.859 187.616 366.68 188.068 367.481 188.521L367.246 188.936ZM362.333 186.333C361.503 185.928 360.654 185.532 359.824 185.154L360.013 184.721C360.861 185.107 361.71 185.503 362.54 185.909L362.333 186.333ZM357.259 184.013C356.42 183.665 355.562 183.316 354.675 182.967L354.845 182.533C355.741 182.872 356.599 183.221 357.438 183.58L357.259 184.013ZM278.501 182.929L278.34 182.486C279.227 182.175 280.113 181.882 280.99 181.599L281.132 182.043L278.501 182.929ZM352.054 181.986C351.196 181.684 350.319 181.383 349.423 181.043L349.564 180.59C350.507 180.883 351.356 181.184 352.214 181.533L352.054 181.986ZM283.763 181.203L283.63 180.751C284.526 180.477 285.422 180.223 286.309 179.977L286.441 180.43C285.573 180.722 284.677 180.977 283.781 181.25L283.763 181.203ZM346.773 180.26C345.896 180.006 345 179.751 344.095 179.515L344.218 179.053C345.161 179.298 346.028 179.553 346.905 179.808L346.773 180.26ZM289.119 179.704L289.006 179.242L291.721 178.591L291.825 179.044C290.948 179.298 290.043 179.525 289.138 179.761L289.119 179.704ZM341.398 178.836C340.512 178.629 339.606 178.422 338.682 178.233L338.786 177.771L341.511 178.374L341.398 178.836ZM294.541 178.459L294.447 177.997L297.181 177.46L297.266 177.922L294.541 178.459ZM335.957 177.705C335.014 177.545 334.147 177.394 333.222 177.252L333.288 176.79C334.231 176.932 335.174 177.082 336.042 177.243L335.957 177.705ZM300.01 177.46L299.935 176.988L302.698 176.592L302.754 177.054C301.868 177.233 300.953 177.413 300.029 177.516L300.01 177.46ZM330.469 176.875C329.526 176.762 328.639 176.658 327.706 176.564V176.102C328.649 176.187 329.592 176.29 330.478 176.404L330.469 176.875ZM305.527 176.781L305.47 176.309C306.413 176.205 307.356 176.121 308.252 176.045V176.517C307.413 176.592 306.47 176.677 305.527 176.781ZM324.943 176.394C324 176.328 323.057 176.271 322.171 176.234V175.762C323.114 175.762 324.057 175.857 325 175.923L324.943 176.394ZM311.062 176.319V175.847C312.005 175.791 312.948 175.743 313.891 175.715V176.187C312.929 176.215 312.005 176.262 311.072 176.319H311.062ZM319.398 176.139C318.747 176.139 318.097 176.139 317.446 176.139H316.616V175.668H319.445L319.398 176.139Z" fill="#263238"/>
<path d="M274.344 184.476L274.25 184.278C274.25 184.278 274.042 183.835 273.599 183.043L274.014 182.816C274.287 183.316 274.476 183.675 274.58 183.882L275.702 183.458L275.871 183.901L274.551 184.401L274.344 184.476Z" fill="#263238"/>
<path d="M272.175 180.63C271.694 179.857 271.175 179.065 270.628 178.272L271.015 178.008C271.571 178.81 272.09 179.602 272.571 180.375L272.175 180.63ZM268.997 175.972C268.45 175.227 267.875 174.472 267.29 173.727L267.658 173.444C268.242 174.18 268.827 174.944 269.374 175.698L268.997 175.972ZM265.508 171.549C264.904 170.823 264.291 170.106 263.669 169.418L264.018 169.097C264.64 169.795 265.262 170.521 265.904 171.247L265.508 171.549ZM261.736 167.334C261.094 166.655 260.434 165.976 259.774 165.316L260.114 164.986C260.774 165.646 261.434 166.325 262.085 167.013L261.736 167.334ZM257.766 163.345C257.096 162.713 256.408 162.072 255.691 161.459L256.012 161.11C256.728 161.761 257.417 162.402 258.086 162.996L257.766 163.345ZM253.579 159.573C252.872 158.979 252.155 158.375 251.41 157.772L251.712 157.404C252.457 158.008 253.173 158.62 253.881 159.215L253.579 159.573ZM249.203 156.027C248.468 155.461 247.723 154.896 246.95 154.33L247.232 153.953C248.006 154.518 248.76 155.084 249.486 155.65L249.203 156.027ZM244.658 152.698C243.894 152.17 243.121 151.642 242.329 151.114L242.584 150.718C243.385 151.246 244.168 151.774 244.932 152.312L244.658 152.698ZM239.943 149.587C239.151 149.096 238.35 148.644 237.539 148.125L237.774 147.719C238.595 148.2 239.396 148.662 240.188 149.191L239.943 149.587ZM235.096 146.71C234.295 146.248 233.465 145.768 232.635 145.353L232.852 144.938C233.691 145.381 234.521 145.881 235.332 146.296L235.096 146.71ZM230.136 144.051C229.306 143.627 228.467 143.212 227.609 142.797L227.807 142.373C228.674 142.788 229.514 143.203 230.344 143.627L230.136 144.051ZM225.101 141.581C224.252 141.197 223.394 140.82 222.526 140.449L222.715 140.015C223.582 140.383 224.45 140.77 225.299 141.156L225.101 141.581ZM219.923 139.365C219.065 139.016 218.188 138.667 217.302 138.327L217.472 137.894C218.358 138.233 219.235 138.572 220.103 138.921L219.923 139.365ZM214.662 137.356C213.785 137.045 212.898 136.734 211.993 136.413L212.144 135.97C213.087 136.272 213.935 136.583 214.822 136.913L214.662 137.356ZM209.315 135.564L206.627 134.735L206.759 134.291C207.702 134.555 208.57 134.829 209.456 135.112L209.315 135.564ZM203.912 134.037C202.969 133.792 202.11 133.546 201.186 133.311L201.309 132.858C202.252 133.094 203.138 133.329 204.034 133.584L203.912 134.037ZM198.452 132.641C197.546 132.427 196.632 132.22 195.707 132.019L195.802 131.557C196.745 131.755 197.688 131.962 198.565 132.179L198.452 132.641ZM192.945 131.443C192.002 131.255 191.115 131.076 190.182 130.906L190.266 130.444C191.197 130.614 192.121 130.793 193.039 130.981L192.945 131.443ZM187.4 130.425L184.618 129.982L184.693 129.52C185.636 129.661 186.579 129.803 187.475 129.963L187.4 130.425ZM181.827 129.586C180.884 129.463 179.941 129.341 178.998 129.237L179.054 128.765C179.997 128.879 180.94 128.992 181.883 129.124L181.827 129.586ZM176.235 128.916L173.406 128.652L173.453 128.181L176.282 128.454L176.235 128.916ZM133.998 128.709V128.237L136.827 128.02V128.492L133.998 128.709ZM170.614 128.416L167.786 128.228V127.756L170.614 127.945V128.416ZM139.628 128.303V127.832L142.457 127.672V128.143L139.628 128.303ZM164.994 128.077C164.051 128.077 163.108 127.992 162.165 127.964V127.492C163.108 127.492 164.051 127.558 164.994 127.605V128.077ZM145.22 127.983V127.511L148.049 127.417V127.888L145.22 127.983ZM159.365 127.851C158.422 127.851 157.479 127.851 156.536 127.804V127.332C157.479 127.332 158.422 127.332 159.365 127.379V127.851ZM150.878 127.851V127.379H153.707V127.851H150.878Z" fill="#263238"/>
<path d="M129.263 129.102L129.527 128.697C129.527 128.697 129.791 128.282 130.329 127.527L130.715 127.791C130.498 128.103 130.329 128.357 130.197 128.536L131.14 128.451L131.187 128.923L129.782 129.055L129.263 129.102Z" fill="#263238"/>
<path d="M132.366 125.548L131.988 125.266C132.488 124.605 133.063 123.861 133.724 123.04L134.091 123.332C133.441 124.143 132.865 124.879 132.366 125.548ZM135.874 121.164L135.506 120.862C136.081 120.183 136.694 119.476 137.392 118.731L137.75 119.042C137.052 119.768 136.439 120.485 135.874 121.154V121.164ZM139.57 116.948L139.221 116.628L141.107 114.572L141.447 114.902C140.815 115.59 140.183 116.279 139.561 116.939L139.57 116.948ZM143.436 112.884L143.097 112.554C143.738 111.903 144.408 111.243 145.096 110.574L145.426 110.904C144.738 111.564 144.078 112.224 143.436 112.875V112.884ZM147.453 108.971L147.105 108.575C147.774 107.943 148.462 107.311 149.17 106.689L149.49 107.038C148.802 107.698 148.114 108.329 147.453 108.961V108.971ZM151.603 105.199L151.291 104.84C151.98 104.237 152.696 103.624 153.423 103.002L153.724 103.369C152.998 103.973 152.291 104.576 151.603 105.189V105.199ZM155.884 101.568L155.582 101.21C156.299 100.625 157.025 100.031 157.77 99.4465L158.062 99.8142L155.884 101.568ZM160.278 98.098L159.995 97.7208C160.731 97.1644 161.485 96.5986 162.249 96.0423L162.522 96.4195L160.278 98.098ZM164.804 94.7787L164.531 94.392C165.285 93.8545 166.049 93.317 166.832 92.789L167.105 93.1756C166.323 93.7037 165.559 94.2317 164.804 94.7692V94.7787ZM169.425 91.6102L169.171 91.2236C169.944 90.7144 170.726 90.2052 171.528 89.6959L171.783 90.092C170.981 90.5918 170.198 91.0916 169.425 91.6008V91.6102ZM174.14 88.6115L173.895 88.206C174.687 87.7251 175.489 87.263 176.309 86.7632L176.545 87.1687C175.778 87.6088 174.983 88.0866 174.159 88.6021L174.14 88.6115ZM178.968 85.7825L178.742 85.3771C179.553 84.915 180.364 84.4341 181.194 84.0097L181.42 84.4246C180.618 84.8395 179.798 85.3016 178.987 85.7542L178.968 85.7825ZM183.881 83.1139L183.655 82.699C184.485 82.2652 185.315 81.8408 186.163 81.4165L186.371 81.8314C185.569 82.218 184.739 82.6424 183.881 83.1139ZM188.888 80.5961L188.681 80.1717C189.52 79.7757 190.369 79.3702 191.227 78.9836L191.425 79.4079L188.888 80.5961ZM193.981 78.2575L193.792 77.8237C194.641 77.4465 195.499 77.0787 196.376 76.711L196.555 77.1447C195.725 77.4559 194.867 77.8425 194.018 78.2197L193.981 78.2575ZM199.148 76.0886L198.969 75.5699C199.837 75.221 200.704 74.8816 201.591 74.5515L201.76 74.9853C200.912 75.3625 200.044 75.702 199.186 76.0509L199.148 76.0886ZM204.382 74.0894L204.222 73.6462L206.871 72.7032L207.022 73.1559C206.173 73.4199 205.297 73.7311 204.42 74.0517L204.382 74.0894ZM209.681 72.26L209.54 71.8074L212.218 70.9587L212.35 71.4114C211.492 71.6471 210.606 71.93 209.719 72.2223L209.681 72.26ZM215.038 70.6098L214.906 70.1572C215.801 69.8931 216.707 69.6385 217.612 69.3934L217.735 69.846C216.886 70.0534 215.943 70.3081 215.075 70.5721L215.038 70.6098ZM220.441 69.1293L220.328 68.6767C221.271 68.4409 222.138 68.2146 223.053 67.9977L223.166 68.4598L220.441 69.1293ZM225.901 67.828L225.797 67.3659C226.74 67.1585 227.617 66.9699 228.541 66.7718L228.636 67.2339C227.759 67.3942 226.844 67.5828 225.939 67.7903L225.901 67.828ZM231.389 66.6964L231.295 66.2343C232.238 66.0552 233.181 65.8854 234.058 65.7251L234.143 66.1872C233.256 66.3192 232.332 66.4795 231.427 66.6587L231.389 66.6964ZM236.906 65.7534L236.83 65.2819L239.612 64.867L239.678 65.3291C238.782 65.4045 237.867 65.5459 236.943 65.6968L236.906 65.7534ZM295.56 65.2159L292.731 64.8859L292.787 64.4144L295.616 64.7538L295.56 65.2159ZM242.46 64.9613L242.394 64.4898C243.337 64.3672 244.28 64.2635 245.223 64.1503L245.279 64.6218C244.346 64.669 243.412 64.7821 242.498 64.9047L242.46 64.9613ZM289.996 64.5747L287.167 64.3106L287.214 63.8391C288.157 63.924 289.1 64.0089 290.043 64.1126L289.996 64.5747ZM248.061 64.2541L248.014 63.7826L250.843 63.5374V63.9994L248.061 64.2541ZM284.451 63.9994L281.622 63.792V63.3205L284.451 63.528V63.9994ZM253.663 63.8108V63.3394C254.605 63.2733 255.548 63.2168 256.491 63.1696V63.6411C255.548 63.6883 254.605 63.7448 253.663 63.8108ZM278.869 63.6505C277.926 63.594 276.983 63.5562 276.04 63.5185V63.047C276.983 63.047 277.926 63.1225 278.869 63.179V63.6505ZM259.254 63.5091V63.0376C260.197 63.0376 261.14 62.9622 262.083 62.9433V63.4148C261.112 63.4337 260.179 63.4714 259.245 63.5091H259.254ZM273.267 63.4242L270.438 63.3582V62.8867L273.267 62.9527V63.4242ZM264.865 63.3582V62.8867H267.487H267.675V63.3111H267.487L264.865 63.3582Z" fill="#263238"/>
<path d="M299.803 65.7359L298.398 65.5379L298.464 65.0664L299.869 65.2644L299.803 65.7359Z" fill="#263238"/>
<path d="M401.543 98.4023H400.307V279.155H401.543V98.4023Z" fill="#263238"/>
<path d="M408.348 273.468H393.496L395.033 266.688H406.802L408.348 273.468Z" fill="#263238"/>
<path d="M410.859 279.155H390.98L393.046 270.074H408.794L410.859 279.155Z" fill="#37474F"/>
<path d="M204.277 106.844H203.485V223.473H204.277V106.844Z" fill="#263238"/>
<path d="M208.51 220.955H199.26L200.212 216.73H207.549L208.51 220.955Z" fill="#263238"/>
<path d="M210.068 224.492H197.696L198.978 218.844H208.785L210.068 224.492Z" fill="#37474F"/>
<path d="M375.693 133.285H375.279V194.099H375.693V133.285Z" fill="#263238"/>
<path d="M378.139 193.702H372.83L373.377 191.27H377.592L378.139 193.702Z" fill="#263238"/>
<path d="M379.042 195.728H371.931L372.667 192.484H378.306L379.042 195.728Z" fill="#37474F"/>
<path d="M274.599 142.723H274.316V184.648H274.599V142.723Z" fill="#263238"/>
<path d="M275.918 183.96H273.005L273.306 182.621H275.617L275.918 183.96Z" fill="#263238"/>
<path d="M276.416 185.075H272.512L272.918 183.293H276.011L276.416 185.075Z" fill="#37474F"/>
<path d="M129.725 117.469H129.574V128.822H129.725V117.469Z" fill="#263238"/>
<path d="M131.771 121.611V118.961C131.763 119.005 131.763 119.049 131.771 119.093C131.785 119.14 131.807 119.185 131.837 119.225C132.072 119.536 132.78 119.744 133.826 119.847V122.507C132.742 122.403 132.072 122.195 131.837 121.884C131.807 121.841 131.785 121.793 131.771 121.743C131.762 121.699 131.762 121.654 131.771 121.611Z" fill="#2DCB3D"/>
<g opacity="0.1">
<path opacity="0.1" d="M131.772 121.611V118.961C131.764 119.005 131.764 119.049 131.772 119.093C131.786 119.14 131.808 119.185 131.838 119.225C132.073 119.536 132.781 119.744 133.827 119.847V122.507C132.743 122.403 132.073 122.195 131.838 121.884C131.808 121.841 131.786 121.793 131.772 121.743C131.763 121.699 131.763 121.654 131.772 121.611Z" fill="black"/>
</g>
<path d="M131.828 121.232C131.832 121.298 131.832 121.364 131.828 121.43C131.823 121.49 131.823 121.549 131.828 121.609V118.959C131.823 118.896 131.823 118.833 131.828 118.771C131.837 118.708 131.837 118.645 131.828 118.582C131.818 119.374 131.818 120.44 131.828 121.232Z" fill="#2DCB3D"/>
<g opacity="0.4">
<path opacity="0.4" d="M131.823 121.232C131.828 121.298 131.828 121.364 131.823 121.43C131.819 121.49 131.819 121.549 131.823 121.609V118.959C131.819 118.896 131.819 118.833 131.823 118.771C131.833 118.708 131.833 118.645 131.823 118.582C131.814 119.374 131.814 120.44 131.823 121.232Z" fill="black"/>
</g>
<path d="M131.809 118.584V121.234C131.817 121.184 131.817 121.133 131.809 121.083C131.787 121.037 131.762 120.993 131.733 120.951C131.488 120.63 130.79 120.432 129.677 120.366V117.707C130.819 117.782 131.497 117.971 131.733 118.301C131.767 118.339 131.793 118.384 131.809 118.433C131.818 118.483 131.818 118.534 131.809 118.584Z" fill="#2DCB3D"/>
<path d="M299.831 54.1484H299.68V65.502H299.831V54.1484Z" fill="#263238"/>
<path d="M301.878 58.292V55.6328C301.869 55.6764 301.869 55.7213 301.878 55.7648C301.89 55.813 301.912 55.8581 301.944 55.8968C302.179 56.208 302.887 56.4249 303.933 56.5192V59.1785C302.852 59.0716 302.192 58.8641 301.953 58.5561C301.924 58.5142 301.899 58.47 301.878 58.4241C301.874 58.3801 301.874 58.336 301.878 58.292Z" fill="#2DCB3D"/>
<g opacity="0.1">
<path opacity="0.1" d="M301.876 58.292V55.6328C301.867 55.6764 301.867 55.7213 301.876 55.7648C301.888 55.813 301.911 55.8581 301.942 55.8968C302.178 56.208 302.885 56.4249 303.932 56.5192V59.1785C302.85 59.0716 302.19 58.8641 301.951 58.5561C301.923 58.5142 301.898 58.47 301.876 58.4241C301.872 58.3801 301.872 58.336 301.876 58.292Z" fill="black"/>
</g>
<path d="M301.935 57.9131C301.94 57.9759 301.94 58.039 301.935 58.1017C301.926 58.1643 301.926 58.2278 301.935 58.2903V55.6311C301.93 55.5683 301.93 55.5053 301.935 55.4425C301.94 55.3798 301.94 55.3167 301.935 55.2539C301.916 56.0554 301.925 57.1116 301.935 57.9131Z" fill="#2DCB3D"/>
<g opacity="0.4">
<path opacity="0.4" d="M301.932 57.9131C301.937 57.9759 301.937 58.039 301.932 58.1017C301.923 58.1643 301.923 58.2278 301.932 58.2903V55.6311C301.927 55.5683 301.927 55.5053 301.932 55.4425C301.937 55.3798 301.937 55.3167 301.932 55.2539C301.913 56.0554 301.922 57.1116 301.932 57.9131Z" fill="black"/>
</g>
<path d="M301.916 55.2543V57.9135C301.925 57.8636 301.925 57.8125 301.916 57.7626C301.896 57.7156 301.871 57.6713 301.84 57.6306C301.595 57.3006 300.897 57.112 299.785 57.0365V54.3867C300.926 54.4527 301.595 54.6508 301.84 54.9714C301.905 55.0514 301.942 55.151 301.944 55.2543H301.916Z" fill="#2DCB3D"/>
<path d="M418.29 132.335L418.149 110.57C418.155 110.942 418.218 111.311 418.337 111.664C418.478 112.053 418.675 112.418 418.922 112.749C420.808 115.304 426.296 117.02 435.179 117.86L435.311 139.614C426.428 138.775 420.978 137.068 419.063 134.503C418.807 134.179 418.609 133.812 418.479 133.419C418.356 133.07 418.292 132.704 418.29 132.335Z" fill="#2DCB3D"/>
<g opacity="0.1">
<path opacity="0.1" d="M418.288 132.335L418.147 110.57C418.153 110.942 418.216 111.311 418.335 111.664C418.476 112.053 418.673 112.418 418.92 112.749C420.806 115.304 426.294 117.02 435.177 117.86L435.309 139.614C426.426 138.775 420.976 137.068 419.062 134.503C418.805 134.179 418.608 133.812 418.477 133.419C418.354 133.07 418.291 132.704 418.288 132.335Z" fill="black"/>
</g>
<path d="M418.687 129.231C418.679 129.766 418.606 130.298 418.47 130.816C418.341 131.312 418.268 131.821 418.254 132.334L418.112 110.57C418.133 110.057 418.205 109.549 418.329 109.051C418.463 108.537 418.539 108.008 418.555 107.477C418.631 114.002 418.687 122.725 418.687 129.231Z" fill="#2DCB3D"/>
<g opacity="0.4">
<path opacity="0.4" d="M418.686 129.231C418.677 129.766 418.604 130.298 418.469 130.816C418.339 131.312 418.267 131.821 418.252 132.334L418.11 110.57C418.131 110.057 418.204 109.549 418.327 109.051C418.461 108.537 418.537 108.008 418.554 107.477C418.629 114.002 418.686 122.725 418.686 129.231Z" fill="black"/>
</g>
<path d="M418.592 107.476L418.687 129.231C418.685 128.806 418.608 128.385 418.46 127.986C418.314 127.609 418.117 127.254 417.876 126.93C415.877 124.271 410.332 122.686 401.024 122.092L400.883 100.328C410.2 100.922 415.744 102.516 417.734 105.166C417.983 105.489 418.18 105.848 418.319 106.231C418.483 106.627 418.575 107.048 418.592 107.476Z" fill="#2DCB3D"/>
<path d="M215.092 128.74L214.998 114.699C215.005 114.937 215.046 115.172 215.121 115.397C215.209 115.651 215.336 115.89 215.498 116.104C216.743 117.755 220.26 118.858 225.984 119.395L226.078 133.436C220.345 132.899 216.828 131.786 215.592 130.145C215.427 129.933 215.299 129.694 215.215 129.438C215.13 129.215 215.089 128.979 215.092 128.74Z" fill="#2DCB3D"/>
<g opacity="0.1">
<path opacity="0.1" d="M215.092 128.74L214.998 114.699C215.005 114.937 215.046 115.172 215.121 115.397C215.209 115.651 215.336 115.89 215.498 116.104C216.743 117.755 220.26 118.858 225.984 119.395L226.078 133.436C220.345 132.899 216.828 131.786 215.592 130.145C215.427 129.933 215.299 129.694 215.215 129.438C215.13 129.215 215.089 128.979 215.092 128.74Z" fill="black"/>
</g>
<path d="M215.375 126.74C215.363 127.084 215.315 127.425 215.234 127.759C215.151 128.067 215.104 128.383 215.092 128.702L214.998 114.661C215.014 114.342 215.061 114.027 215.14 113.718C215.226 113.385 215.273 113.043 215.281 112.699L215.375 126.74Z" fill="#2DCB3D"/>
<g opacity="0.4">
<path opacity="0.4" d="M215.375 126.74C215.363 127.084 215.315 127.425 215.234 127.759C215.152 128.067 215.104 128.383 215.093 128.702L214.998 114.661C215.014 114.342 215.062 114.027 215.14 113.718C215.226 113.385 215.273 113.043 215.281 112.699L215.375 126.74Z" fill="black"/>
</g>
<path d="M215.286 112.697L215.38 126.738C215.372 126.462 215.321 126.188 215.229 125.927C215.133 125.686 215.006 125.457 214.852 125.248C213.56 123.532 209.986 122.504 203.979 122.127L203.885 108.086C209.901 108.473 213.475 109.491 214.758 111.207C214.92 111.416 215.051 111.648 215.144 111.896C215.239 112.152 215.287 112.424 215.286 112.697Z" fill="#2DCB3D"/>
<path d="M381.325 144.693V137.375C381.322 137.5 381.341 137.624 381.381 137.743C381.433 137.873 381.499 137.996 381.579 138.111C382.23 138.969 384.06 139.544 387.049 139.827V147.144C384.06 146.861 382.221 146.286 381.579 145.428C381.499 145.314 381.433 145.19 381.381 145.06C381.346 144.941 381.327 144.817 381.325 144.693Z" fill="#2DCB3D"/>
<g opacity="0.1">
<path opacity="0.1" d="M381.323 144.693V137.375C381.32 137.5 381.34 137.624 381.38 137.743C381.431 137.873 381.498 137.996 381.578 138.111C382.229 138.969 384.058 139.544 387.047 139.827V147.144C384.058 146.861 382.219 146.286 381.578 145.428C381.498 145.314 381.431 145.19 381.38 145.06C381.345 144.941 381.326 144.817 381.323 144.693Z" fill="black"/>
</g>
<path d="M381.476 143.659C381.47 143.837 381.444 144.014 381.4 144.187C381.357 144.354 381.331 144.524 381.325 144.696V137.379C381.323 137.207 381.346 137.035 381.391 136.87C381.436 136.694 381.461 136.513 381.466 136.332C381.447 138.529 381.466 141.462 381.476 143.659Z" fill="#2DCB3D"/>
<g opacity="0.4">
<path opacity="0.4" d="M381.474 143.659C381.468 143.837 381.443 144.014 381.399 144.187C381.355 144.354 381.33 144.524 381.323 144.696V137.379C381.322 137.207 381.344 137.035 381.389 136.87C381.434 136.694 381.459 136.513 381.465 136.332C381.446 138.529 381.465 141.462 381.474 143.659Z" fill="black"/>
</g>
<path d="M381.429 136.329L381.477 143.656C381.478 143.511 381.452 143.367 381.401 143.231C381.352 143.103 381.285 142.983 381.203 142.873C380.534 141.987 378.666 141.449 375.545 141.251L375.498 133.934C378.629 134.132 380.496 134.66 381.156 135.556C381.238 135.665 381.305 135.786 381.354 135.914C381.405 136.046 381.43 136.187 381.429 136.329Z" fill="#2DCB3D"/>
<path d="M278.492 150.588V145.543C278.478 145.627 278.478 145.713 278.492 145.798C278.524 145.89 278.572 145.976 278.633 146.052C279.077 146.646 280.34 146.995 282.405 147.231V152.285C280.34 152.087 279.077 151.691 278.633 151.097C278.573 151.02 278.526 150.934 278.492 150.843C278.478 150.758 278.478 150.672 278.492 150.588Z" fill="#2DCB3D"/>
<g opacity="0.1">
<path opacity="0.1" d="M278.492 150.588V145.543C278.478 145.627 278.478 145.713 278.492 145.798C278.524 145.89 278.572 145.976 278.633 146.052C279.077 146.646 280.34 146.995 282.405 147.231V152.285C280.34 152.087 279.077 151.691 278.633 151.097C278.573 151.02 278.526 150.934 278.492 150.843C278.478 150.758 278.478 150.672 278.492 150.588Z" fill="black"/>
</g>
<path d="M278.596 149.873C278.592 149.998 278.573 150.121 278.539 150.241C278.51 150.355 278.494 150.472 278.492 150.59V145.545C278.489 145.427 278.504 145.309 278.539 145.196C278.554 145.074 278.554 144.95 278.539 144.828C278.568 146.346 278.586 148.364 278.596 149.873Z" fill="#2DCB3D"/>
<g opacity="0.4">
<path opacity="0.4" d="M278.597 149.873C278.593 149.998 278.574 150.121 278.54 150.241C278.511 150.355 278.496 150.472 278.493 150.59V145.545C278.49 145.427 278.506 145.309 278.54 145.196C278.555 145.074 278.555 144.95 278.54 144.828C278.569 146.346 278.587 148.364 278.597 149.873Z" fill="black"/>
</g>
<path d="M278.554 144.828V149.873C278.552 149.776 278.533 149.68 278.498 149.59C278.467 149.502 278.422 149.419 278.366 149.345C277.894 148.722 276.612 148.402 274.452 148.222V143.168C276.612 143.309 277.894 143.677 278.356 144.29C278.41 144.368 278.458 144.45 278.498 144.535C278.534 144.628 278.553 144.728 278.554 144.828Z" fill="#2DCB3D"/>
<path d="M141.841 100.645C141.492 122.494 142.784 138.497 143.83 142.939C146.518 154.254 155.391 176.132 158.079 180.347C159.823 183.082 182.88 168.277 180.767 165.542C174.676 157.649 164.906 135.885 164.736 135.517C163.482 132.971 158.777 114.517 153.647 101.645C148.517 88.7731 142.02 89.5369 141.841 100.645Z" fill="#FFA98C"/>
<path d="M155.537 172.094C155.716 168.916 174.67 161.334 177.169 163.437C179.423 165.323 186.807 169.567 193.144 170.708C198.453 171.651 206.459 172.499 206.044 175.423C205.45 179.619 195.209 179.789 189.325 179.525C190.767 182.354 191.748 184.975 191.757 186.701C191.805 192.415 166.297 195.876 162.657 191.369C159.111 186.984 155.358 175.272 155.537 172.094Z" fill="#FFA98C"/>
<path d="M187.317 195.963L182.291 196.633L180.528 188.353L159.961 191.126L161.724 199.405L156.594 200.093L153.897 187.372L184.592 183.242L187.317 195.963Z" fill="#A6A6A6"/>
<path d="M222.104 253.936L143.402 264.526L129.701 199.912L208.403 189.332L222.104 253.936Z" fill="#FF862D"/>
<path opacity="0.2" d="M222.104 253.936L143.402 264.526L129.701 199.912L208.403 189.332L222.104 253.936Z" fill="black"/>
<path opacity="0.2" d="M215.852 224.43L137.584 237.104L129.691 199.922L208.402 189.332L215.852 224.43Z" fill="black"/>
<path d="M143.402 264.528L138.225 263.34L133.548 265.848L129.691 199.914L143.402 264.528Z" fill="#FFC727"/>
<path opacity="0.3" d="M143.402 264.528L138.225 263.34L133.548 265.857L129.691 199.914L143.402 264.528Z" fill="black"/>
<path opacity="0.1" d="M138.228 263.339C135.833 247.817 133.513 230.692 131.74 215.086C134.145 230.608 136.455 247.732 138.228 263.339Z" fill="black"/>
<path d="M217.23 222.328L137.34 233.069L130.286 199.828L210.177 189.078L217.23 222.328Z" fill="#FF862D"/>
<path d="M186.787 230.484L169.182 232.851L167.843 226.543L185.439 224.176L186.787 230.484Z" fill="#FFC727"/>
<path d="M189.927 177.877C187.098 176.877 187.551 180.706 187.551 180.706C187.551 180.706 185.599 175.283 182.317 175.368C179.035 175.453 179.828 180.083 179.875 180.441C179.762 180.159 177.847 175.227 174.556 175.642C171.265 176.057 172.614 180.649 172.67 180.941C172.482 180.696 169.992 177.584 167.569 178.471C163.401 180.008 169.549 188.146 168.908 191.672C168.908 191.672 162.788 191.267 162.609 191.286C162.609 191.286 168.266 199.15 173.123 199.773C173.822 199.872 174.533 199.729 175.14 199.369C175.747 199.009 176.213 198.453 176.461 197.792C176.461 197.792 178.017 200.527 180.61 200.273C181.949 200.141 182.921 197.896 182.921 197.896C183.306 198.497 183.85 198.979 184.492 199.29C185.135 199.602 185.85 199.729 186.56 199.66C188.446 199.377 189.088 197.161 189.088 197.161C189.088 197.161 191.323 198.622 193.105 197.717C196.745 195.935 195.906 180.027 189.927 177.877Z" fill="#FFA98C"/>
<path d="M189.297 196.859C189.297 196.859 189.372 196.925 189.382 196.859C190.442 191.355 189.804 185.659 187.552 180.526C187.477 180.366 187.175 180.413 187.232 180.611C188.706 185.898 189.401 191.371 189.297 196.859Z" fill="#263238"/>
<path d="M183.006 198.001C183.006 198.057 183.11 198.067 183.119 198.001C184.231 191.919 183.127 185.639 180.007 180.301C179.894 180.122 179.611 180.065 179.724 180.301C181.667 184.016 183.176 192.852 183.006 198.001Z" fill="#263238"/>
<path d="M172.353 180.687C175.399 185.902 176.341 191.607 176.568 197.595C176.568 197.67 176.672 197.661 176.69 197.595C177.388 194.643 176.87 190.843 176.209 187.92C175.649 185.196 174.384 182.666 172.541 180.583C172.466 180.498 172.296 180.574 172.353 180.687Z" fill="#263238"/>
<path d="M187.6 180.657C187.505 180.459 187.326 180.808 187.232 180.657C186.817 179.855 183.941 175.253 182.074 175.744C180.574 176.14 180.065 178.431 180.188 179.384L180.565 181.798L179.377 179.667C178.851 178.721 178.18 177.865 177.387 177.13C177.036 176.77 176.612 176.488 176.144 176.302C175.676 176.117 175.174 176.033 174.671 176.055C174.208 176.082 173.768 176.267 173.425 176.58C173.081 176.892 172.856 177.313 172.785 177.771C172.644 178.807 172.767 179.861 173.144 180.836L174.087 183.561L172.304 181.307C171.81 180.68 171.236 180.119 170.597 179.638C170.009 179.16 169.295 178.862 168.542 178.78C168.2 178.769 167.861 178.85 167.562 179.017C167.263 179.183 167.015 179.427 166.844 179.723C166.565 180.44 166.497 181.222 166.646 181.977C166.952 183.62 167.384 185.238 167.938 186.815C168.193 187.616 168.447 188.427 168.664 189.247C168.926 190.059 169.015 190.917 168.928 191.765C168.926 190.924 168.76 190.091 168.438 189.313C168.165 188.521 167.853 187.739 167.495 186.956C166.815 185.387 166.285 183.758 165.911 182.09C165.694 181.186 165.747 180.239 166.062 179.365C166.284 178.91 166.635 178.53 167.07 178.272C167.506 178.014 168.008 177.889 168.513 177.913C169.447 177.962 170.344 178.29 171.088 178.856C171.81 179.381 172.46 180 173.021 180.695L172.191 181.166C171.72 180.021 171.56 178.772 171.729 177.545C171.831 176.872 172.165 176.255 172.672 175.8C173.188 175.371 173.823 175.111 174.492 175.055C175.128 175.026 175.763 175.131 176.354 175.365C176.946 175.599 177.481 175.957 177.925 176.413C178.792 177.232 179.518 178.188 180.075 179.242L179.254 179.516C179.103 178.299 179.396 175.668 181.64 174.801C184.827 173.999 187.232 179.601 187.6 180.657Z" fill="#263238"/>
<path d="M187.554 180.745C187.603 180.135 187.746 179.538 187.978 178.972C188.067 178.743 188.215 178.543 188.408 178.39C188.6 178.238 188.829 178.139 189.072 178.104C189.617 178.104 190.151 178.261 190.609 178.557C191.118 178.849 191.656 179.198 192.184 179.566C191.889 178.975 191.479 178.449 190.977 178.019C190.435 177.522 189.722 177.255 188.987 177.274C188.586 177.334 188.212 177.511 187.912 177.784C187.649 178.042 187.463 178.369 187.374 178.727C187.209 179.401 187.272 180.11 187.554 180.745Z" fill="#263238"/>
<path d="M153.906 178.027L183.082 166.098C183.082 166.098 166.665 137.016 165.1 134.583C163.534 132.15 158.121 109.056 152.841 98.6458C147.56 88.2352 141.525 86.9905 141.006 101.645C140.487 116.299 142.213 136.186 143.1 142.608C143.986 149.03 153.906 178.027 153.906 178.027Z" fill="#37474F"/>
<path d="M178.349 160.612C177.237 160.93 176.142 161.305 175.068 161.734C173.974 162.102 172.889 162.516 171.814 162.941C169.74 163.742 167.675 164.582 165.619 165.43L159.452 167.986C157.33 168.872 155.124 169.664 153.077 170.721C153.063 170.732 153.053 170.747 153.049 170.764C153.044 170.781 153.045 170.8 153.051 170.816C153.057 170.833 153.069 170.847 153.084 170.857C153.098 170.867 153.116 170.872 153.134 170.871C155.34 170.221 157.481 169.278 159.631 168.448L165.977 165.996C168.09 165.176 170.202 164.336 172.295 163.478C173.333 163.054 174.351 162.62 175.37 162.149C176.388 161.677 177.454 161.3 178.425 160.734C178.5 160.697 178.425 160.593 178.349 160.612Z" fill="#263238"/>
<path d="M156.39 177.018L153.948 178.102H153.863C151.789 172.341 149.837 166.532 147.913 160.714C146.338 155.537 143.896 148.37 142.708 143.155C140.774 131.066 140.935 118.788 140.888 106.586C141.604 118.685 141.633 131.019 143.603 142.948C146.215 153.151 150.968 167.701 153.976 177.97L153.873 177.914L156.381 176.971L156.39 177.018Z" fill="#263238"/>
<path d="M139.905 108.461C140.037 109.112 140.339 110.413 140.509 111.054C140.716 111.912 140.961 112.761 141.122 113.666C140.109 112.131 139.678 110.286 139.905 108.461Z" fill="#263238"/>
<path d="M106.72 353.32L102.147 396.189C102.307 404.11 102.581 411.05 103.09 414.624C103.086 414.646 103.086 414.668 103.09 414.69C103.111 415.539 103.327 416.371 103.722 417.123V417.17C106.117 418.717 152.597 419.301 154.813 418.575C157.029 417.849 155.143 411.484 152.7 409.504C150.258 407.523 142.95 396.443 142.95 396.443L147.137 353.603L106.72 353.32Z" fill="#FFA98C"/>
<path d="M145.288 398.423C141.261 396.999 136.084 396.829 132.444 399.281C132.303 399.375 132.444 399.573 132.586 399.554C136.751 398.901 140.975 398.698 145.184 398.951C145.248 398.952 145.311 398.93 145.36 398.89C145.41 398.849 145.444 398.793 145.456 398.73C145.469 398.667 145.459 398.602 145.428 398.546C145.397 398.49 145.348 398.446 145.288 398.423Z" fill="#263238"/>
<path d="M147.997 400.708C143.97 399.274 138.793 399.114 135.153 401.566C135.012 401.66 135.153 401.858 135.295 401.839C139.463 401.187 143.69 400.982 147.902 401.226C147.969 401.234 148.037 401.217 148.091 401.177C148.145 401.137 148.182 401.078 148.194 401.011C148.206 400.945 148.192 400.877 148.156 400.82C148.119 400.764 148.062 400.724 147.997 400.708Z" fill="#263238"/>
<path d="M150.699 402.989C146.673 401.556 141.505 401.386 137.865 403.838C137.724 403.942 137.865 404.14 137.997 404.111C142.166 403.462 146.393 403.26 150.605 403.508C150.672 403.516 150.739 403.498 150.793 403.458C150.848 403.418 150.885 403.359 150.897 403.293C150.909 403.227 150.895 403.158 150.858 403.102C150.822 403.045 150.765 403.005 150.699 402.989Z" fill="#263238"/>
<path d="M155.897 418.887C153.681 419.604 106.145 418.764 103.75 417.208C102.807 416.633 102.373 407.401 102.147 396.227V395.878L143.007 395.793V396.491C143.007 396.491 151.352 407.807 153.804 409.806C156.256 411.805 158.113 418.17 155.897 418.887Z" fill="#37474F"/>
<path d="M102.137 395.867V396.235C102.373 407.4 102.816 416.631 103.74 417.207C104.824 417.914 118.554 418.414 133.397 418.697C151.154 419.027 154.68 419.281 155.887 418.885C158.103 418.159 156.208 411.784 153.775 409.804C151.342 407.824 142.978 396.489 142.978 396.489V395.801H129.352L102.137 395.867Z" fill="#AD6359"/>
<path opacity="0.3" d="M102.137 395.867V396.235C102.373 407.4 102.816 416.631 103.74 417.207C104.824 417.914 118.554 418.414 133.397 418.697C151.154 419.027 154.68 419.281 155.887 418.885C158.103 418.159 156.208 411.784 153.775 409.804C151.342 407.824 142.978 396.489 142.978 396.489V395.801H129.352L102.137 395.867Z" fill="black"/>
<path d="M155.198 416.416C144.533 416.057 117.243 415.35 106.663 415.803C106.578 415.803 106.578 415.869 106.663 415.869C117.233 416.463 144.524 416.812 155.198 416.595C155.425 416.586 155.425 416.425 155.198 416.416Z" fill="#263238"/>
<path opacity="0.1" d="M129.381 395.82C130.494 402.647 132.21 412.709 133.408 418.697C151.164 419.027 154.691 419.281 155.898 418.885C158.114 418.159 156.219 411.784 153.786 409.804C151.353 407.824 142.989 396.489 142.989 396.489V395.801L129.381 395.82Z" fill="black"/>
<path d="M99.3083 396.631L145.119 396.3C145.119 396.3 149.494 297.466 151.852 272.703C154.813 241.725 158.245 160.883 158.245 160.883L119.583 161.524C119.583 161.524 115.405 179.441 114.462 186.381C114.123 188.852 114.915 196.254 116.348 201.516L110.69 280.416L99.3083 396.631Z" fill="#263238"/>
<path d="M103.194 388.549C104.4 388.366 105.615 388.25 106.834 388.2C108.182 388.077 109.531 387.955 110.889 387.879C113.491 387.719 116.094 387.634 118.706 387.577C123.968 387.474 129.23 387.426 134.492 387.502C137.478 387.54 140.47 387.618 143.469 387.738C143.582 387.738 143.582 387.917 143.469 387.926C138.264 388.2 133.096 388.369 127.834 388.558C122.572 388.747 117.405 388.935 112.19 388.916C110.7 388.916 109.201 388.916 107.711 388.869C106.221 388.822 104.684 388.916 103.222 388.728C103.128 388.718 103.09 388.577 103.194 388.549Z" fill="#37474F"/>
<path d="M142.647 347.815C143.741 335.905 144.721 304.664 145.636 292.745C147.522 268.906 148.88 242.134 149.842 218.248C150.389 204.839 150.785 191.43 151.087 178.02C151.081 178.004 151.08 177.986 151.084 177.968C151.087 177.951 151.094 177.935 151.104 177.921C151.115 177.906 151.128 177.895 151.144 177.887C151.16 177.879 151.177 177.875 151.195 177.875C151.213 177.875 151.23 177.879 151.246 177.887C151.261 177.895 151.275 177.906 151.286 177.921C151.296 177.935 151.303 177.951 151.306 177.968C151.309 177.986 151.308 178.004 151.303 178.02C151.219 202.057 150.417 226.113 149.191 250.103C147.965 274.092 146.268 320.073 143.939 343.874C142.637 357.226 141.185 370.579 139.337 383.866C139.337 383.888 139.328 383.91 139.312 383.926C139.296 383.942 139.274 383.951 139.252 383.951C139.229 383.951 139.208 383.942 139.192 383.926C139.176 383.91 139.167 383.888 139.167 383.866C140.289 371.843 141.543 359.839 142.647 347.815Z" fill="#37474F"/>
<path d="M158.237 160.875C158.237 160.875 155.153 233.485 152.315 267.433L120.857 161.507L158.237 160.875Z" fill="#37474F"/>
<path d="M165.291 356.527C165.291 356.527 166.337 397.934 166.337 397.962C166.498 405.883 166.771 412.833 167.28 416.407C167.276 416.426 167.276 416.445 167.28 416.464C167.302 417.312 167.518 418.145 167.912 418.897L167.959 418.944C170.355 420.5 233.686 421.084 235.855 420.358C238.024 419.632 236.185 413.258 233.742 411.277C231.3 409.297 207.141 398.226 207.141 398.226L205.707 356.839L165.291 356.527Z" fill="#FFA98C"/>
<path d="M166.119 389.465L166.336 397.952C166.496 405.873 166.769 412.823 167.279 416.397C167.274 416.415 167.274 416.435 167.279 416.453C167.391 417.287 167.603 418.103 167.91 418.886L167.958 418.933C170.353 420.489 233.684 421.074 235.853 420.348C238.022 419.622 236.183 413.247 233.741 411.267C231.298 409.287 207.139 398.216 207.139 398.216L207.045 389.587L166.119 389.465Z" fill="white"/>
<path d="M211.052 398.188C206.827 397.557 201.716 398.396 198.623 401.517C198.501 401.63 198.671 401.8 198.803 401.753C202.769 400.308 206.879 399.29 211.061 398.716C211.131 398.715 211.198 398.686 211.247 398.636C211.295 398.585 211.322 398.518 211.321 398.448C211.319 398.378 211.29 398.311 211.24 398.262C211.19 398.214 211.122 398.187 211.052 398.188Z" fill="#263238"/>
<path d="M214.155 399.895C209.921 399.272 204.81 400.112 201.717 403.223C201.594 403.346 201.773 403.516 201.905 403.469C205.87 402.016 209.98 400.995 214.164 400.423C214.199 400.422 214.233 400.415 214.265 400.401C214.297 400.387 214.325 400.367 214.349 400.342C214.373 400.317 214.392 400.288 214.405 400.255C214.418 400.223 214.424 400.189 214.423 400.154C214.423 400.119 214.415 400.085 214.402 400.053C214.388 400.022 214.368 399.993 214.343 399.969C214.318 399.945 214.288 399.926 214.256 399.913C214.224 399.9 214.189 399.894 214.155 399.895Z" fill="#263238"/>
<path d="M217.25 401.602C213.025 400.979 207.914 401.819 204.821 404.94C204.698 405.053 204.878 405.223 205.01 405.176C208.975 403.726 213.085 402.708 217.268 402.139C217.331 402.125 217.386 402.09 217.426 402.04C217.465 401.989 217.485 401.926 217.483 401.863C217.48 401.799 217.456 401.738 217.413 401.69C217.371 401.642 217.313 401.611 217.25 401.602Z" fill="#263238"/>
<path d="M235.884 420.356C233.668 421.082 170.336 420.497 167.988 418.941C167.045 418.366 166.612 409.134 166.385 397.969V397.611L207.245 397.535V398.224C207.245 398.224 231.32 409.294 233.771 411.275C236.223 413.255 238.109 419.639 235.884 420.356Z" fill="#AD6359"/>
<path opacity="0.3" d="M235.884 420.356C233.668 421.082 170.336 420.497 167.988 418.941C167.045 418.366 166.612 409.134 166.385 397.969V397.611L207.245 397.535V398.224C207.245 398.224 231.32 409.294 233.771 411.275C236.223 413.255 238.109 419.639 235.884 420.356Z" fill="black"/>
<path d="M235.191 417.877C224.517 417.519 181.441 417.066 170.851 417.528C170.766 417.528 170.766 417.585 170.851 417.594C181.422 418.179 224.507 418.273 235.182 418.047C235.408 418.066 235.408 417.877 235.191 417.877Z" fill="#263238"/>
<path d="M142.14 205.044C142.14 205.044 155.606 263.963 156.125 274.826C156.577 284.095 163.301 398.678 163.301 398.678L210.884 398.169C210.884 398.169 198.918 281.804 198.031 272.148C196.334 254.08 185.98 204.696 173.91 160.648L122.62 161.516C122.62 161.516 121.536 186.251 132.352 202.828C132.333 202.876 139.057 203.375 142.14 205.044Z" fill="#263238"/>
<path d="M165.683 389.89C171.171 389.635 176.867 389.38 182.374 389.428C187.881 389.475 193.294 389.428 198.744 389.692C201.828 389.824 204.911 389.88 208.004 390.135C208.108 390.135 208.099 390.286 208.004 390.295C202.516 390.71 197 390.738 191.502 390.776C186.004 390.814 180.582 390.851 175.122 390.691C172.039 390.606 168.955 390.503 165.862 390.342C165.532 390.323 165.343 389.899 165.683 389.89Z" fill="#37474F"/>
<path d="M153.924 205.988C151.553 206.014 149.185 205.84 146.843 205.47C144.522 204.99 142.228 204.392 139.968 203.678C137.749 203.222 135.503 202.907 133.245 202.735C130.964 202.43 128.741 201.795 126.644 200.849C126.624 200.842 126.603 200.842 126.583 200.85C126.564 200.857 126.548 200.872 126.538 200.891C126.529 200.909 126.527 200.931 126.533 200.951C126.538 200.971 126.551 200.988 126.568 201C128.606 202.05 130.729 202.927 132.915 203.621C135.187 204.3 137.545 204.357 139.846 204.876C142.17 205.525 144.532 206.028 146.918 206.384C149.269 206.627 151.642 206.547 153.972 206.149C154.047 206.13 154.009 205.988 153.924 205.988Z" fill="#37474F"/>
<path d="M153.4 256.975C153.061 255.089 152.749 253.203 152.382 251.261C151.646 247.432 150.892 243.585 150.043 239.775C148.355 232.231 146.799 224.584 144.989 217.049C143.961 212.768 143.103 208.449 141.82 204.243C141.82 204.223 141.812 204.204 141.798 204.19C141.784 204.176 141.765 204.168 141.745 204.168C141.725 204.168 141.706 204.176 141.691 204.19C141.677 204.204 141.669 204.223 141.669 204.243C142.188 208.129 143.027 211.948 143.763 215.795C144.498 219.642 145.281 223.462 146.083 227.29C147.667 234.891 149.213 242.501 150.986 250.054C151.483 252.179 152.004 254.291 152.551 256.391C153.117 258.531 153.494 260.738 154.23 262.841C154.23 262.863 154.239 262.885 154.255 262.901C154.271 262.917 154.292 262.926 154.315 262.926C154.337 262.926 154.359 262.917 154.375 262.901C154.391 262.885 154.4 262.863 154.4 262.841C154.202 260.861 153.711 258.918 153.4 256.975Z" fill="#37474F"/>
<path d="M172.627 186.617C178.134 211.672 184.565 241.075 189.422 266.13C192.732 296.636 194.495 328.924 196.89 359.618L198.578 384.57C195.523 350.999 191.977 299.654 188.535 266.29C184.82 247.072 176.503 206.203 172.627 186.617Z" fill="#37474F"/>
<path d="M217.737 97.5733C218.218 91.2836 212.447 85.3144 196.511 66.0586C194.304 63.3899 177.198 77.7894 179.405 80.7598C182.187 84.5318 190.23 92.9244 191.211 93.8296C199.453 101.496 217.417 101.836 217.737 97.5733Z" fill="#FFA98C"/>
<path d="M196.512 66.0566C195.767 64.8024 187.205 56.8718 183.518 54.7407C180.194 52.5341 176.477 50.9848 172.57 50.1766C165.63 48.7055 161.933 48.2906 159.972 49.3656C157.69 50.6198 159.245 52.1946 166.506 54.9198C173.202 57.4565 174.597 60.6721 175.135 63.6802C176.453 71.0747 179.529 78.0441 184.103 84.0017C184.103 84.0017 199.379 70.8564 196.512 66.0566Z" fill="#FFA98C"/>
<path d="M174.747 62.1898C175.407 65.2734 167.137 56.4659 163.592 57.0128C160.046 57.5598 161.828 60.7848 164.346 63.0763C173.106 71.1011 174.172 78.249 181.707 81.7003C189.241 85.1517 174.747 62.1898 174.747 62.1898Z" fill="#FFA98C"/>
<path d="M175.898 82.1716L205.131 74.4297C205.131 74.4297 220.775 89.6778 220.407 95.8922C220.172 99.9847 208.148 105.039 193.617 96.722L175.898 82.1716Z" fill="#4668D6"/>
<path d="M208.658 80.5578C205.395 81.6139 202.057 82.4438 198.756 83.3868C195.456 84.3298 192.108 85.1313 188.77 85.9234C186.884 86.3666 184.998 86.8664 183.112 87.2059C183.065 87.2059 183.037 87.1399 183.112 87.121C186.375 86.0649 189.713 85.169 193.004 84.292C196.295 83.4151 199.605 82.5381 202.981 81.7082C204.867 81.2462 206.753 80.7653 208.639 80.4258C208.65 80.4322 208.66 80.4411 208.667 80.4517C208.674 80.4624 208.679 80.4745 208.68 80.4872C208.682 80.4999 208.681 80.5129 208.677 80.5251C208.673 80.5373 208.667 80.5485 208.658 80.5578Z" fill="#263238"/>
<path d="M150.958 98.3157C147.827 98.9381 144.102 94.4117 143.282 90.3946C143.225 90.1023 143.649 87.3582 144.102 83.9728C144.366 81.9171 144.611 79.6162 144.687 77.5039L157.823 81.2287C156.977 83.8426 156.454 86.5503 156.267 89.2913C156.256 89.5816 156.275 89.8723 156.323 90.1588C156.323 90.1588 156.323 90.2531 156.323 90.3097C156.54 91.9222 153.985 97.7028 150.958 98.3157Z" fill="#FFA98C"/>
<path d="M138.735 59.5404C137.17 65.1984 139.81 79.1263 143.884 82.6343C149.778 87.7076 159.236 87.9716 163.508 80.9275C167.638 74.1002 164.074 56.504 159.547 53.3355C152.88 48.6772 141.055 51.2138 138.735 59.5404Z" fill="#FFA98C"/>
<path d="M139.386 56.712C139.386 56.712 136.274 60.2576 135.934 62.2851C135.595 64.3125 136.17 71.9979 139.65 76.8165C140.904 78.5516 140.941 82.2765 142.959 83.5023C144.977 84.7282 153.823 79.2589 154.398 77.6935C154.973 76.1282 153.229 71.1869 152.842 69.1029C152.455 67.0189 154.879 66.5474 155.539 66.8774C159.716 68.952 160.358 74.4213 160.716 73.4783C161.074 72.5354 162.281 69.7064 162.3 67.6884C162.319 65.6704 158.528 59.7107 158.689 58.1076C158.849 56.5045 161.084 57.5324 162.545 57.24C163.441 57.0609 163.055 51.6575 161.81 50.7428C160.565 49.8281 157.934 50.3845 156.803 50.3374C155.671 50.2902 154.256 48.8851 151.248 48.8946C148.24 48.904 144.695 50.6674 143.252 51.2803C140.97 52.2233 139.386 56.712 139.386 56.712Z" fill="#263238"/>
<path d="M159.15 70.6969C159.15 70.6969 155.595 65.7745 153.36 67.0852C151.125 68.396 153.841 75.5722 156.51 76.5152C156.844 76.6602 157.204 76.7361 157.568 76.7383C157.932 76.7406 158.293 76.669 158.629 76.528C158.964 76.387 159.268 76.1795 159.521 75.918C159.775 75.6565 159.972 75.3464 160.103 75.0064L159.15 70.6969Z" fill="#FFA98C"/>
<path d="M154.19 69.082C154.19 69.082 154.19 69.1386 154.19 69.1575C156.076 69.8836 157.066 71.5904 157.774 73.3632C157.663 73.1778 157.514 73.0187 157.335 72.8972C157.157 72.7756 156.955 72.6945 156.742 72.6594C156.529 72.6244 156.311 72.6363 156.103 72.6944C155.895 72.7524 155.703 72.8552 155.539 72.9954C155.492 72.9954 155.539 73.0992 155.595 73.0897C155.92 72.9825 156.271 72.9784 156.598 73.078C156.926 73.1776 157.214 73.376 157.425 73.6461C157.78 74.0961 158.081 74.5867 158.32 75.1077C158.415 75.2681 158.707 75.1737 158.641 74.9851C158.632 72.5711 156.736 69.2801 154.19 69.082Z" fill="#263238"/>
<path d="M162.322 57.2578C163.873 60.4487 164.871 63.8796 165.274 67.4044C165.823 70.9133 165.631 74.4985 164.708 77.9282C165.896 71.0255 164.708 63.7833 162.322 57.2578Z" fill="#263238"/>
<path d="M141.716 89.7431L143.253 84.8867L156.917 89.2905L157.624 92.4024L141.716 89.7431Z" fill="#FFC727"/>
<path d="M110.219 178.355C110.266 178.403 124.222 182.901 129.126 182.901C129.889 182.901 132.341 173.857 132.898 173.914C133.454 173.971 134.642 183.344 135.321 183.344C150.56 183.344 182.471 178.865 182.829 178.497C183.187 178.129 177.935 158.581 177.492 155.997C174.144 136.496 166.176 103.19 158.745 93.5617C155.331 89.1014 145.6 87.0551 142.459 89.2805C127.975 99.5497 118.885 147.548 117.602 153.102C115.99 160.109 109.936 177.988 110.219 178.355Z" fill="#4668D6"/>
<path opacity="0.1" d="M132.653 162.535C132.936 158.575 133.483 152.804 133.86 148.787C134.03 137.82 134.417 126.409 136.689 115.527C135.133 126.57 134.756 137.725 134.417 148.853C133.917 152.87 133.21 158.584 132.616 162.535H132.653Z" fill="black"/>
<path d="M158.105 107.141C184.509 111.026 216.259 106.198 220.192 97.8144C224.586 88.5165 191.761 86.0364 190.205 85.9233C188.036 85.763 174.174 87.6867 155.757 92.5242C137.341 97.3617 151.57 106.179 158.105 107.141Z" fill="#4668D6"/>
<path d="M167.289 108.142C162.876 108.689 158.454 107.793 154.154 106.859C158.595 106.859 162.895 107.717 167.289 108.142Z" fill="#263238"/>
<path d="M154.916 107.774C156.292 107.879 157.675 107.732 158.999 107.34C158.383 107.686 157.704 107.903 157.002 107.977C156.3 108.052 155.59 107.982 154.916 107.774Z" fill="#263238"/>
<path d="M157.556 92.0446C155.638 92.8767 153.589 93.365 151.502 93.4874C153.336 92.4268 155.44 91.9253 157.556 92.0446Z" fill="#263238"/>
<path d="M151.748 92.5449C152.404 92.2856 153.107 92.1636 153.812 92.1863C154.518 92.209 155.211 92.376 155.85 92.677C154.502 92.3833 153.112 92.3386 151.748 92.5449Z" fill="#263238"/>
<path d="M181.638 86.885C184.849 86.0249 188.158 85.5843 191.483 85.5742C194.784 85.8166 198.055 86.3691 201.252 87.2245C196.339 86.8001 191.502 85.876 186.56 86.4701L181.638 86.885Z" fill="#263238"/>
</svg>
