<svg width="297" height="228" viewBox="0 0 297 228" fill="none" xmlns="http://www.w3.org/2000/svg">
<path d="M242.31 0H59.9776C51.586 0 44.7832 7.29136 44.7832 16.2857V211.714C44.7832 220.709 51.586 228 59.9776 228H242.31C250.702 228 257.505 220.709 257.505 211.714V16.2857C257.505 7.29136 250.702 0 242.31 0Z" fill="#E5EBFF"/>
<g filter="url(#filter0_d_2401_22287)">
<path d="M217.796 21H13.5642C9.38659 21 6 24.3866 6 28.5642V66.385C6 70.5625 9.38659 73.9491 13.5642 73.9491H217.796C221.974 73.9491 225.361 70.5625 225.361 66.385V28.5642C225.361 24.3866 221.974 21 217.796 21Z" fill="white"/>
</g>
<path d="M110.385 33.1055H71.0512C68.5446 33.1055 66.5127 35.1374 66.5127 37.644C66.5127 40.1505 68.5446 42.1825 71.0512 42.1825H110.385C112.891 42.1825 114.923 40.1505 114.923 37.644C114.923 35.1374 112.891 33.1055 110.385 33.1055Z" fill="#B4F8D3"/>
<path d="M137.616 52.7734H71.0512C68.5446 52.7734 66.5127 54.8054 66.5127 57.3119C66.5127 59.8185 68.5446 61.8504 71.0512 61.8504H137.616C140.122 61.8504 142.154 59.8185 142.154 57.3119C142.154 54.8054 140.122 52.7734 137.616 52.7734Z" fill="#B4F8D3"/>
<path d="M47.0091 24.6797H18.2653C14.0878 24.6797 10.7012 28.0663 10.7012 32.2438V60.9877C10.7012 65.1652 14.0878 68.5518 18.2653 68.5518H47.0091C51.1867 68.5518 54.5733 65.1652 54.5733 60.9877V32.2438C54.5733 28.0663 51.1867 24.6797 47.0091 24.6797Z" fill="#4CCB86"/>
<g filter="url(#filter1_d_2401_22287)">
<path d="M78.614 86.0547H282.846C284.852 86.0547 286.776 86.8516 288.195 88.2702C289.613 89.6887 290.41 91.6127 290.41 93.6188V131.44C290.41 133.446 289.613 135.37 288.195 136.788C286.776 138.207 284.852 139.004 282.846 139.004H78.614C76.6078 139.004 74.6839 138.207 73.2653 136.788C71.8467 135.37 71.0498 133.446 71.0498 131.44V93.6188C71.0498 91.6127 71.8467 89.6887 73.2653 88.2702C74.6839 86.8516 76.6078 86.0547 78.614 86.0547V86.0547Z" fill="white"/>
</g>
<path d="M175.437 98.1562H136.103C133.596 98.1562 131.564 100.188 131.564 102.695C131.564 105.201 133.596 107.233 136.103 107.233H175.437C177.943 107.233 179.975 105.201 179.975 102.695C179.975 100.188 177.943 98.1562 175.437 98.1562Z" fill="#FDE59F"/>
<path d="M202.668 117.824H136.103C133.596 117.824 131.564 119.856 131.564 122.363C131.564 124.869 133.596 126.901 136.103 126.901H202.668C205.174 126.901 207.206 124.869 207.206 122.363C207.206 119.856 205.174 117.824 202.668 117.824Z" fill="#FDE5A0"/>
<path d="M111.897 90.5898H83.153C78.9755 90.5898 75.5889 93.9764 75.5889 98.154V126.898C75.5889 131.075 78.9755 134.462 83.153 134.462H111.897C116.074 134.462 119.461 131.075 119.461 126.898V98.154C119.461 93.9764 116.074 90.5898 111.897 90.5898Z" fill="#FFC727"/>
<g filter="url(#filter2_d_2401_22287)">
<path d="M13.5642 151.109H217.796C219.803 151.109 221.727 151.906 223.145 153.325C224.564 154.743 225.361 156.667 225.361 158.674V196.494C225.361 198.5 224.564 200.424 223.145 201.843C221.727 203.262 219.803 204.058 217.796 204.058H13.5642C11.558 204.058 9.63405 203.262 8.21549 201.843C6.79694 200.424 6 198.5 6 196.494V158.674C6 156.667 6.79694 154.743 8.21549 153.325C9.63405 151.906 11.558 151.109 13.5642 151.109V151.109Z" fill="white"/>
</g>
<path d="M110.385 163.211H71.0512C68.5446 163.211 66.5127 165.243 66.5127 167.749C66.5127 170.256 68.5446 172.288 71.0512 172.288H110.385C112.891 172.288 114.923 170.256 114.923 167.749C114.923 165.243 112.891 163.211 110.385 163.211Z" fill="#FBDAC2"/>
<path d="M137.616 182.879H71.0512C68.5446 182.879 66.5127 184.911 66.5127 187.417C66.5127 189.924 68.5446 191.956 71.0512 191.956H137.616C140.122 191.956 142.154 189.924 142.154 187.417C142.154 184.911 140.122 182.879 137.616 182.879Z" fill="#FBDAC2"/>
<path d="M46.847 155.645H18.1032C13.9257 155.645 10.5391 159.031 10.5391 163.209V191.952C10.5391 196.13 13.9257 199.517 18.1032 199.517H46.847C51.0246 199.517 54.4112 196.13 54.4112 191.952V163.209C54.4112 159.031 51.0246 155.645 46.847 155.645Z" fill="#FF862D"/>
<path d="M30.682 47.0093V46.9093H30.582H26.7625C26.4513 46.9093 26.1529 46.7857 25.9329 46.5657C25.7129 46.3457 25.5893 46.0473 25.5893 45.7361V39.3701C25.5893 39.059 25.7129 38.7606 25.9329 38.5406C26.1529 38.3205 26.4513 38.1969 26.7625 38.1969H30.582H30.682V38.0969V35.5505C30.682 35.2394 30.8056 34.941 31.0257 34.721C31.2457 34.5009 31.5441 34.3773 31.8552 34.3773C32.1664 34.3773 32.4648 34.5009 32.6848 34.721C32.9048 34.941 33.0284 35.2394 33.0284 35.5505V38.0969V38.1969H33.1284H39.4942C39.6703 38.1978 39.844 38.2383 40.0024 38.3154C40.1608 38.3926 40.2998 38.5045 40.409 38.6427L40.4094 38.6432L42.9558 41.8262L42.9558 41.8262C43.1224 42.0343 43.2132 42.2929 43.2132 42.5595C43.2132 42.826 43.1224 43.0847 42.9558 43.2927L42.9558 43.2928L40.4098 46.4752C40.4098 46.4753 40.4097 46.4754 40.4096 46.4755C40.2992 46.6115 40.1598 46.721 40.0016 46.7961C39.8432 46.8712 39.67 46.9099 39.4948 46.9093H39.4944H33.1284H33.0284V47.0093V57.1949V57.2949H33.1284H35.6748C35.986 57.2949 36.2844 57.4185 36.5044 57.6385C36.7244 57.8585 36.848 58.1569 36.848 58.4681C36.848 58.7792 36.7244 59.0776 36.5044 59.2976C36.2844 59.5177 35.986 59.6413 35.6748 59.6413H28.0356C27.7245 59.6413 27.4261 59.5177 27.2061 59.2976C26.9861 59.0776 26.8625 58.7792 26.8625 58.4681C26.8625 58.1569 26.9861 57.8585 27.2061 57.6385C27.4261 57.4185 27.7245 57.2949 28.0356 57.2949H30.582H30.682V57.1949V47.0093ZM33.2284 47.0093H39.4944L26.7625 38.0969C26.4248 38.0969 26.1009 38.2311 25.8622 38.4698C25.6234 38.7086 25.4893 39.0325 25.4893 39.3701V45.7361C25.4893 46.0738 25.6234 46.3976 25.8622 46.6364C26.1009 46.8752 26.4248 47.0093 26.7625 47.0093H30.482H30.582V47.1093V57.0949V57.1949H30.482H28.0356C27.698 57.1949 27.3741 57.329 27.1354 57.5678C26.8966 57.8065 26.7625 58.1304 26.7625 58.4681C26.7625 58.8057 26.8966 59.1296 27.1354 59.3684C27.3741 59.6071 27.698 59.7413 28.0356 59.7413H35.6748C36.0125 59.7413 36.3363 59.6071 36.5751 59.3684C36.8139 59.1296 36.948 58.8057 36.948 58.4681C36.948 58.1304 36.8139 57.8065 36.5751 57.5678C36.3363 57.329 36.0125 57.1949 35.6748 57.1949H33.2284H33.1284V57.0949V47.1093V47.0093H33.2284ZM28.0356 40.5433H27.9356V40.6433V44.4629V44.5629H28.0356H38.8833H38.9313L38.9614 44.5254L40.4892 42.6156L40.5392 42.5531L40.4892 42.4906L38.9614 40.5809L38.9313 40.5433H38.8833H28.0356Z" fill="white" stroke="#EBEBFF" stroke-width="0.2"/>
<path d="M95.3217 112.826V112.726H95.2217H91.4021C91.091 112.726 90.7925 112.602 90.5725 112.382C90.3525 112.162 90.2289 111.864 90.2289 111.553V105.187C90.2289 104.875 90.3525 104.577 90.5725 104.357C90.7925 104.137 91.091 104.013 91.4021 104.013H95.2217H95.3217V103.913V101.367C95.3217 101.056 95.4453 100.757 95.6653 100.537C95.8853 100.317 96.1837 100.194 96.4949 100.194C96.806 100.194 97.1044 100.317 97.3245 100.537C97.5445 100.757 97.6681 101.056 97.6681 101.367V103.913V104.013H97.7681H104.134C104.31 104.014 104.484 104.055 104.642 104.132C104.8 104.209 104.939 104.321 105.049 104.459L105.049 104.46L107.595 107.643L107.595 107.643C107.762 107.851 107.853 108.109 107.853 108.376C107.853 108.642 107.762 108.901 107.595 109.109L107.595 109.109L105.049 112.292C105.049 112.292 105.049 112.292 105.049 112.292C104.939 112.428 104.799 112.537 104.641 112.613C104.483 112.688 104.31 112.726 104.134 112.726H104.134H97.7681H97.6681V112.826V123.011V123.111H97.7681H100.314C100.626 123.111 100.924 123.235 101.144 123.455C101.364 123.675 101.488 123.973 101.488 124.284C101.488 124.596 101.364 124.894 101.144 125.114C100.924 125.334 100.626 125.458 100.314 125.458H92.6753C92.3641 125.458 92.0657 125.334 91.8457 125.114C91.6257 124.894 91.5021 124.596 91.5021 124.284C91.5021 123.973 91.6257 123.675 91.8457 123.455C92.0657 123.235 92.3641 123.111 92.6753 123.111H95.2217H95.3217V123.011V112.826ZM97.8681 112.826H104.134L91.4021 103.913C91.0644 103.913 90.7406 104.047 90.5018 104.286C90.263 104.525 90.1289 104.849 90.1289 105.187V111.553C90.1289 111.89 90.263 112.214 90.5018 112.453C90.7406 112.692 91.0644 112.826 91.4021 112.826H95.1217H95.2217V112.926V122.911V123.011H95.1217H92.6753C92.3376 123.011 92.0138 123.145 91.775 123.384C91.5362 123.623 91.4021 123.947 91.4021 124.284C91.4021 124.622 91.5362 124.946 91.775 125.185C92.0138 125.424 92.3376 125.558 92.6753 125.558H100.314C100.652 125.558 100.976 125.424 101.215 125.185C101.454 124.946 101.588 124.622 101.588 124.284C101.588 123.947 101.454 123.623 101.215 123.384C100.976 123.145 100.652 123.011 100.314 123.011H97.8681H97.7681V122.911V112.926V112.826H97.8681ZM92.6753 106.36H92.5753V106.46V110.279V110.379H92.6753H103.523H103.571L103.601 110.342L105.129 108.432L105.179 108.37L105.129 108.307L103.601 106.397L103.571 106.36H103.523H92.6753Z" fill="white" stroke="#EBEBFF" stroke-width="0.2"/>
<path d="M30.682 177.466V177.366H30.582H26.7625C26.4513 177.366 26.1529 177.243 25.9329 177.023C25.7129 176.803 25.5893 176.504 25.5893 176.193V169.827C25.5893 169.516 25.7129 169.218 25.9329 168.998C26.1529 168.778 26.4513 168.654 26.7625 168.654H30.582H30.682V168.554V166.008C30.682 165.696 30.8056 165.398 31.0257 165.178C31.2457 164.958 31.5441 164.834 31.8552 164.834C32.1664 164.834 32.4648 164.958 32.6848 165.178C32.9048 165.398 33.0284 165.696 33.0284 166.008V168.554V168.654H33.1284H39.4942C39.6703 168.655 39.844 168.695 40.0024 168.772C40.1608 168.85 40.2998 168.962 40.409 169.1L40.4094 169.1L42.9558 172.283L42.9558 172.283C43.1224 172.491 43.2132 172.75 43.2132 173.017C43.2132 173.283 43.1224 173.542 42.9558 173.75L42.9558 173.75L40.4098 176.932C40.4098 176.932 40.4097 176.932 40.4096 176.933C40.2992 177.069 40.1598 177.178 40.0016 177.253C39.8432 177.328 39.67 177.367 39.4948 177.366H39.4944H33.1284H33.0284V177.466V187.652V187.752H33.1284H35.6748C35.986 187.752 36.2844 187.876 36.5044 188.096C36.7244 188.316 36.848 188.614 36.848 188.925C36.848 189.236 36.7244 189.535 36.5044 189.755C36.2844 189.975 35.986 190.098 35.6748 190.098H28.0356C27.7245 190.098 27.4261 189.975 27.2061 189.755C26.9861 189.535 26.8625 189.236 26.8625 188.925C26.8625 188.614 26.9861 188.316 27.2061 188.096C27.4261 187.876 27.7245 187.752 28.0356 187.752H30.582H30.682V187.652V177.466ZM33.2284 177.466H39.4944L26.7625 168.554C26.4248 168.554 26.1009 168.688 25.8622 168.927C25.6234 169.166 25.4893 169.489 25.4893 169.827V176.193C25.4893 176.531 25.6234 176.855 25.8622 177.093C26.1009 177.332 26.4248 177.466 26.7625 177.466H30.482H30.582V177.566V187.552V187.652H30.482H28.0356C27.698 187.652 27.3741 187.786 27.1354 188.025C26.8966 188.264 26.7625 188.587 26.7625 188.925C26.7625 189.263 26.8966 189.587 27.1354 189.825C27.3741 190.064 27.698 190.198 28.0356 190.198H35.6748C36.0125 190.198 36.3363 190.064 36.5751 189.825C36.8139 189.587 36.948 189.263 36.948 188.925C36.948 188.587 36.8139 188.264 36.5751 188.025C36.3363 187.786 36.0125 187.652 35.6748 187.652H33.2284H33.1284V187.552V177.566V177.466H33.2284ZM28.0356 171H27.9356V171.1V174.92V175.02H28.0356H38.8833H38.9313L38.9614 174.982L40.4892 173.073L40.5392 173.01L40.4892 172.948L38.9614 171.038L38.9313 171H38.8833H28.0356Z" fill="white" stroke="#EBEBFF" stroke-width="0.2"/>
<defs>
<filter id="filter0_d_2401_22287" x="0" y="18" width="231.36" height="64.9492" filterUnits="userSpaceOnUse" color-interpolation-filters="sRGB">
<feFlood flood-opacity="0" result="BackgroundImageFix"/>
<feColorMatrix in="SourceAlpha" type="matrix" values="0 0 0 0 0 0 0 0 0 0 0 0 0 0 0 0 0 0 127 0" result="hardAlpha"/>
<feOffset dy="3"/>
<feGaussianBlur stdDeviation="3"/>
<feColorMatrix type="matrix" values="0 0 0 0 0 0 0 0 0 0 0 0 0 0 0 0 0 0 0.161 0"/>
<feBlend mode="normal" in2="BackgroundImageFix" result="effect1_dropShadow_2401_22287"/>
<feBlend mode="normal" in="SourceGraphic" in2="effect1_dropShadow_2401_22287" result="shape"/>
</filter>
<filter id="filter1_d_2401_22287" x="65.0498" y="83.0547" width="231.36" height="64.9492" filterUnits="userSpaceOnUse" color-interpolation-filters="sRGB">
<feFlood flood-opacity="0" result="BackgroundImageFix"/>
<feColorMatrix in="SourceAlpha" type="matrix" values="0 0 0 0 0 0 0 0 0 0 0 0 0 0 0 0 0 0 127 0" result="hardAlpha"/>
<feOffset dy="3"/>
<feGaussianBlur stdDeviation="3"/>
<feColorMatrix type="matrix" values="0 0 0 0 0 0 0 0 0 0 0 0 0 0 0 0 0 0 0.161 0"/>
<feBlend mode="normal" in2="BackgroundImageFix" result="effect1_dropShadow_2401_22287"/>
<feBlend mode="normal" in="SourceGraphic" in2="effect1_dropShadow_2401_22287" result="shape"/>
</filter>
<filter id="filter2_d_2401_22287" x="0" y="148.109" width="231.36" height="64.9492" filterUnits="userSpaceOnUse" color-interpolation-filters="sRGB">
<feFlood flood-opacity="0" result="BackgroundImageFix"/>
<feColorMatrix in="SourceAlpha" type="matrix" values="0 0 0 0 0 0 0 0 0 0 0 0 0 0 0 0 0 0 127 0" result="hardAlpha"/>
<feOffset dy="3"/>
<feGaussianBlur stdDeviation="3"/>
<feColorMatrix type="matrix" values="0 0 0 0 0 0 0 0 0 0 0 0 0 0 0 0 0 0 0.161 0"/>
<feBlend mode="normal" in2="BackgroundImageFix" result="effect1_dropShadow_2401_22287"/>
<feBlend mode="normal" in="SourceGraphic" in2="effect1_dropShadow_2401_22287" result="shape"/>
</filter>
</defs>
</svg>
