<svg width="21" height="24" viewBox="0 0 21 24" fill="none" xmlns="http://www.w3.org/2000/svg">
<path d="M8.94083 11.8344V17.514C8.94083 17.8093 9.05816 18.0926 9.26701 18.3014C9.47585 18.5103 9.75911 18.6276 10.0545 18.6276C10.3498 18.6276 10.6331 18.5103 10.8419 18.3014C11.0508 18.0926 11.1681 17.8093 11.1681 17.514V11.8344C12.5201 11.5584 13.7215 10.7903 14.5393 9.67887C15.3571 8.56746 15.7331 7.19197 15.5945 5.81908C15.4558 4.44618 14.8122 3.17369 13.7887 2.2483C12.7651 1.32291 11.4343 0.810547 10.0545 0.810547C8.67459 0.810547 7.34386 1.32291 6.32027 2.2483C5.29669 3.17369 4.65317 4.44618 4.51448 5.81908C4.37579 7.19197 4.75181 8.56746 5.56963 9.67887C6.38746 10.7903 7.58883 11.5584 8.94083 11.8344ZM10.0545 3.03668C10.7152 3.03668 11.3612 3.23262 11.9106 3.59973C12.46 3.96683 12.8882 4.48861 13.1411 5.09908C13.3939 5.70955 13.4601 6.3813 13.3312 7.02937C13.2023 7.67744 12.8841 8.27274 12.4168 8.73997C11.9496 9.20721 11.3543 9.5254 10.7062 9.65431C10.0582 9.78322 9.38643 9.71706 8.77596 9.46419C8.16548 9.21132 7.64371 8.78311 7.2766 8.2337C6.9095 7.68429 6.71356 7.03836 6.71356 6.37759C6.71356 5.49153 7.06554 4.64175 7.69209 4.01521C8.31863 3.38867 9.1684 3.03668 10.0545 3.03668ZM14.7429 14.6408C14.5966 14.6101 14.4458 14.6085 14.2989 14.636C14.152 14.6636 14.012 14.7199 13.8869 14.8016C13.7618 14.8833 13.654 14.9888 13.5696 15.1122C13.4853 15.2355 13.4261 15.3743 13.3954 15.5205C13.3647 15.6668 13.3631 15.8177 13.3907 15.9645C13.4182 16.1114 13.4745 16.2514 13.5562 16.3765C13.6379 16.5016 13.7434 16.6094 13.8668 16.6938C13.9901 16.7781 14.1289 16.8373 14.2751 16.868C16.8031 17.3692 17.8499 18.2712 17.8499 18.6276C17.8499 19.2735 15.1215 20.8549 10.0545 20.8549C4.98742 20.8549 2.25901 19.2735 2.25901 18.6276C2.25901 18.2712 3.30583 17.3692 5.83378 16.8235C5.98003 16.7928 6.11879 16.7336 6.24215 16.6492C6.36551 16.5649 6.47105 16.4571 6.55275 16.332C6.63444 16.2068 6.69069 16.0668 6.71828 15.92C6.74587 15.7731 6.74427 15.6222 6.71356 15.476C6.68285 15.3298 6.62363 15.191 6.53929 15.0676C6.45495 14.9443 6.34714 14.8387 6.22201 14.757C6.09689 14.6753 5.95689 14.6191 5.81003 14.5915C5.66316 14.5639 5.5123 14.5655 5.36606 14.5962C1.9806 15.3758 0.0317383 16.8346 0.0317383 18.6276C0.0317383 21.5565 5.07651 23.0821 10.0545 23.0821C15.0324 23.0821 20.0772 21.5565 20.0772 18.6276C20.0772 16.8346 18.1283 15.3758 14.7429 14.6408Z" fill="white"/>
</svg>
