<svg width="42" height="42" viewBox="0 0 42 42" fill="none" xmlns="http://www.w3.org/2000/svg">
<circle cx="21" cy="21" r="21" fill="#FFEBDC"/>
<path d="M31.1141 11.332H12.1141C11.8621 11.332 11.6205 11.4321 11.4423 11.6103C11.2642 11.7884 11.1641 12.0301 11.1641 12.282V19.882C11.1641 20.134 11.2642 20.3756 11.4423 20.5538C11.6205 20.7319 11.8621 20.832 12.1141 20.832H14.9641V29.382C14.9641 29.634 15.0642 29.8756 15.2423 30.0538C15.4205 30.2319 15.6621 30.332 15.9141 30.332H27.3141C27.566 30.332 27.8077 30.2319 27.9858 30.0538C28.164 29.8756 28.2641 29.634 28.2641 29.382V20.832H31.1141C31.366 20.832 31.6077 20.7319 31.7858 20.5538C31.964 20.3756 32.0641 20.134 32.0641 19.882V12.282C32.0641 12.0301 31.964 11.7884 31.7858 11.6103C31.6077 11.4321 31.366 11.332 31.1141 11.332ZM16.8641 28.432V26.532C17.368 26.532 17.8512 26.7322 18.2076 27.0885C18.5639 27.4448 18.7641 27.9281 18.7641 28.432H16.8641ZM26.3641 28.432H24.4641C24.4641 27.9281 24.6642 27.4448 25.0206 27.0885C25.3769 26.7322 25.8602 26.532 26.3641 26.532V28.432ZM26.3641 24.632C25.3562 24.632 24.3897 25.0324 23.6771 25.745C22.9644 26.4577 22.5641 27.4242 22.5641 28.432H20.6641C20.6641 27.4242 20.2637 26.4577 19.5511 25.745C18.8384 25.0324 17.8719 24.632 16.8641 24.632V17.032H26.3641V24.632ZM30.1641 18.932H28.2641V16.082C28.2641 15.8301 28.164 15.5884 27.9858 15.4103C27.8077 15.2321 27.566 15.132 27.3141 15.132H15.9141C15.6621 15.132 15.4205 15.2321 15.2423 15.4103C15.0642 15.5884 14.9641 15.8301 14.9641 16.082V18.932H13.0641V13.232H30.1641V18.932ZM21.6141 23.682C22.1777 23.682 22.7288 23.5149 23.1974 23.2017C23.6661 22.8886 24.0314 22.4434 24.2471 21.9227C24.4628 21.4019 24.5193 20.8289 24.4093 20.276C24.2993 19.7232 24.0279 19.2154 23.6293 18.8168C23.2307 18.4182 22.7229 18.1468 22.1701 18.0368C21.6172 17.9268 21.0442 17.9833 20.5234 18.199C20.0026 18.4147 19.5575 18.78 19.2444 19.2487C18.9312 19.7173 18.7641 20.2684 18.7641 20.832C18.7641 21.5879 19.0643 22.3128 19.5988 22.8473C20.1333 23.3818 20.8582 23.682 21.6141 23.682ZM21.6141 19.882C21.802 19.882 21.9856 19.9377 22.1419 20.0421C22.2981 20.1465 22.4198 20.2949 22.4917 20.4685C22.5637 20.6421 22.5825 20.8331 22.5458 21.0174C22.5092 21.2016 22.4187 21.3709 22.2858 21.5038C22.153 21.6366 21.9837 21.7271 21.7994 21.7638C21.6151 21.8004 21.4241 21.7816 21.2505 21.7097C21.0769 21.6378 20.9286 21.5161 20.8242 21.3598C20.7198 21.2036 20.6641 21.0199 20.6641 20.832C20.6641 20.5801 20.7642 20.3384 20.9423 20.1603C21.1205 19.9821 21.3621 19.882 21.6141 19.882Z" fill="#FF862D" stroke="#FFEBDC" stroke-width="0.5"/>
</svg>
