<svg width="384" height="360" viewBox="0 0 384 360" fill="none" xmlns="http://www.w3.org/2000/svg">
<path d="M31.5698 318.142L72.0994 317.921L112.629 317.85L193.679 317.7L274.73 317.85L315.259 317.921L355.789 318.142L315.259 318.354L274.73 318.434L193.679 318.584L112.629 318.434L72.0994 318.354L31.5698 318.142Z" fill="#263238"/>
<path d="M48.6845 359.945C70.3161 359.945 87.8519 356.579 87.8519 352.426C87.8519 348.274 70.3161 344.908 48.6845 344.908C27.0529 344.908 9.51709 348.274 9.51709 352.426C9.51709 356.579 27.0529 359.945 48.6845 359.945Z" fill="#DCDCDC"/>
<path d="M206.035 356.601C291.243 356.601 360.317 349.113 360.317 339.875C360.317 330.637 291.243 323.148 206.035 323.148C120.828 323.148 51.7539 330.637 51.7539 339.875C51.7539 349.113 120.828 356.601 206.035 356.601Z" fill="#DCDCDC"/>
<path d="M290.616 0.442139H220.64V45.0848H290.616V0.442139Z" fill="white"/>
<path d="M291.058 45.5272H220.215V0H291.075L291.058 45.5272ZM221.082 44.6427H290.173V0.884539H221.099L221.082 44.6427Z" fill="#EBEBEB"/>
<path d="M290.616 0.442139H220.64V8.88064H290.616V0.442139Z" fill="#4668D6"/>
<path d="M291.058 9.33189H220.215V0H291.075L291.058 9.33189ZM221.082 8.44735H290.173V0.884539H221.099L221.082 8.44735Z" fill="#EBEBEB"/>
<path d="M228.556 4.72345C228.551 5.14101 228.423 5.54775 228.188 5.89276C227.952 6.23778 227.621 6.50574 227.234 6.66312C226.847 6.8205 226.422 6.8603 226.013 6.77754C225.604 6.69478 225.228 6.49314 224.933 6.19786C224.637 5.90257 224.436 5.52676 224.353 5.11745C224.27 4.70814 224.31 4.2835 224.467 3.8967C224.625 3.50989 224.893 3.1781 225.238 2.94283C225.583 2.70756 225.989 2.57927 226.407 2.57402C226.69 2.57046 226.971 2.62362 227.234 2.73038C227.496 2.83713 227.734 2.99532 227.935 3.19563C228.135 3.39594 228.293 3.63431 228.4 3.8967C228.507 4.15909 228.56 4.4402 228.556 4.72345Z" fill="#A6A6A6"/>
<path d="M237.234 4.72348C237.234 5.14335 237.109 5.55379 236.876 5.9029C236.643 6.25201 236.311 6.5241 235.923 6.68478C235.535 6.84546 235.108 6.8875 234.697 6.80558C234.285 6.72367 233.906 6.52149 233.61 6.2246C233.313 5.92771 233.11 5.54944 233.029 5.13764C232.947 4.72584 232.989 4.29899 233.149 3.91108C233.31 3.52318 233.582 3.19162 233.931 2.95836C234.28 2.72509 234.691 2.60059 235.111 2.60059C235.674 2.60059 236.214 2.82425 236.612 3.22237C237.01 3.62049 237.234 4.16046 237.234 4.72348Z" fill="#EBEBEB"/>
<path d="M245.911 4.72348C245.911 5.14335 245.787 5.55379 245.553 5.9029C245.32 6.25201 244.988 6.5241 244.601 6.68478C244.213 6.84546 243.786 6.8875 243.374 6.80558C242.962 6.72367 242.584 6.52149 242.287 6.2246C241.99 5.92771 241.788 5.54944 241.706 5.13764C241.624 4.72584 241.666 4.29899 241.827 3.91108C241.988 3.52318 242.26 3.19162 242.609 2.95836C242.958 2.72509 243.368 2.60059 243.788 2.60059C244.351 2.60059 244.891 2.82425 245.289 3.22237C245.687 3.62049 245.911 4.16046 245.911 4.72348Z" fill="white"/>
<path d="M232.714 25.5722C232.755 23.3126 233.682 21.1597 235.295 19.5766C236.908 17.9935 239.078 17.1068 241.338 17.1072C243.296 17.1043 245.2 17.7514 246.751 18.947C247.02 19.1745 247.193 19.4948 247.235 19.844C247.278 20.1933 247.187 20.5458 246.981 20.8311C246.762 21.1067 246.444 21.2871 246.095 21.3348C245.746 21.3826 245.392 21.2941 245.106 21.0876C244.032 20.2248 242.689 19.7676 241.311 19.7962C239.739 19.8019 238.227 20.4059 237.083 21.4857C236.001 22.5704 235.394 24.0401 235.394 25.5722C235.393 26.3334 235.544 27.0871 235.839 27.789C236.133 28.4908 236.566 29.1266 237.11 29.6588C238.252 30.7417 239.764 31.349 241.338 31.3571C242.715 31.378 244.057 30.9182 245.133 30.0568C245.423 29.8635 245.775 29.7837 246.121 29.8326C246.466 29.8816 246.782 30.0558 247.008 30.3222C247.213 30.61 247.3 30.965 247.253 31.315C247.205 31.6651 247.026 31.9838 246.751 32.2063C245.195 33.4111 243.279 34.059 241.311 34.0461C239.053 34.0441 236.886 33.1545 235.278 31.5693C233.669 29.9841 232.748 27.8302 232.714 25.5722Z" fill="#EBEBEB"/>
<path d="M251.05 29.9948C251.258 29.7486 251.555 29.594 251.876 29.5642C252.197 29.5345 252.517 29.6319 252.766 29.8356C254.035 30.8927 255.611 31.513 257.26 31.6047C258.306 31.6185 259.332 31.3096 260.197 30.7201C260.49 30.5405 260.735 30.292 260.911 29.996C261.087 29.7 261.188 29.3656 261.205 29.0218C261.212 28.7567 261.141 28.4952 261.001 28.27C260.822 27.9863 260.58 27.7474 260.294 27.5712C259.299 27.0034 258.207 26.6255 257.074 26.4567H257.021C255.977 26.2894 254.958 25.9922 253.987 25.5721C253.099 25.1825 252.341 24.5472 251.802 23.7411C251.444 23.1623 251.257 22.4937 251.263 21.8128C251.284 21.1328 251.466 20.4674 251.793 19.8709C252.121 19.2745 252.584 18.7639 253.147 18.3808C254.338 17.5478 255.762 17.1114 257.216 17.1336C259.073 17.2288 260.858 17.8824 262.337 19.0088C262.601 19.1884 262.783 19.4646 262.844 19.7775C262.905 20.0905 262.841 20.415 262.664 20.6806C262.581 20.8158 262.471 20.9326 262.341 21.024C262.211 21.1155 262.064 21.1797 261.908 21.2128C261.753 21.2458 261.593 21.2471 261.437 21.2164C261.281 21.1858 261.133 21.1239 261.001 21.0344C259.921 20.1617 258.601 19.6373 257.216 19.5307C256.269 19.5106 255.341 19.7891 254.562 20.3268C254.307 20.4859 254.093 20.7038 253.939 20.9623C253.785 21.2209 253.696 21.5125 253.677 21.8128C253.662 22.0434 253.721 22.2728 253.845 22.4674C254.011 22.7113 254.225 22.9189 254.474 23.0777C255.377 23.6137 256.379 23.9655 257.419 24.1126H257.463C258.582 24.3098 259.672 24.6424 260.71 25.1033C261.662 25.517 262.476 26.1955 263.054 27.0582C263.424 27.6557 263.62 28.3451 263.62 29.0484C263.592 29.7642 263.396 30.4634 263.047 31.089C262.698 31.7147 262.206 32.249 261.612 32.6484C260.337 33.5391 258.815 34.0064 257.26 33.9841C255.049 33.8766 252.934 33.0504 251.236 31.6312C251.013 31.4266 250.872 31.1484 250.838 30.8477C250.803 30.5471 250.879 30.2442 251.05 29.9948Z" fill="#EBEBEB"/>
<path d="M266.503 29.9948C266.711 29.7486 267.007 29.594 267.328 29.5642C267.649 29.5345 267.969 29.6319 268.219 29.8356C269.484 30.8926 271.057 31.513 272.703 31.6047C273.753 31.6186 274.781 31.3098 275.649 30.7201C275.941 30.5388 276.185 30.2899 276.361 29.9942C276.536 29.6986 276.638 29.3651 276.657 29.0218C276.662 28.7558 276.588 28.4943 276.445 28.27C276.265 27.9863 276.023 27.7474 275.737 27.5712C274.743 27.0034 273.651 26.6255 272.518 26.4567H272.473C271.429 26.2894 270.41 25.9922 269.44 25.5721C268.55 25.1851 267.791 24.5493 267.255 23.7411C266.893 23.1631 266.703 22.4945 266.706 21.8128C266.73 21.1332 266.912 20.4686 267.24 19.8725C267.567 19.2764 268.03 18.7654 268.59 18.3808C269.782 17.5478 271.206 17.1114 272.659 17.1336C274.516 17.2288 276.301 17.8824 277.781 19.0088C278.046 19.187 278.23 19.4626 278.293 19.7756C278.356 20.0887 278.292 20.4139 278.117 20.6806C278.032 20.8161 277.922 20.933 277.791 21.0246C277.66 21.1162 277.512 21.1804 277.356 21.2134C277.2 21.2465 277.039 21.2476 276.882 21.2169C276.726 21.1861 276.577 21.1241 276.445 21.0344C275.364 20.1617 274.044 19.6373 272.659 19.5307C271.713 19.5106 270.785 19.7891 270.006 20.3268C269.75 20.4859 269.537 20.7038 269.383 20.9623C269.229 21.2209 269.139 21.5125 269.121 21.8128C269.11 22.043 269.168 22.2712 269.289 22.4674C269.456 22.7134 269.673 22.9213 269.926 23.0777C270.827 23.6126 271.825 23.9643 272.863 24.1126H272.907C274.026 24.3072 275.116 24.64 276.153 25.1033C277.108 25.5169 277.925 26.1952 278.506 27.0582C278.877 27.6557 279.073 28.3451 279.072 29.0484C279.043 29.7648 278.845 30.4643 278.495 31.0899C278.144 31.7154 277.651 32.2494 277.055 32.6484C275.782 33.5408 274.259 34.0082 272.703 33.9841C270.495 33.8785 268.382 33.052 266.689 31.6312C266.462 31.4287 266.319 31.1501 266.284 30.8484C266.25 30.5467 266.328 30.2429 266.503 29.9948Z" fill="#EBEBEB"/>
<path d="M338.911 41.3345H243.337V109.011H338.911V41.3345Z" fill="white"/>
<path d="M339.362 109.453H242.895V40.8923H339.362V109.453ZM243.779 108.568H338.478V41.7769H243.779V108.568Z" fill="#EBEBEB"/>
<path d="M338.911 41.3345H243.337V49.773H338.911V41.3345Z" fill="#4668D6"/>
<path d="M339.362 50.2242H242.895V40.8923H339.362V50.2242ZM243.779 49.3397H338.478V41.7769H243.779V49.3397Z" fill="#EBEBEB"/>
<path d="M251.263 45.6154C251.263 46.0353 251.138 46.4458 250.905 46.7949C250.672 47.144 250.34 47.4161 249.952 47.5767C249.564 47.7374 249.138 47.7795 248.726 47.6976C248.314 47.6156 247.936 47.4135 247.639 47.1166C247.342 46.8197 247.14 46.4414 247.058 46.0296C246.976 45.6178 247.018 45.191 247.179 44.8031C247.339 44.4151 247.611 44.0836 247.961 43.8503C248.31 43.6171 248.72 43.4926 249.14 43.4926C249.419 43.4926 249.695 43.5475 249.952 43.6541C250.21 43.7608 250.444 43.9172 250.641 44.1143C250.838 44.3115 250.995 44.5455 251.101 44.8031C251.208 45.0606 251.263 45.3367 251.263 45.6154Z" fill="#A6A6A6"/>
<path d="M259.939 45.6155C259.941 46.0378 259.817 46.4512 259.584 46.8031C259.35 47.155 259.018 47.4296 258.628 47.5921C258.238 47.7545 257.808 47.7975 257.394 47.7155C256.98 47.6335 256.599 47.4303 256.3 47.1317C256.002 46.833 255.799 46.4524 255.717 46.038C255.635 45.6237 255.678 45.1943 255.84 44.8044C256.002 44.4145 256.277 44.0817 256.629 43.8481C256.981 43.6146 257.394 43.4908 257.817 43.4926C258.095 43.4926 258.371 43.5475 258.629 43.6542C258.887 43.7609 259.121 43.9172 259.318 44.1144C259.515 44.3115 259.671 44.5455 259.778 44.8031C259.885 45.0606 259.939 45.3367 259.939 45.6155Z" fill="#EBEBEB"/>
<path d="M268.617 45.6155C268.619 46.0375 268.495 46.4505 268.262 46.8022C268.029 47.1539 267.697 47.4285 267.307 47.5912C266.918 47.7539 266.489 47.7974 266.075 47.7162C265.661 47.6349 265.28 47.4326 264.981 47.1348C264.682 46.837 264.478 46.4572 264.395 46.0435C264.312 45.6297 264.354 45.2006 264.515 44.8106C264.676 44.4205 264.949 44.0871 265.3 43.8525C265.651 43.6178 266.063 43.4926 266.485 43.4926C266.765 43.4914 267.042 43.5455 267.3 43.6516C267.559 43.7578 267.794 43.914 267.992 44.1112C268.19 44.3085 268.347 44.5429 268.455 44.801C268.562 45.0592 268.617 45.3359 268.617 45.6155Z" fill="white"/>
<path d="M256.906 66.5704H252.395V68.2157H256.906V66.5704Z" fill="#EBEBEB"/>
<path d="M290.846 66.5704H260.197V68.2157H290.846V66.5704Z" fill="#EBEBEB"/>
<path d="M302.185 66.5704H293.614V68.2157H302.185V66.5704Z" fill="#4668D6"/>
<path d="M321.796 88.631H313.225V90.2762H321.796V88.631Z" fill="#EBEBEB"/>
<path d="M318.868 66.5704H304.052V68.2157H318.868V66.5704Z" fill="#A6A6A6"/>
<path d="M261.416 70.9844H256.905V72.6296H261.416V70.9844Z" fill="#EBEBEB"/>
<path d="M284.494 70.9844H264.601V72.6296H284.494V70.9844Z" fill="#A6A6A6"/>
<path d="M311.191 88.631H291.297V90.2762H311.191V88.631Z" fill="#A6A6A6"/>
<path d="M278.568 84.217H260.197V85.8623H278.568V84.217Z" fill="#A6A6A6"/>
<path d="M273.287 75.3983H264.601V77.0436H273.287V75.3983Z" fill="#4668D6"/>
<path d="M308.041 79.8118H299.355V81.457H308.041V79.8118Z" fill="#A6A6A6"/>
<path d="M305.122 75.3983H275.809V77.0436H305.122V75.3983Z" fill="#A6A6A6"/>
<path d="M289.51 88.631H260.197V90.2762H289.51V88.631Z" fill="#4668D6"/>
<path d="M326.617 70.9844H303.097V72.6296H326.617V70.9844Z" fill="#4668D6"/>
<path d="M301.239 70.9844H286.626V72.6296H301.239V70.9844Z" fill="#EBEBEB"/>
<path d="M321.442 75.3983H306.829V77.0436H321.442V75.3983Z" fill="#EBEBEB"/>
<path d="M261.416 75.3983H256.905V77.0436H261.416V75.3983Z" fill="#EBEBEB"/>
<path d="M256.906 79.8118H252.395V81.457H256.906V79.8118Z" fill="#A6A6A6"/>
<path d="M272.784 79.8118H260.197V81.457H272.784V79.8118Z" fill="#EBEBEB"/>
<path d="M277.188 93.0446H264.601V94.6898H277.188V93.0446Z" fill="#EBEBEB"/>
<path d="M313.49 97.4584H293.208V99.1036H313.49V97.4584Z" fill="#4668D6"/>
<path d="M299.063 93.0446H279.356V94.6898H299.063V93.0446Z" fill="#4668D6"/>
<path d="M290.872 97.4584H274.632V99.1036H290.872V97.4584Z" fill="#EBEBEB"/>
<path d="M326.617 93.0446H301.372V94.6898H326.617V93.0446Z" fill="#A6A6A6"/>
<path d="M272.323 97.4584H264.601V99.1036H272.323V97.4584Z" fill="#A6A6A6"/>
<path d="M302.185 84.217H280.399V85.8623H302.185V84.217Z" fill="#EBEBEB"/>
<path d="M322.397 84.217H304.052V85.8623H322.397V84.217Z" fill="#4668D6"/>
<path d="M297.25 79.8118H275.499V81.457H297.25V79.8118Z" fill="#4668D6"/>
<path d="M256.906 84.217H252.395V85.8623H256.906V84.217Z" fill="#EBEBEB"/>
<path d="M256.906 88.631H252.395V90.2762H256.906V88.631Z" fill="#EBEBEB"/>
<path d="M261.416 93.0446H256.905V94.6898H261.416V93.0446Z" fill="#A6A6A6"/>
<path d="M261.416 97.4584H256.905V99.1036H261.416V97.4584Z" fill="#EBEBEB"/>
<path d="M256.765 62.4311L258.278 58.8133C258.316 58.732 258.384 58.6684 258.468 58.6355C258.552 58.6026 258.645 58.603 258.729 58.6364C258.809 58.6732 258.873 58.7397 258.906 58.8221C258.939 58.9045 258.939 58.9963 258.906 59.0787L257.366 62.723C257.34 62.7828 257.296 62.8337 257.241 62.8698C257.186 62.9058 257.122 62.9255 257.057 62.9264C257.016 62.9356 256.974 62.9356 256.933 62.9264C256.885 62.9106 256.841 62.8837 256.805 62.848C256.769 62.8123 256.742 62.7687 256.725 62.7207C256.709 62.6727 256.704 62.6215 256.711 62.5712C256.718 62.5209 256.736 62.473 256.765 62.4311Z" fill="#4668D6"/>
<path d="M261.904 60.9535L261.86 60.9978L260.09 62.7668C260.055 62.8038 260.013 62.8332 259.965 62.853C259.918 62.8727 259.867 62.8826 259.816 62.8818C259.764 62.8827 259.712 62.873 259.663 62.8533C259.614 62.8335 259.57 62.8041 259.533 62.7668C259.46 62.6924 259.419 62.5924 259.419 62.4882C259.419 62.384 259.46 62.284 259.533 62.2096L261.002 60.7324L259.533 59.2464C259.46 59.172 259.419 59.0719 259.419 58.9677C259.419 58.8635 259.46 58.7635 259.533 58.6891C259.61 58.6201 259.709 58.5819 259.812 58.5819C259.915 58.5819 260.014 58.6201 260.09 58.6891L261.86 60.4582H261.904V60.5201V60.5732V60.7324C261.905 60.753 261.905 60.7737 261.904 60.7943C261.888 60.8178 261.879 60.8455 261.879 60.8739C261.879 60.9023 261.888 60.93 261.904 60.9535Z" fill="#4668D6"/>
<path d="M383.076 103.093H313.101V147.736H383.076V103.093Z" fill="white"/>
<path d="M383.519 148.169H312.658V102.651H383.519V148.169ZM313.543 147.285H382.634V103.536H313.543V147.285Z" fill="#EBEBEB"/>
<path d="M383.076 103.093H313.101V111.532H383.076V103.093Z" fill="#4668D6"/>
<path d="M383.519 111.974H312.658V102.651H383.519V111.974ZM313.543 111.09H382.634V103.536H313.543V111.09Z" fill="#EBEBEB"/>
<path d="M321.053 107.374C321.055 107.796 320.931 108.209 320.698 108.561C320.465 108.912 320.133 109.187 319.743 109.35C319.354 109.512 318.925 109.556 318.511 109.475C318.097 109.393 317.716 109.191 317.417 108.893C317.118 108.596 316.914 108.216 316.831 107.802C316.748 107.388 316.79 106.959 316.951 106.569C317.112 106.179 317.385 105.846 317.736 105.611C318.087 105.376 318.499 105.251 318.921 105.251C319.201 105.25 319.478 105.304 319.736 105.41C319.995 105.516 320.23 105.673 320.428 105.87C320.626 106.067 320.783 106.301 320.891 106.56C320.998 106.818 321.053 107.094 321.053 107.374Z" fill="#A6A6A6"/>
<path d="M329.694 107.374C329.694 107.794 329.57 108.204 329.337 108.553C329.103 108.903 328.772 109.175 328.384 109.335C327.996 109.496 327.569 109.538 327.157 109.456C326.745 109.374 326.367 109.172 326.07 108.875C325.773 108.578 325.571 108.2 325.489 107.788C325.407 107.376 325.449 106.95 325.61 106.562C325.771 106.174 326.043 105.842 326.392 105.609C326.741 105.376 327.152 105.251 327.571 105.251C327.85 105.25 328.127 105.304 328.385 105.41C328.643 105.517 328.878 105.673 329.075 105.87C329.272 106.068 329.429 106.302 329.535 106.56C329.641 106.818 329.695 107.095 329.694 107.374Z" fill="#EBEBEB"/>
<path d="M338.372 107.374C338.372 107.794 338.247 108.204 338.014 108.553C337.78 108.903 337.449 109.175 337.061 109.335C336.673 109.496 336.246 109.538 335.834 109.456C335.423 109.374 335.044 109.172 334.748 108.875C334.451 108.578 334.248 108.2 334.167 107.788C334.085 107.376 334.127 106.95 334.287 106.562C334.448 106.174 334.72 105.842 335.069 105.609C335.418 105.376 335.829 105.251 336.249 105.251C336.528 105.25 336.804 105.304 337.062 105.41C337.321 105.517 337.555 105.673 337.752 105.87C337.95 106.068 338.106 106.302 338.212 106.56C338.319 106.818 338.373 107.095 338.372 107.374Z" fill="white"/>
<path d="M326.166 128.222C326.21 125.964 327.137 123.812 328.75 122.229C330.362 120.647 332.531 119.759 334.79 119.757C336.756 119.743 338.669 120.391 340.221 121.597C340.477 121.825 340.637 122.14 340.669 122.481C340.702 122.822 340.604 123.162 340.395 123.433C340.186 123.705 339.883 123.887 339.545 123.944C339.208 124 338.861 123.927 338.576 123.738C337.506 122.873 336.166 122.412 334.79 122.438C333.216 122.446 331.704 123.053 330.562 124.136C330.021 124.671 329.591 125.307 329.297 126.008C329.003 126.71 328.849 127.462 328.846 128.222C328.844 128.985 328.995 129.74 329.29 130.444C329.585 131.147 330.017 131.784 330.562 132.318C331.706 133.398 333.217 134.002 334.79 134.007C336.164 134.033 337.504 133.576 338.576 132.716C338.867 132.521 339.219 132.439 339.567 132.487C339.914 132.534 340.232 132.707 340.46 132.972C340.667 133.258 340.757 133.612 340.713 133.962C340.669 134.312 340.493 134.632 340.221 134.857C338.666 136.056 336.754 136.701 334.79 136.688C332.528 136.695 330.354 135.81 328.74 134.226C327.126 132.641 326.201 130.484 326.166 128.222Z" fill="#EBEBEB"/>
<path d="M348.712 129.709H345.369C345.026 129.709 344.698 129.573 344.456 129.331C344.213 129.089 344.077 128.76 344.077 128.418C344.08 128.075 344.216 127.747 344.458 127.504C344.699 127.261 345.026 127.122 345.369 127.117H348.712V123.853C348.71 123.677 348.743 123.502 348.809 123.338C348.875 123.174 348.973 123.026 349.098 122.901C349.222 122.775 349.37 122.676 349.533 122.609C349.697 122.542 349.872 122.508 350.048 122.509C350.405 122.509 350.747 122.65 350.999 122.903C351.251 123.155 351.393 123.497 351.393 123.853V127.117H354.727C355.07 127.122 355.397 127.261 355.638 127.504C355.88 127.747 356.016 128.075 356.019 128.418C356.019 128.76 355.883 129.089 355.64 129.331C355.398 129.573 355.07 129.709 354.727 129.709H351.393V132.973C351.393 133.33 351.251 133.671 350.999 133.924C350.747 134.176 350.405 134.317 350.048 134.317C349.872 134.319 349.697 134.285 349.533 134.217C349.37 134.15 349.222 134.051 349.098 133.926C348.973 133.801 348.875 133.652 348.809 133.488C348.743 133.325 348.71 133.149 348.712 132.973V129.709Z" fill="#EBEBEB"/>
<path d="M363.289 129.709H359.972C359.63 129.709 359.301 129.573 359.059 129.331C358.817 129.089 358.681 128.76 358.681 128.418C358.683 128.075 358.82 127.747 359.061 127.504C359.303 127.261 359.63 127.122 359.972 127.117H363.316V123.853C363.314 123.677 363.346 123.502 363.413 123.338C363.479 123.174 363.577 123.026 363.701 122.901C363.826 122.775 363.974 122.676 364.137 122.609C364.3 122.542 364.475 122.508 364.652 122.509C365.007 122.511 365.348 122.654 365.6 122.905C365.851 123.157 365.994 123.497 365.996 123.853V127.117H369.331C369.673 127.122 370 127.261 370.242 127.504C370.483 127.747 370.62 128.075 370.622 128.418C370.622 128.76 370.486 129.089 370.244 129.331C370.002 129.573 369.673 129.709 369.331 129.709H365.996V132.973C365.994 133.329 365.851 133.669 365.6 133.921C365.348 134.173 365.007 134.315 364.652 134.317C364.475 134.319 364.3 134.285 364.137 134.217C363.974 134.15 363.826 134.051 363.701 133.926C363.577 133.801 363.479 133.652 363.413 133.488C363.346 133.325 363.314 133.149 363.316 132.973L363.289 129.709Z" fill="#EBEBEB"/>
<path d="M371.914 28.9246H324.246V46.5711H371.914V28.9246Z" fill="#455A64"/>
<path d="M331.127 41.4142V33.586C331.126 33.4893 331.144 33.3933 331.181 33.3037C331.217 33.2141 331.271 33.1327 331.34 33.0642C331.408 32.9958 331.49 32.9418 331.579 32.9053C331.669 32.8688 331.765 32.8507 331.862 32.8519C331.959 32.8507 332.055 32.8688 332.145 32.9052C332.235 32.9416 332.317 32.9954 332.387 33.0637C332.456 33.132 332.511 33.2134 332.548 33.303C332.585 33.3927 332.605 33.4889 332.605 33.586V36.7704H336.037V33.586C336.035 33.4893 336.054 33.3933 336.09 33.3037C336.127 33.2141 336.181 33.1327 336.249 33.0642C336.317 32.9958 336.399 32.9418 336.489 32.9053C336.578 32.8688 336.674 32.8507 336.771 32.8519C336.868 32.8507 336.964 32.8688 337.055 32.9052C337.145 32.9416 337.227 32.9954 337.296 33.0637C337.365 33.132 337.42 33.2134 337.457 33.303C337.495 33.3927 337.514 33.4889 337.514 33.586V41.4142C337.513 41.5106 337.493 41.6059 337.455 41.6945C337.417 41.7831 337.362 41.8634 337.293 41.9308C337.224 41.9981 337.142 42.0512 337.052 42.087C336.963 42.1229 336.867 42.1407 336.771 42.1395C336.675 42.1419 336.579 42.1248 336.489 42.0894C336.4 42.0539 336.318 42.0007 336.25 41.933C336.181 41.8652 336.127 41.7844 336.09 41.6953C336.054 41.6061 336.035 41.5105 336.037 41.4142V38.2299H332.605V41.4142C332.604 41.5106 332.583 41.6059 332.545 41.6945C332.507 41.7831 332.452 41.8634 332.383 41.9308C332.314 41.9981 332.233 42.0512 332.143 42.087C332.054 42.1229 331.958 42.1407 331.862 42.1395C331.765 42.1419 331.67 42.1248 331.58 42.0894C331.49 42.0539 331.409 42.0007 331.34 41.933C331.272 41.8652 331.218 41.7844 331.181 41.6953C331.144 41.6061 331.126 41.5105 331.127 41.4142Z" fill="white"/>
<path d="M346.218 34.329H344.104V41.4054C344.105 41.5009 344.087 41.5958 344.051 41.6843C344.015 41.7729 343.962 41.8533 343.894 41.9209C343.827 41.9885 343.746 42.0419 343.658 42.0779C343.569 42.1139 343.474 42.1319 343.379 42.1307C343.186 42.1307 343 42.0546 342.863 41.9188C342.725 41.783 342.647 41.5985 342.645 41.4054V34.329H340.513C340.416 34.3279 340.321 34.3078 340.233 34.2698C340.144 34.2318 340.064 34.1768 339.996 34.1078C339.929 34.0388 339.876 33.9572 339.84 33.8677C339.804 33.7781 339.786 33.6824 339.788 33.586C339.785 33.4897 339.802 33.3939 339.838 33.3043C339.873 33.2148 339.926 33.1333 339.994 33.0647C340.062 32.9962 340.143 32.942 340.232 32.9054C340.321 32.8689 340.417 32.8506 340.513 32.8519H346.183C346.279 32.8519 346.374 32.8709 346.462 32.9079C346.551 32.9449 346.631 32.9991 346.699 33.0674C346.766 33.1357 346.82 33.2167 346.855 33.3057C346.891 33.3948 346.909 33.49 346.908 33.586C346.909 33.7742 346.838 33.9556 346.71 34.0935C346.582 34.2314 346.406 34.3156 346.218 34.329Z" fill="white"/>
<path d="M357.124 33.586V41.4142C357.12 41.6082 357.039 41.7926 356.901 41.9282C356.762 42.0637 356.575 42.1396 356.381 42.1395C356.285 42.1407 356.19 42.1228 356.101 42.0869C356.012 42.0509 355.931 41.9977 355.863 41.9302C355.795 41.8628 355.74 41.7824 355.703 41.6938C355.666 41.6052 355.647 41.5102 355.647 41.4142V35.8239L353.737 38.4775C353.671 38.574 353.583 38.6527 353.479 38.7067C353.376 38.7607 353.261 38.7883 353.144 38.7871C353.025 38.7889 352.907 38.7617 352.801 38.7078C352.694 38.6538 352.603 38.5748 352.534 38.4775L350.632 35.8239V41.4142C350.632 41.6089 350.555 41.7956 350.417 41.9333C350.279 42.071 350.092 42.1484 349.898 42.1484C349.703 42.1484 349.516 42.071 349.379 41.9333C349.241 41.7956 349.164 41.6089 349.164 41.4142V33.586C349.164 33.3928 349.24 33.2074 349.375 33.07C349.511 32.9325 349.696 32.8542 349.889 32.8518H349.933C350.048 32.8521 350.162 32.8804 350.263 32.9343C350.365 32.9883 350.452 33.0662 350.517 33.1614L353.171 36.8234L355.824 33.1614C355.89 33.065 355.978 32.9862 356.082 32.9322C356.185 32.8782 356.3 32.8506 356.417 32.8518C356.605 32.8649 356.781 32.9472 356.912 33.0828C357.043 33.2184 357.118 33.3977 357.124 33.586Z" fill="white"/>
<path d="M360.335 41.4141V33.586C360.335 33.3928 360.411 33.2074 360.547 33.0699C360.683 32.9325 360.867 32.8541 361.061 32.8518C361.256 32.8518 361.444 32.9289 361.583 33.0663C361.722 33.2037 361.801 33.3904 361.804 33.586V40.6623H365.404C365.598 40.6623 365.785 40.7396 365.923 40.8773C366.06 41.015 366.138 41.2017 366.138 41.3965C366.138 41.5912 366.06 41.7779 365.923 41.9156C365.785 42.0533 365.598 42.1306 365.404 42.1306H361.061C360.87 42.1306 360.687 42.0554 360.551 41.9213C360.415 41.7872 360.338 41.605 360.335 41.4141Z" fill="white"/>
<path d="M251.254 86.1013H211.971V103.748H251.254V86.1013Z" fill="#455A64"/>
<path d="M223.656 95.7161H222.028V98.5908C222.008 98.7728 221.922 98.941 221.786 99.0632C221.65 99.1853 221.473 99.2529 221.29 99.2529C221.107 99.2529 220.93 99.1853 220.794 99.0632C220.658 98.941 220.571 98.7728 220.551 98.5908V90.7627C220.554 90.5695 220.632 90.385 220.769 90.2492C220.907 90.1135 221.092 90.0373 221.285 90.0374H223.656C224.029 90.0374 224.398 90.1108 224.743 90.2535C225.087 90.3962 225.4 90.6053 225.664 90.869C225.927 91.1326 226.137 91.4457 226.279 91.7901C226.422 92.1346 226.495 92.5038 226.495 92.8767C226.495 93.2496 226.422 93.6188 226.279 93.9633C226.137 94.3078 225.927 94.6208 225.664 94.8845C225.4 95.1481 225.087 95.3573 224.743 95.5C224.398 95.6426 224.029 95.7161 223.656 95.7161ZM222.028 94.2389H223.656C223.845 94.2541 224.035 94.2301 224.213 94.1683C224.392 94.1065 224.557 94.0083 224.696 93.8799C224.835 93.7515 224.946 93.5957 225.022 93.4223C225.098 93.2489 225.137 93.0616 225.137 92.8723C225.137 92.683 225.098 92.4957 225.022 92.3223C224.946 92.1489 224.835 91.9931 224.696 91.8647C224.557 91.7363 224.392 91.6381 224.213 91.5763C224.035 91.5145 223.845 91.4905 223.656 91.5057H222.028V94.2389Z" fill="white"/>
<path d="M228.291 98.591V90.7629C228.291 90.5681 228.369 90.3814 228.506 90.2437C228.644 90.106 228.831 90.0287 229.025 90.0287C229.22 90.0287 229.407 90.106 229.545 90.2437C229.682 90.3814 229.76 90.5681 229.76 90.7629V93.9472H233.2V90.7629C233.199 90.6665 233.217 90.5709 233.254 90.4818C233.291 90.3927 233.345 90.3118 233.413 90.2441C233.482 90.1764 233.563 90.1232 233.653 90.0877C233.742 90.0522 233.838 90.0352 233.935 90.0375C234.031 90.0364 234.127 90.0542 234.216 90.09C234.306 90.1258 234.387 90.1789 234.456 90.2463C234.525 90.3137 234.58 90.3939 234.618 90.4826C234.656 90.5712 234.676 90.6664 234.678 90.7629V98.591C234.678 98.6882 234.658 98.7844 234.621 98.874C234.583 98.9637 234.529 99.045 234.459 99.1133C234.39 99.1816 234.308 99.2355 234.218 99.2719C234.128 99.3082 234.032 99.3264 233.935 99.3252C233.838 99.3264 233.742 99.3082 233.652 99.2717C233.563 99.2353 233.481 99.1812 233.413 99.1128C233.344 99.0444 233.29 98.963 233.254 98.8734C233.217 98.7838 233.199 98.6878 233.2 98.591V95.4509H229.76V98.6353C229.76 98.83 229.682 99.0167 229.545 99.1544C229.407 99.2921 229.22 99.3694 229.025 99.3694C228.831 99.3694 228.644 99.2921 228.506 99.1544C228.369 99.0167 228.291 98.83 228.291 98.6353V98.591Z" fill="white"/>
<path d="M240.807 95.7161H239.17V98.5908C239.168 98.7864 239.089 98.9731 238.95 99.1105C238.811 99.248 238.623 99.325 238.427 99.325C238.234 99.3227 238.05 99.2443 237.914 99.1069C237.778 98.9694 237.702 98.784 237.702 98.5908V90.7627C237.702 90.5703 237.779 90.3858 237.915 90.2498C238.051 90.1138 238.235 90.0374 238.427 90.0374H240.807C241.18 90.0374 241.549 90.1108 241.893 90.2535C242.238 90.3962 242.551 90.6053 242.815 90.869C243.078 91.1326 243.287 91.4457 243.43 91.7901C243.573 92.1346 243.646 92.5038 243.646 92.8767C243.646 93.2496 243.573 93.6188 243.43 93.9633C243.287 94.3078 243.078 94.6208 242.815 94.8845C242.551 95.1481 242.238 95.3573 241.893 95.5C241.549 95.6426 241.18 95.7161 240.807 95.7161ZM239.17 94.2389H240.807C240.996 94.2541 241.185 94.2301 241.364 94.1683C241.543 94.1065 241.708 94.0083 241.847 93.8799C241.986 93.7515 242.097 93.5957 242.173 93.4223C242.249 93.2489 242.288 93.0616 242.288 92.8723C242.288 92.683 242.249 92.4957 242.173 92.3223C242.097 92.1489 241.986 91.9931 241.847 91.8647C241.708 91.7363 241.543 91.6381 241.364 91.5763C241.185 91.5145 240.996 91.4905 240.807 91.5057H239.17V94.2389Z" fill="white"/>
<path d="M200.312 232.934L202.594 246.653L218.091 330.34H220.594L209.325 246.653L207.654 232.934H200.312Z" fill="#A6A6A6"/>
<path d="M207.654 232.934H200.312L202.594 246.653H209.325L207.654 232.934Z" fill="#263238"/>
<path d="M151.644 330.34H154.147L169.636 246.653L171.927 232.934H164.576L162.913 246.653L151.644 330.34Z" fill="#A6A6A6"/>
<path d="M164.577 232.934L162.914 246.653H169.636L171.927 232.934H164.577Z" fill="#263238"/>
<path d="M105.171 330.34H107.665L123.162 246.653L125.445 232.934H118.103L116.44 246.653L105.171 330.34Z" fill="#A6A6A6"/>
<path d="M116.44 246.653H123.163L125.445 232.934H118.103L116.44 246.653Z" fill="#263238"/>
<path d="M109.125 239.383H222.682V227.415H180.171L165.886 126.604H113.459L109.125 239.383Z" fill="#A6A6A6"/>
<path d="M109.125 239.383H115.317L119.35 126.604H113.459L109.125 239.383Z" fill="#DBDBDB"/>
<path d="M183.603 134.556L181.41 134.326C181.472 131.504 180.136 127.037 180.366 129.24C180.48 130.897 180.406 132.562 180.145 134.202L146.656 130.77C146.656 126.507 149.248 119.766 149.248 119.766C146.745 123.039 145.409 127.895 144.825 130.584L141.287 130.222C141.19 127.665 142.516 123.455 142.516 123.455C141.384 125.056 140.482 128.17 140.013 130.098L136.024 129.682C136.592 124.397 138.751 119.41 142.216 115.379C145.32 111.62 146.638 108.356 147.169 99.6255C147.771 89.1437 155.077 86.2336 156.209 85.0748C166.213 74.8053 182.692 85.1721 181.047 98.1925C179.809 107.993 178.659 109.055 182.268 118.333C184.992 125.304 183.603 134.556 183.603 134.556Z" fill="#263238"/>
<path d="M161.667 130.204C166.735 148.673 170.963 162.985 176.253 166.47C180.525 169.274 186.523 171.247 192.688 172.662C199.283 174.045 205.96 174.999 212.678 175.519C214.748 175.687 216.473 175.793 217.694 175.882C220.719 176.076 225.655 156.103 223.532 153.671C223.036 153.114 221.046 152.68 218.224 152.326C208.813 151.15 190.273 150.867 189.167 149.814C188.062 148.762 182.091 140.81 173.953 130.416C168.363 123.234 163.781 121.12 161.906 123.11C160.88 124.198 160.694 126.639 161.667 130.204Z" fill="#FFBB96"/>
<path d="M211.626 173.821C214.548 175.123 217.553 176.231 220.621 177.138C223.071 177.748 230.157 179.323 231.094 176.696C231.74 174.927 227.68 173.485 224.832 172.423C223.337 171.866 221.453 170.38 221.86 169.416C222.558 167.727 226.424 169.257 228.98 170.619C233.916 173.273 240.55 178.067 243.416 175.511C244.495 174.538 243.133 172.901 241.178 171.309C244.327 173.131 247.671 174.591 248.909 173.565C249.231 173.301 249.44 172.924 249.493 172.511C249.545 172.098 249.438 171.68 249.192 171.344C249.586 171.513 250.022 171.56 250.444 171.478C250.865 171.396 251.251 171.189 251.554 170.884C252.518 169.805 251.969 168.275 250.819 166.727C251.006 166.7 251.184 166.629 251.338 166.52C251.492 166.411 251.617 166.267 251.704 166.099C253.703 162.791 242.752 153.901 239.055 153.176C228.166 151.009 216.72 152.362 216.72 152.362C212.607 155.909 211.617 173.812 211.626 173.821Z" fill="#FFBB96"/>
<path d="M227.131 163.171C229.72 163.459 232.212 164.316 234.429 165.683C237.012 167.32 239.099 169.61 241.505 171.477C241.576 171.53 241.505 171.627 241.425 171.574C240.293 170.601 239.055 169.743 237.887 168.814C236.72 167.886 235.623 166.966 234.42 166.161C232.244 164.645 229.751 163.644 227.131 163.233C227.131 163.233 227.096 163.171 227.131 163.171Z" fill="#263238"/>
<path d="M228.971 158.518C231.879 159.095 234.721 159.963 237.454 161.11C240.391 162.472 242.761 164.79 245.035 167.01C246.414 168.342 247.768 169.708 249.095 171.105C249.148 171.158 249.095 171.256 249.006 171.202C246.647 168.903 244.241 166.677 241.788 164.524C239.51 162.513 236.855 160.974 233.978 159.995C232.333 159.429 230.643 159.005 228.962 158.571C228.927 158.562 228.936 158.518 228.971 158.518Z" fill="#263238"/>
<path d="M231.855 154.405C234.633 154.865 237.056 155.29 239.551 156.652C242.353 158.374 244.932 160.436 247.228 162.79C248.484 164.038 249.696 165.329 250.89 166.629C250.943 166.682 250.846 166.771 250.802 166.718C248.071 163.86 245.158 161.183 242.08 158.704C240.637 157.497 239.013 156.524 237.268 155.82C235.505 155.199 233.69 154.732 231.846 154.423C231.846 154.423 231.837 154.405 231.855 154.405Z" fill="#263238"/>
<path d="M161.667 130.204C166.735 148.673 170.964 162.985 176.253 166.47C180.525 169.274 186.523 171.247 192.688 172.662L161.932 123.128C160.88 124.198 160.694 126.639 161.667 130.204Z" fill="#263238"/>
<path d="M160.066 127.091C160.596 132.716 164.285 142.393 164.285 142.393L183.807 140.739C183.807 140.739 176.261 129.682 168.407 123.393C167.67 122.797 166.858 122.3 165.992 121.916C162.569 120.448 159.57 121.819 160.066 127.091Z" fill="#4668D6"/>
<path d="M160.065 127.091C160.065 127.382 160.127 127.692 160.18 127.975C160.233 128.258 160.269 128.462 160.322 128.718C161.282 133.365 162.607 137.928 164.285 142.367L165.063 142.305L165.824 142.243L171.962 141.721L172.847 141.641L178.959 141.119L179.746 141.057L181.993 140.863L165.992 121.916C162.569 120.448 159.526 121.828 160.065 127.091Z" fill="#263238"/>
<path d="M301.795 330.296C299.69 330.995 237.887 330.482 235.605 329.004C235.331 328.845 235.26 323.255 235.287 315.604V315.453C235.22 310.051 234.866 304.657 234.225 299.293L234.119 298.408C232.492 284.141 229.697 270.271 229.697 270.271L268.377 270.129L273.685 298.435L273.782 299.319L274.87 309.863C274.87 309.863 283.202 313.401 290.456 316.877C294.931 319.018 298.814 320.973 299.708 321.689C302.07 323.556 303.901 329.615 301.795 330.296Z" fill="#FFBB96"/>
<path d="M301.795 330.296C299.69 330.995 237.887 330.482 235.605 329.004C235.331 328.845 235.26 323.255 235.287 315.604V315.453C235.22 310.051 234.866 304.657 234.225 299.293L234.119 298.408H273.711L273.808 299.293L274.896 309.836C274.896 309.836 283.229 313.375 290.482 316.851C294.958 318.991 298.841 320.946 299.734 321.663C302.069 323.556 303.9 329.615 301.795 330.296Z" fill="#EBEBEB"/>
<path d="M302.052 330.535C299.885 331.233 238.003 330.535 235.659 329.049C234.774 328.482 233.943 318.929 234.898 308.386L274.791 308.863C274.791 308.863 297.603 319.717 300 321.654C302.397 323.591 304.246 329.853 302.052 330.535Z" fill="#4668D6"/>
<path d="M301.194 328.085C290.819 327.713 248.962 327.2 238.684 327.642C238.595 327.642 238.595 327.704 238.684 327.704C248.953 328.297 290.819 328.456 301.185 328.253C301.406 328.208 301.406 328.085 301.194 328.085Z" fill="#263238"/>
<path d="M296.037 319.38C294.891 319.343 293.749 319.543 292.683 319.967C291.618 320.392 290.652 321.033 289.845 321.848C288.369 323.312 287.517 325.29 287.466 327.368C287.466 327.43 287.581 327.43 287.59 327.368C287.963 325.317 288.992 323.443 290.522 322.026C292.051 320.61 293.999 319.728 296.072 319.513C296.086 319.505 296.097 319.493 296.103 319.479C296.109 319.464 296.111 319.448 296.107 319.433C296.102 319.418 296.093 319.404 296.081 319.395C296.068 319.385 296.053 319.38 296.037 319.38Z" fill="#263238"/>
<path d="M278.037 309.933C273.888 309.836 269.059 311.251 266.44 314.613C266.343 314.745 266.529 314.887 266.653 314.825C270.303 312.959 274.143 311.491 278.107 310.446C278.164 310.425 278.211 310.386 278.242 310.334C278.273 310.282 278.286 310.221 278.277 310.162C278.269 310.102 278.241 310.047 278.197 310.005C278.153 309.964 278.097 309.938 278.037 309.933Z" fill="#263238"/>
<path d="M281.248 311.225C277.099 311.119 272.27 312.534 269.651 315.904C269.545 316.028 269.74 316.17 269.864 316.108C273.513 314.247 277.35 312.779 281.31 311.729C281.369 311.713 281.421 311.676 281.456 311.625C281.49 311.574 281.505 311.512 281.498 311.45C281.49 311.389 281.461 311.333 281.415 311.291C281.369 311.25 281.31 311.226 281.248 311.225Z" fill="#263238"/>
<path d="M284.423 312.508C280.266 312.402 275.437 313.817 272.827 317.187C272.721 317.311 272.907 317.461 273.031 317.399C276.694 315.529 280.55 314.061 284.53 313.021C284.589 312.998 284.637 312.956 284.668 312.9C284.698 312.845 284.708 312.781 284.695 312.719C284.682 312.657 284.648 312.602 284.598 312.563C284.548 312.525 284.486 312.505 284.423 312.508Z" fill="#263238"/>
<path d="M287.617 313.79C283.459 313.684 278.63 315.099 276.02 318.469C275.914 318.602 276.1 318.744 276.224 318.682C279.873 316.814 283.714 315.346 287.679 314.303C287.735 314.283 287.782 314.244 287.814 314.193C287.845 314.142 287.858 314.082 287.851 314.022C287.844 313.963 287.817 313.907 287.774 313.865C287.732 313.823 287.676 313.797 287.617 313.79Z" fill="#263238"/>
<path d="M241.443 317.779C236.791 317.779 236.72 324.988 241.39 325.024C246.061 325.059 246.096 317.824 241.443 317.779Z" fill="#263238"/>
<path d="M282.645 298.895C280.558 297.126 277.895 298.806 276.578 300.602C274.369 303.735 273.029 307.397 272.694 311.216C272.693 311.232 272.695 311.249 272.701 311.264C272.707 311.28 272.716 311.293 272.728 311.304C272.74 311.316 272.754 311.324 272.77 311.328C272.786 311.333 272.802 311.334 272.818 311.331C272.833 311.41 272.867 311.484 272.916 311.547C272.965 311.61 273.029 311.661 273.101 311.694C273.174 311.728 273.253 311.744 273.333 311.741C273.413 311.738 273.491 311.716 273.561 311.676C276.542 309.668 279.974 307.882 282.247 305.016C283.574 303.317 284.618 300.575 282.645 298.895ZM277.453 307.669C276.011 308.695 274.534 309.642 273.128 310.721C273.897 308.66 274.561 306.572 275.534 304.591C275.987 303.629 276.504 302.698 277.082 301.805C277.966 300.443 282.115 297.019 282.477 301.539C282.681 304.043 279.169 306.457 277.453 307.678V307.669Z" fill="#263238"/>
<path d="M262.362 312.614C265.971 313.207 269.713 312.225 273.269 311.729C273.347 311.71 273.419 311.673 273.48 311.621C273.541 311.569 273.589 311.503 273.62 311.429C273.651 311.355 273.664 311.275 273.658 311.195C273.653 311.115 273.628 311.038 273.587 310.969C273.6 310.959 273.61 310.946 273.618 310.932C273.625 310.917 273.628 310.901 273.628 310.885C273.628 310.868 273.625 310.852 273.618 310.838C273.61 310.823 273.6 310.811 273.587 310.801C270.77 308.216 267.323 306.416 263.592 305.582C261.416 305.14 258.285 305.688 257.957 308.404C257.639 310.942 260.257 312.269 262.362 312.614ZM259.877 310.226C257.108 306.634 262.46 306.405 264.052 306.794C265.079 307.069 266.086 307.412 267.068 307.82C269.12 308.634 271.013 309.722 272.968 310.73C271.199 310.88 269.474 311.172 267.714 311.384C265.617 311.632 261.407 312.207 259.877 310.226Z" fill="#263238"/>
<path d="M276.922 295.357L232.067 295.162C232.067 295.162 216.526 235.349 212.881 231.166C206.132 223.417 152.485 227.167 137.917 211.095C123.764 195.527 137.917 167.346 137.917 167.346H177.641C178.116 172.426 178.872 177.475 179.906 182.472C179.906 182.472 229.891 190.433 244.734 205.815C256.064 217.517 276.922 295.357 276.922 295.357Z" fill="#37474F"/>
<path d="M273.836 288.28C271.067 288.059 268.316 287.776 265.547 287.661C262.779 287.546 259.992 287.493 257.215 287.449C251.696 287.36 246.179 287.36 240.665 287.449C237.552 287.511 234.474 287.643 231.316 287.661C231.236 287.661 231.254 287.802 231.316 287.802C236.915 287.802 242.532 288.024 248.122 288.165C253.712 288.307 259.081 288.484 264.566 288.572C267.653 288.616 270.757 288.528 273.809 288.501C273.968 288.537 273.968 288.28 273.836 288.28Z" fill="#263238"/>
<path d="M225.84 250.413C224.071 244.657 222.146 238.949 220.064 233.288C219.18 230.873 218.454 228.114 216.721 226.141C214.987 224.169 212.466 223.576 210.069 223.054C198.57 220.515 186.823 219.516 175.245 217.508C169.508 216.567 163.844 215.222 158.297 213.483C155.576 212.657 152.945 211.56 150.442 210.211C148.182 208.93 146.161 207.266 144.471 205.293C141.308 201.443 139.264 196.798 138.563 191.865C137.809 186.028 138.337 180.096 140.111 174.484C140.518 173.113 140.995 171.751 141.499 170.415C141.499 170.336 141.402 170.3 141.367 170.415C137.492 180.49 135.9 192.122 141.367 201.94C142.539 204.061 144.031 205.988 145.789 207.654C147.727 209.447 149.944 210.911 152.353 211.988C157.527 214.403 163.224 215.836 168.787 217.039C180.286 219.516 192.095 220.498 203.7 222.559C206.529 223.006 209.334 223.597 212.103 224.328C213.415 224.64 214.64 225.245 215.686 226.097C216.661 227.036 217.413 228.182 217.888 229.449C219.02 232.147 219.923 234.96 220.887 237.729C221.851 240.497 222.868 243.46 223.806 246.335C227.556 257.864 230.859 269.522 233.713 281.31L234.748 285.618C234.748 285.759 234.986 285.697 234.96 285.556C232.521 273.694 229.477 261.964 225.84 250.413Z" fill="#263238"/>
<path d="M234.279 340.733C232.103 341.184 170.804 333.347 168.708 331.614C168.46 331.419 169.115 325.873 169.981 318.266C170.486 313.843 171.494 308.297 172.635 302.654C175.793 287.661 180.269 271.695 180.269 271.695L220.453 278.4L212.324 306.953L209.538 316.682C209.538 316.682 217.8 321.68 224.575 326.006C228.759 328.659 232.395 331.065 233.191 331.879C235.358 334.073 236.455 340.3 234.279 340.733Z" fill="#FFBB96"/>
<path d="M234.279 340.733C232.103 341.184 170.804 333.347 168.708 331.614C168.46 331.419 169.115 325.873 169.981 318.266C170.486 313.843 171.494 308.297 172.635 302.654L212.324 306.944L209.538 316.674C209.538 316.674 217.8 321.671 224.575 325.997C228.759 328.65 232.395 331.056 233.191 331.87C235.358 334.073 236.455 340.3 234.279 340.733Z" fill="#EBEBEB"/>
<path d="M234.535 340.946C232.297 341.397 170.902 333.639 168.743 331.862C167.93 331.189 168.841 321.68 170.999 311.323L209.697 316.302C209.697 316.302 231.351 329.694 233.483 331.888C235.614 334.082 236.764 340.468 234.535 340.946Z" fill="#4668D6"/>
<path d="M233.96 338.381C223.7 336.824 182.17 331.535 171.91 330.774C171.83 330.774 171.821 330.827 171.91 330.845C182.038 332.614 223.611 337.558 233.942 338.549C234.155 338.567 234.181 338.416 233.96 338.381Z" fill="#263238"/>
<path d="M229.839 329.181C228.696 329.009 227.529 329.078 226.415 329.383C225.3 329.687 224.261 330.221 223.364 330.95C221.736 332.237 220.663 334.098 220.365 336.151C220.365 336.213 220.48 336.231 220.498 336.151C221.103 334.157 222.339 332.413 224.02 331.182C225.702 329.95 227.737 329.298 229.821 329.323C229.84 329.325 229.859 329.32 229.874 329.308C229.889 329.297 229.898 329.28 229.901 329.261C229.903 329.242 229.898 329.223 229.886 329.208C229.874 329.193 229.857 329.184 229.839 329.181Z" fill="#263238"/>
<path d="M213.041 317.735C208.928 317.16 203.966 318.01 200.985 321.052C200.861 321.176 201.038 321.335 201.162 321.291C205.003 319.859 208.985 318.839 213.041 318.248C213.109 318.248 213.175 318.221 213.223 318.173C213.271 318.125 213.298 318.06 213.298 317.992C213.298 317.924 213.271 317.859 213.223 317.811C213.175 317.762 213.109 317.735 213.041 317.735Z" fill="#263238"/>
<path d="M216.057 319.381C211.953 318.797 206.99 319.655 204.001 322.698C203.886 322.813 204.054 322.981 204.186 322.928C208.026 321.494 212.009 320.477 216.066 319.894C216.134 319.892 216.199 319.864 216.246 319.815C216.293 319.766 216.319 319.701 216.318 319.633C216.317 319.565 216.289 319.5 216.24 319.453C216.191 319.405 216.125 319.379 216.057 319.381Z" fill="#263238"/>
<path d="M219.082 321.008C214.969 320.433 210.016 321.282 207.026 324.325C206.911 324.449 207.079 324.608 207.212 324.564C211.051 323.129 215.034 322.112 219.091 321.53C219.152 321.518 219.207 321.484 219.246 321.436C219.284 321.388 219.305 321.327 219.304 321.265C219.303 321.203 219.28 321.144 219.24 321.097C219.199 321.05 219.144 321.018 219.082 321.008Z" fill="#263238"/>
<path d="M222.107 322.662C217.994 322.078 213.04 322.936 210.051 325.979C209.936 326.094 210.104 326.262 210.236 326.209C214.076 324.775 218.058 323.758 222.116 323.175C222.184 323.174 222.248 323.146 222.296 323.097C222.343 323.048 222.369 322.982 222.368 322.914C222.367 322.846 222.338 322.782 222.289 322.734C222.241 322.687 222.175 322.661 222.107 322.662Z" fill="#263238"/>
<path d="M175.767 321.335C171.149 320.761 170.256 327.943 174.882 328.518C179.508 329.093 180.41 321.893 175.767 321.335Z" fill="#263238"/>
<path d="M218.879 307.307C217.013 305.317 214.173 306.67 212.687 308.306C210.135 311.151 208.375 314.616 207.584 318.355C207.579 318.371 207.579 318.389 207.583 318.406C207.587 318.423 207.595 318.438 207.606 318.452C207.617 318.465 207.632 318.475 207.648 318.481C207.664 318.487 207.681 318.489 207.699 318.487C207.705 318.567 207.731 318.644 207.773 318.712C207.814 318.78 207.871 318.837 207.939 318.879C208.007 318.921 208.084 318.947 208.163 318.954C208.243 318.961 208.323 318.95 208.397 318.921C211.591 317.258 215.2 315.878 217.791 313.295C219.33 311.791 220.648 309.191 218.879 307.307ZM212.687 315.427C211.131 316.311 209.556 317.046 208.035 317.957C209.034 316.002 209.937 314.012 211.131 312.145C211.687 311.241 212.308 310.378 212.988 309.562C214.05 308.315 218.525 305.379 218.375 309.916C218.322 312.411 214.563 314.401 212.723 315.427H212.687Z" fill="#263238"/>
<path d="M197.154 318.602C200.692 319.602 204.505 319.053 208.096 318.947C208.175 318.939 208.251 318.912 208.318 318.868C208.385 318.825 208.44 318.766 208.48 318.697C208.519 318.628 208.542 318.551 208.546 318.471C208.55 318.392 208.535 318.312 208.503 318.24C208.516 318.229 208.526 318.215 208.533 318.2C208.541 318.185 208.544 318.168 208.544 318.151C208.544 318.134 208.541 318.118 208.533 318.102C208.526 318.087 208.516 318.073 208.503 318.063C206.003 315.174 202.788 312.993 199.18 311.738C197.066 311.048 193.926 311.243 193.262 313.888C192.599 316.532 195.102 318.01 197.154 318.602ZM194.969 315.949C192.625 312.066 197.968 312.41 199.507 313.021C200.495 313.41 201.455 313.865 202.382 314.383C204.283 315.468 206.128 316.649 207.91 317.921C206.141 317.859 204.372 317.921 202.603 317.921C200.507 318.001 196.261 318.08 194.969 315.94V315.949Z" fill="#263238"/>
<path d="M222.337 305.246L173.422 299.293C173.422 299.293 190.467 231.962 189.698 230.953C187 227.468 145.727 228.875 131.654 214.881C116.75 200.065 131.053 167.311 131.053 167.311L168.204 167.452C168.204 167.452 168.451 182.136 170.123 183.515C171.229 184.4 222.55 193.095 230.9 203.993C243.628 220.64 222.337 305.246 222.337 305.246Z" fill="#37474F"/>
<path d="M234.367 209.999C233.67 208.138 232.672 206.405 231.413 204.868C229.998 203.224 228.335 201.809 226.486 200.675C222.579 198.311 218.456 196.324 214.173 194.74C209.804 193.008 205.345 191.511 200.816 190.256C196.226 188.964 191.573 187.876 186.911 186.877C182.25 185.877 177.588 185.108 172.918 184.223L170.715 183.816C173.121 182.861 175.51 181.852 177.916 180.862C177.939 180.848 177.958 180.826 177.968 180.8C177.978 180.774 177.979 180.746 177.971 180.719C177.962 180.693 177.946 180.669 177.923 180.654C177.9 180.638 177.873 180.63 177.845 180.632C172.983 181.558 168.344 183.408 164.179 186.081C164.117 186.081 164.179 186.231 164.232 186.204C166.319 185.523 168.371 184.745 170.424 183.94C174.661 184.825 178.871 185.771 183.09 186.709C187.654 187.726 192.201 188.805 196.694 190.079C205.611 192.608 214.474 195.581 222.718 199.862C226.45 201.799 229.98 204.222 232.076 207.973C234.022 211.449 234.606 215.518 234.73 219.472C234.732 223.905 234.481 228.335 233.978 232.74C233.53 237.729 233.005 242.709 232.403 247.68C231.793 252.651 228.299 278.71 227.901 279.824C227.848 279.974 228.104 280.081 228.175 279.93C228.688 278.869 234.73 241.223 235.181 236.163C235.596 231.502 236.065 226.814 236.118 222.134C236.313 218.014 235.718 213.895 234.367 209.999Z" fill="#263238"/>
<path d="M195.164 225.54C193.866 225.193 192.54 224.956 191.201 224.832L186.779 224.134L177.978 222.736C172.343 221.852 166.691 221.02 161.074 220.029C151.495 218.331 141.083 215.244 135.573 206.531C134.299 204.524 133.425 202.289 132.999 199.95C132.567 197.082 132.369 194.183 132.406 191.282C132.316 185.438 132.691 179.596 133.53 173.812C133.733 172.388 133.989 170.982 134.264 169.575C134.264 169.487 134.149 169.451 134.131 169.575C133.023 175.216 132.328 180.931 132.052 186.673C131.929 189.539 131.929 192.405 132.052 195.271C132.051 197.908 132.451 200.53 133.238 203.046C136.387 212.13 145.621 217.04 154.387 219.286C159.792 220.675 165.355 221.383 170.866 222.241L188.229 224.965L192.564 225.646C193.731 225.832 195.845 225.788 196.102 227.291C196.158 227.905 196.098 228.523 195.925 229.114C195.757 229.874 195.598 230.626 195.43 231.387L194.474 235.81C193.224 241.559 191.995 247.312 190.786 253.067C188.318 264.654 186 276.277 183.603 287.882L182.719 292.199C182.719 292.27 182.816 292.305 182.834 292.199C185.372 280.638 187.964 269.077 190.476 257.507C191.75 251.681 192.994 245.849 194.209 240.011C194.819 237.128 195.421 234.253 195.978 231.369C196.345 230.133 196.573 228.861 196.659 227.575C196.663 227.119 196.52 226.675 196.25 226.308C195.981 225.942 195.6 225.672 195.164 225.54Z" fill="#263238"/>
<path d="M221.294 299.231C218.437 298.629 215.589 297.966 212.705 297.462C209.822 296.957 206.92 296.515 204.019 296.09C198.264 295.235 192.488 294.478 186.691 293.817C183.427 293.437 180.145 293.136 176.881 292.729C176.793 292.729 176.793 292.853 176.881 292.862C182.746 293.605 188.584 294.631 194.422 295.56C200.26 296.489 205.85 297.4 211.582 298.213C214.801 298.691 218.03 299.027 221.259 299.434C221.4 299.496 221.427 299.266 221.294 299.231Z" fill="#263238"/>
<path d="M180.047 175.475C177.472 175.985 174.87 176.354 172.254 176.58C168.141 176.987 162.401 177.359 154.988 177.35H154.387H151.512C144.657 177.235 136.546 176.819 127.161 175.873C127.161 175.873 138.023 135.847 149.115 122.8C149.363 122.5 149.619 122.217 149.876 121.916L150.026 121.757C150.886 120.841 151.886 120.067 152.989 119.466C153.184 119.36 153.378 119.262 153.582 119.174C157.854 117.21 162.365 118.838 165.62 121.624C166.655 122.509 178.349 137.723 179.384 143.525C180.268 148.647 176.819 154.14 176.819 154.14L180.047 175.475Z" fill="#4668D6"/>
<path d="M154.988 177.35H154.387H151.512C144.657 177.235 136.546 176.819 127.161 175.873C127.161 175.873 138.023 135.848 149.115 122.801C149.363 122.5 149.619 122.217 149.876 121.916L150.026 121.757C150.886 120.841 151.886 120.067 152.989 119.466C153.184 119.36 153.378 119.262 153.582 119.174L154.988 177.35Z" fill="#263238"/>
<path d="M145.984 126.489C136.183 141.447 124.631 167.098 131.76 171.521C143.427 178.766 174.828 179.685 181.993 179.606C185.089 179.606 188.565 158.863 186.186 156.555C183.807 154.246 151.07 156.723 150.574 154.786C150.3 153.671 152.892 143.384 154.475 130.903C156.271 116.423 148.761 122.261 145.984 126.489Z" fill="#FFBB96"/>
<path d="M180.622 155.599C180.622 155.599 189.937 154.299 196.075 153.733C199.499 153.423 205.416 153.406 208.034 154.317C211.953 155.696 227.494 163.94 225.548 167.753C223.779 171.194 211.396 162.446 211.396 162.446C211.396 162.446 224.717 170.203 221.86 173.945C219.003 177.686 206.283 165.922 206.283 165.922C206.283 165.922 219.799 174.192 216.243 177.607C213.589 180.181 201.427 170.159 201.427 170.159C201.427 170.159 212.988 177.35 210.343 180.119C207.415 183.188 195.642 174.634 195.642 174.634C187.681 180.543 181.489 180.119 177.155 179.296C176.085 179.066 180.622 155.599 180.622 155.599Z" fill="#FFBB96"/>
<path d="M206.947 159.429C208.548 160.314 210.166 161.136 211.688 162.083C213.209 163.029 214.686 164.126 216.111 165.249C217.993 166.69 219.703 168.343 221.205 170.176C218.295 167.125 212.926 163.48 211.405 162.49C209.883 161.499 208.433 160.429 206.911 159.438C206.867 159.456 206.947 159.411 206.947 159.429Z" fill="#263238"/>
<path d="M203.258 164.843C205.257 166.019 207.274 167.116 209.22 168.381C211.166 169.646 213.802 171.503 215.642 172.892C215.783 172.998 215.686 173.246 215.544 173.148C213.652 171.83 210.856 170.061 208.946 168.77C207.035 167.479 205.178 166.116 203.232 164.887C203.196 164.869 203.232 164.825 203.258 164.843Z" fill="#263238"/>
<path d="M199.26 168.92C202.362 170.655 205.279 172.704 207.964 175.033C208.096 175.139 207.964 175.183 207.813 175.033C204.956 172.945 202.736 171.282 199.207 168.982C199.154 168.991 199.198 168.867 199.26 168.92Z" fill="#263238"/>
<path d="M180.561 155.475C184.807 154.883 196.023 153.202 200.304 152.963C203.888 152.635 207.494 153.28 210.741 154.83C215.817 157.263 220.446 160.534 224.434 164.507C225.212 165.391 226.371 166.745 225.637 167.912C224.753 169.336 220.648 168.602 216.022 165.409C215.854 165.294 215.934 165.197 216.102 165.294C222.532 169.239 224.779 168.39 225.274 167.505C225.602 166.93 225.106 166.081 224.664 165.435C223.964 164.513 223.15 163.684 222.24 162.968C219.2 160.461 215.913 158.268 212.431 156.422C208.671 154.321 204.392 153.33 200.092 153.565C195.669 153.777 184.957 155.484 180.561 155.635C180.472 155.644 180.464 155.484 180.561 155.475Z" fill="#263238"/>
<path d="M222.302 171.955C221.779 170.843 221.046 169.843 220.144 169.009C219.179 167.908 218.107 166.906 216.942 166.019C216.889 166.019 216.818 166.019 216.871 166.099C217.883 167.008 218.84 167.977 219.737 169C220.214 169.563 220.657 170.154 221.064 170.769C221.54 171.34 221.817 172.052 221.851 172.795C221.727 174.219 219.967 174.414 218.879 174.184C218.173 174.015 217.483 173.784 216.818 173.494C215.897 173.069 215.01 172.576 214.164 172.016C214.093 171.963 213.934 172.016 214.005 172.061C215.774 173.334 219.091 176.015 221.338 174.573C221.779 174.317 222.116 173.916 222.292 173.438C222.468 172.96 222.472 172.435 222.302 171.955Z" fill="#263238"/>
<path d="M132.557 142.818L153.228 142.597L155.325 127.232C156.28 120.156 155.74 115.689 147.435 123.482C141.676 128.886 132.557 142.818 132.557 142.818Z" fill="#4668D6"/>
<path d="M156.961 118.325C152.91 119.483 153.317 124.039 154.829 127.241C156.342 130.443 159.314 134.149 161.481 134.043C163.648 133.937 164.055 128.488 164.055 128.488C164.055 128.488 167.142 131.867 168.761 130.69C170.379 129.514 167.133 123.296 164.824 121.367C161.481 118.563 159.102 117.705 156.961 118.325Z" fill="white"/>
<path d="M154.758 120.899C154.935 121.872 159.261 128.329 163.666 128.32C165.107 128.32 165.435 120.465 165.435 120.465L165.585 119.89L167.761 111.859L158.509 105.322L157.164 104.437C157.164 104.437 156.713 106.675 156.182 109.47L156.103 109.868C156.103 110.028 156.041 110.169 156.014 110.319C155.926 110.735 155.846 111.204 155.767 111.584C155.687 111.965 155.652 112.221 155.599 112.566C155.546 112.911 155.492 113.238 155.431 113.583C155.039 116.003 154.814 118.448 154.758 120.899Z" fill="#FFBB96"/>
<path d="M156.155 109.479C156.872 111.793 158.085 113.924 159.708 115.722C161.332 117.52 163.328 118.942 165.558 119.89L167.734 111.859L158.482 105.322L157.137 104.437C157.137 104.437 156.686 106.684 156.155 109.479Z" fill="#263238"/>
<path d="M179.367 99.387C180.039 113.973 171.406 116.034 168.23 116.193C165.373 116.317 155.634 116.397 153.45 101.952C151.265 87.5076 157.872 82.5807 164.356 81.9439C170.84 81.307 178.685 84.8363 179.367 99.387Z" fill="#FFBB96"/>
<path d="M177.19 96.9632C176.857 96.9193 176.526 96.8572 176.199 96.7775C175.839 96.761 175.495 96.6275 175.217 96.3971C175.149 96.3053 175.111 96.1935 175.111 96.0787C175.111 95.9639 175.149 95.8521 175.217 95.7603C175.379 95.5997 175.581 95.4848 175.801 95.4273C176.022 95.3699 176.254 95.3718 176.474 95.433C176.942 95.4907 177.372 95.7171 177.685 96.0698C177.751 96.156 177.791 96.2594 177.799 96.3676C177.806 96.4757 177.783 96.5839 177.73 96.6787C177.678 96.7735 177.598 96.851 177.502 96.9015C177.407 96.9521 177.298 96.9735 177.19 96.9632Z" fill="#263238"/>
<path d="M167.841 97.2196C168.173 97.1607 168.5 97.084 168.823 96.9896C169.18 96.9532 169.516 96.801 169.779 96.5562C169.85 96.4669 169.888 96.3562 169.888 96.2422C169.888 96.1281 169.85 96.0174 169.779 95.9281C169.61 95.7736 169.403 95.6668 169.179 95.6186C168.955 95.5705 168.722 95.5826 168.505 95.6539C168.041 95.7375 167.624 95.9857 167.328 96.3527C167.269 96.4402 167.236 96.5426 167.233 96.648C167.23 96.7535 167.257 96.8577 167.311 96.9485C167.364 97.0393 167.443 97.113 167.537 97.161C167.631 97.209 167.736 97.2293 167.841 97.2196Z" fill="#263238"/>
<path d="M169.672 100.705C169.672 100.66 169.592 100.749 169.601 100.793C169.68 101.784 169.601 102.934 168.716 103.305C168.716 103.305 168.716 103.367 168.716 103.358C169.795 103.155 169.902 101.642 169.672 100.705Z" fill="#263238"/>
<path d="M168.734 99.7054C167.133 99.6612 167.16 102.872 168.646 102.916C170.132 102.961 170.079 99.7408 168.734 99.7054Z" fill="#263238"/>
<path d="M168.106 99.873C167.823 100.059 167.558 100.377 167.222 100.413C166.886 100.448 166.532 100.121 166.275 99.8022H166.222C166.222 100.421 166.461 101.049 167.107 101.138C167.752 101.226 168.133 100.669 168.283 100.05C168.319 99.9792 168.212 99.8111 168.106 99.873Z" fill="#263238"/>
<path d="M175.103 100.448C175.103 100.404 175.183 100.448 175.183 100.537C175.183 101.527 175.28 102.668 176.182 103.005V103.058C175.103 102.907 174.917 101.386 175.103 100.448Z" fill="#263238"/>
<path d="M175.988 99.4042C177.589 99.2804 177.713 102.491 176.236 102.606C174.758 102.721 174.652 99.5104 175.988 99.4042Z" fill="#263238"/>
<path d="M176.669 99.5902C176.925 99.7494 177.191 100.05 177.491 100.059C177.792 100.068 178.093 99.7051 178.305 99.369C178.349 99.9882 178.172 100.634 177.589 100.775C177.005 100.917 176.642 100.395 176.474 99.7848C176.483 99.7051 176.563 99.5282 176.669 99.5902Z" fill="#263238"/>
<path d="M173.617 105.18C173.617 105.18 173.847 106.658 173.864 107.356C173.864 107.427 171.326 108.002 170.176 106.304C170.168 106.29 170.164 106.274 170.166 106.259C170.168 106.243 170.175 106.228 170.186 106.217C170.197 106.206 170.212 106.198 170.228 106.197C170.244 106.195 170.26 106.198 170.273 106.207C171.18 106.798 172.253 107.08 173.334 107.011C173.378 106.817 172.847 104.491 172.953 104.482C173.5 104.516 174.039 104.626 174.554 104.809C174.156 101.713 173.263 98.6968 172.909 95.6097C172.91 95.5893 172.917 95.5696 172.929 95.5533C172.942 95.5371 172.959 95.5252 172.978 95.5194C172.998 95.5135 173.019 95.5139 173.038 95.5206C173.058 95.5273 173.074 95.5399 173.086 95.5567C174.15 98.7528 174.888 102.048 175.289 105.393C175.35 105.8 173.9 105.304 173.617 105.18Z" fill="#263238"/>
<path d="M174.387 101.059C174.325 98.7678 175.501 96.8749 177.04 96.8306C178.579 96.7864 179.844 98.5997 179.906 100.9C179.968 103.199 178.792 105.083 177.253 105.128C175.713 105.172 174.457 103.341 174.387 101.059ZM174.944 101.059C175.006 103.04 176.032 104.597 177.235 104.597C178.438 104.597 179.384 102.925 179.322 100.944C179.26 98.9624 178.243 97.4056 177.031 97.4056C175.82 97.4056 174.891 99.0597 174.944 101.041V101.059Z" fill="#37474F"/>
<path d="M163.958 101.35C163.989 100.595 164.24 99.8649 164.68 99.2502C165.121 98.6355 165.731 98.1627 166.436 97.8899C167.141 97.617 167.911 97.5559 168.65 97.7142C169.389 97.8724 170.066 98.2431 170.598 98.7807C171.13 99.3183 171.493 99.9994 171.643 100.74C171.793 101.482 171.724 102.25 171.443 102.952C171.163 103.655 170.683 104.259 170.064 104.693C169.444 105.126 168.711 105.37 167.956 105.393C166.89 105.386 165.87 104.956 165.121 104.198C164.371 103.44 163.953 102.416 163.958 101.35ZM164.515 101.35C164.585 101.992 164.842 102.6 165.252 103.099C165.662 103.598 166.209 103.966 166.825 104.16C167.441 104.353 168.101 104.363 168.722 104.188C169.344 104.013 169.902 103.66 170.326 103.174C170.751 102.687 171.025 102.087 171.115 101.447C171.204 100.808 171.105 100.156 170.83 99.5713C170.556 98.9867 170.116 98.4949 169.567 98.1558C169.017 97.8167 168.38 97.645 167.735 97.6618C167.28 97.6899 166.835 97.8075 166.425 98.0077C166.016 98.2079 165.65 98.4869 165.349 98.8286C165.047 99.1704 164.816 99.5682 164.668 99.9994C164.521 100.431 164.46 100.887 164.488 101.341L164.515 101.35Z" fill="#37474F"/>
<path d="M171.511 100.758C173.572 99.9707 174.528 100.616 174.537 100.625L174.864 100.183C174.864 100.183 173.687 99.2985 171.326 100.236L171.511 100.758Z" fill="#37474F"/>
<path d="M164.232 100.988L164.311 100.43C163.949 100.377 155.466 99.0594 154.52 99.0329C153.573 99.0063 151.317 100.333 151.07 100.492L151.353 100.961C152.308 100.342 153.356 99.8794 154.458 99.5901H154.502C155.209 99.6078 161.171 100.51 164.232 100.988Z" fill="#37474F"/>
<path d="M154.555 102.421C158.093 102.421 159.552 91.4436 159.712 90.0902C159.65 90.9748 159.376 95.4771 159.712 95.6717C160.096 95.6746 160.479 95.6149 160.844 95.4948C160.864 94.9512 160.926 94.41 161.03 93.8761C161.03 93.6284 161.109 94.4245 161.215 95.4063L161.879 95.2471C161.879 94.0878 162.034 92.9336 162.339 91.8151C162.454 91.3905 162.507 93.3188 162.861 95.0171C165.947 94.2219 169.113 93.774 172.299 93.6815C173.081 93.6714 173.863 93.7009 174.643 93.7699C174.696 92.4254 174.59 91.0013 174.643 91.3109C174.883 92.1279 175.043 92.9662 175.12 93.8141L176.129 93.9203C176.288 92.0362 175.492 88.9934 175.775 89.4976C176.625 90.9495 177.192 92.5492 177.447 94.2122C178.729 94.5041 179.074 94.7694 179.118 94.4333C178.858 90.6989 177.274 87.1799 174.652 84.5088C170.317 80.1392 161.428 78.7858 156.173 85.1103C156.173 85.1103 151.937 87.6754 151.14 92.0097C150.344 96.3439 152.485 102.43 154.555 102.421Z" fill="#263238"/>
<path d="M155.82 101.855C155.82 101.855 152.821 97.1755 150.707 98.2281C148.593 99.2807 150.707 105.977 153.113 106.976C153.411 107.126 153.736 107.214 154.069 107.235C154.401 107.256 154.735 107.209 155.049 107.097C155.363 106.986 155.651 106.812 155.896 106.586C156.141 106.36 156.338 106.086 156.475 105.782L155.82 101.855Z" fill="#FFBB96"/>
<path d="M151.371 100.13C151.371 100.13 151.318 100.183 151.371 100.192C153.043 100.952 153.874 102.571 154.44 104.225C154.347 104.052 154.217 103.9 154.06 103.782C153.903 103.663 153.723 103.579 153.531 103.536C153.338 103.493 153.139 103.492 152.947 103.533C152.754 103.575 152.573 103.657 152.415 103.774C152.37 103.774 152.415 103.871 152.415 103.863C152.717 103.782 153.037 103.797 153.332 103.905C153.626 104.012 153.88 104.207 154.06 104.464C154.356 104.896 154.605 105.359 154.803 105.844C154.882 106.003 155.157 105.932 155.104 105.755V105.711C155.254 103.544 153.688 100.439 151.371 100.13Z" fill="#263238"/>
<path d="M184.674 173.962H133.159V176.271H184.674V173.962Z" fill="#455A64"/>
<path d="M184.674 173.962H158.749V176.271H184.674V173.962Z" fill="#263238"/>
<path d="M159.35 176.271H109.143L102.049 142.181H152.256L159.35 176.271Z" fill="#37474F"/>
<path d="M134.591 160.022C134.648 160.445 134.612 160.875 134.486 161.283C134.36 161.691 134.147 162.067 133.862 162.384C133.577 162.702 133.227 162.954 132.835 163.124C132.443 163.293 132.02 163.375 131.593 163.365C130.678 163.345 129.801 162.995 129.122 162.382C128.443 161.768 128.008 160.93 127.895 160.022C127.839 159.599 127.875 159.168 128.001 158.761C128.127 158.353 128.34 157.977 128.625 157.659C128.91 157.341 129.26 157.089 129.652 156.92C130.044 156.751 130.467 156.668 130.894 156.678C131.81 156.697 132.688 157.046 133.367 157.66C134.046 158.274 134.481 159.113 134.591 160.022Z" fill="white"/>
<path d="M257.224 176.28H215.385V173.025L257.224 171.671V176.28Z" fill="#37474F"/>
<path d="M300.115 162.03H226.84L238.489 107.471H311.773L300.115 162.03Z" fill="#455A64"/>
<path d="M302.831 162.03H229.547L241.205 107.471H314.489L302.831 162.03Z" fill="#37474F"/>
<path d="M263.301 142.464H261.585L264.195 130.222H265.92L263.301 142.464Z" fill="#263238"/>
<path d="M266.697 142.464H264.981L267.59 130.222H269.306L266.697 142.464Z" fill="#263238"/>
<path d="M270.085 142.464H268.369L270.979 130.222H272.695L270.085 142.464Z" fill="#263238"/>
<path d="M273.482 142.464H271.757L274.366 130.222H276.091L273.482 142.464Z" fill="#263238"/>
<path d="M276.87 142.464H275.154L277.763 130.222H279.479L276.87 142.464Z" fill="#263238"/>
<path d="M280.257 142.464H278.541L281.151 130.222H282.867L280.257 142.464Z" fill="#263238"/>
<path d="M283.654 142.464H281.929L284.547 130.222H286.263L283.654 142.464Z" fill="#263238"/>
<path d="M282.107 176.28H246.062V173.476L282.107 172.308V176.28Z" fill="#455A64"/>
<path d="M291.907 176.271H272.553L260.895 145.701H280.249L291.907 176.271Z" fill="#455A64"/>
<path d="M295.091 176.271H275.738L264.079 145.701H283.433L295.091 176.271Z" fill="#263238"/>
<path d="M81.2276 162.03H103.845L92.187 107.471H69.5693L81.2276 162.03Z" fill="#455A64"/>
<path d="M78.5117 162.03H101.129L89.48 107.471H66.8623L78.5117 162.03Z" fill="#37474F"/>
<path d="M81.5987 142.464H81.9171L79.3077 130.222H78.9893L81.5987 142.464Z" fill="#263238"/>
<path d="M82.2798 142.464H82.5982L79.9888 130.222H79.6704L82.2798 142.464Z" fill="#263238"/>
<path d="M82.9609 142.464H83.2882L80.6788 130.222H80.3604L82.9609 142.464Z" fill="#263238"/>
<path d="M83.6504 142.464H83.9688L81.3594 130.222H81.041L83.6504 142.464Z" fill="#263238"/>
<path d="M84.332 142.464H84.6593L82.0499 130.222H81.7227L84.332 142.464Z" fill="#263238"/>
<path d="M85.0215 142.464H85.3399L82.7305 130.222H82.4121L85.0215 142.464Z" fill="#263238"/>
<path d="M85.7031 142.464H86.0216L83.4122 130.222H83.0938L85.7031 142.464Z" fill="#263238"/>
<path d="M86.3843 142.464H86.7116L84.1022 130.222H83.7749L86.3843 142.464Z" fill="#263238"/>
<path d="M78.0791 176.28H105.137V173.476L78.0791 172.308V176.28Z" fill="#455A64"/>
<path d="M68.2778 176.271H78.6446L90.3029 145.701H79.9361L68.2778 176.271Z" fill="#455A64"/>
<path d="M68.2778 176.271H75.4603L87.1097 145.701H79.9361L68.2778 176.271Z" fill="#263238"/>
<path d="M211.37 176.306H183.772C181.41 176.306 184.824 169.593 193.422 167.027C202.02 164.462 214.023 173.785 211.37 176.306Z" fill="#37474F"/>
<path d="M200.507 176.306C200.435 175.528 200.5 174.744 200.702 173.989C200.892 173.231 201.19 172.504 201.586 171.831C201.996 171.158 202.516 170.56 203.125 170.062C203.729 169.558 204.435 169.193 205.195 168.991C204.632 169.479 204.1 170.002 203.603 170.557C203.132 171.108 202.712 171.7 202.347 172.326C201.615 173.595 200.999 174.927 200.507 176.306Z" fill="#263238"/>
<path d="M203.771 169.92C204.624 170.094 205.455 170.364 206.248 170.725C207.04 171.086 207.798 171.518 208.512 172.016C209.243 172.52 209.891 173.135 210.432 173.838C211.017 174.526 211.331 175.404 211.316 176.306C211 175.537 210.517 174.848 209.901 174.29C209.303 173.724 208.661 173.206 207.981 172.742C206.646 171.769 205.177 170.911 203.771 169.92Z" fill="#263238"/>
<path d="M81.5374 285.362H58.106V289.484H81.5374V285.362Z" fill="#455A64"/>
<path d="M94.2389 345.643H91.7091L71.0728 249.308L69.8963 243.815L66.1901 226.522L64.8102 220.074L59.618 195.873L57.8047 187.399H66.8181L68.2865 195.873L69.2506 201.436L69.8963 205.143L73.5937 226.522L74.7878 233.404L94.2389 345.643Z" fill="#455A64"/>
<path d="M66.8181 187.399L68.2865 195.873H59.618L57.8047 187.399H66.8181Z" fill="#263238"/>
<path d="M74.7881 233.404L71.0731 249.308L69.8966 243.815L66.1904 226.522L64.8105 220.074L69.2509 201.436L69.8966 205.143L73.594 226.522L74.7881 233.404Z" fill="#263238"/>
<path d="M81.9795 187.399L80.1662 195.873L73.5941 226.522L69.8967 243.815L48.0751 345.643H45.5542L66.1905 226.522L69.8967 205.143L71.4977 195.873L72.9661 187.399H81.9795Z" fill="#455A64"/>
<path d="M81.9798 187.399L80.1665 195.873H71.498L72.9664 187.399H81.9798Z" fill="#263238"/>
<path d="M329.553 187.399L295.649 345.643H293.128L320.54 187.399H329.553Z" fill="#455A64"/>
<path d="M305.378 187.399L339.283 345.643H341.804L314.392 187.399H305.378Z" fill="#455A64"/>
<path d="M329.111 285.362H305.679V289.484H329.111V285.362Z" fill="#455A64"/>
<path d="M343.405 176.28H43.9531V187.399H343.405V176.28Z" fill="#455A64"/>
<path d="M41.7679 274.702C35.293 261.434 23.9709 254.561 11.1982 258.338C-1.57457 262.115 -3.57363 279.921 5.98825 284.415C15.5501 288.908 25.0501 275.781 30.0831 273.084C35.1161 270.386 41.7679 274.702 41.7679 274.702Z" fill="#4668D6"/>
<path d="M48.0395 310.128C48.0395 308.518 47.9422 306.917 47.8803 305.316C47.7741 302.114 47.6621 298.912 47.5441 295.71C47.323 289.845 46.6596 284.096 44.2713 278.7C42.1275 273.805 38.5459 269.678 34.0018 266.865C32.3143 265.846 30.4962 265.06 28.5973 264.53C26.8767 262.792 24.689 261.591 22.2994 261.071C19.3423 260.475 16.3033 260.403 13.3213 260.859C13.2152 260.859 13.2152 261.036 13.3213 261.027C16.1667 260.664 19.0558 260.868 21.8217 261.629C23.006 261.954 24.1533 262.402 25.2449 262.964C25.9365 263.332 26.5989 263.752 27.2263 264.22C24.6505 263.687 21.9903 263.711 19.4246 264.291C18.5004 264.514 17.5953 264.81 16.7179 265.176C16.0185 265.021 15.3015 264.962 14.5862 264.999C13.6547 265.027 12.7292 265.157 11.8264 265.388C9.97707 265.908 8.20881 266.682 6.57227 267.688C6.47497 267.741 6.57227 267.882 6.66072 267.829C8.2698 266.951 9.99361 266.302 11.7822 265.901C12.6548 265.7 13.5422 265.57 14.4358 265.512C14.9249 265.485 15.4151 265.485 15.9042 265.512C12.2683 267.194 9.34484 270.108 7.6514 273.738C7.60718 273.835 7.7487 273.924 7.79293 273.818C8.80056 271.711 10.2703 269.86 12.0928 268.4C13.9152 266.941 16.0434 265.911 18.3189 265.388C18.5932 265.317 18.8851 265.282 19.2035 265.22C19.1062 265.636 19.1239 266.104 19.0708 266.511C18.9824 267.157 18.8762 267.803 18.7435 268.44C18.462 269.767 18.0987 271.076 17.6555 272.358C17.2229 273.65 16.7058 274.911 16.1076 276.135C15.5289 277.428 14.8048 278.651 13.9493 279.779C13.8697 279.868 14.0201 279.983 14.082 279.877C14.8516 278.674 15.7449 277.568 16.4437 276.339C17.1112 275.145 17.6878 273.903 18.1686 272.623C18.6587 271.328 19.0403 269.993 19.3096 268.634C19.4512 267.918 19.5661 267.192 19.6458 266.467C19.7341 266.034 19.7609 265.59 19.7254 265.149C21.2271 264.918 22.7528 264.885 24.2631 265.052C23.6969 268.227 23.0866 271.536 21.3087 274.295C21.2468 274.384 21.406 274.472 21.4591 274.375C22.2876 272.911 23.0203 271.396 23.6527 269.837C24.2346 268.31 24.5979 266.708 24.7319 265.078C27.3683 265.435 29.9135 266.287 32.2328 267.59C36.6026 270.138 40.0876 273.963 42.2192 278.55C44.4837 283.456 45.7553 288.762 45.9608 294.162C46.3854 300.964 46.4738 307.802 47.1549 314.586C47.1549 315.028 47.8979 315.179 47.9864 314.675C48.1457 313.164 48.1635 311.642 48.0395 310.128Z" fill="#263238"/>
<path d="M33.0731 265.795C32.6497 265.277 32.1554 264.821 31.6048 264.441C31.0741 263.999 30.5345 263.557 29.9596 263.185C28.8365 262.416 27.5928 261.839 26.2799 261.478C26.1737 261.478 26.1383 261.62 26.2799 261.646C27.5991 261.976 28.8345 262.579 29.9065 263.415C30.446 263.813 30.9679 264.238 31.4721 264.68C31.9234 265.148 32.4213 265.569 32.9581 265.936C33.0201 266.007 33.1439 265.892 33.0731 265.795Z" fill="#263238"/>
<path d="M12.4099 270.589C11.3398 271.837 10.3501 273.152 9.4467 274.525C8.55972 275.904 7.81861 277.371 7.23535 278.904C7.23535 278.948 7.28842 278.974 7.31496 278.904C8.79505 276.008 10.5422 273.257 12.5337 270.686C12.6045 270.651 12.4807 270.536 12.4099 270.589Z" fill="#263238"/>
<path d="M26.3417 269.306C26.2021 270.137 25.9553 270.945 25.6075 271.712C25.2548 272.454 24.8437 273.167 24.378 273.844C24.3709 273.853 24.3679 273.865 24.3696 273.877C24.3712 273.888 24.3774 273.899 24.3868 273.906C24.3962 273.913 24.408 273.916 24.4196 273.914C24.4312 273.913 24.4417 273.907 24.4487 273.897C25.5668 272.614 26.2808 271.029 26.5009 269.342C26.5009 269.236 26.3594 269.191 26.3417 269.306Z" fill="#263238"/>
<path d="M47.1372 275.012C47.1372 275.012 56.301 263.513 73.9918 267.573C90.7981 271.456 98.5643 302.291 81.5723 305.979C64.5803 309.668 67.5789 281.133 61.3871 276.294C56.8406 272.756 50.3127 273.526 47.1372 275.012Z" fill="#4668D6"/>
<path d="M87.6581 284.432C86.506 283.421 85.2886 282.488 84.0138 281.637C82.8106 280.817 81.5012 280.166 80.1218 279.7C79.4285 278.667 78.6535 277.69 77.8043 276.781C76.258 275.103 74.4691 273.666 72.4971 272.517H73.0278C73.9648 272.469 74.9036 272.469 75.8406 272.517C77.727 272.633 79.5765 273.091 81.2982 273.871C81.3182 273.88 81.341 273.881 81.3618 273.874C81.3825 273.866 81.3994 273.851 81.4088 273.831C81.4182 273.811 81.4193 273.788 81.4118 273.767C81.4043 273.747 81.3889 273.73 81.369 273.72C79.6214 272.966 77.7932 272.414 75.9202 272.075C75.0065 271.912 74.0798 271.832 73.1516 271.836C72.6563 271.836 72.1609 271.881 71.6656 271.925H71.3825C69.7636 271.102 68.0535 270.473 66.2876 270.05L66.7741 269.917C67.6498 269.723 68.5357 269.578 69.4277 269.483C71.1927 269.278 72.9769 269.305 74.735 269.563C74.8411 269.563 74.8765 269.413 74.735 269.395C72.9742 269.185 71.1996 269.114 69.4277 269.183C67.938 269.227 66.4564 269.419 65.005 269.758C63.9382 269.563 62.8597 269.439 61.7764 269.386C55.5847 269.13 48.8799 271.438 45.0852 276.507C41.2905 281.575 40.4414 288.333 39.7691 294.472C38.7336 303.002 38.5055 311.612 39.088 320.185C39.088 320.698 39.8399 320.601 39.8576 320.123C40.0875 312.852 40.3441 305.581 41.0429 298.337C41.3613 294.976 41.7151 291.615 42.2724 288.289C42.6779 285.425 43.5004 282.635 44.7137 280.009C46.028 277.33 48.1053 275.099 50.6843 273.597C53.2774 272.109 56.169 271.218 59.1494 270.987C61.826 270.768 64.5203 271.02 67.1102 271.73C67.0305 272.249 67.0305 272.777 67.1102 273.296C67.1638 273.955 67.2944 274.605 67.4994 275.233C67.6908 275.826 67.9365 276.401 68.2336 276.949C68.5609 277.559 68.9766 278.099 69.3393 278.718C69.4012 278.806 69.5427 278.718 69.4808 278.621C68.75 277.583 68.2798 276.385 68.1098 275.127C67.9962 274.543 67.9253 273.952 67.8975 273.358C67.8975 272.898 67.8975 272.473 67.8975 271.987C70.7044 272.85 73.324 274.233 75.6195 276.064C76.0529 276.409 76.504 276.772 76.8755 277.144C76.2896 277.686 75.7834 278.308 75.3718 278.992C74.7668 279.876 74.2399 280.812 73.7973 281.787C72.9806 283.77 72.4303 285.852 72.1609 287.979C72.1609 288.085 72.3202 288.121 72.329 287.979C72.6296 285.918 73.285 283.925 74.2661 282.088C74.735 281.193 75.2578 280.328 75.8318 279.496C76.1325 279.072 76.4421 278.612 76.7163 278.24C76.8932 278.028 77.079 277.798 77.247 277.568C79.3297 279.607 81.0285 282.004 82.2624 284.644C81.4233 285.526 80.7252 286.531 80.1926 287.625C79.5578 288.764 79.005 289.946 78.5385 291.164C77.68 293.522 76.9739 295.933 76.4244 298.381C76.4244 298.488 76.5659 298.523 76.5925 298.381C77.131 295.928 77.9718 293.551 79.0957 291.305C79.6265 290.199 80.1837 289.111 80.7764 288.032C81.3878 287.032 81.9429 285.998 82.4393 284.936C83.6171 287.517 84.3011 290.295 84.456 293.127C84.456 293.242 84.6329 293.224 84.6241 293.127C84.2985 288.682 82.9384 284.375 80.6525 280.549C81.7317 281.009 82.8196 281.434 83.8634 282.017C85.1867 282.713 86.4195 283.569 87.5342 284.565C87.6315 284.636 87.7377 284.503 87.6581 284.432Z" fill="#263238"/>
<path d="M74.6817 285.087C74.151 286.856 73.4787 288.528 73.001 290.297C72.5133 291.988 72.2515 293.737 72.2227 295.498C72.2227 295.498 72.3023 295.551 72.3023 295.498C72.7836 291.966 73.6345 288.494 74.8409 285.14C74.8493 285.129 74.8549 285.116 74.8573 285.102C74.8597 285.088 74.8587 285.074 74.8546 285.06C74.8504 285.047 74.8431 285.035 74.8333 285.025C74.8235 285.015 74.8114 285.007 74.7981 285.003C74.7848 284.998 74.7706 284.997 74.7568 284.999C74.7429 285.001 74.7298 285.007 74.7184 285.015C74.707 285.023 74.6978 285.034 74.6914 285.046C74.685 285.059 74.6817 285.073 74.6817 285.087Z" fill="#263238"/>
<path d="M85.8885 280.752C85.1925 280.084 84.4029 279.521 83.5445 279.081C82.6694 278.682 81.7606 278.363 80.8289 278.125C80.7316 278.125 80.6963 278.267 80.8289 278.284C81.7573 278.525 82.6497 278.888 83.4826 279.364C84.3188 279.798 85.1229 280.292 85.8885 280.841C85.8708 280.885 85.9416 280.805 85.8885 280.752Z" fill="#263238"/>
<path d="M55.8408 259.647C55.8408 259.647 57.5391 238.949 72.9213 232.227C85.7736 226.619 93.1242 241.072 84.0488 249.917C76.6983 257.064 64.9162 253.836 55.8408 259.647Z" fill="#4668D6"/>
<path d="M81.2002 236.251C78.8567 237.195 76.5707 238.276 74.3539 239.489C72.5117 240.554 70.739 241.736 69.0467 243.027C69.2943 242.505 69.5243 241.957 69.7808 241.443C70.1789 240.639 70.6123 239.86 71.0811 239.099C72.0314 237.534 73.1723 236.093 74.4777 234.809C74.5574 234.739 74.4247 234.615 74.3539 234.694C73.0652 235.983 71.882 237.374 70.8158 238.852C70.289 239.604 69.8019 240.384 69.3563 241.187C68.9036 241.932 68.5554 242.736 68.3214 243.575L68.1533 243.699C65.4644 245.839 63.0014 248.249 60.8028 250.89C60.847 250.687 60.8912 250.483 60.9443 250.298C61.2273 249.281 61.5458 248.281 61.8288 247.29C62.4914 245.164 63.428 243.133 64.6151 241.249C64.6682 241.16 64.5178 241.072 64.4648 241.169C63.2523 243.054 62.1763 245.022 61.245 247.06C60.8164 248.05 60.4616 249.07 60.1836 250.112C59.9599 250.79 59.7912 251.485 59.6794 252.191C59.0072 253.075 58.3526 253.898 57.7246 254.782C51.1259 264.185 47.8089 275.56 47.0128 286.944C46.7849 290.333 46.7288 293.731 46.8447 297.125C46.8647 300.552 47.1605 303.971 47.7293 307.351C47.7293 307.563 48.1096 307.501 48.1008 307.297C48.03 304.308 47.7204 301.327 47.6585 298.337C47.5966 295.347 47.7116 292.331 47.9504 289.35C48.4315 283.376 49.5555 277.472 51.3028 271.739C53.0933 265.868 55.7304 260.29 59.131 255.18C59.7767 255.048 60.4224 254.88 61.0593 254.712C61.6961 254.544 62.5984 254.314 63.3591 254.101C64.8389 253.724 66.2763 253.196 67.6491 252.527C67.7464 252.527 67.6491 252.332 67.5606 252.385C66.2048 253.127 64.7335 253.636 63.2087 253.889C62.0057 254.128 60.7585 254.287 59.5467 254.561C60.6598 252.933 61.8555 251.362 63.1291 249.855C66.0612 250.125 69.0179 249.904 71.8772 249.201C73.4007 248.836 74.8987 248.372 76.3618 247.812C77.9009 247.22 79.3604 246.45 80.8818 245.813C80.9018 245.804 80.9171 245.787 80.9246 245.766C80.9321 245.745 80.931 245.722 80.9216 245.703C80.9122 245.683 80.8953 245.667 80.8746 245.66C80.8538 245.652 80.831 245.653 80.811 245.663C78.0629 247.16 75.0659 248.146 71.9657 248.573C69.2209 249.007 66.4475 249.235 63.6687 249.254C64.7567 247.998 65.8889 246.777 67.0918 245.627C71.1342 241.78 75.9372 238.241 81.2445 236.402C81.3418 236.375 81.3418 236.207 81.2002 236.251Z" fill="#263238"/>
<path d="M68.676 236.313C67.9859 237.189 67.3564 238.111 66.7919 239.073C66.2069 240.084 65.7465 241.162 65.4209 242.284C65.4209 242.284 65.4209 242.337 65.4828 242.284C65.9958 241.276 66.4293 240.223 66.9423 239.206C67.4557 238.212 68.0724 237.275 68.7822 236.411C68.8706 236.349 68.7468 236.225 68.676 236.313Z" fill="#263238"/>
<path d="M82.9875 243.168C81.9843 243.718 80.9258 244.16 79.8297 244.486C78.7775 244.843 77.7054 245.139 76.6188 245.371C76.5657 245.371 76.6188 245.468 76.6188 245.459C77.751 245.342 78.8665 245.099 79.9447 244.734C81.0286 244.339 82.0863 243.875 83.1113 243.345C83.1732 243.301 83.1113 243.168 82.9875 243.168Z" fill="#263238"/>
<path d="M43.882 255.923C43.7847 256.808 41.5557 248.405 28.5441 240.939C16.7709 234.164 2.61827 216.535 14.2146 205.39C23.5642 196.403 48.1986 216.004 43.882 255.923Z" fill="#4668D6"/>
<path d="M52.8428 304.131C52.6492 295.377 51.9581 286.641 50.773 277.966C49.7466 269.994 47.906 262.149 45.28 254.552C44.307 251.819 43.2013 249.121 42.0072 246.476C42.0739 245.445 42.0561 244.409 41.9541 243.381C41.8834 242.054 41.7684 240.727 41.6446 239.409C41.5207 238.091 41.388 236.755 41.2288 235.455C41.0696 234.155 40.7954 232.801 40.7423 231.51C40.7467 231.497 40.7478 231.483 40.7457 231.469C40.7435 231.455 40.7381 231.442 40.7299 231.431C40.7217 231.419 40.711 231.41 40.6985 231.404C40.6861 231.397 40.6723 231.394 40.6583 231.394C40.6443 231.394 40.6305 231.397 40.6181 231.404C40.6056 231.41 40.5948 231.419 40.5866 231.431C40.5784 231.442 40.573 231.455 40.5709 231.469C40.5687 231.483 40.5699 231.497 40.5743 231.51C40.8371 232.891 40.9938 234.289 41.0431 235.694C41.1404 236.968 41.2111 238.25 41.2554 239.524C41.2996 240.798 41.2554 242.089 41.2554 243.372C41.2554 243.832 41.2554 244.318 41.2554 244.813C40.0347 242.231 38.7167 239.683 37.3015 237.206C38.186 231.811 37.0361 226.176 35.9393 220.896C35.9393 220.789 35.7535 220.842 35.7712 220.949C36.3225 223.702 36.6186 226.5 36.6558 229.307C36.7088 231.519 36.6027 233.73 36.5938 235.95C36.2842 235.42 35.9747 234.889 35.6562 234.367C33.9461 231.625 32.1328 228.957 30.2163 226.362C30.3668 225.083 30.3221 223.789 30.0836 222.523C29.8791 221.087 29.5686 219.668 29.1549 218.277C28.7421 216.897 28.2615 215.541 27.7131 214.208C27.1469 212.846 26.3951 211.555 25.8555 210.175C25.8509 210.165 25.8443 210.156 25.8363 210.149C25.8282 210.141 25.8187 210.136 25.8085 210.132C25.7982 210.128 25.7873 210.127 25.7764 210.127C25.7655 210.128 25.7548 210.13 25.745 210.135C25.7351 210.14 25.7262 210.146 25.7189 210.154C25.7115 210.162 25.7058 210.172 25.7022 210.182C25.6985 210.192 25.6968 210.203 25.6973 210.214C25.6978 210.225 25.7005 210.236 25.7051 210.246C26.3948 211.541 26.9405 212.909 27.3327 214.323C27.7609 215.653 28.1153 217.006 28.3941 218.375C28.6684 219.746 28.8983 221.117 29.0841 222.497C29.2168 223.381 29.2964 224.363 29.4556 225.292C26.6694 221.546 23.6251 217.999 20.3448 214.677C20.2652 214.598 20.1591 214.721 20.2298 214.801C25.1863 220.375 29.6134 226.398 33.4537 232.793L33.8695 233.518C33.153 233.067 32.3304 232.713 31.6581 232.341C30.4021 231.646 29.1372 230.95 27.8634 230.254C26.5897 229.558 25.3631 228.886 24.1837 228.237C23.5469 227.892 22.9277 227.521 22.282 227.193C21.5146 226.85 20.7778 226.441 20.0795 225.973C19.9822 225.902 19.876 226.052 19.9822 226.105C21.2294 226.795 22.3439 227.821 23.5203 228.591C24.6968 229.361 25.9705 230.112 27.2354 230.82C29.5529 232.112 32.065 233.04 34.3117 234.358C35.895 237.118 37.3457 239.957 38.7344 242.841C37.3545 241.956 35.9393 241.072 34.5063 240.311C33.6218 239.798 32.6665 239.294 31.7289 238.799C30.7888 238.37 29.8988 237.839 29.0752 237.215C29.0582 237.203 29.0371 237.196 29.0159 237.198C28.9947 237.199 28.9747 237.208 28.9596 237.224C28.9446 237.239 28.9355 237.259 28.9339 237.28C28.9324 237.301 28.9386 237.322 28.9514 237.339C30.4696 238.697 32.1479 239.864 33.9491 240.815C35.6208 241.788 37.3103 242.735 39.0529 243.584C40.4386 246.633 41.6917 249.737 42.8121 252.898C48.2963 268.404 50.3042 284.865 51.2683 301.212C51.5514 306.086 51.7018 310.942 51.7637 315.833C51.8256 320.725 51.5602 325.563 51.5779 330.455C51.5779 330.596 51.8079 330.632 51.8344 330.455C52.4182 326.129 52.5155 321.733 52.719 317.381C52.9224 313.029 52.9401 308.553 52.8428 304.131Z" fill="#263238"/>
<path d="M29.1988 233.934C26.8237 232.885 24.5164 231.688 22.2906 230.351C20.0276 229.085 17.8365 227.694 15.7273 226.185C15.7273 226.185 15.6477 226.185 15.7273 226.247C17.7217 227.865 19.826 229.343 22.0252 230.67C24.3297 231.95 26.7107 233.087 29.1546 234.075C29.2165 234.119 29.305 233.969 29.1988 233.934Z" fill="#263238"/>
<path d="M32.9758 216.402C32.7812 215.65 32.5424 214.907 32.2859 214.164C32.2946 214.151 32.2993 214.136 32.2993 214.12C32.2993 214.104 32.2946 214.089 32.2859 214.076L31.8082 212.828C31.7946 212.776 31.7738 212.725 31.7463 212.678C31.7463 212.598 31.6844 212.519 31.649 212.439C31.6136 212.36 31.649 212.439 31.649 212.439C31.649 212.439 31.7286 212.731 31.7729 212.873C31.7779 212.947 31.7897 213.021 31.8082 213.094C32.6634 215.992 33.3078 218.948 33.7365 221.939C33.7365 222.028 33.8958 222.036 33.8869 221.939C33.7555 220.069 33.4505 218.215 32.9758 216.402Z" fill="#263238"/>
<path d="M66.5881 307.271L65.6593 318.274L62.8199 351.834H32.3741L29.5347 318.274L28.606 307.271H66.5881Z" fill="#37474F"/>
<path d="M66.5881 307.271L65.6593 318.274H29.5347L28.606 307.271H66.5881Z" fill="#263238"/>
<path d="M69.5685 302.857H25.6157V313.41H69.5685V302.857Z" fill="#37474F"/>
</svg>
