<svg width="19" height="20" viewBox="0 0 19 20" fill="none" xmlns="http://www.w3.org/2000/svg">
<path d="M9.5 6.93555V10.498" stroke="#696969" stroke-width="1.5" stroke-linecap="round" stroke-linejoin="round"/>
<path d="M12.5875 12.2793L9.5 10.498" stroke="#696969" stroke-width="1.5" stroke-linecap="round" stroke-linejoin="round"/>
<path d="M5.32861 8.39844H2.35986V5.42969" stroke="#696969" stroke-width="1.5" stroke-linecap="round" stroke-linejoin="round"/>
<path d="M4.8833 15.1145C5.7965 16.0284 6.96025 16.651 8.22733 16.9034C9.49442 17.1559 10.8079 17.0268 12.0016 16.5326C13.1954 16.0385 14.2157 15.2013 14.9336 14.1272C15.6515 13.053 16.0347 11.79 16.0347 10.498C16.0347 9.20606 15.6515 7.9431 14.9336 6.86893C14.2157 5.79475 13.1954 4.95763 12.0016 4.46345C10.8079 3.96927 9.49442 3.84024 8.22733 4.09269C6.96025 4.34513 5.7965 4.9677 4.8833 5.88164L2.35986 8.39766" stroke="#696969" stroke-width="1.5" stroke-linecap="round" stroke-linejoin="round"/>
</svg>
