<svg width="10" height="14" viewBox="0 0 10 14" fill="none" xmlns="http://www.w3.org/2000/svg">
<path d="M6.32493 2.13876C6.70364 2.53174 6.9808 2.98394 6.99002 3.36787L8.39693 3.35145C8.69215 3.348 9.17879 3.28187 8.93278 3.6562L8.53517 4.26121C8.3799 4.49748 8.2361 4.47438 8.10801 4.47663L6.96444 4.49665C6.76558 5.99396 5.49916 6.94813 3.82278 7.30215C3.36289 7.3828 3.28315 7.53767 3.53747 7.85695L7.27064 12.5434C7.45211 12.7712 7.62951 12.9991 7.27064 12.9993L5.92294 13C5.77341 13.0001 5.65728 12.9655 5.53371 12.8135L1.48877 7.83822C1.2994 7.60529 1.26324 7.42286 1.26642 7.28882L1.27992 6.71932C1.28547 6.48525 1.58623 6.49621 1.94393 6.50981C3.69812 6.55219 5.01794 6.19367 5.35289 4.47157L1.22864 4.44819C1.05015 4.44718 0.967224 4.38113 1.077 4.20043L1.5079 3.49117C1.60403 3.33294 1.68815 3.26817 2.00715 3.2727L5.17383 3.3177C4.66743 2.28279 3.32668 2.10248 1.24727 2.15207C0.868656 2.16322 0.9704 1.98793 1.24727 1.58691L1.44551 1.29844C1.6479 1.00997 1.75998 1.0098 2.0058 1.00944L2.00715 1.00944L7.86876 1.00083L8.39905 1.00005L8.69215 1C8.98526 0.99995 9.06501 1.11764 8.93278 1.31543L8.53517 1.92635C8.39693 2.13876 8.39693 2.13876 8.10801 2.13876H7.86876H6.32493Z" fill="#4668D6"/>
<path d="M2.00715 1.00944L7.86876 1.00083L8.39905 1.00005L8.69215 1C8.98526 0.99995 9.06501 1.11764 8.93278 1.31543L8.53517 1.92635C8.39693 2.13876 8.39693 2.13876 8.10801 2.13876H7.86876H6.32493C6.70364 2.53174 6.9808 2.98394 6.99002 3.36787L8.39693 3.35145C8.69215 3.348 9.17879 3.28187 8.93278 3.6562L8.53517 4.26121C8.3799 4.49748 8.2361 4.47438 8.10801 4.47663L6.96444 4.49665C6.76558 5.99396 5.49916 6.94813 3.82278 7.30215C3.36289 7.3828 3.28315 7.53767 3.53747 7.85695L7.27064 12.5434C7.45211 12.7712 7.62951 12.9991 7.27064 12.9993L5.92294 13C5.77341 13.0001 5.65728 12.9655 5.53371 12.8135L1.48877 7.83822C1.2994 7.60529 1.26324 7.42286 1.26642 7.28882L1.27992 6.71932C1.28547 6.48525 1.58623 6.49621 1.94393 6.50981C3.69812 6.55219 5.01794 6.19367 5.35289 4.47157L1.22864 4.44819C1.05015 4.44718 0.967224 4.38113 1.077 4.20043L1.5079 3.49117C1.60403 3.33294 1.68815 3.26817 2.00715 3.2727L5.17383 3.3177C4.66743 2.28279 3.32668 2.10248 1.24727 2.15207C0.868656 2.16322 0.9704 1.98793 1.24727 1.58691L1.44551 1.29844C1.6479 1.00997 1.75998 1.0098 2.0058 1.00944M2.00715 1.00944L2.0058 1.00944M2.00715 1.00944C2.0067 1.00944 2.00625 1.00944 2.0058 1.00944" stroke="#4668D6" stroke-width="0.6" stroke-linejoin="round"/>
</svg>
