<svg width="406" height="380" viewBox="0 0 406 380" fill="none" xmlns="http://www.w3.org/2000/svg">
<path d="M0.37207 321.458L50.9792 321.23L101.586 321.145L202.81 320.983L304.025 321.145L354.641 321.23L405.248 321.458L354.641 321.686L304.025 321.771L202.81 321.933L101.586 321.771L50.9792 321.686L0.37207 321.458Z" fill="#263238"/>
<path d="M119.449 380C185.213 380 238.526 371.718 238.526 361.501C238.526 351.285 185.213 343.003 119.449 343.003C53.6846 343.003 0.37207 351.285 0.37207 361.501C0.37207 371.718 53.6846 380 119.449 380Z" fill="#DCDCDC"/>
<path d="M355.305 373.403C381.095 373.403 402.002 368.074 402.002 361.501C402.002 354.928 381.095 349.599 355.305 349.599C329.515 349.599 308.608 354.928 308.608 361.501C308.608 368.074 329.515 373.403 355.305 373.403Z" fill="#DCDCDC"/>
<path d="M351.101 340.165H112.359L134.531 23.0447H373.282L351.101 340.165Z" fill="#FFC727"/>
<g opacity="0.1">
<path opacity="0.1" d="M351.101 340.165H112.359L134.531 23.0447H373.282L351.101 340.165Z" fill="black"/>
</g>
<path d="M345.254 340.165H106.503L128.684 23.0447H367.426L345.254 340.165Z" fill="#FFC727"/>
<path d="M334.387 321.391L123.454 324.077L139.788 38.3918L350.731 35.7058L334.387 321.391Z" fill="#EBEBEB"/>
<path d="M329.215 324.989L118.823 320.443L144.962 34.8044L355.354 39.3412L329.215 324.989Z" fill="#DBDBDB"/>
<path d="M332.479 322.749H121.717L141.696 37.0442H352.458L332.479 322.749Z" fill="white"/>
<path d="M185.65 127.154H164.608L166.08 106.112H187.122L185.65 127.154Z" fill="#EBEBEB"/>
<path d="M266.439 109.196H198.264L198.482 106.112H266.657L266.439 109.196Z" fill="#263238"/>
<path d="M317.787 115.176H197.847L198.065 112.091H317.996L317.787 115.176Z" fill="#EBEBEB"/>
<path d="M317.36 121.165H197.429L197.647 118.08H317.578L317.36 121.165Z" fill="#EBEBEB"/>
<path d="M316.943 127.154H197.012L197.23 124.069H317.161L316.943 127.154Z" fill="#EBEBEB"/>
<path d="M166.972 115.584C167.703 116.23 168.395 116.913 169.079 117.587C169.762 118.261 170.417 118.973 171.091 119.665C172.41 121.07 173.672 122.513 174.887 123.965L172.458 124.126C174.659 120.14 177.116 116.301 179.813 112.632C181.171 110.791 182.585 108.997 184.084 107.251C185.595 105.484 187.211 103.81 188.925 102.24C188.139 104.404 187.206 106.513 186.134 108.551C185.1 110.582 183.97 112.556 182.775 114.493C180.389 118.379 177.751 122.104 174.878 125.645L173.435 127.41L172.486 125.797C171.537 124.155 170.512 122.503 169.639 120.804C169.183 119.941 168.69 119.105 168.281 118.232C167.873 117.359 167.361 116.438 166.972 115.584Z" fill="#FFC727"/>
<path d="M182.898 166.495H161.856L163.328 145.453H184.37L182.898 166.495Z" fill="#EBEBEB"/>
<path d="M263.687 148.538H195.512L195.73 145.453H263.905L263.687 148.538Z" fill="#263238"/>
<path d="M315.034 154.527H195.094L195.312 151.442H315.243L315.034 154.527Z" fill="#EBEBEB"/>
<path d="M314.617 160.516H194.677L194.895 157.431H314.826L314.617 160.516Z" fill="#EBEBEB"/>
<path d="M314.198 166.495H194.258L194.476 163.42H314.407L314.198 166.495Z" fill="#EBEBEB"/>
<path d="M164.219 154.887C164.95 155.533 165.642 156.206 166.326 156.89C167.009 157.573 167.664 158.275 168.338 158.968C169.657 160.373 170.92 161.816 172.134 163.268L169.714 163.42C171.91 159.431 174.368 155.591 177.07 151.926C178.418 150.094 179.832 148.3 181.331 146.554C182.839 144.784 184.456 143.111 186.172 141.542C185.381 143.704 184.452 145.812 183.391 147.854C182.347 149.885 181.218 151.859 180.022 153.796C177.642 157.676 175.014 161.398 172.153 164.938L170.711 166.704L169.762 165.09C168.756 163.448 167.778 161.787 166.857 160.088C166.402 159.234 165.908 158.389 165.5 157.526C165.092 156.662 164.608 155.789 164.219 154.887Z" fill="#FFC727"/>
<path d="M180.146 205.846H159.104L160.575 184.803H181.617L180.146 205.846Z" fill="#EBEBEB"/>
<path d="M260.934 187.888H192.759L192.977 184.803H261.152L260.934 187.888Z" fill="#263238"/>
<path d="M312.282 193.877H192.342L192.56 190.792H312.501L312.282 193.877Z" fill="#EBEBEB"/>
<path d="M311.864 199.856H191.924L192.142 196.781H312.083L311.864 199.856Z" fill="#EBEBEB"/>
<path d="M311.446 205.846H191.506L191.724 202.761H311.655L311.446 205.846Z" fill="#EBEBEB"/>
<path d="M161.466 194.238C162.197 194.883 162.89 195.557 163.573 196.24C164.256 196.924 164.911 197.626 165.585 198.319C166.904 199.714 168.167 201.166 169.381 202.618L166.961 202.77C169.167 198.783 171.631 194.943 174.336 191.276C175.684 189.445 177.098 187.641 178.597 185.904C180.105 184.135 181.722 182.461 183.438 180.893C182.649 183.052 181.72 185.157 180.657 187.195C179.613 189.226 178.484 191.21 177.288 193.146C174.905 197.031 172.267 200.754 169.391 204.289L167.948 206.054L166.999 204.45C165.993 202.808 165.016 201.147 164.095 199.448C163.649 198.594 163.146 197.749 162.738 196.876C162.33 196.003 161.855 195.139 161.466 194.238Z" fill="#FFC727"/>
<path d="M177.393 245.196H156.351L157.822 224.154H178.864L177.393 245.196Z" fill="#EBEBEB"/>
<path d="M258.182 227.239H190.007L190.225 224.154H258.401L258.182 227.239Z" fill="#263238"/>
<path d="M309.529 233.218H189.589L189.807 230.134H309.748L309.529 233.218Z" fill="#EBEBEB"/>
<path d="M309.112 239.207H189.172L189.39 236.123H309.331L309.112 239.207Z" fill="#EBEBEB"/>
<path d="M308.694 245.196H188.754L188.972 242.111H308.913L308.694 245.196Z" fill="#EBEBEB"/>
<path d="M174.64 284.537H153.598L155.069 263.505H176.111L174.64 284.537Z" fill="#EBEBEB"/>
<path d="M255.43 266.58H187.264L187.472 263.505H255.648L255.43 266.58Z" fill="#263238"/>
<path d="M306.778 272.569H186.847L187.055 269.484H306.996L306.778 272.569Z" fill="#EBEBEB"/>
<path d="M306.359 278.558H186.419L186.637 275.473H306.578L306.359 278.558Z" fill="#EBEBEB"/>
<path d="M305.941 284.537H186.001L186.219 281.453H306.16L305.941 284.537Z" fill="#EBEBEB"/>
<path d="M207.859 70.4437C209.077 70.4353 210.261 70.8477 211.21 71.6111C211.249 71.6436 211.283 71.6835 211.307 71.7287C211.331 71.7739 211.347 71.8235 211.352 71.8746C211.357 71.9257 211.352 71.9774 211.338 72.0266C211.323 72.0759 211.299 72.1218 211.266 72.1616C211.234 72.2015 211.194 72.2346 211.149 72.2591C211.104 72.2835 211.054 72.2988 211.003 72.3041C210.952 72.3094 210.9 72.3046 210.851 72.2899C210.802 72.2752 210.756 72.251 210.716 72.2186C209.894 71.546 208.864 71.1803 207.802 71.184C206.52 71.1839 205.284 71.6644 204.339 72.5306C203.394 73.3968 202.807 74.5859 202.696 75.8632C202.654 76.4672 202.74 77.0731 202.947 77.6419C203.155 78.2107 203.479 78.7297 203.899 79.1653C204.32 79.6009 204.827 79.9435 205.388 80.1709C205.949 80.3983 206.552 80.5054 207.157 80.4854C208.251 80.4916 209.315 80.1269 210.175 79.4509C210.214 79.419 210.259 79.3957 210.307 79.3826C210.355 79.3695 210.406 79.3669 210.455 79.375C210.505 79.3831 210.552 79.4017 210.594 79.4295C210.635 79.4573 210.671 79.4938 210.697 79.5363C210.73 79.5751 210.754 79.6204 210.767 79.6691C210.781 79.7178 210.785 79.7689 210.778 79.819C210.77 79.8692 210.753 79.9172 210.726 79.9601C210.699 80.003 210.663 80.0397 210.621 80.0678C209.601 80.8188 208.367 81.2245 207.1 81.2257C206.399 81.2474 205.702 81.1219 205.053 80.8572C204.404 80.5925 203.817 80.1947 203.332 79.6893C202.846 79.1839 202.472 78.5823 202.233 77.9232C201.994 77.2642 201.897 76.5624 201.946 75.8632C202.081 74.3861 202.761 73.0123 203.855 72.0101C204.948 71.0079 206.376 70.4494 207.859 70.4437Z" fill="#263238"/>
<path d="M220.312 76.2713H214.845L214.523 80.8651C214.511 80.9649 214.463 81.0569 214.388 81.1234C214.312 81.19 214.215 81.2264 214.115 81.2257C214.069 81.2259 214.023 81.2165 213.981 81.198C213.938 81.1796 213.9 81.1525 213.869 81.1186C213.838 81.0847 213.814 81.0446 213.799 81.001C213.784 80.9573 213.779 80.911 213.782 80.8651L214.475 70.9562C214.483 70.8581 214.527 70.7662 214.599 70.6993C214.671 70.6324 214.766 70.5953 214.864 70.5956C214.912 70.5927 214.96 70.6001 215.005 70.6173C215.049 70.6345 215.089 70.6612 215.123 70.6954C215.156 70.7297 215.182 70.7707 215.198 70.8157C215.214 70.8607 215.22 70.9086 215.216 70.9562L214.893 75.5405H220.369L220.683 70.9562C220.694 70.8596 220.739 70.7702 220.811 70.704C220.882 70.6379 220.975 70.5995 221.072 70.5956C221.12 70.5928 221.168 70.6003 221.213 70.6174C221.258 70.6346 221.299 70.661 221.333 70.6951C221.367 70.7292 221.393 70.77 221.411 70.815C221.428 70.86 221.435 70.9082 221.432 70.9562L220.74 80.8651C220.726 80.9641 220.677 81.0549 220.602 81.1211C220.527 81.1873 220.431 81.2244 220.331 81.2257C220.285 81.2258 220.239 81.2164 220.196 81.198C220.153 81.1797 220.115 81.1528 220.083 81.1191C220.051 81.0853 220.026 81.0453 220.01 81.0017C219.994 80.958 219.987 80.9115 219.99 80.8651L220.312 76.2713Z" fill="#263238"/>
<path d="M225.239 70.9754C225.248 70.878 225.293 70.7874 225.365 70.7209C225.436 70.6544 225.53 70.6166 225.628 70.6147H231.095C231.142 70.6116 231.19 70.6189 231.234 70.6362C231.278 70.6535 231.318 70.6803 231.35 70.7148C231.383 70.7492 231.408 70.7904 231.423 70.8355C231.437 70.8805 231.442 70.9283 231.437 70.9754C231.432 71.0762 231.389 71.1714 231.317 71.2418C231.245 71.3123 231.148 71.3527 231.047 71.355H225.96L225.666 75.5596H230.117C230.165 75.5607 230.211 75.5716 230.254 75.5916C230.297 75.6117 230.336 75.6405 230.367 75.6762C230.398 75.712 230.422 75.7538 230.436 75.7991C230.45 75.8444 230.455 75.8921 230.449 75.9393C230.442 76.0384 230.399 76.1313 230.327 76.1997C230.255 76.2682 230.16 76.3073 230.06 76.3094H225.59L225.296 80.5046H230.393C230.44 80.5041 230.488 80.514 230.532 80.5335C230.575 80.5531 230.614 80.5819 230.646 80.618C230.677 80.6541 230.701 80.6965 230.714 80.7425C230.728 80.7884 230.732 80.8368 230.725 80.8842C230.718 80.9824 230.673 81.0742 230.601 81.1412C230.529 81.2081 230.434 81.2452 230.336 81.2449H224.84C224.751 81.2376 224.669 81.1958 224.61 81.1284C224.552 81.061 224.522 80.9733 224.527 80.8842L225.239 70.9754Z" fill="#263238"/>
<path d="M239.342 70.4439C240.559 70.4386 241.742 70.8506 242.692 71.6113C242.728 71.6458 242.756 71.6871 242.776 71.7328C242.795 71.7784 242.805 71.8275 242.805 71.8771C242.805 71.9266 242.795 71.9757 242.776 72.0214C242.756 72.067 242.728 72.1083 242.692 72.1428C242.664 72.1835 242.628 72.2179 242.586 72.244C242.544 72.27 242.497 72.2871 242.448 72.2943C242.399 72.3014 242.349 72.2984 242.301 72.2854C242.253 72.2724 242.209 72.2497 242.17 72.2188C241.353 71.5447 240.325 71.1787 239.266 71.1842C237.983 71.1861 236.748 71.6669 235.801 72.5325C234.855 73.3982 234.266 74.5861 234.15 75.8634C234.112 76.4675 234.2 77.073 234.409 77.6412C234.618 78.2093 234.943 78.7275 235.364 79.1626C235.785 79.5978 236.292 79.9402 236.852 80.168C237.413 80.3958 238.016 80.504 238.621 80.4856C239.715 80.4918 240.779 80.1271 241.639 79.4511C241.677 79.4191 241.722 79.3959 241.771 79.3828C241.819 79.3697 241.87 79.3671 241.919 79.3752C241.969 79.3833 242.016 79.4019 242.058 79.4297C242.099 79.4575 242.134 79.4939 242.161 79.5365C242.193 79.5759 242.216 79.6217 242.229 79.6708C242.243 79.7199 242.245 79.7712 242.237 79.8214C242.229 79.8716 242.211 79.9195 242.183 79.962C242.155 80.0045 242.118 80.0406 242.075 80.068C241.059 80.8201 239.828 81.226 238.564 81.2259C237.863 81.2476 237.166 81.122 236.517 80.8574C235.868 80.5927 235.281 80.1949 234.796 79.6895C234.31 79.1841 233.936 78.5824 233.697 77.9234C233.458 77.2644 233.36 76.5626 233.41 75.8634C233.543 74.3822 234.225 73.0044 235.323 72.0014C236.421 70.9983 237.855 70.4427 239.342 70.4439Z" fill="#263238"/>
<path d="M245.948 70.9753C245.953 70.8745 245.996 70.7793 246.068 70.7088C246.14 70.6384 246.236 70.5979 246.337 70.5956C246.387 70.5941 246.436 70.6031 246.481 70.6219C246.527 70.6407 246.568 70.6689 246.602 70.7048C246.636 70.7406 246.663 70.7832 246.679 70.8298C246.695 70.8764 246.702 70.926 246.698 70.9753L246.261 77.1256L253.142 70.7C253.212 70.636 253.304 70.6005 253.399 70.6005C253.493 70.6005 253.585 70.636 253.655 70.7C253.69 70.7345 253.719 70.7758 253.738 70.8215C253.757 70.8671 253.767 70.9162 253.767 70.9658C253.767 71.0154 253.757 71.0644 253.738 71.1101C253.719 71.1557 253.69 71.197 253.655 71.2315L249.298 75.3033L253.095 80.5899C253.145 80.6759 253.163 80.7775 253.144 80.8754C253.124 80.9734 253.07 81.0609 252.99 81.1214C252.92 81.1747 252.832 81.2016 252.744 81.1973C252.692 81.2007 252.64 81.1902 252.593 81.1669C252.546 81.1435 252.506 81.1082 252.478 81.0644L248.681 75.8348L246.176 78.1791L245.995 80.8366C245.984 80.9365 245.936 81.0285 245.86 81.095C245.785 81.1616 245.688 81.198 245.587 81.1973C245.541 81.1974 245.495 81.1879 245.452 81.1696C245.409 81.1513 245.371 81.1244 245.339 81.0906C245.307 81.0568 245.282 81.0169 245.266 80.9732C245.25 80.9296 245.243 80.8831 245.246 80.8366L245.948 70.9753Z" fill="#263238"/>
<path d="M256.483 81.2258C256.436 81.2258 256.39 81.2164 256.348 81.1981C256.305 81.1797 256.266 81.1528 256.234 81.1191C256.202 81.0853 256.178 81.0454 256.162 81.0017C256.146 80.958 256.139 80.9115 256.141 80.8651L256.834 70.9563C256.846 70.8581 256.892 70.7674 256.966 70.701C257.039 70.6347 257.134 70.5972 257.233 70.5956C257.28 70.5942 257.327 70.6027 257.371 70.6204C257.415 70.6382 257.454 70.6649 257.487 70.6988C257.52 70.7327 257.546 70.7731 257.563 70.8174C257.579 70.8617 257.586 70.909 257.584 70.9563L256.919 80.4475H262.007C262.056 80.4458 262.105 80.4547 262.15 80.4736C262.195 80.4925 262.236 80.5209 262.269 80.557C262.302 80.593 262.328 80.6357 262.343 80.6824C262.358 80.729 262.363 80.7784 262.358 80.8271C262.346 80.927 262.298 81.0189 262.223 81.0855C262.147 81.1521 262.05 81.1885 261.95 81.1878L256.483 81.2258Z" fill="#263238"/>
<path d="M265.537 70.9752C265.548 70.8786 265.594 70.7892 265.665 70.723C265.736 70.6569 265.829 70.6184 265.926 70.6146C265.974 70.6118 266.022 70.6193 266.067 70.6364C266.112 70.6536 266.153 70.68 266.187 70.7141C266.221 70.7482 266.248 70.789 266.265 70.834C266.282 70.879 266.29 70.9272 266.287 70.9752L265.594 80.8841C265.582 80.9839 265.534 81.0759 265.459 81.1424C265.384 81.209 265.286 81.2454 265.186 81.2447C265.139 81.2448 265.093 81.2354 265.051 81.217C265.008 81.1987 264.969 81.1718 264.937 81.1381C264.905 81.1043 264.881 81.0643 264.865 81.0207C264.849 80.977 264.842 80.9305 264.844 80.8841L265.537 70.9752Z" fill="#263238"/>
<path d="M269.002 79.2326C269.032 79.1998 269.069 79.1737 269.11 79.1558C269.15 79.1379 269.194 79.1286 269.239 79.1286C269.284 79.1286 269.328 79.1379 269.369 79.1558C269.409 79.1737 269.446 79.1998 269.476 79.2326C270.418 80.066 271.618 80.5488 272.874 80.5994C273.724 80.6118 274.558 80.367 275.266 79.897C275.544 79.7289 275.78 79.4997 275.956 79.2266C276.132 78.9536 276.243 78.644 276.282 78.3215C276.304 78.0312 276.245 77.7404 276.111 77.482C275.977 77.2236 275.773 77.0081 275.522 76.8598C274.787 76.4147 273.971 76.1211 273.121 75.9961C272.251 75.8694 271.417 75.5623 270.672 75.0945C270.355 74.8955 270.099 74.6132 269.931 74.2784C269.764 73.9436 269.692 73.5692 269.723 73.1962C269.766 72.7917 269.901 72.4023 270.116 72.0571C270.332 71.7119 270.622 71.4199 270.966 71.2031C271.743 70.6894 272.655 70.4215 273.586 70.4343C274.755 70.4926 275.875 70.9214 276.785 71.6586C276.82 71.6856 276.85 71.7194 276.872 71.7581C276.894 71.7968 276.908 71.8395 276.914 71.8838C276.919 71.9281 276.915 71.973 276.903 72.0159C276.891 72.0587 276.87 72.0986 276.842 72.1332C276.791 72.2062 276.715 72.2569 276.628 72.2746C276.541 72.2923 276.451 72.2756 276.376 72.2281C275.573 71.5563 274.575 71.1604 273.529 71.0987C272.746 71.0898 271.977 71.3109 271.318 71.7346C271.06 71.892 270.842 72.105 270.677 72.3579C270.513 72.6108 270.408 72.8972 270.368 73.1962C270.356 73.4551 270.415 73.7124 270.539 73.94C270.663 74.1676 270.847 74.3569 271.071 74.487C271.748 74.9063 272.504 75.1809 273.292 75.2938C274.227 75.4262 275.125 75.7493 275.93 76.2429C276.267 76.4545 276.54 76.7533 276.72 77.1076C276.901 77.4618 276.982 77.8583 276.955 78.255C276.903 78.6874 276.755 79.1027 276.522 79.4706C276.289 79.8384 275.976 80.1495 275.608 80.3811C274.782 80.9317 273.81 81.2226 272.817 81.2163C271.414 81.1481 270.076 80.606 269.021 79.6787C268.968 79.6173 268.937 79.5399 268.934 79.459C268.93 79.378 268.954 79.2983 269.002 79.2326Z" fill="#263238"/>
<path d="M282.688 71.3359H279.489C279.441 71.3362 279.393 71.3263 279.349 71.3068C279.305 71.2873 279.265 71.2587 279.233 71.2228C279.201 71.187 279.177 71.1447 279.162 71.0987C279.147 71.0528 279.142 71.0042 279.148 70.9563C279.155 70.8581 279.199 70.7663 279.271 70.6994C279.343 70.6324 279.438 70.5954 279.537 70.5956H286.674C286.721 70.5941 286.768 70.6026 286.811 70.6204C286.855 70.6383 286.894 70.6651 286.926 70.6992C286.958 70.7333 286.983 70.7738 286.998 70.8181C287.014 70.8624 287.02 70.9095 287.016 70.9563C287.011 71.0571 286.968 71.1523 286.896 71.2228C286.824 71.2932 286.728 71.3337 286.627 71.3359H283.419L282.754 80.8272C282.745 80.9246 282.7 81.0151 282.628 81.0816C282.557 81.1481 282.463 81.1859 282.365 81.1878C282.319 81.1879 282.273 81.1785 282.23 81.1601C282.187 81.1418 282.149 81.1149 282.117 81.0811C282.085 81.0474 282.06 81.0074 282.044 80.9637C282.028 80.9201 282.021 80.8736 282.023 80.8272L282.688 71.3359Z" fill="#263238"/>
<path d="M298.016 48.8227H194.495L196.697 17.2644H300.218L298.016 48.8227Z" fill="#C7C7C7"/>
<path d="M281.321 0H217.046L213.013 17.255H283.903L281.321 0ZM248.795 12.4145C248.306 12.4218 247.822 12.3264 247.373 12.1345C246.924 11.9425 246.521 11.6583 246.189 11.3003C245.857 10.9424 245.603 10.5186 245.446 10.0565C245.288 9.59438 245.229 9.1043 245.273 8.61802C245.356 7.59457 245.817 6.63857 246.566 5.93661C247.315 5.23465 248.299 4.8371 249.326 4.82154C249.814 4.81423 250.299 4.90964 250.748 5.10159C251.196 5.29353 251.6 5.57771 251.932 5.93569C252.264 6.29368 252.517 6.71746 252.675 7.17956C252.833 7.64166 252.891 8.13175 252.847 8.61802C252.769 9.64305 252.309 10.6015 251.559 11.3043C250.809 12.0071 249.823 12.4032 248.795 12.4145Z" fill="#C7C7C7"/>
<path d="M283.903 17.255H213.013L213.924 13.3921H283.324L283.903 17.255Z" fill="#A6A6A6"/>
<path d="M84.1125 111.142C85.5172 121.582 93.3285 146.506 99.1561 148.091C104.585 149.563 128.446 142.454 131.521 137.718C133.163 135.183 139.665 111.901 136.751 113.297C133.068 115.053 106.056 128.71 104.946 128.435C102.601 127.847 98.0266 118.602 94.0688 113.439C85.4508 102.163 83.4481 106.245 84.1125 111.142Z" fill="#774442"/>
<path d="M100.408 121.544L88.1737 132.754C88.1737 132.754 83.8457 116.742 83.3522 109.329C82.8586 101.917 88.914 102.761 100.408 121.544Z" fill="#263238"/>
<path d="M50.2947 227.789C50.2947 227.789 37.3582 248.262 24.118 238.305C10.8777 228.349 26.9653 210.24 26.9653 210.24L50.2947 227.789Z" fill="#DD6A57"/>
<path d="M26.359 210.994L49.7148 228.542L152.009 92.3988L128.653 74.85L26.359 210.994Z" fill="#FFC727"/>
<path opacity="0.1" d="M26.359 210.994L49.7148 228.542L152.009 92.3988L128.653 74.85L26.359 210.994Z" fill="black"/>
<path d="M23.845 210.256L51.1162 230.747L55.1813 225.336L27.9101 204.846L23.845 210.256Z" fill="#37474F"/>
<path d="M28.3401 204.276L55.6113 224.767L59.6764 219.356L32.4052 198.866L28.3401 204.276Z" fill="#37474F"/>
<path d="M128.645 74.857L150.067 64.654L157.109 61.2656L155.866 69.0199L152.07 92.4253L147.153 94.0388C147.153 94.0388 147.4 88.9989 147.39 88.9135L142.474 90.527C142.474 90.527 142.73 85.4872 142.711 85.3923L137.852 87.0533C137.852 87.0533 138.051 81.9755 138.042 81.8805L133.173 83.5415C133.173 83.5415 133.372 78.4637 133.362 78.3688L128.503 80.0203C128.503 80.0203 128.664 74.9425 128.645 74.857Z" fill="#EBEBEB"/>
<path d="M150.066 64.654L157.109 61.2656L155.866 69.0199L150.066 64.654Z" fill="#37474F"/>
<g opacity="0.1">
<path opacity="0.1" d="M59.8047 203.539C66.1353 194.779 72.5514 186.094 78.9864 177.41L98.4055 151.432L117.957 125.588L127.762 112.737L137.68 99.9236L128.132 113.021L118.508 126.024L99.1268 152.002L79.5654 177.846C73.0165 186.433 66.4296 194.997 59.8047 203.539Z" fill="black"/>
<path opacity="0.1" d="M53.3223 199.439C59.6529 190.688 66.069 181.994 72.4945 173.31L91.8851 147.332L111.437 121.488L121.279 108.618L131.198 95.7949L121.65 108.94L112.025 121.972L92.6349 147.949L73.083 173.794C66.5245 182.336 59.9661 190.925 53.3223 199.439Z" fill="black"/>
<path opacity="0.1" d="M46.8301 195.31C53.1702 186.55 59.5863 177.865 66.0118 169.181L85.3929 143.204L104.954 117.359L114.797 104.479L124.715 91.6663L115.167 104.764L105.533 117.796L86.1522 143.773L66.5908 169.684C60.0418 178.226 53.4834 186.825 46.8301 195.31Z" fill="black"/>
</g>
<path d="M139.076 112.452C139.418 116.078 141.714 121.26 141.107 123.898C140.978 124.554 140.642 125.15 140.148 125.599C139.654 126.049 139.028 126.328 138.364 126.395C138.364 126.395 140.424 128.568 139.474 130.865C138.981 132.051 136.627 132.308 136.627 132.308C137.065 132.825 137.352 133.453 137.457 134.122C137.563 134.792 137.482 135.477 137.225 136.104C136.456 137.689 134.245 137.708 134.245 137.708C134.245 137.708 134.947 140.157 133.637 141.505C130.989 144.266 116.724 139.094 116.43 133.038C116.297 130.191 119.714 131.672 119.714 131.672C119.714 131.672 115.3 128.397 116.297 125.426C117.293 122.456 121.612 124.62 121.612 124.62C121.612 124.62 117.369 121.402 118.708 118.431C120.046 115.461 124.061 118.242 124.061 118.242C124.061 118.242 121.669 114.939 123.216 112.898C125.769 109.529 130.04 116.476 133.438 116.875L137.045 112.338L139.076 112.452Z" fill="#774442"/>
<path d="M140.3 117.985C140.3 114.521 145.416 112.129 145.862 108.817C146.479 104.337 140.319 106.71 137.083 112.366L135.346 117.198L140.3 117.985Z" fill="#774442"/>
<path d="M133.931 137.774C133.931 137.774 133.931 137.86 133.931 137.85C128.621 137.291 123.608 135.125 119.561 131.643C119.438 131.529 119.561 131.273 119.722 131.377C124.124 134.185 128.91 136.34 133.931 137.774Z" fill="#263238"/>
<path d="M136.722 132.364C136.779 132.364 136.722 132.469 136.722 132.469C130.872 131.788 125.459 129.038 121.46 124.715C121.327 124.563 121.365 124.287 121.536 124.449C124.355 127.258 131.986 131.083 136.722 132.364Z" fill="#263238"/>
<path d="M123.909 117.843C127.857 122.028 132.755 124.534 138.146 126.385C138.212 126.385 138.146 126.508 138.146 126.508C135.298 126.318 131.948 124.79 129.471 123.376C127.137 122.108 125.174 120.253 123.776 117.995C123.709 117.89 123.833 117.757 123.909 117.843Z" fill="#263238"/>
<path d="M137.994 360.059C136.172 360.666 84.1125 360.514 82.1288 359.252C81.379 358.787 80.9614 351.194 80.7051 342.016C80.7051 340.032 80.6102 337.992 80.5817 335.913C80.5817 333.445 80.5153 330.959 80.4963 328.539C80.4299 317.662 80.5817 308.085 80.5817 308.085H114.475V328.539V335.913L114.304 342.016C114.304 342.016 134.236 350.995 136.229 352.608C138.222 354.222 139.807 359.508 137.994 360.059Z" fill="#774442"/>
<path d="M137.993 360.059C136.171 360.666 84.1113 360.514 82.1276 359.252C81.3778 358.787 80.9602 351.194 80.7039 342.016C80.7039 340.032 80.609 337.992 80.5805 335.913C80.5805 333.446 80.5141 330.959 80.4951 328.539H114.455V335.913L114.284 342.016C114.284 342.016 134.215 350.995 136.209 352.608C138.202 354.222 139.806 359.508 137.993 360.059Z" fill="white"/>
<path d="M138.155 360.134C136.959 360.524 114.787 360.609 98.6428 360.277C94.9127 360.191 91.4959 360.087 88.7339 359.973C84.9375 359.793 82.3843 359.584 81.9762 359.328C81.0271 358.739 80.619 347.597 80.4102 335.856H114.474L114.294 341.997C114.294 341.997 134.311 351.013 136.351 352.646C138.392 354.278 139.977 359.508 138.155 360.134Z" fill="#FFC727"/>
<path d="M137.406 358.037C128.626 357.8 93.2145 357.658 84.5205 358.085C84.4541 358.085 84.4541 358.142 84.5205 358.142C93.2145 358.569 128.626 358.426 137.406 358.189C137.586 358.18 137.586 358.047 137.406 358.037Z" fill="#263238"/>
<path d="M115.537 340.051C112.092 339.396 107.868 339.909 105.22 342.367C105.116 342.462 105.22 342.604 105.362 342.566C108.655 341.524 112.05 340.84 115.49 340.525C115.553 340.532 115.615 340.513 115.664 340.473C115.713 340.433 115.744 340.375 115.751 340.312C115.757 340.249 115.738 340.186 115.698 340.137C115.658 340.088 115.6 340.057 115.537 340.051Z" fill="#263238"/>
<path d="M118.023 341.56C114.578 340.905 110.354 341.418 107.706 343.876C107.602 343.971 107.706 344.113 107.849 344.075C111.154 343.023 114.561 342.327 118.014 341.997C118.072 341.998 118.128 341.976 118.17 341.936C118.211 341.896 118.236 341.841 118.237 341.783C118.238 341.725 118.216 341.669 118.176 341.627C118.136 341.586 118.081 341.561 118.023 341.56Z" fill="#263238"/>
<path d="M120.521 343.069C117.066 342.415 112.843 342.927 110.194 345.385C110.09 345.48 110.194 345.623 110.346 345.585C113.648 344.532 117.052 343.835 120.502 343.506C120.56 343.509 120.616 343.488 120.659 343.449C120.702 343.41 120.727 343.355 120.73 343.297C120.732 343.239 120.712 343.183 120.672 343.14C120.633 343.097 120.579 343.072 120.521 343.069Z" fill="#263238"/>
<path d="M123.007 344.579C119.552 343.924 115.329 344.436 112.681 346.895C112.576 346.99 112.681 347.132 112.833 347.094C116.134 346.041 119.539 345.344 122.988 345.015C123.046 345.018 123.103 344.997 123.145 344.958C123.188 344.919 123.214 344.864 123.216 344.807C123.219 344.749 123.198 344.692 123.159 344.649C123.12 344.607 123.065 344.581 123.007 344.579Z" fill="#263238"/>
<path d="M121.944 332.079C120.586 330.18 118.062 331.044 116.619 332.25C114.174 334.366 112.331 337.09 111.275 340.146C111.269 340.159 111.266 340.174 111.267 340.188C111.267 340.203 111.272 340.217 111.279 340.229C111.287 340.241 111.297 340.252 111.31 340.259C111.323 340.266 111.337 340.27 111.351 340.27C111.349 340.337 111.362 340.403 111.391 340.464C111.419 340.525 111.461 340.579 111.514 340.62C111.566 340.662 111.628 340.691 111.694 340.704C111.76 340.717 111.828 340.715 111.892 340.697C114.74 339.653 117.929 338.884 120.378 336.995C121.811 335.894 123.215 333.882 121.944 332.079ZM115.898 338.229C114.503 338.78 113.05 339.254 111.731 339.852C112.725 338.285 113.798 336.771 114.949 335.315C115.514 334.617 116.126 333.957 116.78 333.341C117.815 332.392 121.887 330.427 121.27 334.214C120.928 336.302 117.559 337.574 115.898 338.229Z" fill="#263238"/>
<path d="M102.497 339.216C105.345 340.44 108.619 340.383 111.637 340.687C111.705 340.689 111.771 340.674 111.832 340.645C111.893 340.615 111.946 340.572 111.986 340.518C112.027 340.465 112.054 340.402 112.066 340.336C112.078 340.269 112.074 340.201 112.055 340.137C112.069 340.132 112.081 340.124 112.091 340.114C112.101 340.103 112.109 340.091 112.113 340.077C112.118 340.063 112.119 340.049 112.118 340.034C112.116 340.02 112.11 340.006 112.102 339.994C110.319 337.3 107.857 335.123 104.965 333.683C103.257 332.876 100.599 332.734 99.7637 334.85C98.9285 336.967 100.846 338.504 102.497 339.216ZM100.95 336.748C99.4031 333.237 103.798 334.138 105.069 334.784C105.861 335.209 106.62 335.695 107.338 336.236C108.817 337.357 110.236 338.554 111.59 339.823C110.119 339.586 108.629 339.472 107.148 339.292C105.383 339.074 101.804 338.685 100.95 336.729V336.748Z" fill="#263238"/>
<path d="M69.2773 163.657C69.2773 163.657 78.4364 254.251 78.6547 255.399C78.6547 255.551 78.7496 257.297 78.835 260.145C79.3285 275.739 80.5529 324.362 80.5529 324.362H117.92C117.92 324.362 115.481 266.77 114.123 253.33C112.339 236.189 101.016 163.657 101.016 163.657H69.2773Z" fill="#263238"/>
<path d="M83.1057 258.598C81.9604 238.982 80.2299 219.399 77.914 199.847C76.5947 188.837 75.0666 177.875 73.4531 166.903C73.4531 166.808 73.2823 166.808 73.3013 166.903C76.1486 186.436 78.2367 206.111 80.0021 225.749C81.7674 245.386 83.0013 265.061 83.7986 284.765C84.2636 295.927 84.6053 306.016 84.966 317.187C84.9761 317.233 85.0018 317.275 85.039 317.305C85.0761 317.335 85.1223 317.351 85.17 317.351C85.2177 317.351 85.264 317.335 85.3011 317.305C85.3382 317.275 85.364 317.233 85.3741 317.187C84.8521 297.293 84.2731 278.463 83.1057 258.598Z" fill="#455A64"/>
<path d="M115.357 318.164C98.2724 317.623 83.58 318.013 82.3082 318.108C81.2547 318.193 81.8431 318.297 82.3652 318.335C96.8298 319.199 114.787 318.383 115.357 318.335C115.489 318.297 115.489 318.164 115.357 318.164Z" fill="#455A64"/>
<path d="M69.2773 163.657C69.2773 163.657 78.4364 254.251 78.6547 255.399C78.6547 255.551 78.7496 257.297 78.835 260.145L96.4507 163.657H69.2773Z" fill="#455A64"/>
<path d="M81.1312 367.462C79.233 367.927 27.373 363.903 25.4842 362.488C24.7724 361.966 24.9148 354.364 25.3608 345.205C25.4463 343.221 25.4652 341.162 25.6835 339.102C25.9493 336.501 26.2435 333.91 26.5662 331.405C27.914 320.547 29.48 311.473 29.48 311.473L62.3386 313.95L60.298 333.588L59.4912 341.617L58.8648 347.692C58.8648 347.692 78.0466 358.132 79.9448 359.888C81.8431 361.644 82.9915 366.987 81.1312 367.462Z" fill="#774442"/>
<path d="M81.1312 367.462C79.233 367.927 27.373 363.903 25.4842 362.489C24.7724 361.966 24.9148 354.364 25.3608 345.205C25.4463 343.221 25.4652 341.162 25.6835 339.102C25.9493 336.502 26.2435 333.91 26.5662 331.405C36.6839 332.117 51.2434 333.018 60.2885 333.569L59.4912 341.617L58.8648 347.692C58.8648 347.692 78.0466 358.132 79.9448 359.888C81.8431 361.644 82.9915 366.987 81.1312 367.462Z" fill="white"/>
<path d="M81.3217 367.537C79.4235 368.012 27.2218 363.959 25.371 362.555C24.4978 361.9 24.887 350.767 25.5608 339.026L59.4919 341.56L58.8655 347.672C58.8655 347.672 78.1517 358.16 80.0594 359.935C81.9671 361.71 83.1535 367.101 81.3217 367.537Z" fill="#FFC727"/>
<path d="M80.7043 365.393C71.9724 364.501 36.6651 361.72 27.9617 361.501C27.8952 361.501 27.8857 361.501 27.9617 361.558C36.5987 362.631 71.925 365.127 80.6853 365.535C80.8752 365.545 80.8847 365.412 80.7043 365.393Z" fill="#263238"/>
<path d="M60.2314 345.822C56.8431 344.92 52.6384 345.12 49.7911 347.369C49.6772 347.454 49.7911 347.606 49.9145 347.578C53.2798 346.762 56.7223 346.307 60.184 346.221C60.225 346.208 60.2616 346.185 60.2892 346.152C60.3168 346.119 60.3342 346.079 60.3392 346.037C60.3443 345.994 60.3368 345.951 60.3176 345.913C60.2984 345.875 60.2685 345.843 60.2314 345.822Z" fill="#263238"/>
<path d="M62.605 347.511C59.2071 346.61 55.012 346.809 52.1646 349.058C52.0602 349.144 52.1646 349.296 52.2975 349.267C55.6703 348.463 59.1193 348.02 62.586 347.948C62.6147 347.949 62.6433 347.945 62.6702 347.935C62.6972 347.925 62.722 347.91 62.7431 347.891C62.7643 347.871 62.7814 347.848 62.7935 347.822C62.8056 347.796 62.8125 347.768 62.8138 347.739C62.815 347.71 62.8106 347.682 62.8008 347.655C62.791 347.628 62.7759 347.603 62.7565 347.582C62.7372 347.561 62.7138 347.544 62.6878 347.532C62.6618 347.519 62.6336 347.513 62.605 347.511Z" fill="#263238"/>
<path d="M64.9773 349.21C61.5794 348.261 57.3274 348.499 54.5369 350.748C54.4231 350.833 54.5369 350.985 54.6698 350.966C58.0422 350.158 61.4913 349.712 64.9583 349.638C65.0079 349.63 65.0532 349.605 65.0866 349.567C65.12 349.53 65.1394 349.482 65.1417 349.432C65.1439 349.382 65.1288 349.332 65.0988 349.292C65.0689 349.251 65.0259 349.223 64.9773 349.21Z" fill="#263238"/>
<path d="M67.3418 350.9C63.9534 349.951 59.7488 350.188 56.9014 352.437C56.7875 352.523 56.9014 352.675 57.0248 352.656C60.3974 351.849 63.8463 351.403 67.3133 351.327C67.3633 351.32 67.4095 351.297 67.4439 351.26C67.4784 351.223 67.4991 351.175 67.5025 351.125C67.5058 351.075 67.4917 351.025 67.4624 350.984C67.4331 350.943 67.3904 350.913 67.3418 350.9Z" fill="#263238"/>
<path d="M67.2073 338.353C66.0019 336.388 63.4108 337.033 61.8827 338.125C59.293 340.059 57.2545 342.638 55.9697 345.604C55.9697 345.67 55.9697 345.718 56.0457 345.737C56.0457 345.993 56.245 346.287 56.5487 346.202C59.472 345.376 62.7085 344.845 65.2901 343.136C66.7992 342.149 68.3558 340.222 67.2073 338.353ZM60.7248 344.047C59.3011 344.493 57.8775 344.864 56.4443 345.357C57.6022 343.905 58.6937 342.405 59.994 341.067C60.6135 340.413 61.2763 339.801 61.9777 339.235C63.0692 338.391 67.2833 336.72 66.3816 340.45C65.8786 342.491 62.4332 343.506 60.7248 344.038V344.047Z" fill="#263238"/>
<path d="M47.2954 344.028C50.0383 345.452 53.3033 345.642 56.3025 346.173C56.6063 346.23 56.7961 345.907 56.7581 345.651C56.7713 345.647 56.7833 345.64 56.7936 345.631C56.8038 345.622 56.8119 345.611 56.8173 345.598C56.8227 345.585 56.8253 345.572 56.8249 345.558C56.8245 345.544 56.8212 345.531 56.8151 345.518C55.2372 342.698 52.9461 340.341 50.1712 338.685C48.5292 337.735 45.9002 337.384 44.8941 339.463C43.888 341.541 45.6914 343.193 47.2954 344.028ZM45.9286 341.475C44.6473 337.859 49.0133 339.083 50.1902 339.824C50.9423 340.314 51.662 340.853 52.3447 341.437C53.7305 342.648 55.0546 343.928 56.312 345.271C54.8599 344.92 53.3887 344.702 51.9176 344.408C50.1712 344.095 46.631 343.449 45.9286 341.475Z" fill="#263238"/>
<path d="M100.977 163.657C100.977 163.657 99.8762 172.882 94.5801 179.536C93.3083 181.13 89.4264 182.611 87.4142 184.073C87.4142 184.073 79.8972 253.15 77.6098 260.951C75.0662 269.664 65.1858 329.136 65.1858 329.136L26.1484 326.403C26.1484 326.403 37.8701 268.07 40.651 253.624C41.2774 250.397 49.6297 189.606 49.4494 188.201C47.1999 171.459 55.3434 163.704 55.3434 163.704L100.977 163.657Z" fill="#263238"/>
<path d="M70.7956 164.673C70.0351 167.306 68.427 169.614 66.2209 171.241C63.7864 172.973 60.9015 173.962 57.9161 174.088C57.413 174.088 57.3751 174.885 57.9161 174.895C64.0094 174.895 70.1692 171.032 71.0614 164.711C71.0614 164.568 70.8811 164.54 70.7956 164.673Z" fill="#455A64"/>
<path d="M95.3026 179.26C93.0917 180.146 90.9821 181.266 89.01 182.601C86.9219 183.892 84.9857 185.449 82.9641 186.806C82.8881 186.863 82.9641 186.986 83.04 186.939C85.1565 185.724 87.3585 184.661 89.4561 183.408C91.552 182.26 93.5406 180.926 95.3976 179.422C95.464 179.365 95.3976 179.223 95.3026 179.26Z" fill="#455A64"/>
<path d="M96.165 166.552C95.8328 167.947 95.4342 169.333 95.064 170.718C94.6939 172.104 94.4471 173.347 94.039 174.629C93.7023 175.875 93.0097 176.997 92.0458 177.856C91.5143 178.311 90.9259 178.7 90.3564 179.118L89.4073 179.782C89.4547 179.593 89.5022 179.403 89.5401 179.213C89.6635 178.691 89.7774 178.159 89.8913 177.628C90.1381 176.451 90.3849 175.274 90.6221 174.088C91.0872 171.772 91.5713 169.428 92.1123 167.14C92.1069 167.126 92.0972 167.113 92.0844 167.104C92.0717 167.095 92.0566 167.091 92.0411 167.091C92.0256 167.091 92.0104 167.095 91.9977 167.104C91.985 167.113 91.9753 167.126 91.9699 167.14C91.2865 169.409 90.5367 171.648 89.9293 173.936C89.6256 175.056 88.4866 180.58 88.4297 181.007C88.3727 181.434 88.3158 181.823 88.2778 182.231C88.2068 182.645 88.1877 183.066 88.2209 183.484C88.2292 183.502 88.2426 183.518 88.2594 183.528C88.2762 183.539 88.2958 183.545 88.3158 183.545C88.3358 183.545 88.3553 183.539 88.3722 183.528C88.389 183.518 88.4024 183.502 88.4107 183.484C88.6001 183.106 88.7373 182.703 88.8188 182.288C88.9422 181.89 89.0466 181.491 89.1415 181.092L89.2269 180.646C89.7964 180.333 90.3279 179.915 90.8594 179.564C91.3909 179.213 92.0173 178.824 92.5583 178.406C93.5685 177.632 94.3198 176.57 94.7128 175.36C95.1122 174.055 95.3949 172.718 95.5576 171.364C95.8043 169.788 96.0131 168.194 96.3074 166.618C96.3263 166.504 96.184 166.457 96.165 166.552Z" fill="#455A64"/>
<path d="M63.2889 322.341C46.3566 320.443 31.6357 319.645 30.3639 319.636C29.3009 319.636 29.8798 319.788 30.3639 319.864C44.7051 321.885 62.634 322.512 63.2509 322.493C63.2609 322.495 63.2713 322.496 63.2814 322.494C63.2916 322.493 63.3014 322.489 63.3102 322.484C63.319 322.479 63.3267 322.472 63.3328 322.463C63.3389 322.455 63.3433 322.446 63.3458 322.436C63.3483 322.426 63.3488 322.415 63.3473 322.405C63.3458 322.395 63.3423 322.385 63.337 322.376C63.3317 322.368 63.3248 322.36 63.3165 322.354C63.3083 322.348 63.2989 322.343 63.2889 322.341Z" fill="#455A64"/>
<path d="M100.039 144.75L103.218 170.984C103.218 170.984 60.6121 170.605 50.0674 169.608C50.0674 169.608 59.8433 120.947 71.508 108.864C77.3356 102.828 83.9985 103.445 88.1556 107.868C89.2091 108.978 101.652 126.262 102.848 132.782C103.883 138.543 100.039 144.75 100.039 144.75Z" fill="#FFC727"/>
<path d="M81.6631 123.329C82.0211 123.209 82.4051 123.189 82.7736 123.272C82.9696 123.344 83.1398 123.473 83.2631 123.642C83.3863 123.811 83.457 124.012 83.4664 124.221C83.4617 124.363 83.4942 124.503 83.5609 124.628C83.6275 124.753 83.7259 124.858 83.8461 124.933C83.9725 125.026 84.1256 125.076 84.2827 125.075C84.463 125.075 84.6338 125.132 84.8142 125.18C84.4523 125.29 84.0656 125.29 83.7037 125.18C83.5134 125.103 83.3498 124.972 83.2333 124.804C83.1169 124.635 83.0527 124.436 83.0488 124.231C83.0436 124.089 83.0036 123.951 82.9325 123.828C82.8613 123.706 82.7611 123.603 82.6407 123.528C82.5044 123.451 82.3512 123.408 82.1946 123.405C82.0143 123.395 81.8434 123.376 81.6631 123.329Z" fill="white"/>
<path d="M91.3916 158.114C91.7496 157.994 92.1337 157.975 92.5021 158.057C92.697 158.13 92.8659 158.259 92.9876 158.428C93.1092 158.597 93.178 158.798 93.1854 159.006C93.1835 159.147 93.2172 159.287 93.2836 159.411C93.35 159.536 93.4468 159.641 93.5651 159.718C93.6996 159.802 93.8529 159.851 94.0112 159.861C94.182 159.861 94.3623 159.918 94.5332 159.965C94.1713 160.076 93.7846 160.076 93.4227 159.965C93.2279 159.881 93.062 159.742 92.9456 159.565C92.8292 159.388 92.7673 159.18 92.7678 158.968C92.7673 158.828 92.7303 158.691 92.6604 158.569C92.5904 158.448 92.4901 158.347 92.3692 158.276C92.231 158.193 92.0743 158.148 91.9136 158.143C91.7392 158.142 91.565 158.133 91.3916 158.114Z" fill="white"/>
<path d="M75.6929 109.396C75.3367 109.527 74.9485 109.543 74.5824 109.443C74.3884 109.358 74.2232 109.219 74.1069 109.042C73.9906 108.865 73.9283 108.658 73.9275 108.447C73.927 108.306 73.89 108.169 73.8201 108.047C73.7502 107.926 73.6498 107.825 73.5289 107.754C73.3908 107.672 73.234 107.626 73.0733 107.621H72.874L73.0828 107.45C73.2768 107.42 73.4753 107.436 73.6618 107.497C73.856 107.572 74.0243 107.701 74.1457 107.87C74.2672 108.038 74.3365 108.239 74.3452 108.447C74.3433 108.589 74.3771 108.729 74.4434 108.855C74.5097 108.981 74.6064 109.089 74.7248 109.168C74.8593 109.252 75.0126 109.301 75.1709 109.31C75.3463 109.33 75.5205 109.358 75.6929 109.396Z" fill="white"/>
<path d="M67.8721 137.879C68.231 137.764 68.6137 137.744 68.9825 137.822C69.1779 137.896 69.3475 138.025 69.4705 138.193C69.5936 138.362 69.6648 138.563 69.6754 138.771C69.6718 138.914 69.7048 139.055 69.7713 139.181C69.8377 139.308 69.9354 139.415 70.055 139.492C70.1855 139.578 70.3361 139.627 70.4916 139.635L71.0232 139.73C70.6668 139.86 70.2788 139.877 69.9127 139.777C69.7156 139.697 69.5476 139.558 69.4307 139.38C69.3138 139.203 69.2535 138.993 69.2578 138.781C69.2536 138.64 69.2139 138.503 69.1426 138.382C69.0713 138.261 68.9705 138.16 68.8497 138.088C68.7143 138.007 68.561 137.961 68.4036 137.955C68.2232 137.945 68.0334 137.926 67.8721 137.879Z" fill="white"/>
<path d="M90.3478 170.823H89.8637C89.7997 170.68 89.7673 170.524 89.7688 170.367C89.7664 170.226 89.7275 170.088 89.656 169.967C89.5845 169.846 89.4827 169.745 89.3607 169.674C89.2266 169.591 89.0725 169.545 88.9146 169.541C88.739 169.519 88.5648 169.487 88.3926 169.447C88.7474 169.327 89.1283 169.307 89.4936 169.39C89.6896 169.462 89.8598 169.591 89.9831 169.76C90.1063 169.929 90.177 170.13 90.1864 170.339C90.1803 170.514 90.2376 170.686 90.3478 170.823Z" fill="white"/>
<path d="M78.417 152.6C78.775 152.48 79.159 152.46 79.5275 152.543C79.7231 152.615 79.8927 152.743 80.0145 152.913C80.1363 153.082 80.2047 153.283 80.2108 153.492C80.2107 153.634 80.2463 153.773 80.3144 153.897C80.3824 154.022 80.4806 154.127 80.6 154.204C80.7284 154.293 80.8802 154.342 81.0366 154.346C81.2074 154.346 81.3877 154.403 81.5586 154.45C81.1996 154.559 80.8165 154.559 80.4576 154.45C80.268 154.373 80.1051 154.242 79.9888 154.073C79.8725 153.905 79.8078 153.706 79.8027 153.501C79.7975 153.36 79.7575 153.222 79.6864 153.099C79.6152 152.977 79.515 152.874 79.3946 152.799C79.2584 152.722 79.1051 152.679 78.9485 152.676C78.7682 152.695 78.5973 152.676 78.417 152.6Z" fill="white"/>
<path d="M55.4957 150.246C55.2063 150.33 54.9042 150.362 54.6035 150.341C54.6035 150.255 54.651 150.17 54.6794 150.075C54.773 150.114 54.8725 150.136 54.9737 150.141C55.1445 150.179 55.3249 150.198 55.4957 150.246Z" fill="white"/>
<path d="M59.4912 155.741C59.8492 155.622 60.2333 155.602 60.6017 155.685C60.7966 155.758 60.9655 155.887 61.0872 156.056C61.2088 156.224 61.2776 156.426 61.2851 156.634C61.2831 156.775 61.3168 156.914 61.3832 157.038C61.4496 157.163 61.5465 157.269 61.6647 157.345C61.7972 157.434 61.9517 157.483 62.1108 157.488C62.2816 157.488 62.462 157.545 62.6328 157.592C62.2709 157.703 61.8842 157.703 61.5223 157.592C61.3275 157.509 61.1616 157.369 61.0452 157.192C60.9288 157.015 60.867 156.808 60.8674 156.596C60.8669 156.456 60.8299 156.318 60.76 156.196C60.6901 156.075 60.5897 155.974 60.4688 155.903C60.3315 155.82 60.1737 155.777 60.0132 155.779C59.8519 155.808 59.6715 155.789 59.4912 155.741Z" fill="white"/>
<path d="M87.1309 138.306C87.488 138.182 87.8733 138.162 88.2413 138.249C88.4363 138.322 88.6052 138.451 88.7268 138.62C88.8484 138.789 88.9173 138.99 88.9247 139.198C88.9229 139.341 88.9566 139.481 89.0229 139.607C89.0892 139.733 89.186 139.84 89.3044 139.92C89.4388 140.004 89.5922 140.052 89.7504 140.062C89.9213 140.062 90.1016 140.119 90.2724 140.166C89.9106 140.277 89.5239 140.277 89.162 140.166C88.9672 140.083 88.8013 139.944 88.6849 139.766C88.5684 139.589 88.5066 139.382 88.5071 139.17C88.5066 139.03 88.4695 138.892 88.3996 138.77C88.3297 138.649 88.2294 138.548 88.1085 138.477C87.9703 138.395 87.8135 138.349 87.6529 138.344C87.4783 138.34 87.3041 138.328 87.1309 138.306Z" fill="white"/>
<path d="M75.3515 117.862C75.1861 118.2 74.9297 118.486 74.6112 118.688C74.4164 118.773 74.2005 118.799 73.9909 118.762C73.7813 118.725 73.5876 118.626 73.4342 118.479C73.334 118.378 73.2105 118.304 73.0748 118.263C72.939 118.221 72.7952 118.214 72.656 118.241C72.5039 118.274 72.3631 118.346 72.2478 118.45C72.096 118.555 71.9631 118.659 71.8018 118.754C72.0106 118.469 72.1529 118.118 72.5611 117.938C72.7582 117.859 72.9744 117.84 73.1822 117.884C73.3901 117.928 73.5802 118.032 73.7285 118.185C73.8315 118.28 73.9565 118.348 74.0924 118.383C74.2283 118.417 74.3707 118.418 74.5068 118.384C74.6587 118.346 74.7989 118.271 74.9149 118.166C75.0543 118.056 75.2001 117.954 75.3515 117.862Z" fill="white"/>
<path d="M102.61 137.86C102.401 138.145 102.259 138.486 101.87 138.676C101.677 138.767 101.461 138.797 101.25 138.761C101.04 138.726 100.845 138.626 100.693 138.477C100.534 138.323 100.321 138.237 100.1 138.237C99.8785 138.237 99.6659 138.323 99.5066 138.477L99.0605 138.781C99.2237 138.44 99.4848 138.156 99.8103 137.964C100.007 137.885 100.222 137.866 100.43 137.908C100.637 137.95 100.828 138.052 100.978 138.202C101.079 138.3 101.203 138.371 101.34 138.407C101.476 138.444 101.619 138.445 101.756 138.41C101.909 138.37 102.049 138.291 102.164 138.183C102.316 138.059 102.449 137.945 102.61 137.86Z" fill="white"/>
<path d="M84.1692 110.838C84.2891 111.196 84.3088 111.58 84.2261 111.949C84.1542 112.144 84.0254 112.314 83.8562 112.436C83.6871 112.558 83.4853 112.626 83.277 112.632C83.1352 112.632 82.9957 112.668 82.8713 112.736C82.7469 112.804 82.6416 112.902 82.5651 113.021C82.4759 113.15 82.4264 113.302 82.4228 113.458C82.4228 113.629 82.3658 113.809 82.3184 113.98C82.2077 113.618 82.2077 113.231 82.3184 112.869C82.3972 112.682 82.5289 112.521 82.6973 112.406C82.8658 112.292 83.0638 112.228 83.2675 112.224C83.4092 112.22 83.5477 112.18 83.6703 112.109C83.7929 112.038 83.8958 111.937 83.9698 111.816C84.0471 111.68 84.0895 111.526 84.0932 111.37C84.1122 111.171 84.1692 111 84.1692 110.838Z" fill="white"/>
<path d="M79.9935 141.732C80.1132 142.087 80.1329 142.468 80.0505 142.833C79.9779 143.029 79.8492 143.199 79.6804 143.323C79.5115 143.446 79.3101 143.517 79.1014 143.526C78.9601 143.523 78.8205 143.557 78.6959 143.623C78.5713 143.689 78.4658 143.787 78.3895 143.906C78.2976 144.033 78.2478 144.185 78.2471 144.342C78.2471 144.523 78.1902 144.693 78.1427 144.874C78.0165 144.517 77.9999 144.13 78.0953 143.763C78.179 143.569 78.318 143.403 78.4952 143.286C78.6724 143.17 78.8799 143.108 79.0919 143.108C79.2332 143.108 79.3718 143.07 79.4935 142.998C79.6153 142.926 79.7158 142.824 79.7847 142.7C79.8681 142.566 79.914 142.412 79.9176 142.254C79.9271 142.083 79.9461 141.903 79.9935 141.732Z" fill="white"/>
<path d="M101.775 164.729C101.895 165.088 101.914 165.472 101.832 165.84C101.759 166.035 101.63 166.204 101.461 166.325C101.292 166.447 101.091 166.516 100.883 166.523C100.741 166.52 100.602 166.554 100.477 166.62C100.353 166.687 100.247 166.784 100.171 166.903C100.079 167.034 100.029 167.189 100.028 167.349C100.028 167.52 99.9715 167.7 99.924 167.871C99.8183 167.508 99.8183 167.123 99.924 166.761C100.005 166.574 100.137 166.413 100.305 166.298C100.473 166.182 100.67 166.115 100.873 166.106C101.014 166.104 101.153 166.067 101.276 165.997C101.399 165.927 101.502 165.827 101.575 165.707C101.654 165.568 101.697 165.411 101.699 165.252C101.708 165.081 101.727 164.938 101.775 164.729Z" fill="white"/>
<path d="M62.9565 142.833C63.0714 143.192 63.0911 143.575 63.0134 143.944C62.9404 144.139 62.8113 144.308 62.6424 144.429C62.4735 144.551 62.2723 144.62 62.0643 144.627C61.9213 144.627 61.7805 144.663 61.6546 144.731C61.5287 144.799 61.4216 144.897 61.343 145.016C61.2578 145.147 61.2087 145.297 61.2006 145.453C61.2006 145.624 61.2006 145.804 61.1057 145.984C60.9908 145.623 60.9908 145.235 61.1057 144.874C61.1841 144.685 61.3154 144.523 61.4838 144.407C61.6521 144.29 61.8504 144.225 62.0548 144.219C62.1953 144.215 62.3325 144.175 62.4536 144.104C62.5747 144.032 62.6759 143.932 62.7477 143.811C62.8283 143.675 62.874 143.522 62.8806 143.365C62.8901 143.184 62.909 143.014 62.9565 142.833Z" fill="white"/>
<path d="M71.2893 124.942C71.4124 125.3 71.4354 125.684 71.3557 126.053C71.2811 126.248 71.1518 126.416 70.9834 126.539C70.815 126.662 70.6147 126.734 70.4066 126.746C70.2639 126.742 70.1227 126.775 69.9965 126.842C69.8702 126.908 69.763 127.006 69.6853 127.125C69.6001 127.256 69.551 127.406 69.5429 127.562C69.5429 127.742 69.4859 127.913 69.4385 128.093C69.3278 127.732 69.3278 127.345 69.4385 126.983C69.5159 126.793 69.6469 126.63 69.8155 126.514C69.9841 126.398 70.1829 126.333 70.3876 126.328C70.5281 126.324 70.6653 126.284 70.7864 126.213C70.9075 126.142 71.0086 126.041 71.0805 125.92C71.1611 125.785 71.2068 125.631 71.2133 125.474C71.2295 125.296 71.2548 125.118 71.2893 124.942Z" fill="white"/>
<path d="M95.6819 128.691C95.8018 129.049 95.8215 129.433 95.7388 129.802C95.6669 129.998 95.5381 130.167 95.3689 130.289C95.1998 130.411 94.998 130.479 94.7897 130.485C94.6477 130.484 94.5079 130.52 94.3833 130.588C94.2588 130.656 94.1537 130.754 94.0778 130.874C93.9886 131.003 93.9391 131.155 93.9355 131.311C93.9355 131.482 93.8785 131.662 93.8311 131.833C93.7204 131.471 93.7204 131.084 93.8311 130.723C93.9099 130.535 94.0416 130.374 94.21 130.259C94.3785 130.145 94.5765 130.081 94.7802 130.077C94.9217 130.072 95.0599 130.032 95.1824 129.961C95.3048 129.89 95.4079 129.789 95.4825 129.669C95.5599 129.533 95.6022 129.38 95.6059 129.223C95.6154 129.043 95.6344 128.872 95.6819 128.691Z" fill="white"/>
<path d="M73.1399 159.993C73.2598 160.351 73.2795 160.735 73.1968 161.104C73.1238 161.299 72.9947 161.468 72.8258 161.589C72.6569 161.711 72.4557 161.78 72.2477 161.787C72.1066 161.785 71.9674 161.819 71.8429 161.885C71.7184 161.952 71.6128 162.049 71.5358 162.167C71.4478 162.299 71.3985 162.454 71.3935 162.613C71.3935 162.784 71.3365 162.964 71.2891 163.135C71.1784 162.773 71.1784 162.386 71.2891 162.025C71.3694 161.837 71.5012 161.676 71.6691 161.56C71.8371 161.444 72.0343 161.378 72.2382 161.37C72.3798 161.37 72.519 161.333 72.6421 161.263C72.7653 161.193 72.8681 161.093 72.9405 160.971C73.0194 160.832 73.0618 160.675 73.0639 160.515C73.0734 160.345 73.0924 160.193 73.1399 159.993Z" fill="white"/>
<path d="M65.1868 164.729C65.297 165.108 65.297 165.509 65.1868 165.887C65.1127 166.082 64.9833 166.25 64.8146 166.371C64.6459 166.493 64.4453 166.562 64.2376 166.571C64.0953 166.569 63.9547 166.603 63.8288 166.669C63.7028 166.735 63.5954 166.832 63.5163 166.95C63.4323 167.085 63.3834 167.238 63.3739 167.397C63.3515 167.572 63.3198 167.746 63.279 167.919C63.1635 167.557 63.1635 167.169 63.279 166.808C63.3603 166.621 63.4923 166.461 63.66 166.345C63.8278 166.229 64.0246 166.163 64.2282 166.153C64.3683 166.153 64.5059 166.116 64.6274 166.046C64.7489 165.976 64.8501 165.875 64.921 165.755C65.0032 165.616 65.0489 165.46 65.0539 165.299C65.0919 165.081 65.1108 164.938 65.1868 164.729Z" fill="white"/>
<path d="M91.1924 118.745C91.3515 118.402 91.6092 118.114 91.9327 117.919C92.126 117.829 92.342 117.8 92.5521 117.836C92.7622 117.871 92.9566 117.97 93.1096 118.118C93.2688 118.272 93.4815 118.358 93.7028 118.358C93.9241 118.358 94.1368 118.272 94.296 118.118C94.4479 118.023 94.5808 117.909 94.7421 117.814C94.5764 118.156 94.3119 118.441 93.9828 118.631C93.7882 118.711 93.5738 118.732 93.3674 118.69C93.161 118.647 92.972 118.544 92.8249 118.393C92.7218 118.295 92.5956 118.224 92.4578 118.188C92.3201 118.151 92.1754 118.15 92.0371 118.185C91.8842 118.225 91.7439 118.304 91.629 118.412C91.4866 118.536 91.3442 118.65 91.1924 118.745Z" fill="white"/>
<path d="M77.2783 132.735C77.4374 132.392 77.6952 132.104 78.0186 131.909C78.2119 131.819 78.4279 131.79 78.638 131.826C78.8482 131.861 79.0426 131.96 79.1955 132.108C79.3548 132.262 79.5675 132.348 79.7888 132.348C80.0101 132.348 80.2227 132.262 80.382 132.108C80.5338 132.013 80.6667 131.899 80.828 131.804C80.6654 132.148 80.4001 132.434 80.0687 132.621C79.8741 132.701 79.6598 132.722 79.4534 132.68C79.247 132.637 79.058 132.534 78.9108 132.383C78.8097 132.285 78.6851 132.214 78.5489 132.178C78.4126 132.141 78.2693 132.14 78.1325 132.175C77.9762 132.214 77.8325 132.292 77.7149 132.402C77.5725 132.526 77.4302 132.668 77.2783 132.735Z" fill="white"/>
<path d="M67.6348 151.717C67.8034 151.381 68.059 151.096 68.3751 150.891C68.5687 150.803 68.7843 150.775 68.9942 150.81C69.204 150.846 69.3983 150.944 69.552 151.091C69.6502 151.194 69.7735 151.27 69.9099 151.312C70.0463 151.354 70.1911 151.359 70.3303 151.328C70.4847 151.294 70.6282 151.223 70.7479 151.119C70.8903 151.024 71.0326 150.91 71.1845 150.825C70.9852 151.11 70.8428 151.461 70.4347 151.632C70.2384 151.712 70.0228 151.732 69.815 151.69C69.6072 151.648 69.4166 151.545 69.2673 151.394C69.1662 151.296 69.0416 151.225 68.9053 151.189C68.7691 151.152 68.6257 151.151 68.489 151.186C68.3361 151.226 68.1958 151.305 68.0809 151.413C67.929 151.518 67.7961 151.651 67.6348 151.717Z" fill="white"/>
<path d="M90.4521 149.752C90.6234 149.418 90.8784 149.133 91.1925 148.927C91.387 148.839 91.6032 148.813 91.813 148.85C92.0229 148.887 92.2168 148.987 92.3694 149.135C92.4701 149.235 92.5936 149.309 92.7292 149.35C92.8648 149.391 93.0084 149.399 93.1477 149.373C93.3021 149.339 93.4456 149.267 93.5653 149.164C93.7047 149.054 93.8505 148.953 94.0019 148.86C93.8387 149.201 93.5776 149.485 93.2521 149.676C93.0549 149.755 92.8387 149.774 92.6309 149.73C92.423 149.686 92.2329 149.582 92.0846 149.43C91.9831 149.332 91.8581 149.262 91.7217 149.228C91.5854 149.193 91.4423 149.194 91.3064 149.23C91.1544 149.268 91.0142 149.343 90.8982 149.449C90.7556 149.558 90.6066 149.66 90.4521 149.752Z" fill="white"/>
<path d="M81.7012 163.581C81.8666 163.242 82.1229 162.957 82.4415 162.755C82.6362 162.669 82.8521 162.643 83.0617 162.681C83.2713 162.718 83.4651 162.816 83.6184 162.964C83.7171 163.067 83.8405 163.142 83.9767 163.184C84.1129 163.225 84.2575 163.231 84.3967 163.201C84.5487 163.169 84.6895 163.097 84.8048 162.993C84.9567 162.888 85.0895 162.784 85.2509 162.689C85.0852 163.031 84.8207 163.315 84.4916 163.505C84.2944 163.584 84.0782 163.603 83.8704 163.559C83.6625 163.515 83.4724 163.41 83.3242 163.258C83.2212 163.163 83.0961 163.095 82.9602 163.06C82.8244 163.025 82.682 163.025 82.5459 163.059C82.392 163.097 82.2511 163.176 82.1378 163.287C81.9954 163.382 81.853 163.496 81.7012 163.581Z" fill="white"/>
<path d="M54.1289 160.848C53.9296 161.142 53.7777 161.493 53.3696 161.664C53.175 161.745 52.9606 161.765 52.7542 161.723C52.5478 161.681 52.3588 161.577 52.2116 161.427C52.125 161.34 52.017 161.278 51.8984 161.246C51.8984 161.123 51.9649 160.99 51.9933 160.857C52.1811 160.901 52.3544 160.992 52.4964 161.123C52.594 161.227 52.7173 161.304 52.8539 161.345C52.9904 161.387 53.1355 161.392 53.2747 161.36C53.4273 161.33 53.5686 161.257 53.6828 161.151C53.7967 161.056 53.9675 160.943 54.1289 160.848Z" fill="white"/>
<path d="M60.2324 133.181C60.4021 132.842 60.6614 132.557 60.9822 132.355C61.1758 132.267 61.3915 132.238 61.6013 132.274C61.8111 132.309 62.0055 132.407 62.1591 132.554C62.2568 132.659 62.38 132.735 62.5166 132.777C62.6532 132.819 62.7983 132.824 62.9374 132.792C63.0895 132.759 63.2303 132.687 63.3455 132.583C63.4974 132.488 63.6303 132.374 63.7916 132.279C63.5828 132.573 63.4405 132.925 63.0323 133.095C62.8361 133.176 62.6204 133.196 62.4126 133.154C62.2049 133.112 62.0143 133.009 61.8649 132.858C61.7638 132.76 61.6392 132.689 61.503 132.652C61.3667 132.616 61.2234 132.615 61.0866 132.649C60.9337 132.69 60.7934 132.768 60.6785 132.877C60.5351 132.986 60.3862 133.087 60.2324 133.181Z" fill="white"/>
<path d="M101.699 158.722C101.282 156.32 100.978 154.441 100.627 152.078C100.276 149.714 99.915 147.266 99.6018 144.855V144.694L99.7062 144.542C100.912 142.709 101.776 140.674 102.259 138.534C102.512 137.474 102.633 136.387 102.62 135.297C102.632 134.209 102.485 133.125 102.183 132.08C101.524 129.95 100.68 127.883 99.6587 125.901C98.6527 123.898 97.8269 122.218 96.707 120.263C96.5171 119.959 96.6405 119.893 96.8114 120.13C97.9408 121.734 99.1747 123.927 100.143 125.645C101.296 127.611 102.249 129.687 102.99 131.842C103.35 132.956 103.535 134.118 103.541 135.288C103.563 136.45 103.442 137.61 103.18 138.743C102.672 141.008 101.731 143.155 100.409 145.064L100.484 144.751C100.76 147.171 100.988 149.591 101.215 152.011C101.434 154.185 101.68 156.539 101.832 158.722C101.832 158.921 101.842 159.604 101.699 158.722Z" fill="#263238"/>
<path d="M98.7471 122.066C99.2097 122.777 99.5887 123.538 99.8765 124.335C100.025 124.731 100.146 125.137 100.237 125.55C100.346 125.965 100.404 126.392 100.408 126.821C100.047 126.043 99.7152 125.284 99.4589 124.496C99.1485 123.709 98.9102 122.896 98.7471 122.066Z" fill="#263238"/>
<path d="M73.5484 114.341C70.0841 119.57 53.7117 140.157 53.1043 142.131C52.4969 144.105 56.2079 148.205 56.17 149.012C56.0276 152.287 47.7797 172.009 44.8564 169.893C41.0599 167.15 27.2882 149.847 29.12 140.726C30.9518 131.605 66.1357 108.864 71.9254 106.729C77.715 104.593 76.9652 109.187 73.5484 114.341Z" fill="#774442"/>
<path d="M60.2505 176.992C62.4715 174.895 58.7224 173.48 58.7224 173.48C58.7224 173.48 64.607 174.221 66.0591 171.174C67.5113 168.127 62.8606 166.685 62.5379 166.561C62.8511 166.561 68.2326 167.14 69.4095 163.923C70.5864 160.705 65.7269 159.822 65.4137 159.775C65.7175 159.709 69.7322 158.873 70.0455 156.235C70.577 151.707 58.8838 153.112 55.9415 150.882C55.9415 150.882 56.1313 144.978 56.1883 144.807C55.6451 146.211 54.6411 147.389 53.3409 148.148C50.9396 149.278 48.7472 150.047 47.9214 151.432C47.5339 152.037 47.3514 152.75 47.4009 153.466C47.4505 154.183 47.7295 154.864 48.1967 155.409C48.1967 155.409 44.9602 155.57 43.9826 158.067C43.4795 159.357 45.093 161.294 45.093 161.294C44.3629 161.367 43.6673 161.641 43.0828 162.085C42.4983 162.529 42.0477 163.125 41.7806 163.809C41.1922 165.622 42.9006 167.283 42.9006 167.283C42.9006 167.283 40.5088 168.659 40.5088 170.709C40.5088 174.847 55.4954 181.481 60.2505 176.992Z" fill="#774442"/>
<path d="M43.1389 167.596C43.1389 167.596 43.044 167.596 43.1389 167.662C47.6799 171.186 53.184 173.248 58.9228 173.575C59.1031 173.575 59.1885 173.291 58.9892 173.243C53.4597 172.14 48.1203 170.238 43.1389 167.596Z" fill="#263238"/>
<path d="M45.0178 161.294C44.9608 161.294 44.9134 161.351 44.9608 161.398C50.0217 165.242 56.2894 167.15 62.6335 166.78C62.8613 166.78 63.0416 166.514 62.7853 166.523C58.4668 166.571 49.659 163.837 45.0178 161.294Z" fill="#263238"/>
<path d="M65.85 159.576C59.6428 159.88 53.967 158.171 48.3862 155.571C48.3103 155.571 48.2723 155.637 48.3198 155.684C50.7021 157.706 54.4321 158.987 57.4218 159.747C60.1822 160.498 63.0909 160.514 65.8595 159.794C65.9639 159.766 65.9829 159.566 65.85 159.576Z" fill="#263238"/>
<path d="M42.7392 167.302C42.1577 166.872 41.7057 166.29 41.4328 165.62C41.1599 164.951 41.0767 164.219 41.1921 163.505C41.3707 162.802 41.8035 162.19 42.407 161.787C43.129 161.401 43.9327 161.193 44.7514 161.18C44.2043 160.624 43.8382 159.916 43.701 159.149C43.5638 158.382 43.6619 157.591 43.9826 156.88C44.3557 156.25 44.9573 155.788 45.6625 155.589C46.4779 155.381 47.317 155.278 48.1587 155.286C47.7498 154.938 47.4279 154.499 47.2186 154.005C47.0094 153.51 46.9185 152.974 46.9533 152.438C47.0112 151.851 47.2085 151.287 47.5287 150.791C47.849 150.296 48.283 149.884 48.7946 149.591C49.9939 148.921 51.2682 148.395 52.5911 148.025C53.2561 147.806 53.8931 147.509 54.4893 147.142C55.1241 146.703 55.6185 146.09 55.913 145.377C55.97 145.253 55.9795 145.377 55.913 145.481C55.7257 145.968 55.4595 146.42 55.1252 146.819C54.7717 147.239 54.363 147.61 53.9104 147.92C52.7698 148.581 51.5799 149.152 50.3512 149.629C49.2846 150.11 48.4047 150.927 47.8455 151.954C47.6046 152.491 47.5178 153.084 47.5949 153.668C47.672 154.251 47.9099 154.801 48.2821 155.257C48.2905 155.27 48.2954 155.284 48.2964 155.299C48.2973 155.314 48.2943 155.329 48.2875 155.343C48.2808 155.356 48.2706 155.368 48.2579 155.376C48.2453 155.384 48.2307 155.389 48.2156 155.39C47.467 155.499 46.7361 155.706 46.0422 156.007C45.4647 156.261 44.9782 156.685 44.6469 157.222C44.3646 157.874 44.259 158.59 44.3406 159.296C44.4222 160.003 44.6883 160.675 45.112 161.246C44.3218 161.43 43.57 161.751 42.8911 162.195C42.4444 162.557 42.1143 163.042 41.942 163.59C41.7536 164.212 41.7427 164.873 41.9104 165.501C42.0781 166.128 42.4178 166.696 42.8911 167.14C42.8934 167.156 42.8934 167.172 42.8911 167.188C42.8911 167.188 42.8911 167.188 42.8911 167.235C42.8911 167.235 42.1413 167.7 42.0938 167.71C42.0464 167.719 42.0938 167.71 42.0938 167.71C42.2983 167.557 42.514 167.421 42.7392 167.302Z" fill="#263238"/>
<path d="M64.6644 127.04L50.1523 119.001C50.1523 119.001 64.9397 109.187 71.8113 106.368C78.6829 103.549 78.8348 110.203 64.6644 127.04Z" fill="#263238"/>
<path d="M79.0528 103.188C76.7464 104.138 76.101 105.789 76.8223 107.725C77.6196 109.899 84.2919 114.122 87.0634 112.699C89.4551 111.465 87.3861 105.742 86.1142 104.451C85.1534 103.636 83.9939 103.09 82.7536 102.868C81.5133 102.646 80.2365 102.757 79.0528 103.188Z" fill="#263238"/>
<path d="M77.5256 107.222C77.8768 108.01 82.8407 112.575 86.5612 111.664C87.7761 111.36 86.4379 104.679 86.4379 104.679V104.157L86.6277 96.9338L77.5256 93.3081L76.2158 92.8525C76.2158 92.8525 76.2917 94.8267 76.4151 97.2944C76.4151 97.4083 76.4151 97.5222 76.4151 97.6456C76.4151 97.769 76.4151 97.9114 76.4151 98.0442C76.4151 98.4144 76.4151 98.794 76.4626 99.1642C76.51 99.5343 76.4626 99.7242 76.529 100.028C76.5955 100.332 76.529 100.616 76.5955 100.92C76.7578 103.04 77.0686 105.146 77.5256 107.222Z" fill="#774442"/>
<path d="M76.3772 97.2944C77.4523 99.1082 78.9104 100.665 80.6498 101.857C82.3891 103.049 84.3677 103.847 86.4473 104.195L86.6372 96.9717L77.5256 93.3081L76.2158 92.8525C76.2158 92.8525 76.2538 94.8267 76.3772 97.2944Z" fill="#263238"/>
<path d="M95.093 85.7721C96.9058 98.329 89.5976 100.825 86.8831 101.214C84.4249 101.566 76.0156 102.458 72.912 90.1571C69.8084 77.8565 75.076 73.0729 80.6568 71.9434C86.2377 70.814 93.2802 73.2152 95.093 85.7721Z" fill="#774442"/>
<path d="M91.7613 82.7538C91.4693 82.7541 91.1776 82.735 90.8881 82.6969C90.5764 82.725 90.2646 82.6445 90.0054 82.4691C89.9331 82.401 89.8862 82.3103 89.8724 82.2119C89.8586 82.1136 89.8788 82.0135 89.9295 81.9281C90.0508 81.7695 90.2128 81.6469 90.3984 81.5733C90.584 81.4998 90.7861 81.478 90.983 81.5105C91.3905 81.5105 91.7832 81.6628 92.084 81.9376C92.1475 82.0045 92.1905 82.0881 92.208 82.1787C92.2255 82.2692 92.2168 82.3628 92.1829 82.4486C92.149 82.5343 92.0913 82.6086 92.0166 82.6627C91.9419 82.7168 91.8534 82.7484 91.7613 82.7538Z" fill="#263238"/>
<path d="M83.3335 84.3105C83.6106 84.2234 83.8831 84.122 84.1497 84.0067C84.4561 83.9419 84.7328 83.7786 84.9375 83.5417C84.9846 83.453 85.0017 83.3515 84.9863 83.2522C84.9709 83.153 84.9238 83.0614 84.8521 82.9912C84.6893 82.8763 84.4988 82.807 84.3002 82.7903C84.1017 82.7736 83.9023 82.8102 83.7226 82.8963C83.3279 83.011 82.9897 83.268 82.7735 83.6176C82.7289 83.7015 82.71 83.7965 82.719 83.8911C82.728 83.9856 82.7647 84.0754 82.8244 84.1492C82.8841 84.2231 82.9642 84.2777 83.0547 84.3064C83.1452 84.3351 83.2422 84.3365 83.3335 84.3105Z" fill="#263238"/>
<path d="M85.8962 87.1104C85.8962 87.1104 85.8298 87.1673 85.8393 87.1958C86.0101 88.05 86.067 89.0466 85.3457 89.4547C85.3457 89.4547 85.3457 89.5116 85.3457 89.5021C86.2758 89.2174 86.1904 87.8886 85.8962 87.1104Z" fill="#263238"/>
<path d="M84.985 86.351C83.5993 86.4839 83.9505 89.2459 85.2413 89.1225C86.5321 88.9991 86.143 86.2466 84.985 86.351Z" fill="#263238"/>
<path d="M84.4627 86.5694C84.2349 86.7592 84.0356 87.0629 83.7508 87.1294C83.4661 87.1958 83.1244 86.9491 82.8682 86.7023C82.9346 87.2338 83.2098 87.7463 83.8173 87.7558C84.4247 87.7653 84.6525 87.2433 84.7664 86.6928C84.6525 86.6263 84.5481 86.4935 84.4627 86.5694Z" fill="#263238"/>
<path d="M90.5851 86.1611C90.5851 86.1611 90.6611 86.1611 90.6611 86.2276C90.737 87.0913 90.9743 88.0594 91.781 88.2587V88.3061C90.8129 88.2492 90.5187 86.9489 90.5851 86.1611Z" fill="#263238"/>
<path d="M91.2399 85.1363C92.6067 84.861 93.0528 87.6135 91.7904 87.8697C90.5281 88.126 90.101 85.3641 91.2399 85.1363Z" fill="#263238"/>
<path d="M91.8472 85.2122C92.0845 85.3261 92.3502 85.5539 92.6065 85.5349C92.8627 85.5159 93.0905 85.1648 93.2329 84.8516C93.3373 85.3736 93.2329 85.9431 92.7583 86.1329C92.2838 86.3227 91.9041 85.8956 91.6953 85.3926C91.6953 85.3356 91.7618 85.2122 91.8472 85.2122Z" fill="#263238"/>
<path d="M89.7787 90.4703C89.7787 90.4703 90.1299 91.7231 90.2153 92.3685C90.2153 92.4255 90.0824 92.4729 89.8831 92.5204C89.3792 92.6856 88.8398 92.7101 88.323 92.5913C87.8062 92.4726 87.3316 92.2151 86.9503 91.8465C86.9407 91.8352 86.9352 91.8209 86.9346 91.806C86.9341 91.7912 86.9385 91.7765 86.9473 91.7645C86.956 91.7525 86.9686 91.7437 86.9829 91.7397C86.9972 91.7356 87.0125 91.7365 87.0262 91.7421C87.869 92.1607 88.824 92.2972 89.7502 92.1312C89.7502 91.9509 89.0669 90.0052 89.1618 89.9862C89.6361 89.9609 90.1118 89.9992 90.576 90.1001C89.9116 87.4711 88.8201 84.9654 88.2032 82.3363C88.2025 82.3184 88.2074 82.3007 88.2174 82.2857C88.2273 82.2707 88.2417 82.2593 88.2585 82.253C88.2753 82.2467 88.2937 82.2458 88.311 82.2506C88.3284 82.2553 88.3437 82.2654 88.355 82.2794C89.5981 84.9249 90.5742 87.6879 91.2688 90.5272C91.3353 90.812 90.035 90.5367 89.7787 90.4703Z" fill="#263238"/>
<path d="M72.9032 89.1321C75.8834 88.9233 75.4943 84.2346 75.4943 84.2346C75.4943 84.2346 78.8541 83.6652 78.6738 78.1982C79.4164 79.2415 80.3909 80.0982 81.5207 80.701C82.6505 81.3038 83.9047 81.6362 85.1848 81.672C86.1339 81.7385 82.7266 79.4796 82.7266 79.4796C82.7266 79.4796 86.8932 82.7066 94.0116 80.8083C94.5146 80.6754 93.3377 72.3516 87.4627 70.1971C81.5876 68.0426 76.0732 70.6907 72.8747 74.5346C72.8747 74.5346 68.8694 76.7651 68.708 80.7419C68.5467 84.7187 71.7452 89.208 72.9032 89.1321Z" fill="#263238"/>
<path d="M84.1697 91.9983C83.4074 92.042 82.6482 91.8711 81.9782 91.5049C81.3082 91.1387 80.7544 90.5918 80.3797 89.9266C80.005 89.2613 79.8245 88.5043 79.8586 87.7415C79.8927 86.9787 80.1401 86.2408 80.5726 85.6116C81.0052 84.9824 81.6056 84.4872 82.3055 84.1822C83.0055 83.8773 83.777 83.7748 84.5323 83.8864C85.2877 83.998 85.9965 84.3193 86.5784 84.8137C87.1602 85.3081 87.5917 85.9558 87.8238 86.6832C88.015 87.2762 88.0675 87.9052 87.9774 88.5217C87.8872 89.1382 87.6568 89.7258 87.3038 90.2393C86.9508 90.7527 86.4847 91.1783 85.9413 91.4833C85.398 91.7882 84.7919 91.9644 84.1697 91.9983ZM83.7236 84.4053C82.9876 84.4494 82.2837 84.7222 81.7103 85.1857C81.1368 85.6491 80.7223 86.28 80.5247 86.9904C80.3271 87.7007 80.3562 88.455 80.608 89.1481C80.8598 89.8411 81.3216 90.4382 81.9291 90.856C82.5366 91.2739 83.2594 91.4916 83.9966 91.4789C84.7339 91.4661 85.4487 91.2235 86.0414 90.7849C86.6341 90.3463 87.075 89.7336 87.3027 89.0323C87.5303 88.331 87.5333 87.5761 87.3113 86.873C87.0787 86.1238 86.6039 85.4731 85.9614 85.023C85.3189 84.5729 84.5451 84.3489 83.7616 84.3863L83.7236 84.4053Z" fill="#FFC727"/>
<path d="M93.4322 90.3184C91.8757 90.4133 90.3666 88.8947 89.9869 86.7971C89.7963 85.7965 89.9224 84.7614 90.3476 83.8359C90.505 83.4268 90.7655 83.0653 91.1038 82.7865C91.442 82.5078 91.8466 82.3211 92.2782 82.2447C92.7098 82.1683 93.1539 82.2048 93.5673 82.3505C93.9806 82.4963 94.3494 82.7464 94.6376 83.0766C95.353 83.8002 95.8243 84.7294 95.9854 85.7341C96.3745 87.955 95.3495 89.9957 93.698 90.2899C93.6107 90.3087 93.5216 90.3183 93.4322 90.3184ZM92.578 82.7254H92.3692C92.0189 82.8046 91.6936 82.9691 91.4221 83.2042C91.1506 83.4393 90.9412 83.7378 90.8127 84.0731C90.4443 84.8976 90.3382 85.8154 90.5089 86.7022C90.8506 88.6004 92.2269 89.9956 93.5841 89.7489C94.9414 89.5021 95.7671 87.7557 95.4254 85.829C95.2826 84.9379 94.8682 84.1126 94.239 83.4657C94.0254 83.24 93.7678 83.0604 93.4821 82.938C93.1965 82.8156 92.8888 82.7529 92.578 82.7539V82.7254Z" fill="#FFC727"/>
<path d="M87.8141 87.1768L87.3965 86.8256C87.909 86.1992 89.1998 85.269 90.3672 86.1422L90.0445 86.5788C89.0005 85.7911 87.8616 87.1103 87.8141 87.1768Z" fill="#FFC727"/>
<path d="M70.065 91.3719L69.543 91.2105C69.6189 90.9733 70.3212 88.8283 71.4412 88.4201C72.5612 88.012 79.8599 87.471 80.1731 87.4141V87.9645C78.0661 88.1354 72.4188 88.6384 71.5741 88.9137C70.7294 89.1889 70.2548 90.7834 70.065 91.3719Z" fill="#FFC727"/>
<path d="M75.0475 90.8309C75.0475 90.8309 72.0577 87.0344 70.3019 88.1259C68.546 89.2174 70.9662 94.8267 73.1492 95.491C73.4219 95.602 73.7144 95.6557 74.0087 95.6488C74.303 95.6418 74.5927 95.5744 74.8598 95.4506C75.1269 95.3269 75.3657 95.1495 75.5612 94.9294C75.7568 94.7094 75.905 94.4515 75.9966 94.1718L75.0475 90.8309Z" fill="#774442"/>
<path d="M73.1394 76.2334C74.9332 74.8097 78.7582 64.7775 70.1117 60.3641C61.4652 55.9507 51.898 67.1788 58.3141 74.9047C62.6326 80.0869 69.3429 79.2516 73.1394 76.2334Z" fill="#263238"/>
<path d="M361.237 278.482C368.052 264.473 379.973 257.288 393.403 261.255C406.833 265.223 408.921 283.968 398.889 288.694C388.857 293.421 378.834 279.611 373.538 276.773C368.242 273.936 361.237 278.482 361.237 278.482Z" fill="#3ACC6C"/>
<path d="M354.669 315.754C354.669 314.064 354.773 312.375 354.83 310.685C354.954 307.316 355.067 303.947 355.191 300.577C355.419 294.418 356.083 288.362 358.636 282.677C360.891 277.524 364.662 273.181 369.447 270.224C371.226 269.156 373.142 268.332 375.141 267.776C376.955 265.942 379.264 264.675 381.785 264.131C384.911 263.498 388.123 263.417 391.276 263.894C391.39 263.894 391.39 264.093 391.276 264.074C388.283 263.695 385.245 263.911 382.336 264.71C381.089 265.054 379.88 265.525 378.729 266.115C378.007 266.506 377.312 266.947 376.65 267.434C379.361 266.871 382.161 266.897 384.86 267.51C385.833 267.75 386.785 268.068 387.708 268.459C388.443 268.302 389.196 268.238 389.948 268.269C390.928 268.304 391.902 268.444 392.852 268.687C394.797 269.237 396.658 270.048 398.385 271.098C398.48 271.155 398.385 271.306 398.29 271.249C396.594 270.324 394.776 269.64 392.89 269.218C391.978 269.011 391.051 268.874 390.118 268.81C389.606 268.782 389.093 268.782 388.581 268.81C392.41 270.575 395.488 273.643 397.265 277.466C397.313 277.571 397.151 277.656 397.113 277.552C396.055 275.334 394.509 273.384 392.591 271.847C390.673 270.31 388.433 269.227 386.037 268.677C385.743 268.601 385.439 268.563 385.145 268.497C385.249 268.934 385.23 269.446 385.287 269.854C385.373 270.538 385.487 271.211 385.629 271.885C385.902 273.275 386.267 274.644 386.721 275.986C387.176 277.344 387.718 278.673 388.344 279.962C388.955 281.311 389.719 282.585 390.622 283.759C390.697 283.854 390.546 283.968 390.479 283.863C389.672 282.601 388.733 281.434 387.992 280.067C387.286 278.815 386.677 277.511 386.17 276.166C385.658 274.799 385.258 273.393 384.974 271.961C384.822 271.212 384.708 270.452 384.623 269.683C384.528 269.228 384.5 268.761 384.538 268.298C382.967 268.06 381.371 268.028 379.792 268.203C380.39 271.544 381.035 275.017 382.905 277.922C382.962 278.017 382.801 278.112 382.744 278.007C381.868 276.48 381.098 274.894 380.437 273.262C379.788 271.705 379.357 270.067 379.156 268.393C376.384 268.765 373.707 269.66 371.269 271.031C366.678 273.704 363.013 277.714 360.762 282.525C358.397 287.706 357.075 293.301 356.871 298.992C356.425 306.149 356.33 313.343 355.618 320.48C355.57 320.945 354.83 321.107 354.745 320.575C354.565 318.974 354.54 317.36 354.669 315.754Z" fill="#263238"/>
<path d="M370.386 269.104C370.836 268.56 371.356 268.078 371.933 267.671C372.493 267.216 373.063 266.77 373.66 266.362C374.843 265.554 376.152 264.948 377.533 264.568C377.556 264.561 377.58 264.564 377.6 264.576C377.621 264.587 377.636 264.607 377.642 264.629C377.648 264.652 377.645 264.676 377.634 264.697C377.622 264.717 377.603 264.732 377.58 264.739C376.196 265.099 374.903 265.745 373.784 266.637C373.214 267.054 372.673 267.5 372.142 267.966C371.665 268.459 371.141 268.904 370.576 269.294C370.563 269.307 370.549 269.317 370.532 269.323C370.516 269.33 370.499 269.334 370.481 269.334C370.463 269.334 370.446 269.33 370.43 269.323C370.413 269.317 370.398 269.307 370.386 269.294C370.374 269.282 370.364 269.267 370.357 269.251C370.35 269.234 370.347 269.217 370.347 269.199C370.347 269.182 370.35 269.164 370.357 269.148C370.364 269.132 370.374 269.117 370.386 269.104Z" fill="#263238"/>
<path d="M392.131 274.182C393.257 275.492 394.3 276.871 395.254 278.311C396.184 279.765 396.963 281.311 397.579 282.924C397.579 282.971 397.522 283 397.494 282.924C395.935 279.877 394.095 276.982 391.998 274.277C391.922 274.211 392.055 274.087 392.131 274.182Z" fill="#263238"/>
<path d="M377.449 272.797C377.59 273.672 377.849 274.524 378.218 275.331C378.59 276.109 379.022 276.858 379.508 277.571C379.508 277.618 379.508 277.666 379.433 277.628C378.259 276.275 377.506 274.609 377.269 272.835C377.288 272.721 377.449 272.683 377.449 272.797Z" fill="#263238"/>
<path d="M355.618 278.833C355.618 278.833 345.975 266.713 327.363 271.003C309.662 275.094 301.5 307.535 319.381 311.416C337.262 315.298 334.111 285.278 340.622 280.181C345.377 276.432 352.249 277.239 355.618 278.833Z" fill="#3ACC6C"/>
<path opacity="0.1" d="M355.618 278.833C355.618 278.833 345.975 266.713 327.363 271.003C309.662 275.094 301.5 307.535 319.381 311.416C337.262 315.298 334.111 285.278 340.622 280.181C345.377 276.432 352.249 277.239 355.618 278.833Z" fill="black"/>
<path d="M312.955 288.713C314.156 287.655 315.424 286.675 316.752 285.781C318.014 284.914 319.391 284.227 320.842 283.74C322.887 280.608 325.645 278.006 328.891 276.147C328.708 276.138 328.524 276.138 328.341 276.147C327.354 276.095 326.366 276.095 325.379 276.147C323.394 276.269 321.447 276.755 319.637 277.58C319.533 277.58 319.457 277.457 319.561 277.419C321.386 276.622 323.297 276.039 325.256 275.682C326.215 275.515 327.187 275.432 328.16 275.435C328.682 275.435 329.214 275.435 329.726 275.53H330.03C331.738 274.673 333.536 274.01 335.392 273.556L334.88 273.423C333.969 273.215 333.047 273.063 332.118 272.968C330.265 272.754 328.392 272.783 326.547 273.053C326.528 273.047 326.511 273.035 326.499 273.018C326.488 273.002 326.481 272.983 326.481 272.963C326.481 272.943 326.488 272.923 326.499 272.907C326.511 272.891 326.528 272.879 326.547 272.873C328.414 272.65 330.296 272.573 332.175 272.645C333.751 272.697 335.318 272.9 336.854 273.252C337.977 273.051 339.112 272.921 340.252 272.863C346.744 272.597 353.815 275.018 357.811 280.352C361.807 285.686 362.556 292.823 363.297 299.258C364.387 308.235 364.625 317.296 364.009 326.318C364.009 326.849 363.221 326.754 363.202 326.251C362.964 318.601 362.689 310.951 361.958 303.32C361.617 299.79 361.247 296.249 360.658 292.747C360.232 289.737 359.368 286.805 358.095 284.044C356.708 281.225 354.523 278.875 351.812 277.286C349.084 275.726 346.043 274.792 342.91 274.553C340.101 274.32 337.274 274.583 334.557 275.331C334.653 275.876 334.669 276.432 334.605 276.982C334.546 277.673 334.409 278.354 334.197 279.013C333.992 279.637 333.732 280.24 333.418 280.817C333.067 281.462 332.64 282.032 332.251 282.639C332.194 282.744 332.033 282.639 332.109 282.544C332.896 281.445 333.407 280.172 333.599 278.833C333.712 278.205 333.789 277.572 333.826 276.935C333.826 276.451 333.826 275.986 333.826 275.492C330.873 276.399 328.117 277.855 325.702 279.782C325.246 280.152 324.81 280.532 324.383 280.931C324.995 281.485 325.526 282.125 325.958 282.829C326.596 283.76 327.152 284.744 327.619 285.771C328.48 287.845 329.058 290.026 329.337 292.254C329.337 292.368 329.176 292.396 329.166 292.254C328.822 290.103 328.106 288.028 327.05 286.122C326.556 285.178 326.005 284.265 325.398 283.389C325.085 282.943 324.753 282.497 324.449 282.07C324.269 281.842 324.06 281.605 323.889 281.358C321.692 283.535 319.902 286.087 318.603 288.894C319.479 289.824 320.211 290.88 320.776 292.026C321.446 293.226 322.03 294.473 322.522 295.756C323.425 298.237 324.167 300.773 324.743 303.349C324.743 303.453 324.592 303.491 324.573 303.349C324.008 300.756 323.121 298.243 321.934 295.87C321.377 294.699 320.789 293.551 320.169 292.425C319.525 291.373 318.942 290.286 318.422 289.169C317.177 291.885 316.455 294.813 316.296 297.797C316.296 297.91 316.106 297.891 316.116 297.797C316.457 293.121 317.887 288.59 320.292 284.566C319.163 285.05 318.014 285.515 316.923 286.103C315.523 286.846 314.222 287.761 313.05 288.827C312.984 288.932 312.908 288.789 312.955 288.713Z" fill="#263238"/>
<path d="M326.604 289.406C327.164 291.238 327.866 293.022 328.369 294.883C328.885 296.664 329.162 298.505 329.195 300.359C329.195 300.406 329.11 300.406 329.11 300.359C328.602 296.641 327.708 292.986 326.443 289.454C326.437 289.442 326.434 289.43 326.434 289.418C326.433 289.405 326.436 289.393 326.441 289.381C326.446 289.37 326.453 289.36 326.463 289.351C326.472 289.343 326.483 289.337 326.495 289.334C326.507 289.33 326.519 289.329 326.532 289.331C326.544 289.333 326.556 289.337 326.566 289.344C326.577 289.351 326.586 289.36 326.592 289.371C326.598 289.382 326.603 289.394 326.604 289.406Z" fill="#263238"/>
<path d="M314.806 284.841C315.537 284.137 316.369 283.546 317.273 283.085C318.191 282.665 319.144 282.325 320.121 282.07C320.235 282.07 320.273 282.221 320.121 282.25C319.157 282.501 318.231 282.881 317.368 283.379C316.49 283.836 315.646 284.356 314.844 284.936C314.833 284.935 314.823 284.931 314.814 284.925C314.806 284.919 314.799 284.91 314.795 284.9C314.791 284.89 314.79 284.88 314.792 284.869C314.794 284.859 314.799 284.849 314.806 284.841Z" fill="#263238"/>
<path d="M346.43 262.631C346.43 262.631 344.646 240.859 328.454 233.797C314.938 227.903 307.193 243.089 316.751 252.39C324.486 259.917 336.882 256.519 346.43 262.631Z" fill="#3ACC6C"/>
<path opacity="0.1" d="M346.43 262.631C346.43 262.631 344.646 240.859 328.454 233.797C314.938 227.903 307.193 243.089 316.751 252.39C324.486 259.917 336.882 256.519 346.43 262.631Z" fill="black"/>
<path d="M319.751 238.021C322.212 239.017 324.614 240.155 326.945 241.428C328.884 242.548 330.751 243.787 332.535 245.139C332.27 244.589 332.032 244.019 331.767 243.478C331.34 242.633 330.893 241.817 330.39 241.02C329.393 239.371 328.194 237.854 326.822 236.502C326.736 236.426 326.822 236.293 326.955 236.379C328.32 237.731 329.573 239.191 330.704 240.745C331.264 241.536 331.777 242.36 332.241 243.212C332.72 243.993 333.088 244.836 333.333 245.718L333.513 245.851C336.34 248.116 338.931 250.66 341.248 253.444C341.201 253.235 341.153 253.017 341.096 252.818C340.793 251.754 340.47 250.71 340.147 249.657C339.449 247.424 338.466 245.29 337.224 243.307C337.158 243.212 337.319 243.118 337.376 243.222C338.648 245.204 339.78 247.271 340.764 249.41C341.214 250.458 341.588 251.536 341.884 252.637C342.119 253.349 342.294 254.079 342.406 254.82C343.118 255.712 343.811 256.614 344.466 257.544C351.413 267.443 354.906 279.374 355.741 291.38C355.987 294.953 356.047 298.536 355.922 302.115C355.896 305.722 355.578 309.322 354.973 312.878C354.925 313.106 354.574 313.039 354.584 312.821C354.659 309.67 354.992 306.538 355.049 303.387C355.106 300.236 355.001 297.075 354.745 293.895C354.231 287.612 353.048 281.401 351.214 275.369C349.323 269.191 346.538 263.323 342.947 257.952C342.273 257.819 341.59 257.63 340.926 257.459L338.534 256.813C336.981 256.408 335.471 255.851 334.026 255.152C333.921 255.105 334.026 254.944 334.12 255.001C335.547 255.778 337.093 256.313 338.695 256.586C339.958 256.832 341.277 257.003 342.549 257.288C341.372 255.579 340.106 253.931 338.752 252.343C335.667 252.625 332.556 252.394 329.546 251.66C327.934 251.271 326.349 250.78 324.8 250.188C323.177 249.562 321.639 248.755 320.054 248.091C319.931 248.043 320.054 247.863 320.121 247.93C323.021 249.512 326.186 250.547 329.46 250.986C332.351 251.449 335.274 251.69 338.202 251.707C337.044 250.388 335.857 249.106 334.595 247.911C330.343 243.867 325.284 240.137 319.684 238.201C319.551 238.144 319.646 238.021 319.751 238.021Z" fill="#263238"/>
<path d="M332.925 238.078C333.653 238.999 334.315 239.969 334.908 240.982C335.515 242.048 335.992 243.183 336.332 244.361C336.332 244.361 336.285 244.418 336.275 244.361C335.734 243.289 335.279 242.178 334.728 241.115C334.205 240.067 333.569 239.081 332.83 238.173C332.725 238.116 332.839 238.021 332.925 238.078Z" fill="#263238"/>
<path d="M317.871 245.329C318.922 245.909 320.033 246.374 321.184 246.715C322.293 247.098 323.425 247.415 324.572 247.664V247.759C323.38 247.632 322.206 247.374 321.07 246.99C319.948 246.57 318.854 246.079 317.795 245.519C317.653 245.433 317.767 245.272 317.871 245.329Z" fill="#263238"/>
<path d="M359.016 258.712C359.111 259.661 361.465 250.805 375.151 242.947C387.585 235.819 402.42 217.263 390.233 205.542C380.391 196.079 354.47 216.703 359.016 258.712Z" fill="#3ACC6C"/>
<path d="M349.591 309.442C349.789 300.233 350.514 291.043 351.764 281.918C352.835 273.53 354.762 265.273 357.516 257.278C358.532 254.431 359.699 251.584 360.961 248.736C360.89 247.652 360.909 246.563 361.018 245.481C361.085 244.086 361.208 242.69 361.341 241.305C361.474 239.919 361.607 238.524 361.778 237.138C361.948 235.752 362.233 234.367 362.29 232.981C362.29 232.858 362.499 232.886 362.461 232.981C362.19 234.438 362.029 235.913 361.977 237.394C361.872 238.733 361.797 240.08 361.749 241.428C361.702 242.776 361.749 244.124 361.749 245.471C361.749 245.955 361.749 246.468 361.797 246.99C363.087 244.266 364.464 241.589 365.963 238.979C365.014 233.285 366.238 227.372 367.396 221.819C367.396 221.715 367.586 221.762 367.567 221.876C366.996 224.775 366.694 227.72 366.666 230.675C366.609 233 366.722 235.335 366.732 237.66C367.055 237.1 367.387 236.54 367.681 235.99C369.459 233.098 371.357 230.266 373.376 227.495C373.216 226.148 373.261 224.785 373.509 223.452C373.736 221.956 374.069 220.478 374.505 219.029C374.942 217.577 375.454 216.182 376.024 214.758C376.593 213.334 377.4 211.958 377.979 210.515C377.981 210.502 377.986 210.49 377.994 210.48C378.001 210.469 378.011 210.461 378.023 210.454C378.034 210.448 378.047 210.445 378.06 210.444C378.073 210.444 378.086 210.446 378.098 210.451C378.109 210.456 378.12 210.464 378.128 210.474C378.137 210.484 378.143 210.496 378.146 210.508C378.149 210.521 378.15 210.534 378.147 210.547C378.144 210.559 378.139 210.571 378.131 210.582C377.409 211.95 376.836 213.391 376.423 214.881C375.968 216.279 375.594 217.702 375.303 219.143C375.008 220.576 374.771 221.99 374.572 223.48C374.439 224.429 374.353 225.445 374.192 226.413C377.121 222.477 380.321 218.751 383.769 215.261C383.854 215.175 383.968 215.308 383.892 215.384C378.676 221.25 374.018 227.589 369.978 234.319C369.826 234.575 369.684 234.832 369.541 235.088C370.291 234.613 371.155 234.234 371.867 233.845C373.195 233.104 374.527 232.374 375.863 231.652L379.735 229.526C380.399 229.156 381.054 228.776 381.728 228.435C382.537 228.068 383.315 227.637 384.053 227.144C384.158 227.068 384.262 227.229 384.158 227.286C382.839 228.008 381.671 229.09 380.361 229.896C379.052 230.703 377.837 231.567 376.498 232.326C374.069 233.683 371.421 234.661 369.029 236.066C367.371 238.976 365.837 241.953 364.426 244.997C365.875 244.067 367.355 243.181 368.867 242.339C369.817 241.798 370.766 241.257 371.8 240.745C372.777 240.292 373.7 239.732 374.553 239.074C374.571 239.066 374.592 239.063 374.612 239.067C374.631 239.07 374.65 239.08 374.663 239.095C374.677 239.11 374.686 239.129 374.688 239.149C374.69 239.169 374.686 239.19 374.676 239.207C373.084 240.641 371.317 241.869 369.418 242.861C367.662 243.896 365.878 244.883 364.055 245.785C362.584 248.983 361.265 252.258 360.088 255.58C354.327 271.895 352.21 289.216 351.195 306.414C350.901 311.549 350.739 316.665 350.682 321.809C350.625 326.953 350.882 332.06 350.872 337.185C350.872 337.337 350.625 337.375 350.606 337.185C349.989 332.639 349.876 328.016 349.657 323.432C349.439 318.848 349.486 314.102 349.591 309.442Z" fill="#263238"/>
<path d="M374.458 235.572C376.961 234.459 379.392 233.191 381.738 231.776C384.115 230.434 386.421 228.97 388.647 227.391C388.647 227.391 388.723 227.391 388.695 227.457C386.588 229.151 384.369 230.698 382.051 232.089C379.623 233.447 377.112 234.651 374.534 235.695C374.439 235.771 374.354 235.62 374.458 235.572Z" fill="#263238"/>
<path d="M370.491 217.14C370.7 216.343 370.947 215.565 371.222 214.786C371.216 214.78 371.211 214.773 371.207 214.765C371.204 214.757 371.202 214.748 371.202 214.739C371.202 214.73 371.204 214.721 371.207 214.713C371.211 214.705 371.216 214.698 371.222 214.692C371.393 214.255 371.573 213.818 371.754 213.382L371.82 213.22L371.924 212.964C371.877 213.116 371.839 213.268 371.792 213.42C371.774 213.503 371.752 213.585 371.725 213.666C370.816 216.712 370.137 219.821 369.694 222.968C369.694 223.063 369.523 223.063 369.533 222.968C369.667 220.999 369.988 219.048 370.491 217.14Z" fill="#263238"/>
<path d="M335.127 312.745L336.105 324.324L339.094 359.641H371.127L374.117 324.324L375.094 312.745H335.127Z" fill="#455A64"/>
<path d="M335.127 312.745L336.105 324.324H374.117L375.094 312.745H335.127Z" fill="#263238"/>
<path d="M331.985 319.208H378.235V308.104H331.985V319.208Z" fill="#455A64"/>
</svg>
