<svg width="56" height="50" viewBox="0 0 56 50" fill="none" xmlns="http://www.w3.org/2000/svg">
<path fill-rule="evenodd" clip-rule="evenodd" d="M0.939304 33.8347H8.60052V32.8929C10.1864 33.5205 11.9195 33.8354 13.7926 33.8354C16.2332 33.8354 18.4451 33.3026 20.4281 32.2416C22.4032 31.1812 23.9645 29.6527 25.1131 27.6659C26.257 25.6713 26.831 23.3731 26.831 20.759C26.831 18.15 26.2651 15.8473 25.137 13.8567C24.0049 11.8705 22.4552 10.342 20.4925 9.28095C18.5256 8.216 16.3255 7.68385 13.885 7.68385C11.9753 7.68385 10.2152 8.00856 8.60052 8.65829V0.118599H0.939304V20.6642C0.939139 20.6958 0.939056 20.7274 0.939056 20.759C0.939056 20.7913 0.939139 20.8236 0.939304 20.8558V33.8347ZM46.6446 40.7973C47.6718 39.7006 48.1859 38.1353 48.1859 36.1031H55.9562C55.9562 38.7167 55.3793 41.0162 54.2333 43.0081C53.0869 44.9923 51.5298 46.5169 49.5456 47.5819C47.5693 48.6468 45.356 49.1789 42.921 49.1789C40.4784 49.1789 38.2813 48.6468 36.3366 47.5819C34.3836 46.5169 32.8505 45.0001 31.7359 43.0243C30.6213 41.0556 30.0597 38.749 30.0597 36.1031H37.8306C37.8306 38.1353 38.3127 39.7006 39.277 40.7973C40.2494 41.8868 41.4588 42.4352 42.921 42.4352C44.3755 42.4352 45.6168 41.8868 46.6446 40.7973ZM37.4497 20.7597C37.4497 22.795 37.9314 24.3597 38.8988 25.4531C39.8664 26.5472 41.0827 27.0923 42.536 27.0923C43.9968 27.0923 45.2372 26.5472 46.2687 25.4531C47.2926 24.3597 47.8062 22.795 47.8062 20.7597C47.8062 18.7269 47.3089 17.1628 46.3092 16.0687C45.3138 14.9747 44.0854 14.4263 42.6281 14.4263C41.1391 14.4263 39.9022 14.9669 38.9226 16.0441C37.9395 17.1213 37.4497 18.6952 37.4497 20.7597ZM42.2116 7.6871H42.4946C42.5144 7.68681 42.534 7.68601 42.5537 7.68521C42.5784 7.68421 42.6031 7.6832 42.6281 7.6832C42.6533 7.6832 42.6779 7.68421 42.7025 7.68521C42.7221 7.68601 42.7416 7.68681 42.7614 7.6871H55.9562C55.9562 9.86745 54.9377 11.8005 53.364 13.0325C53.5438 13.2986 53.7172 13.5718 53.8801 13.8567C55.0078 15.8473 55.5742 18.1494 55.5742 20.7597C55.5742 23.3731 54.9997 25.6706 53.8558 27.6652C52.7078 29.6527 51.1463 31.1805 49.171 32.2416C47.188 33.302 44.9768 33.8347 42.536 33.8347C40.0991 33.8347 37.8991 33.302 35.9522 32.2416C34.0054 31.1805 32.4721 29.6611 31.352 27.6866C30.2358 25.7115 29.6823 23.4055 29.6823 20.7597C29.6823 18.1494 30.244 15.8473 31.3763 13.8567C32.5082 11.8705 34.0539 10.342 36.0206 9.28095C37.871 8.27685 39.9341 7.7525 42.2116 7.69485V7.6871ZM13.7926 27.0923C15.254 27.0923 16.4945 26.5478 17.5259 25.4538C18.5494 24.3597 19.0635 22.7957 19.0635 20.759C19.0635 18.7275 18.5657 17.1628 17.566 16.0693C16.5706 14.9753 15.3422 14.4263 13.885 14.4263C12.3955 14.4263 11.1594 14.9669 10.1798 16.0441C9.19634 17.122 8.70654 18.6945 8.70654 20.759C8.70654 22.7957 9.18828 24.3597 10.156 25.4538C11.1232 26.5478 12.3394 27.0923 13.7926 27.0923Z" fill="white"/>
</svg>
