<svg width="284" height="199" viewBox="0 0 284 199" fill="none" xmlns="http://www.w3.org/2000/svg">
<path d="M284 128.509C191.707 158.469 92.293 158.469 0 128.509C5.74321 110.833 11.4893 93.1566 17.2381 75.4805C98.3264 101.808 185.674 101.808 266.762 75.4805C272.511 93.1566 278.257 110.833 284 128.509Z" fill="#FFC727"/>
<path d="M61.0604 103.608L65.4103 104.457C65.8577 107.163 66.3193 109.874 66.7951 112.591C68.1884 110.213 69.5619 107.828 70.9156 105.434C72.3769 105.688 73.8438 105.935 75.3164 106.172C73.3624 109.449 71.38 112.721 69.3693 115.987C70.0093 118.63 70.6664 121.27 71.3404 123.908C74.7387 118.304 78.0266 112.67 81.2041 107.004C82.9032 107.259 84.6307 107.5 86.3865 107.726C82.0197 115.022 77.4744 122.249 72.7507 129.409C71.3404 129.189 69.9386 128.959 68.5028 128.722C67.5512 125.241 66.6393 121.757 65.7671 118.27C63.7394 121.242 61.6749 124.197 59.5736 127.134C58.1718 126.871 56.7784 126.599 55.3766 126.285C53.4509 117.931 51.7121 109.585 50.1602 101.248C51.8593 101.627 53.5444 101.995 55.2152 102.352C56.263 108.776 57.4128 115.203 58.6645 121.633C60.1938 119.369 61.7004 117.105 63.1843 114.841C62.448 111.105 61.74 107.361 61.0604 103.608Z" fill="white"/>
<path d="M104.286 129.222C104.167 130.546 104.057 131.87 103.938 133.203C97.9229 132.688 91.9192 132.046 85.9268 131.276C86.9179 123.533 87.9063 115.788 88.8918 108.039C94.4764 108.752 100.064 109.349 105.654 109.83C105.535 111.155 105.425 112.488 105.306 113.812C101.273 113.456 97.2404 113.045 93.2077 112.581C92.9868 114.449 92.7744 116.317 92.5535 118.185C96.0878 118.598 99.6193 118.963 103.148 119.28L102.817 122.964C99.2483 122.642 95.6857 122.274 92.1287 121.861C91.8994 123.881 91.6615 125.902 91.4321 127.923C95.6913 128.415 99.9761 128.848 104.286 129.222Z" fill="white"/>
<path d="M107.897 133.527C108.498 125.733 109.098 117.945 109.699 110.162C111.296 110.289 112.893 110.4 114.49 110.51L113.216 129.884C117.6 130.173 121.986 130.394 126.376 130.547C126.325 131.88 126.283 133.204 126.232 134.537C120.115 134.339 114.003 134.002 107.897 133.527Z" fill="white"/>
<path d="M126.512 122.676C126.565 121.211 126.899 119.77 127.498 118.431C128.104 117.057 128.969 115.811 130.046 114.764C131.18 113.677 132.509 112.813 133.963 112.217C135.6 111.543 137.359 111.216 139.128 111.257C141.183 111.219 143.212 111.708 145.025 112.675C146.597 113.506 147.905 114.762 148.797 116.3C147.565 117.149 146.333 117.939 145.084 118.754C144.785 118.121 144.377 117.547 143.878 117.056C143.43 116.625 142.921 116.264 142.365 115.986C141.824 115.724 141.254 115.527 140.666 115.4C140.107 115.286 139.538 115.224 138.967 115.214C137.868 115.181 136.776 115.408 135.781 115.876C134.898 116.315 134.121 116.941 133.504 117.71C132.878 118.438 132.396 119.28 132.085 120.189C131.761 121.08 131.58 122.017 131.55 122.965C131.525 123.985 131.686 125 132.026 125.962C132.345 126.905 132.848 127.776 133.508 128.522C134.167 129.268 134.969 129.876 135.866 130.309C136.823 130.766 137.872 131.001 138.933 130.997C139.544 130.995 140.153 130.932 140.751 130.81C141.376 130.679 141.981 130.467 142.552 130.182C143.116 129.878 143.632 129.491 144.081 129.035C144.574 128.573 144.967 128.016 145.237 127.397C146.596 128.101 147.973 128.798 149.349 129.494C148.952 130.387 148.373 131.188 147.65 131.846C146.883 132.527 146.025 133.098 145.101 133.544C144.115 134.019 143.077 134.377 142.008 134.613C140.946 134.848 139.86 134.965 138.772 134.961C137.01 134.97 135.269 134.587 133.674 133.841C132.205 133.146 130.881 132.178 129.774 130.988C128.713 129.846 127.88 128.512 127.319 127.057C126.756 125.667 126.482 124.176 126.512 122.676Z" fill="white"/>
<path d="M163.715 134.469C161.938 134.581 160.157 134.315 158.49 133.688C156.979 133.117 155.595 132.251 154.421 131.141C153.296 130.077 152.392 128.802 151.762 127.388C151.136 125.997 150.8 124.493 150.775 122.967C150.75 121.442 151.037 119.927 151.617 118.516C152.518 116.297 154.038 114.382 155.996 113.001C157.954 111.619 160.267 110.828 162.662 110.723C164.347 110.62 166.033 110.884 167.607 111.495C170.514 112.635 172.894 114.813 174.284 117.608C174.966 118.929 175.382 120.372 175.508 121.853C175.63 123.386 175.43 124.927 174.921 126.378C174.411 127.843 173.617 129.193 172.585 130.352C171.505 131.549 170.2 132.524 168.745 133.221C167.169 133.97 165.459 134.395 163.715 134.469ZM155.772 122.906C155.805 123.904 156.009 124.889 156.375 125.818C156.728 126.73 157.253 127.566 157.921 128.28C158.642 129.033 159.521 129.618 160.495 129.992C161.469 130.367 162.513 130.521 163.554 130.445C164.61 130.423 165.647 130.161 166.588 129.68C167.528 129.199 168.347 128.512 168.983 127.669C169.574 126.887 170.01 126 170.266 125.054C170.525 124.118 170.625 123.145 170.563 122.176C170.498 121.176 170.256 120.196 169.849 119.281C169.463 118.387 168.919 117.571 168.244 116.869C167.567 116.179 166.754 115.635 165.856 115.273C164.881 114.892 163.835 114.727 162.789 114.789C161.707 114.831 160.649 115.121 159.697 115.638C158.832 116.094 158.076 116.731 157.479 117.506C156.889 118.268 156.443 119.131 156.163 120.053C155.879 120.977 155.747 121.94 155.772 122.906Z" fill="white"/>
<path d="M201.471 130.835L199.389 115.451C197.758 119.56 196.059 123.658 194.292 127.745L191.582 128.059C188.937 124.487 186.348 120.89 183.817 117.268C184.326 122.413 184.833 127.558 185.337 132.703C183.638 132.864 181.939 133.025 180.24 133.17C179.571 125.393 178.897 117.613 178.218 109.831C179.917 109.678 181.616 109.525 183.315 109.355C186.181 113.532 189.118 117.684 192.126 121.81C194.142 117.107 196.07 112.386 197.911 107.649C199.61 107.417 201.31 107.179 203.009 106.936L206.407 130.113C204.869 130.368 203.17 130.606 201.471 130.835Z" fill="white"/>
<path d="M228.972 122.158L229.762 126.072C223.821 127.266 217.86 128.342 211.879 129.298C210.655 121.589 209.426 113.878 208.191 106.163C213.748 105.28 219.29 104.281 224.818 103.166L225.608 107.08C221.615 107.884 217.616 108.628 213.612 109.313C213.935 111.164 214.249 113.023 214.563 114.874C218.069 114.274 221.572 113.629 225.073 112.938L225.786 116.563C222.263 117.259 218.732 117.91 215.192 118.516C215.532 120.52 215.88 122.523 216.22 124.535C220.485 123.805 224.736 123.013 228.972 122.158Z" fill="white"/>
<path d="M232.303 116.547L229.219 102.021C230.74 101.698 232.269 101.367 233.79 101.027C234.877 105.85 235.962 110.678 237.043 115.511C235.455 115.868 233.883 116.207 232.303 116.547ZM234.138 125.164C233.79 123.543 233.441 121.913 233.101 120.291C234.699 119.952 236.29 119.603 237.876 119.247L238.972 124.112C237.358 124.468 235.752 124.791 234.138 125.164Z" fill="white"/>
<g opacity="0.1">
<path opacity="0.1" d="M20.2888 82.3398C20.3783 83.4177 20.2835 84.503 20.0084 85.5491C19.7575 86.591 19.4455 87.6172 19.0739 88.6224C18.3519 90.6336 17.4088 92.5585 16.2617 94.3617C16.8224 92.2901 17.5616 90.3035 18.2837 88.3168L19.3712 85.3538C19.7468 84.3717 20.0534 83.3646 20.2888 82.3398Z" fill="black"/>
<path opacity="0.1" d="M21.1377 83.0361C21.6 83.834 21.9517 84.6908 22.1833 85.5831C22.4279 86.4765 22.6013 87.3877 22.7018 88.3084C22.9054 90.1514 22.7875 92.0157 22.3533 93.8184C22.2343 92.893 22.1833 91.9931 22.1068 91.0847C22.0303 90.1762 21.9452 89.2933 21.8602 88.4018C21.6732 86.6274 21.4352 84.887 21.1377 83.0361Z" fill="black"/>
<path opacity="0.1" d="M23.1514 82.3398C23.8019 83.0305 24.5003 83.6745 25.2414 84.2671C25.9628 84.8509 26.7299 85.3762 27.5352 85.8377C28.3516 86.3087 29.2038 86.7146 30.084 87.0518C30.9336 87.4169 31.8596 87.6716 32.7857 87.9857C31.8071 88.0367 30.8266 87.9335 29.8801 87.6801C27.9295 87.2029 26.1536 86.1846 24.7571 84.7425C24.0756 84.0495 23.5308 83.2344 23.1514 82.3398Z" fill="black"/>
</g>
<g opacity="0.1">
<path opacity="0.1" d="M264.408 82.3398C264.643 83.3675 264.95 84.3774 265.326 85.3623L266.421 88.2828C267.144 90.2695 267.874 92.2562 268.435 94.3277C267.294 92.5183 266.351 90.5912 265.623 88.58C265.25 87.5759 264.941 86.5494 264.697 85.5066C264.42 84.4753 264.322 83.4042 264.408 82.3398Z" fill="black"/>
<path opacity="0.1" d="M263.568 83.0361C263.27 84.853 263.032 86.6274 262.845 88.4188C262.752 89.3102 262.667 90.2017 262.599 91.1016C262.531 92.0016 262.463 92.91 262.344 93.8354C261.91 92.0327 261.792 90.1684 261.995 88.3254C262.096 87.4047 262.269 86.4934 262.514 85.6001C262.747 84.7015 263.101 83.8388 263.568 83.0361Z" fill="black"/>
<path opacity="0.1" d="M261.554 82.3398C261.159 83.2389 260.6 84.0565 259.906 84.751C258.529 86.1777 256.781 87.1921 254.859 87.6801C253.915 87.9338 252.938 88.0369 251.962 87.9857C252.888 87.6716 253.789 87.4169 254.655 87.0518C256.387 86.3655 258.007 85.4271 259.464 84.2671C260.205 83.6745 260.903 83.0305 261.554 82.3398Z" fill="black"/>
</g>
<path d="M23.152 82.3403C23.152 82.7382 23.034 83.1272 22.8127 83.4581C22.5915 83.789 22.277 84.0469 21.9091 84.1992C21.5411 84.3515 21.1363 84.3914 20.7457 84.3137C20.3551 84.2361 19.9963 84.0444 19.7147 83.763C19.4331 83.4816 19.2414 83.1231 19.1637 82.7328C19.086 82.3425 19.1259 81.9379 19.2783 81.5702C19.4307 81.2026 19.6887 80.8883 20.0199 80.6672C20.351 80.4461 20.7403 80.3281 21.1385 80.3281C21.6725 80.3281 22.1847 80.5401 22.5623 80.9175C22.9399 81.2948 23.152 81.8066 23.152 82.3403Z" fill="#263238"/>
<path d="M264.876 82.3403C264.876 82.7382 264.758 83.1272 264.536 83.4581C264.315 83.789 264.001 84.0469 263.633 84.1992C263.265 84.3515 262.86 84.3914 262.469 84.3137C262.079 84.2361 261.72 84.0444 261.438 83.763C261.157 83.4816 260.965 83.1231 260.887 82.7328C260.81 82.3425 260.849 81.9379 261.002 81.5702C261.154 81.2026 261.412 80.8883 261.743 80.6672C262.075 80.4461 262.464 80.3281 262.862 80.3281C263.396 80.3281 263.908 80.5401 264.286 80.9175C264.664 81.2948 264.876 81.8066 264.876 82.3403Z" fill="#263238"/>
<path d="M91.0243 93.2113C91.1049 93.7625 90.9644 94.3232 90.6335 94.7716C90.3026 95.2199 89.808 95.5196 89.2572 95.6055C88.9842 95.6386 88.7073 95.6173 88.4426 95.5428C88.1779 95.4684 87.9306 95.3423 87.7149 95.1718C87.4992 95.0013 87.3195 94.7897 87.1861 94.5494C87.0528 94.3091 86.9684 94.0447 86.9378 93.7716C86.862 93.2198 87.0053 92.6603 87.3372 92.2128C87.6691 91.7653 88.1631 91.4655 88.7134 91.3774C88.9858 91.3455 89.2618 91.3677 89.5255 91.4427C89.7892 91.5177 90.0355 91.644 90.2503 91.8144C90.465 91.9848 90.6439 92.196 90.7768 92.4357C90.9096 92.6754 90.9937 92.939 91.0243 93.2113Z" fill="#263238"/>
<path d="M253.398 102.033C253.476 102.585 253.333 103.145 253.001 103.593C252.669 104.041 252.173 104.341 251.622 104.427C251.349 104.46 251.073 104.439 250.809 104.364C250.545 104.289 250.298 104.163 250.083 103.993C249.868 103.822 249.689 103.61 249.557 103.37C249.424 103.13 249.341 102.866 249.311 102.593C249.233 102.042 249.374 101.482 249.705 101.035C250.035 100.587 250.528 100.287 251.078 100.199C251.351 100.167 251.628 100.189 251.892 100.264C252.156 100.339 252.403 100.465 252.618 100.635C252.834 100.806 253.013 101.017 253.147 101.256C253.281 101.496 253.366 101.76 253.398 102.033Z" fill="#263238"/>
<path d="M206.739 85.4177C206.775 85.6931 206.702 85.9718 206.535 86.194C206.369 86.4163 206.121 86.5643 205.847 86.6063C205.711 86.6241 205.573 86.6145 205.441 86.5783C205.309 86.542 205.185 86.4797 205.078 86.3951C204.97 86.3105 204.88 86.2052 204.814 86.0855C204.748 85.9657 204.706 85.834 204.691 85.6979C204.651 85.4274 204.717 85.1519 204.875 84.9289C205.034 84.7059 205.272 84.5526 205.541 84.5008C205.68 84.4781 205.823 84.4841 205.96 84.5185C206.097 84.5529 206.226 84.6149 206.338 84.7008C206.45 84.7867 206.543 84.8946 206.612 85.0179C206.681 85.1412 206.724 85.2772 206.739 85.4177Z" fill="#FFC727"/>
<path d="M77.4315 85.4176C77.4712 85.6871 77.4049 85.9615 77.2465 86.1831C77.0881 86.4048 76.8498 86.5564 76.5819 86.6062C76.4461 86.624 76.3081 86.6145 76.176 86.5782C76.044 86.5419 75.9205 86.4796 75.8129 86.395C75.7052 86.3104 75.6156 86.2051 75.5492 86.0854C75.4829 85.9657 75.4411 85.8339 75.4264 85.6978C75.3865 85.4273 75.4525 85.1519 75.6108 84.9288C75.7691 84.7058 76.0074 84.5525 76.276 84.5007C76.4123 84.4842 76.5505 84.4949 76.6826 84.5321C76.8147 84.5694 76.9381 84.6325 77.0455 84.7178C77.153 84.8031 77.2425 84.9089 77.3087 85.029C77.375 85.1492 77.4167 85.2813 77.4315 85.4176Z" fill="#FFC727"/>
<path d="M231.691 18.2282C231.729 18.4973 231.662 18.7706 231.504 18.9918C231.346 19.2129 231.109 19.365 230.842 19.4168C230.706 19.4357 230.567 19.4271 230.435 19.3913C230.302 19.3555 230.178 19.2933 230.07 19.2085C229.963 19.1236 229.873 19.0179 229.807 18.8976C229.741 18.7773 229.7 18.6449 229.686 18.5084C229.644 18.2376 229.709 17.961 229.868 17.7375C230.027 17.514 230.266 17.361 230.536 17.3113C230.672 17.2947 230.81 17.3054 230.943 17.3427C231.075 17.3799 231.198 17.4431 231.305 17.5284C231.413 17.6137 231.502 17.7195 231.569 17.8396C231.635 17.9597 231.677 18.0918 231.691 18.2282Z" fill="#263238"/>
<path d="M177.258 152.651C177.301 152.921 177.235 153.198 177.077 153.421C176.918 153.645 176.678 153.798 176.409 153.848C176.273 153.864 176.134 153.854 176.002 153.816C175.87 153.779 175.747 153.716 175.639 153.631C175.532 153.545 175.442 153.44 175.376 153.319C175.31 153.199 175.268 153.067 175.253 152.931C175.216 152.662 175.283 152.388 175.441 152.167C175.599 151.946 175.836 151.794 176.103 151.742C176.239 151.723 176.377 151.732 176.51 151.768C176.642 151.804 176.766 151.866 176.874 151.951C176.982 152.035 177.072 152.141 177.138 152.261C177.204 152.382 177.245 152.514 177.258 152.651Z" fill="#263238"/>
<path d="M160.113 2.78483C160.153 3.05531 160.087 3.33076 159.929 3.55378C159.77 3.7768 159.532 3.93017 159.264 3.98192C159.127 3.99845 158.989 3.98777 158.857 3.9505C158.725 3.91324 158.601 3.85012 158.494 3.76482C158.387 3.67951 158.297 3.57372 158.231 3.45359C158.165 3.33345 158.123 3.20137 158.108 3.06499C158.068 2.79452 158.134 2.51906 158.292 2.29604C158.451 2.07302 158.689 1.91965 158.958 1.8679C159.094 1.85137 159.232 1.86205 159.364 1.89931C159.496 1.93658 159.62 1.9997 159.727 2.085C159.835 2.1703 159.924 2.27609 159.99 2.39623C160.057 2.51636 160.098 2.64845 160.113 2.78483Z" fill="#263238"/>
<path d="M45.0369 111.618C45.0769 111.888 45.0109 112.164 44.8526 112.387C44.6943 112.61 44.456 112.763 44.1873 112.815C44.0511 112.831 43.9129 112.821 43.7808 112.784C43.6487 112.746 43.5253 112.683 43.4178 112.598C43.3103 112.513 43.2209 112.407 43.1546 112.287C43.0884 112.166 43.0467 112.034 43.0319 111.898C42.9919 111.628 43.058 111.352 43.2163 111.129C43.3745 110.906 43.6128 110.753 43.8815 110.701C44.0178 110.684 44.1559 110.695 44.288 110.732C44.4201 110.77 44.5435 110.833 44.651 110.918C44.7585 111.003 44.848 111.109 44.9142 111.229C44.9805 111.349 45.0222 111.481 45.0369 111.618Z" fill="#FFC727"/>
<path d="M220.731 195.729C220.773 195.999 220.708 196.276 220.55 196.499C220.391 196.723 220.151 196.876 219.882 196.926C219.745 196.942 219.607 196.931 219.475 196.894C219.343 196.857 219.22 196.794 219.112 196.709C219.005 196.623 218.915 196.517 218.849 196.397C218.783 196.277 218.741 196.145 218.726 196.009C218.687 195.732 218.759 195.451 218.926 195.227C219.093 195.003 219.342 194.854 219.618 194.812C219.887 194.788 220.154 194.871 220.363 195.042C220.571 195.214 220.703 195.46 220.731 195.729Z" fill="#455A64"/>
<path d="M80.9824 177.365C81.0224 177.635 80.9563 177.911 80.798 178.134C80.6398 178.357 80.4015 178.51 80.1328 178.562C79.9964 178.58 79.8577 178.57 79.7252 178.533C79.5926 178.496 79.4688 178.433 79.361 178.348C79.2533 178.262 79.1638 178.156 79.0979 178.035C79.032 177.915 78.991 177.782 78.9774 177.645C78.9352 177.374 79.0004 177.098 79.159 176.874C79.3177 176.651 79.5573 176.498 79.827 176.448C79.9632 176.431 80.1014 176.442 80.2335 176.479C80.3656 176.517 80.489 176.58 80.5965 176.665C80.704 176.75 80.7934 176.856 80.8597 176.976C80.9259 177.096 80.9676 177.229 80.9824 177.365Z" fill="#FFC727"/>
<path d="M95.6298 136.476C95.7103 137.028 95.5699 137.588 95.239 138.037C94.9081 138.485 94.4135 138.785 93.8627 138.871C93.5895 138.905 93.3122 138.884 93.047 138.81C92.7818 138.736 92.534 138.61 92.3181 138.44C92.1022 138.269 91.9225 138.057 91.7895 137.816C91.6564 137.575 91.5727 137.31 91.5433 137.037C91.4653 136.485 91.6081 135.926 91.9405 135.479C92.2729 135.033 92.7683 134.735 93.3189 134.651C93.591 134.617 93.8672 134.637 94.1313 134.71C94.3955 134.784 94.6423 134.909 94.8575 135.079C95.0726 135.249 95.2517 135.46 95.3843 135.7C95.5169 135.94 95.6004 136.204 95.6298 136.476Z" fill="#FFC727"/>
<path d="M113.114 26.2768C113.192 26.8174 113.059 27.3673 112.743 27.8128C112.427 28.2583 111.951 28.5655 111.415 28.671C111.143 28.7029 110.867 28.6807 110.603 28.6057C110.339 28.5307 110.093 28.4044 109.878 28.234C109.664 28.0636 109.485 27.8524 109.352 27.6127C109.219 27.373 109.135 27.1094 109.104 26.8371C109.024 26.2859 109.164 25.7251 109.495 25.2768C109.826 24.8285 110.321 24.5288 110.871 24.4429C111.41 24.3974 111.946 24.5634 112.365 24.9057C112.783 25.248 113.052 25.7398 113.114 26.2768Z" fill="#455A64"/>
<path d="M85.0775 157.328C85.1556 157.88 85.0131 158.441 84.6808 158.889C84.3486 159.337 83.8532 159.636 83.3018 159.722C83.0298 159.756 82.7536 159.736 82.4894 159.663C82.2253 159.589 81.9784 159.464 81.7633 159.294C81.5482 159.124 81.3691 158.913 81.2365 158.673C81.1039 158.433 81.0204 158.169 80.991 157.897C80.9104 157.346 81.0509 156.785 81.3818 156.336C81.7127 155.888 82.2073 155.588 82.7581 155.503C83.0306 155.468 83.3073 155.488 83.572 155.562C83.8366 155.635 84.0841 155.761 84.2999 155.93C84.5157 156.1 84.6956 156.311 84.829 156.551C84.9625 156.791 85.047 157.055 85.0775 157.328Z" fill="#455A64"/>
<path d="M189.772 10.3753C189.853 10.9256 189.712 11.4853 189.381 11.9323C189.05 12.3792 188.555 12.6772 188.005 12.761C187.733 12.7953 187.457 12.7751 187.193 12.7015C186.928 12.628 186.682 12.5026 186.466 12.3327C186.251 12.1627 186.072 11.9517 185.94 11.7118C185.807 11.472 185.724 11.2081 185.694 10.9357C185.614 10.3844 185.754 9.8237 186.085 9.37538C186.416 8.92705 186.91 8.62738 187.461 8.54149C187.734 8.50724 188.011 8.52776 188.275 8.60183C188.54 8.6759 188.787 8.80204 189.003 8.97285C189.218 9.14366 189.397 9.35569 189.529 9.59653C189.661 9.83736 189.744 10.1021 189.772 10.3753Z" fill="#263238"/>
<path d="M188.09 79.568L191.013 78.5577C191.013 78.5577 189.016 77.4965 189.025 74.1939C189.033 70.8913 191.752 69.5923 190.571 66.6123L187.326 67.5292C187.696 68.3236 187.9 69.1853 187.925 70.0613C187.949 70.9373 187.795 71.8092 187.47 72.6232C186.612 74.474 185.839 76.7239 188.09 79.568Z" fill="#263238"/>
<path d="M116.598 92.4564L113.718 91.3018C113.718 91.3018 114.618 93.4243 112.605 95.9797C110.591 98.5352 107.685 97.7711 106.776 100.861L109.852 102.279C110.042 101.442 110.404 100.653 110.914 99.9614C111.424 99.2703 112.072 98.6922 112.817 98.2636C114.644 97.3806 116.623 96.1411 116.598 92.4564Z" fill="#455A64"/>
<path d="M50.0071 148.94L47.1355 147.819C47.1355 147.819 47.9851 149.942 46.014 152.497C44.043 155.053 41.0949 154.289 40.1943 157.379L43.2613 158.797C43.4515 157.959 43.8131 157.17 44.3234 156.479C44.8337 155.788 45.4816 155.21 46.2264 154.781C48.053 153.856 50.0326 152.616 50.0071 148.94Z" fill="#263238"/>
<path d="M270.848 143.091L267.976 141.979C267.976 141.979 268.868 144.093 266.855 146.656C264.841 149.22 261.936 148.448 261.035 151.53L264.102 152.956C264.293 152.118 264.655 151.328 265.165 150.635C265.675 149.943 266.323 149.363 267.067 148.932C268.894 147.981 270.873 146.741 270.848 143.091Z" fill="#FFC727"/>
<path d="M61.9431 63.9131L62.3594 60.7633C62.3594 60.7633 60.5582 62.1387 57.7036 60.6784C54.849 59.2181 54.9255 56.1023 51.816 55.873L51.1533 59.269C52.0028 59.2819 52.8397 59.4764 53.6076 59.8396C54.3755 60.2028 55.0567 60.7262 55.6051 61.3746C56.871 63.0301 58.4768 64.7536 61.9431 63.9131Z" fill="#263238"/>
<path d="M44.0427 190.94L44.459 187.791C44.459 187.791 42.6579 189.166 39.8033 187.706C36.9486 186.245 37.0251 183.138 33.9156 182.9L33.2529 186.296C34.1024 186.309 34.9393 186.504 35.7072 186.867C36.4751 187.23 37.1563 187.754 37.7048 188.402C38.9706 190.057 40.5764 191.781 44.0427 190.94Z" fill="#FFC727"/>
<path d="M147.887 182.476L148.304 179.326C148.304 179.326 146.503 180.701 143.648 179.241C140.793 177.781 140.87 174.673 137.76 174.436L137.098 177.832C137.946 177.846 138.781 178.041 139.547 178.404C140.314 178.767 140.993 179.29 141.541 179.937C142.849 181.593 144.421 183.316 147.887 182.476Z" fill="#455A64"/>
<path d="M271.816 71.9014L272.233 68.7516C272.233 68.7516 270.44 70.1269 267.577 68.6582C264.714 67.1894 264.799 64.0906 261.689 63.8613L261.035 67.2573C261.883 67.2713 262.718 67.4665 263.485 67.8296C264.251 68.1928 264.931 68.7156 265.479 69.3628C266.744 71.0184 268.35 72.7334 271.816 71.9014Z" fill="#FFC727"/>
<path d="M87.3887 194.608L87.9749 197.732C87.9749 197.732 89.2493 195.831 92.4097 196.272C95.5702 196.713 96.4538 199.668 99.4698 198.861L99.0365 195.406C98.2378 195.677 97.3897 195.772 96.5508 195.684C95.7118 195.596 94.9019 195.327 94.1769 194.897C92.4692 193.759 90.4132 192.664 87.3887 194.608Z" fill="#455A64"/>
<path d="M138.84 129.506L135.594 127.689C135.594 127.689 132.978 131.782 136.13 133.845C136.13 133.811 135.476 131.153 138.84 129.506Z" fill="#FFC727"/>
<path d="M136.215 138.794L139.613 137.478C139.613 137.478 139.808 134.456 136.121 133.811C136.13 133.811 138.44 136.544 136.215 138.794Z" fill="#FFC727"/>
<path d="M48.2052 1.81686L44.9683 0C44.9683 0 42.3431 4.09218 45.5035 6.15525C45.5035 6.15525 44.8494 3.49788 48.2052 1.81686Z" fill="#455A64"/>
<path d="M45.5886 11.1389L48.9869 9.82295C48.9869 9.82295 49.1823 6.80051 45.4951 6.15527C45.5036 6.15527 47.8145 8.88906 45.5886 11.1389Z" fill="#455A64"/>
<path d="M160.589 78.0821C160.511 77.53 160.654 76.9693 160.986 76.5213C161.318 76.0733 161.814 75.7739 162.365 75.688C162.637 75.6549 162.914 75.6762 163.178 75.7508C163.442 75.8253 163.689 75.9515 163.904 76.1221C164.119 76.2928 164.298 76.5043 164.43 76.7446C164.563 76.9849 164.646 77.2491 164.676 77.5218C164.752 78.0736 164.608 78.6331 164.276 79.0806C163.944 79.5281 163.451 79.828 162.9 79.916C162.628 79.9479 162.352 79.9257 162.088 79.8507C161.824 79.7757 161.578 79.6494 161.363 79.479C161.149 79.3086 160.97 79.0975 160.837 78.8577C160.704 78.618 160.62 78.3544 160.589 78.0821Z" fill="#263238"/>
<path d="M227.001 119.191C226.923 118.64 227.066 118.08 227.399 117.633C227.731 117.187 228.226 116.889 228.777 116.805C229.049 116.771 229.325 116.791 229.589 116.865C229.853 116.938 230.1 117.064 230.315 117.234C230.531 117.404 230.71 117.615 230.842 117.854C230.975 118.094 231.058 118.358 231.088 118.631C231.168 119.182 231.028 119.743 230.697 120.191C230.366 120.639 229.871 120.939 229.321 121.025C229.048 121.058 228.771 121.037 228.506 120.962C228.241 120.888 227.994 120.762 227.778 120.591C227.563 120.421 227.383 120.209 227.25 119.969C227.116 119.728 227.032 119.464 227.001 119.191Z" fill="#FFC727"/>
<path d="M183.63 193.827C183.552 193.275 183.695 192.714 184.027 192.266C184.359 191.818 184.855 191.519 185.406 191.433C185.678 191.4 185.955 191.421 186.219 191.496C186.483 191.57 186.73 191.697 186.945 191.867C187.16 192.038 187.339 192.249 187.471 192.49C187.604 192.73 187.687 192.994 187.717 193.267C187.795 193.818 187.654 194.377 187.323 194.825C186.993 195.273 186.499 195.573 185.95 195.661C185.677 195.693 185.4 195.671 185.136 195.596C184.872 195.521 184.625 195.395 184.41 195.225C184.194 195.054 184.014 194.843 183.881 194.603C183.747 194.364 183.662 194.1 183.63 193.827Z" fill="#FFC727"/>
<path d="M11.7752 158.941C11.7331 158.67 11.7982 158.394 11.9569 158.17C12.1155 157.947 12.3551 157.794 12.6248 157.744C12.7611 157.727 12.8993 157.738 13.0314 157.775C13.1635 157.813 13.2868 157.876 13.3943 157.961C13.5018 158.046 13.5913 158.152 13.6575 158.272C13.7238 158.392 13.7655 158.524 13.7802 158.661C13.817 158.937 13.7443 159.217 13.5776 159.441C13.411 159.664 13.1636 159.814 12.8882 159.858C12.6194 159.882 12.352 159.799 12.1438 159.627C11.9355 159.456 11.8032 159.209 11.7752 158.941Z" fill="#FFC727"/>
<path d="M178.447 136.018C178.407 135.748 178.473 135.472 178.631 135.249C178.79 135.026 179.028 134.873 179.297 134.821C179.433 134.804 179.571 134.815 179.703 134.852C179.835 134.89 179.959 134.953 180.066 135.038C180.174 135.123 180.263 135.229 180.329 135.349C180.396 135.469 180.437 135.602 180.452 135.738C180.492 136.008 180.426 136.284 180.268 136.507C180.109 136.73 179.871 136.883 179.602 136.935C179.328 136.966 179.052 136.887 178.835 136.715C178.618 136.543 178.479 136.293 178.447 136.018Z" fill="#FFC727"/>
<path d="M150.59 50.7105C150.55 50.44 150.616 50.1646 150.774 49.9415C150.932 49.7185 151.17 49.5652 151.439 49.5134C151.575 49.4969 151.714 49.5076 151.846 49.5448C151.978 49.5821 152.101 49.6452 152.209 49.7305C152.316 49.8158 152.406 49.9216 152.472 50.0417C152.538 50.1619 152.58 50.294 152.595 50.4303C152.635 50.7008 152.568 50.9763 152.41 51.1993C152.252 51.4223 152.014 51.5757 151.745 51.6274C151.609 51.644 151.471 51.6333 151.338 51.596C151.206 51.5587 151.083 51.4956 150.975 51.4103C150.868 51.325 150.778 51.2192 150.712 51.0991C150.646 50.979 150.604 50.8469 150.59 50.7105Z" fill="#37474F"/>
<path d="M228.318 60.2872C228.24 59.7351 228.382 59.1744 228.714 58.7264C229.047 58.2783 229.542 57.979 230.093 57.893C230.366 57.86 230.642 57.8813 230.907 57.9559C231.171 58.0304 231.417 58.1566 231.632 58.3272C231.847 58.4978 232.026 58.7094 232.159 58.9497C232.291 59.19 232.375 59.4541 232.404 59.7269C232.482 60.278 232.34 60.8377 232.007 61.2844C231.675 61.731 231.179 62.0286 230.629 62.1126C230.357 62.1457 230.081 62.1246 229.817 62.0506C229.554 61.9766 229.307 61.8511 229.092 61.6814C228.877 61.5117 228.698 61.3011 228.565 61.0618C228.432 60.8225 228.348 60.5592 228.318 60.2872Z" fill="#FFC727"/>
<path d="M16.5503 136.51C16.4722 135.96 16.6138 135.402 16.9444 134.955C17.2751 134.509 17.7683 134.211 18.3174 134.125C18.59 134.09 18.8666 134.11 19.1313 134.184C19.396 134.257 19.6434 134.383 19.8592 134.552C20.075 134.722 20.2549 134.933 20.3884 135.173C20.5219 135.413 20.6063 135.677 20.6368 135.95C20.7149 136.502 20.5724 137.063 20.2402 137.511C19.9079 137.959 19.4125 138.258 18.8612 138.344C18.5885 138.378 18.3117 138.358 18.047 138.284C17.7823 138.21 17.5351 138.084 17.3199 137.913C17.1046 137.742 16.9257 137.53 16.7936 137.289C16.6614 137.048 16.5787 136.784 16.5503 136.51Z" fill="#455A64"/>
<path d="M102.664 61.2982L97.7537 62.7415C97.7537 62.7415 95.4174 56.391 100.302 54.5996C100.277 54.5996 98.6203 57.9786 102.664 61.2982Z" fill="#455A64"/>
<path d="M101.857 47.9004L106.105 50.7361C106.105 50.7361 105.485 54.8792 100.311 54.599C100.277 54.599 104.21 51.6275 101.857 47.9004Z" fill="#455A64"/>
<path d="M259.642 183.189L254.74 184.632C254.74 184.632 252.404 178.282 257.289 176.49C257.263 176.49 255.607 179.869 259.642 183.189Z" fill="#455A64"/>
<path d="M258.843 169.791L263.091 172.627C263.091 172.627 262.471 176.77 257.297 176.49C257.263 176.49 261.188 173.518 258.843 169.791Z" fill="#455A64"/>
<path d="M226.61 140.484L225.947 135.245C225.947 135.245 232.353 133.777 233.356 139.015C233.356 139.015 230.357 136.833 226.61 140.484Z" fill="#263238"/>
<path d="M239.541 141.605L236.211 145.51C236.211 145.51 232.337 144.271 233.356 139.016C233.356 139.016 235.633 143.473 239.541 141.605Z" fill="#263238"/>
<path d="M107.702 176.066L102.792 177.501C102.792 177.501 100.455 171.159 105.341 169.367C105.324 169.41 103.667 172.746 107.702 176.066Z" fill="#263238"/>
<path d="M106.904 162.66L111.152 165.504C111.152 165.504 110.532 169.647 105.358 169.367C105.324 169.41 109.249 166.396 106.904 162.66Z" fill="#263238"/>
<path d="M195.762 46.576L198.999 48.4013C198.999 48.4013 201.624 44.3092 198.472 42.2461C198.472 42.2461 199.118 44.9035 195.762 46.576Z" fill="#455A64"/>
<path d="M198.387 37.2627L194.988 38.5702C194.988 38.5702 194.784 41.5926 198.48 42.2463C198.472 42.2463 196.152 39.5125 198.387 37.2627Z" fill="#455A64"/>
<path d="M189.942 151.775L190.478 155.545C190.478 155.545 195.218 155.256 194.912 151.41C194.912 151.41 193.256 153.541 189.942 151.775Z" fill="#FFC727"/>
<path d="M198.718 148.346L195.659 146.316C195.659 146.316 193.204 147.963 194.912 151.41C194.912 151.41 195.642 147.845 198.718 148.346Z" fill="#FFC727"/>
</svg>
