<svg width="288" height="187" viewBox="0 0 288 187" fill="none" xmlns="http://www.w3.org/2000/svg">
<path d="M34.9745 238.174L169.586 238.757C202.308 213.06 205.682 174.995 182.347 151.927C168.215 137.971 150.28 140.783 133.195 138.568H133.146C127.198 137.795 121.362 136.41 115.822 133.485C98.2447 124.205 88.3172 102.318 73.5174 83.904C71.6753 81.5979 69.7442 79.3598 67.724 77.1896C55.5607 64.1967 31.3396 63.7748 18.6701 82.0408C-13.5169 128.437 1.22668 197.522 34.9745 238.174Z" fill="#9A7D5A"/>
<path d="M31.9865 131.981C35.5019 187.208 99.2923 207.823 139.129 191.279C173.77 176.894 162.429 144.06 133.195 138.548H133.146C127.198 137.775 121.362 136.39 115.822 133.465C98.2447 124.184 88.3172 102.297 73.5174 83.8836C51.4899 72.4445 29.3991 91.5401 31.9865 131.981Z" fill="#785F42"/>
<path d="M256.789 245.641C254.483 245.698 194.784 227.242 192.956 225.104C192.759 224.865 193.758 222.292 195.297 215.261C195.368 214.924 194.475 213.194 193.012 210.691C187.514 201.284 174.029 180.782 174.029 180.782L212.495 165.842L230.894 203.963L235.675 213.876C235.675 213.876 255.594 233.9 257.358 236.466C259.123 239.032 259.116 245.592 256.789 245.641Z" fill="#EB9481"/>
<path d="M225.228 187.208L218.858 190.723L198.286 202.148L187.037 208.391C187.037 208.391 167.653 169.722 158.323 159.281C157.801 158.681 157.232 158.124 156.621 157.615C155.658 157.18 154.625 156.921 153.57 156.849C141.062 155.33 98.9548 159.422 69.8613 157.552L83.4519 139.391L89.4562 131.348C122.234 127.607 162.457 114.207 180.611 123.312C200.29 133.176 225.228 187.208 225.228 187.208Z" fill="#203577"/>
<path d="M218.824 182.779C212.391 186.133 214.198 185.085 207.8 188.509C204.671 190.183 188.922 198.556 186.264 200.602C186.252 200.613 186.243 200.628 186.24 200.644C186.237 200.661 186.241 200.677 186.249 200.692C186.257 200.706 186.271 200.717 186.286 200.722C186.302 200.728 186.319 200.728 186.335 200.722C189.492 199.59 205.051 190.879 208.13 189.149C214.458 185.634 212.609 186.562 218.901 182.955C218.919 182.942 218.932 182.923 218.938 182.901C218.944 182.879 218.942 182.857 218.933 182.836C218.924 182.816 218.908 182.799 218.888 182.789C218.869 182.778 218.846 182.775 218.824 182.779Z" fill="#263238"/>
<path d="M198.285 202.168L187.036 208.411C187.036 208.411 167.652 169.742 158.322 159.301L198.285 202.168Z" fill="#263238"/>
<path d="M190.966 203.113C186.178 195.112 164.383 155.592 160.031 154.038C156.08 152.632 77.0674 154.263 75.8863 154.277C75.8019 154.277 75.7949 154.404 75.8863 154.404C85.2443 154.284 157.444 154.024 159.553 154.839C163.835 156.534 189.905 202.375 190.545 203.352C190.699 203.584 191.135 203.387 190.966 203.113Z" fill="#263238"/>
<path d="M47.7053 141.008C47.7053 141.008 45.2093 164.842 57.3023 176.689C71.7717 190.877 167.257 187.291 182.057 182.51C196.857 177.729 197.321 153.846 181.143 148.313C165.752 143.054 97.5255 140.023 95.9084 139.383C94.2914 138.744 89.5807 131.186 89.5807 131.186L47.7053 141.008Z" fill="#203577"/>
<path d="M67.9196 140.341C67.9196 140.229 67.7227 140.264 67.7227 140.341C67.719 143.428 66.6288 146.415 64.6432 148.778C62.3793 151.394 59.0186 152.863 56.0094 154.403C55.7141 154.551 55.9391 155.001 56.2414 154.916C58.1004 154.342 59.8919 153.569 61.5848 152.61C63.1381 151.778 64.5063 150.64 65.6064 149.263C66.5871 148.017 67.2989 146.58 67.697 145.044C68.0951 143.509 68.1709 141.908 67.9196 140.341Z" fill="#263238"/>
<path d="M95.2563 137.894C94.5532 137.036 93.8501 136.213 93.147 135.377C91.4807 133.387 89.8074 131.397 88.0567 129.485C87.895 129.302 87.5716 129.555 87.7193 129.759C88.9004 131.299 90.1449 132.782 91.3682 134.287L93.2595 136.586C93.9236 137.272 94.5172 138.024 95.0313 138.829C95.4883 139.68 94.8836 140.411 94.0048 140.502C93.2282 140.519 92.4744 140.24 91.8956 139.722C90.5738 138.547 89.364 137.253 88.2817 135.855C87.5786 135.067 86.8756 134.282 86.1725 133.499C85.4132 132.67 84.6046 131.882 83.8523 131.053C83.8411 131.04 83.8252 131.032 83.8081 131.03C83.7909 131.029 83.774 131.035 83.7609 131.046C83.7479 131.057 83.7398 131.073 83.7385 131.09C83.7372 131.107 83.7427 131.124 83.7539 131.137C84.4148 132.037 85.0194 132.986 85.6874 133.893C86.3553 134.8 87.0162 135.7 87.6982 136.593C88.3802 137.486 89.0129 138.259 89.702 139.068C90.275 139.782 90.9614 140.397 91.7339 140.889C92.9994 141.634 95.2 141.796 95.875 140.186C95.9886 139.783 95.9911 139.358 95.8821 138.954C95.7732 138.551 95.5569 138.184 95.2563 137.894Z" fill="#263238"/>
<path d="M180.034 182.603C174.937 182.694 169.846 182.989 164.749 183.102C159.652 183.214 154.646 183.235 149.591 183.186C139.438 183.097 129.293 182.703 119.154 182.005C108.917 181.302 97.8791 180.275 87.7126 178.869C82.8473 178.166 77.9187 177.632 73.1096 176.598C68.7856 175.781 64.7865 173.741 61.5861 170.72C55.0053 164.336 52.4461 154.943 51.3915 145.972C51.2508 144.77 51.1313 143.56 51.0329 142.358C51.0329 142.274 50.9063 142.274 50.9134 142.358C51.504 151.562 52.9382 161.152 58.7246 168.548C61.1669 171.772 64.4168 174.294 68.1459 175.86C72.7018 177.688 77.757 178.117 82.559 178.764C92.7677 180.17 103.855 181.217 114.12 182.019C124.385 182.82 134.812 183.32 145.175 183.474C155.539 183.629 165.902 183.474 176.252 182.968C177.517 182.905 178.776 182.835 180.041 182.722C180.111 182.708 180.111 182.595 180.034 182.603Z" fill="#263238"/>
<path d="M193.638 160.33C192.666 156.337 190.229 152.854 186.811 150.572C183.148 148.069 178.761 146.93 174.416 146.297C169.494 145.594 164.53 145.221 159.588 144.736C149.454 143.752 139.311 142.842 129.158 142.008C119.013 141.178 97.1682 139.477 95.9378 139.428C95.8323 139.428 95.8112 139.611 95.9378 139.618C105.732 140.707 114.64 141.642 124.448 142.535C134.256 143.428 144.169 144.37 154.019 145.348C158.927 145.816 163.834 146.311 168.742 146.831C173.291 147.302 177.966 147.766 182.234 149.524C185.89 151.029 189.18 153.454 191.05 157.012C192.785 160.519 193.3 164.505 192.513 168.338C191.832 171.903 190.194 175.216 187.774 177.921C185.45 180.587 182.35 182.458 178.908 183.272C178.008 183.469 176.926 183.609 176.096 183.771C176.033 183.771 175.969 183.919 176.033 183.919C183.366 184.101 190.151 178.744 192.794 172.051C194.265 168.322 194.56 164.232 193.638 160.33Z" fill="#263238"/>
<path d="M71.4154 95.2374C87.8464 105.348 121.397 115.465 125.553 108.413C130.678 99.7371 120.976 79.0524 120.062 76.2612C119.077 73.2731 95.1162 83.5311 97.2606 86.1043C98.5262 87.6371 99.5386 89.4229 99.0113 89.4229C97.3661 89.4229 93.0703 87.8199 76.2667 85.5067C66.9579 84.2412 60.5387 88.544 71.4154 95.2374Z" fill="#EB9481"/>
<path d="M93.8353 87.3836L90.3551 95.1596L85.9749 104.939C85.9749 104.939 74.7889 100.264 68.7353 95.1596C64.2919 91.4052 62.6326 87.4258 64.8403 85.5345C65.6418 84.8314 66.9495 84.4377 68.7775 84.4025C79.3167 84.2408 93.8353 87.3836 93.8353 87.3836Z" fill="#FF511A"/>
<path d="M89.9703 87.223C88.5149 90.183 83.3121 101.088 83.1855 102.691C83.1855 102.726 83.291 102.775 83.3121 102.747C84.3948 101.58 88.9367 90.3939 90.1531 87.2793C90.1601 87.2441 89.9984 87.1668 89.9703 87.223Z" fill="#263238"/>
<path d="M90.3551 95.1584L85.9749 104.938C85.9749 104.938 74.7889 100.263 68.7353 95.1584C64.2919 91.4039 62.6326 87.4245 64.8403 85.5332L90.3551 95.1584Z" fill="#263238"/>
<path d="M114.992 63.2678C118.191 67.3809 121.439 78.3489 121.207 81.2948C120.975 84.2407 102.505 90.3856 99.9882 88.6912C97.4711 86.9968 87.7757 72.3235 87.853 67.0082C87.9303 61.6929 111.68 59.0072 114.992 63.2678Z" fill="#EB9481"/>
<path d="M87.8178 54.9987C86.2077 53.1988 80.0417 48.671 78.4879 50.0771C76.9341 51.4833 80.4354 55.6315 81.9119 57.2626C84.9492 60.6233 87.1991 66.473 88.2396 69.3204C89.2802 72.1679 94.7783 66.7964 94.7783 66.7964C94.7783 66.7964 91.9941 59.6672 87.8178 54.9987Z" fill="#EB9481"/>
<path d="M91.6432 72.5914C91.6432 72.5914 93.3447 77.6677 96.3961 77.6607C99.3349 77.6607 98.8076 73.3086 98.7725 72.9922C98.8639 73.2594 100.544 77.9138 103.61 77.5622C106.795 77.2248 105.515 72.9571 105.431 72.6829C105.599 72.9078 107.849 75.8537 110.12 75.0804C114.022 73.7445 108.475 66.0528 109.15 62.7835C109.15 62.7835 114.824 63.2897 114.993 63.2686C114.993 63.2686 109.867 55.8441 105.403 55.1832C104.755 55.0755 104.09 55.1926 103.519 55.5149C102.947 55.8372 102.503 56.3453 102.26 56.9549C102.26 56.9549 100.854 54.3817 98.4491 54.5574C97.2116 54.6559 96.2554 56.73 96.2554 56.73C96.2554 56.73 95.0602 54.7121 92.9158 55.0074C91.2003 55.2324 90.2863 57.3346 90.1597 58.1502C89.2176 64.4427 91.6432 72.5914 91.6432 72.5914Z" fill="#EB9481"/>
<path d="M90.3561 57.5882C90.3561 57.539 90.2858 57.525 90.2787 57.5882C89.1789 62.6807 89.6546 67.9873 91.6427 72.8029C91.706 72.9505 91.9802 72.9084 91.938 72.7326C90.6808 67.7876 90.1479 62.6863 90.3561 57.5882Z" fill="#263238"/>
<path d="M96.2198 56.6523C96.2198 56.596 96.1284 56.589 96.1214 56.6523C95.0738 61.7074 95.6573 68.1266 98.6384 73.1606C98.7368 73.3294 99.004 73.3856 98.9056 73.1606C97.1901 69.6804 95.9597 61.4332 96.2198 56.6523Z" fill="#263238"/>
<path d="M105.761 72.9929C103.089 68.0713 102.245 62.756 102.203 57.1947C102.203 57.1244 102.097 57.1314 102.083 57.1947C101.38 59.9296 101.781 63.4661 102.337 66.1941C102.797 68.7379 103.917 71.1162 105.585 73.0913C105.627 73.1335 105.817 73.0702 105.761 72.9929Z" fill="#263238"/>
<path d="M91.6416 72.5908C92.057 73.5347 92.5583 74.4385 93.1392 75.2906C93.6706 76.138 94.4148 76.8313 95.2976 77.3014C95.7157 77.4897 96.1879 77.5197 96.6264 77.3858C97.0684 77.2406 97.4656 76.9839 97.7795 76.6405C98.0642 76.2768 98.269 75.8571 98.3805 75.4088C98.4919 74.9606 98.5076 74.4938 98.4263 74.0391L98.124 71.7963L99.1927 73.7931C99.658 74.6852 100.263 75.497 100.986 76.1976C101.305 76.538 101.692 76.8077 102.122 76.9894C102.552 77.171 103.015 77.2606 103.481 77.2522C103.915 77.2379 104.33 77.075 104.658 76.7908C104.986 76.5066 105.206 76.1185 105.281 75.6914C105.438 74.7322 105.344 73.7487 105.007 72.8369L104.178 70.2917L105.795 72.401C106.24 72.9944 106.76 73.5284 107.341 73.9899C107.879 74.448 108.539 74.7388 109.24 74.8266C109.556 74.8495 109.872 74.7848 110.153 74.6397C110.435 74.4945 110.671 74.2746 110.836 74.004C111.108 73.3362 111.186 72.605 111.061 71.8947C110.813 70.3633 110.444 68.854 109.957 67.381C109.739 66.6287 109.521 65.8693 109.338 65.103C109.111 64.3446 109.046 63.5468 109.148 62.7617C109.131 63.5423 109.267 64.3186 109.549 65.0467C109.788 65.792 110.062 66.5232 110.337 67.2544C110.933 68.7268 111.39 70.2522 111.7 71.8104C111.884 72.6522 111.818 73.5295 111.511 74.3344C111.293 74.7532 110.959 75.0998 110.548 75.332C110.138 75.5642 109.668 75.672 109.198 75.6422C108.327 75.5612 107.5 75.2235 106.821 74.6719C106.168 74.1651 105.58 73.5795 105.07 72.9283L105.851 72.5064C106.26 73.5791 106.383 74.7395 106.209 75.8742C106.091 76.5017 105.758 77.0685 105.267 77.4772C104.777 77.8628 104.181 78.0908 103.559 78.1311C102.969 78.1453 102.382 78.0342 101.838 77.8052C101.294 77.5761 100.804 77.2343 100.402 76.8022C99.6144 76.023 98.9589 75.1206 98.4615 74.1305L99.2278 73.8845C99.3067 74.4539 99.2607 75.0337 99.0932 75.5837C98.9256 76.1337 98.6405 76.6406 98.2576 77.0694C97.8442 77.4703 97.3364 77.7605 96.7811 77.9131C96.2151 78.0593 95.6153 77.9943 95.0937 77.7303C94.1651 77.1762 93.4082 76.3755 92.9071 75.4172C92.3842 74.5236 91.9599 73.5759 91.6416 72.5908Z" fill="#263238"/>
<path d="M97.8935 86.4859C97.8935 86.4859 78.5588 75.8061 86.4473 70.2729C88.7886 68.6417 100.368 64.7115 101.212 67.0246C102.288 70.0057 97.7669 72.5438 94.6734 73.6898C94.6734 73.6898 101.76 76.4037 101.339 81.9018C101.245 82.9099 100.873 83.8721 100.265 84.6815C99.6566 85.4908 98.8357 86.1155 97.8935 86.4859Z" fill="#EB9481"/>
<path d="M85.8213 70.7702C86.6638 70.0203 87.6112 69.3974 88.6336 68.9211C89.6439 68.4181 90.6868 67.9836 91.7553 67.6204C93.888 66.8612 96.0829 66.2895 98.315 65.9119C98.91 65.8128 99.516 65.7986 100.115 65.8697C100.458 65.909 100.788 66.0269 101.078 66.2142C101.239 66.314 101.381 66.44 101.5 66.5868C101.616 66.7356 101.709 66.9017 101.774 67.079C101.995 67.7227 101.975 68.4246 101.718 69.0546C101.482 69.6271 101.146 70.1532 100.727 70.6085C99.9132 71.4539 98.9623 72.1552 97.9143 72.6825C96.9071 73.2171 95.8613 73.6753 94.7856 74.0535V73.3505C95.5831 73.6901 96.348 74.102 97.0706 74.5809C97.7861 75.0574 98.4526 75.6038 99.0603 76.212C99.6634 76.8368 100.17 77.5476 100.565 78.3212C100.954 79.0766 101.193 79.9004 101.268 80.7469C101.076 79.9347 100.751 79.1601 100.305 78.4548C99.8546 77.764 99.3103 77.1393 98.6877 76.5987C98.0762 76.0485 97.4094 75.5631 96.6979 75.1504C95.9969 74.7386 95.2604 74.3903 94.4973 74.1098L93.5481 73.7793L94.4903 73.3786C95.5114 72.9756 96.5048 72.5058 97.4643 71.9724C98.4075 71.4695 99.2643 70.8192 100.002 70.046C100.706 69.2937 101.17 68.2813 100.867 67.4727C100.565 66.6642 99.4611 66.7345 98.3924 66.854C97.3237 66.9735 96.2269 67.2126 95.1441 67.4446C94.0614 67.6766 92.9716 67.9368 91.91 68.2461C89.8218 68.8367 87.6634 69.4765 85.8213 70.7702Z" fill="#263238"/>
<path d="M99.0322 89.4531L100.544 91.2038L102.027 92.9685L105.001 96.4839C105.993 97.651 106.991 98.8111 108.011 99.9501C108.524 100.527 109.03 101.096 109.564 101.645C110.099 102.193 110.633 102.741 111.167 103.304C109.916 102.41 108.741 101.416 107.652 100.33C106.534 99.2611 105.508 98.108 104.495 96.9409C103.483 95.7738 102.541 94.5575 101.641 93.306C100.741 92.0545 99.8197 90.7819 99.0322 89.4531Z" fill="#263238"/>
<path d="M97.232 135.947C96.5712 138.274 61.2343 151.028 43.7979 147.477C43.7979 147.477 41.302 114.875 56.1933 89.5997C59.7579 83.5532 68.237 83.3915 72.8422 86.0843C74.4822 87.1341 76.0383 88.3094 77.4966 89.5997C81.9541 93.4385 89.927 103.204 91.066 106.052C92.9362 110.755 89.6599 116.9 89.6599 116.9L97.232 135.947Z" fill="#FF511A"/>
<path d="M51.8061 94.2412C40.9294 109.006 30.327 136.426 37.407 141.439C46.9408 148.182 76.3506 152.048 99.5593 151.549C102.772 151.479 99.264 127.195 95.833 127.096C91.502 126.963 58.5697 125.915 57.726 125.022C57.0229 124.256 59.2587 111.966 60.3626 99.1135C61.6562 84.0887 54.9137 90.0157 51.8061 94.2412Z" fill="#EB9481"/>
<path d="M95.159 127.068C95.159 127.068 104.918 126.365 111.33 126.175C114.902 126.077 121.039 126.456 123.697 127.581C127.669 129.269 143.208 138.873 140.965 142.69C138.926 146.15 126.629 136.201 126.629 136.201C126.629 136.201 139.924 145.137 136.711 148.856C133.498 152.576 121.096 139.484 121.096 139.484C121.096 139.484 134.553 148.976 130.629 152.273C127.669 154.769 115.766 143.555 115.766 143.555C115.766 143.555 127.283 151.788 124.344 154.488C121.096 157.469 109.46 147.802 109.46 147.802C100.84 153.426 94.4489 152.541 89.9703 151.395C88.8735 151.113 95.159 127.068 95.159 127.068Z" fill="#EB9481"/>
<path d="M122.206 132.818C123.809 133.816 125.433 134.807 126.945 135.939C128.456 137.071 129.919 138.259 131.311 139.525C133.168 141.143 134.832 142.972 136.267 144.974C133.455 141.613 128.126 137.479 126.621 136.34C125.117 135.201 123.668 134.006 122.164 132.874C122.128 132.846 122.171 132.797 122.206 132.818Z" fill="#263238"/>
<path d="M118.023 138.187C120.013 139.544 122.038 140.817 123.964 142.258C125.891 143.7 127.578 145.232 129.399 146.8C129.533 146.92 129.399 146.955 129.279 146.842C127.402 145.345 125.553 144.114 123.655 142.624C121.756 141.133 119.928 139.608 117.988 138.216C117.953 138.209 117.995 138.166 118.023 138.187Z" fill="#263238"/>
<path d="M113.6 142.146C116.698 144.155 119.581 146.475 122.206 149.072C122.339 149.198 122.206 149.227 122.051 149.107C119.239 146.752 117.038 144.889 113.53 142.252C113.48 142.21 113.53 142.104 113.6 142.146Z" fill="#263238"/>
<path d="M39.3975 113.069L60.7641 112.471C60.7641 112.471 62.1702 102.213 61.9523 95.0842C61.8046 90.4087 61.2492 86.0777 60.6586 85.8527C59.8852 85.5574 56.8057 87.2941 53.9864 90.4368C47.9653 97.1681 43.042 104.806 39.3975 113.069Z" fill="#FF511A"/>
<path d="M59.927 109.153C56.6366 108.97 47.6793 108.738 41.8438 109.35C41.8438 109.35 41.8438 109.483 41.8438 109.49C46.7653 109.715 56.6084 109.49 59.927 109.35C59.9832 109.35 59.9832 109.153 59.927 109.153Z" fill="#263238"/>
<path d="M62.4015 102.204C62.2116 102.71 62.0429 103.216 61.8882 103.729C61.8882 103.8 61.846 103.877 61.8179 103.947C61.9093 102.647 61.9726 101.346 61.9585 100.045C61.9585 100.045 61.9023 99.9961 61.8952 100.045C61.621 102.07 60.4399 112.272 60.4399 112.272C60.2571 112.272 58.9775 112.518 58.8931 112.511C58.8087 112.504 58.8228 112.637 58.8931 112.616C58.9634 112.595 60.5242 112.616 60.9461 112.574C61.1458 111.603 61.275 110.618 61.3328 109.628C61.4453 108.553 61.5367 107.519 61.621 106.408C61.6632 105.923 61.6984 105.438 61.7335 104.96C61.7687 104.482 61.9234 104.144 62.0359 103.744C62.1483 103.343 62.3311 102.738 62.4929 102.239C62.528 102.162 62.4226 102.14 62.4015 102.204Z" fill="#263238"/>
<path d="M55.25 89.1633C55.25 89.1633 67.3078 95.9691 72.363 93.0372C74.9855 91.5186 74.5636 84.6003 74.5636 84.6003C70.7575 83.4986 66.7211 83.4694 62.8995 84.5159C60.004 85.4072 57.3753 87.0042 55.25 89.1633Z" fill="#EB9481"/>
<path d="M58.4424 79.869C70.468 79.869 80.2168 69.7425 80.2168 57.2509C80.2168 44.7593 70.468 34.6328 58.4424 34.6328C46.4167 34.6328 36.668 44.7593 36.668 57.2509C36.668 69.7425 46.4167 79.869 58.4424 79.869Z" fill="#263238"/>
<path d="M48.016 73.5274C48.0174 74.1217 47.8423 74.7031 47.513 75.1979C47.1836 75.6927 46.7148 76.0786 46.166 76.3067C45.6171 76.5348 45.0129 76.5948 44.4299 76.4792C43.8469 76.3636 43.3113 76.0775 42.891 75.6572C42.4708 75.2369 42.1847 74.7014 42.0691 74.1183C41.9534 73.5353 42.0135 72.9311 42.2416 72.3823C42.4697 71.8334 42.8556 71.3646 43.3503 71.0353C43.8451 70.7059 44.4265 70.5308 45.0209 70.5322C45.8147 70.5341 46.5754 70.8502 47.1367 71.4115C47.698 71.9728 48.0142 72.7336 48.016 73.5274Z" fill="#263238"/>
<path d="M79.8315 69.0335C79.8314 69.6261 79.656 70.2054 79.3274 70.6985C78.9987 71.1915 78.5315 71.5763 77.9846 71.8044C77.4376 72.0324 76.8355 72.0935 76.2539 71.9799C75.6723 71.8663 75.1373 71.5832 74.7164 71.1661C74.2954 70.7491 74.0073 70.2168 73.8883 69.6363C73.7693 69.0558 73.8248 68.4531 74.0477 67.904C74.2706 67.355 74.651 66.8842 75.141 66.5509C75.631 66.2177 76.2086 66.0369 76.8012 66.0314C77.1978 66.0277 77.5912 66.1026 77.9587 66.2518C78.3262 66.401 78.6605 66.6215 78.9422 66.9007C79.224 67.1798 79.4476 67.512 79.6003 67.8781C79.7529 68.2442 79.8315 68.6369 79.8315 69.0335Z" fill="#263238"/>
<path d="M82.8324 55.0354C82.8324 55.6291 82.6564 56.2096 82.3265 56.7033C81.9966 57.197 81.5277 57.5818 80.9792 57.809C80.4306 58.0362 79.8269 58.0957 79.2446 57.9798C78.6622 57.864 78.1273 57.5781 77.7074 57.1582C77.2876 56.7383 77.0016 56.2034 76.8858 55.621C76.77 55.0387 76.8294 54.4351 77.0567 53.8865C77.2839 53.3379 77.6687 52.869 78.1624 52.5392C78.6561 52.2093 79.2365 52.0332 79.8303 52.0332C80.6265 52.0332 81.3901 52.3495 81.9531 52.9125C82.5161 53.4755 82.8324 54.2391 82.8324 55.0354Z" fill="#263238"/>
<path d="M41.1615 52.3086C41.1629 52.9027 40.988 53.4838 40.659 53.9784C40.33 54.473 39.8616 54.8589 39.3131 55.0872C38.7647 55.3155 38.1608 55.376 37.578 55.261C36.9952 55.1459 36.4596 54.8605 36.039 54.441C35.6185 54.0214 35.3318 53.4865 35.2154 52.9039C35.099 52.3214 35.1581 51.7174 35.3851 51.1684C35.6121 50.6194 35.9969 50.1501 36.4907 49.8199C36.9846 49.4897 37.5653 49.3135 38.1594 49.3135C38.9544 49.3135 39.7169 49.6288 40.2797 50.1903C40.8425 50.7518 41.1597 51.5136 41.1615 52.3086Z" fill="#263238"/>
<path d="M45.0209 44.2365C45.0209 44.8303 44.8448 45.4107 44.515 45.9044C44.1851 46.3981 43.7162 46.7829 43.1676 47.0102C42.6191 47.2374 42.0154 47.2968 41.4331 47.181C40.8507 47.0652 40.3158 46.7792 39.8959 46.3594C39.4761 45.9395 39.1901 45.4046 39.0743 44.8222C38.9584 44.2399 39.0179 43.6362 39.2451 43.0877C39.4724 42.5391 39.8571 42.0702 40.3508 41.7403C40.8445 41.4104 41.425 41.2344 42.0188 41.2344C42.815 41.2344 43.5786 41.5507 44.1416 42.1137C44.7046 42.6767 45.0209 43.4403 45.0209 44.2365Z" fill="#263238"/>
<path d="M48.6771 40.8428C48.6785 41.4369 48.5037 42.018 48.1746 42.5126C47.8456 43.0072 47.3772 43.3931 46.8288 43.6214C46.2803 43.8497 45.6765 43.9102 45.0936 43.7951C44.5108 43.6801 43.9752 43.3947 43.5547 42.9751C43.1341 42.5556 42.8475 42.0206 42.7311 41.4381C42.6146 40.8555 42.6737 40.2515 42.9007 39.7026C43.1277 39.1536 43.5125 38.6843 44.0064 38.3541C44.5002 38.0239 45.0809 37.8477 45.675 37.8477C46.47 37.8477 47.2325 38.163 47.7954 38.7245C48.3582 39.286 48.6753 40.0478 48.6771 40.8428Z" fill="#263238"/>
<path d="M52.2777 37.1338C52.2791 37.7282 52.1041 38.3096 51.7747 38.8043C51.4454 39.2991 50.9766 39.685 50.4277 39.9131C49.8789 40.1412 49.2746 40.2012 48.6916 40.0856C48.1086 39.97 47.573 39.6839 47.1527 39.2637C46.7325 38.8434 46.4464 38.3078 46.3308 37.7248C46.2152 37.1418 46.2752 36.5376 46.5033 35.9887C46.7314 35.4398 47.1173 34.971 47.6121 34.6417C48.1068 34.3124 48.6882 34.1373 49.2826 34.1387C50.0764 34.1405 50.8371 34.4567 51.3984 35.018C51.9597 35.5793 52.2759 36.34 52.2777 37.1338Z" fill="#263238"/>
<path d="M57.0228 36.5742C57.0242 37.1683 56.8494 37.7494 56.5203 38.244C56.1913 38.7387 55.7229 39.1246 55.1745 39.3529C54.626 39.5812 54.0222 39.6416 53.4393 39.5266C52.8565 39.4115 52.3209 39.1262 51.9004 38.7066C51.4798 38.287 51.1932 37.7521 51.0768 37.1695C50.9603 36.587 51.0194 35.983 51.2464 35.434C51.4734 34.885 51.8582 34.4157 52.3521 34.0855C52.8459 33.7554 53.4266 33.5791 54.0207 33.5791C54.8157 33.5791 55.5782 33.8944 56.1411 34.4559C56.7039 35.0174 57.021 35.7792 57.0228 36.5742Z" fill="#263238"/>
<path d="M70.9223 36.5742C70.9237 37.1683 70.7488 37.7494 70.4197 38.244C70.0907 38.7387 69.6223 39.1246 69.0739 39.3529C68.5254 39.5812 67.9216 39.6416 67.3387 39.5266C66.7559 39.4115 66.2203 39.1262 65.7998 38.7066C65.3792 38.287 65.0926 37.7521 64.9762 37.1695C64.8598 36.587 64.9188 35.983 65.1458 35.434C65.3728 34.885 65.7576 34.4157 66.2515 34.0855C66.7453 33.7554 67.326 33.5791 67.9201 33.5791C68.7151 33.5791 69.4777 33.8944 70.0405 34.4559C70.6033 35.0174 70.9204 35.7792 70.9223 36.5742Z" fill="#263238"/>
<path d="M77.5668 42.465C77.5668 43.0588 77.3907 43.6393 77.0609 44.133C76.731 44.6267 76.2621 45.0114 75.7135 45.2387C75.165 45.4659 74.5613 45.5254 73.979 45.4095C73.3966 45.2937 72.8617 45.0077 72.4418 44.5879C72.022 44.168 71.736 43.6331 71.6202 43.0507C71.5043 42.4684 71.5638 41.8647 71.791 41.3162C72.0182 40.7676 72.403 40.2987 72.8967 39.9688C73.3904 39.639 73.9709 39.4629 74.5647 39.4629C75.3609 39.4629 76.1245 39.7792 76.6875 40.3422C77.2505 40.9052 77.5668 41.6688 77.5668 42.465Z" fill="#263238"/>
<path d="M39.6701 68.4906C41.3282 68.4906 42.6723 67.1465 42.6723 65.4885C42.6723 63.8304 41.3282 62.4863 39.6701 62.4863C38.0121 62.4863 36.668 63.8304 36.668 65.4885C36.668 67.1465 38.0121 68.4906 39.6701 68.4906Z" fill="#263238"/>
<path d="M55.9262 77.541C55.9276 78.1351 55.7527 78.7162 55.4236 79.2108C55.0946 79.7055 54.6262 80.0913 54.0778 80.3197C53.5293 80.548 52.9255 80.6084 52.3427 80.4934C51.7598 80.3783 51.2242 80.093 50.8037 79.6734C50.3831 79.2538 50.0965 78.7189 49.9801 78.1363C49.8637 77.5538 49.9227 76.9498 50.1497 76.4008C50.3767 75.8518 50.7615 75.3825 51.2554 75.0523C51.7492 74.7221 52.3299 74.5459 52.924 74.5459C53.719 74.5459 54.4816 74.8612 55.0444 75.4227C55.6072 75.9842 55.9243 76.746 55.9262 77.541Z" fill="#263238"/>
<path d="M60.1801 77.5822C60.1801 78.1763 60.0038 78.757 59.6736 79.2509C59.3435 79.7447 58.8742 80.1295 58.3252 80.3565C57.7762 80.5835 57.1722 80.6426 56.5897 80.5262C56.0071 80.4098 55.4722 80.1231 55.0526 79.7026C54.633 79.282 54.3477 78.7464 54.2326 78.1636C54.1176 77.5808 54.178 76.9769 54.4063 76.4285C54.6346 75.88 55.0205 75.4117 55.5151 75.0826C56.0098 74.7536 56.5909 74.5787 57.185 74.5801C57.5789 74.5801 57.9689 74.6578 58.3328 74.8087C58.6966 74.9597 59.0271 75.181 59.3053 75.4598C59.5835 75.7387 59.804 76.0697 59.9541 76.4339C60.1042 76.7981 60.181 77.1883 60.1801 77.5822Z" fill="#263238"/>
<path d="M41.1615 61.0959C41.1615 61.6897 40.9855 62.2701 40.6556 62.7638C40.3257 63.2575 39.8568 63.6423 39.3083 63.8695C38.7597 64.0968 38.1561 64.1562 37.5737 64.0404C36.9913 63.9245 36.4564 63.6386 36.0365 63.2187C35.6167 62.7989 35.3308 62.264 35.2149 61.6816C35.0991 61.0992 35.1585 60.4956 35.3858 59.947C35.613 59.3985 35.9978 58.9296 36.4915 58.5997C36.9852 58.2698 37.5656 58.0938 38.1594 58.0938C38.9556 58.0938 39.7192 58.41 40.2822 58.9731C40.8452 59.5361 41.1615 60.2997 41.1615 61.0959Z" fill="#263238"/>
<path d="M41.7092 72.6118C43.2119 72.6118 44.4301 71.3936 44.4301 69.8908C44.4301 68.3881 43.2119 67.1699 41.7092 67.1699C40.2065 67.1699 38.9883 68.3881 38.9883 69.8908C38.9883 71.3936 40.2065 72.6118 41.7092 72.6118Z" fill="#263238"/>
<path d="M61.4393 35.1174C61.4407 35.6576 61.2817 36.1859 60.9825 36.6356C60.6833 37.0853 60.2573 37.4361 59.7585 37.6434C59.2598 37.8507 58.7107 37.9054 58.1809 37.8003C57.6511 37.6953 57.1643 37.4353 56.7824 37.0534C56.4005 36.6715 56.1405 36.1847 56.0355 35.6549C55.9304 35.1251 55.9851 34.576 56.1924 34.0773C56.3997 33.5785 56.7505 33.1525 57.2002 32.8533C57.6499 32.5541 58.1782 32.3951 58.7184 32.3965C59.4394 32.3983 60.1304 32.6856 60.6403 33.1955C61.1502 33.7054 61.4374 34.3964 61.4393 35.1174Z" fill="#263238"/>
<path d="M40.8875 56.7158C40.8916 57.255 40.7358 57.7834 40.4399 58.2341C40.1439 58.6848 39.721 59.0377 39.2245 59.2482C38.7281 59.4587 38.1804 59.5174 37.6506 59.4168C37.1209 59.3162 36.6328 59.0608 36.2481 58.683C35.8634 58.3051 35.5993 57.8218 35.4891 57.2939C35.379 56.766 35.4278 56.2174 35.6293 55.7172C35.8308 55.2171 36.1761 54.7879 36.6214 54.4838C37.0667 54.1798 37.5922 54.0145 38.1314 54.0089C38.4902 54.0052 38.8463 54.0723 39.1791 54.2065C39.512 54.3406 39.8151 54.539 40.0711 54.7905C40.3271 55.0419 40.531 55.3414 40.6711 55.6718C40.8112 56.0022 40.8847 56.357 40.8875 56.7158Z" fill="#263238"/>
<path d="M39.6721 50.9086C41.1748 50.9086 42.393 49.6904 42.393 48.1877C42.393 46.685 41.1748 45.4668 39.6721 45.4668C38.1694 45.4668 36.9512 46.685 36.9512 48.1877C36.9512 49.6904 38.1694 50.9086 39.6721 50.9086Z" fill="#263238"/>
<path d="M63.133 38.1645C64.6357 38.1645 65.8539 36.9463 65.8539 35.4436C65.8539 33.9409 64.6357 32.7227 63.133 32.7227C61.6303 32.7227 60.4121 33.9409 60.4121 35.4436C60.4121 36.9463 61.6303 38.1645 63.133 38.1645Z" fill="#263238"/>
<path d="M51.7293 75.8744C51.7293 76.4143 51.5692 76.942 51.2691 77.3907C50.969 77.8395 50.5426 78.1891 50.0437 78.3954C49.5448 78.6017 48.996 78.6553 48.4666 78.5494C47.9372 78.4436 47.4512 78.1831 47.07 77.8009C46.6887 77.4187 46.4295 76.9319 46.325 76.4023C46.2205 75.8727 46.2756 75.324 46.4831 74.8256C46.6907 74.3273 47.0414 73.9017 47.4909 73.6028C47.9405 73.3039 48.4686 73.1451 49.0084 73.1465C49.3663 73.1465 49.7207 73.2171 50.0513 73.3543C50.3819 73.4915 50.6821 73.6925 50.9349 73.9459C51.1876 74.1993 51.3879 74.5001 51.5242 74.831C51.6606 75.162 51.7303 75.5165 51.7293 75.8744Z" fill="#263238"/>
<path d="M64.1463 78.6164C64.1477 79.1563 63.9889 79.6844 63.69 80.1339C63.3911 80.5834 62.9655 80.9342 62.4672 81.1417C61.9689 81.3493 61.4201 81.4043 60.8905 81.2998C60.3609 81.1954 59.8741 80.9361 59.4919 80.5549C59.1097 80.1737 58.8492 79.6876 58.7434 79.1582C58.6375 78.6289 58.6911 78.08 58.8974 77.5811C59.1037 77.0823 59.4533 76.6558 59.9021 76.3557C60.3508 76.0557 60.8785 75.8955 61.4184 75.8955C62.1406 75.8955 62.8335 76.1819 63.3448 76.692C63.8562 77.2021 64.1445 77.8941 64.1463 78.6164Z" fill="#263238"/>
<path d="M66.3108 80.3041C67.8135 80.3041 69.0317 79.0859 69.0317 77.5832C69.0317 76.0805 67.8135 74.8623 66.3108 74.8623C64.808 74.8623 63.5898 76.0805 63.5898 77.5832C63.5898 79.0859 64.808 80.3041 66.3108 80.3041Z" fill="#263238"/>
<path d="M70.1496 77.5766C71.6524 77.5766 72.8706 76.3584 72.8706 74.8557C72.8706 73.353 71.6524 72.1348 70.1496 72.1348C68.6469 72.1348 67.4287 73.353 67.4287 74.8557C67.4287 76.3584 68.6469 77.5766 70.1496 77.5766Z" fill="#263238"/>
<path d="M77.2928 72.9924C77.2942 73.5322 77.1354 74.0603 76.8365 74.5099C76.5376 74.9594 76.112 75.3102 75.6137 75.5177C75.1153 75.7253 74.5666 75.7803 74.037 75.6758C73.5073 75.5714 73.0206 75.3121 72.6384 74.9309C72.2562 74.5496 71.9957 74.0636 71.8898 73.5342C71.784 73.0049 71.8376 72.456 72.0439 71.9571C72.2502 71.4582 72.5998 71.0318 73.0486 70.7317C73.4973 70.4316 74.025 70.2715 74.5649 70.2715C75.2871 70.2715 75.9799 70.5579 76.4913 71.068C77.0027 71.5781 77.2909 72.2701 77.2928 72.9924Z" fill="#263238"/>
<path d="M82.1238 65.1873C82.1211 65.7266 81.9585 66.2529 81.6568 66.6998C81.355 67.1467 80.9276 67.4941 80.4285 67.6982C79.9294 67.9024 79.381 67.954 78.8525 67.8465C78.3241 67.7391 77.8394 67.4775 77.4595 67.0948C77.0797 66.712 76.8219 66.2252 76.7185 65.696C76.6152 65.1668 76.671 64.6188 76.879 64.1212C77.0869 63.6237 77.4377 63.199 77.8869 62.9007C78.3361 62.6024 78.8637 62.4439 79.4029 62.4453C79.7617 62.4462 80.1169 62.5179 80.448 62.6563C80.779 62.7947 81.0796 62.9971 81.3323 63.2518C81.5851 63.5065 81.7851 63.8086 81.9209 64.1407C82.0567 64.4728 82.1257 64.8285 82.1238 65.1873Z" fill="#263238"/>
<path d="M82.1239 60.1594C82.1253 60.6995 81.9663 61.2279 81.6671 61.6776C81.3678 62.1273 80.9419 62.478 80.4431 62.6854C79.9444 62.8927 79.3953 62.9473 78.8655 62.8423C78.3356 62.7373 77.8489 62.4773 77.467 62.0954C77.085 61.7134 76.8251 61.2267 76.72 60.6969C76.615 60.1671 76.6696 59.618 76.877 59.1192C77.0843 58.6205 77.4351 58.1945 77.8847 57.8953C78.3344 57.5961 78.8628 57.4371 79.4029 57.4385C80.124 57.4403 80.815 57.7276 81.3249 58.2375C81.8347 58.7473 82.122 59.4383 82.1239 60.1594Z" fill="#263238"/>
<path d="M74.5643 38.5403C74.5657 39.0804 74.4067 39.6088 74.1075 40.0585C73.8083 40.5082 73.3823 40.8589 72.8835 41.0662C72.3848 41.2736 71.8357 41.3282 71.3059 41.2232C70.7761 41.1181 70.2893 40.8582 69.9074 40.4762C69.5255 40.0943 69.2655 39.6076 69.1605 39.0778C69.0554 38.5479 69.1101 37.9989 69.3174 37.5001C69.5247 37.0013 69.8755 36.5754 70.3252 36.2761C70.7749 35.9769 71.3032 35.818 71.8434 35.8193C72.5644 35.8212 73.2554 36.1085 73.7653 36.6183C74.2752 37.1282 74.5624 37.8192 74.5643 38.5403Z" fill="#263238"/>
<path d="M78.1565 48.6684C79.6592 48.6684 80.8774 47.4502 80.8774 45.9475C80.8774 44.4448 79.6592 43.2266 78.1565 43.2266C76.6537 43.2266 75.4355 44.4448 75.4355 45.9475C75.4355 47.4502 76.6537 48.6684 78.1565 48.6684Z" fill="#263238"/>
<path d="M78.7551 52.9838C80.2578 52.9838 81.476 51.7656 81.476 50.2629C81.476 48.7602 80.2578 47.542 78.7551 47.542C77.2524 47.542 76.0342 48.7602 76.0342 50.2629C76.0342 51.7656 77.2524 52.9838 78.7551 52.9838Z" fill="#263238"/>
<path d="M61.3327 86.3523C61.7686 87.2382 67.6604 92.2933 71.8789 91.1121C73.285 90.7184 71.4711 83.097 71.4711 83.097V82.5064L71.4219 74.203L60.7843 70.3853L59.2656 69.9072C59.2656 69.9072 59.4273 72.1782 59.6593 74.9975C59.6593 75.1311 59.6593 75.2577 59.6593 75.3983C59.6593 75.5389 59.6593 75.7147 59.6593 75.8623C59.6593 76.2842 59.7226 76.713 59.7578 77.1419C59.7929 77.5708 59.814 77.7888 59.8562 78.1262C59.8984 78.4637 59.9336 78.8293 59.9687 79.1527C60.2604 81.5806 60.7161 83.9859 61.3327 86.3523Z" fill="#EB9481"/>
<path d="M59.6808 74.9819C60.9873 77.0152 62.7205 78.74 64.7601 80.0367C66.7997 81.3333 69.097 82.1707 71.4926 82.4908L71.4434 74.1874L60.8058 70.3697L59.2871 69.8916C59.2871 69.8916 59.4488 72.1626 59.6808 74.9819Z" fill="#263238"/>
<path d="M80.5215 58.2264C85.654 71.8591 78.0678 76.4713 75.1289 77.5752C72.4572 78.5736 63.2469 81.646 56.7293 68.6179C50.2118 55.5899 54.9365 48.8965 60.9478 46.2811C66.9591 43.6656 75.3961 44.5726 80.5215 58.2264Z" fill="#EB9481"/>
<path d="M77.2575 57.2168C76.92 57.2801 76.5966 57.2871 76.2591 57.3223C75.9115 57.4056 75.5463 57.3735 75.2186 57.2309C75.1247 57.165 75.0553 57.0701 75.021 56.9608C74.9866 56.8514 74.9894 56.7338 75.0287 56.6262C75.1336 56.42 75.2921 56.2458 75.4876 56.1221C75.6831 55.9983 75.9083 55.9296 76.1396 55.9231C76.6044 55.8473 77.0807 55.9476 77.4755 56.2044C77.5726 56.2636 77.6489 56.3516 77.6938 56.4562C77.7387 56.5608 77.75 56.6767 77.726 56.788C77.7021 56.8992 77.6441 57.0003 77.5602 57.0771C77.4762 57.154 77.3704 57.2028 77.2575 57.2168Z" fill="#263238"/>
<path d="M67.6606 58.9325C67.9611 58.784 68.2523 58.6173 68.5324 58.4333C68.8717 58.2968 69.1543 58.0488 69.3339 57.7302C69.3714 57.6217 69.3724 57.504 69.3369 57.3949C69.3013 57.2858 69.2312 57.1912 69.1371 57.1256C68.9304 57.0263 68.701 56.9837 68.4724 57.0023C68.2439 57.0208 68.0244 57.0998 67.8364 57.231C67.4164 57.4349 67.0878 57.7886 66.9153 58.2224C66.8707 58.3254 66.8588 58.4395 66.8811 58.5495C66.9034 58.6595 66.959 58.76 67.0402 58.8374C67.1215 58.9148 67.2245 58.9655 67.3355 58.9825C67.4464 58.9995 67.5599 58.982 67.6606 58.9325Z" fill="#263238"/>
<path d="M70.6555 61.8564C70.6555 61.8564 70.5992 61.9267 70.6133 61.9619C70.9648 62.89 71.2109 64.0149 70.4727 64.6195C70.4727 64.6195 70.4727 64.6828 70.4727 64.6688C71.4851 64.1625 71.1757 62.679 70.6555 61.8564Z" fill="#263238"/>
<path d="M69.4812 61.1657C67.9344 61.5734 68.8554 64.6389 70.2897 64.2592C71.724 63.8796 70.7748 60.8282 69.4812 61.1657Z" fill="#263238"/>
<path d="M68.926 61.5105C68.7151 61.7636 68.5393 62.1503 68.223 62.2769C67.9066 62.4034 67.4777 62.1925 67.1402 61.9605C67.1402 61.9605 67.091 61.9605 67.1051 62.0097C67.2738 62.6003 67.6816 63.1346 68.3355 63.0292C68.9893 62.9237 69.1862 62.291 69.1581 61.623C69.1581 61.5387 69.0104 61.4051 68.926 61.5105Z" fill="#263238"/>
<path d="M76.0059 59.7959C76.0059 59.7959 76.0902 59.7959 76.1043 59.8592C76.3504 60.8154 76.8074 61.877 77.7565 61.9684C77.7565 61.9684 77.7565 62.0176 77.7565 62.0247C76.6668 62.1582 76.0973 60.7451 76.0059 59.7959Z" fill="#263238"/>
<path d="M76.5616 58.5517C78.0591 57.9893 79.0786 61.0195 77.6935 61.5468C76.3084 62.0742 75.3101 59.0298 76.5616 58.5517Z" fill="#263238"/>
<path d="M77.2637 58.5363C77.559 58.6207 77.8895 58.8316 78.1847 58.7542C78.48 58.6769 78.6558 58.2551 78.7683 57.8684C78.7683 57.8262 78.8105 57.8684 78.8246 57.8684C79.0355 58.4449 79.0425 59.1128 78.5293 59.4081C78.016 59.7034 77.5098 59.3097 77.1793 58.7824C77.1161 58.698 77.1442 58.5082 77.2637 58.5363Z" fill="#263238"/>
<path d="M72.8564 69.1662C73.1224 69.391 73.4575 69.5176 73.8056 69.5248C74.1632 69.4263 74.4961 69.2538 74.7829 69.0186C74.7829 69.0186 74.8462 69.0186 74.8321 69.0607C74.7428 69.2835 74.5951 69.4782 74.4046 69.6242C74.2141 69.7702 73.9877 69.8621 73.7494 69.8904C73.5394 69.8892 73.3344 69.8258 73.1605 69.7082C72.9865 69.5905 72.8514 69.4239 72.7721 69.2295C72.744 69.1803 72.8143 69.1381 72.8564 69.1662Z" fill="#263238"/>
<path d="M75.7314 64.4968C75.7314 64.4968 76.4345 66.0717 76.6525 66.7397C75.2716 66.9635 73.9138 67.3118 72.5957 67.7802C72.5184 67.7802 72.3988 67.6888 72.5957 67.5482C73.6292 66.7397 75.9916 66.3319 75.9916 66.3319C75.5896 65.5804 75.2328 64.8056 74.9229 64.0117C75.4542 63.8994 75.9975 63.8545 76.54 63.8781C75.2885 61.0658 73.5941 58.4011 72.3848 55.5396C72.3848 55.4341 72.4902 55.3568 72.5465 55.4412C74.5221 58.0707 76.0619 61.3189 77.4048 64.2367C77.5665 64.5953 76.0337 64.5531 75.7314 64.4968Z" fill="#263238"/>
<path d="M57.8176 68.5194C60.5104 69.0115 58.5207 65.004 58.5207 65.004C58.5207 65.004 60.3909 63.2744 58.6402 60.5042C58.6402 60.5042 61.7971 60.7433 61.2135 56.4756C61.2135 56.4756 63.7165 55.7233 62.9009 52.8618C62.9009 52.8618 66.803 54.05 67.5272 50.4783C67.5272 50.4783 70.6629 52.7422 72.0691 49.5362C72.0691 49.5362 73.4752 51.2517 75.3806 50.1619C75.3806 50.1619 76.161 52.1165 77.7781 52.4469C77.7781 52.4469 70.4168 38.7298 58.3098 46.7028C47.0816 54.0851 54.6538 67.9428 57.8176 68.5194Z" fill="#263238"/>
<path d="M59.2857 68.8291C59.2857 68.8291 54.9969 65.3137 53.3165 66.9589C51.6362 68.6041 55.7211 74.3061 58.2943 74.524C58.6221 74.5734 58.9565 74.5559 59.2774 74.4728C59.5984 74.3897 59.8992 74.2426 60.1618 74.0404C60.4245 73.8382 60.6436 73.5849 60.8059 73.2959C60.9683 73.0069 61.0706 72.6881 61.1067 72.3586L59.2857 68.8291Z" fill="#EB9481"/>
<path d="M54.5352 68.5618C54.5258 68.5618 54.5169 68.5655 54.5103 68.5721C54.5037 68.5787 54.5 68.5876 54.5 68.5969C54.5 68.6063 54.5037 68.6152 54.5103 68.6218C54.5169 68.6284 54.5258 68.6321 54.5352 68.6321C56.3561 68.836 57.6428 70.1086 58.6904 71.5147C58.5497 71.377 58.3809 71.2715 58.1954 71.2056C58.01 71.1397 57.8124 71.1149 57.6164 71.133C57.4204 71.1511 57.2307 71.2115 57.0605 71.3102C56.8902 71.4089 56.7434 71.5435 56.6303 71.7046C56.5952 71.7467 56.6303 71.803 56.7006 71.7749C56.9622 71.6039 57.2703 71.5182 57.5825 71.5295C57.8948 71.5409 58.1958 71.6487 58.4443 71.8381C58.86 72.1566 59.2396 72.5197 59.5762 72.9209C59.6958 73.0474 59.9418 72.9209 59.8364 72.7381C59.2669 70.6078 56.8272 68.147 54.5352 68.5618Z" fill="#263238"/>
<path d="M49.4574 58.8252L48.8105 60.5266L54.5406 63.9296L55.9117 60.1048L49.4574 58.8252ZM54.0063 62.2843L50.0761 60.2454L50.2167 59.8447L54.5196 60.9485L54.0063 62.2843Z" fill="white"/>
<path d="M49.8652 56.3089L49.9074 58.1229L56.4953 59.1212L56.3265 55.0645L49.8652 56.3089ZM55.3844 57.7994L50.9691 57.3916V56.9698L55.3704 56.3652L55.3844 57.7994Z" fill="white"/>
<path d="M47.0769 17.1896L46.5495 19.7207C46.5039 19.9747 46.407 20.2168 46.2647 20.432C46.1224 20.6473 45.9376 20.8313 45.7218 20.9728C45.506 21.1143 45.2636 21.2103 45.0094 21.2549C44.7552 21.2995 44.4946 21.2918 44.2434 21.2323C43.7378 21.1258 43.295 20.8234 43.0117 20.3913C42.7284 19.9591 42.6278 19.4324 42.7318 18.9262L43.5755 14.8765C43.5755 14.8413 43.6247 14.8765 43.6318 14.8062C43.6388 14.7359 43.5966 14.757 43.6318 14.7218C43.7496 14.2225 44.0544 13.7875 44.4835 13.5063C44.9125 13.225 45.433 13.1191 45.9379 13.2102C46.5174 13.3472 47.1186 13.3666 47.7058 13.2674C48.293 13.1681 48.8544 12.9522 49.3567 12.6324C49.8591 12.3126 50.2923 11.8954 50.6308 11.4054C50.9692 10.9154 51.206 10.3625 51.3272 9.77945C51.4485 9.19639 51.4516 8.59495 51.3365 8.01064C51.2214 7.42634 50.9904 6.87103 50.6571 6.37749C50.3238 5.88396 49.895 5.46221 49.396 5.13716C48.897 4.81211 48.338 4.59034 47.7518 4.48496C46.9962 4.32308 46.2112 4.364 45.4765 4.60355C44.7417 4.8431 44.0835 5.27277 43.5685 5.84894C43.3952 6.04596 43.1843 6.20635 42.9482 6.3207C42.712 6.43505 42.4554 6.50105 42.1934 6.5148C41.9314 6.52856 41.6693 6.4898 41.4225 6.4008C41.1757 6.31181 40.9491 6.17438 40.7562 5.99658C40.3762 5.64763 40.1502 5.16218 40.1278 4.64678C40.1054 4.13139 40.2884 3.62816 40.6367 3.24754C41.5611 2.21405 42.728 1.42653 44.0323 0.955811C45.3366 0.485092 46.7375 0.345932 48.1089 0.550844C49.4803 0.755756 50.7793 1.29831 51.889 2.12973C52.9988 2.96114 53.8845 4.05535 54.4665 5.31394C55.0485 6.57253 55.3086 7.95604 55.2233 9.34007C55.1381 10.7241 54.7101 12.0652 53.9781 13.2429C53.246 14.4205 52.2327 15.3977 51.0293 16.0866C49.8259 16.7756 48.4701 17.1546 47.0839 17.1896H47.0769ZM45.3121 25.725L45.1645 26.4281C45.1198 26.6826 45.0235 26.9252 44.8814 27.141C44.7394 27.3568 44.5546 27.5412 44.3385 27.6829C44.1224 27.8245 43.8796 27.9204 43.625 27.9646C43.3705 28.0087 43.1096 28.0003 42.8584 27.9397C42.3528 27.8332 41.9099 27.5308 41.6266 27.0986C41.3433 26.6665 41.2427 26.1398 41.3468 25.6336L41.4944 24.9305C41.6059 24.4277 41.9094 23.9883 42.3401 23.7059C42.7709 23.4235 43.2949 23.3206 43.8005 23.4189C44.0527 23.4682 44.2924 23.5674 44.5057 23.7107C44.7189 23.8541 44.9013 24.0386 45.0422 24.2535C45.183 24.4684 45.2795 24.7093 45.3258 24.962C45.3722 25.2147 45.3675 25.4741 45.3121 25.725Z" fill="#FFC727"/>
<path d="M26.8135 12.0503L26.4971 9.48408C26.4586 9.22916 26.4725 8.96909 26.5379 8.71971C26.6033 8.47034 26.7188 8.23689 26.8773 8.03361C27.0359 7.83033 27.2341 7.66147 27.4601 7.53733C27.686 7.41319 27.9349 7.33638 28.1915 7.31157C28.4454 7.28009 28.7031 7.29895 28.9497 7.36707C29.1963 7.4352 29.4271 7.55126 29.6289 7.70862C29.8306 7.86598 29.9994 8.06155 30.1255 8.28415C30.2517 8.50676 30.3327 8.75205 30.364 9.00599L30.8702 13.112C30.8702 13.112 30.8702 13.1542 30.8702 13.1964C30.8702 13.2385 30.9194 13.1963 30.9194 13.2667C30.9685 13.7776 30.8204 14.2879 30.5054 14.6932C30.1903 15.0984 29.7323 15.3678 29.225 15.4462C28.6336 15.5052 28.0599 15.6819 27.5378 15.9658C27.0156 16.2498 26.5556 16.6353 26.1846 17.0997C25.8136 17.5641 25.5393 18.098 25.3777 18.6699C25.2161 19.2419 25.1706 19.8404 25.2437 20.4303C25.3169 21.0201 25.5072 21.5894 25.8036 22.1046C26.1 22.6198 26.4965 23.0705 26.9696 23.4302C27.4428 23.7899 27.9831 24.0514 28.5588 24.1992C29.1345 24.347 29.7339 24.3782 30.3218 24.291C31.0879 24.1967 31.8159 23.9029 32.4328 23.4389C33.0497 22.975 33.534 22.3572 33.8372 21.6474C33.9376 21.4074 34.0848 21.1898 34.2701 21.0072C34.4554 20.8247 34.6751 20.6808 34.9166 20.584C35.158 20.4871 35.4163 20.4393 35.6764 20.4432C35.9365 20.4471 36.1932 20.5027 36.4316 20.6068C36.666 20.7083 36.8779 20.8553 37.0552 21.0392C37.2324 21.2231 37.3715 21.4403 37.4643 21.6783C37.5571 21.9162 37.6019 22.1702 37.596 22.4256C37.5901 22.6809 37.5337 22.9326 37.43 23.166C36.8863 24.4377 36.0356 25.5545 34.9542 26.4166C33.8727 27.2786 32.5943 27.8589 31.2335 28.1054C29.8726 28.3519 28.4719 28.257 27.1568 27.8291C25.8417 27.4011 24.6533 26.6536 23.6981 25.6535C22.7429 24.6534 22.0507 23.4319 21.6836 22.0986C21.3166 20.7652 21.286 19.3616 21.5948 18.0135C21.9035 16.6654 22.5418 15.415 23.4526 14.3743C24.3634 13.3335 25.5182 12.535 26.8135 12.0503ZM25.7448 3.40244L25.6534 2.69936C25.616 2.44419 25.6306 2.18409 25.6963 1.9347C25.762 1.68532 25.8774 1.4518 26.0357 1.24819C26.194 1.04458 26.3918 0.875096 26.6173 0.749923C26.8428 0.624749 27.0913 0.546474 27.3478 0.519809C27.8621 0.458155 28.38 0.602459 28.7883 0.921225C29.1967 1.23999 29.4623 1.70734 29.5274 2.22127L29.6117 2.92435C29.6678 3.43581 29.5221 3.94898 29.2057 4.3547C28.8893 4.76042 28.427 5.02669 27.9173 5.09686C27.6629 5.13125 27.4043 5.11446 27.1565 5.04748C26.9087 4.9805 26.6769 4.86469 26.4745 4.70684C26.2721 4.54899 26.1033 4.35229 25.978 4.12829C25.8527 3.90429 25.7734 3.65751 25.7448 3.40244Z" fill="#FFC727"/>
</svg>
