<svg width="398" height="352" viewBox="0 0 398 352" fill="none" xmlns="http://www.w3.org/2000/svg">
<path d="M203.785 351.688C269.468 351.688 322.714 344.027 322.714 334.577C322.714 325.127 269.468 317.466 203.785 317.466C138.102 317.466 84.8555 325.127 84.8555 334.577C84.8555 344.027 138.102 351.688 203.785 351.688Z" fill="#DCDCDC"/>
<path d="M54.0444 335.093C82.5833 335.093 105.719 330.664 105.719 325.201C105.719 319.738 82.5833 315.309 54.0444 315.309C25.5055 315.309 2.37012 319.738 2.37012 325.201C2.37012 330.664 25.5055 335.093 54.0444 335.093Z" fill="#DCDCDC"/>
<path d="M0 298.768L49.6737 298.547L99.3474 298.464L198.704 298.316L298.061 298.464L347.734 298.547L397.408 298.768L347.734 298.999L298.061 299.082L198.704 299.229L99.3474 299.082L49.6737 298.999L0 298.768Z" fill="#263238"/>
<path d="M335.694 158.534H254.343V307.989H335.694V158.534Z" fill="#455A64"/>
<path d="M335.694 158.534H254.343V168.279H335.694V158.534Z" fill="#263238"/>
<path d="M370.617 150.679H26.7822V158.543H370.617V150.679Z" fill="#455A64"/>
<path d="M44.134 158.534L43.8758 168.279L40.4462 307.989H34.2324V158.534H44.134Z" fill="#455A64"/>
<path d="M34.2324 158.534H44.134L43.8758 168.279H34.2324V158.534Z" fill="#263238"/>
<path d="M363.26 158.534H335.694V307.989H363.26V158.534Z" fill="#37474F"/>
<path d="M363.26 158.534H335.694V168.279H363.26V158.534Z" fill="#263238"/>
<path d="M354.484 150.532H316.611L309.991 123.049H347.864L354.484 150.532Z" fill="#A6A6A6"/>
<path d="M303.271 150.532H341.134L347.754 123.049H309.881L303.271 150.532Z" fill="#EBEBEB"/>
<path d="M343.209 126.737L342.287 130.582L342.232 130.812L341.31 134.804L341.254 135.044L340.332 139.027L340.277 139.266L339.355 143.258L339.3 143.498L338.378 147.407H307.954L308.876 143.498L308.931 143.258L309.853 139.266L309.918 139.027L310.84 135.044L310.895 134.804L311.817 130.812L311.882 130.582L312.803 126.737H343.209ZM316.989 126.737L316.067 130.582L316.012 130.812L315.09 134.804L315.035 135.044L314.113 139.027L314.057 139.266L313.135 143.258L313.08 143.498L312.158 147.407H312.407L313.329 143.498L313.384 143.258L314.306 139.266L314.362 139.027L315.283 135.044L315.339 134.804L316.261 130.812L316.316 130.582L317.238 126.737H316.989ZM321.322 126.737L320.4 130.582L320.345 130.812L319.423 134.804L319.368 135.044L318.446 139.027L318.39 139.266L317.468 143.258L317.413 143.498L316.491 147.407H316.74L317.662 143.498L317.727 143.258L318.649 139.266L318.704 139.027L319.626 135.044L319.69 134.804L320.612 130.812L320.668 130.582L321.589 126.737H321.322ZM325.664 126.737L324.742 130.582L324.687 130.812L323.765 134.804L323.71 135.044L322.788 139.027L322.733 139.266L321.811 143.258L321.755 143.498L320.833 147.407H321.073L321.995 143.498L322.05 143.258L322.972 139.266L323.028 139.027L323.95 135.044L324.005 134.804L324.927 130.812L324.982 130.582L325.904 126.737H325.664ZM329.998 126.737L329.076 130.582L329.02 130.812L328.098 134.804L328.043 135.044L327.121 139.027L327.066 139.266L326.144 143.258L326.089 143.498L325.167 147.407H325.416L326.337 143.498L326.393 143.258L327.315 139.266L327.379 139.027L328.301 135.044L328.356 134.804L329.278 130.812L329.334 130.582L330.256 126.737H329.998ZM334.34 126.737L333.418 130.582L333.363 130.812L332.441 134.804L332.376 135.044L331.454 139.027L331.399 139.266L330.477 143.258L330.422 143.498L329.5 147.407H329.62L330.541 143.498L330.597 143.258L331.519 139.266L331.574 139.027L332.496 135.044L332.551 134.804L333.473 130.812L333.528 130.582L334.45 126.737H334.34ZM338.673 126.737L337.751 130.582L337.696 130.812L336.774 134.804L336.718 135.044L335.796 139.027L335.741 139.266L334.819 143.258L334.764 143.498L333.842 147.407H334.082L335.004 143.498L335.059 143.258L335.981 139.266L336.036 139.027L336.958 135.044L337.013 134.804L337.935 130.812L337.991 130.582L338.913 126.737H338.673ZM311.854 130.582L311.789 130.812H342.213L342.268 130.582H311.854ZM310.84 134.804L310.784 135.044H341.208L341.264 134.804H310.84ZM309.826 139.027L309.761 139.266H340.185L340.24 139.027H309.826ZM308.802 143.258L308.747 143.498H339.171L339.226 143.258H308.802Z" fill="white"/>
<path d="M311.07 124.93C310.93 124.923 310.794 124.888 310.668 124.826C310.543 124.764 310.432 124.677 310.342 124.57C310.165 124.33 310.054 124.048 310.02 123.752C309.986 123.456 310.03 123.157 310.148 122.883C310.406 122.026 311.07 121.666 311.522 121.758C311.973 121.85 312.305 122.21 312.232 123.04C312.227 123.102 312.198 123.159 312.152 123.201C312.105 123.242 312.045 123.264 311.983 123.261C311.92 123.254 311.862 123.223 311.821 123.176C311.78 123.128 311.759 123.066 311.761 123.003C311.761 122.57 311.669 122.274 311.429 122.228C311.19 122.182 310.775 122.431 310.6 123.021C310.513 123.22 310.477 123.436 310.495 123.652C310.513 123.867 310.584 124.075 310.701 124.257C310.746 124.319 310.805 124.37 310.875 124.404C310.944 124.438 311.021 124.454 311.098 124.45C311.131 124.441 311.165 124.439 311.199 124.444C311.233 124.449 311.266 124.461 311.294 124.48C311.323 124.499 311.348 124.523 311.366 124.552C311.384 124.581 311.396 124.614 311.401 124.648C311.406 124.682 311.403 124.717 311.393 124.75C311.383 124.783 311.366 124.813 311.344 124.839C311.321 124.865 311.293 124.885 311.262 124.899C311.23 124.913 311.196 124.921 311.162 124.92L311.07 124.93Z" fill="#A6A6A6"/>
<path d="M313.946 124.93C313.807 124.924 313.67 124.888 313.545 124.826C313.419 124.765 313.308 124.677 313.218 124.571C313.042 124.329 312.932 124.045 312.898 123.748C312.864 123.451 312.908 123.15 313.024 122.874C313.292 122.017 313.946 121.657 314.398 121.749C314.85 121.842 315.182 122.201 315.117 123.031C315.11 123.094 315.08 123.151 315.032 123.192C314.984 123.234 314.922 123.255 314.859 123.252C314.828 123.25 314.798 123.241 314.77 123.227C314.742 123.213 314.718 123.193 314.698 123.169C314.678 123.144 314.663 123.117 314.654 123.087C314.646 123.057 314.643 123.025 314.647 122.994C314.647 122.561 314.555 122.266 314.315 122.22C314.075 122.173 313.661 122.422 313.485 123.012C313.398 123.21 313.36 123.426 313.376 123.642C313.392 123.857 313.461 124.066 313.578 124.248C313.624 124.311 313.686 124.361 313.756 124.395C313.827 124.429 313.905 124.445 313.983 124.441C314.016 124.432 314.051 124.43 314.085 124.435C314.119 124.44 314.151 124.452 314.18 124.471C314.209 124.49 314.233 124.515 314.252 124.544C314.27 124.573 314.282 124.605 314.287 124.639C314.291 124.673 314.289 124.708 314.279 124.741C314.269 124.774 314.252 124.804 314.229 124.83C314.207 124.856 314.179 124.876 314.147 124.891C314.116 124.905 314.082 124.912 314.048 124.912L313.946 124.93Z" fill="#A6A6A6"/>
<path d="M316.907 124.93C316.766 124.923 316.628 124.888 316.501 124.826C316.374 124.764 316.262 124.677 316.17 124.57C315.997 124.328 315.889 124.046 315.857 123.751C315.825 123.455 315.869 123.156 315.985 122.883C316.244 122.026 316.907 121.666 317.359 121.758C317.811 121.85 318.143 122.21 318.069 123.04C318.076 123.074 318.075 123.11 318.066 123.145C318.058 123.179 318.042 123.211 318.019 123.239C317.997 123.266 317.968 123.288 317.936 123.303C317.904 123.318 317.869 123.326 317.834 123.326C317.798 123.326 317.763 123.318 317.731 123.303C317.699 123.288 317.671 123.266 317.649 123.239C317.626 123.211 317.61 123.179 317.601 123.145C317.593 123.11 317.592 123.074 317.599 123.04C317.599 122.606 317.507 122.311 317.267 122.265C317.027 122.219 316.612 122.468 316.437 123.058C316.349 123.256 316.312 123.472 316.328 123.687C316.344 123.903 316.413 124.111 316.529 124.294C316.576 124.356 316.638 124.406 316.709 124.44C316.779 124.473 316.857 124.49 316.935 124.487C316.968 124.478 317.003 124.475 317.037 124.481C317.071 124.486 317.103 124.498 317.132 124.517C317.161 124.536 317.185 124.56 317.203 124.589C317.222 124.618 317.234 124.651 317.238 124.685C317.243 124.719 317.24 124.754 317.23 124.787C317.221 124.819 317.204 124.85 317.181 124.876C317.158 124.901 317.13 124.922 317.099 124.936C317.068 124.95 317.034 124.957 317 124.957L316.907 124.93Z" fill="#A6A6A6"/>
<path d="M319.82 124.93C319.68 124.923 319.543 124.888 319.418 124.826C319.293 124.764 319.182 124.677 319.092 124.57C318.917 124.329 318.808 124.047 318.774 123.752C318.74 123.456 318.783 123.157 318.898 122.883C319.156 122.026 319.82 121.666 320.272 121.758C320.723 121.85 321.055 122.21 320.991 123.04C320.984 123.102 320.953 123.16 320.905 123.201C320.857 123.242 320.796 123.264 320.733 123.261C320.701 123.259 320.671 123.25 320.643 123.236C320.616 123.221 320.591 123.202 320.571 123.177C320.551 123.153 320.537 123.125 320.528 123.095C320.519 123.065 320.517 123.034 320.521 123.003C320.521 122.57 320.428 122.274 320.189 122.228C319.949 122.182 319.534 122.431 319.35 123.021C319.266 123.22 319.231 123.436 319.249 123.651C319.266 123.867 319.336 124.074 319.451 124.257C319.498 124.32 319.559 124.37 319.63 124.404C319.701 124.438 319.778 124.454 319.857 124.45C319.914 124.451 319.97 124.472 320.014 124.51C320.057 124.548 320.085 124.6 320.093 124.657C320.101 124.715 320.088 124.773 320.056 124.821C320.025 124.869 319.977 124.905 319.921 124.92L319.82 124.93Z" fill="#A6A6A6"/>
<path d="M322.733 124.93C322.593 124.923 322.456 124.888 322.331 124.826C322.206 124.764 322.094 124.677 322.004 124.57C321.83 124.329 321.721 124.047 321.689 123.751C321.657 123.455 321.702 123.156 321.82 122.883C322.078 122.026 322.742 121.666 323.194 121.758C323.645 121.85 323.977 122.21 323.904 123.04C323.91 123.074 323.91 123.11 323.901 123.145C323.892 123.179 323.876 123.211 323.854 123.239C323.831 123.266 323.803 123.288 323.771 123.303C323.739 123.318 323.704 123.326 323.669 123.326C323.633 123.326 323.598 123.318 323.566 123.303C323.534 123.288 323.506 123.266 323.483 123.239C323.461 123.211 323.445 123.179 323.436 123.145C323.427 123.11 323.426 123.074 323.433 123.04C323.433 122.606 323.341 122.311 323.101 122.265C322.862 122.219 322.447 122.468 322.272 123.058C322.184 123.256 322.146 123.472 322.162 123.687C322.179 123.903 322.248 124.111 322.364 124.294C322.411 124.356 322.473 124.406 322.543 124.44C322.614 124.473 322.691 124.49 322.77 124.487C322.803 124.478 322.837 124.475 322.871 124.481C322.905 124.486 322.938 124.498 322.966 124.517C322.995 124.536 323.02 124.56 323.038 124.589C323.056 124.618 323.068 124.651 323.073 124.685C323.078 124.719 323.075 124.754 323.065 124.787C323.055 124.819 323.038 124.85 323.016 124.876C322.993 124.901 322.965 124.922 322.934 124.936C322.902 124.95 322.868 124.957 322.834 124.957L322.733 124.93Z" fill="#A6A6A6"/>
<path d="M325.656 124.93C325.516 124.923 325.379 124.888 325.254 124.826C325.129 124.764 325.018 124.677 324.928 124.57C324.751 124.33 324.64 124.048 324.606 123.752C324.572 123.456 324.616 123.157 324.734 122.883C324.992 122.026 325.656 121.666 326.108 121.758C326.559 121.85 326.891 122.21 326.827 123.04C326.82 123.102 326.789 123.16 326.741 123.201C326.693 123.242 326.632 123.264 326.569 123.261C326.506 123.254 326.448 123.223 326.407 123.176C326.366 123.128 326.345 123.066 326.347 123.003C326.347 122.57 326.264 122.274 326.025 122.228C325.785 122.182 325.37 122.431 325.186 123.021C325.099 123.22 325.063 123.436 325.081 123.652C325.099 123.867 325.169 124.075 325.287 124.257C325.332 124.319 325.391 124.37 325.461 124.404C325.53 124.438 325.607 124.454 325.684 124.45C325.717 124.441 325.751 124.439 325.785 124.444C325.819 124.449 325.852 124.461 325.88 124.48C325.909 124.499 325.934 124.523 325.952 124.552C325.97 124.581 325.982 124.614 325.987 124.648C325.992 124.682 325.989 124.717 325.979 124.75C325.969 124.783 325.952 124.813 325.93 124.839C325.907 124.865 325.879 124.885 325.848 124.899C325.816 124.913 325.782 124.921 325.748 124.92L325.656 124.93Z" fill="#A6A6A6"/>
<path d="M328.569 124.93C328.429 124.923 328.292 124.888 328.167 124.826C328.042 124.764 327.93 124.677 327.84 124.57C327.666 124.329 327.557 124.047 327.525 123.751C327.492 123.455 327.538 123.156 327.656 122.883C327.914 122.026 328.578 121.666 329.03 121.758C329.481 121.85 329.813 122.21 329.74 123.04C329.746 123.074 329.746 123.11 329.737 123.145C329.728 123.179 329.712 123.211 329.69 123.239C329.667 123.266 329.639 123.288 329.607 123.303C329.575 123.318 329.54 123.326 329.504 123.326C329.469 123.326 329.434 123.318 329.402 123.303C329.37 123.288 329.342 123.266 329.319 123.239C329.297 123.211 329.281 123.179 329.272 123.145C329.263 123.11 329.262 123.074 329.269 123.04C329.269 122.606 329.177 122.311 328.937 122.265C328.698 122.219 328.283 122.468 328.108 123.058C328.02 123.256 327.982 123.472 327.998 123.687C328.015 123.903 328.084 124.111 328.2 124.294C328.247 124.356 328.308 124.407 328.379 124.441C328.449 124.475 328.527 124.49 328.606 124.487C328.639 124.478 328.673 124.475 328.707 124.481C328.741 124.486 328.774 124.498 328.802 124.517C328.831 124.536 328.856 124.56 328.874 124.589C328.892 124.618 328.904 124.651 328.909 124.685C328.914 124.719 328.911 124.754 328.901 124.787C328.891 124.819 328.874 124.85 328.852 124.876C328.829 124.901 328.801 124.922 328.77 124.936C328.738 124.95 328.704 124.957 328.67 124.957L328.569 124.93Z" fill="#A6A6A6"/>
<path d="M331.462 124.93C331.322 124.924 331.186 124.888 331.06 124.826C330.935 124.765 330.824 124.677 330.734 124.571C330.555 124.33 330.443 124.046 330.409 123.748C330.375 123.451 330.421 123.149 330.54 122.874C330.798 122.017 331.462 121.657 331.914 121.749C332.366 121.842 332.698 122.201 332.624 123.031C332.619 123.093 332.59 123.151 332.544 123.192C332.498 123.233 332.437 123.255 332.375 123.252C332.312 123.245 332.254 123.215 332.213 123.167C332.172 123.119 332.151 123.057 332.154 122.994C332.154 122.561 332.061 122.266 331.822 122.22C331.582 122.173 331.167 122.422 330.992 123.012C330.905 123.211 330.869 123.427 330.887 123.643C330.905 123.859 330.976 124.066 331.093 124.248C331.138 124.311 331.198 124.361 331.267 124.395C331.336 124.429 331.413 124.445 331.49 124.441C331.523 124.432 331.557 124.43 331.591 124.435C331.625 124.44 331.658 124.452 331.687 124.471C331.715 124.49 331.74 124.515 331.758 124.544C331.776 124.573 331.788 124.605 331.793 124.639C331.798 124.673 331.795 124.708 331.785 124.741C331.775 124.774 331.758 124.804 331.736 124.83C331.713 124.856 331.685 124.876 331.654 124.891C331.623 124.905 331.589 124.912 331.554 124.912L331.462 124.93Z" fill="#A6A6A6"/>
<path d="M334.404 124.93C334.264 124.923 334.127 124.888 334.002 124.826C333.877 124.764 333.766 124.677 333.676 124.57C333.501 124.329 333.392 124.047 333.358 123.752C333.324 123.456 333.367 123.157 333.482 122.883C333.749 122.026 334.404 121.666 334.856 121.758C335.307 121.85 335.639 122.21 335.575 123.04C335.568 123.102 335.537 123.16 335.489 123.201C335.441 123.242 335.38 123.264 335.317 123.261C335.255 123.254 335.198 123.223 335.158 123.175C335.119 123.127 335.099 123.065 335.105 123.003C335.105 122.57 335.012 122.274 334.773 122.228C334.533 122.182 334.118 122.431 333.943 123.021C333.855 123.219 333.818 123.435 333.834 123.651C333.85 123.866 333.919 124.074 334.035 124.257C334.082 124.32 334.143 124.37 334.214 124.404C334.285 124.438 334.362 124.454 334.441 124.45C334.474 124.441 334.508 124.439 334.542 124.444C334.576 124.449 334.609 124.461 334.638 124.48C334.666 124.499 334.691 124.523 334.709 124.552C334.727 124.581 334.739 124.614 334.744 124.648C334.749 124.682 334.746 124.717 334.736 124.75C334.726 124.783 334.709 124.813 334.687 124.839C334.664 124.865 334.636 124.885 334.605 124.899C334.574 124.913 334.54 124.921 334.505 124.92L334.404 124.93Z" fill="#A6A6A6"/>
<path d="M337.327 124.93C337.186 124.923 337.048 124.888 336.921 124.826C336.794 124.764 336.682 124.677 336.59 124.57C336.417 124.328 336.309 124.046 336.277 123.751C336.245 123.455 336.289 123.156 336.405 122.883C336.663 122.026 337.327 121.666 337.779 121.758C338.231 121.85 338.563 122.21 338.489 123.04C338.496 123.074 338.495 123.11 338.486 123.145C338.478 123.179 338.462 123.211 338.439 123.239C338.417 123.266 338.388 123.288 338.356 123.303C338.324 123.318 338.289 123.326 338.254 123.326C338.218 123.326 338.183 123.318 338.151 123.303C338.119 123.288 338.091 123.266 338.068 123.239C338.046 123.211 338.03 123.179 338.021 123.145C338.013 123.11 338.012 123.074 338.019 123.04C338.019 122.606 337.927 122.311 337.687 122.265C337.447 122.219 337.032 122.468 336.857 123.058C336.769 123.256 336.732 123.472 336.748 123.687C336.764 123.903 336.833 124.111 336.949 124.294C336.996 124.356 337.058 124.406 337.128 124.44C337.199 124.473 337.277 124.49 337.355 124.487C337.388 124.478 337.423 124.475 337.457 124.481C337.49 124.486 337.523 124.498 337.552 124.517C337.58 124.536 337.605 124.56 337.623 124.589C337.642 124.618 337.654 124.651 337.658 124.685C337.663 124.719 337.66 124.754 337.65 124.787C337.64 124.819 337.624 124.85 337.601 124.876C337.578 124.901 337.55 124.922 337.519 124.936C337.488 124.95 337.454 124.957 337.419 124.957L337.327 124.93Z" fill="#A6A6A6"/>
<path d="M340.241 124.93C340.101 124.923 339.964 124.888 339.839 124.826C339.714 124.764 339.603 124.677 339.512 124.57C339.338 124.329 339.229 124.047 339.195 123.752C339.161 123.456 339.204 123.157 339.319 122.883C339.577 122.026 340.241 121.666 340.693 121.758C341.144 121.85 341.476 122.21 341.412 123.04C341.405 123.102 341.374 123.16 341.326 123.201C341.278 123.242 341.217 123.264 341.154 123.261C341.122 123.259 341.092 123.25 341.064 123.236C341.036 123.221 341.012 123.202 340.992 123.177C340.972 123.153 340.958 123.125 340.949 123.095C340.94 123.065 340.938 123.034 340.941 123.003C340.941 122.57 340.849 122.274 340.61 122.228C340.37 122.182 339.955 122.431 339.771 123.021C339.687 123.22 339.652 123.436 339.669 123.651C339.687 123.867 339.757 124.074 339.872 124.257C339.919 124.32 339.98 124.37 340.051 124.404C340.121 124.438 340.199 124.454 340.278 124.45C340.34 124.442 340.403 124.459 340.453 124.497C340.503 124.535 340.536 124.591 340.545 124.653C340.551 124.715 340.533 124.777 340.495 124.826C340.458 124.876 340.403 124.909 340.342 124.92L340.241 124.93Z" fill="#A6A6A6"/>
<path d="M343.153 124.93C343.013 124.923 342.876 124.888 342.751 124.826C342.626 124.764 342.514 124.677 342.424 124.57C342.25 124.329 342.141 124.047 342.109 123.751C342.076 123.455 342.122 123.156 342.24 122.883C342.498 122.026 343.162 121.666 343.614 121.758C344.065 121.85 344.397 122.21 344.324 123.04C344.33 123.074 344.33 123.11 344.321 123.145C344.312 123.179 344.296 123.211 344.274 123.239C344.251 123.266 344.223 123.288 344.191 123.303C344.159 123.318 344.124 123.326 344.088 123.326C344.053 123.326 344.018 123.318 343.986 123.303C343.954 123.288 343.926 123.266 343.903 123.239C343.881 123.211 343.865 123.179 343.856 123.145C343.847 123.11 343.846 123.074 343.853 123.04C343.853 122.606 343.761 122.311 343.521 122.265C343.282 122.219 342.867 122.468 342.692 123.058C342.604 123.256 342.566 123.472 342.582 123.687C342.598 123.903 342.668 124.111 342.784 124.294C342.831 124.356 342.893 124.406 342.963 124.44C343.034 124.473 343.111 124.49 343.19 124.487C343.223 124.478 343.257 124.475 343.291 124.481C343.325 124.486 343.358 124.498 343.386 124.517C343.415 124.536 343.439 124.56 343.458 124.589C343.476 124.618 343.488 124.651 343.493 124.685C343.498 124.719 343.495 124.754 343.485 124.787C343.475 124.819 343.458 124.85 343.436 124.876C343.413 124.901 343.385 124.922 343.354 124.936C343.322 124.95 343.288 124.957 343.254 124.957L343.153 124.93Z" fill="#A6A6A6"/>
<path d="M346.077 124.93C345.937 124.923 345.8 124.888 345.675 124.826C345.55 124.764 345.439 124.677 345.348 124.57C345.172 124.33 345.061 124.048 345.027 123.752C344.993 123.456 345.037 123.157 345.155 122.883C345.413 122.026 346.077 121.666 346.529 121.758C346.98 121.85 347.312 122.21 347.248 123.04C347.241 123.102 347.21 123.16 347.162 123.201C347.114 123.242 347.053 123.264 346.989 123.261C346.927 123.254 346.869 123.223 346.828 123.176C346.787 123.128 346.766 123.066 346.768 123.003C346.768 122.57 346.685 122.274 346.446 122.228C346.206 122.182 345.791 122.431 345.607 123.021C345.52 123.22 345.484 123.436 345.502 123.652C345.52 123.867 345.59 124.075 345.708 124.257C345.753 124.319 345.812 124.37 345.882 124.404C345.951 124.438 346.027 124.454 346.104 124.45C346.167 124.442 346.23 124.459 346.28 124.497C346.33 124.535 346.363 124.591 346.372 124.653C346.377 124.684 346.376 124.716 346.368 124.746C346.361 124.777 346.347 124.806 346.328 124.831C346.309 124.856 346.285 124.876 346.258 124.892C346.23 124.907 346.2 124.917 346.169 124.92L346.077 124.93Z" fill="#A6A6A6"/>
<path d="M118.312 148.504H70.9248V150.634H118.312V148.504Z" fill="#37474F"/>
<path d="M94.7752 148.504H70.9248V150.634H94.7752V148.504Z" fill="#263238"/>
<path d="M92.2124 150.634H46.0328L39.9941 119.27H86.1737L92.2124 150.634Z" fill="#37474F"/>
<path d="M68.9146 134.952C68.9539 135.309 68.9166 135.671 68.8051 136.014C68.6937 136.356 68.5106 136.67 68.2682 136.936C68.0257 137.202 67.7294 137.414 67.399 137.556C67.0685 137.699 66.7115 137.77 66.3516 137.764C65.586 137.75 64.852 137.456 64.2881 136.938C63.7243 136.42 63.3695 135.713 63.2908 134.952C63.2584 134.597 63.3009 134.24 63.4155 133.904C63.5301 133.567 63.7142 133.258 63.956 132.998C64.1977 132.737 64.4915 132.53 64.8185 132.39C65.1455 132.25 65.4982 132.18 65.8538 132.186C66.6128 132.196 67.3421 132.483 67.9053 132.992C68.4686 133.501 68.8273 134.198 68.9146 134.952Z" fill="white"/>
<path d="M264.472 336.762C262.352 337.444 202.085 336.669 199.817 335.176C198.895 334.632 198.545 325.837 198.37 315.207C198.37 315.096 198.37 314.986 198.37 314.875C198.37 312.681 198.305 310.422 198.296 308.136C198.296 307.822 198.296 307.509 198.296 307.214L201.2 275.914L241.516 276.32L237.543 307.287L237.496 308.514L237.248 314.967V315.631C237.248 315.631 260.176 326.252 262.508 328.151C264.841 330.05 266.583 336.107 264.472 336.762Z" fill="#FFBB96"/>
<path d="M264.472 336.762C262.352 337.444 202.085 336.67 199.817 335.176C198.895 334.632 198.545 325.837 198.37 315.207C198.37 315.096 198.37 314.986 198.37 314.875C198.37 312.681 198.305 310.422 198.296 308.136C198.296 307.822 198.296 307.509 198.296 307.214L237.561 307.324L237.515 308.551L237.266 315.004V315.668C237.266 315.668 260.194 326.289 262.527 328.188C264.859 330.087 266.583 336.107 264.472 336.762Z" fill="#EBEBEB"/>
<path d="M264.473 336.762C263.385 337.112 247.012 337.075 231.007 336.762C227.79 336.697 224.554 336.623 221.539 336.54C210.125 336.227 200.694 335.757 199.818 335.185C198.942 334.614 198.555 326.095 198.38 315.659C198.38 315.511 198.38 315.364 198.38 315.216C198.38 315.069 198.38 314.986 198.38 314.875H198.426L237.267 314.949V315.613C237.267 315.613 260.205 326.224 262.528 328.123C264.851 330.022 266.584 336.107 264.473 336.762Z" fill="#A6A6A6"/>
<path d="M263.818 334.438C253.677 334.06 212.66 333.516 202.593 333.876C202.51 333.876 202.51 333.931 202.593 333.94C212.651 334.53 253.658 334.779 263.818 334.604C264.03 334.604 264.03 334.447 263.818 334.438Z" fill="#263238"/>
<path d="M241.582 315.134C237.59 314.331 232.695 314.885 229.597 317.687C229.477 317.798 229.597 317.964 229.772 317.927C233.608 316.748 237.557 315.978 241.555 315.631C241.621 315.635 241.685 315.612 241.735 315.568C241.784 315.524 241.814 315.462 241.817 315.396C241.821 315.33 241.798 315.266 241.754 315.216C241.71 315.167 241.648 315.137 241.582 315.134Z" fill="#263238"/>
<path d="M244.439 316.903C240.456 316.11 235.552 316.654 232.454 319.466C232.334 319.576 232.454 319.742 232.62 319.706C236.46 318.518 240.416 317.745 244.421 317.401C244.476 317.388 244.525 317.357 244.561 317.313C244.597 317.27 244.618 317.215 244.62 317.159C244.622 317.102 244.605 317.046 244.573 317C244.54 316.954 244.493 316.92 244.439 316.903Z" fill="#263238"/>
<path d="M247.307 318.682C243.315 317.88 238.42 318.433 235.322 321.245C235.202 321.356 235.322 321.522 235.488 321.485C239.321 320.297 243.271 319.527 247.27 319.189C247.331 319.183 247.387 319.156 247.429 319.112C247.471 319.069 247.497 319.012 247.501 318.951C247.506 318.891 247.489 318.831 247.453 318.781C247.418 318.732 247.366 318.697 247.307 318.682Z" fill="#263238"/>
<path d="M230.97 336.762C227.752 336.697 224.516 336.623 221.502 336.54C210.088 336.227 200.657 335.757 199.781 335.185C198.905 334.614 198.518 326.095 198.343 315.659C198.343 315.511 198.343 315.364 198.343 315.216C198.343 315.069 198.343 314.986 198.343 314.875H198.389C203.727 318.618 222.479 331.101 230.97 336.762Z" fill="#263238"/>
<path d="M239.894 315.096H196.49C196.49 315.096 205.23 213.684 204.888 211.95C204.455 209.682 201.892 199.421 198.481 186.016C197.412 181.822 196.259 177.323 195.061 172.658C191.825 160.046 188.257 146.263 185.15 134.268C180.485 116.3 176.853 102.342 176.853 102.342H213.638C213.638 102.342 217.925 115.931 223.327 133.614C232.132 162.35 243.895 201.901 245.057 211.517C246.929 227.052 239.894 315.096 239.894 315.096Z" fill="#37474F"/>
<path d="M237.976 307.693C231.347 307.555 233.246 307.499 226.617 307.435C223.372 307.435 202.057 307.214 199.024 307.721C198.959 307.721 198.959 307.84 199.024 307.859C202.057 308.357 223.372 308.172 226.617 308.135C233.246 308.08 231.347 308.025 237.976 307.887C238.095 307.877 238.095 307.693 237.976 307.693Z" fill="#263238"/>
<path d="M213.056 205.756C211.637 199.477 209.507 193.328 207.654 187.17C203.892 174.656 200.109 162.151 196.305 149.656C194.406 143.405 192.497 137.155 190.58 130.904C189.602 127.751 188.634 124.598 187.648 121.454C186.662 118.31 185.583 115.314 184.716 112.235C184.357 110.972 184.163 111.663 184.615 113.267C185.537 116.513 186.459 119.721 187.381 122.975C189.224 129.374 191.105 135.766 193.023 142.152C196.784 154.874 200.58 167.582 204.409 180.273L210.162 199.394C211.139 202.416 211.93 205.495 212.531 208.614C213.042 211.882 213.172 215.199 212.918 218.497C212.503 225.144 211.729 231.773 211.12 238.401C210.512 245.03 209.885 251.677 209.277 258.315C208.047 271.529 206.833 284.744 205.635 297.958C205.487 299.627 205.34 301.305 205.211 302.983C205.211 303.545 206.013 303.499 206.077 302.983C207.506 289.919 208.604 276.809 209.83 263.718C211.056 250.626 212.273 237.682 213.517 224.655C213.822 221.392 214.163 218.119 214.172 214.827C214.142 211.771 213.768 208.728 213.056 205.756Z" fill="#263238"/>
<path d="M209.453 102.342C206.899 122.099 202.031 159.142 198.482 186.016C190.184 153.454 176.844 102.342 176.844 102.342H209.453Z" fill="#263238"/>
<path d="M218.487 337.362C216.376 338.053 156.109 337.491 153.832 336.016C152.91 335.462 152.523 326.676 152.311 316.046C152.311 315.936 152.311 315.825 152.311 315.715C152.311 313.52 152.228 311.271 152.218 308.984C152.218 308.662 152.218 308.348 152.218 308.063C152.08 292.722 153.14 276.8 153.14 276.8L192.535 277.058L191.437 308.035V309.261L191.216 315.668V316.332C191.216 316.332 214.191 326.861 216.523 328.76C218.856 330.659 220.598 336.689 218.487 337.362Z" fill="#FFBB96"/>
<path d="M218.486 337.361C216.375 338.052 156.108 337.49 153.831 336.015C152.909 335.461 152.522 326.675 152.31 316.045C152.31 315.935 152.31 315.824 152.31 315.714C152.31 313.519 152.227 311.27 152.218 308.983C152.218 308.661 152.218 308.347 152.218 308.062H191.483V309.288L191.262 315.695V316.359C191.262 316.359 214.236 326.887 216.569 328.787C218.901 330.686 220.597 336.688 218.486 337.361Z" fill="#EBEBEB"/>
<path d="M218.486 337.36C216.375 338.052 156.108 337.489 153.831 336.014C152.909 335.461 152.522 326.675 152.31 316.045C152.31 315.935 152.31 315.824 152.31 315.713L191.197 315.64V316.303C191.197 316.303 214.171 326.832 216.504 328.731C218.836 330.63 220.597 336.687 218.486 337.36Z" fill="#A6A6A6"/>
<path d="M217.833 335.019C207.691 334.678 166.675 334.245 156.607 334.678C156.524 334.678 156.524 334.743 156.607 334.743C166.665 335.305 207.664 335.397 217.833 335.185C218.063 335.185 218.063 335.028 217.833 335.019Z" fill="#263238"/>
<path d="M195.522 315.797C191.53 315.013 186.635 315.576 183.537 318.397C183.417 318.508 183.537 318.673 183.703 318.637C187.532 317.438 191.479 316.653 195.476 316.295C195.542 316.301 195.608 316.281 195.659 316.238C195.71 316.196 195.742 316.135 195.748 316.069C195.754 316.003 195.734 315.937 195.691 315.886C195.649 315.835 195.588 315.803 195.522 315.797Z" fill="#263238"/>
<path d="M198.389 317.558C194.397 316.775 189.502 317.346 186.404 320.167C186.284 320.278 186.404 320.444 186.57 320.398C190.404 319.206 194.353 318.424 198.352 318.065C198.413 318.059 198.469 318.032 198.511 317.988C198.553 317.945 198.579 317.888 198.583 317.827C198.588 317.767 198.571 317.706 198.535 317.657C198.5 317.608 198.448 317.573 198.389 317.558Z" fill="#263238"/>
<path d="M201.257 319.328C197.265 318.545 192.37 319.107 189.272 321.928C189.152 322.039 189.272 322.205 189.438 322.168C193.27 320.968 197.22 320.186 201.22 319.835C201.281 319.829 201.337 319.802 201.379 319.758C201.422 319.715 201.447 319.658 201.452 319.597C201.456 319.537 201.439 319.477 201.403 319.427C201.368 319.378 201.316 319.343 201.257 319.328Z" fill="#263238"/>
<path d="M212.439 102.342C212.439 102.342 211.591 119.941 207.562 133.881C207.239 135.034 206.889 136.168 206.511 137.255C202.819 138.745 199.27 140.569 195.909 142.704C195.909 142.704 195.485 156.865 195.061 172.658C194.591 190.313 194.139 210.005 194.203 214.145C194.572 229.817 192.249 315.732 192.249 315.732L148.854 315.907C148.854 315.907 156.699 219.953 156.644 214.228C156.561 205.008 158.746 164.36 160.433 134.702C161.466 116.429 162.277 102.342 162.277 102.342H212.439Z" fill="#37474F"/>
<path d="M190.765 308.016C184.136 307.905 186.036 307.841 179.407 307.804C176.162 307.804 154.847 307.693 151.814 308.21C151.796 308.21 151.78 308.216 151.768 308.228C151.756 308.241 151.749 308.257 151.749 308.274C151.749 308.291 151.756 308.308 151.768 308.32C151.78 308.332 151.796 308.339 151.814 308.339C154.847 308.836 176.171 308.56 179.416 308.514C186.045 308.422 184.136 308.376 190.765 308.21C190.885 308.182 190.885 308.016 190.765 308.016Z" fill="#263238"/>
<path d="M165.965 108.63C165.162 132.84 164.314 157.059 163.199 181.25C162.083 205.442 160.645 229.809 158.589 254.037C157.455 267.571 156.386 286.609 154.901 300.134C154.901 300.226 155.03 300.263 155.04 300.134C158.202 276.163 159.963 246.422 161.493 222.249C163.024 198.076 164.102 173.875 164.923 149.674C165.384 135.993 165.743 122.293 166.158 108.602C166.269 108.418 165.965 108.436 165.965 108.63Z" fill="#263238"/>
<path d="M208.319 136.205C204.003 137.992 199.851 140.152 195.909 142.658C195.753 142.75 195.909 142.999 196.038 142.916C200.224 140.879 204.502 138.924 208.568 136.656C208.603 136.614 208.625 136.561 208.631 136.505C208.636 136.45 208.625 136.394 208.598 136.345C208.571 136.296 208.53 136.257 208.48 136.232C208.43 136.207 208.374 136.197 208.319 136.205Z" fill="#263238"/>
<path d="M223.318 133.614L207.562 133.881L185.15 134.268L160.433 134.702C161.465 116.429 162.276 102.342 162.276 102.342H213.591C213.591 102.342 217.915 115.931 223.318 133.614Z" fill="#263238"/>
<path d="M246.901 13.7627L240.669 41.0335C240.402 41.8263 240.817 42.4717 241.591 42.4533L255.577 42.1398C256.003 42.0986 256.408 41.9372 256.746 41.6745C257.084 41.4117 257.34 41.0583 257.485 40.6555L263.717 13.3939C263.994 12.5919 263.579 11.9557 262.795 11.9649L248.81 12.2784C248.384 12.3217 247.98 12.4839 247.642 12.7464C247.305 13.0089 247.048 13.3611 246.901 13.7627Z" fill="#A6A6A6"/>
<path d="M248.571 13.7069L242.329 40.9777C242.062 41.7797 242.477 42.4159 243.251 42.3974L257.237 42.0932C257.663 42.052 258.069 41.8907 258.406 41.6279C258.744 41.3651 259.001 41.0117 259.145 40.6089L265.378 13.3381C265.654 12.5361 265.239 11.8999 264.456 11.9184L250.47 12.2226C250.045 12.2654 249.642 12.4276 249.306 12.6902C248.97 12.9529 248.715 13.3054 248.571 13.7069Z" fill="#DBDBDB"/>
<path d="M251.244 16.0583C251.901 16.0583 252.433 15.5258 252.433 14.869C252.433 14.2122 251.901 13.6797 251.244 13.6797C250.587 13.6797 250.055 14.2122 250.055 14.869C250.055 15.5258 250.587 16.0583 251.244 16.0583Z" fill="#455A64"/>
<path d="M202.713 55.8205C210.854 72.572 228.924 94.2466 236.281 94.2374C239.784 94.2374 246.044 94.9934 250.58 90.9092C260.491 82.0034 268.641 65.0951 270.226 55.4794C270.789 52.0498 254.065 44.8679 251.64 47.6798C245.979 54.2716 239.471 67.151 238.447 67.0865C234.677 66.856 219.797 54.7879 209.406 46.2877C196.785 35.9713 199.468 49.118 202.713 55.8205Z" fill="#FFBB96"/>
<path d="M270.401 37.8069C268.557 30.8924 267.018 29.4081 268.557 22.7425C269.571 18.3633 267.211 15.8465 264.16 19.3867C259.181 25.1764 259.698 34.5986 260.822 37.8253L270.401 37.8069Z" fill="#FFBB96"/>
<path d="M269.451 58.4673C269.451 58.4673 272.42 48.7593 271.175 41.1903C270.318 35.9629 267.174 24.7891 252.423 19.0639C248.929 17.7086 242.973 18.2526 247.887 22.5488C251.372 25.6004 254.507 26.4762 256.185 28.6151C256.185 28.6151 248.699 30.2101 247.482 33.7687C246.409 36.8815 245.562 40.0673 244.946 43.3015C245.514 43.5461 246.096 43.7555 246.689 43.9284C246.689 43.9284 245.647 47.3027 248.191 52.023L269.451 58.4673Z" fill="#FFBB96"/>
<path d="M269.561 36.3317C267.413 34.5616 262.813 30.8831 258 29.196C252.653 27.3521 241.857 25.121 240.483 29.0853C239.497 31.9894 243.553 33.1787 243.553 33.1787C243.553 33.1787 238.898 33.1787 238.575 36.0367C238.28 38.6089 241.47 39.3465 241.47 39.3465C241.47 39.3465 238.649 39.8535 238.852 42.3796C239.082 45.422 244.955 43.8547 247.85 46.7311C248.486 47.3765 269.561 36.3317 269.561 36.3317Z" fill="#FFBB96"/>
<path d="M256.951 35.1705C252.832 33.146 248.195 32.4256 243.656 33.1053C243.546 33.1053 243.5 33.2252 243.61 33.2252C248.119 33.3488 252.595 34.0206 256.941 35.2258C256.941 35.2258 256.978 35.1889 256.951 35.1705Z" fill="#263238"/>
<path d="M254.941 40.5081C252.848 39.5861 246.643 38.0926 241.545 39.245C241.434 39.245 241.397 39.3649 241.499 39.3649C246.007 39.2546 250.514 39.6567 254.931 40.5634C254.931 40.5634 254.941 40.5265 254.941 40.5081Z" fill="#263238"/>
<path d="M270.475 62.5142C270.475 62.5142 257.181 89.5913 249.27 92.8089C241.36 96.0264 236.64 95.3903 233.69 94.9846C232.55 94.7316 231.48 94.2312 230.555 93.5188C222.497 87.9226 207.949 67.9444 201.975 56.6876C197.513 48.2242 197.9 40.5077 204.529 42.8586C206.771 43.7856 208.845 45.0751 210.669 46.6754C222.931 56.6876 237.138 66.1927 237.802 65.8331C238.465 65.4736 245.306 54.3366 245.306 54.3366L270.475 62.5142Z" fill="#37474F"/>
<path d="M230.591 93.5188C222.534 87.9226 207.986 67.9444 202.011 56.6876C197.549 48.2242 197.936 40.5077 204.565 42.8586C208.05 49.5518 223.142 78.6203 230.591 93.5188Z" fill="#263238"/>
<path d="M267.166 67.456C266.244 66.9674 265.257 66.6539 264.308 66.2483C263.358 65.8426 262.39 65.4831 261.422 65.1143C259.578 64.4259 257.7 63.7529 255.789 63.0953L250.147 61.1039C248.201 60.4309 246.247 59.6472 244.256 59.1309C244.247 59.1279 244.238 59.1266 244.229 59.127C244.22 59.1275 244.211 59.1297 244.203 59.1336C244.195 59.1374 244.188 59.1428 244.182 59.1495C244.176 59.1562 244.171 59.164 244.168 59.1724C244.165 59.1809 244.164 59.1899 244.164 59.1989C244.165 59.2079 244.167 59.2167 244.171 59.2248C244.174 59.233 244.18 59.2402 244.187 59.2463C244.193 59.2523 244.201 59.257 244.21 59.26C246.053 60.182 248.063 60.7904 249.99 61.5187L255.688 63.6669C257.587 64.3767 259.495 65.0774 261.413 65.7504C262.335 66.0823 263.257 66.405 264.252 66.6723C265.198 67.0144 266.162 67.3067 267.138 67.5482C267.221 67.6035 267.23 67.4929 267.166 67.456Z" fill="#263238"/>
<path d="M219.85 117.665C218.855 118.651 157.694 115.415 157.399 115.019C156.597 113.94 174.759 51.2393 189.104 40.9413C192.183 38.7287 203.505 39.6967 205.026 40.3882C206.75 41.1626 211.286 49.8749 213.185 56.8723C216.983 70.8857 220.717 116.798 219.85 117.665Z" fill="#EBEBEB"/>
<path d="M199.366 54.7516L202.473 49.8838L205.912 54.0786L204.806 58.0152L201.164 58.2826L199.366 54.7516Z" fill="#4668D6"/>
<path d="M201.164 58.283L197.228 98.8204L204.114 112.677L208.89 97.7694L204.806 58.0156L201.164 58.283Z" fill="#4668D6"/>
<path d="M224.987 131.751C224.987 131.751 216.929 131.346 206.151 130.765C205.442 126.939 203.939 117.6 203.782 117.6C203.662 117.802 200.666 126.819 199.689 130.424C189.225 129.843 177.378 129.179 168.048 128.58C158.718 127.981 151.767 127.437 151.407 127.151C151.048 126.865 156.339 114.382 156.939 112.538C161.548 97.9532 169.726 68.9953 175.921 58.2456C178.668 53.3476 181.82 48.6878 185.343 44.3152C185.703 43.9003 186.026 43.5131 186.339 43.1628L188.561 40.6367L205.156 75.3106C205.211 74.6468 207.424 43.2827 207.424 43.2827C212.118 50.9162 215.543 59.2604 217.565 67.9904C221.253 84.364 220.967 108.122 221.907 119.48C221.917 119.48 224.987 131.521 224.987 131.751Z" fill="#37474F"/>
<path d="M185.334 44.3154L168.048 128.58C158.635 127.962 151.767 127.437 151.407 127.151C151.048 126.865 156.339 114.382 156.939 112.538C161.548 97.9534 169.726 68.9956 175.921 58.2458C178.665 53.3481 181.814 48.6884 185.334 44.3154Z" fill="#263238"/>
<path d="M205.157 75.3115C205.24 78.8425 205.212 82.3643 205.157 85.8953C205.102 89.4263 205 92.9481 204.927 96.4699C204.853 99.9916 204.668 103.513 204.484 107.035L204.189 112.318C204.051 114.079 203.949 115.84 203.793 117.601C203.737 115.83 203.793 114.07 203.737 112.309V107.017C203.737 103.486 203.894 99.964 203.968 96.4422C204.042 92.9204 204.226 89.3986 204.41 85.8769C204.595 82.3551 204.825 78.8333 205.157 75.3115Z" fill="#263238"/>
<path d="M201.127 89.4905C202.1 89.4905 202.888 88.7022 202.888 87.7296C202.888 86.7571 202.1 85.9688 201.127 85.9688C200.155 85.9688 199.366 86.7571 199.366 87.7296C199.366 88.7022 200.155 89.4905 201.127 89.4905Z" fill="#263238"/>
<path d="M200.52 99.4564C201.492 99.4564 202.281 98.668 202.281 97.6955C202.281 96.723 201.492 95.9346 200.52 95.9346C199.547 95.9346 198.759 96.723 198.759 97.6955C198.759 98.668 199.547 99.4564 200.52 99.4564Z" fill="#263238"/>
<path d="M199.91 109.413C200.883 109.413 201.671 108.625 201.671 107.652C201.671 106.68 200.883 105.892 199.91 105.892C198.938 105.892 198.149 106.68 198.149 107.652C198.149 108.625 198.938 109.413 199.91 109.413Z" fill="#263238"/>
<path d="M187.307 167.191H108.427V214.984H187.307V167.191Z" fill="#4668D6"/>
<path opacity="0.1" d="M187.307 167.191H108.427V189.696H187.307V167.191Z" fill="black"/>
<path d="M189.179 160.165H106.564V182.467H189.179V160.165Z" fill="#4668D6"/>
<path d="M165.264 147.442V160.165H159.281V152.928H136.463V160.165H130.479V147.442H165.264Z" fill="#263238"/>
<path d="M123.287 177.147H117.903V187.805H123.287V177.147Z" fill="#263238"/>
<path d="M177.838 177.147H172.454V187.805H177.838V177.147Z" fill="#263238"/>
<path d="M181.084 46.0862C161.29 59.7031 146.973 81.0366 145.627 85.5449C142.298 96.4513 137.329 115.692 136.564 124.331C136.278 127.52 160.894 126.921 161.309 123.519C162.59 112.862 167.172 89.6659 167.292 89.2695C168.113 86.5037 175.092 74.3157 182.273 61.1044C189.455 47.8931 189.409 40.361 181.084 46.0862Z" fill="#FFBB96"/>
<path d="M159.346 157.179C158.598 157.403 157.801 157.393 157.059 157.151C156.318 156.908 155.668 156.445 155.197 155.823C154.36 156.845 153.193 157.542 151.896 157.796C149.582 158.137 148.043 154.662 148.043 154.662C146.952 155.541 145.622 156.074 144.226 156.192C141.976 156.284 139.93 153.002 139.93 153.002C138.478 153.255 136.984 152.98 135.717 152.228C133.596 150.854 132.545 144.069 132.582 140.243C132.619 136.417 136.27 125.621 136.786 123.491H161.309C161.309 123.491 166.02 140.667 165.338 145.157C164.767 148.964 162.167 156.22 159.346 157.179Z" fill="#FFBB96"/>
<path d="M155.592 155.657C157.169 151.785 157.51 147.655 158.081 143.562C158.081 143.469 157.952 143.451 157.943 143.562C157.417 147.637 156.099 151.564 155.398 155.62C155.4 155.643 155.408 155.665 155.423 155.682C155.438 155.699 155.458 155.711 155.481 155.715C155.503 155.719 155.526 155.716 155.546 155.705C155.567 155.695 155.583 155.678 155.592 155.657Z" fill="#263238"/>
<path d="M148.365 154.578C148.64 153.665 148.792 152.72 148.817 151.766C148.897 150.764 148.971 149.76 149.038 148.752C149.149 146.736 149.21 144.714 149.223 142.685C149.223 142.602 149.093 142.575 149.084 142.685C148.964 144.695 148.817 146.705 148.614 148.715C148.513 149.72 148.402 150.715 148.291 151.72C148.118 152.656 148.05 153.609 148.089 154.56C148.097 154.589 148.114 154.615 148.138 154.634C148.161 154.653 148.19 154.664 148.22 154.666C148.251 154.668 148.281 154.66 148.307 154.645C148.332 154.629 148.353 154.606 148.365 154.578Z" fill="#263238"/>
<path d="M139.929 152.919C140.17 152.09 140.263 151.226 140.205 150.365C140.205 149.443 140.242 148.521 140.316 147.599C140.399 145.755 140.491 143.911 140.639 142.068C140.633 142.054 140.624 142.041 140.612 142.033C140.599 142.024 140.585 142.02 140.57 142.02C140.555 142.02 140.54 142.024 140.527 142.033C140.515 142.041 140.506 142.054 140.5 142.068C140.334 143.911 140.15 145.755 140.003 147.664C139.929 148.586 139.864 149.508 139.8 150.43C139.657 151.259 139.657 152.107 139.8 152.937C139.8 152.937 139.92 152.956 139.929 152.919Z" fill="#263238"/>
<path d="M162.479 123.795L135.577 121.628C135.577 121.628 141.505 92.6522 144.714 84.825C147.922 76.9977 168.333 54.0969 180.337 45.7166C191.631 37.8433 191.28 45.0989 186.035 55.4153C180.789 65.7317 168.444 89.324 167.854 91.1863C167.264 93.0486 162.479 123.795 162.479 123.795Z" fill="#37474F"/>
<path d="M162 118.264C160.995 118.034 159.944 117.997 158.93 117.859C157.915 117.72 156.874 117.619 155.841 117.527C153.859 117.342 151.868 117.195 149.876 117.056L143.911 116.642C141.865 116.503 139.772 116.264 137.716 116.291C137.624 116.291 137.605 116.42 137.716 116.43C139.744 116.789 141.837 116.891 143.893 117.084L149.95 117.656C151.978 117.84 153.997 118.015 156.025 118.154C157.021 118.227 158.017 118.292 159.012 118.32C160.008 118.347 161.022 118.467 162.027 118.402C162.092 118.375 162.073 118.264 162 118.264Z" fill="#263238"/>
<path d="M188.377 40.9688C187.805 42.8126 187.188 44.721 186.598 46.5925C186.008 48.4641 185.353 50.3264 184.754 52.1979L184.486 51.7554C185.888 51.9121 187.252 52.0319 188.681 52.2071L192.876 52.6865L193.586 52.7695L193.162 53.3595C191.383 55.8211 189.622 58.3011 187.787 60.735L187.713 60.1449C190.645 62.6434 193.614 65.1049 196.499 67.6495C199.385 70.194 202.307 72.7109 205.156 75.3107C202.083 72.9629 199.062 70.572 196.094 68.1381C193.07 65.7411 190.129 63.2611 187.151 60.8179L186.837 60.5598L187.077 60.2187C188.847 57.7387 190.673 55.3048 192.489 52.8432L192.775 53.507L188.561 52.9907C187.16 52.8248 185.796 52.6035 184.376 52.4191L183.961 52.3546L184.108 51.9766C184.809 50.1328 185.491 48.2889 186.201 46.445C186.911 44.6012 187.639 42.785 188.377 40.9688Z" fill="#263238"/>
<path d="M206.999 42.4619C207.47 43.3009 207.921 44.1398 208.364 44.988C208.806 45.8362 209.286 46.6659 209.701 47.5233L212.31 52.6308L212.614 53.2301H211.932L207.802 53.0273L208.161 52.2897C209.627 53.9584 211.093 55.6179 212.531 57.2958L212.706 57.5079L212.605 57.766C211.425 60.7162 210.217 63.6664 208.963 66.5889C207.709 69.5114 206.456 72.4524 205.128 75.3472C206.16 72.3294 207.239 69.3301 208.364 66.3492C209.489 63.3683 210.626 60.3966 211.775 57.4341L211.849 57.8951C210.383 56.2356 208.945 54.5485 207.497 52.8705L206.797 52.0592L207.857 52.1422L211.978 52.4464L211.6 53.0088L209.258 47.7722C208.862 46.9056 208.493 46.0206 208.115 45.1447C207.737 44.2689 207.359 43.347 206.999 42.4619Z" fill="#263238"/>
<path d="M203.312 48.6018C199.993 49.5975 193.908 44.7943 191.373 40.7562C191.207 40.4704 191.465 37.4372 191.613 33.7219C191.686 31.4723 191.723 28.9647 191.613 26.6691C191.613 26.1989 193.235 26.9733 193.235 26.9733L196.241 27.5172L206.188 29.3611C205.541 32.2775 205.25 35.2619 205.322 38.2485C205.345 38.5601 205.397 38.8689 205.479 39.1705C205.476 39.2227 205.476 39.275 205.479 39.3272C205.912 41.0604 206.557 47.643 203.312 48.6018Z" fill="#FFBB96"/>
<path d="M205.487 39.1349C205.485 39.1871 205.485 39.2394 205.487 39.2916C205.001 39.3879 204.508 39.4435 204.012 39.4576C194.323 39.8079 192.387 27.5739 192.387 27.5739L196.222 27.5186L206.17 29.3624C205.522 32.2789 205.231 35.2632 205.303 38.2499C205.337 38.5499 205.399 38.8462 205.487 39.1349Z" fill="#263238"/>
<path d="M188.616 9.82603C187.408 15.0257 191.105 29.5554 194.949 32.5886C200.481 36.9862 209.156 36.8571 212.761 30.2653C216.264 23.8763 211.111 5.03199 206.861 2.32151C200.601 -1.66124 190.404 2.14634 188.616 9.82603Z" fill="#FFBB96"/>
<path d="M203.312 17.8652C203.312 17.8652 203.248 17.9298 203.257 17.9759C203.533 18.8978 203.681 20.1055 202.879 20.6495C202.879 20.6495 202.879 20.714 202.879 20.7048C203.93 20.2807 203.718 18.7411 203.312 17.8652Z" fill="#263238"/>
<path d="M202.17 17.0629C200.566 17.3303 201.248 20.5294 202.714 20.2713C204.18 20.0131 203.516 16.8509 202.17 17.0629Z" fill="#263238"/>
<path d="M208.845 16.7402C208.845 16.7402 208.928 16.7402 208.937 16.814C209.112 17.8097 209.481 18.9252 210.44 19.0635V19.1188C209.324 19.1926 208.845 17.7175 208.845 16.7402Z" fill="#263238"/>
<path d="M209.507 15.5333C211.074 15.0816 211.858 18.2438 210.429 18.6587C209 19.0735 208.198 15.9297 209.507 15.5333Z" fill="#263238"/>
<path d="M200.611 15.8659C201.017 15.6631 201.367 15.4142 201.754 15.1745C202.141 14.9348 202.565 14.732 202.787 14.2525C202.834 14.1084 202.833 13.9526 202.783 13.8093C202.733 13.666 202.637 13.5432 202.51 13.4597C202.233 13.3332 201.927 13.2827 201.624 13.3135C201.321 13.3443 201.032 13.4552 200.786 13.6349C200.246 13.9373 199.833 14.4253 199.625 15.0085C199.593 15.1395 199.599 15.2766 199.64 15.4048C199.681 15.533 199.757 15.6475 199.858 15.7358C199.96 15.8242 200.084 15.883 200.216 15.9059C200.349 15.9289 200.486 15.915 200.611 15.8659Z" fill="#263238"/>
<path d="M210.41 13.6608C209.964 13.6671 209.517 13.6456 209.074 13.5963C208.599 13.6409 208.122 13.5274 207.718 13.2736C207.607 13.1695 207.534 13.0313 207.511 12.8809C207.488 12.7306 207.515 12.5768 207.589 12.4439C207.773 12.2005 208.019 12.0107 208.301 11.894C208.583 11.7773 208.891 11.738 209.193 11.7801C209.817 11.7717 210.422 11.9951 210.89 12.407C210.989 12.5078 211.057 12.635 211.086 12.7735C211.115 12.912 211.104 13.0559 211.053 13.1881C211.003 13.3203 210.915 13.4351 210.801 13.5189C210.687 13.6028 210.552 13.652 210.41 13.6608Z" fill="#263238"/>
<path d="M187.686 8.16661C189.364 0.486918 201.515 -1.191 205.074 0.726621C207.048 1.7818 208.583 3.50357 209.407 5.5852C209.407 5.5852 208.383 3.79665 207.084 3.98104C205.784 4.16543 206.033 5.82491 204.373 6.69152C202.714 7.55814 200.178 5.94475 197.265 6.83903C194.352 7.7333 193.236 10.4438 193.153 12.9238C193.07 15.4038 194.075 24.5033 192.111 25.25C190.148 25.9968 186.331 14.3804 187.686 8.16661Z" fill="#263238"/>
<path d="M192.581 21.5992C192.581 21.5992 188.838 17.1462 186.782 18.5199C184.726 19.8936 187.842 26.5592 190.47 27.2783C190.799 27.3941 191.148 27.4421 191.496 27.4193C191.844 27.3966 192.183 27.3036 192.494 27.1459C192.805 26.9882 193.081 26.7692 193.305 26.502C193.529 26.2347 193.697 25.9249 193.798 25.5911L192.581 21.5992Z" fill="#FFBB96"/>
<path d="M187.723 20.4092C187.723 20.4092 187.677 20.4645 187.723 20.4829C189.567 21.0361 190.645 22.6034 191.41 24.2536C191.292 24.0845 191.139 23.9431 190.961 23.8392C190.783 23.7353 190.584 23.6715 190.379 23.6522C190.173 23.6329 189.966 23.6586 189.772 23.7274C189.578 23.7963 189.4 23.9066 189.253 24.0508C189.207 24.0508 189.253 24.1614 189.308 24.143C189.611 24.0173 189.945 23.9879 190.265 24.0588C190.585 24.1298 190.876 24.2976 191.097 24.5394C191.454 24.9489 191.763 25.3974 192.019 25.8762C192.12 26.0237 192.397 25.8762 192.323 25.7379C192.249 23.4331 190.175 20.4184 187.723 20.4092Z" fill="#263238"/>
<path d="M205.618 39.6876L202.022 48.3445L191.328 37.2168L188.221 40.7109C188.221 40.7109 198.611 58.3383 198.703 57.5362L202.391 50.0778L207.508 55.3512L207.24 42.2506L205.618 39.6876Z" fill="#EBEBEB"/>
<path d="M207.7 48.8697C207.59 46.7032 207.534 44.5274 207.313 42.4162C207.313 42.3424 207.184 42.3056 207.165 42.4162C206.704 44.4998 207.165 52.7695 207.165 54.7516C206.953 54.5212 202.417 50.142 202.371 50.142C201.579 51.3221 198.886 56.7522 198.684 57.2501C197.043 54.4843 190.746 44.2785 188.801 41.6233C188.745 41.5496 188.625 41.6233 188.671 41.6971C190.11 44.6473 198.435 58.3472 198.573 58.2919C199.985 55.7314 201.265 53.1005 202.408 50.4093C203.173 51.3313 207.746 56.3466 207.765 56.0239C207.869 53.6397 207.848 51.2516 207.7 48.8697Z" fill="#263238"/>
<path d="M21.9403 207.618C25.3698 204.262 29.7951 200.243 35.0409 201.653C39.964 203.018 41.854 208.392 42.739 212.882C43.873 218.663 44.7581 224.499 45.68 230.316C46.6019 236.133 47.5239 242.071 48.326 247.962C48.7961 251.281 49.2479 254.609 49.7365 257.928L50.428 262.916C50.6584 264.547 50.9258 266.179 51.018 267.82C51.018 268.346 50.2251 268.419 50.0961 267.922C49.4599 265.156 49.1741 262.27 48.7961 259.449C48.4181 256.628 47.9756 253.788 47.5607 250.967C46.7433 245.344 45.9043 239.723 45.0439 234.105C44.1834 228.488 43.3137 222.873 42.4348 217.261C41.6696 212.504 41.31 206.585 37.0968 203.432C35.9532 202.647 34.6279 202.167 33.2468 202.038C31.8656 201.909 30.4744 202.135 29.2051 202.695C26.4393 203.755 24.2082 205.737 22.0417 207.71C22.0284 207.717 22.0135 207.719 21.9989 207.717C21.9843 207.715 21.9706 207.708 21.9597 207.699C21.9488 207.689 21.9411 207.676 21.9376 207.661C21.9341 207.647 21.9351 207.632 21.9403 207.618Z" fill="#263238"/>
<path d="M26.6338 204.188C26.6338 204.188 33.6773 201.662 37.0977 206.77C40.5181 211.877 36.4431 224.904 4.5166 232.243C5.45497 222.268 8.04723 212.519 12.1871 203.395C19.0278 188.479 31.2158 194.13 26.6338 204.188Z" fill="#3ACC6C"/>
<path d="M6.35124 230.113C6.83101 229.217 7.36679 228.352 7.9554 227.523C8.49012 226.702 9.02484 225.882 9.56878 225.07C9.98365 224.453 10.3985 223.844 10.8226 223.226C10.7914 223.074 10.7699 222.92 10.7581 222.765L10.6474 221.936C10.5737 221.336 10.4815 220.746 10.3985 220.147C10.3156 219.548 10.2141 218.958 10.0943 218.368C10.0202 217.74 9.88121 217.123 9.67942 216.524C9.67942 216.432 9.80849 216.386 9.81771 216.524C9.88592 216.881 9.98147 217.232 10.1035 217.575C10.1773 217.842 10.251 218.119 10.3156 218.386C10.4723 218.986 10.6198 219.594 10.7581 220.23C10.8964 220.866 10.9886 221.364 11.0808 221.926C11.0808 222.203 11.1729 222.47 11.2098 222.747C11.7814 221.936 12.353 221.134 12.9523 220.341C14.6486 218.11 16.4372 215.962 18.2995 213.887V213.832C18.1335 210.476 18.2165 207.157 17.479 203.857C17.479 203.774 17.5896 203.718 17.608 203.811C18.4277 206.88 18.8186 210.047 18.7697 213.223C19.4335 212.477 20.1065 211.739 20.7795 211.011C22.3406 209.333 23.9263 207.689 25.5367 206.078C25.5508 206.07 25.5674 206.066 25.5838 206.068C25.6003 206.07 25.6156 206.078 25.6273 206.089C25.639 206.101 25.6465 206.116 25.6484 206.133C25.6504 206.149 25.6467 206.166 25.6381 206.18C22.9552 209.075 20.4015 212.089 17.9123 215.16C19.8599 215.129 21.8078 215.199 23.7481 215.372C25.9054 215.537 28.0628 215.814 30.2016 216.109C30.2846 216.109 30.257 216.266 30.2016 216.247C28.0618 215.943 25.9078 215.749 23.7481 215.667C21.6645 215.584 19.5902 215.667 17.5158 215.667C16.1698 217.326 14.8422 219.004 13.5331 220.7H13.8281C14.3167 220.7 14.8054 220.7 15.294 220.7C16.262 220.7 17.2393 220.792 18.1981 220.875C20.1794 221.033 22.1477 221.326 24.0892 221.751C24.1004 221.747 24.1124 221.746 24.1242 221.747C24.136 221.749 24.1472 221.753 24.157 221.76C24.1668 221.767 24.1747 221.776 24.1803 221.786C24.1858 221.797 24.1886 221.809 24.1886 221.82C24.1886 221.832 24.1858 221.844 24.1803 221.855C24.1747 221.865 24.1668 221.874 24.157 221.881C24.1472 221.888 24.136 221.892 24.1242 221.894C24.1124 221.895 24.1004 221.894 24.0892 221.89C22.1347 221.668 20.171 221.493 18.1981 221.419C17.2761 221.419 16.3542 221.419 15.377 221.419H13.865C13.5924 221.452 13.3159 221.427 13.0537 221.346C12.1963 222.461 11.3389 223.568 10.4907 224.692C9.80849 225.614 9.1447 226.481 8.49012 227.384C7.83555 228.288 7.20864 229.33 6.46187 230.196C6.40656 230.261 6.31436 230.187 6.35124 230.113Z" fill="#263238"/>
<path d="M23.5813 211.435C24.712 211.287 25.8528 211.232 26.9925 211.269C28.1265 211.269 29.2697 211.269 30.4036 211.343C30.4148 211.339 30.4268 211.337 30.4386 211.339C30.4504 211.34 30.4617 211.345 30.4714 211.351C30.4812 211.358 30.4892 211.367 30.4947 211.378C30.5002 211.388 30.5031 211.4 30.5031 211.412C30.5031 211.424 30.5002 211.436 30.4947 211.446C30.4892 211.457 30.4812 211.466 30.4714 211.472C30.4617 211.479 30.4504 211.484 30.4386 211.485C30.4268 211.487 30.4148 211.485 30.4036 211.481C29.2512 211.398 28.0988 211.38 26.9464 211.398C25.794 211.417 24.7061 211.518 23.5906 211.49C23.5353 211.49 23.5353 211.444 23.5813 211.435Z" fill="#263238"/>
<path d="M13.5594 214.008C13.4303 212.92 13.292 211.823 13.0615 210.754C13.0615 210.652 13.1906 210.615 13.1998 210.754C13.3658 211.832 13.5778 212.892 13.7345 213.971C13.8175 214.506 13.8913 215.04 13.9558 215.584C14.0494 216.086 14.0927 216.596 14.0849 217.106C14.0849 217.13 14.0752 217.153 14.0579 217.171C14.0406 217.188 14.0171 217.198 13.9927 217.198C13.9682 217.198 13.9448 217.188 13.9275 217.171C13.9102 217.153 13.9005 217.13 13.9005 217.106C13.799 216.608 13.7434 216.102 13.7345 215.594C13.6792 215.068 13.6239 214.524 13.5594 214.008Z" fill="#263238"/>
<path d="M15.6644 201.93C15.941 202.99 16.2175 204.069 16.4204 205.148C16.5126 205.691 16.5955 206.245 16.6785 206.798C16.7768 207.33 16.8108 207.871 16.7799 208.411C16.7799 208.411 16.7062 208.457 16.697 208.411C16.5678 207.91 16.4845 207.397 16.448 206.881C16.3743 206.346 16.2913 205.821 16.1991 205.295C16.0055 204.18 15.8119 203.073 15.5261 201.985C15.5077 201.893 15.646 201.847 15.6644 201.93Z" fill="#263238"/>
<path d="M57.205 266.641C57.3894 264.631 57.583 262.63 57.7951 260.62C58.2099 256.647 58.717 252.683 59.2333 248.718C59.7496 244.754 60.2658 240.817 60.902 236.881C61.1399 235.055 61.5473 233.256 62.1189 231.506C62.3271 230.756 62.7035 230.063 63.2195 229.48C63.7354 228.897 64.3774 228.439 65.0968 228.141C68.849 226.85 71.3843 230.741 72.8963 233.497C72.8963 233.58 72.8226 233.635 72.7765 233.562C71.8545 232.262 69.3561 228.592 66.5073 228.768C64.5989 228.878 63.0593 230.243 62.1466 235.018C59.851 246.921 57.7858 271.075 57.5369 272.661C57.4079 273.5 56.8178 273.463 56.8086 272.559C56.8086 270.586 57.0391 268.614 57.205 266.641Z" fill="#263238"/>
<path d="M71.8907 232.012C71.8907 232.012 68.6086 220.423 75.855 226.222C87.9323 235.866 88.3656 256.84 88.3656 256.84C88.3656 256.84 66.8661 244.375 64.2294 236.152C60.2559 223.899 71.8907 232.012 71.8907 232.012Z" fill="#3ACC6C"/>
<path d="M67.7896 237.701C69.4768 238.042 71.1823 238.263 72.8787 238.512L75.2942 238.853C75.8381 238.927 76.3913 238.973 76.9444 239.047C75.3403 236.844 73.7269 234.649 72.1965 232.4C72.1412 232.317 72.2702 232.225 72.344 232.298C73.6167 233.609 74.8141 234.991 75.9303 236.438C76.2438 235.516 76.5664 234.64 76.8522 233.746C77.2118 232.704 77.6082 231.672 77.8756 230.602C77.8756 230.519 78.0323 230.556 78.0046 230.602C77.7188 231.662 77.5068 232.75 77.221 233.81C76.9652 234.839 76.6575 235.855 76.2991 236.853C77.0919 237.876 77.8387 238.918 78.5762 239.978C78.945 238.927 79.406 237.913 79.7287 236.853C79.7367 236.837 79.7501 236.825 79.7664 236.818C79.7827 236.812 79.8009 236.811 79.8176 236.817C79.8343 236.822 79.8484 236.833 79.8575 236.849C79.8665 236.864 79.8699 236.882 79.8669 236.899C79.4797 238.07 79.2677 239.296 78.945 240.476C79.4429 241.195 79.9315 241.914 80.4017 242.643C81.2683 243.979 82.0888 245.344 82.8817 246.717C82.9445 246.743 82.9974 246.788 83.0323 246.847C83.0672 246.905 83.0823 246.973 83.0753 247.04C84.4305 249.391 85.7212 251.77 86.9935 254.167C87.0033 254.184 87.0058 254.204 87.0007 254.223C86.9955 254.242 86.9829 254.258 86.9658 254.268C86.9487 254.278 86.9284 254.28 86.9094 254.275C86.8904 254.27 86.8742 254.258 86.8644 254.24C85.5921 251.871 84.1724 249.557 82.6973 247.289C82.4682 247.223 82.2337 247.176 81.9966 247.151L81.2498 246.994C80.6967 246.874 80.1435 246.727 79.5996 246.588C78.5025 246.321 77.433 246.063 76.3267 245.869C76.2345 245.869 76.2714 245.722 76.3267 245.74C77.6267 245.98 78.9358 246.127 80.2449 246.284C80.8626 246.358 81.4803 246.432 82.0888 246.533H82.181C81.4066 245.365 80.6229 244.204 79.8301 243.048C79.0556 241.914 78.2536 240.799 77.4423 239.683C76.7047 239.582 75.9672 239.388 75.2296 239.241L72.7312 238.761C71.0717 238.429 69.4215 238.061 67.7435 237.784C67.6974 237.821 67.7343 237.683 67.7896 237.701Z" fill="#263238"/>
<path d="M80.6954 238.844C80.7968 238.54 80.889 238.227 80.9904 237.922C81.1932 237.277 81.3407 236.632 81.479 235.977C81.479 235.885 81.6357 235.931 81.6173 236.023C81.479 236.678 81.3223 237.323 81.1748 237.978C81.038 238.634 80.85 239.278 80.6124 239.904C80.5479 240.052 80.3174 239.997 80.3635 239.831C80.4833 239.499 80.6124 239.167 80.6954 238.844Z" fill="#263238"/>
<path d="M65.6315 235.018C66.6088 235.166 67.5953 235.23 68.5817 235.322C69.5682 235.415 70.5454 235.544 71.5319 235.691C71.5872 235.691 71.5872 235.783 71.5319 235.774C70.5362 235.71 69.559 235.636 68.5725 235.507C67.586 235.378 66.618 235.23 65.6223 235.166C65.5301 235.156 65.5394 235 65.6315 235.018Z" fill="#263238"/>
<path d="M41.4114 251.945C41.7986 243.418 42.3334 234.899 43.1908 226.408C43.6241 222.176 44.1127 217.945 44.6935 213.741C45.2259 209.599 46.0422 205.499 47.1366 201.47C47.8843 198.352 49.265 195.421 51.1931 192.859C52.1534 191.6 53.4201 190.607 54.8725 189.976C56.3249 189.345 57.9148 189.096 59.4905 189.254C63.1782 189.715 66.2206 192.066 68.8297 194.62C71.743 197.487 74.4166 200.621 77.1271 203.691C77.8093 204.466 78.4823 205.24 79.1553 206.033C79.1614 206.04 79.1661 206.048 79.1691 206.056C79.1722 206.065 79.1735 206.074 79.1731 206.083C79.1726 206.092 79.1705 206.1 79.1666 206.108C79.1628 206.117 79.1574 206.124 79.1507 206.13C79.1441 206.136 79.1363 206.141 79.1278 206.144C79.1193 206.147 79.1104 206.148 79.1014 206.148C79.0924 206.147 79.0836 206.145 79.0754 206.141C79.0673 206.137 79.06 206.132 79.0539 206.125C76.408 203.092 73.6698 200.142 70.7565 197.33C68.1014 194.721 65.3724 191.872 61.6939 190.794C59.9874 190.248 58.1594 190.206 56.4297 190.674C55.0559 191.112 53.8178 191.896 52.8342 192.951C50.8707 195.22 49.4797 197.926 48.7777 200.843C46.482 208.679 45.6615 216.903 44.8041 224.997C43.9467 233.092 43.3567 241.472 42.9603 249.733C42.5638 257.993 42.2227 266.328 41.4206 274.625C41.3284 275.648 41.1902 276.662 41.0611 277.686C40.9781 278.368 39.9087 278.368 39.964 277.686C40.637 269.112 41.0519 260.547 41.4114 251.945Z" fill="#263238"/>
<path d="M69.2732 195.55C69.2732 195.55 64.4054 186.533 70.1951 183.639C75.9848 180.744 95.2163 202.252 100.849 233.69C100.849 233.69 69.7341 219.926 59.1688 206.207C48.6034 192.489 60.5425 189.474 69.2732 195.55Z" fill="#3ACC6C"/>
<path d="M64.7004 202.879C68.2037 202.879 71.6886 202.612 75.1828 202.639C74.5282 201.883 73.8736 201.137 73.2098 200.39C72.2213 199.389 71.2975 198.327 70.444 197.209C70.444 197.135 70.4994 197.034 70.5731 197.089C71.5163 197.911 72.4005 198.798 73.2191 199.744C74.0949 200.666 74.9615 201.588 75.8281 202.51C77.1649 203.958 78.4741 205.424 79.7832 206.899C79.7832 206.76 79.7832 206.613 79.7832 206.475C79.7832 205.866 79.7832 205.248 79.7832 204.631C79.7832 203.441 79.7832 202.261 79.7832 201.072C79.7832 198.666 79.7832 196.25 79.5988 193.853C79.5988 193.761 79.7371 193.761 79.7463 193.853C79.9123 196.269 80.1612 198.666 80.2811 201.081C80.3364 202.271 80.364 203.46 80.3825 204.64C80.3825 205.258 80.3825 205.866 80.3825 206.484C80.3825 206.816 80.3825 207.166 80.3825 207.507L81.0002 208.199C83.766 211.388 86.4396 214.652 89.021 218.036C89.021 217.851 89.021 217.667 89.0671 217.482C89.0671 217.114 89.15 216.745 89.1961 216.376C89.2791 215.574 89.3897 214.772 89.5096 213.97C89.6294 213.168 89.7401 212.476 89.8692 211.73C89.9982 210.983 90.2195 210.033 90.284 209.185C90.284 209.084 90.4408 209.102 90.4223 209.185C90.278 210.033 90.1796 210.889 90.1273 211.748C90.0535 212.522 89.989 213.288 89.9152 214.053C89.8415 214.818 89.777 215.602 89.694 216.367C89.694 216.736 89.6294 217.104 89.5834 217.473C89.5834 217.658 89.5834 217.851 89.5188 218.036C89.4982 218.188 89.4481 218.335 89.3713 218.469L90.6989 220.211C92.4598 222.544 94.193 224.904 95.9263 227.264C95.9816 227.338 95.8802 227.439 95.8248 227.366C94.1838 225.227 92.5028 223.119 90.7819 221.041C89.5004 221.096 88.2005 221.041 86.919 220.977C85.6375 220.912 84.2177 220.977 82.8717 220.977C82.8521 220.977 82.8334 220.969 82.8195 220.955C82.8057 220.941 82.7979 220.922 82.7979 220.903C82.7979 220.883 82.8057 220.865 82.8195 220.851C82.8334 220.837 82.8521 220.829 82.8717 220.829C84.2269 220.829 85.5729 220.829 86.919 220.829C88.265 220.829 89.4082 220.774 90.6067 220.829C89.1039 218.985 87.5828 217.141 86.0616 215.371L84.3837 213.49C83.8643 213.56 83.3394 213.578 82.8164 213.546H80.9725C79.8201 213.546 78.6677 213.546 77.5245 213.546C75.1459 213.546 72.7673 213.435 70.3979 213.426C70.3784 213.426 70.3596 213.418 70.3458 213.404C70.332 213.391 70.3242 213.372 70.3242 213.352C70.3242 213.333 70.332 213.314 70.3458 213.3C70.3596 213.286 70.3784 213.278 70.3979 213.278C72.7765 213.278 75.1551 213.149 77.5337 213.085C78.6861 213.085 79.8293 213.02 80.9817 213.011H82.8256C83.1759 213.011 83.5355 213.011 83.8858 213.011C82.5859 211.462 81.2767 209.904 79.9676 208.401C79.9364 208.38 79.911 208.352 79.8938 208.318C78.6216 206.806 77.3432 205.304 76.0586 203.81C75.8834 203.607 75.6991 203.414 75.5239 203.202C71.9007 203.322 68.2775 203.082 64.6543 203.146C64.6082 203.027 64.6082 202.879 64.7004 202.879Z" fill="#263238"/>
<path d="M66.4882 209.057H67.3364C67.3535 209.057 67.3699 209.063 67.3821 209.076C67.3942 209.088 67.401 209.104 67.401 209.121C67.401 209.138 67.3942 209.155 67.3821 209.167C67.3699 209.179 67.3535 209.186 67.3364 209.186H66.4882C66.4767 209.179 66.4671 209.17 66.4604 209.159C66.4537 209.147 66.4502 209.134 66.4502 209.121C66.4502 209.108 66.4537 209.095 66.4604 209.084C66.4671 209.072 66.4767 209.063 66.4882 209.057Z" fill="#263238"/>
<path d="M68.379 209.075L71.7349 209.001L73.4128 208.946C73.9332 208.881 74.4596 208.881 74.9801 208.946C75.0354 208.946 74.9801 209.038 74.9801 209.047C74.4648 209.153 73.9378 209.19 73.4128 209.158H71.7256C70.6101 209.158 69.4946 209.158 68.3698 209.158C68.3595 209.17 68.3457 209.178 68.3303 209.182C68.315 209.185 68.2989 209.184 68.2845 209.177C68.2701 209.171 68.258 209.16 68.2501 209.147C68.2423 209.133 68.2389 209.117 68.2407 209.102C68.2424 209.086 68.2491 209.071 68.2598 209.06C68.2705 209.048 68.2846 209.04 68.3001 209.037C68.3155 209.034 68.3315 209.036 68.3457 209.043C68.3599 209.05 68.3716 209.061 68.379 209.075Z" fill="#263238"/>
<path d="M78.152 219.567C80.4297 219.196 82.7313 218.989 85.0388 218.949C85.0388 218.949 85.0388 218.995 85.0388 219.005C82.7524 219.217 80.4292 219.346 78.1889 219.714C78.0967 219.724 78.069 219.585 78.152 219.567Z" fill="#263238"/>
<path d="M87.5087 209.536C87.5087 209.334 87.5548 209.131 87.5824 208.937C87.6377 208.485 87.7115 208.015 87.776 207.591C87.9143 206.734 88.0618 205.876 88.2278 205.028C88.2278 204.954 88.3753 204.973 88.3661 205.028C88.2554 205.904 88.1632 206.789 88.0803 207.665L87.9696 208.965C87.9818 209.384 87.9226 209.801 87.7945 210.2C87.7816 210.23 87.7603 210.255 87.7333 210.273C87.7063 210.29 87.6747 210.3 87.6424 210.3C87.6101 210.3 87.5785 210.29 87.5514 210.273C87.5244 210.255 87.5031 210.23 87.4902 210.2C87.4523 209.98 87.4586 209.754 87.5087 209.536Z" fill="#263238"/>
<path d="M41.7261 183.971C42.8324 181.897 44.2522 179.158 47.0364 179.361C49.3228 179.5 50.3646 181.841 50.8532 183.777C52.3652 189.77 52.4758 196.085 52.7709 202.216C53.3978 215.188 53.9509 228.168 54.0339 241.158C54.0339 244.754 54.0339 248.349 54.0339 251.954C54.0339 255.559 54.0339 259.33 53.7758 263.017C53.764 263.081 53.7304 263.138 53.6807 263.18C53.631 263.221 53.5684 263.244 53.5038 263.244C53.4392 263.244 53.3766 263.221 53.3269 263.18C53.2772 263.138 53.2436 263.081 53.2318 263.017C53.2318 259.883 53.324 256.739 53.3332 253.595C53.3425 250.451 53.3332 247.474 53.2779 244.376C53.1734 238.168 53.0075 231.964 52.7801 225.762C52.5496 219.604 52.2822 213.436 52.0241 207.277C51.8858 204.198 51.7567 201.119 51.6184 198.058C51.4802 194.997 51.3603 192.093 51.0192 189.124C50.8256 187.465 50.5767 185.796 50.2355 184.165C50.0599 182.947 49.5635 181.799 48.7973 180.836C48.2667 180.313 47.5669 179.996 46.8234 179.942C46.08 179.888 45.3416 180.1 44.7408 180.541C43.4734 181.453 42.4789 182.693 41.8644 184.128C41.7999 184.128 41.68 184.054 41.7261 183.971Z" fill="#263238"/>
<path d="M42.4722 182.975C42.4722 182.975 44.7586 174.908 39.7064 178.946C31.2984 185.658 30.9941 200.316 30.9941 200.316C30.9941 200.316 45.9479 191.632 47.8102 185.907C50.576 177.333 42.4722 182.975 42.4722 182.975Z" fill="#3ACC6C"/>
<path d="M34.148 194.287C34.2771 194.056 34.4246 193.844 34.5721 193.623C34.5536 193.393 34.5536 193.162 34.5721 192.932C34.5721 192.581 34.5721 192.24 34.5721 191.89C34.5721 191.208 34.5721 190.525 34.4983 189.843C34.4983 189.751 34.6366 189.76 34.6459 189.843C34.6459 190.507 34.7104 191.18 34.7288 191.844V192.849C34.7288 192.978 34.7288 193.134 34.7288 193.282C35.3096 192.36 35.9181 191.438 36.5727 190.581L37.1258 189.815C37.1997 188.941 37.1997 188.062 37.1258 187.188C37.1258 186.266 37.1259 185.344 37.0705 184.367C37.0705 184.275 37.2088 184.284 37.218 184.367C37.218 185.344 37.2918 186.312 37.3379 187.289C37.3979 187.985 37.4164 188.684 37.3932 189.382C38.9052 187.409 40.4356 185.565 41.9752 183.657C42.0305 183.592 42.1412 183.657 42.0858 183.749C41.127 184.978 40.2051 186.208 39.3201 187.437C41.0717 187.022 42.8603 186.792 44.6488 186.515C44.741 186.515 44.7779 186.635 44.6488 186.653C42.805 186.939 40.8966 187.409 39.0342 187.824C38.3151 188.838 37.6053 189.852 36.9046 190.866L36.0564 192.111H36.1394L36.7202 192.037C37.1351 191.982 37.5499 191.954 37.9648 191.917C38.8222 191.853 39.6888 191.807 40.5462 191.761C40.6384 191.761 40.6384 191.899 40.5462 191.899C39.698 191.899 38.8499 191.982 38.0017 192.074L36.6649 192.24L36.0841 192.305H35.9181C35.4387 193.015 34.9501 193.715 34.4799 194.425C33.6317 195.67 32.8757 197.007 31.9815 198.214C31.9696 198.225 31.9548 198.231 31.9391 198.232C31.9235 198.233 31.9078 198.23 31.8945 198.221C31.8811 198.213 31.8707 198.201 31.8648 198.186C31.8589 198.172 31.8578 198.156 31.8616 198.141C32.5454 196.811 33.3089 195.524 34.148 194.287Z" fill="#263238"/>
<path d="M37.8633 185.169V184.247C37.8818 183.585 37.8541 182.923 37.7803 182.265C37.7803 182.246 37.788 182.227 37.8019 182.213C37.8157 182.199 37.8345 182.191 37.854 182.191C37.8736 182.191 37.8924 182.199 37.9062 182.213C37.92 182.227 37.9278 182.246 37.9278 182.265C37.9278 182.92 37.9923 183.574 38.0292 184.229C38.0292 184.552 38.0292 184.883 38.0292 185.206C38.0292 185.363 38.0292 185.51 38.0292 185.658C38.0572 185.813 38.0572 185.973 38.0292 186.128C38.0292 186.145 38.0224 186.162 38.0103 186.174C37.9982 186.186 37.9818 186.193 37.9647 186.193C37.9475 186.193 37.9311 186.186 37.919 186.174C37.9069 186.162 37.9001 186.145 37.9001 186.128C37.8772 185.985 37.8772 185.838 37.9001 185.695L37.8633 185.169Z" fill="#263238"/>
<path d="M39.716 188.506C40.2692 188.414 40.8408 188.386 41.4032 188.34C41.9655 188.294 42.6293 188.23 43.247 188.156C43.2582 188.152 43.2702 188.15 43.282 188.152C43.2938 188.153 43.305 188.158 43.3148 188.165C43.3246 188.171 43.3325 188.18 43.3381 188.191C43.3436 188.202 43.3464 188.213 43.3464 188.225C43.3464 188.237 43.3436 188.249 43.3381 188.259C43.3325 188.27 43.3246 188.279 43.3148 188.286C43.305 188.292 43.2938 188.297 43.282 188.298C43.2702 188.3 43.2582 188.298 43.247 188.294C42.0669 188.368 40.8869 188.58 39.7068 188.626C39.6607 188.626 39.6515 188.525 39.716 188.506Z" fill="#263238"/>
<path d="M41.3755 227.053C44.5193 224.693 47.3404 221.3 51.5721 221.134C55.0662 220.996 57.5094 223.623 58.9476 226.546C59.6484 228.103 60.2189 229.716 60.6531 231.368C61.2893 233.58 61.8793 235.793 62.4325 238.024C63.5265 242.412 64.4484 246.835 65.1983 251.291C65.6224 253.771 66.0188 256.269 66.3322 258.767C66.7344 261.301 66.9807 263.856 67.0698 266.419C67.0693 266.517 67.0328 266.611 66.9674 266.683C66.902 266.756 66.8121 266.801 66.7151 266.812C66.6181 266.822 66.5207 266.796 66.4415 266.739C66.3624 266.682 66.3071 266.598 66.2862 266.502C65.8621 264.41 65.6869 262.252 65.3642 260.141C65.0415 258.03 64.7373 255.891 64.3778 253.78C63.6586 249.539 62.8228 245.323 61.8701 241.131C60.9482 237.176 60.0815 233.165 58.8093 229.312C57.8874 226.546 56.4215 223.319 53.4436 222.333C48.9077 220.821 44.7867 224.665 41.4585 227.154C41.4032 227.191 41.3018 227.053 41.3755 227.053Z" fill="#263238"/>
<path d="M44.6299 224.775C44.6299 224.775 47.5248 216.478 43.33 214.873C37.0517 212.44 20.6044 230.961 23.8312 259.338C23.8312 259.338 36.5354 252.341 45.9114 244.467C55.2875 236.594 57.6937 226.305 53.5635 223.65C49.4332 220.995 44.6299 224.775 44.6299 224.775Z" fill="#3ACC6C"/>
<path d="M25.7202 253.254C26.1589 252.264 26.6704 251.309 27.2506 250.396C27.7853 249.428 28.3293 248.46 28.8917 247.501C29.9888 245.657 31.0674 243.758 32.1922 241.905L32.7361 240.983C32.7361 240.872 32.7361 240.761 32.6716 240.651L32.4872 239.83C32.3397 239.213 32.2383 238.595 32.1184 237.986C31.8972 236.779 31.6851 235.543 31.3532 234.354C31.3532 234.262 31.4731 234.234 31.5007 234.354C31.7589 235.571 32.1369 236.76 32.4964 237.95C32.6716 238.54 32.8652 239.12 33.0127 239.71L33.1786 240.319C34.5247 238.106 35.9444 235.903 37.3827 233.773C37.2842 233.476 37.2344 233.164 37.2351 232.851C37.2351 232.436 37.1429 232.021 37.0876 231.607C36.977 230.685 36.8756 229.763 36.7373 228.841C36.4989 227.012 36.1666 225.196 35.7416 223.401C35.7416 223.309 35.8615 223.291 35.8799 223.401C36.3317 225.19 36.8018 226.979 37.1706 228.785C37.3366 229.707 37.4933 230.574 37.6131 231.468C37.6684 231.911 37.7146 232.39 37.7606 232.814L37.816 233.22C38.2677 232.575 38.7379 231.929 39.1989 231.302C40.6555 229.394 42.1583 227.532 43.6794 225.679C43.7348 225.605 43.8546 225.679 43.7901 225.762C41.1902 229.086 38.8038 232.572 36.6451 236.198L35.4097 238.115H35.8246C36.3501 238.042 36.894 238.014 37.4195 237.959C38.489 237.854 39.5584 237.762 40.6279 237.682C42.776 237.516 44.9148 237.378 47.0814 237.157C47.1736 237.157 47.2012 237.286 47.0814 237.295C44.9148 237.544 42.7667 237.885 40.6279 238.217L37.4472 238.641C36.6399 238.804 35.8185 238.887 34.9948 238.89C34.1559 240.264 33.3077 241.656 32.4688 242.992C32.6531 242.992 32.8467 242.992 33.0404 242.992H36.0735C37.4564 242.992 38.8393 242.992 40.213 242.992C40.3052 242.992 40.2867 243.131 40.213 243.131C38.8209 243.131 37.4472 243.223 36.0366 243.297L34.0453 243.417L33.0588 243.49C32.7551 243.557 32.4405 243.557 32.1369 243.49C31.43 244.652 30.714 245.814 29.9888 246.975C29.3342 248.045 28.6704 249.114 27.9882 250.174C27.3575 251.307 26.6393 252.389 25.8401 253.41C25.8032 253.392 25.6926 253.346 25.7202 253.254Z" fill="#263238"/>
<path d="M31.7773 230.326C31.904 231.236 32.095 232.135 32.3489 233.018C32.5794 233.94 32.8467 234.862 33.1418 235.784C33.1505 235.795 33.1564 235.809 33.1589 235.823C33.1613 235.838 33.1604 235.853 33.156 235.867C33.1516 235.88 33.144 235.893 33.1338 235.904C33.1236 235.914 33.111 235.922 33.0972 235.927C33.0833 235.931 33.0685 235.932 33.0541 235.93C33.0397 235.928 33.026 235.922 33.0141 235.914C33.0023 235.905 32.9926 235.894 32.9859 235.881C32.9793 235.868 32.9758 235.854 32.9758 235.839C32.69 234.917 32.4411 234.041 32.2198 233.138C31.9986 232.234 31.8603 231.294 31.639 230.372C31.6114 230.252 31.7681 230.224 31.7773 230.326Z" fill="#263238"/>
<path d="M41.1175 235.867C41.3074 235.697 41.5543 235.605 41.809 235.609L43.0075 235.443C43.7451 235.341 44.4918 235.258 45.2386 235.175C46.7874 234.991 48.3363 234.843 49.8482 234.641C49.9404 234.641 49.9681 234.779 49.8482 234.788C48.3824 234.963 46.9349 235.185 45.4783 235.378C44.7592 235.47 44.0493 235.572 43.3302 235.655L42.2976 235.775C41.8964 235.774 41.4978 235.84 41.1175 235.968C41.1175 236.005 41.053 235.913 41.1175 235.867Z" fill="#263238"/>
<path d="M31.8327 248.341C32.561 248.285 33.2986 248.258 34.0269 248.239H35.1332H35.6679C35.8978 248.262 36.1295 248.262 36.3594 248.239C36.4608 248.239 36.4792 248.396 36.3594 248.378C36.1447 248.359 35.9288 248.359 35.714 248.378H35.1332L34.0269 248.442C33.2986 248.442 32.561 248.534 31.8235 248.534C31.7221 248.497 31.7129 248.35 31.8327 248.341Z" fill="#263238"/>
<path d="M27.3252 245.169C27.2423 244.754 27.1593 244.339 27.0855 243.924C26.9288 243.104 26.7813 242.283 26.6338 241.463C26.6338 241.38 26.7536 241.352 26.7721 241.463C26.9565 242.255 27.1316 243.058 27.316 243.85C27.399 244.247 27.4912 244.643 27.5742 245.049C27.5742 245.233 27.6479 245.418 27.694 245.602C27.7517 245.79 27.7736 245.987 27.7585 246.183C27.7585 246.257 27.6479 246.312 27.6018 246.238C27.4421 245.903 27.3482 245.54 27.3252 245.169Z" fill="#263238"/>
<path d="M30.8652 269.627L31.2525 281.262L33.6587 325.192H72.7855L75.1825 281.262L75.579 269.627H30.8652Z" fill="#37474F"/>
<path d="M30.8652 269.627L31.2525 281.262H75.1825L75.579 269.627H30.8652Z" fill="#263238"/>
<path d="M25.7311 273.058H80.6875V261.321H25.7311V273.058Z" fill="#37474F"/>
</svg>
