<svg width="414" height="362" viewBox="0 0 414 362" fill="none" xmlns="http://www.w3.org/2000/svg">
<path d="M210.158 362C322.338 362 413.279 351.888 413.279 339.414C413.279 326.94 322.338 316.828 210.158 316.828C97.9771 316.828 7.03662 326.94 7.03662 339.414C7.03662 351.888 97.9771 362 210.158 362Z" fill="#EBEBEB"/>
<path d="M0.027832 285.878L46.3863 285.645L92.7448 285.57L185.467 285.411L278.19 285.561L324.549 285.645L370.907 285.878L324.549 286.103L278.19 286.187L185.467 286.346L92.7448 286.187L46.3863 286.103L0.027832 285.878Z" fill="#263238"/>
<path d="M37.575 141.389C37.575 141.389 17.2876 138.586 22.0347 114.065C22.0347 114.065 44.6957 119.149 37.575 141.389Z" fill="#3ACC6C"/>
<path opacity="0.1" d="M37.575 141.389C37.575 141.389 17.2876 138.586 22.0347 114.065C22.0347 114.065 44.6957 119.149 37.575 141.389Z" fill="black"/>
<path d="M36.5472 136.325C36.1543 135.055 35.6926 133.807 35.1641 132.587C35.1641 132.428 35.1641 132.279 35.1641 132.129L35.08 131.111C35.024 130.382 34.9772 129.653 34.9305 128.924C34.8464 127.457 34.753 125.999 34.7343 124.532C34.7343 124.515 34.7274 124.498 34.7151 124.486C34.7029 124.473 34.6862 124.467 34.6689 124.467C34.6515 124.467 34.6349 124.473 34.6226 124.486C34.6103 124.498 34.6035 124.515 34.6035 124.532C34.6035 125.999 34.6035 127.466 34.6035 128.933C34.6035 129.662 34.6408 130.391 34.7156 131.12C34.7156 131.288 34.7156 131.447 34.7156 131.606C33.5787 129.168 32.2178 126.84 30.6506 124.653C29.9498 123.719 29.2209 122.785 28.4359 121.85C27.651 120.916 26.7726 120.047 25.9502 119.131C25.9035 119.075 25.8101 119.131 25.8661 119.224C27.3253 120.832 28.6328 122.571 29.7722 124.42C30.389 125.354 30.9684 126.289 31.529 127.279L31.3421 127.205L30.6133 126.915L28.9686 126.317L25.7166 125.111C25.6512 125.111 25.6045 125.195 25.7166 125.224C26.8006 125.653 27.8659 126.111 28.9312 126.569L30.5011 127.242L31.2954 127.569C31.4641 127.656 31.6431 127.722 31.8281 127.765C32.2392 128.494 32.6411 129.232 33.0149 129.989C33.9609 131.883 34.788 133.833 35.4912 135.83C35.5473 135.97 35.594 136.11 35.6407 136.25C35.1071 135.941 34.5511 135.673 33.9774 135.447L31.8841 134.512C30.4544 133.858 29.0807 133.195 27.679 132.419C27.6136 132.419 27.5482 132.494 27.6229 132.531C29.0153 133.297 30.3796 134.101 31.7814 134.858C32.4729 135.241 33.1737 135.606 33.8933 135.951C34.4723 136.303 35.103 136.561 35.7622 136.718C36.4424 138.574 36.8882 140.507 37.0892 142.474C37.3134 145.277 37.2854 148.025 37.3508 150.8H37.4256C37.6311 148.286 37.7433 145.745 37.7526 143.221C37.7201 140.873 37.3132 138.545 36.5472 136.325Z" fill="#263238"/>
<path d="M33.426 121.878C33.2315 123.308 33.1627 124.753 33.2204 126.195H33.2859C33.37 124.766 33.3793 123.336 33.5475 121.906C33.5569 121.831 33.4354 121.794 33.426 121.878Z" fill="#263238"/>
<path d="M27.6231 123.103C26.7171 122.755 25.8445 122.327 25.0159 121.822C24.9505 121.822 24.8944 121.888 24.9598 121.934C25.7715 122.48 26.6595 122.902 27.595 123.187C27.595 123.187 27.6791 123.121 27.6231 123.103Z" fill="#263238"/>
<path d="M38.22 180.245C38.22 178.003 38.1639 175.76 38.1359 173.527C38.0985 166.051 38.0206 158.606 37.9023 151.193C37.7901 145.287 37.6531 139.369 37.4911 133.438C37.4835 133.404 37.4635 133.374 37.435 133.354V128.513C37.435 128.513 37.435 128.457 37.3416 128.457C37.2481 128.457 37.2481 128.457 37.2481 128.522C37.2481 130.139 37.2481 131.756 37.2481 133.372C37.2481 133.372 37.2014 133.372 37.2014 133.438C36.9117 143.951 36.6407 154.473 36.5753 164.986C36.5753 167.125 36.5753 169.265 36.5753 171.405C36.5006 178.258 36.4756 185.111 36.5006 191.964V195.234C36.5006 201.505 36.566 207.784 36.566 214.055C36.566 214.391 36.9398 214.559 37.3416 214.578C37.7434 214.597 38.2761 214.419 38.2761 214.027C38.2761 207.112 38.3228 200.196 38.3228 193.272C38.2387 188.973 38.2574 184.619 38.22 180.245Z" fill="#263238"/>
<path d="M29.7536 173.442C29.7536 173.442 19.9977 166.228 10.7371 171.106C1.47647 175.984 0 194.814 0 194.814C0 194.814 13.5966 196.757 22.1563 188.609C30.4358 180.759 29.7536 173.442 29.7536 173.442Z" fill="#3ACC6C"/>
<path d="M32.4078 173.89C30.6272 173.19 28.7021 172.937 26.801 173.152C26.4053 173.087 26.0057 173.05 25.6048 173.04L24.2312 172.937L21.4277 172.732C19.5027 172.592 17.5777 172.47 15.6527 172.283C15.5873 172.283 15.5686 172.395 15.6527 172.405C17.5217 172.648 19.4467 172.919 21.353 173.106C22.2875 173.208 23.3154 173.311 24.2966 173.377L25.0068 173.451C24.7171 173.517 24.4274 173.582 24.1377 173.666C22.5737 174.102 21.0607 174.704 19.6242 175.46C18.8579 175.601 18.0917 175.816 17.3441 175.993C16.1386 176.273 14.9332 176.582 13.737 176.928C11.3635 177.544 9.01796 178.245 6.67243 178.927C6.66029 178.932 6.64988 178.941 6.64255 178.951C6.63522 178.962 6.6313 178.975 6.6313 178.988C6.6313 179.001 6.63522 179.014 6.64255 179.025C6.64988 179.036 6.66029 179.044 6.67243 179.049C9.01796 178.469 11.3448 177.946 13.7277 177.385L17.1666 176.563L18.101 176.357C15.4969 177.973 13.1712 179.999 11.214 182.357C9.30609 184.685 7.68703 187.236 6.39209 189.954C6.39209 190.029 6.4575 190.094 6.49488 190.019C8.09901 187.227 10.0591 184.654 12.326 182.366C12.326 182.497 12.2419 182.628 12.1952 182.759C12.0176 183.329 11.8401 183.908 11.6532 184.478C11.2981 185.627 10.9336 186.777 10.5879 187.936C10.5879 188.01 10.6813 188.038 10.7093 187.936C11.1205 186.824 11.513 185.702 11.9055 184.581C12.0924 184.03 12.2886 183.478 12.4848 182.936C12.5783 182.646 12.6811 182.366 12.7745 182.076L12.868 181.815C13.9545 180.756 15.1095 179.769 16.3255 178.862C17.9305 177.69 19.6643 176.705 21.4932 175.928C21.4932 176.096 21.4277 176.264 21.3997 176.423C21.2969 176.871 21.2035 177.311 21.11 177.759C20.9231 178.694 20.7362 179.628 20.5587 180.563C20.1942 182.432 19.9606 184.366 19.6242 186.254C19.6242 186.328 19.727 186.356 19.7364 186.254C20.1756 184.385 20.7456 182.516 21.1661 180.581C21.381 179.647 21.5959 178.712 21.7922 177.722C21.8856 177.283 21.9697 176.834 22.0632 176.386C22.0632 176.143 22.166 175.89 22.194 175.638L22.7267 175.423C25.2799 174.325 28.0833 173.941 30.8379 174.311C32.1244 174.548 33.3326 175.099 34.3561 175.914C35.3795 176.729 36.1867 177.783 36.7064 178.983C36.7905 179.198 37.1269 179.067 37.0801 178.853C36.7449 177.717 36.1473 176.676 35.3357 175.814C34.5241 174.952 33.5211 174.293 32.4078 173.89Z" fill="#263238"/>
<path d="M17.4747 181.927C17.2037 183.17 16.9234 184.403 16.6524 185.665C16.3468 186.851 16.119 188.056 15.9702 189.272C15.9702 189.319 16.0356 189.319 16.0543 189.272C16.4088 188.08 16.6835 186.865 16.8767 185.637C17.1196 184.422 17.3626 183.198 17.5962 181.983C17.6149 181.88 17.4934 181.852 17.4747 181.927Z" fill="#263238"/>
<path d="M8.04549 185.077C6.80264 185.703 5.59717 186.422 4.3076 186.946C4.29768 186.94 4.28635 186.936 4.27477 186.936C4.26319 186.936 4.25178 186.939 4.2417 186.945C4.23162 186.95 4.22324 186.959 4.2174 186.969C4.21157 186.979 4.2085 186.99 4.2085 187.002C4.2085 187.013 4.21157 187.025 4.2174 187.035C4.22324 187.045 4.23162 187.053 4.2417 187.058C4.25178 187.064 4.26319 187.067 4.27477 187.067C4.28635 187.067 4.29768 187.064 4.3076 187.058C5.5598 186.432 6.84937 185.88 8.04549 185.133C8.10156 185.105 8.07352 185.058 8.04549 185.077Z" fill="#263238"/>
<path d="M31.9494 160.173C31.9494 160.173 20.0256 160.93 14.4748 153.071C8.92402 145.212 10.1762 133.979 10.1762 133.979C10.1762 133.979 22.6981 135.503 27.6695 141.147C32.6409 146.791 31.9494 160.173 31.9494 160.173Z" fill="#3ACC6C"/>
<path d="M37.5378 171.938C37.1266 170.657 36.6033 169.405 36.1361 168.153C35.6688 166.901 35.2016 165.751 34.6503 164.574C33.5842 162.174 32.3926 159.831 31.0806 157.556C30.2396 156.098 29.3331 154.697 28.408 153.314C28.408 153.099 28.3426 152.884 28.3146 152.678L28.1464 151.566C28.0249 150.818 27.894 150.062 27.7726 149.305C27.4922 147.66 27.1558 146.025 26.8942 144.38C26.8942 144.305 26.7633 144.305 26.7727 144.38C27.0156 146.006 27.1745 147.641 27.3988 149.277C27.5109 150.071 27.623 150.875 27.7445 151.669C27.7445 151.959 27.8286 152.248 27.8754 152.538C26.0542 149.879 24.0856 147.324 21.9788 144.885L21.1098 143.95C21.1098 143.857 21.035 143.773 20.9976 143.679L20.736 142.997C20.5678 142.52 20.3902 142.062 20.222 141.577C19.8856 140.642 19.5866 139.708 19.2876 138.773C19.2876 138.698 19.1474 138.773 19.1661 138.773C19.409 139.708 19.6613 140.726 19.951 141.698C20.0912 142.165 20.2407 142.632 20.4089 143.081L20.493 143.315C18.9698 141.651 17.3812 140.053 15.8207 138.465C15.7646 138.409 15.6805 138.465 15.7366 138.558C18.8049 141.782 21.6168 145.241 24.1468 148.903C23.8556 148.811 23.5592 148.736 23.2591 148.679C22.3246 148.501 21.3901 148.37 20.4556 148.258C18.5119 148.006 16.5776 147.763 14.6339 147.454C14.5591 147.454 14.5311 147.567 14.6339 147.576C16.5028 147.94 18.3157 148.361 20.1473 148.781C21.0163 148.978 21.8854 149.146 22.7544 149.323C23.4638 149.476 24.1629 149.672 24.8477 149.912C25.0439 150.192 25.2401 150.463 25.427 150.744C26.3054 152.015 27.1465 153.314 27.9688 154.622L26.754 154.388C25.8195 154.211 24.885 154.042 23.9506 153.893C22.1377 153.585 20.3155 153.276 18.5213 152.865C18.4372 152.865 18.4092 152.968 18.5213 152.986C20.3902 153.416 22.1564 153.921 23.9599 154.398C24.8383 154.622 25.7167 154.837 26.5951 155.033L27.9221 155.323C28.1006 155.365 28.2816 155.396 28.4641 155.416C30.2022 158.238 31.8313 161.126 33.3514 164.079C34.0148 165.378 34.6503 166.686 35.2764 168.003C35.9025 169.321 36.4632 170.741 37.0519 172.115C37.2014 172.349 37.6406 172.237 37.5378 171.938Z" fill="#263238"/>
<path d="M25.3335 144.539C25.1092 143.399 24.8663 142.268 24.614 141.128C24.614 141.053 24.4831 141.128 24.5018 141.128C24.7261 142.249 24.941 143.371 25.1466 144.492C25.3096 145.616 25.5343 146.729 25.8194 147.828C25.7352 146.722 25.5728 145.622 25.3335 144.539Z" fill="#263238"/>
<path d="M18.3811 144.203C17.8297 143.932 17.241 143.708 16.671 143.483L15.7365 143.128L15.2786 142.941C15.1022 142.891 14.9327 142.819 14.774 142.726C14.6806 142.661 14.6245 142.811 14.7179 142.829C14.8949 142.874 15.0647 142.943 15.2226 143.035L15.6805 143.24L16.5495 143.623C17.1197 143.894 17.7065 144.128 18.3063 144.324C18.3224 144.334 18.3418 144.337 18.3602 144.333C18.3786 144.329 18.3945 144.317 18.4044 144.301C18.4144 144.285 18.4175 144.265 18.4131 144.247C18.4087 144.229 18.3972 144.213 18.3811 144.203Z" fill="#263238"/>
<path d="M44.1538 150.8C44.1538 150.8 51.3679 137.315 62.3386 135.231C73.3093 133.147 80.0375 144.436 80.0375 144.436C80.0375 144.436 72.0291 154.668 61.9555 156.453C51.8819 158.238 44.1538 150.8 44.1538 150.8Z" fill="#3ACC6C"/>
<path d="M69.7019 141.277C66.8405 140.892 63.9384 140.924 61.0861 141.371L61.5813 141.109L64.011 139.857C65.6872 138.933 67.4088 138.094 69.1693 137.343C69.1792 137.349 69.1905 137.352 69.2021 137.352C69.2137 137.353 69.2251 137.35 69.2352 137.344C69.2452 137.338 69.2536 137.33 69.2595 137.32C69.2653 137.31 69.2684 137.299 69.2684 137.287C69.2684 137.276 69.2653 137.264 69.2595 137.254C69.2536 137.244 69.2452 137.236 69.2352 137.23C69.2251 137.224 69.2137 137.222 69.2021 137.222C69.1905 137.222 69.1792 137.225 69.1693 137.231C67.4498 138.025 65.665 138.698 63.9456 139.492C63.0858 139.885 62.2355 140.296 61.3944 140.745C60.8525 141.034 60.2544 141.305 59.7217 141.679C57.311 142.164 54.9695 142.946 52.7506 144.006L54.1243 142.511C55.1428 141.389 56.1521 140.212 57.2734 139.193C57.3295 139.137 57.2734 139.053 57.18 139.109C56.0306 140.147 54.8251 141.118 53.7037 142.202C53.1711 142.726 52.6478 143.268 52.1432 143.828C51.8909 144.109 51.6479 144.398 51.4049 144.697C47.6368 146.719 44.3629 149.549 41.8182 152.986C39.2735 156.422 37.5212 160.38 36.687 164.574C36.6919 164.586 36.7002 164.596 36.7111 164.604C36.7219 164.611 36.7347 164.615 36.7477 164.615C36.7608 164.615 36.7736 164.611 36.7844 164.604C36.7953 164.596 36.8036 164.586 36.8085 164.574C38.3464 159.439 41.1073 154.754 44.8543 150.921C48.8932 146.8 53.978 143.857 59.5629 142.408C62.8748 141.561 66.3003 141.245 69.7112 141.474C69.7283 141.463 69.7423 141.448 69.7517 141.43C69.7611 141.413 69.7655 141.393 69.7646 141.373C69.7636 141.353 69.7573 141.333 69.7463 141.316C69.7352 141.3 69.7199 141.286 69.7019 141.277Z" fill="#263238"/>
<path opacity="0.1" d="M80.0376 144.445C80.0376 144.445 72.0291 154.668 61.9555 156.453C54.2742 157.818 47.9385 153.809 45.3873 151.828L44.8267 150.893C44.8267 150.893 50.0223 146.511 59.853 143.987C69.6836 141.464 80.0376 144.445 80.0376 144.445Z" fill="black"/>
<path d="M63.3198 136.465C62.4882 136.979 61.6658 137.484 60.8902 138.072C60.1244 138.653 59.4142 139.304 58.769 140.016C58.7129 140.081 58.769 140.156 58.8624 140.1C59.5913 139.474 60.3202 138.839 61.0771 138.231C61.8118 137.63 62.5826 137.075 63.3852 136.568C63.393 136.557 63.3974 136.545 63.3978 136.531C63.3982 136.518 63.3947 136.505 63.3876 136.494C63.3806 136.483 63.3703 136.474 63.3582 136.469C63.3461 136.464 63.3327 136.463 63.3198 136.465Z" fill="#263238"/>
<path d="M69.3473 138.745C68.9455 138.923 68.5249 139.063 68.1231 139.231L66.899 139.745C66.8055 139.745 66.899 139.923 66.899 139.885L68.1325 139.39L69.3473 138.867C69.4594 138.839 69.422 138.717 69.3473 138.745Z" fill="#263238"/>
<path d="M42.7056 167.76C42.7056 167.76 44.6399 181.179 54.6948 185.852C64.7498 190.524 77.0007 185.852 77.0007 185.852C77.0007 185.852 72.1788 156.883 42.7056 167.76Z" fill="#3ACC6C"/>
<path d="M70.0856 177.115C69.1511 177.002 68.2166 176.844 67.2821 176.675C66.8336 176.601 66.3477 176.516 65.9272 176.423L65.2263 176.283C64.9553 176.031 64.6843 175.769 64.404 175.526C62.4975 173.852 60.439 172.36 58.2551 171.068C57.0667 170.372 55.8371 169.748 54.5733 169.2H54.7602L58.0682 169.34C60.2829 169.442 62.4883 169.489 64.6937 169.629C64.7684 169.629 64.7684 169.517 64.6937 169.508C62.4883 169.358 60.2829 169.115 58.0682 168.929L54.8537 168.639L53.1996 168.499L52.7791 168.452C52.1998 168.237 51.6204 168.031 51.041 167.854C48.3015 166.912 45.3541 166.75 42.528 167.387C39.9956 168.031 37.4725 169.685 36.8184 172.358C36.8184 172.442 36.9398 172.508 36.9772 172.414C37.9117 170.19 40.388 169.069 42.584 168.601C44.0885 168.317 45.6303 168.288 47.1443 168.517C47.245 169.205 47.4141 169.881 47.6489 170.536C47.9292 171.47 48.2002 172.405 48.4899 173.339C49.0599 175.208 49.686 177.077 50.2374 178.946C50.2422 178.958 50.2506 178.969 50.2614 178.976C50.2723 178.983 50.285 178.987 50.2981 178.987C50.3112 178.987 50.324 178.983 50.3348 178.976C50.3456 178.969 50.354 178.958 50.3589 178.946C49.8916 177.077 49.4991 175.208 49.0413 173.293C48.8263 172.358 48.5927 171.424 48.3591 170.489C48.2312 169.856 48.0626 169.232 47.8545 168.62C48.7341 168.774 49.6046 168.977 50.4616 169.228C52.0158 169.688 53.5389 170.246 55.0219 170.9C55.1714 171.835 55.377 172.769 55.6012 173.704C55.8722 174.881 56.1806 176.049 56.5357 177.208C56.5357 177.223 56.5416 177.237 56.5521 177.248C56.5626 177.258 56.5769 177.264 56.5918 177.264C56.6067 177.264 56.6209 177.258 56.6314 177.248C56.6419 177.237 56.6479 177.223 56.6479 177.208C56.6532 177.136 56.6532 177.065 56.6479 176.993C56.4236 175.9 56.1806 174.816 55.947 173.722C55.7695 172.835 55.5919 171.956 55.405 171.078C56.6479 171.639 57.8814 172.246 59.0681 172.947C59.0681 173.218 59.1616 173.498 59.199 173.75C59.2737 174.208 59.3578 174.685 59.4419 175.124C59.6288 176.152 59.8344 177.18 60.0774 178.198C60.5312 180.17 61.1086 182.112 61.8061 184.011C61.7996 184.024 61.7961 184.038 61.7961 184.053C61.7961 184.068 61.7996 184.082 61.8061 184.095L61.8622 184.16C61.8728 184.168 61.8855 184.173 61.8987 184.173C61.9118 184.173 61.9248 184.17 61.9359 184.163C61.947 184.156 61.9557 184.145 61.9609 184.133C61.9661 184.121 61.9675 184.108 61.965 184.095C61.5071 182.114 60.9745 180.152 60.5353 178.161C60.3203 177.171 60.0961 176.18 59.8998 175.18C59.797 174.685 59.7129 174.18 59.6195 173.685C59.6195 173.545 59.6195 173.386 59.5447 173.236C60.8963 174.034 62.2034 174.904 63.4602 175.844C65.6304 177.47 67.6366 179.304 69.4501 181.32C69.5249 181.394 69.665 181.32 69.5996 181.198C68.8518 180.184 68.0534 179.207 67.2074 178.273C66.7028 177.731 66.1701 177.208 65.6375 176.694H65.8057C66.2729 176.778 66.7402 176.844 67.2261 176.909C68.1605 177.03 69.095 177.124 70.0295 177.227C70.0856 177.236 70.151 177.124 70.0856 177.115Z" fill="#263238"/>
<path d="M63.0114 181.647L62.9553 181.301C62.9553 181.152 62.8525 181.011 62.8338 180.862C62.6282 179.974 62.4507 179.068 62.2918 178.171C62.2918 178.105 62.1797 178.171 62.1797 178.171C62.2464 179.369 62.5051 180.549 62.946 181.666C62.946 181.666 63.0301 181.666 63.0207 181.666L63.0114 181.647Z" fill="#263238"/>
<path d="M54.592 181.432C54.592 181.417 54.5861 181.403 54.5755 181.393C54.565 181.382 54.5508 181.376 54.5359 181.376C54.2556 180.189 53.9846 179.003 53.7323 177.816C53.6108 177.19 53.4799 176.564 53.3585 175.947C53.293 175.61 53.2276 175.274 53.1716 174.938C53.1399 174.64 53.0676 174.347 52.9566 174.069C52.9566 174.022 52.8445 174.069 52.8445 174.069C52.8318 174.676 52.917 175.282 53.0968 175.863C53.2183 176.508 53.3398 177.162 53.4893 177.816C53.779 179.133 54.106 180.442 54.4798 181.741C54.4798 181.815 54.62 181.797 54.6107 181.741L54.592 181.432Z" fill="#263238"/>
<path d="M69.1511 173.255C67.2821 173.012 65.4786 172.741 63.6377 172.517C63.5629 172.517 63.5255 172.629 63.6377 172.638C65.5066 172.909 67.3101 173.133 69.1511 173.376C69.2071 173.386 69.2352 173.274 69.1511 173.255Z" fill="#263238"/>
<path d="M37.5566 136.4C37.5566 136.4 31.4077 109.412 60.4044 98.4883C60.4044 98.4883 68.4409 134.017 37.5566 136.4Z" fill="#3ACC6C"/>
<path d="M41.369 114.926C41.3642 114.914 41.3558 114.903 41.345 114.896C41.3342 114.889 41.3214 114.885 41.3083 114.885C41.2952 114.885 41.2824 114.889 41.2716 114.896C41.2608 114.903 41.2524 114.914 41.2476 114.926C41.3504 116.468 41.4064 118.01 41.5653 119.542C41.5653 119.626 41.7054 119.626 41.7054 119.542C41.6494 118 41.4905 116.468 41.369 114.926Z" fill="#263238"/>
<path d="M55.2741 120.084C53.4613 120.813 51.6297 121.505 49.8262 122.262V122.346C51.6951 121.654 53.4613 120.907 55.2835 120.196C55.3863 120.168 55.3489 120.047 55.2741 120.084Z" fill="#263238"/>
<path d="M58.031 107.628C56.2551 108.454 54.5324 109.391 52.8727 110.431C52.7886 110.478 52.8727 110.609 52.9568 110.562C54.6389 109.571 56.349 108.628 58.0964 107.759C58.1712 107.703 58.1058 107.6 58.031 107.628Z" fill="#263238"/>
<path d="M57.5915 194.767H15.7739V238.846H57.5915V194.767Z" fill="#37474F"/>
<path d="M15.0359 210.363H12.896V285.869H15.0359V210.363Z" fill="#263238"/>
<path d="M60.2454 210.363H58.1055V285.869H60.2454V210.363Z" fill="#263238"/>
<path d="M38.7806 210.363H36.6406V285.869H38.7806V210.363Z" fill="#263238"/>
<path d="M59.1707 236.024H13.9609V242.127H59.1707V236.024Z" fill="#263238"/>
<path d="M207.229 344.207C209.247 344.815 266.512 342.89 268.643 341.404C269.465 340.862 269.67 332.498 269.633 322.388V322.079C269.633 319.995 269.633 317.846 269.577 315.678C269.577 315.37 269.577 315.071 269.577 314.744C269.353 300.156 268.811 285.027 268.811 285.027L230.993 285.962L232.263 315.613L232.329 316.781L232.684 322.873V323.5C232.684 323.5 211.098 334.04 208.92 335.891C206.743 337.741 205.201 343.609 207.229 344.207Z" fill="#EB9481"/>
<path d="M223.237 327.602C223.368 327.555 223.442 327.518 223.452 327.48L223.237 327.602Z" fill="#4768D6"/>
<path d="M269.624 327.453C269.624 335.181 269.325 340.984 268.69 341.47C266.559 342.928 209.294 344.853 207.267 344.274C205.239 343.694 206.818 337.863 208.977 336.022C209.911 335.219 214.5 332.789 219.377 330.294C213.995 334.546 215.013 338.854 269.624 327.453Z" fill="#4768D6"/>
<path d="M289.743 118.383C289.743 118.383 269.82 218.465 268.418 225.848C268.185 227.034 273.67 320.575 273.67 320.575L229.684 321.659C229.684 321.659 229.068 235.361 230.432 224.1C232.217 209.336 254.784 118.374 254.784 118.374L289.743 118.383Z" fill="#263238"/>
<path d="M270.175 311.184C263.877 311.268 265.68 311.184 259.382 311.314C256.298 311.389 236.02 311.894 233.17 312.473C233.105 312.473 233.114 312.595 233.17 312.604C236.067 312.978 256.317 312.118 259.391 311.978C265.69 311.707 263.877 311.716 270.175 311.37C270.2 311.37 270.224 311.361 270.241 311.343C270.259 311.326 270.269 311.302 270.269 311.277C270.269 311.252 270.259 311.228 270.241 311.211C270.224 311.193 270.2 311.184 270.175 311.184Z" fill="#37474F"/>
<path d="M263.251 226.165C263.69 220.652 264.952 215.185 265.989 209.765C267.026 204.345 268.101 198.645 269.157 193.085C271.25 182.077 273.296 171.06 275.408 160.061C277.8 147.614 281.202 135.456 283.716 123.046C283.772 122.757 284.202 122.888 284.146 123.177C280.249 145.249 275.062 166.995 270.885 189.029C269.839 194.593 268.786 200.153 267.727 205.71C266.699 211.13 265.55 216.54 264.662 221.988C264.189 224.816 263.985 227.682 264.054 230.548C264.129 233.239 266.437 300.774 266.755 307.1C266.755 307.184 266.624 307.193 266.615 307.1C265.129 295.989 262.812 231.641 263.251 226.165Z" fill="#37474F"/>
<path d="M258.952 118.383L271.399 210.681C277.324 180.778 289.743 118.383 289.743 118.383H258.952Z" fill="#37474F"/>
<path d="M273.801 346.694C275.857 347.198 332.953 342.395 335.009 340.834C335.803 340.255 335.588 331.892 335.009 321.799C335.009 321.687 327.449 284.561 327.449 284.561L289.248 287.654L298.181 324.79C298.181 324.79 277.155 336.405 275.072 338.358C272.988 340.311 271.717 346.198 273.801 346.694Z" fill="#EB9481"/>
<path d="M334.962 340.834C332.906 342.395 275.81 347.198 273.763 346.694C271.717 346.189 272.997 340.311 275.053 338.358C276.193 337.293 282.959 333.359 288.883 329.995C281.837 334.807 272.623 343.423 335.27 327.49C335.588 334.873 335.597 340.367 334.962 340.834Z" fill="#4768D6"/>
<path d="M288.921 329.303C289.052 329.247 289.126 329.209 289.136 329.172L288.921 329.303Z" fill="#4768D6"/>
<path d="M295.154 323.22L337.205 318.249C337.205 318.249 315.6 234.903 314.609 231.343C313.105 225.913 309.759 182.18 306.498 155.146C306.498 155.146 312.675 140.512 301.116 118.402H254.747C254.747 118.402 257.859 139.437 263.157 152.782C263.157 152.782 262.167 152.025 268.428 155.473C268.428 155.473 272.259 224.157 275.072 237.164C277.408 247.845 295.154 323.22 295.154 323.22Z" fill="#263238"/>
<path d="M333.103 309.8C326.823 310.38 328.617 310.127 322.347 310.781C319.282 311.099 299.125 313.211 296.313 314.015C296.256 314.015 296.313 314.136 296.313 314.136C299.228 314.286 319.347 311.819 322.403 311.445C328.664 310.669 326.86 310.828 333.103 309.978C333.243 309.968 333.215 309.791 333.103 309.8Z" fill="#37474F"/>
<path d="M261.41 151.819C265.59 153.334 269.629 155.21 273.483 157.426C273.511 157.444 273.531 157.472 273.54 157.503C273.549 157.535 273.547 157.569 273.533 157.599C273.52 157.629 273.496 157.654 273.467 157.668C273.437 157.683 273.403 157.686 273.371 157.678C269.306 155.931 265.157 154.258 261.223 152.296C261.173 152.263 261.136 152.213 261.118 152.156C261.1 152.099 261.102 152.037 261.124 151.982C261.145 151.926 261.186 151.879 261.238 151.85C261.29 151.82 261.351 151.809 261.41 151.819Z" fill="#37474F"/>
<path d="M260.12 123.916C260.12 123.776 260.382 123.747 260.382 123.916C260.377 128.453 260.605 132.988 261.064 137.503C261.251 139.596 262.933 151.174 266.568 150.324C267.175 150.184 267.503 149.586 267.577 148.67C267.562 147.471 267.402 146.279 267.101 145.119C266.69 142.699 266.372 140.269 266.166 137.821C265.741 133.265 265.788 128.677 266.306 124.131C266.314 124.105 266.329 124.083 266.35 124.067C266.371 124.051 266.397 124.043 266.423 124.043C266.45 124.043 266.475 124.051 266.496 124.067C266.517 124.083 266.533 124.105 266.54 124.131C266.438 130.451 266.81 136.77 267.652 143.035C268.101 146.044 269.624 150.576 266.475 151.034C263.325 151.492 261.195 143.923 260.802 141.839C259.799 135.919 259.57 129.894 260.12 123.916Z" fill="#37474F"/>
<path d="M266.466 150.623C266.791 151.402 267.066 152.201 267.288 153.015C267.519 153.647 267.633 154.315 267.624 154.987C267.624 155.118 267.437 155.127 267.372 155.043C266.998 154.45 266.714 153.804 266.531 153.127C266.251 152.38 265.961 151.651 265.709 150.894C265.673 150.794 265.678 150.683 265.724 150.587C265.769 150.49 265.851 150.416 265.952 150.38C266.052 150.344 266.162 150.349 266.259 150.395C266.355 150.441 266.43 150.523 266.466 150.623Z" fill="#37474F"/>
<path d="M298.097 120.597C300.682 124.914 302.408 129.69 303.181 134.661C303.906 139.665 303.745 144.758 302.704 149.706C302.081 152.599 301.851 155.564 302.022 158.518C302.237 161.537 302.648 164.546 302.957 167.555L304.919 185.235C306.218 196.981 308.554 215.231 310.096 226.94C310.853 232.687 326.916 305.146 327.356 306.567C327.362 306.591 327.358 306.618 327.345 306.64C327.332 306.662 327.31 306.677 327.285 306.684C327.261 306.69 327.234 306.686 327.213 306.673C327.191 306.66 327.175 306.638 327.169 306.613C323.365 295.493 310.797 236.659 309.003 225.314C308.068 219.53 307.47 213.699 306.816 207.877C306.162 202.055 305.47 196.093 304.807 190.197C304.143 184.3 303.48 178.525 302.835 172.694L301.854 163.845C301.455 161.034 301.252 158.199 301.246 155.36C301.477 152.555 301.886 149.768 302.471 147.015C302.881 144.464 303.032 141.878 302.919 139.296C302.692 134.128 301.47 129.051 299.321 124.345C298.789 123.186 298.499 121.98 297.864 120.878C297.723 120.439 297.92 120.289 298.097 120.597Z" fill="#37474F"/>
<path d="M284.416 122.569C285.155 124.532 286.014 126.457 286.911 128.354C287.631 130.096 288.681 131.683 290.005 133.026C291.359 134.168 292.958 134.983 294.677 135.409C295.672 135.691 296.683 135.912 297.705 136.072C298.748 136.187 299.782 136.377 300.798 136.642C300.84 136.656 300.876 136.682 300.902 136.717C300.928 136.752 300.942 136.795 300.942 136.839C300.942 136.883 300.928 136.925 300.902 136.961C300.876 136.996 300.84 137.022 300.798 137.035C299.696 137.199 298.579 137.227 297.471 137.119C296.402 137.064 295.339 136.921 294.294 136.689C292.389 136.269 290.622 135.368 289.164 134.073C287.747 132.617 286.671 130.865 286.014 128.942C285.186 126.903 284.56 124.787 284.145 122.625C284.138 122.589 284.145 122.552 284.165 122.521C284.185 122.491 284.217 122.469 284.253 122.462C284.289 122.454 284.326 122.462 284.357 122.482C284.388 122.502 284.409 122.533 284.416 122.569Z" fill="#37474F"/>
<path d="M268.446 155.426C268.457 155.399 268.475 155.377 268.498 155.361C268.521 155.345 268.549 155.336 268.577 155.336C268.606 155.336 268.633 155.345 268.657 155.361C268.68 155.377 268.698 155.399 268.708 155.426C269.063 157.024 269.689 163.63 269.839 165.294C270.157 168.649 270.39 172.013 270.642 175.367C271.138 181.993 272.072 206.121 272.11 208.018C272.11 208.13 271.932 208.121 271.923 208.018C271.726 206.364 270.624 190.039 270.371 186.721C269.857 180.049 269.362 173.377 268.923 166.705C268.802 164.817 268.325 157.304 268.446 155.426Z" fill="#37474F"/>
<path d="M263.157 152.725C263.157 152.725 263.082 152.66 263.157 152.66C263.162 152.681 263.162 152.704 263.157 152.725ZM261.195 152.305C265.157 154.267 269.306 155.94 273.343 157.687C273.375 157.695 273.409 157.692 273.438 157.677C273.468 157.663 273.492 157.638 273.505 157.608C273.518 157.578 273.521 157.544 273.512 157.512C273.502 157.481 273.482 157.453 273.455 157.435C269.601 155.219 265.561 153.343 261.382 151.828C261.323 151.818 261.262 151.829 261.21 151.859C261.158 151.888 261.117 151.935 261.095 151.991C261.073 152.046 261.071 152.108 261.089 152.165C261.108 152.222 261.145 152.272 261.195 152.305ZM260.802 141.829C261.195 143.913 263.26 151.501 266.475 151.024C269.689 150.548 268.101 146.034 267.652 143.025C266.81 136.76 266.438 130.441 266.54 124.121C266.533 124.096 266.517 124.073 266.496 124.057C266.475 124.041 266.45 124.033 266.423 124.033C266.397 124.033 266.371 124.041 266.35 124.057C266.329 124.073 266.314 124.096 266.306 124.121C265.788 128.667 265.741 133.255 266.166 137.811C266.372 140.259 266.69 142.689 267.101 145.109C267.402 146.269 267.562 147.462 267.577 148.66C267.484 149.595 267.175 150.174 266.568 150.314C262.933 151.165 261.251 139.586 261.064 137.493C260.605 132.979 260.377 128.444 260.382 123.906C260.382 123.757 260.13 123.785 260.12 123.906C259.57 129.885 259.799 135.91 260.802 141.829ZM265.708 150.894C265.961 151.65 266.25 152.379 266.531 153.127C266.714 153.804 266.997 154.45 267.372 155.043C267.437 155.127 267.615 155.117 267.624 154.987C267.632 154.314 267.518 153.646 267.288 153.015C267.065 152.2 266.791 151.401 266.465 150.623C266.429 150.522 266.355 150.44 266.259 150.395C266.162 150.349 266.052 150.344 265.951 150.38C265.851 150.416 265.769 150.49 265.723 150.586C265.678 150.683 265.672 150.793 265.708 150.894ZM284.155 122.635C284.57 124.797 285.196 126.913 286.024 128.952C286.681 130.874 287.756 132.627 289.173 134.082C290.632 135.378 292.398 136.279 294.303 136.699C295.348 136.93 296.411 137.074 297.48 137.129C298.589 137.237 299.706 137.208 300.807 137.045C300.849 137.032 300.885 137.006 300.911 136.97C300.937 136.935 300.951 136.892 300.951 136.848C300.951 136.805 300.937 136.762 300.911 136.727C300.885 136.691 300.849 136.665 300.807 136.652C299.791 136.387 298.758 136.196 297.714 136.082C296.692 135.922 295.681 135.701 294.686 135.419C292.967 134.993 291.368 134.177 290.014 133.036C288.691 131.693 287.64 130.106 286.921 128.363C285.986 126.495 285.164 124.541 284.426 122.579C284.418 122.543 284.397 122.512 284.366 122.491C284.336 122.471 284.298 122.464 284.262 122.472C284.226 122.479 284.195 122.5 284.175 122.531C284.155 122.562 284.147 122.599 284.155 122.635ZM268.923 166.667C269.362 173.34 269.857 180.012 270.371 186.684C270.624 190.001 271.726 206.308 271.923 207.98C271.923 208.093 272.119 208.102 272.109 207.98C272.109 206.112 271.175 181.955 270.642 175.33C270.39 171.975 270.156 168.611 269.839 165.256C269.689 163.593 269.063 156.986 268.708 155.388C268.698 155.362 268.68 155.339 268.657 155.323C268.633 155.307 268.606 155.299 268.577 155.299C268.549 155.299 268.521 155.307 268.498 155.323C268.474 155.339 268.457 155.362 268.446 155.388C268.325 157.304 268.801 164.817 268.923 166.667Z" fill="#37474F"/>
<path d="M249.963 60.4087C249.028 71.258 248.225 82.4249 248.944 93.2928C249.505 101.759 252.832 108.833 261.541 111.188C269.615 113.365 281.211 113.59 288.267 108.385C291.556 105.974 292.79 102.46 292.705 98.4791C292.584 92.9377 289.173 62.5113 288.173 53.0264C287.566 47.242 286.986 41.3829 285.37 35.7667C281.959 23.983 276.184 23.8989 275.39 23.6186C274.717 23.1514 270.344 21.0301 263.98 22.843C262.317 23.3107 260.771 24.1243 259.444 25.2306C258.117 26.3369 257.039 27.7109 256.28 29.2628C251.439 38.5328 250.86 50.2604 249.963 60.4087Z" fill="#263238"/>
<path d="M277.128 25.3376C283.968 28.8045 285.379 36.4391 286.837 43.2795C288.874 52.8111 290.743 62.3801 292.154 72.0238C292.836 76.6962 293.406 81.3218 293.836 85.9848C294.257 90.4516 294.967 95.2268 294.528 99.7122C293.789 107.123 286.884 110.29 280.258 111.131C280.197 111.133 280.137 111.112 280.089 111.073C280.042 111.033 280.011 110.978 280.002 110.917C279.993 110.856 280.006 110.794 280.039 110.742C280.073 110.69 280.124 110.653 280.184 110.636C283.921 110.01 287.818 109.094 290.706 106.403C294.444 102.945 294.135 98.2731 293.864 93.6195C293.397 85.7045 292.472 77.8175 291.276 69.9773C290.08 62.1371 288.594 54.3156 286.996 46.5408C285.473 39.1397 284.501 29.4306 277.081 25.4497C277.016 25.4124 277.053 25.3002 277.128 25.3376Z" fill="#263238"/>
<path d="M252.85 35.7105C254.354 30.1037 257.522 24.6277 263.512 23.1699C255.709 25.3846 253.551 33.7762 252.298 40.7941C250.972 48.1826 249.925 55.6117 249.159 63.0812C248.411 70.2673 247.813 77.5095 247.72 84.7329C247.617 92.5264 248.794 99.8714 253.186 106.441C253.28 106.572 253.093 106.73 252.99 106.6C248.626 101.264 247.383 94.059 247.206 87.3495C247.166 78.4675 247.713 69.5925 248.841 60.7824C249.766 52.4656 250.691 43.8124 252.85 35.7105Z" fill="#263238"/>
<path d="M269.802 71.4073C268.409 78.3131 259.616 110.422 251.85 116.58C246.505 120.822 224.19 130.877 211.378 134.699C207.996 135.699 202.034 109.627 206.706 108.132C212.621 106.263 235.675 97.4417 239.413 95.4139C243.01 93.4796 252.775 76.8927 262.26 65.9874C267.129 60.3806 271.269 64.1465 269.802 71.4073Z" fill="#EB9481"/>
<path d="M213.63 133.877C210.631 135.073 194.006 140.559 189.783 140.858C185.559 141.157 173.345 141.138 172.785 137.933C172.224 134.728 175.803 134.438 175.803 134.438C175.803 134.438 170.645 133.616 170.383 130.326C170.121 127.037 175.681 126.794 175.681 126.794C175.681 126.794 170.448 125.56 170.42 122.271C170.392 118.982 176.027 119.655 176.027 119.655C176.027 119.655 171.187 118.72 172.289 116.029C173.626 112.749 182.363 115.431 186.998 114.749C188.054 114.59 208.117 110.076 208.117 110.076L213.63 133.877Z" fill="#EB9481"/>
<path d="M175.56 119.608C181.989 121.561 185.138 121.309 191.511 119.552C191.633 119.552 191.717 119.701 191.586 119.748C185.503 122.028 181.597 122.916 175.448 119.916C175.149 119.767 175.252 119.505 175.56 119.608Z" fill="#263238"/>
<path d="M175.186 126.635C182.035 128.074 185.465 127.831 192.268 126.485C192.361 126.485 192.408 126.626 192.268 126.654C185.727 128.522 181.783 129.326 175.13 126.99C174.868 126.878 174.868 126.56 175.186 126.635Z" fill="#263238"/>
<path d="M176.148 134.362C182.886 135.297 186.643 135.166 193.09 133.017C193.121 133.004 193.156 133.005 193.187 133.018C193.217 133.031 193.242 133.056 193.254 133.087C193.266 133.118 193.266 133.153 193.253 133.183C193.24 133.214 193.215 133.238 193.184 133.25C186.82 136.054 182.129 136.259 176.139 134.568C175.737 134.456 175.728 134.297 176.148 134.362Z" fill="#263238"/>
<path d="M213.388 110.309C213.388 110.309 206.071 106.151 202.454 105.029C198.838 103.908 183.83 104.702 183.812 107.954C183.812 112.159 192.558 113.402 196.894 113.458C196.894 113.458 196.847 123.167 202.94 125.419C209.033 127.672 213.388 110.309 213.388 110.309Z" fill="#EB9481"/>
<path d="M184.185 109.113C186.933 112.954 192.67 112.646 196.903 113.019C196.966 113.021 197.028 113.037 197.082 113.067C197.137 113.098 197.184 113.141 197.218 113.194C197.252 113.246 197.273 113.307 197.278 113.369C197.284 113.431 197.274 113.494 197.249 113.552C197.502 117.626 199.043 123.299 202.725 125.532C202.743 125.547 202.755 125.568 202.76 125.591C202.764 125.614 202.761 125.637 202.75 125.658C202.739 125.679 202.721 125.695 202.7 125.705C202.678 125.714 202.654 125.716 202.632 125.709C198.361 123.841 196.399 118.402 196.408 113.926C192.054 113.617 186.288 113.664 184.148 109.132L184.185 109.113Z" fill="#263238"/>
<path d="M208.444 106.795L214.986 135.652C214.986 135.652 242.085 126.139 252.636 116.962C260.616 110.057 268.064 84.3866 270.007 73.2477C271.951 62.1088 266.98 59.5764 260.607 67.1363C254.233 74.6962 239.833 94.1051 239.226 94.7312C238.618 95.3573 208.444 106.795 208.444 106.795Z" fill="#4768D6"/>
<path opacity="0.1" d="M208.444 106.795L214.986 135.652C214.986 135.652 242.085 126.139 252.636 116.962C260.616 110.057 268.064 84.3866 270.007 73.2477C271.951 62.1088 266.98 59.5764 260.607 67.1363C254.233 74.6962 239.833 94.1051 239.226 94.7312C238.618 95.3573 208.444 106.795 208.444 106.795Z" fill="black"/>
<path d="M220.732 130.456C219.798 127.363 219.032 124.186 218.265 121.037C217.499 117.888 216.826 114.757 216.191 111.608C215.826 109.739 215.509 107.945 215.125 106.123C215.125 106.066 215.219 106.048 215.228 106.123C215.957 109.281 216.808 112.421 217.564 115.57C218.321 118.719 219.022 121.84 219.714 124.98C220.116 126.793 220.545 128.606 220.872 130.438C220.882 130.503 220.751 130.531 220.732 130.456Z" fill="#263238"/>
<path opacity="0.1" d="M269.998 73.2852C268.054 84.4241 260.597 110.094 252.617 117C245.44 123.205 230.638 129.587 221.891 133.035L265.615 63.1181C269.259 61.7818 271.381 65.3515 269.998 73.2852Z" fill="black"/>
<path d="M255.196 103.618L254.542 118.318H301.163C301.163 118.318 294.621 79.5276 281.8 66.174C275.39 59.4925 268.035 60.1467 263.438 64.9966C262.279 66.2301 251.047 82.1161 249.701 89.2928C248.57 95.694 255.196 103.618 255.196 103.618Z" fill="#EBEBEB"/>
<path d="M267.26 67.5479L264.951 77.0234C264.195 80.1819 263.475 83.3498 262.821 86.527C262.167 89.7042 261.438 92.9001 262.27 95.9838C263.03 99.0843 264.41 101.999 266.325 104.553L266.419 104.665V104.796C266.465 106.973 266.419 109.141 266.419 111.337C266.419 113.533 266.419 115.692 266.325 117.879C266.157 115.698 266.011 113.518 265.886 111.337C265.792 109.16 265.643 106.992 265.578 104.796L265.662 105.039C263.619 102.414 262.134 99.3995 261.298 96.1801C260.903 94.5436 260.824 92.8468 261.064 91.1807C261.288 89.5453 261.597 87.938 261.942 86.3494C262.615 83.1535 263.484 80.0137 264.353 76.8739C265.222 73.7341 266.241 70.641 267.26 67.5479Z" fill="#263238"/>
<path d="M261.176 80.2566C261.162 80.462 261.227 80.665 261.357 80.8246C261.487 80.9841 261.673 81.0884 261.877 81.1163C261.976 81.1188 262.075 81.1013 262.167 81.0647C262.26 81.0282 262.344 80.9734 262.414 80.9036C262.485 80.8338 262.541 80.7504 262.579 80.6585C262.616 80.5666 262.635 80.4681 262.634 80.3687C262.65 80.1628 262.586 79.9587 262.456 79.7986C262.325 79.6385 262.138 79.5348 261.933 79.509C261.834 79.5065 261.735 79.524 261.643 79.5606C261.55 79.5972 261.466 79.652 261.396 79.7218C261.325 79.7916 261.269 79.8749 261.231 79.9668C261.194 80.0587 261.175 80.1573 261.176 80.2566Z" fill="#263238"/>
<path d="M258.98 89.4893C258.967 89.6937 259.032 89.8955 259.162 90.0536C259.292 90.2116 259.478 90.314 259.681 90.3397C259.78 90.3422 259.879 90.3247 259.972 90.2881C260.064 90.2516 260.148 90.1968 260.219 90.127C260.289 90.0572 260.345 89.9738 260.383 89.8819C260.421 89.79 260.439 89.6915 260.438 89.5921C260.452 89.3878 260.387 89.186 260.256 89.0279C260.126 88.8699 259.94 88.7675 259.737 88.7418C259.638 88.7379 259.538 88.7545 259.445 88.7906C259.352 88.8267 259.268 88.8814 259.197 88.9515C259.126 89.0216 259.07 89.1055 259.033 89.198C258.995 89.2905 258.978 89.3897 258.98 89.4893Z" fill="#263238"/>
<path d="M259.635 98.5538C259.621 98.7582 259.686 98.96 259.816 99.118C259.947 99.2761 260.132 99.3784 260.335 99.4042C260.435 99.4067 260.534 99.3891 260.626 99.3526C260.718 99.316 260.802 99.2612 260.873 99.1914C260.944 99.1216 260.999 99.0383 261.037 98.9464C261.075 98.8545 261.094 98.7559 261.092 98.6566C261.106 98.4522 261.041 98.2504 260.911 98.0924C260.78 97.9343 260.595 97.832 260.391 97.8062C260.292 97.8023 260.192 97.819 260.099 97.855C260.007 97.8911 259.922 97.9459 259.851 98.016C259.78 98.086 259.724 98.1699 259.687 98.2624C259.65 98.3549 259.632 98.4541 259.635 98.5538Z" fill="#263238"/>
<path d="M263.026 105.712C263.01 105.918 263.074 106.122 263.205 106.282C263.335 106.442 263.522 106.546 263.727 106.571C263.827 106.574 263.925 106.556 264.018 106.52C264.11 106.483 264.194 106.428 264.265 106.359C264.335 106.289 264.391 106.205 264.429 106.114C264.467 106.022 264.485 105.923 264.484 105.824C264.498 105.618 264.433 105.415 264.303 105.256C264.173 105.096 263.987 104.992 263.783 104.964C263.684 104.962 263.585 104.979 263.493 105.016C263.4 105.052 263.316 105.107 263.246 105.177C263.175 105.247 263.119 105.33 263.082 105.422C263.044 105.514 263.025 105.612 263.026 105.712Z" fill="#263238"/>
<path d="M263.017 113.982C263.003 114.186 263.068 114.388 263.199 114.546C263.329 114.704 263.515 114.806 263.718 114.832C263.817 114.834 263.916 114.817 264.008 114.78C264.101 114.744 264.185 114.689 264.255 114.619C264.326 114.549 264.382 114.466 264.419 114.374C264.457 114.282 264.476 114.184 264.475 114.084C264.488 113.88 264.423 113.678 264.293 113.52C264.163 113.362 263.977 113.26 263.774 113.234C263.674 113.23 263.575 113.247 263.482 113.283C263.389 113.319 263.304 113.374 263.233 113.444C263.162 113.514 263.107 113.598 263.069 113.69C263.032 113.783 263.014 113.882 263.017 113.982Z" fill="#263238"/>
<path d="M274.735 61.6143C274.735 61.6143 272.595 90.1343 272.595 94.2647C272.595 98.3951 277.95 137.101 277.95 137.101L309.591 135.98C309.591 135.98 293.322 85.1162 288.005 74.781C282.118 63.2963 274.735 61.6143 274.735 61.6143Z" fill="#4768D6"/>
<path opacity="0.1" d="M274.735 61.6143C274.735 61.6143 272.595 90.1343 272.595 94.2647C272.595 98.3951 277.95 137.101 277.95 137.101L309.591 135.98C309.591 135.98 293.322 85.1162 288.005 74.781C282.118 63.2963 274.735 61.6143 274.735 61.6143Z" fill="black"/>
<path d="M264.138 63.9783C264.4 63.7634 257.597 83.6022 257.354 92.3489C257.111 101.096 257.354 136.512 257.354 136.512L248.729 134.036L254.71 103.834C254.71 103.834 248.589 96.5727 249.271 89.8164C249.953 83.0602 262.438 65.38 264.138 63.9783Z" fill="#4768D6"/>
<path opacity="0.1" d="M264.138 63.9783C264.4 63.7634 257.597 83.6022 257.354 92.3489C257.111 101.096 257.354 136.512 257.354 136.512L248.729 134.036L254.71 103.834C254.71 103.834 248.589 96.5727 249.271 89.8164C249.953 83.0602 262.438 65.38 264.138 63.9783Z" fill="black"/>
<path d="M272.399 161.948C275.203 163.817 279.875 155.51 281.464 153.725C283.052 151.94 283.734 151.996 283.65 153.361L287.267 138.97C285.398 140.428 281.408 143.567 279.286 145.623C276.446 148.38 269.615 160.061 272.399 161.948Z" fill="#EB9481"/>
<path d="M285.603 66.9217C297.406 76.4347 320.179 96.6286 322.935 107.525C324.963 115.682 313.535 144.903 310.03 151.65C308.507 154.594 286.743 142.483 287.267 138.97C287.631 136.54 299.041 114.141 299.181 111.487C299.321 108.833 282.492 83.6862 278.314 75.6964C272.053 63.7352 275.576 58.8292 285.603 66.9217Z" fill="#EB9481"/>
<path d="M274.38 170.209C276.249 172.237 279.987 169.779 279.987 169.779C279.987 169.779 276.642 173.919 279.258 175.526C281.875 177.134 285.463 173.601 285.463 173.601C285.463 173.601 282.585 177.573 285.314 178.984C288.042 180.395 291.575 177.311 291.575 177.311C291.575 177.311 291.378 178.844 293.761 178.965C297.172 179.171 302.031 173.629 303.9 170.144C305.769 166.658 309.984 152.491 310.591 150.314L288.285 138.166L287.248 138.951L283.632 153.342C283.566 154.276 281.015 159.762 280.09 161.35C278.015 164.948 272.296 167.938 274.38 170.209Z" fill="#EB9481"/>
<path d="M280.128 169.574C285.127 165.79 286.669 163.266 288.828 157.482C288.874 157.37 289.052 157.407 289.014 157.529C287.407 163.388 285.94 166.827 280.296 169.826C280.025 169.967 279.885 169.761 280.128 169.574Z" fill="#263238"/>
<path d="M285.23 173.704C290.08 169.312 291.771 166.593 294.49 160.706C294.49 160.621 294.668 160.706 294.64 160.762C292.453 166.761 290.902 170.162 285.491 173.919C285.248 174.096 285.015 173.919 285.23 173.704Z" fill="#263238"/>
<path d="M291.602 177.227C295.994 172.639 297.976 169.751 299.882 163.677C299.889 163.648 299.908 163.622 299.935 163.606C299.961 163.591 299.992 163.586 300.022 163.593C300.052 163.601 300.077 163.62 300.093 163.646C300.109 163.672 300.114 163.704 300.106 163.733C298.761 170.097 296.368 173.742 291.761 177.339C291.444 177.592 291.331 177.517 291.602 177.227Z" fill="#263238"/>
<path d="M286.043 137.26L313.61 149.585C313.61 149.585 326.907 116.103 323.3 105.815C319.889 96.0774 298.144 76.631 286.856 67.604C273.876 57.194 271.456 65.6323 278.399 76.7899C285.146 87.6297 297.686 110.59 298.023 111.907C298.49 113.599 286.043 137.26 286.043 137.26Z" fill="#4768D6"/>
<path opacity="0.1" d="M286.043 137.26L313.61 149.585C313.61 149.585 326.907 116.103 323.3 105.815C319.889 96.0774 298.144 76.631 286.856 67.604C273.876 57.194 271.456 65.6323 278.399 76.7899C285.146 87.6297 297.686 110.59 298.023 111.907C298.49 113.599 286.043 137.26 286.043 137.26Z" fill="black"/>
<path d="M282.211 84.6025C285.473 89.658 288.603 94.8162 291.668 99.9932C293.21 102.6 294.743 105.226 296.266 107.843C296.649 108.497 298.406 111.3 298.481 111.945C298.602 113.123 287.93 134.372 286.136 137.176C286.248 137.176 287.342 137.821 287.529 137.895C287.715 137.97 287.575 138.064 287.529 138.026C286.889 137.855 286.264 137.633 285.66 137.363C285.66 137.363 297.808 112.599 297.808 112.263C297.752 111.581 296.257 109.16 295.883 108.525C292.874 103.497 289.899 98.4513 286.959 93.3865L286.22 92.0782C285.632 91.4895 285.08 90.8447 284.557 90.2093C283.875 89.3744 283.25 88.4939 282.688 87.5741C282.679 87.5617 282.676 87.5464 282.679 87.5315C282.681 87.5166 282.69 87.5033 282.702 87.4946C282.714 87.486 282.73 87.4826 282.745 87.4852C282.76 87.4878 282.773 87.4963 282.781 87.5087C283.482 88.3123 284.155 89.144 284.828 89.9757L285.529 90.826C284.37 88.7889 283.23 86.7393 282.109 84.6772C282.053 84.6025 282.211 84.5184 282.211 84.6025Z" fill="#263238"/>
<path d="M291.07 132.587C294.191 133.652 297.238 134.96 300.284 136.222C303.33 137.484 306.302 138.811 309.274 140.184C310.993 140.969 312.684 141.81 314.413 142.595C314.469 142.595 314.413 142.717 314.413 142.698C311.386 141.399 308.302 140.212 305.255 138.96C302.209 137.708 299.181 136.325 296.228 135.017C294.49 134.26 292.743 133.521 291.051 132.68C291.043 132.665 291.041 132.647 291.044 132.63C291.047 132.613 291.057 132.598 291.07 132.587Z" fill="#263238"/>
<path d="M274.222 62.549C273.941 63.4834 269.11 69.0903 264.877 68.6043C263.513 68.4361 264.092 60.9417 264.092 60.9417L264.008 60.381L262.84 52.494L272.381 47.3171L273.801 46.6162C273.801 46.6162 273.979 48.7935 274.175 51.5128V51.896C274.175 52.0548 274.175 52.195 274.175 52.3352C274.175 52.7463 274.24 53.1575 274.259 53.5687C274.278 53.9799 274.306 54.1948 274.315 54.5032C274.325 54.8115 274.315 55.1573 274.315 55.4844C274.452 57.8385 274.421 60.1993 274.222 62.549Z" fill="#EB9481"/>
<path d="M274.165 51.5315C273.22 53.6518 271.826 55.5414 270.078 57.0695C268.331 58.5975 266.272 59.7274 264.045 60.381L262.876 52.494L272.417 47.3171L273.8 46.6162C273.8 46.6162 273.969 48.8122 274.165 51.5315Z" fill="#263238"/>
<path d="M252.056 40.6449C250.327 54.5218 258.448 57.129 261.401 57.4654C264.12 57.8018 273.408 58.6055 276.567 44.9715C279.726 31.3376 273.81 26.1606 267.643 25.0673C261.475 23.9739 253.785 26.768 252.056 40.6449Z" fill="#EB9481"/>
<path d="M276.109 44.4852C272.745 44.1301 273.38 38.8784 273.38 38.8784C273.38 38.8784 269.642 38.0841 270.035 31.8979C269.152 33.051 268.012 33.9825 266.707 34.6184C265.401 35.2543 263.965 35.577 262.512 35.561C261.4 35.561 265.4 33.1781 265.4 33.1781C265.4 33.1781 260.541 36.6543 252.551 34.1967C251.981 34.0191 253.672 24.6464 260.419 22.4504C267.166 20.2543 273.278 23.497 276.772 27.9918C276.772 27.9918 281.52 31.7297 281.538 36.2525C281.557 40.7754 277.417 44.6254 276.109 44.4852Z" fill="#263238"/>
<path d="M273.034 44.887C273.034 44.887 276.249 40.6351 278.193 41.7939C280.136 42.9526 277.595 49.1949 275.24 49.9705C274.946 50.0929 274.629 50.154 274.311 50.1501C273.992 50.1463 273.678 50.0776 273.386 49.9482C273.095 49.8188 272.833 49.6313 272.617 49.3974C272.401 49.1634 272.234 48.8879 272.128 48.5875L273.034 44.887Z" fill="#EB9481"/>
<path d="M277.417 43.5693C277.417 43.5693 277.464 43.5693 277.417 43.6254C276.657 43.9729 275.978 44.4748 275.423 45.099C274.868 45.7232 274.449 46.4561 274.193 47.2511C274.293 47.0914 274.427 46.9554 274.586 46.8527C274.744 46.7499 274.922 46.6829 275.109 46.6562C275.296 46.6295 275.486 46.6438 275.667 46.6982C275.848 46.7525 276.014 46.8455 276.155 46.9708C276.202 46.9708 276.155 47.0643 276.155 47.0549C275.873 46.9513 275.565 46.9388 275.275 47.0192C274.985 47.0997 274.728 47.269 274.539 47.5035C274.221 47.8917 273.948 48.315 273.726 48.765C273.642 48.9052 273.38 48.8211 273.445 48.6529C273.455 46.5409 275.184 43.6908 277.417 43.5693Z" fill="#263238"/>
<path d="M254.289 38.2051C254.617 38.1988 254.945 38.1739 255.27 38.1304C255.602 38.1467 255.93 38.0549 256.205 37.8687C256.285 37.7916 256.337 37.6898 256.352 37.5796C256.367 37.4694 256.345 37.3573 256.289 37.2613C256.151 37.0867 255.97 36.9522 255.762 36.8716C255.555 36.7911 255.33 36.7675 255.111 36.8034C254.653 36.8118 254.214 36.988 253.878 37.2987C253.807 37.377 253.76 37.4745 253.743 37.5791C253.727 37.6836 253.741 37.7907 253.785 37.8871C253.829 37.9835 253.9 38.065 253.989 38.1215C254.079 38.178 254.183 38.2071 254.289 38.2051Z" fill="#263238"/>
<path d="M263.709 39.14C263.382 39.0559 263.092 38.925 262.775 38.8129C262.433 38.7426 262.125 38.562 261.896 38.2989C261.843 38.2021 261.823 38.0907 261.838 37.9813C261.853 37.8719 261.903 37.7703 261.98 37.6915C262.161 37.5618 262.373 37.4822 262.595 37.4609C262.816 37.4396 263.04 37.4772 263.242 37.5701C263.675 37.6994 264.047 37.9816 264.289 38.3644C264.337 38.4539 264.359 38.5555 264.352 38.6572C264.345 38.7588 264.309 38.8563 264.248 38.9379C264.187 39.0196 264.103 39.082 264.008 39.1178C263.913 39.1536 263.809 39.1613 263.709 39.14Z" fill="#263238"/>
<path d="M261.279 41.5508C261.279 41.5508 261.354 41.6068 261.345 41.6442C261.167 42.5787 261.12 43.7094 261.933 44.158C261.933 44.158 261.933 44.2234 261.933 44.214C260.887 43.8963 260.961 42.4198 261.279 41.5508Z" fill="#263238"/>
<path d="M262.288 40.691C263.839 40.8125 263.475 43.8962 262.045 43.7841C260.615 43.672 260.989 40.5882 262.288 40.691Z" fill="#263238"/>
<path d="M262.877 40.9246C263.12 41.1301 263.354 41.4665 263.672 41.5413C263.989 41.6161 264.363 41.3264 264.606 41.046H264.653C264.587 41.6348 264.288 42.2141 263.644 42.2328C262.999 42.2515 262.709 41.6721 262.625 41.0554C262.662 41.0087 262.775 40.8405 262.877 40.9246Z" fill="#263238"/>
<path d="M256.046 40.4766C256.046 40.4766 255.961 40.4766 255.961 40.5607C255.887 41.4951 255.644 42.6072 254.737 42.8314C255.793 42.8782 256.111 41.4017 256.046 40.4766Z" fill="#263238"/>
<path d="M255.28 39.3832C253.757 39.1029 253.299 42.1866 254.71 42.439C256.121 42.6913 256.56 39.6262 255.28 39.3832Z" fill="#263238"/>
<path d="M254.607 39.4954C254.336 39.6169 254.055 39.8786 253.766 39.8599C253.476 39.8412 253.224 39.4581 253.055 39.1123C253.055 39.1123 253.009 39.1123 252.999 39.1123C252.896 39.6917 252.999 40.3365 253.551 40.5327C254.102 40.7289 254.485 40.2617 254.728 39.701C254.775 39.6169 254.719 39.4394 254.607 39.4954Z" fill="#263238"/>
<path d="M260.373 49.6341C260.13 49.8397 259.878 50.1294 259.523 50.1387C259.168 50.1032 258.825 49.995 258.513 49.821C258.513 49.821 258.448 49.821 258.467 49.821C258.589 50.02 258.763 50.1818 258.971 50.2889C259.178 50.3959 259.411 50.4442 259.644 50.4284C259.844 50.3923 260.03 50.2976 260.176 50.1562C260.322 50.0148 260.423 49.8331 260.467 49.6341C260.485 49.6248 260.41 49.5967 260.373 49.6341Z" fill="#263238"/>
<path d="M256.822 45.6811C256.822 45.6811 256.448 47.0828 256.354 47.7463C256.354 47.8117 256.513 47.8677 256.738 47.9051C257.3 48.0821 257.901 48.1016 258.474 47.9616C259.048 47.8216 259.572 47.5273 259.989 47.1108C259.998 47.098 260.002 47.0829 260.001 47.0677C260.001 47.0524 259.996 47.0377 259.986 47.0255C259.977 47.0133 259.965 47.0042 259.95 46.9994C259.936 46.9946 259.92 46.9943 259.905 46.9987C258.973 47.4762 257.911 47.64 256.878 47.4659C256.878 47.2697 257.607 45.083 257.504 45.0643C256.976 45.0436 256.448 45.0939 255.934 45.2138C256.635 42.2702 257.803 39.4668 258.476 36.5326C258.48 36.5209 258.482 36.5085 258.481 36.4961C258.481 36.4837 258.478 36.4715 258.473 36.4602C258.468 36.449 258.46 36.4388 258.451 36.4304C258.442 36.4219 258.431 36.4154 258.42 36.4111C258.408 36.4068 258.396 36.4049 258.383 36.4053C258.371 36.4058 258.359 36.4088 258.347 36.414C258.336 36.4192 258.326 36.4266 258.317 36.4357C258.309 36.4448 258.302 36.4555 258.298 36.4672C256.955 39.4348 255.906 42.5272 255.168 45.6998C255.112 46.0736 256.541 45.7465 256.822 45.6811Z" fill="#263238"/>
<path d="M256.84 47.6621C257.142 48.259 257.592 48.7677 258.149 49.1386C258.456 49.3302 258.815 49.4216 259.177 49.4002C259.98 49.3441 260.111 48.6526 260.111 48.0359C260.095 47.7032 260.038 47.3738 259.943 47.0547C259.001 47.5855 257.913 47.7985 256.84 47.6621Z" fill="#263238"/>
<path d="M258.149 49.139C258.456 49.3306 258.815 49.422 259.177 49.4006C259.98 49.3446 260.111 48.6531 260.111 48.0363C259.708 47.9703 259.294 48.0436 258.937 48.2439C258.58 48.4443 258.303 48.7599 258.149 49.139Z" fill="#FF9BBC"/>
<path d="M264.026 62.053L266.905 68.3046L274.427 59.8477L276.801 62.324C276.801 62.324 269.68 75.5281 269.605 74.9487L266.708 69.5849L263.101 73.5937L262.933 63.978L264.026 62.053Z" fill="#EBEBEB"/>
<path d="M262.746 68.847C262.746 67.2584 262.746 65.6604 262.859 64.0718C262.859 64.0157 262.943 63.9877 262.961 64.0718C263.354 65.5857 263.223 71.6597 263.307 73.1082C263.457 72.94 266.662 69.5665 266.699 69.6226C267.307 70.4636 269.437 74.3697 269.587 74.7248C270.708 72.6316 275.044 64.9969 276.399 62.9972C276.408 62.9882 276.419 62.9825 276.432 62.9809C276.444 62.9793 276.457 62.982 276.468 62.9885C276.479 62.9949 276.487 63.0048 276.491 63.0166C276.496 63.0283 276.496 63.0412 276.492 63.0532C275.558 65.2586 269.792 75.5284 269.699 75.5097C268.591 73.6684 267.578 71.7721 266.662 69.8282C265.513 71.3339 264.264 72.7606 262.924 74.0987C262.77 72.3526 262.711 70.5995 262.746 68.847Z" fill="#263238"/>
<path d="M150.87 152.211C149.618 151.202 149.786 152.164 150.487 154.93C151.291 158.117 158.898 165.48 155.524 167.658C150.768 170.704 141.591 155.706 140.115 151.164C138.628 146.431 138.21 141.426 138.891 136.512C141.89 139.409 150.87 152.211 150.87 152.211Z" fill="#AD6359"/>
<path d="M192.853 174.129L125.861 179.507L129.119 220.091L196.111 214.713L192.853 174.129Z" fill="#4668D6"/>
<path opacity="0.1" d="M192.849 174.132L125.857 179.511L127.392 198.625L194.384 193.246L192.849 174.132Z" fill="black"/>
<path d="M193.966 168.026L123.798 173.659L125.319 192.605L195.487 186.972L193.966 168.026Z" fill="#4668D6"/>
<path d="M172.784 158.855L173.653 169.667L168.57 170.069L168.075 163.92L148.694 165.481L149.189 171.63L144.105 172.032L143.236 161.229L172.784 158.855Z" fill="#263238"/>
<path d="M139.164 186.94L134.59 187.308L135.316 196.352L139.89 195.985L139.164 186.94Z" fill="#263238"/>
<path d="M185.488 183.226L180.915 183.593L181.641 192.637L186.214 192.27L185.488 183.226Z" fill="#263238"/>
<path d="M160.505 126.251C165.551 133.858 172.289 143.015 172.84 153.285C172.933 154.427 172.636 155.567 171.999 156.519C172.336 161.125 170.261 162.658 170.261 162.658C169.252 167.041 166.916 168.321 166.916 168.321C166.916 168.321 166.981 172.059 164.112 172.059C161.243 172.059 160.673 167.573 158.197 163.219C152.534 153.257 140.844 139.203 138.928 136.493L160.505 126.251Z" fill="#AD6359"/>
<path d="M159.552 148.603C161.243 151.502 162.736 154.511 164.019 157.612C165.218 161.091 166.156 164.655 166.822 168.274C166.828 168.293 166.84 168.309 166.856 168.321C166.872 168.332 166.891 168.338 166.911 168.338C166.931 168.338 166.95 168.332 166.966 168.321C166.982 168.309 166.994 168.293 167 168.274C166.419 161.159 163.898 154.339 159.711 148.557C159.589 148.398 159.477 148.473 159.552 148.603Z" fill="#263238"/>
<path d="M165.075 144.315C166.477 147.286 168.916 152.529 170.14 162.696H170.205C170.288 156.203 168.56 149.815 165.215 144.249C165.112 144.072 164.982 144.118 165.075 144.315Z" fill="#263238"/>
<path d="M168.084 142.062C170.28 147.211 171.019 150.734 171.972 156.518C171.972 156.518 172.037 156.518 172.028 156.518C171.635 149.818 170.738 147.435 168.29 141.959C168.206 141.772 168 141.857 168.084 142.062Z" fill="#263238"/>
<path d="M161.15 127.224C159.58 124.205 149.357 104.684 145.694 98.9747C144.469 97.1057 138.479 77.2108 133.742 64.5955C130.863 56.9328 124.35 55.1386 123.462 66.67C122.874 74.6037 125.088 100.087 127.303 108.721C129.06 115.496 137.04 133.12 138.853 136.512C140.61 139.708 162.71 130.214 161.15 127.224Z" fill="#AD6359"/>
<path d="M136.433 136.465L161.234 126.251C161.234 126.251 148.077 102.198 145.675 97.3575C143.273 92.5169 138.788 76.9954 134.162 65.2584C129.537 53.5214 123.883 58.6423 123.332 65.4172C122.78 72.7529 124.528 99.7124 126.388 108.403C128.247 117.094 136.433 136.465 136.433 136.465Z" fill="#4668D6"/>
<path d="M161.234 126.252L155.272 128.709L136.433 136.465C136.433 136.465 128.238 117.122 126.388 108.431C124.537 99.7406 122.781 72.7624 123.332 65.4455C123.687 60.7077 126.575 56.7829 129.873 58.8574C131.284 59.7919 132.779 61.7543 134.172 65.2866C138.844 77.0236 143.283 92.5545 145.684 97.3857C148.086 102.217 161.234 126.252 161.234 126.252Z" fill="#4668D6"/>
<path opacity="0.1" d="M155.272 128.709L136.433 136.465C136.433 136.465 128.238 117.122 126.388 108.431C124.537 99.7406 122.781 72.7624 123.332 65.4455C123.687 60.7077 126.575 56.7829 129.873 58.8574L155.272 128.709Z" fill="black"/>
<path d="M134.947 130.606C137.751 129.139 140.666 127.877 143.554 126.587C146.441 125.298 149.329 124.111 152.244 122.943C153.926 122.27 155.627 121.644 157.309 120.962C157.365 120.962 157.403 121.037 157.309 121.055C154.403 122.308 151.534 123.672 148.647 124.952C145.759 126.232 142.881 127.456 139.993 128.69C138.321 129.391 136.648 130.12 134.957 130.755C134.937 130.756 134.917 130.75 134.902 130.737C134.887 130.723 134.878 130.705 134.877 130.685C134.876 130.665 134.883 130.646 134.896 130.631C134.909 130.616 134.927 130.607 134.947 130.606Z" fill="#263238"/>
<path d="M111.445 286.616C111.445 286.616 111.445 324.649 111.445 324.677C111.445 331.947 111.501 338.321 111.856 341.619C111.852 341.638 111.852 341.657 111.856 341.675C111.858 342.453 112.037 343.22 112.38 343.918C112.38 343.918 112.38 343.918 112.427 343.965C114.585 345.441 172.691 347.432 174.737 346.815C176.784 346.198 175.204 340.32 173.008 338.405C170.812 336.489 148.899 325.817 148.899 325.817L148.581 287.84L111.445 286.616Z" fill="#AD6359"/>
<path d="M111.455 316.865V324.677C111.455 331.948 111.511 338.321 111.866 341.619C111.862 341.638 111.862 341.657 111.866 341.675C111.954 342.441 112.129 343.193 112.39 343.918C112.39 343.918 112.39 343.918 112.436 343.965C114.595 345.441 172.7 347.432 174.747 346.815C176.793 346.198 175.214 340.32 173.018 338.405C170.822 336.489 148.909 325.817 148.909 325.817L149.021 317.893L111.455 316.865Z" fill="white"/>
<path d="M174.746 346.825C172.691 347.432 114.585 345.451 112.426 343.965C111.595 343.414 111.389 334.929 111.436 324.678V324.351L148.936 325.22V325.855C148.936 325.855 170.831 336.564 173.036 338.442C175.242 340.321 176.812 346.217 174.746 346.825Z" fill="#A6A6A6"/>
<path d="M174.177 344.544C164.393 343.965 124.864 342.572 115.146 342.75C115.071 342.75 115.071 342.797 115.146 342.806C124.836 343.591 164.374 344.675 174.177 344.675C174.382 344.712 174.391 344.553 174.177 344.544Z" fill="#263238"/>
<path d="M152.067 326.07C148.236 325.22 143.508 325.649 140.471 328.303C140.349 328.406 140.471 328.565 140.62 328.528C144.346 327.468 148.174 326.81 152.039 326.565C152.098 326.558 152.152 326.53 152.192 326.487C152.232 326.444 152.256 326.388 152.259 326.329C152.262 326.27 152.245 326.212 152.21 326.165C152.175 326.118 152.125 326.084 152.067 326.07Z" fill="#263238"/>
<path d="M154.796 327.892C150.964 327.041 146.227 327.471 143.19 330.116C143.068 330.218 143.19 330.387 143.348 330.349C147.07 329.286 150.896 328.625 154.758 328.377C154.823 328.382 154.887 328.362 154.936 328.319C154.985 328.277 155.015 328.218 155.02 328.153C155.025 328.089 155.004 328.025 154.962 327.976C154.92 327.927 154.86 327.896 154.796 327.892Z" fill="#263238"/>
<path d="M157.515 329.621C153.693 328.771 148.955 329.2 145.918 331.845C145.797 331.948 145.918 332.107 146.068 332.079C149.792 331.012 153.621 330.351 157.487 330.107C157.551 330.111 157.615 330.089 157.663 330.046C157.711 330.003 157.74 329.942 157.744 329.878C157.748 329.814 157.726 329.75 157.683 329.702C157.64 329.654 157.58 329.625 157.515 329.621Z" fill="#263238"/>
<path d="M109.567 259.274L109.576 259.704L110.417 326.275L151.095 325.462L142.741 122.495H108.39L109.567 259.274Z" fill="#37474F"/>
<path d="M149.394 318.678C143.04 318.622 144.862 318.547 138.517 318.565C135.405 318.565 114.987 318.64 112.09 319.164C112.078 319.168 112.067 319.177 112.06 319.188C112.053 319.198 112.049 319.211 112.049 319.224C112.049 319.237 112.053 319.25 112.06 319.261C112.067 319.272 112.078 319.28 112.09 319.285C114.996 319.734 135.452 319.285 138.517 319.238C144.871 319.107 143.049 319.07 149.394 318.864C149.516 318.864 149.516 318.678 149.394 318.678Z" fill="#263238"/>
<path d="M117.314 296.12C117.239 290.04 117.142 283.959 117.024 277.879C116.793 265.712 116.569 253.545 116.351 241.378C115.903 217.176 115.51 192.973 115.174 168.77C114.968 155.117 114.977 141.455 114.622 127.803C114.622 127.803 114.622 127.803 114.566 127.803C114.342 139.951 114.482 152.099 114.501 164.313C114.519 176.526 114.576 188.609 114.688 200.813C114.931 225.025 115.267 249.228 115.837 273.431C115.996 280.262 116.164 287.083 116.398 293.914C116.631 300.745 116.79 307.567 117.267 314.379C117.267 314.402 117.276 314.423 117.291 314.439C117.307 314.455 117.329 314.464 117.351 314.464C117.373 314.464 117.395 314.455 117.41 314.439C117.426 314.423 117.435 314.402 117.435 314.379C117.547 308.268 117.398 302.185 117.314 296.12Z" fill="#263238"/>
<path d="M108.38 122.906L109.287 226.548L136.826 122.504H108.39L108.38 122.906Z" fill="#263238"/>
<path d="M48.0882 267.6C48.0882 267.6 28.4643 299.484 28.4643 299.512C25.2778 306.053 22.5959 311.838 21.4932 314.959C21.1511 315.663 20.9813 316.438 20.9979 317.22C20.9935 317.238 20.9935 317.258 20.9979 317.276C22.3062 319.547 73.8049 346.534 75.9168 346.871C78.0287 347.207 79.1595 341.208 77.9914 338.573C76.8233 335.938 61.6755 316.818 61.6755 316.818L80.963 284.785L48.0882 267.6Z" fill="#AD6359"/>
<path d="M20.9696 317.266C20.9652 317.285 20.9652 317.304 20.9696 317.323C22.2778 319.593 73.7766 346.581 75.8885 346.917C78.0004 347.254 79.1218 341.254 77.9724 338.619C76.823 335.984 61.6752 316.818 61.6752 316.818L65.114 311.099C56.7038 306.614 41.3971 298.736 31.8936 293.849L28.4173 299.512C25.2308 306.053 22.5488 311.828 21.4462 314.958C21.4421 314.977 21.4421 314.996 21.4462 315.014C21.1103 315.716 20.9469 316.489 20.9696 317.266Z" fill="white"/>
<path d="M75.8981 346.917C73.8236 346.581 22.2875 319.593 20.9792 317.322C20.4746 316.463 23.9695 308.735 28.455 299.511C28.455 299.418 28.5484 299.315 28.6045 299.222L62.0212 316.266L61.7128 316.818C61.7128 316.818 76.7952 335.965 77.9726 338.619C79.1501 341.273 78.01 347.263 75.8981 346.917Z" fill="#A6A6A6"/>
<path d="M76.3655 344.619C67.7964 339.853 32.7817 321.453 23.951 317.397C23.8762 317.397 23.8575 317.397 23.951 317.454C32.3612 322.36 67.4974 340.47 76.2814 344.759C76.4776 344.852 76.5431 344.712 76.3655 344.619Z" fill="#263238"/>
<path d="M64.4788 318.388C61.395 315.959 56.9376 314.295 53.0595 315.361C52.9007 315.361 52.9661 315.613 53.0595 315.632C56.8748 316.292 60.6089 317.357 64.1984 318.809C64.2542 318.846 64.3224 318.859 64.3882 318.846C64.4539 318.833 64.5117 318.794 64.5489 318.739C64.586 318.683 64.5995 318.615 64.5864 318.549C64.5733 318.483 64.5345 318.425 64.4788 318.388Z" fill="#263238"/>
<path d="M66.133 321.164C63.0493 318.734 58.6012 317.071 54.7138 318.136C54.5643 318.136 54.6297 318.388 54.7138 318.416C58.5321 319.072 62.2693 320.134 65.862 321.584C65.9178 321.62 65.9855 321.632 66.0504 321.618C66.1152 321.604 66.1718 321.565 66.2078 321.509C66.2437 321.454 66.256 321.386 66.242 321.321C66.228 321.256 66.1888 321.2 66.133 321.164Z" fill="#263238"/>
<path d="M67.824 323.939C64.7402 321.509 60.2828 319.846 56.4047 320.911C56.2459 320.958 56.3113 321.173 56.4047 321.192C60.221 321.848 63.9555 322.913 67.5437 324.369C67.6007 324.406 67.6701 324.419 67.7367 324.405C67.8033 324.391 67.8616 324.351 67.8988 324.294C67.9359 324.237 67.9489 324.168 67.9349 324.101C67.9209 324.034 67.881 323.976 67.824 323.939Z" fill="#263238"/>
<path d="M138.097 122.467C137.947 123.168 135.546 134.316 133.06 143.885C131.247 150.884 129.388 157.023 128.313 157.659C127.238 158.294 121.202 160.995 119.23 161.808C119.23 161.808 105.96 228.043 98.9611 248.574C92.4946 267.525 65.75 318.182 65.75 318.182L26.9507 298.559C26.9507 298.559 57.2556 247.163 60.4328 237.921C65.3762 223.623 83.8787 153.818 83.8787 153.818C83.8787 153.818 83.7386 131.961 91.1022 122.42L138.097 122.467Z" fill="#37474F"/>
<path d="M65.1704 310.65C59.629 307.557 61.2643 308.361 55.6855 305.324C52.9475 303.847 35.0057 294.11 32.2116 293.176C32.1555 293.176 32.0995 293.251 32.1555 293.297C34.4917 295.082 52.6111 304.511 55.3678 305.941C60.9747 308.875 59.4141 307.968 65.0863 310.837C65.0986 310.843 65.1118 310.846 65.1253 310.846C65.1387 310.847 65.1521 310.844 65.1647 310.84C65.1773 310.835 65.1888 310.828 65.1986 310.818C65.2084 310.809 65.2163 310.798 65.2218 310.786C65.2274 310.774 65.2304 310.76 65.2308 310.747C65.2312 310.733 65.229 310.72 65.2242 310.708C65.2194 310.695 65.2122 310.683 65.203 310.674C65.1938 310.664 65.1827 310.656 65.1704 310.65Z" fill="#263238"/>
<path d="M93.8306 147.781C94.8865 147.51 96.0266 147.426 97.1106 147.258C97.989 147.118 98.8581 146.959 99.7178 146.772C101.381 146.472 102.957 145.808 104.334 144.829C105.839 143.66 106.595 141.885 107.324 140.156C107.754 139.147 108.203 138.138 108.651 137.138C108.866 136.652 109.091 136.203 109.315 135.68C109.622 135.118 109.893 134.538 110.128 133.942C110.128 133.848 110.296 133.942 110.268 133.942C110.119 134.352 109.995 134.77 109.894 135.194C109.745 135.68 109.604 136.129 109.455 136.661C109.184 137.53 108.922 138.399 108.642 139.268C108.204 140.858 107.577 142.389 106.773 143.829C105.166 146.38 102.306 147.408 99.4468 147.772C98.6244 147.875 97.7928 147.931 96.9704 147.978C95.929 148.071 94.8813 148.071 93.8399 147.978C93.8149 147.952 93.8002 147.917 93.7985 147.881C93.7968 147.845 93.8082 147.81 93.8306 147.781Z" fill="#263238"/>
<path d="M131.443 156.136C127.238 157.668 123.173 159.563 119.295 161.799C119.268 161.817 119.248 161.845 119.239 161.877C119.23 161.908 119.232 161.942 119.245 161.972C119.259 162.002 119.282 162.027 119.312 162.041C119.342 162.056 119.375 162.059 119.407 162.051C123.5 160.295 127.678 158.603 131.677 156.622C131.734 156.587 131.776 156.532 131.795 156.468C131.814 156.403 131.809 156.334 131.78 156.274C131.751 156.213 131.7 156.166 131.638 156.14C131.576 156.115 131.507 156.113 131.443 156.136Z" fill="#263238"/>
<path d="M132.695 128.074C132.695 127.934 132.434 127.906 132.434 128.074C132.441 132.639 132.216 137.202 131.761 141.745C131.574 143.857 129.892 155.519 126.21 154.669C125.603 154.519 125.276 153.921 125.192 152.996C125.206 151.788 125.369 150.586 125.678 149.417C126.089 146.981 126.4 144.53 126.612 142.063C127.039 137.473 126.989 132.85 126.462 128.27C126.455 128.245 126.44 128.222 126.419 128.207C126.398 128.191 126.372 128.182 126.346 128.182C126.319 128.182 126.294 128.191 126.273 128.207C126.251 128.222 126.236 128.245 126.229 128.27C126.332 134.637 125.958 141.004 125.108 147.315C124.65 150.352 123.126 154.912 126.294 155.379C129.462 155.846 131.621 148.212 132.013 146.119C133.019 140.158 133.249 134.093 132.695 128.074Z" fill="#263238"/>
<path d="M126.285 155.014C125.955 155.801 125.68 156.61 125.463 157.434C125.224 158.07 125.106 158.746 125.117 159.425C125.128 159.449 125.146 159.469 125.169 159.483C125.191 159.496 125.217 159.504 125.243 159.504C125.269 159.504 125.295 159.496 125.317 159.483C125.34 159.469 125.358 159.449 125.369 159.425C125.752 158.828 126.039 158.176 126.22 157.49C126.5 156.743 126.79 156.005 127.051 155.248C127.058 155.155 127.032 155.063 126.98 154.986C126.927 154.91 126.85 154.854 126.761 154.826C126.672 154.799 126.577 154.803 126.49 154.837C126.404 154.871 126.331 154.934 126.285 155.014Z" fill="#263238"/>
<path d="M37.3794 292.176C42.9021 281.776 48.5931 271.478 54.312 261.18C57.1154 256.106 60.0684 251.088 62.7223 245.948C65.2556 240.854 67.3109 235.536 68.8618 230.062C72.2819 218.96 75.5183 207.803 78.5709 196.589C81.6235 185.375 84.4924 174.118 87.1774 162.817C87.8502 160.014 88.5885 157.164 89.1305 154.304C89.6211 151.422 89.6211 148.477 89.1305 145.595C88.7165 142.912 88.6944 140.183 89.065 137.493C89.4856 134.808 90.1104 132.159 90.934 129.569C91.3638 128.204 91.8685 126.849 92.2983 125.494C92.3133 125.469 92.3363 125.45 92.3637 125.439C92.391 125.429 92.4211 125.428 92.4491 125.436C92.4772 125.445 92.5015 125.463 92.5182 125.487C92.5349 125.511 92.543 125.54 92.5413 125.569C90.8686 131.036 89.1491 136.577 89.5136 142.39C89.6818 145.193 90.4481 147.912 90.3733 150.716C90.1959 153.502 89.7261 156.261 88.9716 158.949C86.3239 170.312 83.4894 181.634 80.4679 192.917C77.4464 204.199 74.2443 215.412 70.8615 226.558C69.2169 231.996 67.675 237.51 65.3388 242.696C63.0026 247.882 60.031 252.798 57.2463 257.76C51.4806 268.039 45.6682 278.243 39.7249 288.392C38.9773 289.681 38.2111 290.961 37.4542 292.242C37.4915 292.382 37.3794 292.26 37.3794 292.176Z" fill="#263238"/>
<path d="M142.675 125.392C141.816 126.326 86.8872 127.364 86.6069 127.018C85.7939 126.083 99.8577 69.3609 112.51 58.8761C115.23 56.624 125.088 57.0819 126.443 57.8295C129.593 59.5676 132.461 63.0906 134.667 69.4637C139.078 82.2286 143.423 124.532 142.675 125.392Z" fill="#4668D6"/>
<path d="M141.479 106.282C140.794 100.488 139.975 94.7099 139.022 88.9473C139.03 88.9386 139.035 88.9268 139.035 88.9146C139.035 88.9024 139.03 88.8906 139.022 88.8819C138.937 87.2092 138.816 85.5365 138.61 83.8731C138.61 83.8264 138.526 83.8264 138.536 83.8731C138.536 85.1533 138.666 86.4242 138.779 87.6951C138.199 84.3123 137.576 80.9358 136.91 77.5654C137.844 83.7049 138.704 89.8537 139.507 96.0119C139.919 99.133 140.292 102.264 140.666 105.357C141.04 108.45 141.274 111.468 141.601 114.524C141.975 117.972 142.246 121.448 142.806 124.878C142.806 125.037 143.077 124.99 143.077 124.831C143.115 118.654 142.189 112.44 141.479 106.282Z" fill="#263238"/>
<path d="M127.696 66.3799C124.612 67.3144 118.903 62.9037 116.482 59.1658C116.324 58.9135 116.716 48.1951 116.567 46.0832C116.567 45.6533 130.172 48.4381 130.172 48.4381C129.586 51.1538 129.335 53.9312 129.425 56.7081C129.49 56.9978 130.677 65.4641 127.696 66.3799Z" fill="#AD6359"/>
<path d="M129.462 56.689C129.462 56.689 129.462 56.8758 129.509 57.1095C121.79 56.6516 118.211 52.4838 116.613 49.4001C116.613 47.9049 116.613 46.6621 116.613 46.0733C116.613 45.6341 130.21 48.4189 130.21 48.4189C129.626 51.135 129.375 53.9121 129.462 56.689Z" fill="#263238"/>
<path d="M129.565 57.3903L126.649 65.4548L116.37 55.7363L113.688 59.0631C113.688 59.0631 123.911 74.7155 123.967 74.0146L127.004 67.0434L131.901 71.6504L131.097 59.6892L129.565 57.3903Z" fill="#EBEBEB"/>
<path d="M131.863 65.6883C131.658 63.7165 131.518 61.7261 131.228 59.773C131.228 59.6983 131.106 59.6703 131.088 59.773C130.761 61.6981 131.564 69.2206 131.62 71.0334C131.415 70.8372 127.088 66.9872 127.051 67.0526C126.378 68.1646 124.154 73.2481 124.004 73.706C122.378 71.2203 116.202 62.1933 114.305 59.8571C114.249 59.7917 114.146 59.8571 114.193 59.9319C115.604 62.5017 123.799 74.6498 123.911 74.6498C125.099 72.2528 126.159 69.7948 127.088 67.2862C127.826 68.1272 132.209 72.4819 132.218 72.1922C132.213 70.0195 132.094 67.8486 131.863 65.6883Z" fill="#263238"/>
<path d="M130.882 22.6836C130.882 22.6836 135.274 24.5525 136.087 28.9539C136.9 33.3553 135.882 38.0837 135.499 38.2986C135.115 38.5135 130.882 22.6836 130.882 22.6836Z" fill="#263238"/>
<path d="M113.706 28.3465C112.165 33.0749 114.407 46.8397 117.725 49.9608C122.547 54.4837 130.564 55.0631 134.452 49.2507C138.19 43.6438 134.975 25.73 131.256 22.8798C125.771 18.6841 115.987 21.3847 113.706 28.3465Z" fill="#AD6359"/>
<path d="M115.155 41.4948C116.856 41.7097 117.865 36.5328 118.061 34.5797C118.239 32.8509 117.865 27.5525 117.874 27.1787C117.884 26.8049 125.715 30.5615 129.574 28.6645C133.433 26.7675 135.517 22.6465 135.274 20.9271C135.031 19.2076 129.228 15.7781 124.818 16.3201C120.407 16.8621 115.473 23.4408 115.473 23.4408C116.049 22.5043 116.549 21.523 116.968 20.5066C116.232 20.815 115.584 21.2992 115.079 21.9167C114.574 22.5341 114.228 23.266 114.071 24.0482C114.071 24.0482 114.183 21.4223 113.968 21.413C113.753 21.4036 111.931 23.9548 112.707 25.506C112.707 25.506 110.558 28.1412 110.744 30.5989C110.931 33.0565 113.155 41.2518 115.155 41.4948Z" fill="#263238"/>
<path d="M132.312 27.3098C131.223 28.1699 130.01 28.8599 128.714 29.3563C127.242 29.7516 125.694 29.7741 124.21 29.4218C122.717 29.1233 121.284 28.5803 119.968 27.8145C118.8 27.1603 117.725 26.3006 116.51 25.7493C116.202 25.6091 115.959 26.0577 116.165 26.2726C118.425 28.5101 121.343 29.9642 124.491 30.4216C125.954 30.6327 127.447 30.4595 128.824 29.9188C130.2 29.3781 131.412 28.4887 132.34 27.3379C132.34 27.3379 132.331 27.3005 132.312 27.3098Z" fill="#263238"/>
<path d="M116.622 40.2614C116.622 40.2614 113.52 35.8226 111.502 36.9347C109.483 38.0467 111.829 44.4665 114.193 45.3449C114.488 45.4781 114.808 45.5503 115.132 45.5573C115.456 45.5642 115.778 45.5058 116.079 45.3854C116.38 45.265 116.653 45.0852 116.883 44.8567C117.113 44.6281 117.295 44.3556 117.417 44.0553L116.622 40.2614Z" fill="#AD6359"/>
<path d="M112.221 38.7568C112.174 38.7568 112.174 38.7568 112.221 38.8223C113.884 39.4857 114.754 41.0276 115.37 42.6162C115.272 42.4513 115.14 42.3095 114.982 42.2003C114.824 42.0911 114.645 42.0171 114.456 41.9835C114.267 41.9498 114.074 41.9571 113.888 42.005C113.702 42.0529 113.529 42.1403 113.38 42.2611C113.38 42.2611 113.38 42.3546 113.427 42.3452C113.717 42.2508 114.03 42.2496 114.322 42.3417C114.613 42.4338 114.869 42.6148 115.053 42.8592C115.362 43.2679 115.626 43.7098 115.837 44.1768C115.912 44.3263 116.183 44.2422 116.127 44.074C116.137 41.9434 114.492 38.9718 112.221 38.7568Z" fill="#263238"/>
<path d="M126.509 36.4951C126.509 36.4951 126.434 36.5512 126.444 36.5979C126.612 37.5324 126.64 38.6911 125.808 39.1397C126.873 38.8874 126.817 37.3829 126.509 36.4951Z" fill="#263238"/>
<path d="M125.5 35.6071C123.92 35.7099 124.238 38.8497 125.705 38.7563C127.172 38.6628 126.817 35.523 125.5 35.6071Z" fill="#263238"/>
<path d="M131.863 35.8789C131.863 35.8789 131.948 35.8789 131.948 35.963C132.013 36.8975 132.256 38.0469 133.172 38.2805V38.3366C132.078 38.2898 131.761 36.8134 131.863 35.8789Z" fill="#263238"/>
<path d="M132.63 34.7758C134.181 34.4955 134.63 37.5792 133.191 37.8876C131.752 38.196 131.331 35.0094 132.63 34.7758Z" fill="#263238"/>
<path d="M124.116 34.2989C124.528 34.14 124.892 33.9345 125.284 33.7476C125.725 33.6078 126.109 33.3292 126.378 32.9532C126.438 32.8187 126.452 32.668 126.418 32.5245C126.385 32.381 126.305 32.2526 126.191 32.1589C125.936 32.0095 125.645 31.9307 125.35 31.9307C125.054 31.9307 124.764 32.0095 124.509 32.1589C123.946 32.3803 123.487 32.8035 123.219 33.3457C123.167 33.4734 123.153 33.6134 123.178 33.749C123.203 33.8846 123.267 34.0101 123.362 34.1105C123.456 34.2109 123.578 34.2821 123.711 34.3155C123.845 34.3489 123.986 34.3431 124.116 34.2989Z" fill="#263238"/>
<path d="M133.686 33.0754C133.256 33.0297 132.828 32.9611 132.406 32.8698C131.944 32.8666 131.496 32.7087 131.135 32.4212C131.046 32.3043 130.998 32.1615 130.998 32.0148C130.998 31.868 131.046 31.7252 131.135 31.6083C131.336 31.3928 131.591 31.235 131.874 31.1513C132.156 31.0675 132.456 31.0607 132.742 31.1317C133.343 31.1887 133.902 31.4648 134.312 31.9073C134.406 32.016 134.464 32.1505 134.48 32.2931C134.495 32.4357 134.467 32.5797 134.4 32.7061C134.332 32.8326 134.227 32.9355 134.1 33.0014C133.973 33.0674 133.828 33.0931 133.686 33.0754Z" fill="#263238"/>
<path d="M126.845 42.5503C127.13 42.9106 127.486 43.208 127.892 43.4235C128.297 43.6391 128.743 43.7681 129.2 43.8025C129.603 43.8367 130.009 43.8147 130.406 43.7371H130.63L130.836 43.6811C130.887 43.665 130.933 43.6327 130.965 43.5889C130.997 43.5452 131.014 43.4923 131.013 43.4381C131.013 43.4381 131.013 43.3727 131.013 43.3353V43.2512C130.957 42.5036 130.77 41.3823 130.77 41.3823C131.06 41.485 132.518 41.971 132.462 41.5878C132.03 38.2172 131.26 34.8987 130.163 31.6824C130.157 31.6637 130.145 31.6475 130.129 31.6359C130.113 31.6244 130.094 31.6182 130.074 31.6182C130.054 31.6182 130.035 31.6244 130.019 31.6359C130.003 31.6475 129.991 31.6637 129.985 31.6824C130.359 34.7942 131.284 37.8219 131.714 40.9524C131.197 40.7684 130.655 40.6613 130.107 40.6347C130.004 40.6347 130.509 42.812 130.509 43.1578C129.902 43.2777 129.277 43.2759 128.67 43.1523C128.064 43.0288 127.488 42.7861 126.976 42.4382C126.845 42.4102 126.78 42.4756 126.845 42.5503Z" fill="#263238"/>
<path d="M129.892 43.4573C129.509 44.016 128.992 44.4692 128.388 44.7749C128.051 44.9281 127.675 44.9706 127.313 44.8964C126.519 44.7376 126.453 44.0274 126.565 43.4013C126.627 43.0788 126.727 42.765 126.864 42.4668C127.742 43.1116 128.803 43.4588 129.892 43.4573Z" fill="#263238"/>
<path d="M128.425 44.7468C128.088 44.8999 127.712 44.9425 127.35 44.8683C126.556 44.7095 126.49 43.9993 126.603 43.3732C127.015 43.3687 127.418 43.5011 127.748 43.7496C128.077 43.9981 128.315 44.3488 128.425 44.7468Z" fill="#FF9BBC"/>
<path d="M107.465 76.4533C111.511 95.1427 116.398 118.065 121.603 121.785C129.733 127.588 152.665 131.858 161.048 132.064C164.533 132.138 168.869 105.02 165.141 104.964C157.179 104.889 140.05 105.263 138.144 104.03C136.237 102.796 126.594 85.8634 118.959 72.7248C109.782 56.8948 105.091 65.6508 107.465 76.4533Z" fill="#AD6359"/>
<path d="M160.617 104.946C160.617 104.946 171.364 104.768 178.279 105.45C182.138 105.843 188.745 107.59 191.446 109.188C195.492 111.552 210.911 124.018 207.976 127.821C205.304 131.242 193.436 118.851 193.436 118.851C193.436 118.851 206.519 130.298 202.575 133.802C198.632 137.306 187.035 121.57 187.035 121.57C187.035 121.57 200.23 133.634 195.557 136.652C192.025 138.942 180.746 125.224 180.746 125.224C180.746 125.224 192.016 135.671 188.483 138.175C184.577 140.979 173.373 128.943 173.373 128.943C163.327 133.793 156.852 133.279 152.189 131.429C152.17 131.475 157.468 112.795 160.617 104.946Z" fill="#AD6359"/>
<path d="M189.147 114.608C190.735 115.888 192.342 117.187 193.819 118.607C195.295 120.028 196.706 121.513 198.043 123.065C199.817 125.063 201.356 127.258 202.631 129.606C200.061 125.597 194.884 120.42 193.417 118.99C191.95 117.561 190.558 116.075 189.1 114.645C189.053 114.617 189.109 114.57 189.147 114.608Z" fill="#263238"/>
<path d="M183.904 119.813C186.437 121.112 192.314 126.663 194.968 130.644C195.08 130.802 194.968 130.812 194.837 130.644C193.025 128.775 185.754 121.589 183.857 119.822C183.829 119.822 183.867 119.794 183.904 119.813Z" fill="#263238"/>
<path d="M178.597 123.467C181.899 125.786 184.726 128.717 186.923 132.102C187.035 132.27 186.923 132.27 186.745 132.102C184.035 129.177 181.924 126.868 178.513 123.56C178.485 123.523 178.531 123.42 178.597 123.467Z" fill="#263238"/>
<path d="M159.169 104.16C159.169 104.16 151.245 133.661 150.759 133.203C150.273 132.746 125.799 127.597 120.173 122.111C114.548 116.626 107.764 83.3867 106.558 73.4159C105.353 63.4451 111.1 59.6418 118.136 70.6125C125.173 81.5832 137.76 102.263 138.695 102.805C139.629 103.347 159.169 104.16 159.169 104.16Z" fill="#4668D6"/>
<path d="M144.965 129.27C145.648 126.186 146.582 123.139 147.46 120.102C148.339 117.065 149.329 114.103 150.264 111.131C150.843 109.403 151.46 107.702 152.03 105.973C152.03 105.917 152.142 105.973 152.123 105.973C151.189 108.992 150.395 112.057 149.498 115.094C148.6 118.131 147.685 121.102 146.694 124.102C146.152 125.831 145.629 127.578 145.012 129.279C145.068 129.391 144.947 129.354 144.965 129.27Z" fill="#263238"/>
<path d="M127.771 126.177C125.137 125.21 122.711 123.751 120.622 121.878C118.276 119.589 117.501 116.196 116.501 113.169C114.314 106.553 112.483 99.8431 110.782 93.0962C109.848 89.2556 108.988 85.3775 108.137 81.5088C108.137 81.5088 108.063 81.5088 108.072 81.5088C108.493 84.4898 109.007 87.4614 109.614 90.4143C109.109 88.807 108.614 87.2091 108.081 85.6111C108.081 85.5551 107.969 85.6111 107.988 85.6111C108.499 87.6778 109.123 89.7149 109.857 91.7132C110.629 95.3701 111.508 99.0021 112.492 102.609C113.427 106.079 114.448 109.521 115.557 112.935C116.099 114.608 116.641 116.29 117.267 117.935C117.751 119.342 118.507 120.64 119.491 121.757C121.715 124.158 124.762 125.111 127.696 126.27C127.789 126.345 127.845 126.205 127.771 126.177Z" fill="#263238"/>
<path d="M147.554 103.507C145.208 103.301 139.629 103.105 139.143 102.722C138.697 102.278 138.313 101.775 138.003 101.226L136.069 98.1707C133.621 94.2957 131.144 90.4332 128.64 86.5832C127.986 85.0787 127.35 83.5742 126.612 82.1071C126.612 82.051 126.491 82.1071 126.519 82.1538C126.995 83.3593 127.537 84.5367 128.079 85.7142C126.621 83.4995 125.108 81.3128 123.603 79.1729H123.538C126.111 83.5773 128.758 87.9382 131.481 92.2555L135.536 98.6566L137.611 101.899C137.797 102.295 138.072 102.644 138.413 102.918C138.755 103.191 139.155 103.383 139.582 103.478C140.797 103.665 146.124 103.712 147.535 103.675C147.647 103.619 147.647 103.516 147.554 103.507Z" fill="#263238"/>
<path d="M240.981 29.9448C242.13 28.2365 242.75 26.2282 242.766 24.1698C242.766 16.8528 234.73 10.9189 224.824 10.9189C214.919 10.9189 206.892 16.8528 206.892 24.1884C206.892 31.524 214.919 37.4393 224.824 37.4393C229.227 37.5115 233.546 36.2295 237.197 33.7668L243.383 35.346L240.981 29.9448Z" fill="#FFFEFD"/>
<path d="M240.981 29.9452C242.022 28.3078 242.597 26.418 242.645 24.4785C242.663 22.555 242.134 20.6659 241.122 19.0305C238.991 15.816 235.783 13.4668 232.076 12.4051C228.416 11.2625 224.535 11.0158 220.759 11.6856C216.983 12.2707 213.477 13.9993 210.714 16.6383C209.377 17.9362 208.377 19.5398 207.798 21.3106C207.232 23.0851 207.206 24.988 207.723 26.7773C208.256 28.5705 209.218 30.2065 210.527 31.5431C211.859 32.8912 213.411 34.0034 215.115 34.8325C216.829 35.6639 218.65 36.2551 220.526 36.5893C222.406 36.9549 224.323 37.0929 226.235 37.0004C230.084 36.8559 233.82 35.6602 237.038 33.5429L237.122 33.4868H237.215L243.374 35.1595L243.243 35.3184L240.981 29.9452ZM240.981 29.9452L243.486 35.281L243.579 35.4866L243.355 35.4305L237.15 33.9634H237.318C234.066 36.2053 230.255 37.4994 226.31 37.7013C222.356 38.0011 218.391 37.277 214.797 35.5987C212.997 34.7412 211.356 33.5812 209.948 32.1692C208.518 30.7406 207.457 28.9866 206.854 27.0576C206.276 25.0968 206.296 23.008 206.911 21.0583C207.542 19.1392 208.629 17.4015 210.078 15.9935C212.985 13.2478 216.664 11.4603 220.619 10.8726C222.566 10.5427 224.546 10.4454 226.516 10.5829C228.479 10.7428 230.415 11.1413 232.281 11.7697C234.156 12.3913 235.922 13.3025 237.514 14.4703C239.128 15.6223 240.478 17.1033 241.477 18.8156C242.47 20.5211 242.952 22.4766 242.864 24.4486C242.777 26.4205 242.123 28.3255 240.981 29.9358V29.9452Z" fill="#263238"/>
<path d="M218.367 24.1883C218.367 24.5579 218.258 24.9193 218.052 25.2266C217.847 25.534 217.555 25.7735 217.214 25.915C216.872 26.0564 216.496 26.0934 216.134 26.0213C215.771 25.9492 215.438 25.7712 215.177 25.5098C214.915 25.2484 214.737 24.9154 214.665 24.5529C214.593 24.1904 214.63 23.8146 214.772 23.4731C214.913 23.1316 215.153 22.8397 215.46 22.6343C215.767 22.4289 216.129 22.3193 216.498 22.3193C216.994 22.3193 217.469 22.5162 217.82 22.8667C218.17 23.2172 218.367 23.6926 218.367 24.1883Z" fill="#263238"/>
<path d="M224.825 26.0297C225.852 26.0297 226.685 25.1972 226.685 24.1702C226.685 23.1431 225.852 22.3105 224.825 22.3105C223.798 22.3105 222.965 23.1431 222.965 24.1702C222.965 25.1972 223.798 26.0297 224.825 26.0297Z" fill="#263238"/>
<path d="M235.001 24.1883C235.001 24.5579 234.891 24.9193 234.686 25.2266C234.481 25.534 234.189 25.7735 233.847 25.915C233.506 26.0564 233.13 26.0934 232.768 26.0213C232.405 25.9492 232.072 25.7712 231.811 25.5098C231.549 25.2484 231.371 24.9154 231.299 24.5529C231.227 24.1904 231.264 23.8146 231.405 23.4731C231.547 23.1316 231.786 22.8397 232.094 22.6343C232.401 22.4289 232.762 22.3193 233.132 22.3193C233.628 22.3193 234.103 22.5162 234.454 22.8667C234.804 23.2172 235.001 23.6926 235.001 24.1883Z" fill="#263238"/>
<path d="M143.133 19.4135C141.985 17.7048 141.364 15.6967 141.348 13.6385C141.348 6.32159 149.384 0.387695 159.29 0.387695C169.195 0.387695 177.222 6.32159 177.222 13.6385C177.222 20.9554 169.195 26.8893 159.29 26.8893C154.888 26.9715 150.567 25.7028 146.908 23.2542L140.731 24.8241L143.133 19.4135Z" fill="white"/>
<path d="M143.133 19.4134C141.991 17.803 141.338 15.8981 141.25 13.9261C141.162 11.9541 141.644 9.99859 142.638 8.29314C143.635 6.58279 144.982 5.1021 146.591 3.94785C148.183 2.7802 149.949 1.86898 151.824 1.24722C153.694 0.619742 155.633 0.221245 157.599 0.0604474C159.569 -0.0770376 161.548 0.0202048 163.495 0.350131C167.45 0.947541 171.126 2.74484 174.027 5.49907C175.481 6.90414 176.572 8.64257 177.204 10.5639C177.822 12.5135 177.838 14.6042 177.251 16.5632C176.655 18.4932 175.597 20.2482 174.167 21.6748C172.758 23.0868 171.118 24.2468 169.317 25.1043C165.723 26.7789 161.758 27.4998 157.804 27.1975C153.856 26.9963 150.042 25.7022 146.787 23.4596H146.964L140.759 24.9267L140.535 24.9828L140.629 24.7679L143.133 19.4134ZM143.133 19.4134L140.834 24.8333L140.703 24.6838L146.862 23.0111H146.955L147.039 23.0765C150.257 25.1938 153.993 26.3895 157.842 26.534C159.751 26.6 161.661 26.44 163.533 26.0575C165.41 25.7272 167.232 25.1326 168.943 24.2913C170.649 23.469 172.201 22.3595 173.531 21.0113C174.838 19.6729 175.8 18.0375 176.335 16.2455C176.853 14.4562 176.827 12.5533 176.26 10.7788C175.671 9.01296 174.672 7.41177 173.344 6.10648C170.578 3.47385 167.073 1.74911 163.299 1.16312C159.52 0.493263 155.636 0.740018 151.973 1.88266C148.282 2.9481 145.092 5.2937 142.974 8.49873C141.977 10.1267 141.453 12.0002 141.46 13.9093C141.506 15.8621 142.084 17.7654 143.133 19.4134Z" fill="#263238"/>
<path d="M167.597 15.4975C168.624 15.4975 169.457 14.6649 169.457 13.6379C169.457 12.6109 168.624 11.7783 167.597 11.7783C166.57 11.7783 165.738 12.6109 165.738 13.6379C165.738 14.6649 166.57 15.4975 167.597 15.4975Z" fill="#263238"/>
<path d="M157.431 13.6385C157.431 14.0081 157.54 14.3695 157.746 14.6768C157.951 14.9842 158.243 15.2237 158.584 15.3652C158.926 15.5066 159.302 15.5436 159.664 15.4715C160.027 15.3994 160.36 15.2214 160.621 14.96C160.883 14.6986 161.061 14.3656 161.133 14.0031C161.205 13.6406 161.168 13.2648 161.026 12.9233C160.885 12.5818 160.645 12.2899 160.338 12.0845C160.031 11.8791 159.669 11.7695 159.3 11.7695C158.804 11.7695 158.329 11.9664 157.978 12.3169C157.628 12.6674 157.431 13.1428 157.431 13.6385Z" fill="#263238"/>
<path d="M149.114 13.6385C149.114 14.0081 149.223 14.3695 149.429 14.6768C149.634 14.9842 149.926 15.2237 150.267 15.3652C150.609 15.5066 150.985 15.5436 151.347 15.4715C151.71 15.3994 152.043 15.2214 152.304 14.96C152.566 14.6986 152.744 14.3656 152.816 14.0031C152.888 13.6406 152.851 13.2648 152.709 12.9233C152.568 12.5818 152.328 12.2899 152.021 12.0845C151.714 11.8791 151.352 11.7695 150.983 11.7695C150.487 11.7695 150.012 11.9664 149.661 12.3169C149.311 12.6674 149.114 13.1428 149.114 13.6385Z" fill="#263238"/>
</svg>
