<svg width="317" height="141" viewBox="0 0 317 141" fill="none" xmlns="http://www.w3.org/2000/svg">
<path d="M48.1445 64.312C46.7405 64.312 45.4319 64.0867 44.2185 63.636C43.0225 63.168 41.9825 62.5093 41.0985 61.66C40.2145 60.8107 39.5212 59.814 39.0185 58.67C38.5332 57.526 38.2905 56.2693 38.2905 54.9C38.2905 53.5307 38.5332 52.274 39.0185 51.13C39.5212 49.986 40.2145 48.9893 41.0985 48.14C41.9999 47.2907 43.0485 46.6407 44.2445 46.19C45.4405 45.722 46.7492 45.488 48.1705 45.488C49.7479 45.488 51.1692 45.7653 52.4345 46.32C53.7172 46.8573 54.7919 47.6547 55.6585 48.712L52.9545 51.208C52.3305 50.4973 51.6372 49.9687 50.8745 49.622C50.1119 49.258 49.2799 49.076 48.3785 49.076C47.5292 49.076 46.7492 49.2147 46.0385 49.492C45.3279 49.7693 44.7125 50.168 44.1925 50.688C43.6725 51.208 43.2652 51.8233 42.9705 52.534C42.6932 53.2447 42.5545 54.0333 42.5545 54.9C42.5545 55.7667 42.6932 56.5553 42.9705 57.266C43.2652 57.9767 43.6725 58.592 44.1925 59.112C44.7125 59.632 45.3279 60.0307 46.0385 60.308C46.7492 60.5853 47.5292 60.724 48.3785 60.724C49.2799 60.724 50.1119 60.5507 50.8745 60.204C51.6372 59.84 52.3305 59.294 52.9545 58.566L55.6585 61.062C54.7919 62.1193 53.7172 62.9253 52.4345 63.48C51.1692 64.0347 49.7392 64.312 48.1445 64.312ZM64.9105 64.208C63.4198 64.208 62.0938 63.896 60.9325 63.272C59.7885 62.648 58.8785 61.7987 58.2025 60.724C57.5438 59.632 57.2145 58.3927 57.2145 57.006C57.2145 55.602 57.5438 54.3627 58.2025 53.288C58.8785 52.196 59.7885 51.3467 60.9325 50.74C62.0938 50.116 63.4198 49.804 64.9105 49.804C66.3838 49.804 67.7011 50.116 68.8625 50.74C70.0238 51.3467 70.9338 52.1873 71.5925 53.262C72.2511 54.3367 72.5805 55.5847 72.5805 57.006C72.5805 58.3927 72.2511 59.632 71.5925 60.724C70.9338 61.7987 70.0238 62.648 68.8625 63.272C67.7011 63.896 66.3838 64.208 64.9105 64.208ZM64.9105 60.88C65.5865 60.88 66.1931 60.724 66.7305 60.412C67.2678 60.1 67.6925 59.658 68.0045 59.086C68.3165 58.4967 68.4725 57.8033 68.4725 57.006C68.4725 56.1913 68.3165 55.498 68.0045 54.926C67.6925 54.354 67.2678 53.912 66.7305 53.6C66.1931 53.288 65.5865 53.132 64.9105 53.132C64.2345 53.132 63.6278 53.288 63.0905 53.6C62.5531 53.912 62.1198 54.354 61.7905 54.926C61.4785 55.498 61.3225 56.1913 61.3225 57.006C61.3225 57.8033 61.4785 58.4967 61.7905 59.086C62.1198 59.658 62.5531 60.1 63.0905 60.412C63.6278 60.724 64.2345 60.88 64.9105 60.88ZM84.3136 49.804C85.4229 49.804 86.4109 50.0293 87.2776 50.48C88.1616 50.9133 88.8549 51.5893 89.3576 52.508C89.8602 53.4093 90.1116 54.5707 90.1116 55.992V64H86.0556V56.616C86.0556 55.4893 85.8042 54.6573 85.3016 54.12C84.8162 53.5827 84.1229 53.314 83.2216 53.314C82.5802 53.314 81.9996 53.4527 81.4796 53.73C80.9769 53.99 80.5782 54.3973 80.2836 54.952C80.0062 55.5067 79.8676 56.2173 79.8676 57.084V64H75.8116V50.012H79.6856V53.886L78.9576 52.716C79.4602 51.78 80.1796 51.0607 81.1156 50.558C82.0516 50.0553 83.1176 49.804 84.3136 49.804ZM100.988 69.252C99.6704 69.252 98.3964 69.0873 97.1657 68.758C95.9524 68.446 94.9384 67.9693 94.1237 67.328L95.7357 64.416C96.325 64.9013 97.0704 65.2827 97.9717 65.56C98.8904 65.8547 99.7917 66.002 100.676 66.002C102.114 66.002 103.154 65.6813 103.796 65.04C104.454 64.3987 104.784 63.4453 104.784 62.18V60.074L105.044 56.564L104.992 53.028V50.012H108.84V61.66C108.84 64.26 108.164 66.1753 106.812 67.406C105.46 68.6367 103.518 69.252 100.988 69.252ZM100.364 63.324C99.0637 63.324 97.885 63.0467 96.8277 62.492C95.7877 61.92 94.947 61.1313 94.3057 60.126C93.6817 59.1033 93.3697 57.916 93.3697 56.564C93.3697 55.1947 93.6817 54.0073 94.3057 53.002C94.947 51.9793 95.7877 51.1907 96.8277 50.636C97.885 50.0813 99.0637 49.804 100.364 49.804C101.542 49.804 102.582 50.0467 103.484 50.532C104.385 51 105.087 51.7367 105.59 52.742C106.092 53.73 106.344 55.004 106.344 56.564C106.344 58.1067 106.092 59.3807 105.59 60.386C105.087 61.374 104.385 62.1107 103.484 62.596C102.582 63.0813 101.542 63.324 100.364 63.324ZM101.17 59.996C101.88 59.996 102.513 59.8573 103.068 59.58C103.622 59.2853 104.056 58.878 104.368 58.358C104.68 57.838 104.836 57.24 104.836 56.564C104.836 55.8707 104.68 55.2727 104.368 54.77C104.056 54.25 103.622 53.8513 103.068 53.574C102.513 53.2793 101.88 53.132 101.17 53.132C100.459 53.132 99.8264 53.2793 99.2717 53.574C98.717 53.8513 98.275 54.25 97.9457 54.77C97.6337 55.2727 97.4777 55.8707 97.4777 56.564C97.4777 57.24 97.6337 57.838 97.9457 58.358C98.275 58.878 98.717 59.2853 99.2717 59.58C99.8264 59.8573 100.459 59.996 101.17 59.996ZM113.135 64V50.012H117.009V53.964L116.463 52.82C116.879 51.832 117.546 51.0867 118.465 50.584C119.383 50.064 120.501 49.804 121.819 49.804V53.548C121.645 53.5307 121.489 53.522 121.351 53.522C121.212 53.5047 121.065 53.496 120.909 53.496C119.799 53.496 118.898 53.8167 118.205 54.458C117.529 55.082 117.191 56.0613 117.191 57.396V64H113.135ZM132.416 64V61.27L132.156 60.672V55.784C132.156 54.9173 131.888 54.2413 131.35 53.756C130.83 53.2707 130.024 53.028 128.932 53.028C128.187 53.028 127.45 53.1493 126.722 53.392C126.012 53.6173 125.405 53.9293 124.902 54.328L123.446 51.494C124.209 50.9567 125.128 50.5407 126.202 50.246C127.277 49.9513 128.369 49.804 129.478 49.804C131.61 49.804 133.266 50.3067 134.444 51.312C135.623 52.3173 136.212 53.886 136.212 56.018V64H132.416ZM128.152 64.208C127.06 64.208 126.124 64.026 125.344 63.662C124.564 63.2807 123.966 62.7693 123.55 62.128C123.134 61.4867 122.926 60.7673 122.926 59.97C122.926 59.138 123.126 58.41 123.524 57.786C123.94 57.162 124.59 56.6767 125.474 56.33C126.358 55.966 127.511 55.784 128.932 55.784H132.65V58.15H129.374C128.421 58.15 127.762 58.306 127.398 58.618C127.052 58.93 126.878 59.32 126.878 59.788C126.878 60.308 127.078 60.724 127.476 61.036C127.892 61.3307 128.456 61.478 129.166 61.478C129.842 61.478 130.449 61.322 130.986 61.01C131.524 60.6807 131.914 60.204 132.156 59.58L132.78 61.452C132.486 62.3533 131.948 63.038 131.168 63.506C130.388 63.974 129.383 64.208 128.152 64.208ZM146.123 64.208C144.477 64.208 143.194 63.792 142.275 62.96C141.357 62.1107 140.897 60.854 140.897 59.19V46.918H144.953V59.138C144.953 59.7273 145.109 60.1867 145.421 60.516C145.733 60.828 146.158 60.984 146.695 60.984C147.337 60.984 147.883 60.8107 148.333 60.464L149.425 63.324C149.009 63.6187 148.507 63.844 147.917 64C147.345 64.1387 146.747 64.208 146.123 64.208ZM138.739 53.444V50.324H148.437V53.444H138.739ZM158.124 64.208C156.963 64.208 155.923 63.9827 155.004 63.532C154.103 63.0813 153.401 62.3967 152.898 61.478C152.395 60.542 152.144 59.3547 152.144 57.916V50.012H156.2V57.318C156.2 58.4793 156.443 59.3373 156.928 59.892C157.431 60.4293 158.133 60.698 159.034 60.698C159.658 60.698 160.213 60.568 160.698 60.308C161.183 60.0307 161.565 59.6147 161.842 59.06C162.119 58.488 162.258 57.7773 162.258 56.928V50.012H166.314V64H162.466V60.152L163.168 61.27C162.7 62.2407 162.007 62.9773 161.088 63.48C160.187 63.9653 159.199 64.208 158.124 64.208ZM170.592 64V44.708H174.648V64H170.592ZM187.512 64V61.27L187.252 60.672V55.784C187.252 54.9173 186.983 54.2413 186.446 53.756C185.926 53.2707 185.12 53.028 184.028 53.028C183.283 53.028 182.546 53.1493 181.818 53.392C181.107 53.6173 180.501 53.9293 179.998 54.328L178.542 51.494C179.305 50.9567 180.223 50.5407 181.298 50.246C182.373 49.9513 183.465 49.804 184.574 49.804C186.706 49.804 188.361 50.3067 189.54 51.312C190.719 52.3173 191.308 53.886 191.308 56.018V64H187.512ZM183.248 64.208C182.156 64.208 181.22 64.026 180.44 63.662C179.66 63.2807 179.062 62.7693 178.646 62.128C178.23 61.4867 178.022 60.7673 178.022 59.97C178.022 59.138 178.221 58.41 178.62 57.786C179.036 57.162 179.686 56.6767 180.57 56.33C181.454 55.966 182.607 55.784 184.028 55.784H187.746V58.15H184.47C183.517 58.15 182.858 58.306 182.494 58.618C182.147 58.93 181.974 59.32 181.974 59.788C181.974 60.308 182.173 60.724 182.572 61.036C182.988 61.3307 183.551 61.478 184.262 61.478C184.938 61.478 185.545 61.322 186.082 61.01C186.619 60.6807 187.009 60.204 187.252 59.58L187.876 61.452C187.581 62.3533 187.044 63.038 186.264 63.506C185.484 63.974 184.479 64.208 183.248 64.208ZM201.219 64.208C199.572 64.208 198.29 63.792 197.371 62.96C196.452 62.1107 195.993 60.854 195.993 59.19V46.918H200.049V59.138C200.049 59.7273 200.205 60.1867 200.517 60.516C200.829 60.828 201.254 60.984 201.791 60.984C202.432 60.984 202.978 60.8107 203.429 60.464L204.521 63.324C204.105 63.6187 203.602 63.844 203.013 64C202.441 64.1387 201.843 64.208 201.219 64.208ZM193.835 53.444V50.324H203.533V53.444H193.835ZM207.318 64V50.012H211.374V64H207.318ZM209.346 48.062C208.6 48.062 207.994 47.8453 207.526 47.412C207.058 46.9787 206.824 46.4413 206.824 45.8C206.824 45.1587 207.058 44.6213 207.526 44.188C207.994 43.7547 208.6 43.538 209.346 43.538C210.091 43.538 210.698 43.746 211.166 44.162C211.634 44.5607 211.868 45.0807 211.868 45.722C211.868 46.398 211.634 46.9613 211.166 47.412C210.715 47.8453 210.108 48.062 209.346 48.062ZM222.314 64.208C220.823 64.208 219.497 63.896 218.336 63.272C217.192 62.648 216.282 61.7987 215.606 60.724C214.947 59.632 214.618 58.3927 214.618 57.006C214.618 55.602 214.947 54.3627 215.606 53.288C216.282 52.196 217.192 51.3467 218.336 50.74C219.497 50.116 220.823 49.804 222.314 49.804C223.787 49.804 225.105 50.116 226.266 50.74C227.427 51.3467 228.337 52.1873 228.996 53.262C229.655 54.3367 229.984 55.5847 229.984 57.006C229.984 58.3927 229.655 59.632 228.996 60.724C228.337 61.7987 227.427 62.648 226.266 63.272C225.105 63.896 223.787 64.208 222.314 64.208ZM222.314 60.88C222.99 60.88 223.597 60.724 224.134 60.412C224.671 60.1 225.096 59.658 225.408 59.086C225.72 58.4967 225.876 57.8033 225.876 57.006C225.876 56.1913 225.72 55.498 225.408 54.926C225.096 54.354 224.671 53.912 224.134 53.6C223.597 53.288 222.99 53.132 222.314 53.132C221.638 53.132 221.031 53.288 220.494 53.6C219.957 53.912 219.523 54.354 219.194 54.926C218.882 55.498 218.726 56.1913 218.726 57.006C218.726 57.8033 218.882 58.4967 219.194 59.086C219.523 59.658 219.957 60.1 220.494 60.412C221.031 60.724 221.638 60.88 222.314 60.88ZM241.717 49.804C242.826 49.804 243.814 50.0293 244.681 50.48C245.565 50.9133 246.258 51.5893 246.761 52.508C247.264 53.4093 247.515 54.5707 247.515 55.992V64H243.459V56.616C243.459 55.4893 243.208 54.6573 242.705 54.12C242.22 53.5827 241.526 53.314 240.625 53.314C239.984 53.314 239.403 53.4527 238.883 53.73C238.38 53.99 237.982 54.3973 237.687 54.952C237.41 55.5067 237.271 56.2173 237.271 57.084V64H233.215V50.012H237.089V53.886L236.361 52.716C236.864 51.78 237.583 51.0607 238.519 50.558C239.455 50.0553 240.521 49.804 241.717 49.804ZM256.418 64.208C255.222 64.208 254.069 64.0693 252.96 63.792C251.868 63.4973 251.001 63.1333 250.36 62.7L251.712 59.788C252.353 60.1867 253.107 60.516 253.974 60.776C254.858 61.0187 255.724 61.14 256.574 61.14C257.51 61.14 258.168 61.0273 258.55 60.802C258.948 60.5767 259.148 60.2647 259.148 59.866C259.148 59.5367 258.992 59.294 258.68 59.138C258.385 58.9647 257.986 58.8347 257.484 58.748C256.981 58.6613 256.426 58.5747 255.82 58.488C255.23 58.4013 254.632 58.2887 254.026 58.15C253.419 57.994 252.864 57.7687 252.362 57.474C251.859 57.1793 251.452 56.7807 251.14 56.278C250.845 55.7753 250.698 55.1253 250.698 54.328C250.698 53.444 250.949 52.664 251.452 51.988C251.972 51.312 252.717 50.7833 253.688 50.402C254.658 50.0033 255.82 49.804 257.172 49.804C258.125 49.804 259.096 49.908 260.084 50.116C261.072 50.324 261.895 50.6273 262.554 51.026L261.202 53.912C260.526 53.5133 259.841 53.2447 259.148 53.106C258.472 52.95 257.813 52.872 257.172 52.872C256.27 52.872 255.612 52.9933 255.196 53.236C254.78 53.4787 254.572 53.7907 254.572 54.172C254.572 54.5187 254.719 54.7787 255.014 54.952C255.326 55.1253 255.733 55.264 256.236 55.368C256.738 55.472 257.284 55.5673 257.874 55.654C258.48 55.7233 259.087 55.836 259.694 55.992C260.3 56.148 260.846 56.3733 261.332 56.668C261.834 56.9453 262.242 57.3353 262.554 57.838C262.866 58.3233 263.022 58.9647 263.022 59.762C263.022 60.6287 262.762 61.4 262.242 62.076C261.722 62.7347 260.968 63.2547 259.98 63.636C259.009 64.0173 257.822 64.208 256.418 64.208ZM266.33 57.682L265.524 45.8H270.36L269.554 57.682H266.33ZM267.942 64.208C267.214 64.208 266.616 63.974 266.148 63.506C265.68 63.038 265.446 62.4833 265.446 61.842C265.446 61.1833 265.68 60.6373 266.148 60.204C266.616 59.7533 267.214 59.528 267.942 59.528C268.688 59.528 269.286 59.7533 269.736 60.204C270.204 60.6373 270.438 61.1833 270.438 61.842C270.438 62.4833 270.204 63.038 269.736 63.506C269.286 63.974 268.688 64.208 267.942 64.208ZM274.366 57.682L273.56 45.8H278.396L277.59 57.682H274.366ZM275.978 64.208C275.25 64.208 274.652 63.974 274.184 63.506C273.716 63.038 273.482 62.4833 273.482 61.842C273.482 61.1833 273.716 60.6373 274.184 60.204C274.652 59.7533 275.25 59.528 275.978 59.528C276.723 59.528 277.321 59.7533 277.772 60.204C278.24 60.6373 278.474 61.1833 278.474 61.842C278.474 62.4833 278.24 63.038 277.772 63.506C277.321 63.974 276.723 64.208 275.978 64.208Z" fill="#FF511A"/>
<path d="M12 69C10.5 74.5 9 77 2 78.5C9.25 79.25 10.75 82 12 89C13 81.75 16 80 22.25 78.5C15.75 77.25 13.5 74.5 12 69Z" fill="#FFC727"/>
<path d="M31.5 0C30.45 3.85 29.4 5.6 24.5 6.65C29.575 7.175 30.625 9.1 31.5 14C32.2 8.925 34.3 7.7 38.675 6.65C34.125 5.775 32.55 3.85 31.5 0Z" fill="#FFC727"/>
<path d="M77.5 19.5C76.75 22.25 76 23.5 72.5 24.25C76.125 24.625 76.875 26 77.5 29.5C78 25.875 79.5 25 82.625 24.25C79.375 23.625 78.25 22.25 77.5 19.5Z" fill="#FFC727"/>
<path d="M302.5 14.5C301.3 18.9 300.1 20.9 294.5 22.1C300.3 22.7 301.5 24.9 302.5 30.5C303.3 24.7 305.7 23.3 310.7 22.1C305.5 21.1 303.7 18.9 302.5 14.5Z" fill="#FFC727"/>
<path d="M241.5 87.5C240.3 91.9 239.1 93.9 233.5 95.1C239.3 95.7 240.5 97.9 241.5 103.5C242.3 97.7 244.7 96.3 249.7 95.1C244.5 94.1 242.7 91.9 241.5 87.5Z" fill="#FFC727"/>
<path d="M256 6C255.25 8.75 254.5 10 251 10.75C254.625 11.125 255.375 12.5 256 16C256.5 12.375 258 11.5 261.125 10.75C257.875 10.125 256.75 8.75 256 6Z" fill="#FFC727"/>
<path d="M293.5 62.5C292.75 65.25 292 66.5 288.5 67.25C292.125 67.625 292.875 69 293.5 72.5C294 68.875 295.5 68 298.625 67.25C295.375 66.625 294.25 65.25 293.5 62.5Z" fill="#FFC727"/>
</svg>
