<svg width="292" height="249" viewBox="0 0 292 249" fill="none" xmlns="http://www.w3.org/2000/svg">
<path d="M271.796 75.8222L276.922 67.6042L274.389 66.0368C274.031 65.8089 273.743 65.4859 273.557 65.1039C273.372 64.7219 273.296 64.2958 273.338 63.8732C273.379 63.4052 273.396 62.9354 273.388 62.4656C273.371 62.0366 273.475 61.6116 273.686 61.2381C273.898 60.8647 274.21 60.5575 274.586 60.3512L277.192 58.9498L272.619 50.4245L270.013 51.8259C269.646 52.0248 269.231 52.118 268.815 52.0953C268.398 52.0725 267.996 51.9345 267.653 51.6968C267.231 51.4033 266.794 51.1324 266.344 50.8855C265.977 50.6839 265.673 50.3849 265.466 50.0215C265.259 49.6581 265.156 49.2444 265.17 48.8263L265.262 45.8637L255.599 45.5625L255.507 48.5375C255.494 48.9562 255.364 49.3631 255.133 49.7125C254.902 50.062 254.578 50.3404 254.198 50.5167C253.971 50.6211 253.749 50.7379 253.528 50.8547C253.307 50.9715 253.085 51.1006 252.87 51.2297C252.514 51.4482 252.105 51.5638 251.687 51.5638C251.269 51.5638 250.86 51.4482 250.504 51.2297L247.971 49.6623L242.876 57.8803L245.414 59.4538C245.77 59.6825 246.056 60.0049 246.24 60.3855C246.425 60.7662 246.501 61.1903 246.459 61.6113C246.418 62.0813 246.402 62.5532 246.41 63.025C246.425 63.4528 246.32 63.8763 246.109 64.2484C245.897 64.6206 245.587 64.9268 245.212 65.1332L242.605 66.5347L247.172 75.0538L249.785 73.6586C250.164 73.4589 250.591 73.3687 251.019 73.398C251.447 73.4273 251.858 73.575 252.206 73.8245C252.593 74.0933 252.993 74.3416 253.405 74.5683C253.783 74.7628 254.098 75.0595 254.316 75.4247C254.533 75.7898 254.643 76.2087 254.634 76.6335L254.542 79.6208L264.211 79.9219L264.303 76.9531C264.32 76.5298 264.455 76.1196 264.691 75.768C264.928 75.4165 265.257 75.1374 265.643 74.9616C265.858 74.8572 266.073 74.7527 266.288 74.6359C266.503 74.5191 266.706 74.4023 266.903 74.2855C267.265 74.0612 267.682 73.9424 268.108 73.9424C268.533 73.9424 268.951 74.0612 269.312 74.2855L271.796 75.8222ZM264.493 69.1716C263.149 70.1385 261.535 70.6598 259.879 70.6622C258.223 70.6645 256.607 70.1478 255.26 69.1847C253.913 68.2216 252.901 66.8605 252.367 65.2927C251.834 63.7248 251.805 62.0292 252.284 60.444C252.764 58.8589 253.729 57.4639 255.042 56.4552C256.356 55.4466 257.952 54.8749 259.608 54.8205C261.263 54.7662 262.894 55.232 264.271 56.1523C265.647 57.0727 266.701 58.4014 267.284 59.9517C267.898 61.5814 267.957 63.3681 267.452 65.0349C266.948 66.7017 265.908 68.1556 264.493 69.1716Z" fill="#EBEBEB"/>
<path d="M18.4767 151.767C18.7332 151.919 18.9426 152.139 19.0815 152.403C19.2204 152.666 19.2834 152.963 19.2635 153.261C19.2635 153.427 19.2635 153.593 19.2635 153.759C19.2635 153.925 19.2635 154.097 19.2635 154.263C19.2836 154.559 19.2212 154.854 19.0834 155.117C18.9456 155.379 18.7378 155.599 18.4829 155.75L16.6758 156.807L20.0626 162.677L21.8389 161.639C22.0982 161.49 22.3941 161.417 22.6929 161.427C22.9917 161.438 23.2814 161.533 23.5292 161.7C23.811 161.883 24.1024 162.052 24.402 162.204C24.6681 162.338 24.892 162.542 25.0493 162.795C25.2065 163.047 25.291 163.339 25.2933 163.636V165.708H32.0546V163.636C32.0625 163.337 32.1535 163.046 32.3174 162.795C32.4813 162.544 32.7116 162.344 32.9827 162.216C33.2824 162.064 33.5737 161.896 33.8555 161.712C34.1033 161.545 34.3931 161.451 34.6919 161.44C34.9907 161.429 35.2865 161.502 35.5458 161.651L37.3468 162.69L40.7335 156.82L38.9264 155.775C38.6699 155.625 38.4604 155.406 38.3214 155.143C38.1824 154.88 38.1195 154.584 38.1397 154.287C38.1397 154.121 38.1397 153.955 38.1397 153.789C38.1397 153.623 38.1397 153.457 38.1397 153.292C38.1138 152.989 38.174 152.686 38.3132 152.416C38.4524 152.146 38.665 151.921 38.9264 151.767L40.7335 150.728L37.3468 144.858L35.552 145.897C35.2928 146.046 34.9975 146.119 34.699 146.109C34.4005 146.099 34.1106 146.007 33.8617 145.842C33.5779 145.656 33.2845 145.486 32.9827 145.332C32.7167 145.198 32.4927 144.994 32.3355 144.741C32.1782 144.488 32.0938 144.197 32.0914 143.9V141.828H25.3302V143.9C25.3279 144.197 25.2434 144.488 25.0862 144.741C24.9289 144.994 24.7049 145.198 24.4389 145.332C24.1371 145.486 23.8438 145.656 23.56 145.842C23.3111 146.007 23.0212 146.099 22.7227 146.109C22.4242 146.119 22.1288 146.046 21.8697 145.897L20.0748 144.858L16.6881 150.728L18.4767 151.767ZM28.7047 148.208C29.7988 148.208 30.8683 148.533 31.778 149.141C32.6878 149.748 33.3968 150.612 33.8155 151.623C34.2342 152.634 34.3438 153.746 34.1303 154.819C33.9169 155.893 33.39 156.878 32.6163 157.652C31.8427 158.426 30.857 158.952 29.7839 159.166C28.7108 159.379 27.5985 159.27 26.5877 158.851C25.5769 158.432 24.7129 157.723 24.105 156.814C23.4972 155.904 23.1727 154.834 23.1727 153.74C23.1776 152.276 23.7626 150.874 24.7995 149.84C25.8364 148.807 27.2407 148.227 28.7047 148.227V148.208Z" fill="#EBEBEB"/>
<path d="M230.251 43.7013L228.278 35.262L225.678 35.8767C225.307 35.9603 224.921 35.939 224.561 35.8152C224.202 35.6915 223.884 35.4701 223.643 35.1759C223.374 34.8511 223.084 34.5431 222.777 34.254C222.496 33.9911 222.293 33.6555 222.191 33.2845C222.089 32.9134 222.092 32.5214 222.199 32.1518L222.961 29.6133L214.663 27.1055L213.895 29.6502C213.79 30.0088 213.587 30.331 213.309 30.5808C213.031 30.8305 212.689 30.9978 212.321 31.0639C211.867 31.1436 211.418 31.2483 210.975 31.3773C210.615 31.4836 210.233 31.4869 209.871 31.387C209.509 31.287 209.183 31.0878 208.928 30.8119L207.085 28.8818L200.772 34.8133L202.616 36.7556C202.873 37.0297 203.048 37.3695 203.123 37.7374C203.198 38.1053 203.169 38.4868 203.04 38.8393C202.966 39.0544 202.893 39.2634 202.825 39.454C202.757 39.6445 202.702 39.8904 202.653 40.1055C202.564 40.4697 202.376 40.8023 202.111 41.0669C201.845 41.3315 201.511 41.5177 201.147 41.6053L198.547 42.2199L200.526 50.6592L203.132 50.0445C203.504 49.9624 203.89 49.9849 204.25 50.1098C204.609 50.2346 204.926 50.4567 205.167 50.7514C205.437 51.0735 205.725 51.3812 206.027 51.6734C206.308 51.9349 206.511 52.2694 206.613 52.6395C206.715 53.0096 206.712 53.4008 206.605 53.7694L205.837 56.3079L214.135 58.8157L214.903 56.271C215.018 55.905 215.232 55.5779 215.522 55.3262C215.812 55.0745 216.166 54.908 216.544 54.845C216.959 54.7706 217.369 54.6741 217.773 54.5561C218.136 54.4431 218.523 54.4333 218.891 54.5277C219.259 54.6222 219.594 54.8172 219.857 55.0909L221.701 57.0455L228.02 51.1079L226.176 49.1717C225.92 48.8906 225.747 48.5448 225.674 48.1721C225.602 47.7993 225.633 47.4137 225.764 47.0573C225.838 46.8545 225.905 46.6516 225.967 46.4426C226.028 46.2337 226.084 46.0308 226.139 45.828C226.223 45.4549 226.41 45.1128 226.678 44.8403C226.946 44.5677 227.285 44.3754 227.657 44.2852L230.251 43.7013ZM221.412 44.1131C221.171 45.5767 220.478 46.928 219.43 47.9775C218.382 49.0269 217.031 49.7217 215.568 49.9643C214.105 50.2069 212.602 49.9851 211.272 49.33C209.941 48.6749 208.849 47.6195 208.149 46.3119C207.448 45.0044 207.175 43.5103 207.368 42.0396C207.56 40.5689 208.208 39.1954 209.221 38.112C210.234 37.0286 211.561 36.2896 213.016 35.9989C214.47 35.7083 215.979 35.8805 217.331 36.4913C218.755 37.1351 219.928 38.2311 220.666 39.6093C221.404 40.9874 221.666 42.5706 221.412 44.1131Z" fill="#EBEBEB"/>
<path d="M107.885 61.4199C111.531 38.705 96.0731 17.335 73.3583 13.6885C50.6434 10.0421 29.2734 25.5 25.6269 48.2149C21.9805 70.9297 37.4384 92.2998 60.1533 95.9463C82.8681 99.5927 104.238 84.1347 107.885 61.4199Z" fill="#EBEBEB"/>
<path d="M68.6638 95.4838C90.6137 95.4838 108.408 77.6899 108.408 55.74C108.408 33.79 90.6137 15.9961 68.6638 15.9961C46.7139 15.9961 28.9199 33.79 28.9199 55.74C28.9199 77.6899 46.7139 95.4838 68.6638 95.4838Z" fill="#DBDBDB"/>
<path d="M68.6638 92.976C89.2287 92.976 105.9 76.3049 105.9 55.74C105.9 35.1751 89.2287 18.5039 68.6638 18.5039C48.0989 18.5039 31.4277 35.1751 31.4277 55.74C31.4277 76.3049 48.0989 92.976 68.6638 92.976Z" fill="white"/>
<path opacity="0.5" d="M105.058 47.8409C88.0991 58.1119 60.2305 74.9658 44.655 84.2041C40.2514 80.4916 36.7693 75.8081 34.4824 70.5218L85.997 22.7812C90.8091 25.3159 95.0086 28.8724 98.3012 33.2012C101.594 37.5301 103.9 42.5268 105.058 47.8409Z" fill="#EBEBEB"/>
<path opacity="0.5" d="M105.869 57.043C105.733 61.1845 104.902 65.2737 103.41 69.1395L56.9664 91.1074C54.9433 90.4365 52.9815 89.5934 51.1025 88.5873C65.1352 80.4676 90.7665 65.7158 105.869 57.043Z" fill="#EBEBEB"/>
<path d="M69.0199 21.207H68.3008V26.8496H69.0199V21.207Z" fill="#C7C7C7"/>
<path d="M51.7048 25.6482L51.082 26.0078L53.9033 30.8944L54.5261 30.5348L51.7048 25.6482Z" fill="#C7C7C7"/>
<path d="M38.9338 38.1584L38.5742 38.7812L43.4608 41.6025L43.8204 40.9797L38.9338 38.1584Z" fill="#C7C7C7"/>
<path d="M39.7744 55.3828H34.1318V56.102H39.7744V55.3828Z" fill="#C7C7C7"/>
<path d="M43.4618 69.8857L38.5752 72.707L38.9348 73.3298L43.8214 70.5085L43.4618 69.8857Z" fill="#C7C7C7"/>
<path d="M53.9027 80.5846L51.084 85.4727L51.707 85.8319L54.5257 80.9438L53.9027 80.5846Z" fill="#C7C7C7"/>
<path d="M69.0199 84.625H68.3008V90.2676H69.0199V84.625Z" fill="#C7C7C7"/>
<path d="M83.4148 80.5857L82.792 80.9453L85.6133 85.8319L86.2361 85.4723L83.4148 80.5857Z" fill="#C7C7C7"/>
<path d="M93.8576 69.8694L93.498 70.4922L98.3847 73.3135L98.7442 72.6907L93.8576 69.8694Z" fill="#C7C7C7"/>
<path d="M103.195 55.3828H97.5527V56.102H103.195V55.3828Z" fill="#C7C7C7"/>
<path d="M98.3866 38.1709L93.5 40.9922L93.8596 41.615L98.7462 38.7937L98.3866 38.1709Z" fill="#C7C7C7"/>
<path d="M85.6136 25.6549L82.7949 30.543L83.4179 30.9022L86.2366 26.0141L85.6136 25.6549Z" fill="#C7C7C7"/>
<path d="M69.2044 23.7623L70.4276 58.2508L66.8994 58.2078L68.2455 23.75L69.2044 23.7623Z" fill="#C7C7C7"/>
<path d="M90.6864 43.7154L67.483 58.5226L65.7988 55.4185L90.2315 42.8672L90.6864 43.7154Z" fill="#A6A6A6"/>
<path d="M69.8678 55.7371C69.8678 55.9803 69.7957 56.2179 69.6606 56.4201C69.5256 56.6223 69.3336 56.7798 69.1089 56.8729C68.8843 56.9659 68.6371 56.9903 68.3987 56.9428C68.1602 56.8954 67.9412 56.7783 67.7692 56.6064C67.5973 56.4345 67.4802 56.2154 67.4328 55.977C67.3854 55.7385 67.4097 55.4913 67.5028 55.2667C67.5958 55.0421 67.7534 54.8501 67.9555 54.715C68.1577 54.5799 68.3954 54.5078 68.6385 54.5078C68.9645 54.5078 69.2772 54.6373 69.5078 54.8679C69.7383 55.0984 69.8678 55.4111 69.8678 55.7371Z" fill="#C7C7C7"/>
<path d="M248.378 167.938C248.378 167.938 238.752 165.756 233.478 160.894C228.205 156.032 225.291 147.328 225.291 147.328C228.949 148.031 232.555 148.979 236.084 150.168C237.407 151.527 238.508 153.084 239.348 154.784C239.429 153.685 239.429 152.582 239.348 151.483C240.579 152.016 241.731 152.715 242.772 153.561C247.142 157.39 248.378 167.938 248.378 167.938Z" fill="#DBDBDB"/>
<path d="M231.266 151.565C229.956 150.656 228.623 149.783 227.313 148.867C227.296 148.856 227.284 148.839 227.279 148.82C227.275 148.8 227.278 148.78 227.289 148.763C227.299 148.745 227.316 148.733 227.336 148.729C227.355 148.724 227.376 148.727 227.393 148.738C229.852 150.219 232.31 151.811 234.683 153.459C235.507 154.036 236.318 154.639 237.142 155.253L236.976 154.964C236.687 154.485 236.361 154.006 236.078 153.532C235.473 152.569 234.788 151.659 234.032 150.809C234.032 150.779 234.032 150.729 234.081 150.76C234.831 151.627 235.58 152.481 236.263 153.397C236.589 153.833 236.877 154.288 237.179 154.749C237.326 154.989 237.474 155.229 237.609 155.475L237.756 155.72C238.986 156.698 240.215 157.718 241.364 158.794C242.077 159.458 242.766 160.152 243.436 160.859C243.061 159.697 242.735 158.517 242.305 157.374C242.305 157.366 242.308 157.358 242.314 157.352C242.32 157.346 242.327 157.343 242.336 157.343C242.344 157.343 242.352 157.346 242.357 157.352C242.363 157.358 242.366 157.366 242.366 157.374C242.784 158.603 243.245 159.783 243.596 161.019C244.333 161.818 245.034 162.642 245.698 163.477C245.69 163.424 245.68 163.37 245.667 163.318C245.556 162.869 245.446 162.414 245.323 161.965C245.089 161.093 244.831 160.226 244.536 159.378C243.983 157.604 243.108 155.947 241.954 154.491C241.954 154.46 241.954 154.417 241.997 154.448C243.803 156.695 245.065 159.329 245.685 162.144C245.788 162.553 245.886 162.963 245.98 163.373C246.03 163.588 246.085 163.809 246.122 164.037C246.417 164.43 246.7 164.824 246.97 165.235C248.613 167.744 249.979 170.423 251.045 173.226C252.243 176.372 253.269 179.582 254.119 182.839C254.119 182.852 254.113 182.865 254.104 182.874C254.095 182.883 254.082 182.888 254.069 182.888C254.056 182.888 254.044 182.883 254.035 182.874C254.025 182.865 254.02 182.852 254.02 182.839C252.133 177.209 250.215 171.493 246.995 166.465C246.312 165.401 245.575 164.375 244.794 163.391C243.201 163.289 241.628 162.977 240.117 162.463C238.464 161.907 236.889 161.145 235.427 160.195C234.593 159.635 233.791 159.03 233.023 158.382C232.987 158.351 233.023 158.302 233.06 158.333C234.406 159.415 235.89 160.312 237.474 161C239.03 161.714 240.658 162.26 242.329 162.629C243.036 162.783 243.762 162.9 244.481 162.998C243.59 161.9 242.642 160.85 241.641 159.851C241.315 159.525 240.983 159.236 240.645 158.904C239.524 158.12 238.335 157.437 237.093 156.864C235.513 156.102 233.964 155.296 232.403 154.503C231.518 154.055 230.645 153.594 229.76 153.163C229.723 153.163 229.76 153.09 229.79 153.108C231.376 153.87 232.98 154.583 234.579 155.315C236.078 156.003 237.597 156.698 239.041 157.503L239.225 157.614C237.922 156.476 236.57 155.401 235.187 154.356C233.892 153.409 232.585 152.479 231.266 151.565Z" fill="#A6A6A6"/>
<path d="M231.812 156.523C232.599 156.867 233.392 157.168 234.166 157.531C234.941 157.894 235.721 158.342 236.477 158.76C236.485 158.764 236.49 158.771 236.492 158.779C236.495 158.787 236.494 158.796 236.49 158.803C236.485 158.811 236.479 158.816 236.471 158.818C236.463 158.821 236.454 158.82 236.447 158.816C235.678 158.447 234.904 158.103 234.142 157.722C233.379 157.341 232.593 156.91 231.794 156.56C231.757 156.566 231.775 156.505 231.812 156.523Z" fill="#A6A6A6"/>
<path d="M279.64 119.441C277.862 121.735 276.855 124.532 276.763 127.432C276.732 128.292 276.867 129.497 276.966 130.911C274.562 132.301 272.433 134.12 270.684 136.277C272.607 135.161 274.814 134.634 277.033 134.759C276.98 135.725 276.856 136.687 276.665 137.635C275.264 137.633 273.878 137.907 272.583 138.441C273.85 138.425 275.106 138.674 276.271 139.172C274.556 144.63 269.455 150.236 255.373 152.615C253.884 145.923 254.766 138.923 257.868 132.81C262.085 124.512 279.64 119.441 279.64 119.441Z" fill="#DBDBDB"/>
<path d="M250.492 175.972C250.731 173.642 251.039 171.313 251.401 169.001C252.114 164.361 253.062 159.759 254.241 155.215C254.793 153.084 255.472 150.988 256.276 148.939C256.233 148.564 256.214 148.186 256.22 147.808C256.22 147.359 256.22 146.911 256.22 146.456C256.22 145.558 256.276 144.655 256.349 143.757C256.493 141.977 256.783 140.211 257.216 138.477C257.474 137.476 257.769 136.486 258.064 135.496C258.064 135.488 258.068 135.48 258.073 135.475C258.079 135.469 258.087 135.466 258.095 135.466C258.103 135.466 258.111 135.469 258.117 135.475C258.123 135.48 258.126 135.488 258.126 135.496C257.66 137.227 257.313 138.987 257.087 140.764C256.837 142.517 256.679 144.281 256.614 146.05C256.614 146.53 256.614 147.015 256.614 147.501C256.614 147.703 256.614 147.912 256.614 148.115C257.303 146.429 258.096 144.787 258.986 143.198C260.415 140.68 262.025 138.271 263.805 135.988C263.808 135.722 263.846 135.458 263.916 135.201C263.984 134.888 264.051 134.587 264.125 134.261C264.264 133.618 264.424 132.978 264.604 132.343C264.955 131.065 265.416 129.835 265.834 128.575C265.834 128.567 265.837 128.559 265.843 128.554C265.848 128.548 265.856 128.545 265.864 128.545C265.873 128.545 265.88 128.548 265.886 128.554C265.892 128.559 265.895 128.567 265.895 128.575C265.526 129.805 265.28 131.114 264.992 132.38C264.85 132.995 264.715 133.609 264.574 134.267L264.371 135.207C264.374 135.232 264.374 135.257 264.371 135.281C264.942 134.562 265.52 133.855 266.116 133.161C268.802 130.007 271.753 127.094 274.722 124.211C275.084 123.855 275.459 123.511 275.828 123.16L275.871 123.203C273.037 126.166 270.247 129.153 267.604 132.288C266.989 133.032 266.375 133.781 265.76 134.55C266.08 134.329 266.375 134.12 266.719 133.935C267.536 133.4 268.366 132.878 269.22 132.398C270.075 131.919 270.935 131.452 271.814 131.016C272.693 130.579 273.658 130.204 274.556 129.7C274.593 129.7 274.623 129.743 274.586 129.755C273.696 130.166 272.837 130.643 272.017 131.181C271.163 131.685 270.302 132.202 269.466 132.737C268.63 133.271 267.807 133.775 267.008 134.31C266.319 134.753 265.649 135.238 264.936 135.65C263.271 137.754 261.732 139.954 260.326 142.239C259.475 143.674 258.697 145.151 257.997 146.665L258.501 146.443L259.792 145.872C260.621 145.503 261.451 145.147 262.281 144.784C263.861 144.095 265.465 143.468 267.014 142.712C267.888 142.303 268.734 141.837 269.546 141.317C269.583 141.317 269.614 141.348 269.577 141.373C266.694 143.364 263.43 144.765 260.259 146.179L258.876 146.794C258.495 146.96 258.114 147.15 257.72 147.298C256.775 149.413 255.98 151.592 255.341 153.819C254.078 158.302 253.053 162.849 252.268 167.44C251.463 172.038 250.916 176.66 250.498 181.319C250.443 181.897 250.387 182.475 250.326 183.059C250.326 183.108 250.306 183.154 250.272 183.189C250.237 183.224 250.19 183.243 250.141 183.243C250.093 183.243 250.046 183.224 250.011 183.189C249.976 183.154 249.957 183.108 249.957 183.059C250.006 180.655 250.252 178.32 250.492 175.972Z" fill="#A6A6A6"/>
<path d="M259.06 137.088C259.318 135.656 259.675 134.26 260.087 132.859C260.087 132.851 260.09 132.843 260.096 132.837C260.101 132.831 260.109 132.828 260.117 132.828C260.126 132.828 260.133 132.831 260.139 132.837C260.145 132.843 260.148 132.851 260.148 132.859C259.792 134.236 259.534 135.637 259.282 137.032C259.03 138.428 258.784 139.884 258.581 141.335H258.544C258.636 139.911 258.808 138.493 259.06 137.088Z" fill="#A6A6A6"/>
<path d="M265.127 140.974C266.111 140.33 267.138 139.755 268.201 139.253C268.711 138.982 269.233 138.73 269.75 138.478C270.266 138.226 270.844 138.005 271.372 137.734C271.415 137.734 271.446 137.777 271.409 137.796C270.893 138.054 270.401 138.367 269.897 138.644L268.317 139.474C267.285 140.027 266.277 140.636 265.195 141.084C265.182 141.083 265.17 141.079 265.159 141.073C265.149 141.066 265.139 141.057 265.133 141.046C265.126 141.035 265.122 141.023 265.121 141.011C265.12 140.998 265.122 140.985 265.127 140.974Z" fill="#A6A6A6"/>
<path opacity="0.1" d="M248.2 151.27C248.2 151.27 239.299 149.144 235.212 143.169C231.303 137.465 230.043 127.741 229.944 126.887C230.104 127.673 231.942 136.168 238.003 140.126C242.643 143.163 247.13 145.652 248.2 151.27Z" fill="#A6A6A6"/>
<path d="M239.982 135.885C241.565 137.341 242.703 139.217 243.264 141.294C242.607 139.268 241.476 137.428 239.963 135.928C239.908 135.903 239.951 135.854 239.982 135.885Z" fill="#A6A6A6"/>
<path d="M248.2 151.269C248.2 151.269 239.299 149.143 235.212 143.168C231.303 137.464 230.043 127.74 229.944 126.886C229.942 126.865 229.942 126.845 229.944 126.824C229.944 126.824 234.216 132.897 238.703 134.446C243.19 135.995 249.49 141.349 248.2 151.269Z" fill="#DBDBDB"/>
<path d="M231.511 130.172C232.309 131.809 233.23 133.383 234.265 134.881C235.311 136.303 236.553 137.572 237.953 138.648C239.182 139.607 240.411 140.492 241.641 141.42L241.61 141.377C241.383 141.033 241.137 140.701 240.885 140.382C240.375 139.73 239.815 139.116 239.256 138.507C238.15 137.278 237.019 136.128 236.029 134.819C235.475 134.103 234.996 133.333 234.597 132.52C234.597 132.483 234.64 132.465 234.658 132.52C236.103 135.526 238.992 137.437 241.045 139.994C241.339 140.355 241.614 140.73 241.868 141.119C242.072 141.401 242.245 141.704 242.385 142.023C243.511 142.928 244.53 143.959 245.421 145.096C245.343 144.513 245.224 143.936 245.064 143.369C244.858 142.576 244.54 141.816 244.118 141.113C244.118 141.076 244.155 141.039 244.173 141.076C244.608 141.78 244.957 142.533 245.212 143.32C245.399 143.943 245.509 144.587 245.538 145.238C245.976 145.837 246.377 146.463 246.736 147.112L246.626 146.541C246.454 145.655 246.257 144.77 246.011 143.891C245.592 142.109 244.868 140.412 243.872 138.876C243.872 138.839 243.903 138.808 243.927 138.839C244.946 140.358 245.745 142.013 246.3 143.756C246.583 144.629 246.81 145.514 247.007 146.412C247.105 146.848 247.197 147.29 247.277 147.733C247.32 147.96 247.369 148.194 247.406 148.428C248.29 150.367 248.979 152.389 249.465 154.464C250.336 158.173 250.968 161.934 251.359 165.724C251.821 169.692 252.027 173.685 251.973 177.679C251.973 178.177 251.936 178.675 251.912 179.179C251.912 179.308 251.709 179.327 251.703 179.179C251.617 177.2 251.568 175.227 251.451 173.248C251.334 171.268 251.162 169.301 250.947 167.335C250.548 163.466 249.932 159.622 249.103 155.822C248.384 152.564 247.449 149.288 245.667 146.436C244.783 145.017 243.7 143.732 242.452 142.619C241.223 141.494 239.84 140.517 238.524 139.478C237.192 138.467 235.983 137.304 234.923 136.011C233.832 134.574 232.883 133.034 232.089 131.414C231.88 131.008 231.665 130.609 231.474 130.185C231.437 130.172 231.493 130.135 231.511 130.172Z" fill="#A6A6A6"/>
<path d="M280.875 147.328C280.875 147.328 281.017 159.984 273.45 163.635C265.884 167.286 261.833 164.25 256.688 165.479C256.885 165.178 260.555 159.898 266.394 158.447C272.405 156.941 279.056 152.602 280.875 147.328Z" fill="#DBDBDB"/>
<path opacity="0.1" d="M280.875 147.328C280.875 147.328 281.017 159.984 273.45 163.635C265.884 167.286 261.833 164.25 256.688 165.479C259.404 164.182 262.309 163.326 265.294 162.94C270.07 162.35 279.185 159.246 280.875 147.328Z" fill="#A6A6A6"/>
<path d="M256.19 165.695C257.091 164.875 258.105 164.19 259.202 163.66C259.361 163.58 259.527 163.519 259.693 163.445C259.859 163.371 259.859 163.248 259.945 163.156C260.173 162.923 260.412 162.695 260.658 162.48C261.133 162.071 261.643 161.705 262.183 161.386C263.412 160.648 264.807 160.157 266.092 159.444C266.129 159.444 266.16 159.487 266.123 159.505C265.508 159.831 264.893 160.194 264.279 160.556C263.664 160.919 263.049 161.238 262.484 161.613C261.956 161.949 261.455 162.326 260.984 162.738C260.849 162.855 260.726 162.978 260.597 163.107C261.434 162.826 262.288 162.601 263.154 162.431C264.537 162.148 265.938 161.951 267.321 161.656C268.001 161.513 268.672 161.332 269.331 161.116C269.946 160.612 270.56 160.108 271.175 159.56C271.895 158.9 272.552 158.174 273.136 157.391C273.138 157.387 273.141 157.384 273.145 157.382C273.149 157.379 273.153 157.377 273.157 157.377C273.161 157.376 273.166 157.376 273.17 157.377C273.174 157.377 273.178 157.379 273.182 157.382C273.186 157.384 273.189 157.387 273.191 157.391C273.194 157.394 273.195 157.398 273.196 157.403C273.197 157.407 273.197 157.411 273.196 157.416C273.195 157.42 273.194 157.424 273.191 157.428C272.283 158.666 271.254 159.811 270.118 160.845C270.444 160.722 270.769 160.593 271.083 160.446C273.681 159.281 275.911 157.427 277.531 155.086C277.531 155.049 277.611 155.086 277.586 155.116C276.212 157.127 274.438 158.833 272.374 160.126C271.339 160.77 270.233 161.294 269.079 161.687C267.736 162.101 266.366 162.424 264.979 162.652C263.623 162.874 262.283 163.193 260.972 163.605C259.766 164.016 258.631 164.614 257.61 165.375C255.681 166.872 254.128 168.798 253.073 170.999C251.723 173.908 250.879 177.026 250.578 180.219C250.578 180.354 250.35 180.354 250.363 180.219C250.67 174.927 252.09 169.389 256.19 165.695Z" fill="#A6A6A6"/>
<path d="M264.973 161.602C265.368 161.012 265.902 160.528 266.528 160.194C267.242 159.817 267.87 159.296 268.372 158.664C268.372 158.627 268.452 158.664 268.428 158.695C267.973 159.274 267.419 159.769 266.793 160.157C266.106 160.525 265.5 161.027 265.01 161.633C264.998 161.633 264.955 161.602 264.973 161.602Z" fill="#A6A6A6"/>
<path d="M260.959 175.035L260.615 181.993L259.558 203.248H243.688L242.63 181.993L242.286 175.035H260.959Z" fill="#EBEBEB"/>
<path d="M260.959 175.035L260.615 181.993H242.63L242.286 175.035H260.959Z" fill="#DBDBDB"/>
<path d="M262.072 172.129H241.174V178.767H262.072V172.129Z" fill="#EBEBEB"/>
<path d="M146 248.365C226.634 248.365 292 241.133 292 232.212C292 223.291 226.634 216.059 146 216.059C65.3664 216.059 0 223.291 0 232.212C0 241.133 65.3664 248.365 146 248.365Z" fill="#EBEBEB"/>
<path d="M11.2422 203.25L44.9317 203.103L78.6211 203.048L146 202.949L213.379 203.048L247.068 203.103L280.758 203.25L247.068 203.404L213.379 203.459L146 203.558L78.6211 203.459L44.9317 203.404L11.2422 203.25Z" fill="#263238"/>
<path d="M247.671 75.8672H43.2969V212.58H247.671V75.8672Z" fill="#DBDBDB"/>
<path d="M246.183 77.5312H44.7842V210.906H246.183V77.5312Z" fill="#37474F"/>
<path d="M274.286 222.824H16.6758V232.204H274.286V222.824Z" fill="#C7C7C7"/>
<path d="M16.6758 222.825L43.2967 212.578H247.671L274.286 222.825H16.6758Z" fill="#DBDBDB"/>
<path d="M45.6758 219.192L62.8494 212.578H228.119L245.293 219.192H45.6758Z" fill="#37474F"/>
<path d="M234.801 87.668H56.1621V200.778H234.801V87.668Z" fill="white"/>
<path d="M234.806 87.668H56.0137V92.0197H234.806V87.668Z" fill="#A6A6A6"/>
<path d="M59.4741 89.8435C59.4741 90.0575 59.4107 90.2666 59.2918 90.4445C59.173 90.6224 59.004 90.7611 58.8063 90.843C58.6087 90.9249 58.3911 90.9463 58.1813 90.9045C57.9714 90.8628 57.7787 90.7598 57.6274 90.6085C57.4761 90.4572 57.3731 90.2644 57.3313 90.0546C57.2896 89.8447 57.311 89.6272 57.3929 89.4295C57.4748 89.2319 57.6134 89.0629 57.7913 88.9441C57.9692 88.8252 58.1784 88.7617 58.3923 88.7617C58.5346 88.7609 58.6757 88.7883 58.8073 88.8424C58.9389 88.8965 59.0585 88.9761 59.1591 89.0768C59.2597 89.1774 59.3394 89.297 59.3935 89.4286C59.4475 89.5602 59.475 89.7012 59.4741 89.8435Z" fill="#C7C7C7"/>
<path d="M62.8006 90.9253C63.398 90.9253 63.8824 90.441 63.8824 89.8435C63.8824 89.2461 63.398 88.7617 62.8006 88.7617C62.2031 88.7617 61.7188 89.2461 61.7188 89.8435C61.7188 90.441 62.2031 90.9253 62.8006 90.9253Z" fill="white"/>
<path d="M68.2886 89.8435C68.2886 90.0575 68.2252 90.2666 68.1063 90.4445C67.9874 90.6224 67.8185 90.7611 67.6208 90.843C67.4231 90.9249 67.2056 90.9463 66.9958 90.9045C66.7859 90.8628 66.5931 90.7598 66.4419 90.6085C66.2906 90.4572 66.1875 90.2644 66.1458 90.0546C66.104 89.8447 66.1255 89.6272 66.2073 89.4295C66.2892 89.2319 66.4279 89.0629 66.6058 88.9441C66.7837 88.8252 66.9928 88.7617 67.2068 88.7617C67.3491 88.7609 67.4901 88.7883 67.6218 88.8424C67.7534 88.8965 67.8729 88.9761 67.9736 89.0768C68.0742 89.1774 68.1538 89.297 68.2079 89.4286C68.262 89.5602 68.2894 89.7012 68.2886 89.8435Z" fill="#4668D6"/>
<path d="M95.9745 78.2348C89.4653 86.84 89.0534 99.5819 89.0534 99.5819C89.0534 99.5819 83.5584 113.104 86.5518 119.601C87.3615 121.451 88.6077 123.078 90.1834 124.341C91.7592 125.604 93.6176 126.466 95.5996 126.854L94.3702 123.203C94.3702 123.203 97.4927 127.678 105.914 128.471C114.334 129.264 124.747 125.219 129.947 121.587C133.035 119.454 135.517 116.557 137.151 113.178L135.823 118.931C135.823 118.931 143.69 117.53 147.188 108.482C150.685 99.4344 135.509 89.2372 133.973 86.797C132.436 84.3568 128.312 65.5912 108.821 71.7009C108.809 71.6763 100.455 72.3033 95.9745 78.2348Z" fill="#263238"/>
<path d="M92.6546 126.776C90.2451 126.032 88.0508 124.004 86.5941 122C85.0273 119.896 84.2114 117.327 84.2768 114.704C84.3936 111.557 85.629 108.619 86.8276 105.754C88.0569 102.792 89.526 99.9091 90.7123 96.9341C90.7737 96.7682 90.5279 96.676 90.4357 96.8112C88.9563 99.1437 87.612 101.559 86.4097 104.046C85.1433 106.342 84.149 108.778 83.447 111.305C82.7917 113.634 82.8173 116.102 83.5208 118.416C84.1813 120.296 85.2936 121.985 86.76 123.334C88.4872 124.956 90.5279 125.866 92.5747 126.985C92.5884 126.99 92.603 126.993 92.6177 126.992C92.6324 126.992 92.6469 126.988 92.6603 126.982C92.6737 126.976 92.6858 126.968 92.6959 126.957C92.706 126.947 92.7139 126.934 92.7191 126.92C92.7244 126.907 92.7269 126.892 92.7265 126.877C92.7261 126.863 92.7228 126.848 92.7168 126.835C92.7108 126.821 92.7022 126.809 92.6915 126.799C92.6809 126.789 92.6683 126.781 92.6546 126.776Z" fill="#263238"/>
<path d="M147.63 99.567C144.243 92.9225 137.334 89.3821 132.65 83.8378C130.112 80.8322 127.991 77.4085 124.893 74.9253C124.807 74.8638 124.697 75.0052 124.777 75.0728C127.352 77.3409 129.079 80.2544 131.089 82.9835C133.205 85.6738 135.585 88.1449 138.195 90.3594C142.823 94.5391 148.355 99.4748 148.392 106.242C148.392 109.371 147.076 113.003 144.089 114.423C143.979 114.472 144.089 114.663 144.188 114.595C145.357 113.923 146.377 113.019 147.186 111.939C147.994 110.859 148.574 109.625 148.89 108.314C149.536 105.341 149.089 102.236 147.63 99.567Z" fill="#263238"/>
<path d="M148.189 101.41C148.024 98.7343 147.037 96.1752 145.362 94.0828C143.665 92.0237 141.268 90.7084 138.902 89.5712C136.166 88.262 133.314 87.0634 131.354 84.654C131.274 84.5495 131.132 84.6909 131.212 84.7892C134.341 88.7722 139.412 90.1183 143.167 93.3084C147.47 96.9595 148.33 103.038 146.462 108.177C145.255 111.316 143.324 114.125 140.825 116.377C140.782 116.413 140.825 116.481 140.887 116.438C145.165 112.676 148.644 107.335 148.189 101.41Z" fill="#263238"/>
<path d="M114.038 131.527C120.511 138.325 153.77 170.484 168.288 167.485C185.886 163.852 206.323 153.145 214.301 145.535C218.776 141.276 197.208 119.72 192.708 123.045C185.621 128.294 168.546 137.022 165.541 138.252C162.535 139.481 137.106 126.37 122.281 121.244C108.93 116.597 109.484 126.739 114.038 131.527Z" fill="#FFB892"/>
<path d="M226.467 135.864C222.564 141.07 210.412 148.588 206.798 149.276C203.183 149.964 189.698 129.73 190.909 126.134C192.12 122.538 206.626 106.041 213.036 104.387C219.447 102.734 230.517 130.473 226.467 135.864Z" fill="#FFB892"/>
<path d="M192.868 122.885C192.868 122.885 195.173 114.741 194.712 107.303C194.306 101.046 192.997 91.8015 196.353 91.4573C203.244 90.7505 206.501 113.806 206.501 113.806C206.501 113.806 206.298 124.213 199.537 125.485C195.278 126.339 192.868 122.885 192.868 122.885Z" fill="#FFB892"/>
<path d="M203.662 108.915C203.318 112.345 207.559 110.79 207.559 110.79C207.559 110.79 202.027 114.478 203.011 118.166C203.994 121.7 209.047 119.635 209.415 119.494C209.12 119.696 204.099 123.243 205.5 126.826C206.957 130.551 211.647 127.613 211.979 127.441C211.757 127.712 208.948 131.393 210.632 133.877C213.521 138.142 220.971 128.959 225.132 128.664C225.132 128.664 226.392 135.671 226.466 135.868C226.466 135.868 233.731 127.263 233.061 121.651C232.976 120.835 232.614 120.073 232.036 119.491C231.458 118.908 230.699 118.541 229.884 118.449C229.884 118.449 232.533 115.929 231.525 113.07C231.002 111.601 228.187 111.134 228.187 111.134C228.187 111.134 230.228 109.032 229.171 106.543C228.329 104.557 225.642 104.398 225.642 104.398C225.642 104.398 226.657 101.466 225.145 99.7138C222.09 96.1672 204.394 101.57 203.662 108.915Z" fill="#FFB892"/>
<path d="M225.218 104.301C225.231 104.301 225.244 104.296 225.253 104.287C225.262 104.278 225.267 104.265 225.267 104.252C225.267 104.239 225.262 104.227 225.253 104.218C225.244 104.208 225.231 104.203 225.218 104.203C218.967 104.56 212.206 106.871 207.325 110.848C207.166 110.983 207.325 111.296 207.51 111.186C213.318 108.045 218.733 105.727 225.218 104.301Z" fill="#263238"/>
<path d="M228.267 111.067C228.334 111.067 228.31 110.938 228.267 110.938C221.825 111.343 214.289 114.152 209.212 119.401C209.04 119.58 209.065 119.918 209.28 119.727C212.882 116.494 222.421 112.32 228.267 111.067Z" fill="#263238"/>
<path d="M211.77 127.922C216.841 123.079 222.957 120.344 229.638 118.444C229.724 118.444 229.681 118.297 229.601 118.297C226.079 118.34 221.942 119.993 218.838 121.555C215.928 122.954 213.433 125.087 211.598 127.744C211.506 127.849 211.641 128.027 211.77 127.922Z" fill="#263238"/>
<path d="M207.467 110.762C207.276 110.915 207.719 111.026 207.528 111.186C206.742 111.874 202.365 116.404 203.441 118.371C204.314 119.951 207.037 119.877 208.069 119.441L210.675 118.34L208.61 120.277C207.689 121.132 206.913 122.13 206.311 123.233C206.002 123.728 205.802 124.284 205.724 124.862C205.645 125.441 205.69 126.029 205.857 126.589C206.017 127.104 206.348 127.549 206.794 127.851C207.241 128.152 207.778 128.293 208.315 128.249C209.521 128.119 210.674 127.683 211.665 126.983L214.462 125.139L212.415 127.8C211.847 128.534 211.376 129.337 211.013 130.191C210.637 130.987 210.504 131.877 210.632 132.748C210.705 133.137 210.885 133.499 211.152 133.791C211.419 134.083 211.763 134.295 212.144 134.402C213.035 134.513 213.938 134.37 214.751 133.99C216.513 133.184 218.211 132.243 219.828 131.175C220.664 130.664 221.506 130.154 222.372 129.681C223.211 129.156 224.152 128.815 225.132 128.679C224.186 128.916 223.295 129.333 222.508 129.908C221.69 130.437 220.897 131.009 220.104 131.586C218.525 132.787 216.838 133.838 215.064 134.727C214.112 135.232 213.033 135.446 211.96 135.342C211.384 135.219 210.856 134.931 210.442 134.513C210.027 134.095 209.743 133.565 209.624 132.988C209.438 131.911 209.575 130.803 210.018 129.804C210.407 128.846 210.919 127.943 211.542 127.118L212.304 127.923C211.145 128.769 209.785 129.299 208.358 129.46C207.564 129.518 206.774 129.301 206.121 128.845C205.496 128.38 205.024 127.737 204.769 127.001C204.558 126.293 204.5 125.548 204.599 124.816C204.697 124.084 204.95 123.381 205.34 122.754C206.016 121.548 206.888 120.463 207.922 119.545L208.463 120.381C207.129 120.897 204.092 121.309 202.439 119.029C200.706 115.716 206.361 111.462 207.467 110.762Z" fill="#263238"/>
<path d="M207.559 110.791C206.856 110.899 206.141 110.899 205.438 110.791C205.156 110.756 204.888 110.647 204.662 110.474C204.436 110.301 204.261 110.071 204.154 109.808C204.003 109.198 204.03 108.558 204.234 107.964C204.424 107.294 204.664 106.605 204.934 105.898C204.345 106.392 203.866 107.004 203.527 107.693C203.114 108.444 203.015 109.328 203.25 110.152C203.423 110.587 203.725 110.958 204.117 111.215C204.488 111.438 204.913 111.555 205.346 111.553C206.146 111.543 206.922 111.276 207.559 110.791Z" fill="#263238"/>
<path d="M187.552 125.289L212.538 153.527C212.538 153.527 175.449 171.684 163.365 168.893C151.281 166.103 126.332 147.294 115.422 133.858C104.511 120.421 111.119 116.684 126.32 121.712C141.52 126.74 163.009 136.556 165.191 136.464C167.373 136.372 187.552 125.289 187.552 125.289Z" fill="#4668D6"/>
<path d="M212.538 153.525C212.538 153.525 175.449 171.676 163.365 168.892C155.841 167.164 143.339 159.217 132.337 150.212C132.29 150.184 132.247 150.151 132.208 150.114C125.582 144.68 119.509 138.878 115.415 133.831C111.869 129.474 110.178 126.136 110.019 123.788C109.979 123.349 110.01 122.907 110.111 122.479C110.959 118.791 117.038 118.631 126.313 121.698C141.532 126.72 163.002 136.536 165.19 136.45C167.379 136.364 187.546 125.288 187.546 125.288L212.538 153.525Z" fill="#4668D6"/>
<path d="M144.969 150.727C145.436 150.566 145.938 150.539 146.419 150.647C146.682 150.745 146.909 150.92 147.072 151.15C147.234 151.379 147.323 151.651 147.329 151.932C147.325 152.118 147.368 152.302 147.455 152.467C147.542 152.632 147.67 152.771 147.827 152.872C147.999 152.986 148.199 153.052 148.405 153.063C148.638 153.106 148.866 153.13 149.099 153.192C148.629 153.358 148.118 153.378 147.636 153.247C147.381 153.138 147.164 152.956 147.012 152.724C146.86 152.493 146.78 152.221 146.782 151.944C146.777 151.759 146.725 151.578 146.631 151.418C146.538 151.258 146.406 151.124 146.247 151.028C146.061 150.918 145.849 150.858 145.633 150.856C145.43 150.813 145.196 150.788 144.969 150.727Z" fill="white"/>
<path d="M112.299 124.725C111.83 124.888 111.323 124.91 110.842 124.787C110.636 124.703 110.454 124.57 110.312 124.4C110.169 124.229 110.07 124.027 110.025 123.809C109.985 123.371 110.016 122.929 110.117 122.5C110.373 122.757 110.52 123.102 110.529 123.465C110.526 123.652 110.571 123.836 110.659 124C110.747 124.165 110.876 124.304 111.033 124.405C111.204 124.517 111.4 124.582 111.604 124.596C111.838 124.639 112.065 124.664 112.299 124.725Z" fill="white"/>
<path d="M180.103 140.994C180.573 140.839 181.076 140.813 181.559 140.921C181.822 141.018 182.05 141.193 182.211 141.422C182.372 141.652 182.46 141.925 182.463 142.205C182.461 142.392 182.507 142.575 182.595 142.74C182.683 142.904 182.811 143.044 182.967 143.146C183.139 143.258 183.339 143.321 183.545 143.33C183.772 143.379 184.006 143.404 184.233 143.465C183.764 143.631 183.256 143.65 182.776 143.521C182.52 143.411 182.301 143.229 182.148 142.996C181.995 142.763 181.914 142.49 181.916 142.211C181.913 142.027 181.863 141.847 181.77 141.687C181.678 141.528 181.546 141.395 181.387 141.302C181.202 141.188 180.989 141.129 180.773 141.13C180.564 141.08 180.336 141.056 180.103 140.994Z" fill="white"/>
<path d="M204.394 151.26C204.861 151.105 205.363 151.079 205.844 151.186C206.107 151.283 206.334 151.457 206.497 151.685C206.659 151.913 206.749 152.185 206.754 152.465C206.749 152.652 206.793 152.837 206.88 153.003C206.967 153.168 207.095 153.309 207.252 153.411C207.424 153.523 207.624 153.587 207.829 153.596C208.063 153.639 208.29 153.669 208.524 153.731C208.052 153.892 207.544 153.911 207.061 153.786C206.805 153.677 206.588 153.494 206.436 153.261C206.283 153.028 206.204 152.755 206.207 152.477C206.201 152.292 206.15 152.111 206.056 151.951C205.963 151.791 205.831 151.657 205.672 151.561C205.485 151.453 205.273 151.396 205.057 151.395C204.879 151.346 204.646 151.321 204.394 151.26Z" fill="white"/>
<path d="M157.145 157.92C157.615 157.765 158.118 157.739 158.601 157.846C158.869 157.944 159.101 158.121 159.266 158.354C159.431 158.587 159.52 158.864 159.523 159.149C159.519 159.336 159.563 159.52 159.65 159.684C159.737 159.849 159.865 159.988 160.021 160.09C160.194 160.202 160.393 160.266 160.599 160.274C160.832 160.323 161.06 160.348 161.293 160.409C160.822 160.574 160.313 160.593 159.831 160.465C159.575 160.355 159.357 160.173 159.205 159.94C159.053 159.707 158.973 159.434 158.976 159.156C158.971 158.971 158.919 158.791 158.826 158.632C158.732 158.473 158.6 158.34 158.441 158.246C158.257 158.133 158.044 158.073 157.827 158.074C157.606 158.025 157.372 157.994 157.145 157.92Z" fill="white"/>
<path d="M130.493 124.151C130.963 123.995 131.467 123.97 131.95 124.077C132.212 124.175 132.438 124.351 132.6 124.58C132.761 124.809 132.849 125.081 132.853 125.361C132.852 125.548 132.897 125.732 132.985 125.896C133.073 126.06 133.201 126.2 133.357 126.302C133.53 126.416 133.729 126.482 133.935 126.492C134.163 126.535 134.396 126.56 134.63 126.621C134.159 126.788 133.649 126.807 133.167 126.677C132.912 126.568 132.695 126.386 132.543 126.154C132.391 125.922 132.311 125.651 132.313 125.374C132.308 125.188 132.257 125.007 132.164 124.847C132.07 124.686 131.937 124.553 131.778 124.458C131.592 124.347 131.38 124.288 131.163 124.286C130.96 124.243 130.727 124.212 130.493 124.151Z" fill="white"/>
<path d="M188.08 156.59C187.863 157.034 187.527 157.408 187.109 157.672C186.854 157.788 186.57 157.825 186.294 157.778C186.018 157.731 185.762 157.602 185.56 157.407C185.43 157.274 185.268 157.175 185.09 157.12C184.912 157.065 184.723 157.056 184.54 157.094C184.338 157.137 184.152 157.232 183.999 157.37C183.802 157.5 183.624 157.647 183.415 157.764C183.679 157.389 183.876 156.928 184.411 156.694C184.669 156.59 184.952 156.565 185.225 156.622C185.497 156.679 185.746 156.815 185.941 157.014C186.074 157.142 186.238 157.234 186.416 157.281C186.595 157.329 186.783 157.33 186.962 157.284C187.162 157.233 187.346 157.131 187.496 156.989C187.693 156.854 187.877 156.688 188.08 156.59Z" fill="white"/>
<path d="M158.871 145.012C158.654 145.457 158.315 145.832 157.894 146.094C157.64 146.21 157.357 146.247 157.082 146.199C156.807 146.152 156.552 146.023 156.351 145.829C156.221 145.696 156.059 145.597 155.881 145.542C155.703 145.487 155.514 145.478 155.331 145.516C155.129 145.559 154.943 145.654 154.79 145.792C154.593 145.921 154.409 146.069 154.206 146.186C154.47 145.811 154.667 145.35 155.196 145.116C155.454 145.012 155.737 144.987 156.009 145.044C156.282 145.101 156.531 145.237 156.726 145.436C156.861 145.563 157.025 145.655 157.205 145.702C157.384 145.749 157.573 145.751 157.753 145.706C157.953 145.654 158.137 145.553 158.287 145.411C158.484 145.301 158.662 145.159 158.871 145.012Z" fill="white"/>
<path d="M173.077 151.355C172.858 151.798 172.522 152.172 172.106 152.437C171.85 152.554 171.566 152.591 171.289 152.542C171.013 152.494 170.757 152.363 170.557 152.167C170.427 152.033 170.265 151.934 170.087 151.881C169.908 151.827 169.719 151.82 169.536 151.859C169.334 151.9 169.147 151.995 168.996 152.136C168.799 152.265 168.621 152.413 168.381 152.529C168.645 152.155 168.842 151.694 169.377 151.46C169.634 151.357 169.917 151.332 170.189 151.387C170.461 151.443 170.711 151.577 170.907 151.773C171.039 151.903 171.203 151.996 171.382 152.043C171.56 152.091 171.748 152.091 171.927 152.044C172.13 151.993 172.316 151.892 172.468 151.749C172.69 151.62 172.874 151.472 173.077 151.355Z" fill="white"/>
<path d="M191.449 130.473C191.228 130.915 190.89 131.289 190.472 131.554C190.217 131.671 189.933 131.708 189.657 131.661C189.38 131.614 189.125 131.485 188.923 131.29C188.793 131.156 188.632 131.057 188.453 131.002C188.275 130.947 188.085 130.939 187.903 130.977C187.702 131.022 187.516 131.117 187.362 131.253C187.171 131.382 186.987 131.53 186.747 131.647C187.018 131.272 187.208 130.811 187.743 130.577C188.001 130.473 188.284 130.448 188.557 130.505C188.829 130.562 189.078 130.698 189.273 130.897C189.407 131.024 189.57 131.116 189.749 131.163C189.927 131.21 190.115 131.212 190.294 131.167C190.508 131.119 190.707 131.017 190.871 130.872C191.062 130.737 191.24 130.596 191.449 130.473Z" fill="white"/>
<path d="M121.346 129.031C121.502 129.501 121.527 130.005 121.42 130.488C121.321 130.75 121.146 130.977 120.917 131.138C120.688 131.299 120.415 131.387 120.135 131.392C119.949 131.39 119.765 131.435 119.601 131.523C119.436 131.612 119.297 131.739 119.195 131.896C119.081 132.068 119.015 132.267 119.004 132.473C118.961 132.701 118.937 132.934 118.875 133.168C118.709 132.697 118.689 132.187 118.82 131.705C118.929 131.45 119.111 131.233 119.342 131.081C119.574 130.929 119.846 130.849 120.123 130.851C120.308 130.845 120.489 130.794 120.649 130.7C120.809 130.607 120.943 130.475 121.039 130.316C121.149 130.13 121.209 129.918 121.211 129.701C121.254 129.48 121.279 129.246 121.346 129.031Z" fill="white"/>
<path d="M195.494 146.68C195.649 147.15 195.675 147.653 195.567 148.136C195.469 148.399 195.294 148.626 195.065 148.787C194.836 148.948 194.563 149.037 194.283 149.04C194.096 149.036 193.911 149.081 193.747 149.169C193.582 149.257 193.443 149.386 193.342 149.544C193.229 149.714 193.165 149.912 193.158 150.116C193.109 150.349 193.084 150.577 193.023 150.81C192.857 150.341 192.838 149.833 192.967 149.353C193.076 149.097 193.259 148.878 193.492 148.725C193.725 148.572 193.998 148.491 194.277 148.493C194.461 148.489 194.642 148.438 194.801 148.344C194.96 148.25 195.093 148.118 195.186 147.958C195.295 147.783 195.355 147.581 195.358 147.374C195.401 147.141 195.432 146.907 195.494 146.68Z" fill="white"/>
<path d="M174.675 161.969C174.831 162.439 174.856 162.942 174.749 163.425C174.652 163.689 174.477 163.916 174.248 164.077C174.018 164.239 173.745 164.326 173.465 164.329C173.278 164.328 173.094 164.373 172.93 164.461C172.766 164.549 172.626 164.677 172.524 164.833C172.412 165.006 172.348 165.205 172.34 165.411C172.291 165.638 172.266 165.872 172.205 166.105C172.04 165.634 172.021 165.125 172.149 164.643C172.259 164.387 172.441 164.169 172.674 164.017C172.907 163.865 173.18 163.785 173.458 163.788C173.643 163.783 173.823 163.731 173.982 163.638C174.141 163.544 174.274 163.412 174.368 163.253C174.481 163.068 174.541 162.856 174.54 162.639C174.589 162.436 174.614 162.221 174.675 161.969Z" fill="white"/>
<path d="M171.036 136.141C171.191 136.611 171.216 137.114 171.109 137.597C171.012 137.86 170.837 138.088 170.608 138.249C170.378 138.411 170.105 138.498 169.825 138.501C169.638 138.499 169.454 138.545 169.29 138.633C169.126 138.721 168.986 138.849 168.884 139.005C168.772 139.178 168.709 139.377 168.7 139.583C168.651 139.81 168.626 140.044 168.565 140.271C168.399 139.802 168.38 139.294 168.509 138.814C168.618 138.558 168.801 138.339 169.034 138.186C169.267 138.033 169.54 137.952 169.819 137.954C170.003 137.951 170.183 137.901 170.342 137.808C170.502 137.716 170.635 137.584 170.728 137.425C170.842 137.24 170.901 137.027 170.9 136.811C170.95 136.602 170.974 136.405 171.036 136.141Z" fill="white"/>
<path d="M147.003 134.074C147.161 134.544 147.187 135.048 147.077 135.531C146.98 135.793 146.806 136.02 146.578 136.181C146.35 136.342 146.078 136.431 145.799 136.435C145.611 136.433 145.427 136.478 145.261 136.566C145.096 136.654 144.955 136.782 144.852 136.939C144.74 137.111 144.676 137.311 144.668 137.516C144.625 137.744 144.594 137.977 144.532 138.205C144.371 137.735 144.352 137.228 144.477 136.748C144.587 136.492 144.769 136.274 145.002 136.121C145.235 135.968 145.508 135.887 145.786 135.887C145.971 135.885 146.153 135.835 146.313 135.743C146.474 135.65 146.607 135.518 146.702 135.359C146.81 135.172 146.868 134.96 146.868 134.744C146.917 134.56 146.942 134.308 147.003 134.074Z" fill="white"/>
<path d="M132.344 150.235C132.297 150.207 132.254 150.174 132.215 150.136C132.215 150.057 132.246 149.977 132.27 149.891C132.289 150.014 132.319 150.124 132.344 150.235Z" fill="white"/>
<path d="M129.958 139.42C130.181 138.978 130.518 138.605 130.935 138.338C131.191 138.223 131.475 138.188 131.751 138.236C132.027 138.284 132.283 138.414 132.484 138.609C132.689 138.814 132.965 138.933 133.256 138.938C133.546 138.944 133.827 138.837 134.039 138.639C134.236 138.51 134.42 138.369 134.654 138.246C134.384 138.621 134.193 139.082 133.658 139.316C133.4 139.419 133.118 139.444 132.846 139.388C132.574 139.332 132.324 139.198 132.128 139.002C131.994 138.873 131.83 138.78 131.65 138.732C131.47 138.685 131.281 138.685 131.101 138.732C130.9 138.781 130.715 138.883 130.567 139.027C130.345 139.156 130.167 139.303 129.958 139.42Z" fill="white"/>
<path d="M205.007 156.844C203.723 154.969 202.051 153.303 200.588 151.564C199.125 149.824 197.515 148.042 195.923 146.302C192.849 142.922 189.69 139.639 186.512 136.369C184.668 134.464 182.744 132.639 180.87 130.752C180.802 130.684 180.685 130.795 180.747 130.868C183.777 134.39 186.758 137.931 189.862 141.385C192.966 144.839 196.009 148.146 199.199 151.392C200.109 152.326 201.043 153.236 201.977 154.145C202.89 155.14 203.859 156.082 204.878 156.967C204.946 157.028 205.057 156.924 205.007 156.844Z" fill="#263238"/>
<path opacity="0.1" d="M176.678 167.532C171.281 168.945 166.493 169.628 163.371 168.915C155.847 167.187 143.345 159.24 132.343 150.235C132.296 150.207 132.253 150.174 132.214 150.137C125.588 144.703 119.515 138.901 115.421 133.854C111.875 129.496 110.184 126.159 110.025 123.811C109.985 123.372 110.016 122.93 110.117 122.502C110.51 120.805 112.022 119.852 114.419 119.625L176.678 167.532Z" fill="black"/>
<path d="M138.76 167.795L144.58 200.777H74.8535C76.8389 168.532 95.5491 133.263 103.798 123.213C107.928 118.179 116.091 117.104 122.281 121.21C123.75 122.181 140.856 147.419 142.257 151.101C145.048 158.36 138.76 167.795 138.76 167.795Z" fill="#4668D6"/>
<path d="M115.637 143.166C116.107 143.011 116.61 142.985 117.093 143.092C117.355 143.192 117.581 143.367 117.742 143.596C117.903 143.825 117.992 144.097 117.997 144.377C117.994 144.668 118.104 144.949 118.305 145.159C118.506 145.369 118.782 145.492 119.073 145.502C119.306 145.551 119.534 145.576 119.767 145.637C119.297 145.804 118.786 145.823 118.304 145.692C118.049 145.583 117.832 145.402 117.68 145.17C117.528 144.938 117.448 144.667 117.45 144.389C117.446 144.204 117.395 144.023 117.301 143.862C117.207 143.702 117.075 143.568 116.915 143.474C116.729 143.363 116.517 143.304 116.301 143.301C116.098 143.24 115.883 143.209 115.637 143.166Z" fill="white"/>
<path d="M120.186 172.057C120.656 171.901 121.159 171.876 121.642 171.983C121.904 172.082 122.131 172.257 122.292 172.486C122.453 172.715 122.542 172.988 122.546 173.268C122.544 173.454 122.59 173.638 122.678 173.802C122.766 173.967 122.894 174.106 123.05 174.208C123.222 174.32 123.422 174.384 123.628 174.392C123.855 174.442 124.089 174.466 124.316 174.528C123.847 174.693 123.339 174.712 122.859 174.583C122.602 174.475 122.384 174.293 122.232 174.059C122.079 173.826 122 173.552 122.005 173.274C122 173.089 121.948 172.909 121.854 172.75C121.761 172.591 121.629 172.458 121.47 172.364C121.285 172.251 121.072 172.191 120.856 172.192C120.628 172.174 120.401 172.143 120.186 172.057Z" fill="white"/>
<path d="M103.079 152.793C103.548 152.633 104.052 152.605 104.536 152.713C104.798 152.813 105.023 152.988 105.184 153.217C105.346 153.446 105.434 153.718 105.439 153.998C105.436 154.185 105.481 154.369 105.569 154.534C105.657 154.698 105.786 154.838 105.943 154.938C106.113 155.053 106.311 155.119 106.515 155.129C106.749 155.172 106.976 155.197 107.21 155.258C106.741 155.423 106.233 155.443 105.753 155.313C105.497 155.205 105.278 155.024 105.125 154.792C104.972 154.56 104.891 154.288 104.892 154.01C104.889 153.825 104.838 153.643 104.744 153.483C104.651 153.322 104.517 153.189 104.358 153.094C104.18 152.989 103.98 152.93 103.774 152.922C103.54 152.879 103.313 152.855 103.079 152.793Z" fill="white"/>
<path d="M93.8164 182.42C94.2843 182.265 94.7857 182.239 95.267 182.346C95.5306 182.443 95.7584 182.618 95.9199 182.847C96.0814 183.077 96.1688 183.35 96.1705 183.631C96.169 183.817 96.2144 184.001 96.3025 184.166C96.3905 184.33 96.5185 184.469 96.6746 184.571C96.8472 184.684 97.0467 184.747 97.2523 184.756C97.4798 184.805 97.7133 184.83 97.9469 184.891C97.4758 185.055 96.9662 185.075 96.484 184.946C96.2282 184.837 96.0104 184.654 95.8584 184.421C95.7063 184.188 95.6267 183.915 95.6296 183.637C95.6244 183.453 95.5727 183.273 95.4792 183.114C95.3857 182.955 95.2535 182.822 95.0949 182.727C94.91 182.614 94.6971 182.555 94.4802 182.555C94.2774 182.506 94.0438 182.506 93.8164 182.42Z" fill="white"/>
<path d="M135.509 196.807C135.979 196.651 136.482 196.626 136.966 196.733C137.228 196.832 137.454 197.007 137.615 197.236C137.776 197.465 137.865 197.738 137.869 198.018C137.868 198.204 137.913 198.388 138.001 198.552C138.089 198.717 138.217 198.856 138.373 198.958C138.546 199.07 138.745 199.134 138.951 199.143C139.178 199.192 139.412 199.216 139.645 199.278C139.174 199.442 138.665 199.461 138.183 199.333C137.927 199.224 137.709 199.041 137.557 198.808C137.405 198.575 137.325 198.302 137.328 198.024C137.323 197.839 137.271 197.659 137.178 197.5C137.084 197.341 136.952 197.208 136.793 197.114C136.609 197.001 136.396 196.941 136.179 196.942C135.976 196.899 135.742 196.868 135.509 196.807Z" fill="white"/>
<path d="M78.5298 186.282C78.0587 186.446 77.5491 186.465 77.0669 186.337C76.9651 186.298 76.8698 186.244 76.7842 186.177C76.8149 185.974 76.8579 185.778 76.901 185.562C76.9859 185.719 77.1084 185.852 77.2575 185.95C77.4301 186.062 77.6296 186.125 77.8353 186.134C78.0688 186.196 78.2962 186.196 78.5298 186.282Z" fill="white"/>
<path d="M108.169 122.27C108.638 122.109 109.142 122.082 109.626 122.19C109.887 122.289 110.113 122.465 110.274 122.694C110.435 122.923 110.524 123.195 110.529 123.475C110.525 123.661 110.568 123.845 110.655 124.01C110.743 124.174 110.871 124.314 111.027 124.415C111.199 124.529 111.399 124.595 111.605 124.605C111.838 124.649 112.066 124.673 112.299 124.735C111.831 124.9 111.323 124.919 110.843 124.79C110.586 124.683 110.367 124.501 110.214 124.269C110.061 124.037 109.98 123.765 109.982 123.487C109.979 123.301 109.928 123.12 109.834 122.959C109.74 122.799 109.607 122.665 109.447 122.571C109.261 122.46 109.049 122.401 108.833 122.399C108.63 122.35 108.396 122.325 108.169 122.27Z" fill="white"/>
<path d="M132.951 164.066C132.732 164.509 132.397 164.883 131.98 165.148C131.725 165.265 131.44 165.302 131.164 165.253C130.887 165.205 130.632 165.074 130.431 164.878C130.302 164.744 130.14 164.645 129.961 164.591C129.782 164.538 129.593 164.53 129.411 164.57C129.208 164.611 129.021 164.706 128.87 164.847C128.673 164.976 128.495 165.124 128.286 165.24C128.55 164.865 128.747 164.404 129.282 164.171C129.54 164.068 129.822 164.043 130.094 164.098C130.366 164.154 130.616 164.288 130.812 164.484C130.945 164.614 131.108 164.707 131.287 164.754C131.466 164.802 131.654 164.802 131.833 164.755C132.034 164.706 132.219 164.604 132.367 164.46C132.564 164.306 132.749 164.159 132.951 164.066Z" fill="white"/>
<path d="M88.1364 154.809C87.9135 155.25 87.576 155.624 87.1591 155.89C86.985 155.968 86.7965 156.008 86.6059 156.008C86.4153 156.008 86.2268 155.968 86.0527 155.89C86.1203 155.724 86.1818 155.558 86.2556 155.393C86.4896 155.509 86.7565 155.541 87.0116 155.485C87.2137 155.43 87.3993 155.326 87.5525 155.184C87.7492 155.067 87.9336 154.925 88.1364 154.809Z" fill="white"/>
<path d="M88.1369 174.707C87.9177 175.151 87.5793 175.526 87.1596 175.789C86.9057 175.905 86.6227 175.942 86.3475 175.895C86.0723 175.848 85.8176 175.719 85.6168 175.525C85.4867 175.391 85.325 175.292 85.1467 175.237C84.9684 175.183 84.7792 175.174 84.5965 175.211C84.395 175.254 84.2083 175.349 84.0556 175.488C83.8589 175.617 83.6745 175.764 83.4717 175.881C83.736 175.506 83.9327 175.045 84.4613 174.812C84.7194 174.708 85.0026 174.682 85.275 174.739C85.5474 174.796 85.7968 174.933 85.9918 175.131C86.1265 175.259 86.2911 175.35 86.4705 175.398C86.6498 175.445 86.8382 175.446 87.0183 175.402C87.2191 175.348 87.4031 175.244 87.553 175.1C87.7497 174.971 87.928 174.83 88.1369 174.707Z" fill="white"/>
<path d="M107.467 194.797C107.246 195.24 106.908 195.614 106.49 195.879C106.235 195.995 105.95 196.032 105.674 195.984C105.397 195.935 105.142 195.805 104.941 195.608C104.811 195.474 104.649 195.376 104.471 195.322C104.292 195.268 104.103 195.261 103.921 195.301C103.719 195.343 103.532 195.438 103.38 195.577C103.189 195.707 103.005 195.854 102.796 195.971C103.066 195.596 103.257 195.135 103.792 194.901C104.049 194.798 104.332 194.773 104.604 194.829C104.876 194.884 105.126 195.019 105.322 195.215C105.455 195.344 105.618 195.436 105.797 195.484C105.976 195.531 106.163 195.532 106.342 195.485C106.545 195.434 106.731 195.333 106.883 195.19C107.074 195.073 107.277 194.926 107.467 194.797Z" fill="white"/>
<path d="M108.918 170.415C108.695 170.857 108.358 171.231 107.941 171.497C107.686 171.613 107.403 171.649 107.128 171.6C106.852 171.552 106.598 171.422 106.398 171.227C106.192 171.023 105.915 170.905 105.625 170.898C105.335 170.891 105.053 170.996 104.837 171.19C104.64 171.325 104.456 171.467 104.253 171.589C104.517 171.215 104.708 170.754 105.243 170.52C105.5 170.414 105.783 170.387 106.056 170.442C106.329 170.498 106.578 170.634 106.773 170.833C106.908 170.961 107.072 171.053 107.252 171.1C107.431 171.147 107.619 171.149 107.8 171.104C108 171.052 108.184 170.951 108.334 170.809C108.506 170.674 108.709 170.532 108.918 170.415Z" fill="white"/>
<path d="M125.305 190.68C125.08 191.12 124.743 191.493 124.327 191.761C124.072 191.878 123.787 191.915 123.511 191.867C123.234 191.818 122.979 191.687 122.778 191.491C122.649 191.357 122.487 191.259 122.308 191.205C122.13 191.151 121.94 191.144 121.758 191.184C121.556 191.224 121.368 191.32 121.217 191.46C121.021 191.589 120.842 191.731 120.603 191.854C120.867 191.479 121.064 191.018 121.598 190.784C121.856 190.681 122.139 190.656 122.411 190.712C122.683 190.767 122.932 190.901 123.129 191.098C123.261 191.227 123.424 191.32 123.603 191.368C123.782 191.415 123.97 191.415 124.149 191.368C124.352 191.317 124.538 191.216 124.69 191.073C124.911 190.944 125.102 190.796 125.305 190.68Z" fill="white"/>
<path d="M121.346 129.031C121.502 129.501 121.527 130.005 121.42 130.488C121.321 130.75 121.146 130.977 120.917 131.138C120.688 131.299 120.415 131.387 120.135 131.392C119.949 131.39 119.765 131.435 119.601 131.523C119.436 131.612 119.297 131.739 119.195 131.896C119.081 132.068 119.015 132.267 119.004 132.473C118.961 132.701 118.937 132.934 118.875 133.168C118.709 132.697 118.689 132.187 118.82 131.705C118.929 131.45 119.111 131.233 119.342 131.081C119.574 130.929 119.846 130.849 120.123 130.851C120.308 130.845 120.489 130.794 120.649 130.7C120.809 130.607 120.943 130.475 121.039 130.316C121.149 130.13 121.209 129.918 121.211 129.701C121.254 129.48 121.279 129.246 121.346 129.031Z" fill="white"/>
<path d="M134.937 180.598C135.097 181.067 135.125 181.571 135.017 182.054C134.917 182.316 134.742 182.542 134.513 182.703C134.284 182.864 134.012 182.953 133.732 182.958C133.545 182.956 133.361 183.001 133.197 183.089C133.033 183.177 132.893 183.305 132.792 183.462C132.678 183.634 132.612 183.834 132.601 184.04C132.558 184.267 132.533 184.501 132.472 184.728C132.307 184.259 132.287 183.751 132.417 183.271C132.524 183.015 132.705 182.796 132.937 182.643C133.169 182.49 133.442 182.409 133.72 182.411C133.905 182.409 134.086 182.359 134.247 182.266C134.407 182.174 134.541 182.041 134.636 181.882C134.746 181.696 134.805 181.484 134.808 181.268C134.826 181.059 134.851 180.831 134.937 180.598Z" fill="white"/>
<path d="M132.269 149.891C132.427 150.36 132.453 150.864 132.343 151.347C132.245 151.609 132.071 151.835 131.843 151.996C131.615 152.158 131.343 152.246 131.064 152.251C130.877 152.248 130.692 152.293 130.526 152.381C130.361 152.469 130.22 152.598 130.118 152.755C130.005 152.927 129.941 153.127 129.933 153.333C129.89 153.56 129.859 153.794 129.798 154.021C129.637 153.552 129.618 153.045 129.743 152.564C129.852 152.308 130.034 152.089 130.267 151.936C130.5 151.783 130.773 151.702 131.052 151.704C131.237 151.7 131.419 151.649 131.579 151.556C131.74 151.462 131.873 151.329 131.968 151.169C132.071 150.991 132.128 150.791 132.134 150.585C132.183 150.352 132.207 150.124 132.269 149.891Z" fill="white"/>
<path d="M118.255 157.781C118.412 158.251 118.44 158.754 118.335 159.238C118.235 159.5 118.06 159.726 117.831 159.887C117.602 160.048 117.33 160.136 117.05 160.142C116.759 160.143 116.479 160.256 116.269 160.457C116.058 160.658 115.933 160.933 115.919 161.223C115.876 161.451 115.845 161.684 115.784 161.912C115.621 161.442 115.603 160.934 115.735 160.455C115.842 160.198 116.023 159.98 116.255 159.826C116.487 159.673 116.76 159.592 117.038 159.595C117.223 159.592 117.404 159.542 117.565 159.45C117.725 159.357 117.859 159.225 117.954 159.066C118.06 158.878 118.119 158.667 118.126 158.451C118.169 158.242 118.193 158.015 118.255 157.781Z" fill="white"/>
<path d="M87.0365 191.285C87.1919 191.755 87.2173 192.259 87.1102 192.742C87.0123 193.005 86.8371 193.231 86.6079 193.393C86.3786 193.554 86.1059 193.642 85.8256 193.645C85.639 193.643 85.4547 193.688 85.2902 193.776C85.1257 193.864 84.9863 193.993 84.8852 194.149C84.773 194.32 84.7093 194.517 84.7008 194.721C84.6577 194.955 84.627 195.188 84.5656 195.416C84.4044 194.946 84.3851 194.439 84.5102 193.959C84.6193 193.702 84.8018 193.484 85.0347 193.331C85.2677 193.178 85.5407 193.097 85.8195 193.098C86.005 193.095 86.1866 193.044 86.3469 192.95C86.5072 192.857 86.6409 192.724 86.7353 192.564C86.8386 192.386 86.8956 192.185 86.9013 191.98C86.9504 191.728 86.9935 191.519 87.0365 191.285Z" fill="white"/>
<path d="M97.1113 142.969C97.2687 143.438 97.2963 143.942 97.1912 144.425C97.0918 144.687 96.9163 144.913 96.6873 145.074C96.4583 145.235 96.1864 145.324 95.9065 145.329C95.6155 145.327 95.335 145.438 95.1241 145.639C94.9132 145.839 94.7883 146.114 94.7756 146.405C94.7325 146.638 94.7018 146.866 94.6403 147.099C94.4771 146.63 94.4599 146.122 94.5912 145.643C94.6985 145.386 94.8797 145.167 95.1117 145.014C95.3438 144.861 95.6162 144.78 95.8942 144.782C96.0798 144.778 96.2614 144.727 96.4217 144.634C96.582 144.54 96.7157 144.407 96.8101 144.247C96.9133 144.07 96.9704 143.869 96.976 143.663C97.0252 143.43 97.0498 143.196 97.1113 142.969Z" fill="white"/>
<path d="M97.1105 163.191C97.2679 163.661 97.2955 164.164 97.1904 164.648C97.091 164.91 96.9155 165.136 96.6866 165.297C96.4576 165.458 96.1856 165.547 95.9058 165.552C95.6147 165.55 95.3343 165.661 95.1234 165.861C94.9124 166.062 94.7875 166.337 94.7748 166.627C94.7318 166.861 94.701 167.088 94.6396 167.322C94.4773 166.85 94.4602 166.341 94.5904 165.859C94.698 165.603 94.8794 165.385 95.1116 165.233C95.3437 165.081 95.6159 165.001 95.8935 165.005C96.0787 164.999 96.2596 164.948 96.4196 164.854C96.5797 164.761 96.7137 164.629 96.8093 164.47C96.9177 164.283 96.9749 164.071 96.9753 163.855C97.0244 163.652 97.049 163.419 97.1105 163.191Z" fill="white"/>
<path d="M113.363 180.598C113.518 181.068 113.544 181.571 113.437 182.054C113.339 182.317 113.163 182.544 112.934 182.705C112.705 182.866 112.432 182.955 112.152 182.958C111.965 182.956 111.782 183.002 111.617 183.09C111.453 183.178 111.313 183.306 111.211 183.462C111.099 183.635 111.036 183.834 111.027 184.04C110.978 184.267 110.953 184.501 110.892 184.728C110.727 184.259 110.707 183.751 110.837 183.271C110.946 183.015 111.128 182.796 111.361 182.643C111.594 182.49 111.867 182.409 112.146 182.411C112.33 182.408 112.51 182.358 112.67 182.265C112.829 182.173 112.962 182.041 113.055 181.882C113.168 181.697 113.227 181.484 113.228 181.268C113.271 181.059 113.301 180.831 113.363 180.598Z" fill="white"/>
<path d="M129.958 139.42C130.181 138.978 130.518 138.605 130.935 138.338C131.191 138.223 131.475 138.188 131.751 138.236C132.027 138.284 132.283 138.414 132.484 138.609C132.689 138.814 132.965 138.933 133.256 138.938C133.546 138.944 133.827 138.837 134.039 138.639C134.236 138.51 134.42 138.369 134.654 138.246C134.384 138.621 134.193 139.082 133.658 139.316C133.4 139.419 133.118 139.444 132.846 139.388C132.574 139.332 132.324 139.198 132.128 139.002C131.994 138.873 131.83 138.78 131.65 138.732C131.47 138.685 131.281 138.685 131.101 138.732C130.9 138.781 130.715 138.883 130.567 139.027C130.345 139.156 130.167 139.303 129.958 139.42Z" fill="white"/>
<path d="M105.133 137.353C105.354 136.91 105.692 136.536 106.11 136.271C106.364 136.154 106.648 136.117 106.924 136.165C107.199 136.214 107.454 136.345 107.653 136.541C107.783 136.675 107.945 136.774 108.123 136.827C108.302 136.881 108.491 136.889 108.673 136.849C108.876 136.808 109.063 136.713 109.214 136.572C109.411 136.443 109.595 136.301 109.798 136.179C109.534 136.553 109.337 137.014 108.808 137.248C108.551 137.351 108.268 137.376 107.996 137.321C107.724 137.265 107.474 137.131 107.278 136.935C107.144 136.806 106.98 136.713 106.8 136.666C106.62 136.618 106.431 136.618 106.251 136.664C106.05 136.713 105.866 136.815 105.717 136.959C105.52 137.088 105.342 137.236 105.133 137.353Z" fill="white"/>
<path d="M100.32 126.37C91.0512 134.022 57.7489 162.364 59.7527 172.426C61.7688 182.617 69.4828 190.866 75.4142 185.15C80.3315 180.46 102.041 145.652 105.981 136.346C109.737 127.482 109.429 118.846 100.32 126.37Z" fill="#FFB892"/>
<path d="M58.9033 169.595C58.9033 176.651 63.63 189.952 72.8069 187.475C78.8183 185.858 103.749 144.762 107.769 135.014C112.422 123.723 108.383 119.285 99.7782 125.942C91.1729 132.598 58.9156 159.52 58.9033 169.595Z" fill="#4668D6"/>
<path d="M84.7927 140.05C84.3239 140.215 83.8159 140.235 83.3359 140.105C83.2626 140.076 83.1926 140.039 83.127 139.995C83.2474 139.899 83.3623 139.796 83.4712 139.688L83.5265 139.731C83.6973 139.842 83.8946 139.905 84.0981 139.915C84.3317 139.964 84.5653 139.995 84.7927 140.05Z" fill="white"/>
<path d="M73.6494 164.018C74.1195 163.862 74.6228 163.837 75.1062 163.944C75.3693 164.041 75.5966 164.216 75.758 164.446C75.9194 164.675 76.0072 164.948 76.0097 165.229C76.0082 165.415 76.0536 165.599 76.1416 165.763C76.2297 165.928 76.3576 166.067 76.5137 166.169C76.6863 166.281 76.8859 166.345 77.0915 166.353C77.3189 166.403 77.5525 166.427 77.7799 166.489C77.3111 166.654 76.8032 166.673 76.3232 166.544C76.0667 166.435 75.8481 166.252 75.695 166.019C75.5419 165.787 75.461 165.514 75.4627 165.235C75.4598 165.051 75.4097 164.87 75.3172 164.711C75.2246 164.552 75.0927 164.419 74.9341 164.325C74.7486 164.213 74.5361 164.153 74.3194 164.153C74.0858 164.104 73.883 164.067 73.6494 164.018Z" fill="white"/>
<path d="M76.5942 184.407C76.459 184.554 76.3238 184.702 76.1885 184.837C76.1581 184.687 76.0971 184.546 76.0093 184.421C75.9215 184.296 75.8088 184.191 75.6784 184.112C75.4916 184.003 75.2796 183.946 75.0637 183.946C74.8363 183.903 74.6027 183.872 74.3691 183.81C74.8393 183.655 75.3425 183.63 75.8259 183.737C75.9924 183.791 76.1463 183.878 76.2783 183.993C76.4103 184.109 76.5177 184.249 76.5942 184.407Z" fill="white"/>
<path d="M88.1369 154.809C87.9158 155.251 87.5779 155.626 87.1596 155.89C86.9055 156.007 86.6217 156.044 86.346 155.996C86.0704 155.948 85.816 155.816 85.6168 155.62C85.4871 155.486 85.3252 155.387 85.1466 155.334C84.968 155.28 84.7787 155.273 84.5965 155.313C84.394 155.353 84.2068 155.449 84.0556 155.589C83.8589 155.718 83.6745 155.86 83.4717 155.983C83.736 155.608 83.9327 155.147 84.4613 154.913C84.7191 154.81 85.0015 154.785 85.2735 154.84C85.5455 154.896 85.7953 155.03 85.9918 155.227C86.1255 155.356 86.2901 155.448 86.4698 155.495C86.6495 155.543 86.8383 155.543 87.0183 155.497C87.2195 155.448 87.4041 155.346 87.553 155.202C87.7497 155.073 87.928 154.925 88.1369 154.809Z" fill="white"/>
<path d="M98.5002 127.801C98.6557 128.269 98.6812 128.77 98.5739 129.251C98.4786 129.514 98.3049 129.742 98.0764 129.904C97.8478 130.065 97.5753 130.153 97.2955 130.155C97.1081 130.153 96.9232 130.198 96.7578 130.286C96.5924 130.374 96.4518 130.502 96.3489 130.659C96.2368 130.832 96.1731 131.031 96.1645 131.237C96.1215 131.47 96.0907 131.698 96.0293 131.931C95.8683 131.46 95.8491 130.951 95.9739 130.468C96.0833 130.213 96.266 129.995 96.499 129.843C96.7321 129.691 97.0049 129.611 97.2832 129.614C97.4684 129.609 97.6493 129.557 97.8093 129.464C97.9694 129.37 98.1033 129.238 98.199 129.079C98.3073 128.893 98.3646 128.681 98.365 128.465C98.4141 128.262 98.4387 128.028 98.5002 127.801Z" fill="white"/>
<path d="M97.1113 142.969C97.2687 143.438 97.2963 143.942 97.1912 144.425C97.0918 144.687 96.9163 144.913 96.6873 145.074C96.4583 145.235 96.1864 145.324 95.9065 145.329C95.6155 145.327 95.335 145.438 95.1241 145.639C94.9132 145.839 94.7883 146.114 94.7756 146.405C94.7325 146.638 94.7018 146.866 94.6403 147.099C94.4771 146.63 94.4599 146.122 94.5912 145.643C94.6985 145.386 94.8797 145.167 95.1117 145.014C95.3438 144.861 95.6162 144.78 95.8942 144.782C96.0798 144.778 96.2614 144.727 96.4217 144.634C96.582 144.54 96.7157 144.407 96.8101 144.247C96.9133 144.07 96.9704 143.869 96.976 143.663C97.0252 143.43 97.0498 143.196 97.1113 142.969Z" fill="white"/>
<path d="M67.9885 175.309C68.1439 175.779 68.1693 176.282 68.0622 176.765C67.9654 177.027 67.7914 177.254 67.5631 177.415C67.3349 177.577 67.0632 177.665 66.7837 177.669C66.5964 177.667 66.4115 177.712 66.2461 177.8C66.0807 177.888 65.9401 178.016 65.8372 178.173C65.7251 178.346 65.6614 178.545 65.6528 178.751C65.6097 178.978 65.579 179.212 65.5175 179.445C65.3566 178.973 65.3373 178.465 65.4622 177.982C65.5716 177.726 65.7543 177.509 65.9873 177.357C66.2203 177.205 66.4932 177.125 66.7714 177.128C66.9567 177.123 67.1376 177.071 67.2976 176.977C67.4576 176.884 67.5916 176.752 67.6873 176.593C67.7956 176.406 67.8529 176.194 67.8532 175.979C67.9024 175.776 67.9393 175.542 67.9885 175.309Z" fill="white"/>
<path d="M107.228 136.256C107.161 136.41 107.081 136.576 107.001 136.742C106.769 136.626 106.502 136.598 106.251 136.662C106.05 136.711 105.865 136.813 105.716 136.957C105.52 137.086 105.341 137.234 105.102 137.35C105.378 136.969 105.556 136.527 106.079 136.269C106.258 136.181 106.453 136.135 106.652 136.133C106.851 136.131 107.048 136.173 107.228 136.256Z" fill="white"/>
<path d="M101.838 149.235C101.008 150.39 100.092 151.484 99.2073 152.597L98.5926 153.396C99.1458 152.334 99.6867 151.265 100.215 150.187C101.023 148.644 101.747 147.057 102.385 145.436C102.428 145.331 102.268 145.282 102.213 145.368C101.383 146.671 100.719 148.061 99.9326 149.388C99.1458 150.716 98.3898 152.062 97.6399 153.408C96.1278 156.094 94.5666 158.768 92.9746 161.399C89.7723 166.66 86.3609 171.805 82.8328 176.857C81.8432 178.271 80.8659 179.697 79.8271 181.08C78.7883 182.463 77.811 183.963 76.7538 185.352C76.7169 185.401 76.7845 185.469 76.8276 185.42C77.8233 184.19 78.8498 183.041 79.864 181.854C80.8781 180.668 81.7387 179.433 82.6914 178.203C84.5907 175.745 86.3794 173.237 88.1373 170.686C91.6416 165.552 94.885 160.245 97.855 154.785L98.0702 154.367C98.5742 153.832 99.0659 153.279 99.5331 152.701C100.412 151.607 101.174 150.433 101.943 149.259C101.967 149.228 101.875 149.179 101.838 149.235Z" fill="#263238"/>
<path d="M120.996 121.173C120.996 121.173 123.031 129.508 120.603 130.657C116.073 132.802 107.978 126.14 107.449 124.947C107.32 124.64 106.644 116.631 106.14 110.41C105.808 106.403 105.525 103.133 105.525 103.133L121.414 109.433L121.058 120.386L120.996 121.173Z" fill="#FFB892"/>
<path d="M121.414 109.433L121.057 120.386C118.015 119.862 115.116 118.703 112.551 116.984C109.986 115.265 107.812 113.025 106.17 110.41C105.838 106.403 105.556 103.133 105.556 103.133L107.541 103.846L121.414 109.433Z" fill="#263238"/>
<path d="M124.328 96.9823C124.567 101.463 127.948 104.918 131.876 104.702C135.803 104.487 138.791 100.689 138.551 96.214C138.311 91.7393 134.924 88.2788 130.997 88.4939C127.069 88.709 124.082 92.5076 124.328 96.9823Z" fill="#455A64"/>
<path d="M122.029 97.3939C122.299 102.373 126.061 106.214 130.431 105.999C134.801 105.784 138.121 101.531 137.856 96.5518C137.592 91.5731 133.824 87.7253 129.454 87.9466C125.084 88.1679 121.771 92.409 122.029 97.3939Z" fill="#C7C7C7"/>
<path d="M135.38 93.7255C136.861 112.903 125.545 115.958 121.409 116.271C117.653 116.56 104.813 117.058 101.371 98.1326C97.9286 79.2073 106.362 72.4583 114.893 71.3458C123.425 70.2332 133.892 74.542 135.38 93.7255Z" fill="#FFB892"/>
<path d="M129.406 90.3074C128.966 90.2515 128.529 90.1735 128.097 90.0738C127.625 90.0531 127.174 89.8782 126.812 89.5759C126.719 89.4563 126.669 89.3093 126.669 89.158C126.669 89.0066 126.719 88.8596 126.812 88.74C127.023 88.5241 127.289 88.3691 127.581 88.2912C127.873 88.2134 128.181 88.2155 128.472 88.2974C129.087 88.3691 129.655 88.667 130.064 89.1334C130.151 89.2469 130.203 89.3836 130.214 89.5266C130.224 89.6696 130.193 89.8125 130.123 89.9376C130.052 90.0627 129.947 90.1645 129.82 90.2302C129.692 90.2959 129.548 90.3228 129.406 90.3074Z" fill="#263238"/>
<path d="M116.246 91.335C116.679 91.2399 117.108 91.123 117.53 90.9847C117.996 90.9188 118.427 90.7031 118.759 90.37C118.845 90.246 118.886 90.097 118.877 89.9467C118.869 89.7963 118.81 89.6533 118.71 89.5402C118.481 89.3436 118.203 89.212 117.906 89.159C117.609 89.1061 117.303 89.1337 117.02 89.239C116.413 89.3637 115.874 89.7099 115.508 90.2102C115.429 90.3295 115.386 90.4695 115.386 90.6127C115.385 90.756 115.427 90.8962 115.506 91.016C115.584 91.1358 115.696 91.2299 115.828 91.2866C115.959 91.3433 116.104 91.3601 116.246 91.335Z" fill="#263238"/>
<path d="M119.57 96.0036C119.57 95.9544 119.478 96.0773 119.484 96.1265C119.638 97.4296 119.601 98.9478 118.458 99.4825C118.421 99.4825 118.458 99.5625 118.458 99.5563C119.896 99.2244 119.927 97.2083 119.57 96.0036Z" fill="#263238"/>
<path d="M118.285 94.7462C116.171 94.7462 116.38 98.9935 118.341 98.9689C120.301 98.9443 120.056 94.7216 118.285 94.7462Z" fill="#263238"/>
<path d="M117.468 95.0081C117.111 95.2662 116.767 95.7026 116.325 95.7702C115.882 95.8379 115.403 95.426 115.046 95.0142C115.009 94.9712 114.979 95.0142 114.979 95.0695C114.979 95.8747 115.36 96.6922 116.208 96.7721C117.056 96.852 117.535 96.096 117.695 95.2724C117.726 95.1187 117.609 94.9036 117.468 95.0081Z" fill="#263238"/>
<path d="M127.199 95.1518C127.199 95.0965 127.303 95.2071 127.303 95.2624C127.303 96.5717 127.549 98.0714 128.754 98.4525C128.791 98.4525 128.791 98.5324 128.754 98.5263C127.291 98.3849 127.002 96.3934 127.199 95.1518Z" fill="#263238"/>
<path d="M128.312 93.7291C130.407 93.4832 130.77 97.6998 128.803 97.9272C126.836 98.1546 126.554 93.9381 128.312 93.7291Z" fill="#263238"/>
<path d="M129.208 93.9407C129.559 94.1374 129.922 94.5185 130.321 94.5123C130.721 94.5062 131.089 94.0206 131.354 93.5596C131.354 93.5104 131.415 93.5596 131.421 93.6026C131.507 94.4017 131.311 95.2622 130.548 95.4835C129.786 95.7048 129.276 95.0286 129.024 94.2542C128.975 94.0943 129.067 93.8608 129.208 93.9407Z" fill="#263238"/>
<path d="M120.763 106.138C121.077 106.445 121.378 106.863 121.87 106.9C122.357 106.888 122.836 106.775 123.277 106.568C123.286 106.561 123.298 106.558 123.309 106.559C123.321 106.56 123.331 106.566 123.339 106.575C123.346 106.584 123.35 106.595 123.348 106.607C123.347 106.618 123.342 106.629 123.333 106.636C123.146 106.894 122.894 107.096 122.601 107.222C122.309 107.348 121.988 107.391 121.673 107.349C121.405 107.283 121.164 107.139 120.979 106.934C120.795 106.729 120.677 106.473 120.64 106.2C120.616 106.12 120.72 106.095 120.763 106.138Z" fill="#263238"/>
<path d="M125.939 101.081C125.939 101.081 126.332 103.017 126.387 103.939C126.387 104.025 126.172 104.08 125.859 104.117C125.859 104.117 125.859 104.117 125.822 104.117C125.04 104.311 124.22 104.285 123.452 104.042C122.684 103.799 121.998 103.349 121.47 102.741C121.403 102.654 121.513 102.556 121.599 102.605C122.823 103.336 124.25 103.652 125.668 103.509C125.717 103.251 124.894 100.214 125.054 100.196C125.773 100.216 126.486 100.332 127.174 100.54C126.486 96.4833 125.146 92.5495 124.513 88.5235C124.511 88.4946 124.519 88.466 124.535 88.4422C124.552 88.4185 124.576 88.4009 124.604 88.3924C124.631 88.3839 124.661 88.3849 124.688 88.3953C124.715 88.4057 124.738 88.4249 124.752 88.4497C126.443 92.4511 127.346 97.0979 128.17 101.271C128.256 101.788 126.332 101.216 125.939 101.081Z" fill="#263238"/>
<path d="M125.22 103.653C124.794 104.366 124.193 104.959 123.474 105.374C123.074 105.585 122.619 105.666 122.171 105.607C121.187 105.472 121.064 104.605 121.151 103.837C121.199 103.429 121.296 103.029 121.439 102.645C122.559 103.377 123.884 103.73 125.22 103.653Z" fill="#263238"/>
<path d="M123.474 105.381C123.074 105.592 122.619 105.673 122.171 105.614C121.187 105.479 121.064 104.612 121.151 103.844C122.177 103.832 123.259 104.397 123.474 105.381Z" fill="#F392B9"/>
<path d="M101.653 96.4097C103.749 96.4097 109.478 90.9269 110.16 80.8526C110.16 80.8526 108.931 89.8574 108.175 91.1482C107.419 92.439 111.377 88.0749 112.041 79.9491C112.041 79.9491 116.381 83.4281 120.161 84.7004C123.941 85.9728 126.307 86.0588 126.59 85.7945C126.873 85.5302 121.316 83.4649 119.878 81.621C119.878 81.621 129.854 86.8947 134.544 87.491C135.085 87.5586 133.837 79.2115 126.799 74.0853C119.761 68.959 110.437 70.6923 107.185 73.5259C107.185 73.5259 103.497 73.8578 99.2869 79.0578C95.0765 84.2579 99.3976 96.4527 101.653 96.4097Z" fill="#263238"/>
<path d="M104.536 99.3752C104.536 99.3752 100.393 93.3269 97.6517 94.8021C94.9104 96.2773 97.9898 105.005 101.18 106.229C101.578 106.413 102.009 106.515 102.448 106.528C102.887 106.541 103.323 106.466 103.732 106.306C104.141 106.147 104.513 105.906 104.826 105.599C105.14 105.292 105.388 104.925 105.556 104.52L104.536 99.3752Z" fill="#FFB892"/>
<path d="M98.5983 97.2812C98.5904 97.2844 98.5835 97.29 98.5787 97.2971C98.5739 97.3042 98.5713 97.3126 98.5713 97.3212C98.5713 97.3298 98.5739 97.3382 98.5787 97.3453C98.5835 97.3524 98.5904 97.358 98.5983 97.3611C100.836 98.2954 101.997 100.385 102.803 102.549C102.145 101.713 101.235 101.246 100.117 102.033C100.061 102.076 100.117 102.168 100.178 102.149C100.573 102.029 100.996 102.034 101.389 102.162C101.781 102.291 102.125 102.538 102.372 102.868C102.783 103.427 103.132 104.029 103.411 104.663C103.516 104.866 103.878 104.762 103.805 104.528V104.479C103.854 101.615 101.665 97.5947 98.5983 97.2812Z" fill="#263238"/>
<path d="M102.975 105.39C102.971 105.524 102.928 105.654 102.85 105.763C102.773 105.872 102.664 105.956 102.539 106.004C102.414 106.051 102.277 106.06 102.147 106.03C102.016 106 101.898 105.932 101.806 105.834C101.714 105.736 101.654 105.614 101.632 105.481C101.61 105.349 101.628 105.214 101.684 105.092C101.739 104.97 101.83 104.867 101.943 104.796C102.057 104.726 102.19 104.691 102.323 104.696C102.502 104.702 102.67 104.779 102.792 104.909C102.914 105.039 102.98 105.212 102.975 105.39Z" fill="white"/>
<path d="M101.131 104.161C101.129 104.217 101.115 104.272 101.092 104.322C101.068 104.373 101.035 104.418 100.994 104.456C100.953 104.494 100.904 104.523 100.852 104.542C100.8 104.561 100.744 104.57 100.688 104.567C100.633 104.566 100.578 104.553 100.528 104.53C100.477 104.507 100.432 104.475 100.394 104.434C100.356 104.393 100.327 104.346 100.308 104.294C100.289 104.241 100.28 104.186 100.283 104.131C100.284 104.075 100.297 104.02 100.32 103.969C100.342 103.919 100.375 103.873 100.416 103.834C100.456 103.796 100.504 103.766 100.556 103.746C100.608 103.727 100.663 103.717 100.719 103.719C100.832 103.725 100.937 103.775 101.014 103.857C101.091 103.94 101.133 104.049 101.131 104.161Z" fill="white"/>
<path d="M97.842 98.61L96.5205 98.8866C96.4861 98.8938 96.4507 98.894 96.4163 98.8874C96.3819 98.8807 96.3491 98.8673 96.3199 98.8478C96.2908 98.8284 96.2658 98.8033 96.2464 98.7741C96.227 98.7449 96.2136 98.7121 96.207 98.6777C96.1924 98.6092 96.2055 98.5377 96.2436 98.479C96.2816 98.4202 96.3414 98.3789 96.4098 98.3642L97.7313 98.0876C97.7657 98.0804 97.8011 98.0802 97.8355 98.0869C97.8699 98.0935 97.9027 98.107 97.9318 98.1264C97.961 98.1459 97.986 98.1709 98.0054 98.2001C98.0248 98.2294 98.0382 98.2621 98.0448 98.2966C98.0594 98.365 98.0462 98.4365 98.0082 98.4953C97.9702 98.554 97.9104 98.5953 97.842 98.61Z" fill="#4668D6"/>
<path d="M97.6946 97.762L96.3485 97.8419C96.3133 97.8444 96.2779 97.8398 96.2445 97.8284C96.2111 97.8171 96.1803 97.7991 96.1539 97.7756C96.1276 97.7521 96.1062 97.7236 96.091 97.6917C96.0759 97.6598 96.0673 97.6252 96.0657 97.5899C96.0624 97.5192 96.0869 97.4499 96.134 97.3971C96.1811 97.3442 96.2471 97.3119 96.3178 97.3072L97.6577 97.2273C97.7285 97.2222 97.7984 97.2451 97.8525 97.2911C97.9065 97.3371 97.9403 97.4024 97.9466 97.4731C97.9501 97.5445 97.9257 97.6145 97.8788 97.6683C97.8318 97.7222 97.7658 97.7558 97.6946 97.762Z" fill="#4668D6"/>
<path d="M100.559 94.7558C100.559 94.7558 98.9365 85.081 101.254 79.3893C103.835 73.0952 116.159 67.846 125.803 73.3779C125.803 73.3779 111.15 70.4645 105.151 79.4385C102.624 83.2186 103.835 94.6574 103.835 94.6574L100.559 94.7558Z" fill="#C7C7C7"/>
<path d="M103.276 108.603C107.625 108.126 110.71 103.72 110.167 98.7633C109.623 93.8063 105.656 90.1746 101.306 90.6517C96.9567 91.1288 93.8715 95.5341 94.4152 100.491C94.959 105.448 98.9259 109.08 103.276 108.603Z" fill="#C7C7C7"/>
<path d="M107.844 98.7411C108.336 103.197 105.563 107.156 101.654 107.586C97.7449 108.016 94.1738 104.752 93.6636 100.296C93.1534 95.8399 95.9501 91.8753 99.8593 91.4512C103.769 91.0271 107.358 94.2848 107.844 98.7411Z" fill="#455A64"/>
<path d="M118.255 111.839L111.844 110.696L105.796 105.969L106.527 105.035L112.342 109.584L118.458 110.672L118.255 111.839Z" fill="#C7C7C7"/>
<path d="M117.413 111.055C117.585 109.211 122.484 108.738 122.226 111.504C121.967 114.27 117.241 112.887 117.413 111.055Z" fill="#37474F"/>
<path d="M121.046 120.934L119.429 129.908L106.964 121.548L104.745 125.519C104.745 125.519 118.268 140.093 118.163 139.324L120.105 131.487L126.061 135.433L123.08 123.042L121.046 120.934Z" fill="white"/>
<path d="M76.2371 184.246C70.5331 191.21 61.2517 183.256 60.1945 177.061C57.7052 162.512 60.9075 135.829 65.1487 123.186C66.5132 119.117 93.5336 126.874 93.6013 131.453C93.6689 136.259 87.805 170.115 76.2371 184.246Z" fill="#FFB892"/>
<path d="M64.4229 130.498C64.4229 130.498 64.8285 117.142 69.5798 108.241C72.8621 102.095 81.4981 89.4942 102.304 88.5722C107.222 88.3632 114.419 91.5595 106.484 94.8356C100.848 97.159 96.5757 96.9316 93.5393 98.8801C93.5393 98.8801 102.194 104.031 102.212 108.979C102.227 113.309 101.936 117.635 101.339 121.924C100.522 121.995 99.7005 122.014 98.8806 121.979C98.8806 121.979 98.7577 126.613 93.5823 131.42L64.4229 130.498Z" fill="#FFB892"/>
<path d="M73.6494 102.868C77.0669 101.571 84.3568 98.9399 91.0689 98.8661C98.5247 98.7801 112.908 100.624 112.914 106.125C112.914 110.164 107.382 109.942 107.382 109.942C107.382 109.942 113.166 111.958 112.373 115.603C111.648 118.929 107.363 118.498 107.363 118.498C107.363 118.498 110.664 120.342 109.349 123.416C107.769 127.104 101.112 122.672 96.2873 125.026C95.1932 125.53 73.6494 102.868 73.6494 102.868Z" fill="#FFB892"/>
<path d="M89.8458 106.762C93.2633 106.067 101.42 106.479 107.29 109.835C107.425 109.909 107.437 110.05 107.29 110.007C101.62 108.252 95.7586 107.194 89.8335 106.854C89.809 106.829 89.809 106.768 89.8458 106.762Z" fill="#263238"/>
<path d="M90.153 114.279C93.1587 113.984 101.549 114.783 107.363 118.36C107.493 118.44 107.499 118.587 107.363 118.538C101.803 116.496 96.0296 115.09 90.153 114.346C90.1464 114.343 90.1408 114.339 90.1369 114.333C90.133 114.327 90.1309 114.32 90.1309 114.313C90.1309 114.305 90.133 114.298 90.1369 114.292C90.1408 114.286 90.1464 114.282 90.153 114.279Z" fill="#263238"/>
<path d="M112.269 103.729C111.458 102.832 110.308 102.5 109.3 101.885C109.245 101.854 109.196 101.947 109.251 101.971C111.027 102.715 112.89 104.473 112.595 106.557C112.238 109.064 109.232 109.704 107.149 109.759C107.044 109.759 107.093 109.876 107.198 109.894C109.515 110.3 112.785 109.495 113.215 106.766C113.297 106.221 113.255 105.665 113.091 105.139C112.927 104.613 112.646 104.131 112.269 103.729Z" fill="#263238"/>
<path d="M106.86 109.68C106.804 109.68 106.761 109.741 106.817 109.766C110.025 110.995 112.004 113.226 112.164 114.492C112.279 115.105 112.205 115.739 111.951 116.309C111.698 116.879 111.277 117.358 110.744 117.683C109.63 118.296 108.336 118.501 107.087 118.26C106.983 118.26 106.946 118.396 107.044 118.414C108.55 118.691 111.445 119.029 112.49 116.601C113.363 114.572 112.386 111.204 106.86 109.68Z" fill="#263238"/>
<path d="M109.225 119.934C108.585 119.036 107.657 118.385 106.595 118.09C106.545 118.09 106.509 118.157 106.595 118.176C108.439 118.92 110.018 121.126 109.428 123.173C109.391 123.302 109.582 123.339 109.625 123.222C109.815 122.68 109.878 122.102 109.809 121.531C109.739 120.961 109.54 120.415 109.225 119.934Z" fill="#263238"/>
<path d="M110.234 91.4651C110.086 90.5431 108.925 89.6211 106.693 89.2031C108.537 89.7071 109.883 90.7029 109.871 91.6003C109.859 92.4977 109.195 93.4443 107.24 94.4953C107.185 94.4953 107.24 94.5507 107.283 94.5261C108.439 93.9913 110.492 93.1185 110.234 91.4651Z" fill="#263238"/>
<path d="M63.0217 125.422L96.4592 136.682C96.4592 136.682 84.2767 174.207 78.5234 182.266C72.7702 190.324 64.792 188.873 60.1882 178.879C55.5844 168.884 63.0217 125.422 63.0217 125.422Z" fill="#4668D6"/>
<path d="M80.6621 137.58C81.1322 137.425 81.6355 137.399 82.1189 137.506C82.381 137.605 82.6074 137.78 82.7685 138.01C82.9297 138.239 83.0181 138.511 83.0224 138.791C83.0209 138.978 83.0663 139.161 83.1543 139.326C83.2424 139.49 83.3703 139.63 83.5264 139.732C83.699 139.844 83.8986 139.907 84.1042 139.916C84.3316 139.965 84.5652 139.99 84.7926 140.051C84.3238 140.216 83.8159 140.236 83.3359 140.106C83.0793 139.997 82.8608 139.815 82.7077 139.582C82.5546 139.349 82.4737 139.076 82.4754 138.797C82.4725 138.613 82.4224 138.433 82.3299 138.273C82.2373 138.114 82.1054 137.981 81.9467 137.888C81.7606 137.777 81.5486 137.718 81.3321 137.715C81.1231 137.672 80.8957 137.636 80.6621 137.58Z" fill="white"/>
<path d="M73.6494 164.018C74.1195 163.862 74.6228 163.837 75.1062 163.944C75.3693 164.041 75.5966 164.216 75.758 164.446C75.9194 164.675 76.0072 164.948 76.0097 165.229C76.0082 165.415 76.0536 165.599 76.1416 165.763C76.2297 165.928 76.3576 166.067 76.5137 166.169C76.6863 166.281 76.8859 166.345 77.0915 166.353C77.3189 166.403 77.5525 166.427 77.7799 166.489C77.3111 166.654 76.8032 166.673 76.3232 166.544C76.0667 166.435 75.8481 166.252 75.695 166.019C75.5419 165.787 75.461 165.514 75.4627 165.235C75.4598 165.051 75.4097 164.87 75.3172 164.711C75.2246 164.552 75.0927 164.419 74.9341 164.325C74.7486 164.213 74.5361 164.153 74.3194 164.153C74.0858 164.104 73.883 164.067 73.6494 164.018Z" fill="white"/>
<path d="M76.6365 184.499C76.489 184.646 76.3415 184.782 76.194 184.911C76.1725 184.747 76.1144 184.59 76.0239 184.452C75.9335 184.313 75.813 184.197 75.6715 184.112C75.4856 184.001 75.2731 183.944 75.0569 183.946C74.8294 183.903 74.5959 183.872 74.3623 183.81C74.8324 183.655 75.3357 183.63 75.8191 183.737C76.0027 183.796 76.1711 183.895 76.3123 184.027C76.4536 184.159 76.5642 184.32 76.6365 184.499Z" fill="white"/>
<path d="M88.1369 154.809C87.9158 155.251 87.5779 155.626 87.1596 155.89C86.9055 156.007 86.6217 156.044 86.346 155.996C86.0704 155.948 85.816 155.816 85.6168 155.62C85.4871 155.486 85.3252 155.387 85.1466 155.334C84.968 155.28 84.7787 155.273 84.5965 155.313C84.394 155.353 84.2068 155.449 84.0556 155.589C83.8589 155.718 83.6745 155.86 83.4717 155.983C83.736 155.608 83.9327 155.147 84.4613 154.913C84.7191 154.81 85.0015 154.785 85.2735 154.84C85.5455 154.896 85.7953 155.03 85.9918 155.227C86.1255 155.356 86.2901 155.448 86.4698 155.495C86.6495 155.543 86.8383 155.543 87.0183 155.497C87.2195 155.448 87.4041 155.346 87.553 155.202C87.7497 155.073 87.928 154.925 88.1369 154.809Z" fill="white"/>
<path d="M65.3701 157.176C65.1469 157.617 64.8095 157.991 64.3928 158.258C64.1375 158.374 63.8529 158.411 63.5764 158.363C63.2999 158.314 63.0445 158.183 62.8439 157.987C62.7141 157.853 62.5522 157.755 62.3736 157.701C62.1951 157.647 62.0057 157.64 61.8235 157.68C61.6211 157.72 61.4338 157.816 61.2826 157.956C61.0921 158.085 60.9077 158.233 60.668 158.35C60.9384 157.975 61.129 157.514 61.6637 157.28C61.9215 157.177 62.2039 157.152 62.476 157.208C62.748 157.263 62.9977 157.398 63.1942 157.594C63.3267 157.723 63.4902 157.815 63.6689 157.863C63.8477 157.91 64.0356 157.911 64.2146 157.864C64.417 157.813 64.6031 157.712 64.7555 157.569C64.9767 157.44 65.1611 157.305 65.3701 157.176Z" fill="white"/>
<path d="M69.0886 132.539C68.8693 132.983 68.531 133.358 68.1113 133.621C67.8573 133.737 67.5743 133.774 67.2991 133.727C67.0239 133.68 66.7693 133.551 66.5685 133.357C66.4383 133.223 66.2766 133.124 66.0984 133.069C65.9201 133.015 65.7309 133.006 65.5481 133.043C65.3466 133.086 65.16 133.181 65.0072 133.32C64.8105 133.449 64.6261 133.596 64.3926 133.713C64.6569 133.338 64.8536 132.877 65.3822 132.644C65.6403 132.54 65.9235 132.514 66.1959 132.571C66.4683 132.628 66.7177 132.765 66.9127 132.963C67.0474 133.091 67.212 133.182 67.3914 133.23C67.5707 133.277 67.7591 133.278 67.9392 133.234C68.1394 133.182 68.3233 133.08 68.4739 132.939C68.7013 132.803 68.8857 132.662 69.0886 132.539Z" fill="white"/>
<path d="M72.4257 145.012C72.5831 145.481 72.6107 145.985 72.5056 146.468C72.4062 146.73 72.2307 146.956 72.0018 147.117C71.7728 147.278 71.5009 147.367 71.221 147.372C71.034 147.368 70.8491 147.412 70.6843 147.5C70.5195 147.588 70.3804 147.718 70.2805 147.876C70.1629 148.044 70.0967 148.243 70.09 148.448C70.047 148.681 70.0162 148.909 69.9548 149.142C69.7915 148.673 69.7744 148.165 69.9056 147.685C70.0129 147.429 70.1941 147.21 70.4262 147.057C70.6582 146.904 70.9306 146.823 71.2087 146.825C71.3943 146.821 71.5759 146.77 71.7362 146.677C71.8965 146.583 72.0302 146.45 72.1245 146.29C72.2281 146.112 72.2871 145.912 72.2966 145.706C72.3397 145.497 72.3642 145.264 72.4257 145.012Z" fill="white"/>
<path d="M67.9885 175.309C68.1439 175.779 68.1693 176.282 68.0622 176.765C67.9654 177.027 67.7914 177.254 67.5631 177.415C67.3349 177.577 67.0632 177.665 66.7837 177.669C66.5964 177.667 66.4115 177.712 66.2461 177.8C66.0807 177.888 65.9401 178.016 65.8372 178.173C65.7251 178.346 65.6614 178.545 65.6528 178.751C65.6097 178.978 65.579 179.212 65.5175 179.445C65.3566 178.973 65.3373 178.465 65.4622 177.982C65.5716 177.726 65.7543 177.509 65.9873 177.357C66.2203 177.205 66.4932 177.125 66.7714 177.128C66.9567 177.123 67.1376 177.071 67.2976 176.977C67.4576 176.884 67.5916 176.752 67.6873 176.593C67.7956 176.406 67.8529 176.194 67.8532 175.979C67.9024 175.776 67.9393 175.542 67.9885 175.309Z" fill="white"/>
<path d="M92.7282 142.945C90.9099 142.116 89.0489 141.383 87.1532 140.75C85.2478 140.013 83.3239 139.361 81.4 138.704C77.6629 137.419 73.895 136.276 70.1272 135.145C67.9328 134.481 65.7262 133.915 63.5319 133.301C63.452 133.301 63.4212 133.436 63.5319 133.467C67.3059 134.88 71.0676 136.349 74.8723 137.671C78.6771 138.993 82.3527 140.216 86.1267 141.328C87.2024 141.648 88.2903 141.943 89.3721 142.232C90.4717 142.595 91.5925 142.89 92.7282 143.117C92.7835 143.129 92.8081 142.988 92.7282 142.945Z" fill="#263238"/>
<path d="M97.1356 136.771C97.0434 136.47 93.3371 135.505 93.1465 135.449C93.0912 135.449 93.0666 135.523 93.1465 135.541C93.3248 135.603 96.4657 136.912 96.4534 136.937C94.6094 141.854 92.9252 146.82 91.155 151.762C89.3848 156.704 87.5716 161.658 85.8997 166.655C84.9593 169.452 85.0207 169.729 86.0165 167.319C87.0122 164.91 88.0325 162.931 88.9484 160.484C90.7924 155.567 92.5196 150.57 94.2468 145.591C95.2056 142.77 97.1664 136.869 97.1356 136.771Z" fill="#263238"/>
<path d="M155.508 195.183H136.491C134.648 195.182 132.881 194.448 131.579 193.145C130.277 191.841 129.545 190.074 129.545 188.231C129.544 187.318 129.723 186.414 130.072 185.571C130.42 184.727 130.932 183.96 131.577 183.314C132.222 182.668 132.988 182.155 133.831 181.805C134.674 181.455 135.578 181.274 136.491 181.273H155.508C157.351 181.275 159.117 182.008 160.42 183.312C161.722 184.615 162.454 186.383 162.454 188.225C162.455 189.138 162.276 190.042 161.927 190.886C161.578 191.73 161.067 192.497 160.422 193.143C159.777 193.789 159.011 194.302 158.168 194.652C157.325 195.002 156.421 195.182 155.508 195.183Z" fill="#455A64"/>
<path d="M140.651 188.113C140.66 187.892 140.733 187.679 140.86 187.498C140.91 187.412 140.971 187.333 141.026 187.246L141.395 186.884C141.536 186.779 141.672 186.675 141.819 186.576C142.403 186.205 143.055 185.952 143.737 185.833C145.307 185.519 146.924 185.519 148.494 185.833C149.168 185.948 149.812 186.197 150.388 186.564C150.541 186.663 150.683 186.773 150.83 186.878L151.18 187.234C151.275 187.368 151.361 187.508 151.439 187.652C151.498 187.801 151.549 187.953 151.592 188.107H151.482H148.458C148.432 188.111 148.407 188.106 148.385 188.094C148.363 188.082 148.345 188.062 148.335 188.039C148.25 187.874 148.123 187.734 147.966 187.633C147.81 187.533 147.629 187.476 147.443 187.468C146.539 187.409 145.631 187.409 144.727 187.468C144.541 187.475 144.361 187.531 144.205 187.63C144.048 187.73 143.921 187.869 143.835 188.033C143.83 188.055 143.817 188.074 143.799 188.087C143.781 188.101 143.759 188.108 143.737 188.107H140.664L140.651 188.113Z" fill="white"/>
<path d="M140.645 189.875V188.812C140.642 188.788 140.642 188.763 140.645 188.738H143.718C143.718 188.806 143.718 188.886 143.718 188.96C143.718 189.261 143.718 189.574 143.718 189.863C143.725 189.916 143.72 189.971 143.703 190.022C143.686 190.073 143.657 190.119 143.619 190.157C143.581 190.195 143.534 190.224 143.483 190.241C143.433 190.258 143.378 190.264 143.325 190.256H141.026C140.975 190.262 140.923 190.257 140.874 190.239C140.825 190.222 140.78 190.195 140.744 190.158C140.707 190.121 140.679 190.077 140.662 190.028C140.645 189.979 140.639 189.927 140.645 189.875Z" fill="white"/>
<path d="M148.493 189.878C148.493 189.491 148.493 189.11 148.524 188.723H151.561C151.561 188.723 151.561 188.766 151.561 188.79V189.878C151.566 189.929 151.561 189.98 151.544 190.028C151.527 190.077 151.5 190.12 151.464 190.156C151.428 190.192 151.384 190.22 151.336 190.237C151.288 190.253 151.236 190.259 151.186 190.253H148.862C148.812 190.258 148.761 190.252 148.714 190.235C148.667 190.217 148.624 190.19 148.588 190.154C148.553 190.118 148.526 190.074 148.51 190.027C148.493 189.979 148.488 189.928 148.493 189.878Z" fill="white"/>
<path d="M275.312 87.7123C276.858 89.2547 277.941 91.1983 278.441 93.3237C278.94 95.4491 278.836 97.6719 278.14 99.7412L271.348 92.98L266.344 95.3587L263.96 100.368L270.721 107.166C268.739 107.832 266.615 107.955 264.57 107.525C262.524 107.094 260.631 106.125 259.085 104.717C257.54 103.309 256.399 101.514 255.779 99.5178C255.16 97.5211 255.086 95.3953 255.564 93.3602C256.041 91.3251 257.054 89.4546 258.497 87.9421C259.941 86.4297 261.762 85.3303 263.772 84.7576C265.782 84.1848 267.909 84.1596 269.933 84.6845C271.956 85.2094 273.803 86.2653 275.282 87.7431L275.312 87.7123Z" fill="#4668D6"/>
<path d="M221.283 66.8653C219.738 65.3225 218.655 63.3789 218.156 61.2536C217.656 59.1284 217.76 56.9058 218.456 54.8364L225.248 61.6284L230.251 59.2435L232.636 54.2402L225.844 47.442C227.826 46.7768 229.949 46.6531 231.995 47.0836C234.041 47.5142 235.934 48.4835 237.479 49.8912C239.025 51.2989 240.166 53.0939 240.785 55.0906C241.405 57.0872 241.479 59.213 241.001 61.2481C240.523 63.2833 239.51 65.1538 238.067 66.6662C236.624 68.1786 234.803 69.278 232.793 69.8508C230.782 70.4235 228.655 70.4487 226.632 69.9238C224.608 69.399 222.762 68.343 221.283 66.8653Z" fill="#4668D6"/>
<path d="M236.491 58.0957L229.103 65.4844L259.166 95.5477L266.555 88.159L236.491 58.0957Z" fill="#4668D6"/>
<path d="M148.035 78.1451C146.844 76.3815 146.202 74.3047 146.191 72.1767C146.191 64.6164 154.495 58.4883 164.729 58.4883C174.963 58.4883 183.261 64.6349 183.261 72.1767C183.261 79.7186 174.963 85.8713 164.729 85.8713C160.181 85.9439 155.719 84.6226 151.944 82.085L145.558 83.7077L148.035 78.1451Z" fill="#4668D6"/>
<path d="M171.392 72.1756C171.39 72.5566 171.502 72.9294 171.713 73.2467C171.924 73.564 172.225 73.8116 172.576 73.958C172.928 74.1043 173.316 74.143 173.689 74.0689C174.063 73.9949 174.406 73.8115 174.676 73.5421C174.945 73.2727 175.129 72.9293 175.203 72.5555C175.277 72.1818 175.238 71.7944 175.092 71.4426C174.945 71.0908 174.698 70.7904 174.381 70.5795C174.063 70.3686 173.69 70.2566 173.309 70.2578C172.801 70.2594 172.314 70.462 171.955 70.8213C171.596 71.1806 171.393 71.6674 171.392 72.1756Z" fill="#263238"/>
<path d="M164.723 74.1017C165.785 74.1017 166.647 73.2403 166.647 72.1778C166.647 71.1153 165.785 70.2539 164.723 70.2539C163.66 70.2539 162.799 71.1153 162.799 72.1778C162.799 73.2403 163.66 74.1017 164.723 74.1017Z" fill="#263238"/>
<path d="M154.212 72.1756C154.211 72.5566 154.323 72.9294 154.534 73.2467C154.745 73.564 155.045 73.8116 155.397 73.958C155.749 74.1043 156.136 74.143 156.51 74.0689C156.883 73.9949 157.227 73.8115 157.496 73.5421C157.766 73.2727 157.949 72.9293 158.023 72.5555C158.097 72.1818 158.058 71.7944 157.912 71.4426C157.766 71.0908 157.518 70.7904 157.201 70.5795C156.884 70.3686 156.511 70.2566 156.13 70.2578C155.622 70.2594 155.135 70.462 154.775 70.8213C154.416 71.1806 154.214 71.6674 154.212 72.1756Z" fill="#263238"/>
</svg>
