<svg width="235" height="186" viewBox="0 0 235 186" fill="none" xmlns="http://www.w3.org/2000/svg">
<path d="M7.94392 166.648H87.0537V191.163H7.94392V166.648Z" fill="#785F42"/>
<path d="M17.6859 157.306C27.4351 167.001 41.0168 173.12 52.5679 179.077C62.5054 184.187 70.9233 189.176 74.0834 196.182C76.8804 202.368 55.728 262.893 55.728 262.893L109.974 275.883C109.974 275.883 134.488 208.984 128.356 180.22C127.361 175.5 122.641 169.382 115.877 162.739C91.7933 138.951 41.9177 108.062 41.9177 108.062H11.2447C11.2447 108.062 -1.50323 138.225 17.6859 157.306Z" fill="#203577"/>
<path d="M14.6732 114.708C14.7943 113.363 14.9287 111.925 15.0766 110.54C15.0706 110.523 15.0686 110.506 15.0708 110.489C15.0729 110.471 15.0793 110.455 15.0892 110.441C15.0991 110.426 15.1123 110.415 15.1277 110.407C15.143 110.399 15.1601 110.395 15.1775 110.395C15.1948 110.395 15.2119 110.399 15.2273 110.407C15.2427 110.415 15.2559 110.426 15.2658 110.441C15.2757 110.455 15.282 110.471 15.2842 110.489C15.2864 110.506 15.2844 110.523 15.2783 110.54C14.0143 121.701 12.9654 133.951 18.2233 144.332C23.2929 154.31 33.4455 160.308 42.4282 166.278L58.8607 177.13L67.0769 182.509C69.3313 183.931 71.5125 185.466 73.6122 187.108C75.5265 188.582 77.1422 190.407 78.3725 192.487C79.6435 194.84 80.1909 197.516 79.9458 200.179C78.6011 218.144 62.6528 259.75 62.2359 261.296C62.1283 261.672 61.5098 261.484 61.6442 261.108C65.5036 249.126 74.0829 228.431 78.7491 204.387C79.5465 201.303 79.5696 198.07 78.8163 194.974C77.9695 192.533 76.4946 190.358 74.5401 188.668C72.6398 186.977 70.6023 185.448 68.4485 184.096L60.0844 178.569L43.7998 167.811C34.8978 161.935 24.8662 156.22 19.0839 146.914C13.0999 137.299 13.6781 125.614 14.6732 114.708Z" fill="#455A64"/>
<path d="M17.6866 157.308C27.4358 167.003 41.0175 173.122 52.5686 179.079C73.0083 173.7 98.8 166.976 115.878 162.713C91.794 138.925 41.9184 108.037 41.9184 108.037H11.2454C11.2454 108.037 -1.50254 138.226 17.6866 157.308Z" fill="#263238"/>
<path d="M202.302 252.206L146.59 262.238L129.203 198.229C127.683 177.09 123.824 166.83 111.426 162.971C90.2464 156.408 38.4881 180.64 15.0632 164.382C-3.96461 151.177 11.2173 108.025 11.2173 108.025H66.2297C66.2297 108.025 72.8726 116.094 74.1097 120.867C74.1097 120.867 142.26 115.61 157.482 134.947C177.935 160.859 202.302 252.206 202.302 252.206Z" fill="#203577"/>
<path d="M101.905 162.013C105.183 161.719 108.487 161.973 111.681 162.766C114.729 163.58 117.57 165.028 120.019 167.016C122.38 168.942 124.294 171.361 125.626 174.102C127.038 177.394 127.945 180.88 128.315 184.443C128.625 186.501 128.813 188.571 128.934 190.656C129.055 192.74 129.136 195.631 129.136 197.379C129.136 197.541 128.921 197.554 128.921 197.379C128.891 195.511 128.739 193.647 128.463 191.799C128.221 190.051 127.925 188.302 127.616 186.568C127.114 183.092 126.304 179.667 125.196 176.334C124.122 173.485 122.471 170.888 120.347 168.706C118.223 166.524 115.671 164.804 112.851 163.654C111.124 162.957 109.317 162.474 107.472 162.215C105.628 162.016 103.772 161.957 101.919 162.04C101.919 162.04 101.865 162.013 101.905 162.013Z" fill="#263238"/>
<path d="M23.0253 128.893C24.9373 128.463 26.789 127.799 28.5386 126.916C30.2882 126.122 31.875 125.009 33.2182 123.635C34.2359 122.303 34.9143 120.743 35.195 119.09C35.4236 118.202 35.5446 117.288 35.6925 116.4C35.8404 115.513 36.0959 114.424 36.1632 113.429C36.1632 113.308 36.3918 113.308 36.3783 113.429C35.9077 117.18 36.97 121.376 34.1595 124.576C32.735 126.037 30.9968 127.155 29.0765 127.844C27.1792 128.682 25.1489 129.178 23.0791 129.31C23.0517 129.313 23.0239 129.311 22.9973 129.304C22.9706 129.297 22.9457 129.285 22.9238 129.268C22.902 129.251 22.8836 129.23 22.8699 129.206C22.8562 129.182 22.8473 129.156 22.8437 129.128C22.8402 129.101 22.8421 129.073 22.8493 129.046C22.8565 129.02 22.8689 128.995 22.8858 128.973C22.9026 128.951 22.9236 128.933 22.9476 128.919C22.9715 128.905 22.9979 128.896 23.0253 128.893Z" fill="#263238"/>
<path d="M12.724 120.235C13.2215 118.205 13.8132 116.201 14.4721 114.224C14.4838 114.202 14.5034 114.184 14.5272 114.174C14.5509 114.164 14.5774 114.163 14.6018 114.172C14.6261 114.18 14.6468 114.196 14.66 114.218C14.6732 114.24 14.6781 114.266 14.6738 114.292C11.9762 122.527 10.7916 131.183 11.1775 139.841C11.2229 143.929 11.7785 147.994 12.8315 151.944C13.8397 155.722 16.2869 158.956 19.6493 160.953C23.1251 162.762 26.8954 163.937 30.7835 164.423C35.1417 165.108 39.5506 165.418 43.9618 165.351C52.9408 165.038 61.8964 164.239 70.7889 162.957C79.4085 161.948 88.0416 160.752 96.6882 159.972C103.775 159.34 111.319 159.259 117.881 162.406C124.12 165.404 128.168 171.119 130.831 177.345C133.829 184.378 135.524 191.949 137.554 199.291C139.961 208.045 152.346 255.769 152.602 257.827C152.602 258.029 152.306 258.015 152.292 257.827C151.849 253.335 141.091 213.855 138.67 205.047C137.451 200.636 136.236 196.23 135.026 191.828C134.058 188.305 133.103 184.782 131.893 181.339C129.58 174.764 126.205 168.161 120.221 164.248C113.833 160.052 105.873 159.743 98.4901 160.214C94.3349 160.51 90.1932 161.061 86.0515 161.558L72.3757 163.266C63.6753 164.288 54.8943 165.512 46.2075 165.781C41.8257 165.943 37.4379 165.767 33.083 165.256C29.1466 164.884 25.2789 163.979 21.5857 162.567C18.3179 161.304 15.5738 158.972 13.7997 155.951C12.1338 152.593 11.1598 148.935 10.9355 145.193C10.0698 136.833 10.6751 128.386 12.724 120.235Z" fill="#263238"/>
<path d="M84.0885 3.61976C92.6409 10.6257 96.1103 23.1854 96.1103 23.1854C96.1103 23.1854 104.837 35.2879 103.426 42.509C103.065 44.5496 102.215 46.4723 100.948 48.1119C99.6807 49.7515 98.0345 51.059 96.1506 51.922L96.5271 47.982C96.5271 47.982 94.4966 53.1861 86.3073 56.0503C78.1179 58.9146 66.7819 57.395 60.7576 54.988C57.1698 53.6045 54.0011 51.316 51.5597 48.3451L54.2492 53.724C51.4895 53.6881 48.7819 52.9678 46.3692 51.6277C43.9566 50.2876 41.9142 48.3695 40.4255 46.0456C34.7508 37.8563 47.4314 24.0729 48.3459 21.2894C49.2603 18.5058 48.8703 -1.18088 69.7403 0.204183C69.7403 0.177288 78.1986 -1.20778 84.0885 3.61976Z" fill="#263238"/>
<path d="M99.0286 51.1157C101.252 49.5952 102.952 47.4256 103.896 44.903C104.953 42.4351 105.152 39.6844 104.461 37.0902C103.402 34.0681 101.812 31.2586 99.7682 28.7933C97.8183 26.1039 95.734 23.6296 93.7707 20.9536C93.6766 20.8057 93.8917 20.6578 94.0127 20.7654C96.0518 22.7259 97.9736 24.8049 99.7682 26.9914C101.574 28.976 103.149 31.1595 104.461 33.4998C105.674 35.6615 106.244 38.1252 106.102 40.6C105.889 42.6205 105.187 44.5589 104.058 46.2478C102.65 48.1327 101 49.8238 99.1496 51.277C99.0285 51.3711 98.9479 51.1963 99.0286 51.1157Z" fill="#263238"/>
<path d="M37.8308 37.278C39.5924 29.8552 45.6167 24.6646 48.9516 18.0217C50.7535 14.4178 52.031 10.5047 54.5188 7.26392C54.5188 7.18324 54.7339 7.26392 54.6667 7.38494C52.6496 10.2626 51.6411 13.5706 50.2963 16.798C48.841 19.9876 47.0707 23.0238 45.0116 25.8614C41.4078 31.1327 37.0912 37.3856 38.678 44.1226C39.4176 47.2289 41.6229 50.5504 44.9444 51.2228C44.9567 51.2228 44.969 51.2252 44.9804 51.2299C44.9918 51.2347 45.0022 51.2416 45.0109 51.2503C45.0197 51.2591 45.0266 51.2694 45.0313 51.2809C45.0361 51.2923 45.0385 51.3045 45.0385 51.3169C45.0385 51.3293 45.0361 51.3415 45.0313 51.3529C45.0266 51.3643 45.0197 51.3747 45.0109 51.3835C45.0022 51.3922 44.9918 51.3991 44.9804 51.4039C44.969 51.4086 44.9567 51.411 44.9444 51.411C43.6199 51.0249 42.3882 50.3726 41.3246 49.4939C40.261 48.6153 39.3878 47.5289 38.7586 46.3011C37.3681 43.5047 37.0385 40.2989 37.8308 37.278Z" fill="#263238"/>
<path d="M37.7222 39.242C37.2389 36.5407 37.6004 33.7561 38.7576 31.2678C40.0969 28.8929 41.9313 26.8337 44.1365 25.2301C46.5301 23.2802 49.085 21.3976 50.4567 18.5065C50.4567 18.3989 50.6852 18.5065 50.6315 18.614C48.4799 23.334 43.76 25.889 40.7881 29.9769C37.3994 34.6297 38.0046 40.896 41.0974 45.5622C43.0522 48.3894 45.6459 50.716 48.6682 52.353C48.6682 52.353 48.6682 52.4606 48.6682 52.4337C43.4372 49.7308 38.6904 45.2529 37.7222 39.242Z" fill="#263238"/>
<path d="M52.3526 54.9346C56.9381 73.5858 69.054 97.3739 78.857 97.2529C87.8128 97.1049 108.078 87.3961 116.509 82.192C124.94 76.988 106.666 56.1179 101.717 59.1032C94.9936 63.1374 83.4559 71.8512 81.5464 71.2057C79.1932 70.4526 76.8668 66.7143 63.4869 49.6902C57.9466 42.7918 50.3893 46.9873 52.3526 54.9346Z" fill="#EB9481"/>
<path d="M110.769 51.3701C114.803 50.1867 119.294 48.5193 123.678 48.8286C128.062 49.1379 131.383 55.1353 131.289 56.7893C131.195 58.4433 128.99 68.6901 124.565 68.448C120.141 68.206 123.221 60.3797 123.127 59.5057C123.032 58.6316 122.911 57.4079 122.078 57.4482C121.244 57.4886 106.412 63.5801 106.412 63.5801L110.769 51.3701Z" fill="#EB9481"/>
<path d="M111.01 51.991C111.266 51.991 123.247 47.9569 127.631 48.3334C132.015 48.7099 135.336 54.6267 135.242 56.2807C135.148 57.9347 132.943 68.1814 128.519 67.9528C124.094 67.7242 127.174 59.8845 127.08 58.997C126.986 58.1095 126.865 56.9127 126.031 56.9531C125.197 56.9934 110.365 63.0715 110.365 63.0715L111.01 51.991Z" fill="#EB9481"/>
<path d="M127.105 67.3071C126.684 66.4991 126.48 65.5955 126.514 64.6849C126.476 63.7423 126.58 62.7994 126.823 61.8879C127.11 61.1147 127.33 60.3184 127.482 59.5077C127.524 58.6991 127.358 57.8932 126.998 57.1679C126.702 56.5359 126.043 56.7107 125.478 56.8721C124.642 57.1365 123.825 57.4554 123.031 57.8268C122.17 58.1899 121.323 58.5799 120.476 58.9698C119.553 59.3267 118.654 59.7445 117.786 60.2204C117.786 60.2204 117.786 60.3683 117.786 60.3549C118.563 60.0989 119.326 59.8026 120.072 59.4674C120.92 59.1178 121.78 58.7816 122.641 58.4588C123.501 58.1361 124.228 57.7999 125.034 57.5041C125.317 57.3965 125.895 57.1276 126.204 57.2217C126.514 57.3158 126.661 58.1496 126.715 58.4185C126.856 59.2124 126.762 60.03 126.446 60.7718C126.17 61.5435 125.972 62.3408 125.855 63.1519C125.72 63.9125 125.72 64.6908 125.855 65.4514C126.092 66.1315 126.407 66.7814 126.796 67.3878C127.011 67.4819 127.159 67.3878 127.105 67.3071Z" fill="#263238"/>
<path d="M96.4865 62.7475C96.4865 62.7475 109.234 52.3394 111.884 50.2686C117.182 46.1403 139.02 38.5561 142.005 38.3947C144.99 38.2333 145.757 44.4056 130.911 49.9727C123.098 52.9042 121.498 57.2073 121.498 59.6413C121.498 62.0752 123.583 66.7145 127.671 66.822C131.758 66.9296 134.717 61.1204 138.509 60.6632C142.301 60.206 139.45 66.9296 136.586 70.7621C133.61 74.4516 129.646 77.2175 125.156 78.7363C121.552 79.8658 110.364 83.9941 110.364 83.9941L96.4865 62.7475Z" fill="#EB9481"/>
<path d="M132.902 64.2265C131.302 65.3292 129.473 66.7814 127.523 66.7411C126.578 66.6755 125.672 66.337 124.915 65.7665C124.158 65.196 123.583 64.4181 123.26 63.5272C122.282 61.7956 122.008 59.7541 122.494 57.8256C123.063 56.091 124.118 54.5558 125.533 53.4015C127.272 52.009 129.201 50.8724 131.261 50.0262C131.355 50.0262 131.261 49.8514 131.181 49.8918C129.258 50.6314 123.301 52.7023 121.848 57.7987C121.372 59.7705 121.67 61.8497 122.682 63.6079C123.004 64.4925 123.541 65.2829 124.246 65.9075C124.95 66.532 125.799 66.9711 126.716 67.1848C129.11 67.5076 131.288 65.6519 133.104 64.2937C133.104 64.2265 132.982 64.1727 132.902 64.2265Z" fill="#263238"/>
<path d="M51.3581 58.8086C52.6723 66.3124 55.0068 73.6011 58.2969 80.472C58.9827 81.8167 59.413 82.5429 59.413 82.5429L76.975 68.6923L79.3955 66.7828C79.3955 66.7828 79.0728 66.2852 78.0508 64.9271C76.5178 63.0041 73.4519 59.3734 67.6158 53.0532C65.0942 50.1037 62.1104 47.5832 58.781 45.59C51.896 41.9727 49.2738 47.4995 51.3581 58.8086Z" fill="#EBEBEB"/>
<path d="M56.4005 81.9774L60.4346 88.4052L80.1213 72.6317L84.5186 69.1354C84.021 68.6647 79.2472 63.9717 79.2472 63.9717L77.9967 64.9668L75.5224 66.9166L58.2965 80.5117L56.4005 81.9774Z" fill="#EBEBEB"/>
<path d="M51.3576 58.8086C52.6717 66.3124 55.0063 73.6011 58.2963 80.472L56.4003 81.9781L60.4344 88.4058L80.1211 72.6323L76.9745 68.6923L75.5222 66.8769C69.0406 58.7145 62.586 50.5655 58.7266 45.59C51.8955 41.9727 49.2733 47.4995 51.3576 58.8086Z" fill="#263238"/>
<path d="M75.4148 121.364C75.4148 121.364 51.2771 125.089 6.7266 117.626C6.7266 117.626 28.7396 63.0301 44.0694 49.045C51.0485 42.698 57.2477 44.2444 62.2231 49.045C63.4603 50.2553 78.2656 72.4835 79.0859 79.8794C79.7986 86.4148 73.9894 93.1518 73.9894 93.1518L75.4148 121.364Z" fill="#FF511A"/>
<path d="M51.9629 46.9198C51.9629 48.157 55.4726 57.2607 60.8918 58.4441C62.6534 58.8206 65.168 49.2865 65.168 49.2865L65.5176 48.6276L70.3721 39.3625L60.7842 28.8199L59.4395 27.3945C59.4395 27.3945 58.2696 30.0167 56.8576 33.2978L56.6559 33.755C56.5753 33.9433 56.4946 34.1181 56.4273 34.2929C56.2122 34.777 55.9836 35.2746 55.7819 35.7721C55.5802 36.2697 55.4591 36.5252 55.3112 36.9286C55.1633 37.332 54.9885 37.7354 54.8271 38.1388C53.6704 40.996 52.7134 43.9301 51.9629 46.9198Z" fill="#EB9481"/>
<path d="M56.8449 33.2978C57.103 36.331 58.0156 39.2722 59.52 41.9187C61.0243 44.5652 63.0845 46.8541 65.5587 48.6276L70.4131 39.3625L60.8252 28.8199L59.4805 27.3945C59.4805 27.3945 58.2568 30.0167 56.8449 33.2978Z" fill="#263238"/>
<path d="M88.3647 27.0315C86.3072 45.2794 75.1461 46.0996 71.2195 45.6559C67.6425 45.239 55.5401 43.4102 55.7149 25.0548C55.8897 6.69938 65.0069 1.88527 73.1962 2.39627C81.3855 2.90726 90.4221 8.79714 88.3647 27.0315Z" fill="#EB9481"/>
<path d="M86.145 23.6023C85.7282 23.4947 85.3651 23.3199 84.9482 23.172C84.5056 23.0843 84.1067 22.8469 83.8187 22.4996C83.7457 22.3766 83.7166 22.2325 83.7362 22.0908C83.7557 21.9492 83.8227 21.8183 83.9262 21.7197C84.1566 21.5462 84.4302 21.4395 84.7172 21.411C85.0041 21.3825 85.2934 21.4335 85.5533 21.5583C86.1148 21.7242 86.5942 22.0933 86.8981 22.5937C86.9585 22.7103 86.9849 22.8416 86.9742 22.9725C86.9636 23.1035 86.9162 23.2287 86.8376 23.334C86.759 23.4393 86.6524 23.5202 86.5299 23.5677C86.4074 23.6151 86.274 23.6271 86.145 23.6023Z" fill="#263238"/>
<path d="M73.6799 21.3167C74.1028 21.3121 74.525 21.2807 74.9439 21.2226C75.3946 21.2491 75.8421 21.1314 76.2214 20.8864C76.3201 20.7821 76.3837 20.6494 76.403 20.5071C76.4223 20.3647 76.3964 20.2199 76.3289 20.093C76.1471 19.8694 75.91 19.6972 75.6411 19.5934C75.3722 19.4896 75.0809 19.4579 74.796 19.5014C74.2032 19.509 73.6338 19.7338 73.1958 20.1334C73.102 20.231 73.0386 20.3538 73.0132 20.4868C72.9878 20.6197 73.0016 20.7572 73.0529 20.8825C73.1041 21.0078 73.1907 21.1156 73.302 21.1926C73.4133 21.2697 73.5445 21.3128 73.6799 21.3167Z" fill="#263238"/>
<path d="M75.9665 26.7217C75.9665 26.7217 75.8589 26.7217 75.8589 26.8292C75.7514 28.0664 75.4286 29.5187 74.2587 29.7742V29.8414C75.6572 29.8011 76.0607 27.9185 75.9665 26.7217Z" fill="#263238"/>
<path d="M74.9982 25.3102C73.0215 24.9337 72.4163 28.9141 74.2452 29.2637C76.074 29.6133 76.6522 25.6195 74.9982 25.3102Z" fill="#263238"/>
<path d="M74.178 25.39C73.8014 25.5649 73.398 25.9145 72.9677 25.8876C72.5374 25.8607 72.1743 25.39 71.9188 24.9463C71.9188 24.9463 71.8516 24.9463 71.8381 24.9463C71.7253 25.3019 71.7496 25.6868 71.9064 26.0253C72.0632 26.3638 72.3411 26.6313 72.6853 26.7751C73.4249 26.9903 74.03 26.3851 74.3662 25.6455C74.42 25.5514 74.3393 25.3228 74.178 25.39Z" fill="#263238"/>
<path d="M82.8919 27.4492C82.8919 27.4492 82.986 27.5299 82.9725 27.5702C82.7305 28.8074 82.6767 30.2597 83.7256 30.8379C83.7256 30.8379 83.7256 30.9186 83.7256 30.9052C82.3405 30.5555 82.4481 28.6326 82.8919 27.4492Z" fill="#263238"/>
<path d="M84.169 26.3832C86.1861 26.558 85.702 30.5653 83.8463 30.4173C81.9906 30.2694 82.4882 26.2487 84.169 26.3832Z" fill="#263238"/>
<path d="M84.975 26.7461C85.2709 27.0016 85.5398 27.4185 85.9163 27.4991C86.2929 27.5798 86.7232 27.1764 87.0459 26.7999C86.9652 27.5664 86.629 28.3329 85.876 28.3867C85.123 28.4405 84.7733 27.7278 84.6792 26.9478C84.733 26.8537 84.8675 26.652 84.975 26.7461Z" fill="#263238"/>
<path d="M74.2866 36.8623C74.5152 37.2119 74.7304 37.6557 75.1741 37.7902C75.6172 37.8866 76.0758 37.8866 76.5188 37.7902C76.5188 37.7902 76.5995 37.7902 76.5188 37.8708C76.2967 38.0761 76.0229 38.217 75.7268 38.2786C75.4308 38.3402 75.1235 38.3201 74.8379 38.2205C74.5897 38.1005 74.3844 37.9072 74.2497 37.6667C74.115 37.4262 74.0574 37.15 74.0849 36.8757C74.0849 36.8757 74.2463 36.8623 74.2866 36.8623Z" fill="#263238"/>
<path d="M80.0814 33.0971C80.0814 33.0971 80.0814 34.9797 79.9603 35.8538C79.9603 35.9345 79.7317 35.948 79.4359 35.9211C78.6697 35.9567 77.9087 35.7795 77.237 35.4093C76.5653 35.039 76.0093 34.4901 75.6303 33.8233C75.6303 33.7292 75.6976 33.6485 75.7783 33.7157C76.7814 34.6332 78.0558 35.1996 79.409 35.3294C79.5031 35.1008 79.3014 32.1021 79.409 32.1155C80.0758 32.2623 80.7186 32.5022 81.3185 32.8282C81.4395 28.9151 80.9285 25.0019 81.1033 21.0888C81.1033 21.0567 81.1161 21.0259 81.1388 21.0032C81.1615 20.9805 81.1923 20.9678 81.2244 20.9678C81.2565 20.9678 81.2872 20.9805 81.3099 21.0032C81.3326 21.0259 81.3454 21.0567 81.3454 21.0888C82.0156 25.2668 82.2724 29.5008 82.1119 33.7292C82.1119 34.1729 80.4041 33.2854 80.0814 33.0971Z" fill="#263238"/>
<path d="M79.3682 35.5157C78.7856 36.1742 78.0452 36.674 77.2166 36.968C76.7783 37.1012 76.3102 37.1012 75.8719 36.968C74.8768 36.6453 74.9171 35.7174 75.1457 34.9375C75.2815 34.529 75.4619 34.1366 75.6836 33.7676C76.695 34.7268 77.9855 35.3391 79.3682 35.5157Z" fill="#263238"/>
<path d="M77.2168 36.928C76.7784 37.0612 76.3104 37.0612 75.8721 36.928C74.877 36.6053 74.9173 35.6774 75.1459 34.8975C75.6683 34.956 76.156 35.1878 76.5313 35.5558C76.9067 35.9238 77.148 36.4069 77.2168 36.928Z" fill="#FF9CBD"/>
<path d="M56.8984 26.6161C58.9021 26.6161 64.4961 21.5734 65.3971 11.9721C65.3971 11.9721 64.0523 20.5379 63.2455 21.7482C62.4387 22.9584 66.3787 18.8974 67.2797 11.1653C69.5865 13.0997 72.1587 14.6937 74.9177 15.8987C78.4946 17.2434 80.7403 17.3375 81.0227 17.0955C81.3051 16.8534 76.0472 14.7422 74.7159 12.9537C74.7159 12.9537 84.129 18.225 88.5666 18.9108C89.091 18.9108 90.5164 8.35478 83.9273 3.29864C77.3382 -1.7575 65.9753 2.29012 62.8017 4.91232C62.8017 4.91232 59.292 5.14091 55.1369 9.98189C50.9817 14.8229 54.7469 26.5757 56.8984 26.6161Z" fill="#263238"/>
<path d="M54.2885 31.2406C54.5343 31.3972 54.7957 31.5279 55.0685 31.6305C55.3408 31.7323 55.6259 31.7957 55.9157 31.8188C56.2876 31.858 56.6637 31.8167 57.0183 31.6978C57.2989 31.6034 57.5657 31.4723 57.8117 31.3078C58.1555 31.0695 58.4557 30.7739 58.6992 30.4337V25.4314C58.6992 25.4314 55.9022 19.0171 53.0783 19.9046C50.2544 20.7921 51.5184 29.5328 54.2885 31.2406Z" fill="#EB9481"/>
<path d="M53.4824 22.3926C53.4824 22.3926 53.4824 22.3926 53.4824 22.4733C54.3515 23.1457 55.069 23.9938 55.588 24.9624C56.1071 25.931 56.416 26.9981 56.4945 28.0942C56.416 27.8588 56.2872 27.6433 56.1169 27.4628C55.9467 27.2823 55.7391 27.1411 55.5087 27.0489C55.2783 26.9568 55.0307 26.9159 54.7829 26.9292C54.5351 26.9425 54.2932 27.0097 54.074 27.126V27.247C54.4668 27.2036 54.8635 27.2823 55.21 27.4724C55.5564 27.6625 55.8359 27.9547 56.0104 28.3093C56.2913 28.9077 56.5076 29.5343 56.6559 30.1785C56.7231 30.3936 57.0727 30.3533 57.0459 30.1785C57.6241 27.4487 56.2928 23.2532 53.4824 22.3926Z" fill="#263238"/>
<path d="M54.652 38.8225C54.7341 38.9958 54.8561 39.1471 55.008 39.264C55.16 39.3809 55.3376 39.46 55.5261 39.4949C56.2254 39.6024 57.5566 38.957 58.0676 35.8103C58.3033 34.3061 58.2069 32.7685 57.7852 31.3055C57.6642 30.9424 57.5701 30.7138 57.5701 30.6869C57.5204 30.5831 57.4324 30.5026 57.3245 30.4624C57.2166 30.4223 57.0973 30.4256 56.9919 30.4718C56.889 30.5188 56.8087 30.6043 56.7684 30.71C56.7282 30.8157 56.7311 30.933 56.7767 31.0366C56.862 31.2515 56.9339 31.4716 56.9919 31.6955C57.3513 33.0093 57.4247 34.385 57.207 35.7296C56.8036 38.298 55.8623 38.7284 55.6606 38.688C55.4589 38.6477 55.4858 38.5939 55.4051 38.4594C54.7731 37.303 55.1361 33.7394 55.8892 31.8703C55.5994 31.8471 55.3143 31.7838 55.042 31.682C54.3428 33.5512 53.8721 37.3567 54.652 38.8225Z" fill="#EBEBEB"/>
<path d="M45.8851 61.4698C51.9632 79.7849 79.7989 113.793 90.5835 115.527C103.089 117.531 134.959 101.152 142.18 94.012C145.045 91.1477 125.936 72.6713 122.144 74.7691C106.263 83.5366 92.9502 87.1002 90.5566 85.9571C86.8855 84.209 70.6144 68.3817 59.9374 57.718C46.5171 44.1633 43.1418 53.2536 45.8851 61.4698Z" fill="#EB9481"/>
<path d="M141.401 94.5757C143.042 93.6882 153.692 83.159 156.596 78.5332C159.764 73.7183 162.121 68.4172 163.576 62.8404C165.862 54.019 166.601 47.7123 165.324 45.1304C163.844 42.1182 163.481 41.661 157.255 56.6681C153.759 65.1533 149.429 66.7131 145.543 67.2376C136.059 68.5249 126.986 71.9305 118.998 77.202C118.998 77.202 135.081 97.9913 141.401 94.5757Z" fill="#EB9481"/>
<path d="M150.317 33.4561L135.686 60.5522C135.256 61.359 135.579 62.0986 136.412 62.2196L151.204 64.3981C151.662 64.4303 152.119 64.3325 152.524 64.116C152.928 63.8995 153.263 63.5731 153.49 63.1744L168.134 36.0649C168.248 35.9189 168.321 35.745 168.345 35.5613C168.369 35.3777 168.343 35.191 168.27 35.0207C168.197 34.8504 168.08 34.7028 167.931 34.5931C167.782 34.4835 167.606 34.4159 167.422 34.3974L152.63 32.219C152.166 32.1811 151.701 32.2777 151.291 32.4971C150.881 32.7165 150.543 33.0494 150.317 33.4561Z" fill="#263238"/>
<path d="M148.985 33.3258L134.355 60.4353C134.24 60.5822 134.168 60.7572 134.144 60.9418C134.121 61.1265 134.148 61.3141 134.222 61.4847C134.297 61.6554 134.416 61.8029 134.567 61.9116C134.718 62.0204 134.895 62.0864 135.081 62.1028L149.873 64.2678C150.331 64.3066 150.791 64.2117 151.197 63.9945C151.603 63.7773 151.937 63.4472 152.159 63.0441L166.803 35.9345C166.918 35.7899 166.991 35.6167 167.015 35.4336C167.04 35.2504 167.014 35.064 166.941 34.8944C166.868 34.7247 166.75 34.5779 166.6 34.4699C166.45 34.3618 166.274 34.2963 166.09 34.2805L151.298 32.1021C150.836 32.0613 150.371 32.1551 149.961 32.3722C149.55 32.5893 149.212 32.9205 148.985 33.3258Z" fill="#FF511A"/>
<path d="M149.185 34.8186L135.738 59.6824C135.321 60.4355 135.59 61.1347 136.33 61.2423L149.589 63.1922C150.011 63.2132 150.431 63.1145 150.799 62.9075C151.168 62.7006 151.471 62.3937 151.673 62.0223L165.12 37.1584C165.954 35.612 165.537 35.1817 164.797 35.0741L162.108 34.6841C161.96 34.6841 161.745 34.8052 161.637 35.0203V35.101C161.382 35.5851 161.1 35.5447 160.75 35.491L154.618 34.59C154.268 34.59 153.999 34.4959 154.255 34.0252V33.9311C154.362 33.7294 154.322 33.5411 154.174 33.5142L151.485 33.1243C150.812 33.0167 149.952 33.4066 149.185 34.8186Z" fill="white"/>
<path d="M157.16 34.3189L158.841 34.5609C158.871 34.5641 158.901 34.5581 158.928 34.5437C158.954 34.5293 158.976 34.5072 158.989 34.4802V34.3727L157.322 34.1172C157.289 34.1187 157.258 34.128 157.23 34.1444C157.201 34.1608 157.178 34.1838 157.16 34.2113C157.152 34.2176 157.145 34.2257 157.141 34.235C157.136 34.2444 157.134 34.2547 157.134 34.2651C157.134 34.2755 157.136 34.2858 157.141 34.2952C157.145 34.3045 157.152 34.3126 157.16 34.3189Z" fill="white"/>
<path d="M143.632 49.8121L154.887 51.4661L160.643 40.8024L149.387 39.1484L143.632 49.8121Z" fill="#FFC727"/>
<path d="M147.372 52.2453L153.948 53.2135L154.284 52.5815L147.709 51.6133L147.372 52.2453Z" fill="#A6A6A6"/>
<path d="M145.609 53.0906L153.395 54.2335L153.557 53.9243L145.784 52.7812L145.609 53.0906Z" fill="#A6A6A6"/>
<path d="M145.3 53.6726L153.086 54.8156L153.247 54.5063L145.461 53.3633L145.3 53.6726Z" fill="#A6A6A6"/>
<path d="M144.991 54.2485L152.777 55.3915L152.938 55.0688L145.166 53.9258L144.991 54.2485Z" fill="#A6A6A6"/>
<path d="M160.994 37.3463L162.392 37.5615L162.54 37.2925L161.128 37.0908L160.994 37.3463Z" fill="#A6A6A6"/>
<path d="M160.738 37.8305L162.136 38.0322L162.284 37.7767L160.872 37.5615L160.738 37.8305Z" fill="#A6A6A6"/>
<path d="M160.483 38.2994L161.881 38.5011L162.029 38.2456L160.617 38.0439L160.483 38.2994Z" fill="#A6A6A6"/>
<path d="M142.907 51.3949C142.937 51.537 143.007 51.6676 143.109 51.7714C143.302 51.7121 143.483 51.6212 143.647 51.5025C143.983 51.2873 144.144 50.9377 143.862 50.8974C143.579 50.857 143.432 51.1529 143.432 51.1529C143.432 51.1529 143.553 50.857 143.337 50.8167C143.122 50.7763 142.84 51.126 142.907 51.3949Z" fill="#FF511A"/>
<path d="M139.8 59.0751L148.89 60.4064L150.208 57.9455L141.131 56.6143L139.8 59.0751Z" fill="#FFC727"/>
<path d="M147.56 66.874C143.526 67.5463 155.333 57.4609 154.835 52.8486C154.338 48.2362 150.115 50.3743 147.009 53.4806C136.251 64.2383 127 65.2469 122.145 74.7271C117.291 84.2074 147.56 66.874 147.56 66.874Z" fill="#EB9481"/>
<path d="M83.5105 80.415C84.6804 81.2756 85.81 82.1765 86.9395 83.1044C87.9577 83.993 89.0561 84.7853 90.2206 85.4711C91.6228 86.0458 93.1798 86.1218 94.6313 85.6862C95.9431 85.4165 97.2402 85.0799 98.5176 84.6777C103.753 83.0253 108.867 81.0078 113.82 78.6399C116.634 77.4526 119.377 76.1057 122.037 74.6058L121.741 74.9688C122.362 73.6698 123.124 72.4432 124.013 71.3112C125.045 69.9995 126.213 68.8005 127.496 67.7342C128.866 66.606 130.308 65.5684 131.813 64.6279C132.593 64.1304 133.386 63.6463 134.179 63.1757L135.336 62.4092C135.826 62.1932 136.279 61.9029 136.681 61.5485C136.587 61.683 136.398 61.5485 136.519 61.4141C136.519 61.4141 136.613 61.4141 136.654 61.4141C136.664 61.4278 136.669 61.4442 136.669 61.4611C136.669 61.478 136.664 61.4945 136.654 61.5082C136.533 61.7368 136.25 61.8444 136.049 61.9923L134.946 62.826L132.875 64.3456C131.329 65.4617 129.769 66.6047 128.29 67.8284C127.025 68.8693 125.834 69.9971 124.726 71.2036C124.161 71.8088 123.65 72.4676 123.112 73.1131C122.612 73.7395 122.162 74.405 121.768 75.1033C121.768 75.1705 116.913 77.7927 114.399 79.1375C111.884 80.4822 109.302 81.6117 106.667 82.6741C104.031 83.7364 101.368 84.7046 98.5982 85.5518C97.2236 85.9941 95.8222 86.3489 94.4027 86.6141C93.1383 86.9839 91.7944 86.9839 90.5299 86.6141C89.2747 85.8885 88.1329 84.9824 87.1412 83.9247C85.7965 82.7816 84.4518 81.6386 83.1071 80.4418C83.3626 80.4687 83.4433 80.3746 83.5105 80.415Z" fill="#263238"/>
<path d="M83.7393 79.7041L65.1956 97.1182C65.1956 97.1182 49.3817 77.6601 45.1996 62.6262C41.0175 47.5922 48.79 45.5348 62.5868 59.2106C76.0878 72.5771 83.7393 79.7041 83.7393 79.7041Z" fill="#FF511A"/>
<path d="M69.2686 65.6656C71.6757 67.7768 73.9751 70.0359 76.2612 72.2682C77.3773 73.3574 78.4799 74.4466 79.5557 75.5627C80.134 76.1544 80.7122 76.7326 81.277 77.3243C81.874 78.0091 82.531 78.6392 83.2402 79.2069C83.3613 79.301 83.2403 79.4893 83.1058 79.3683C82.0135 78.1979 80.8358 77.1102 79.5826 76.1141C78.3589 75.0114 77.1487 73.8818 75.9653 72.7388C73.6524 70.4797 71.326 68.1802 69.2417 65.7463C69.1342 65.6925 69.2148 65.6253 69.2686 65.6656Z" fill="#263238"/>
<path d="M50.0398 76.4908C50.6501 77.2307 51.3251 77.9147 52.0569 78.5347L52.8906 79.2878C51.64 77.2169 50.4432 75.1192 49.354 72.9811C49.354 72.9811 49.354 72.9138 49.354 72.9811C52.1107 77.0152 54.6387 81.2511 57.4223 85.3121C60.2059 89.3732 62.8012 93.757 65.7192 97.7642C65.7338 97.7736 65.7459 97.7864 65.7545 97.8015C65.7631 97.8166 65.7679 97.8335 65.7685 97.8508C65.7691 97.8682 65.7655 97.8854 65.758 97.9011C65.7506 97.9167 65.7394 97.9303 65.7255 97.9408C65.7117 97.9512 65.6955 97.9581 65.6783 97.9609C65.6612 97.9637 65.6437 97.9623 65.6272 97.9568C65.6107 97.9514 65.5958 97.942 65.5837 97.9295C65.5717 97.9171 65.5628 97.9019 65.5578 97.8853C62.6801 93.8511 59.5738 89.9649 56.8978 85.7828C55.8355 84.1019 54.7598 82.421 53.7109 80.7132C53.3845 80.4648 53.0787 80.1905 52.7965 79.8929C52.44 79.5634 52.1032 79.2131 51.7879 78.844C51.1693 78.1045 50.5239 77.3783 49.865 76.6656C49.7977 76.5446 49.9591 76.3967 50.0398 76.4908Z" fill="#263238"/>
<path d="M89.0498 81.5739L83.3482 76.8809L62.142 96.8096L66.7544 102.874L89.0498 81.5739Z" fill="#FF511A"/>
<path d="M64.7232 94.1857C67.3454 91.4963 70.1827 89.0085 72.926 86.4536C75.6692 83.8986 78.6141 81.5184 81.2767 78.8693C81.2973 78.8567 81.3215 78.8514 81.3455 78.8543C81.3695 78.8571 81.3918 78.8679 81.4089 78.885C81.426 78.9021 81.4368 78.9244 81.4397 78.9484C81.4425 78.9724 81.4372 78.9967 81.4246 79.0173C78.7352 81.626 76.2071 84.3961 73.437 86.9914C70.7109 89.5899 67.8518 92.0451 64.8711 94.347C64.7635 94.4277 64.6156 94.2933 64.7232 94.1857Z" fill="#263238"/>
<path d="M70.4404 99.3653C69.0957 100.401 67.751 101.517 66.5676 102.646H67.0248C65.5187 100.589 63.9589 98.6122 62.2914 96.6624V96.9044C62.789 96.3666 63.2865 95.8287 63.7572 95.2773C63.1789 95.7077 62.6007 96.1783 62.0359 96.6221L61.9284 96.7296L62.0225 96.8641C63.4479 98.9888 64.9674 101.019 66.5676 102.996L66.7828 103.278L67.0114 103.036C68.1813 101.88 69.3378 100.656 70.4404 99.3653Z" fill="#263238"/>
<path d="M51.9629 51.1289C53.2078 51.6446 54.3789 52.3228 55.4458 53.146C56.571 53.9341 57.6529 54.7825 58.6865 55.6875C60.7036 57.4894 62.6131 59.3855 64.5898 61.2277C63.7292 60.1789 62.8014 59.1838 61.9004 58.2156C60.9994 57.2474 59.9237 56.3599 58.8748 55.5261C57.8259 54.6924 56.7636 53.8318 55.6475 53.0653C54.5371 52.2816 53.3304 51.6444 52.0571 51.1692L51.9629 51.1289Z" fill="#263238"/>
</svg>
