<svg width="444" height="260" viewBox="0 0 444 260" fill="none" xmlns="http://www.w3.org/2000/svg">
<path d="M417.023 107.335C405.205 123.348 392.879 141.93 389.876 162.018C389.876 162.323 390.328 162.424 390.393 162.119C391.758 156.647 393.506 151.278 395.623 146.051C403.394 143.907 411.026 142.152 415.101 134.436C419.269 126.508 418.742 116.168 417.947 107.529C417.892 107.048 417.263 107.03 417.023 107.335Z" fill="#3ACC6C"/>
<path d="M395.743 145.875C401.047 133.965 407.866 121.999 416.533 112.195C416.589 112.13 416.681 112.195 416.626 112.287C410.952 119.273 406.647 126.868 402.433 134.602C406.351 130.629 410.638 127.072 414.343 122.858C414.417 122.775 414.538 122.858 414.464 122.978C410.768 127.395 406.767 132.218 401.971 135.462C400.677 137.836 399.384 140.22 398.072 142.595C398.386 142.42 398.718 142.262 399.051 142.096C399.116 142.096 399.162 142.152 399.107 142.179C398.737 142.364 398.377 142.558 397.998 142.724C397.379 143.852 396.76 144.979 396.15 146.097C395.974 146.31 395.632 146.134 395.743 145.875Z" fill="#263238"/>
<path d="M399.689 141.689C402.869 139.916 405.903 137.892 408.762 135.637C408.846 135.572 408.957 135.637 408.873 135.748C406.099 138.142 403.061 140.213 399.818 141.92C399.787 141.938 399.751 141.942 399.717 141.932C399.684 141.923 399.655 141.9 399.638 141.87C399.621 141.839 399.616 141.803 399.626 141.769C399.635 141.735 399.658 141.706 399.689 141.689Z" fill="#263238"/>
<path d="M388.508 159.014C388.518 159.064 388.546 159.109 388.585 159.141C388.625 159.174 388.674 159.191 388.725 159.191C388.776 159.191 388.826 159.174 388.865 159.141C388.905 159.109 388.932 159.064 388.942 159.014C388.998 152.408 388.942 145.764 389.044 139.12C390.735 135.701 394.376 133.807 396.898 131.072C398.72 129.072 400.304 126.867 401.62 124.502C404.662 118.856 406.523 112.651 407.09 106.262C407.783 99.1937 405.103 75.8532 402.119 76.694C400.576 77.1098 395.567 88.7062 394.246 92.4946C392.092 98.8064 390.518 105.301 389.543 111.899C387.104 127.385 387.325 143.362 388.508 159.014Z" fill="#3ACC6C"/>
<path d="M388.462 130.5C388.822 122.128 390.707 113.683 392.472 105.551C394.375 96.81 396.593 88.5771 401.093 80.7784C401.112 80.7533 401.14 80.7361 401.171 80.73C401.202 80.7239 401.234 80.7293 401.261 80.7452C401.288 80.7611 401.309 80.7863 401.319 80.8163C401.328 80.8462 401.327 80.8788 401.315 80.9078C398.315 86.9726 395.994 93.3499 394.394 99.9239C394.69 99.4527 395.059 98.9999 395.373 98.5564C395.493 98.3809 395.789 98.5564 395.66 98.732C395.261 99.4405 394.79 100.106 394.255 100.719C394.255 100.719 394.255 100.719 394.2 100.719C392.647 106.965 391.539 113.35 390.587 119.726C390.661 119.652 390.726 119.559 390.799 119.485C390.873 119.411 390.929 119.485 390.901 119.559C390.781 119.772 390.642 119.975 390.522 120.188C390.042 123.422 389.598 126.656 389.145 129.853C394.911 124.928 399.827 119.125 402.608 111.973C402.608 111.973 402.673 111.973 402.655 111.973C399.938 119.365 395.65 125.981 389.053 130.453L388.693 133.041C388.693 133.216 388.379 133.17 388.388 133.041C388.388 132.274 388.388 131.507 388.452 130.749C388.437 130.732 388.424 130.712 388.416 130.69C388.408 130.669 388.404 130.646 388.405 130.622C388.406 130.599 388.411 130.576 388.421 130.555C388.431 130.534 388.445 130.515 388.462 130.5Z" fill="#263238"/>
<path d="M391.169 118.377C395.577 111.807 399.688 105.44 402.913 98.1592C402.913 98.076 403.089 98.1592 403.052 98.2146C400.335 105.431 396.584 112.749 391.391 118.543C391.289 118.663 391.086 118.506 391.169 118.377Z" fill="#263238"/>
<path d="M397.027 96.5326C398.875 93.3078 400.723 90.1661 402.488 86.8766C402.534 86.7842 402.664 86.8766 402.627 86.9506C401.208 90.3888 399.41 93.6584 397.268 96.6989C397.184 96.8652 396.916 96.7174 397.027 96.5326Z" fill="#263238"/>
<path d="M384.036 139.896C383.941 144.279 383.421 148.643 382.483 152.925C382.557 153.396 382.622 153.849 382.696 154.348C384.04 149.621 384.822 144.751 385.024 139.841C385.063 139.772 385.084 139.694 385.084 139.615C385.084 139.535 385.063 139.457 385.024 139.388C385.212 132.795 384.723 126.2 383.564 119.707C381.559 107.501 377.059 95.8765 368.623 86.775C368.553 86.7166 368.471 86.6748 368.383 86.6527C368.295 86.6307 368.203 86.6289 368.114 86.6476C368.025 86.6663 367.941 86.7049 367.87 86.7606C367.798 86.8163 367.739 86.8875 367.699 86.969C364.28 95.664 365.472 106.031 368.383 114.689C369.957 119.394 372.218 123.84 375.091 127.884C377.965 131.978 381.67 135.433 384.036 139.896Z" fill="#3ACC6C"/>
<path d="M369.547 90.8685C377.586 103.906 383.167 119.356 383.851 134.759C383.851 135.027 383.408 135.101 383.371 134.824C383.177 133.438 382.964 132.052 382.742 130.703C379.416 127.524 376.006 124.17 373.631 120.187C373.627 120.173 373.627 120.158 373.632 120.143C373.637 120.129 373.646 120.116 373.658 120.107C373.67 120.098 373.685 120.093 373.7 120.093C373.715 120.092 373.73 120.096 373.742 120.104C376.514 123.465 379.479 126.662 382.622 129.677C382.049 126.277 381.362 122.926 380.562 119.624C380.34 119.374 380.137 119.125 379.924 118.875C379.711 118.626 380.016 118.478 380.164 118.635L380.358 118.848C379.222 114.327 377.818 109.878 376.154 105.523C374.112 103.084 371.83 100.977 370.333 98.0388C370.327 98.0243 370.326 98.0081 370.331 97.9931C370.336 97.9781 370.346 97.9655 370.36 97.9575C370.373 97.9496 370.389 97.9469 370.405 97.95C370.42 97.953 370.434 97.9616 370.444 97.9742C371.591 99.6777 372.825 101.322 374.14 102.899C374.676 103.527 375.276 104.1 375.831 104.747C373.986 100.022 371.79 95.4412 369.261 91.0441C369.251 91.0076 369.254 90.9691 369.268 90.9342C369.282 90.8992 369.307 90.8698 369.339 90.8501C369.371 90.8304 369.409 90.8216 369.446 90.8249C369.484 90.8282 369.519 90.8435 369.547 90.8685Z" fill="#263238"/>
<path d="M371.211 106.919C373.807 110.412 376.755 113.747 379.176 117.36C379.25 117.462 379.102 117.573 379.009 117.49C375.914 114.579 373.29 110.606 371.035 107.02C370.97 106.91 371.137 106.817 371.211 106.919Z" fill="#263238"/>
<path d="M379.545 118.164L379.656 118.274C379.73 118.358 379.61 118.478 379.536 118.395L379.425 118.284C379.409 118.268 379.4 118.246 379.4 118.224C379.4 118.201 379.409 118.18 379.425 118.164C379.441 118.148 379.463 118.139 379.485 118.139C379.508 118.139 379.529 118.148 379.545 118.164Z" fill="#263238"/>
<path d="M357.008 115.9C357.646 122.609 361.176 130.62 365.482 135.785C367.374 138.032 369.716 139.857 372.356 141.144C375.332 142.623 378.446 144.314 381.523 145.524C382.986 149.251 384.075 153.114 384.775 157.056C384.877 156.723 384.969 156.372 385.071 156.039C383.093 139.056 372.135 124.549 358.053 115.235C357.944 115.161 357.815 115.121 357.684 115.119C357.552 115.117 357.423 115.154 357.312 115.225C357.201 115.296 357.113 115.397 357.059 115.517C357.005 115.637 356.988 115.77 357.008 115.9Z" fill="#3ACC6C"/>
<path d="M361.859 120.917C361.758 120.825 361.859 120.65 362.007 120.733C369.729 126.473 375.886 134.06 379.914 142.798C380.016 143.029 379.693 143.232 379.563 143.001C378.907 141.856 378.242 140.747 377.567 139.656C374.361 139.047 371.321 136.792 368.937 134.648C368.873 134.593 368.937 134.5 369.03 134.556C370.26 135.672 371.626 136.628 373.095 137.402C374.398 138.067 375.803 138.483 377.17 139.019C375.978 137.171 374.74 135.323 373.474 133.567C370.012 132.249 366.764 130.424 363.837 128.153C363.744 128.079 363.837 127.931 363.929 127.995C366.828 129.746 369.817 131.344 372.883 132.782C370.929 130.191 368.819 127.722 366.562 125.39C365.472 124.817 364.363 124.235 363.31 123.616C363.289 123.607 363.273 123.591 363.264 123.57C363.255 123.549 363.255 123.526 363.264 123.505C363.272 123.484 363.289 123.467 363.31 123.459C363.33 123.45 363.354 123.45 363.375 123.459C364.252 123.765 365.089 124.174 365.869 124.678C364.567 123.412 363.264 122.146 361.859 120.917Z" fill="#263238"/>
<path d="M362.155 126.775C362.344 126.894 362.526 127.023 362.7 127.163C362.756 127.209 362.7 127.274 362.636 127.255C362.439 127.164 362.25 127.056 362.072 126.932C361.97 126.904 362.063 126.72 362.155 126.775Z" fill="#263238"/>
<path d="M407.007 193.831H368.494L371.599 158.755L372.283 151.021H403.209L403.893 158.755L407.007 193.831Z" fill="#455A64"/>
<path d="M403.893 158.755H371.599L372.282 151.021H403.209L403.893 158.755Z" fill="#263238"/>
<path d="M405.057 145.616H370.443V153.267H405.057V145.616Z" fill="#455A64"/>
<path d="M43 193.685L93.1302 193.527L143.254 193.476L243.503 193.369L343.752 193.476L393.876 193.527L444 193.685L393.876 193.836L343.752 193.893L243.503 194L143.254 193.893L93.1302 193.836L43 193.685Z" fill="#263238"/>
<path d="M221.766 259.165C344.245 259.165 443.533 251.293 443.533 241.582C443.533 231.872 344.245 224 221.766 224C99.2882 224 0 231.872 0 241.582C0 251.293 99.2882 259.165 221.766 259.165Z" fill="#EBEBEB"/>
<path d="M139.181 46.2469C146.496 55.1228 152.301 105.45 143.051 125.098C133.801 144.746 94.0275 148.9 85.4483 123.614C80.9458 110.455 92.2858 95.7481 97.5623 60.9025C101.471 34.9327 128.951 33.8619 139.181 46.2469Z" fill="#263238"/>
<path d="M134.744 132.361C137.919 130.601 140.714 128.231 142.968 125.385C145.222 122.54 146.891 119.276 147.877 115.783C149.98 108.223 149.683 99.8373 149.309 92.0709C148.461 76.4498 145.084 61.0698 139.311 46.5302C139.311 46.5302 139.375 46.427 139.401 46.5302C145.902 61.7903 149.515 78.1243 150.057 94.7027C150.328 102.559 150.535 111.293 147.477 118.686C144.987 124.634 140.503 129.529 134.795 132.528C134.744 132.528 134.666 132.361 134.744 132.361Z" fill="#263238"/>
<path d="M86.0027 94.4577C88.2475 89.6844 90.918 85.1303 92.4532 80.0602C93.9884 74.9901 94.6464 70.0619 95.6914 65.0434C97.2782 57.3028 100.013 49.5622 106.502 44.6211C99.8842 49.9105 97.5878 58.193 96.0397 66.1658C95.1882 70.5264 94.5303 74.9385 93.3047 79.2087C92.1013 83.0421 90.5466 86.7561 88.6603 90.3036C84.3643 98.8441 81.01 107.643 82.971 117.396C83.7424 121.378 85.4504 125.12 87.9539 128.313C90.4574 131.505 93.6844 134.055 97.3685 135.754C97.6007 135.857 97.433 136.27 97.2008 136.18C93.8632 134.712 90.8815 132.541 88.4592 129.816C86.0369 127.091 84.2309 123.875 83.1645 120.389C80.4423 111.719 82.1969 102.547 86.0027 94.4577Z" fill="#263238"/>
<path d="M88.8545 94.8582C90.8529 90.3708 92.3499 85.6765 93.3182 80.8606C94.1826 76.2549 94.6083 71.5976 95.4082 66.9791C96.6983 59.0837 99.1753 50.9689 105.432 45.4473C105.51 45.4473 105.626 45.4473 105.548 45.5634C99.6526 51.3817 97.2401 59.2126 95.95 67.121C94.5567 75.6486 93.86 84.06 90.6219 92.1748C87.474 100.057 83.0877 107.979 83.5263 116.687C83.965 125.395 89.7575 131.858 96.8531 136.27C96.8778 136.295 96.8936 136.327 96.898 136.361C96.9023 136.396 96.895 136.431 96.8771 136.46C96.8593 136.49 96.8319 136.513 96.7995 136.525C96.7671 136.538 96.7314 136.539 96.6983 136.529C90.4284 132.929 84.9712 127.214 83.3844 120.093C81.4364 111.333 85.4615 102.767 88.8545 94.8582Z" fill="#263238"/>
<path d="M399.743 239.891C396.686 241.065 307.875 242.691 304.392 240.704C304.018 240.472 304.121 236.55 302.818 226.409C302.753 225.932 300.728 224.049 297.554 221.391C285.685 211.444 257.768 190.429 257.768 190.429L302.096 151.919L345.043 194.144L356.215 205.11C356.215 205.11 392.506 224.707 396.105 227.3C399.705 229.893 402.827 238.717 399.743 239.891Z" fill="#FFBB96"/>
<path d="M399.743 239.891C396.699 241.078 307.862 242.678 304.392 240.704C304.005 240.471 304.121 236.55 302.818 226.422C313.719 229.325 380.431 231.105 385.526 226.719C388.932 223.79 375.799 215.895 370.419 212.863C381.024 218.643 394.028 225.829 396.105 227.325C399.666 229.918 402.827 238.717 399.743 239.891Z" fill="#4668D6"/>
<path d="M345.662 191.809L290.872 220.192C290.872 220.192 233.798 168.588 228.56 168.136C223.322 167.685 146.548 219.869 107.883 220.088C67.8903 220.256 65.8132 178.302 65.8132 178.302L124.229 164.885C166.325 144.14 210.189 106.83 238.868 110.339C270.024 114.068 345.662 191.809 345.662 191.809Z" fill="#455A64"/>
<path d="M332.271 184.572C323.034 189.152 325.627 187.72 316.416 192.39C311.914 194.674 289.324 206.104 285.454 208.929C285.435 208.944 285.422 208.965 285.417 208.988C285.412 209.011 285.415 209.035 285.426 209.056C285.436 209.077 285.454 209.094 285.475 209.104C285.497 209.114 285.521 209.116 285.544 209.11C290.072 207.588 312.481 195.68 316.945 193.306C326.053 188.468 323.395 189.758 332.426 184.83C332.46 184.81 332.485 184.776 332.495 184.738C332.504 184.699 332.498 184.658 332.478 184.624C332.457 184.59 332.424 184.565 332.385 184.555C332.347 184.546 332.306 184.552 332.271 184.572Z" fill="#263238"/>
<path d="M281.17 207.11C270.45 197.667 235.359 166.924 233.94 165.827C232.831 164.774 231.601 163.856 230.276 163.092C229.729 162.878 229.14 162.791 228.554 162.838C227.969 162.885 227.402 163.064 226.896 163.363C225.283 164.111 223.683 164.95 222.084 165.737L212.588 170.368C200.307 176.354 188.077 182.508 175.73 188.301C163.835 193.874 155.347 199.112 142.923 203.408C130.571 207.743 117.797 210.769 104.813 212.438C103.214 212.632 101.601 212.8 100.001 212.954C99.9773 212.954 99.9543 212.964 99.9373 212.981C99.9204 212.998 99.9109 213.021 99.9109 213.045C99.9109 213.069 99.9204 213.092 99.9373 213.109C99.9543 213.126 99.9773 213.135 100.001 213.135C112.749 212.384 125.352 210.039 137.517 206.156C149.825 202.376 158.159 197.46 169.86 192.081C181.974 186.507 193.921 180.547 205.854 174.613C212.163 171.478 218.458 168.317 224.78 165.221C226.212 164.511 228.25 162.989 229.94 163.75C230.631 164.123 231.265 164.592 231.824 165.143L233.927 166.885C236.649 169.143 279.661 206.194 281.067 207.265C281.132 207.342 281.274 207.188 281.17 207.11Z" fill="#263238"/>
<path d="M65.7097 178.25C65.7097 178.25 59.156 216.127 78.0947 231.015C97.0334 245.903 235.797 244.097 256.851 237.298C277.906 230.499 278.577 196.518 255.561 188.635C233.629 181.153 140.536 177.515 138.239 176.599C137.659 176.366 146.496 171.064 146.457 170.742L125.261 164.291L65.7097 178.25Z" fill="#455A64"/>
<path d="M94.4919 177.296C94.4919 177.128 94.221 177.18 94.221 177.296C94.2178 181.699 92.665 185.96 89.8347 189.332C86.6094 193.061 81.8618 195.138 77.5529 197.318C77.14 197.525 77.4497 198.183 77.8754 198.054C80.5244 197.236 83.0766 196.133 85.487 194.764C87.6994 193.593 89.6454 191.976 91.2022 190.016C92.6007 188.239 93.6152 186.191 94.1814 184.001C94.7477 181.812 94.8534 179.528 94.4919 177.296Z" fill="#263238"/>
<path d="M136.704 172.6C135.736 171.374 134.691 170.2 133.685 169.013C131.311 166.188 128.937 163.35 126.447 160.627C126.215 160.369 125.751 160.731 125.97 161.014C127.634 163.208 129.415 165.323 131.131 167.465C132.021 168.562 132.924 169.645 133.827 170.729C134.765 171.713 135.607 172.785 136.343 173.928C136.988 175.141 136.136 176.173 134.872 176.302C133.76 176.337 132.678 175.94 131.853 175.193C129.964 173.527 128.236 171.687 126.693 169.697C125.699 168.574 124.693 167.452 123.687 166.343C122.68 165.233 121.455 164.046 120.384 162.859C120.307 162.795 120.178 162.859 120.242 162.975C121.184 164.266 122.048 165.556 122.99 166.846C123.932 168.136 124.886 169.426 125.854 170.716C126.822 172.006 127.725 173.09 128.705 174.238C129.522 175.249 130.498 176.12 131.595 176.818C133.401 177.876 136.523 178.108 137.491 175.786C137.649 175.233 137.659 174.647 137.521 174.088C137.383 173.529 137.101 173.016 136.704 172.6Z" fill="#263238"/>
<path d="M253.974 237.414C246.724 237.556 239.486 237.982 232.236 238.137C224.986 238.291 217.851 238.33 210.653 238.253C196.212 238.124 181.78 237.565 167.357 236.576C152.791 235.569 137.091 234.111 122.616 232.112C115.701 231.157 108.683 230.357 101.832 228.887C95.6845 227.714 89.9999 224.809 85.448 220.514C76.0819 211.419 72.4309 198.066 70.9344 185.294C70.7366 183.574 70.5689 181.854 70.4312 180.134C70.4367 180.12 70.4388 180.105 70.4372 180.09C70.4356 180.076 70.4304 180.062 70.4222 180.049C70.4139 180.037 70.4027 180.027 70.3897 180.02C70.3767 180.013 70.3621 180.01 70.3474 180.01C70.3326 180.01 70.3181 180.013 70.3051 180.02C70.292 180.027 70.2809 180.037 70.2726 180.049C70.2643 180.062 70.2592 180.076 70.2576 180.09C70.256 180.105 70.2581 180.12 70.2635 180.134C71.1021 193.215 73.1405 206.865 81.3713 217.392C84.8402 221.992 89.4648 225.593 94.7755 227.829C101.226 230.409 108.451 231.028 115.288 231.957C129.815 233.931 145.58 235.453 160.197 236.588C174.813 237.724 189.637 238.433 204.37 238.653C219.103 238.872 233.874 238.653 248.594 237.93C250.383 237.853 252.177 237.737 253.974 237.582C253.991 237.575 254.005 237.564 254.015 237.549C254.026 237.534 254.031 237.516 254.031 237.498C254.031 237.48 254.026 237.462 254.015 237.447C254.005 237.432 253.991 237.421 253.974 237.414Z" fill="#263238"/>
<path d="M208.266 181.733C203.712 181.062 199.158 180.443 194.565 179.94C189.973 179.437 185.29 179.037 180.645 178.65C171.473 177.863 162.261 177.166 153.063 176.741C147.825 176.495 142.6 176.47 137.375 176.534C137.207 176.534 137.22 176.779 137.375 176.792C146.574 177.618 155.785 178.198 165.009 178.818C174.233 179.437 183.393 180.237 192.566 181.114C197.726 181.604 202.99 181.991 208.202 182.404C208.576 182.443 208.653 181.798 208.266 181.733Z" fill="#263238"/>
<path d="M147.527 170.277C143.854 171.867 140.319 173.761 136.962 175.941C133.544 177.985 130.276 180.27 127.183 182.778C127.105 182.856 127.183 182.959 127.299 182.92C130.885 181.256 134.33 179.192 137.748 177.205C141.207 175.257 144.546 173.103 147.747 170.754C147.966 170.6 147.837 170.161 147.527 170.277Z" fill="#263238"/>
<path d="M108.335 102.573C115.366 126.452 128.654 154.796 133.853 159.221C140.432 164.794 182.245 173.231 184.309 173.322C189.469 173.528 197.39 136.335 191.92 135.909C183.612 135.225 153.566 135.419 151.656 133.677C149.747 131.935 136.072 116.699 121.984 99.4763C112.244 87.53 103.974 87.7493 108.335 102.573Z" fill="#FFBB96"/>
<path d="M180.116 171.605C184.948 173.716 189.923 175.483 195.003 176.895C199.041 177.798 210.73 180.107 212.175 175.76C213.155 172.792 206.447 170.599 201.738 168.999C199.248 168.135 196.113 165.787 196.732 164.187C197.816 161.388 204.215 163.736 208.459 165.877C216.664 169.993 227.733 177.643 232.326 173.334C234.068 171.696 231.771 169.064 228.456 166.535C233.694 169.386 239.241 171.696 241.241 169.928C241.756 169.481 242.08 168.854 242.147 168.175C242.215 167.496 242.019 166.817 241.602 166.277C242.257 166.54 242.976 166.6 243.666 166.451C244.355 166.301 244.985 165.949 245.472 165.439C247.007 163.62 246.066 161.13 244.105 158.64C244.412 158.591 244.703 158.468 244.953 158.281C245.202 158.095 245.403 157.85 245.537 157.569C248.685 152.073 230.378 137.921 224.289 136.863C212.203 134.991 199.936 134.584 187.753 135.65C181.161 141.623 180.103 171.593 180.116 171.605Z" fill="#FFBB96"/>
<path d="M205.131 153.738C209.385 154.157 213.502 155.476 217.207 157.609C221.877 160.305 225.063 163.582 229.037 166.846C229.059 166.863 229.074 166.888 229.077 166.916C229.081 166.944 229.073 166.972 229.056 166.994C229.039 167.016 229.014 167.031 228.986 167.034C228.958 167.038 228.93 167.031 228.908 167.013C227.011 165.465 219.206 159.673 217.194 158.383C213.566 155.976 209.435 154.431 205.118 153.867L205.131 153.738Z" fill="#263238"/>
<path d="M208.021 146.037C212.815 146.844 217.514 148.141 222.044 149.907C226.908 152.023 230.843 155.725 234.7 159.273C237.023 161.415 239.306 163.595 241.525 165.827C241.615 165.917 241.525 166.085 241.396 165.995C237.465 162.313 233.432 158.757 229.295 155.325C225.473 152.116 221.053 149.696 216.291 148.204C213.569 147.353 210.795 146.707 208.008 146.062C207.905 146.101 207.918 146.024 208.021 146.037Z" fill="#263238"/>
<path d="M212.536 139.173C217.116 139.818 221.102 140.372 225.244 142.553C229.938 145.256 234.273 148.542 238.145 152.332C240.248 154.318 242.286 156.383 244.298 158.472C244.376 158.563 244.234 158.705 244.157 158.627C239.567 154.045 234.684 149.766 229.54 145.817C227.124 143.892 224.42 142.36 221.528 141.275C218.614 140.325 215.622 139.63 212.588 139.198C212.588 139.198 212.523 139.16 212.536 139.173Z" fill="#263238"/>
<path d="M184.799 134.322L174.581 175.179C174.581 175.179 139.748 167.439 133.053 161.117C126.357 154.796 112.708 120.582 108.283 103.888C103.858 87.1945 112.424 87.1171 120.926 97.2702C129.428 107.423 150.598 132.103 151.682 132.58C152.766 133.058 184.799 134.322 184.799 134.322Z" fill="#4668D6"/>
<path d="M170.247 157.57C171.537 152.758 172.827 147.945 173.846 143.082C174.453 140.308 175.072 137.547 175.652 134.773C175.652 134.67 175.498 134.619 175.472 134.773C174.027 139.56 172.595 144.372 171.369 149.223C170.144 154.073 168.892 158.873 167.744 163.71C167.086 166.471 166.519 169.232 166.028 172.032C166.028 172.032 166.106 172.109 166.132 172.032C167.731 167.258 168.996 162.42 170.247 157.57Z" fill="#263238"/>
<path d="M170.376 134.038C170.391 134.957 170.335 135.876 170.208 136.786C170.067 137.693 169.846 138.587 169.55 139.456C168.943 141.197 168.049 142.823 166.905 144.269C165.777 145.737 164.324 146.924 162.661 147.739C160.999 148.526 159.222 149.04 157.397 149.261C155.858 149.469 154.305 149.555 152.753 149.519H151.914C150.095 149.519 148.276 149.326 146.457 149.171C142.838 148.744 139.2 148.502 135.556 148.448C133.743 148.449 131.938 148.692 130.189 149.171C128.879 149.538 127.658 150.17 126.603 151.029L126.525 150.874C127.589 150.011 128.819 149.374 130.137 149.003C131.901 148.51 133.724 148.258 135.556 148.255C139.204 148.293 142.847 148.526 146.47 148.952C148.289 149.106 150.108 149.248 151.927 149.287H153.05C154.491 149.3 155.931 149.209 157.359 149.016C159.149 148.794 160.891 148.284 162.519 147.507C164.176 146.723 165.622 145.555 166.738 144.101C167.85 142.674 168.722 141.074 169.318 139.366C169.898 137.651 170.173 135.848 170.131 134.038C170.137 133.926 170.137 133.814 170.131 133.703H170.414C170.409 133.815 170.396 133.927 170.376 134.038ZM159.5 133.251V133.187H159.242C159.248 133.216 159.248 133.247 159.242 133.277C159.365 135.086 159.248 136.904 158.894 138.682C158.094 142.238 156.367 145.519 153.888 148.19C153.516 148.58 153.124 148.95 152.714 149.3C152.625 149.384 152.531 149.462 152.43 149.532C151.543 150.264 150.583 150.903 149.566 151.441C147.947 152.272 146.248 152.937 144.496 153.428C140.939 154.242 137.446 155.316 134.046 156.641C132.939 157.14 131.884 157.749 130.899 158.46C130.934 158.498 130.965 158.542 130.989 158.589C131.97 157.885 133.02 157.284 134.124 156.795C137.516 155.479 141 154.414 144.548 153.609C146.329 153.119 148.058 152.453 149.708 151.622C150.814 151.048 151.849 150.346 152.792 149.532C152.899 149.466 152.999 149.388 153.088 149.3C153.441 148.99 153.776 148.668 154.095 148.332C155.357 147.001 156.426 145.499 157.268 143.869C158.145 142.248 158.783 140.51 159.165 138.708C159.526 136.913 159.639 135.077 159.5 133.251Z" fill="white"/>
<path opacity="0.1" d="M175.639 171.064L174.62 175.128C174.62 175.128 139.788 167.387 133.092 161.066C126.396 154.744 112.747 120.531 108.322 103.837C105.084 91.6322 108.799 88.2908 114.347 91.3613C129.789 111.1 158.907 148.448 175.639 171.064Z" fill="black"/>
<path d="M62.6648 182.249C65.245 183.23 141.116 165.375 141.116 165.375L133.595 138.966C133.595 138.966 138.381 130.838 136.755 122.698C134.601 111.835 115.624 93.1933 114.127 92.0838C108.064 87.6071 102.516 86.7428 97.2395 89.2327C75.0369 99.6309 62.6648 182.249 62.6648 182.249Z" fill="#4668D6"/>
<path d="M133.93 115.822L134.046 116.041H133.492H133.195C132.662 116.009 132.128 116.009 131.595 116.041C129.78 116.153 127.991 116.523 126.28 117.138C124.562 117.712 122.936 118.533 121.455 119.576C119.975 120.633 118.643 121.882 117.494 123.292C116.355 124.706 115.32 126.203 114.398 127.768C113.456 129.316 112.566 130.916 111.611 132.464C110.669 134.039 109.585 135.524 108.373 136.902C107.755 137.579 107.086 138.209 106.374 138.786C105.655 139.363 104.881 139.868 104.064 140.295C102.45 141.146 100.707 141.726 98.9039 142.011C97.077 142.312 95.2054 142.188 93.4339 141.65C91.6805 141.095 90.0292 140.258 88.5444 139.173C87.2903 138.273 86.1045 137.281 84.9966 136.206L84.7644 135.973L84.3774 135.612C83.0873 134.322 81.7971 133.032 80.6232 131.626C78.9847 129.807 77.3979 127.949 75.7079 126.181C75.7353 126.106 75.7569 126.028 75.7724 125.949C77.5011 127.742 79.1266 129.626 80.7909 131.471C82.0036 132.825 83.2421 134.167 84.5322 135.444L85.1127 135.986L85.3449 136.218C86.3928 137.212 87.5093 138.13 88.6863 138.966C90.1512 140.036 91.781 140.86 93.5113 141.405C95.2418 141.928 97.07 142.042 98.8523 141.74C100.653 141.462 102.396 140.891 104.013 140.05C105.602 139.183 107.032 138.053 108.244 136.709C109.45 135.35 110.526 133.882 111.457 132.322C112.411 130.774 113.301 129.187 114.256 127.626C115.185 126.052 116.233 124.551 117.391 123.137C118.546 121.712 119.892 120.453 121.39 119.396C124.445 117.296 128.012 116.066 131.711 115.835C132.176 115.835 132.64 115.835 133.105 115.835H133.466L133.93 115.822ZM134.64 117.112L133.879 116.338L133.492 115.964L133.272 115.745C132.163 114.666 130.973 113.674 129.712 112.777C128.229 111.689 126.577 110.852 124.822 110.3C123.052 109.756 121.179 109.632 119.352 109.939C117.551 110.225 115.809 110.8 114.192 111.642C113.38 112.078 112.608 112.583 111.882 113.151C111.17 113.733 110.501 114.367 109.883 115.048C108.671 116.422 107.587 117.903 106.645 119.473C105.69 121.034 104.8 122.621 103.858 124.182C102.935 125.746 101.9 127.242 100.762 128.658C99.6106 130.057 98.2838 131.302 96.8139 132.361C95.3244 133.401 93.6958 134.226 91.9761 134.812C90.2645 135.423 88.4749 135.788 86.6608 135.896C86.124 135.935 85.585 135.935 85.0482 135.896C84.9324 135.909 84.8156 135.909 84.6999 135.896C83.5445 135.827 82.3991 135.641 81.2811 135.341C79.5372 134.839 77.8475 134.165 76.2368 133.329C75.424 132.916 74.6113 132.49 73.8114 132.039C73.8057 132.099 73.8057 132.159 73.8114 132.219C74.5984 132.645 75.3982 133.084 76.1981 133.509C77.818 134.361 79.5213 135.044 81.2811 135.548C82.4914 135.873 83.7323 136.072 84.9837 136.141H85.332C85.7965 136.141 86.2609 136.141 86.7253 136.141C88.5602 136.023 90.3702 135.654 92.1051 135.044C93.8434 134.459 95.4897 133.629 96.9946 132.58C98.4882 131.512 99.8369 130.255 101.007 128.839C102.156 127.417 103.2 125.912 104.129 124.337C105.083 122.776 105.974 121.189 106.928 119.641C107.871 118.089 108.946 116.622 110.141 115.254C111.358 113.914 112.793 112.789 114.385 111.926C116 111.079 117.744 110.504 119.546 110.223C121.329 109.931 123.156 110.05 124.887 110.571C126.615 111.114 128.245 111.933 129.712 112.997C130.889 113.837 132.005 114.76 133.053 115.757L133.272 115.977L133.866 116.532C134.291 116.944 134.704 117.37 135.156 117.822C135.065 117.602 134.949 117.383 134.846 117.177L134.64 117.112Z" fill="white"/>
<path d="M123.906 101.941C125.725 104.289 127.686 106.52 129.557 108.817C128.718 107.127 127.88 105.45 126.977 103.798C126.977 103.798 126.977 103.721 126.977 103.798C128.343 105.756 129.514 107.843 130.473 110.03C131.882 111.766 133.175 113.593 134.343 115.5C135.775 117.774 136.801 120.28 137.375 122.905C137.861 125.564 137.804 128.293 137.207 130.929C136.481 133.95 135.483 136.899 134.227 139.741C134.072 140.128 133.531 139.857 133.66 139.483C135.324 134.477 137.182 129.162 136.317 123.859C135.453 118.557 132.447 113.977 129.454 109.668C127.711 107.029 125.802 104.504 123.739 102.108C123.661 101.966 123.829 101.837 123.906 101.941Z" fill="#263238"/>
<path d="M89.9385 94.0192C74.8056 105.63 34.9028 152.758 43.2368 163.93C51.5709 175.102 108.748 171.387 125.429 166.51C130.396 165.078 117.689 133.509 112.361 131.948C107.961 130.658 83.2042 137.367 82.7656 135.922C82.3269 134.477 87.7324 123.872 96.5826 104.792C106.774 82.8598 96.6342 88.8846 89.9385 94.0192Z" fill="#FFBB96"/>
<path d="M136.756 126.53C148.186 126.827 151.076 128.659 160.855 123.782C167.306 120.583 172.079 123.305 167.719 129.356C160.584 139.264 145.787 141.986 140.33 141.444L136.756 126.53Z" fill="#FFBB96"/>
<path d="M105.278 132.361C105.278 132.361 118.991 127.459 131.209 126.569C139.659 125.95 158.185 126.659 172.595 147.443C176.014 152.371 177.381 161.814 168.88 155.79C162.842 151.507 160.3 146.978 156.34 145.121C156.34 145.121 156.649 157.351 151.579 160.602C147.145 163.427 142.515 165.932 137.724 168.097C137.126 167.311 136.579 166.488 136.085 165.633C136.085 165.633 131.067 168.213 122.771 166.007L105.278 132.361Z" fill="#FFBB96"/>
<path d="M139.362 127.291C142.922 129.962 150.34 135.741 154.843 142.579C159.758 150.19 167.189 166.149 161.551 169.671C157.41 172.251 154.03 166.446 154.03 166.446C154.03 166.446 155.707 173.696 151.45 175.244C147.58 176.663 145.232 171.98 145.232 171.98C145.232 171.98 145.502 176.547 141.49 177.141C136.678 177.915 136.923 168.2 131.376 164.768C130.06 164.111 139.362 127.291 139.362 127.291Z" fill="#FFBB96"/>
<path d="M145.876 146.449C150.564 152.093 153.417 159.034 154.056 166.343C154.056 166.523 153.927 166.626 153.888 166.459C152.008 159.52 149.291 152.836 145.799 146.552L145.876 146.449Z" fill="#263238"/>
<path d="M138.356 151.636C140.601 154.539 145.219 163.672 145.323 171.981C145.323 172.161 145.181 172.265 145.155 172.097C143.637 165.065 141.33 158.227 138.279 151.713C138.279 151.713 138.356 151.597 138.356 151.636Z" fill="#263238"/>
<path d="M156.417 145.082C159.874 146.746 161.951 148.952 164.673 151.532C166.001 152.864 167.405 154.118 168.879 155.286C170.169 156.331 172.208 157.867 174.04 156.912C174.473 156.583 174.81 156.144 175.014 155.64C175.219 155.136 175.283 154.586 175.201 154.048C175.014 152.496 174.579 150.984 173.911 149.571C173.911 149.571 173.975 149.468 174.001 149.571C174.674 150.865 175.206 152.227 175.588 153.635C175.832 154.591 175.783 155.598 175.446 156.525C174.581 158.447 172.169 158.318 170.582 157.492C169.639 156.961 168.752 156.334 167.937 155.622C167.137 154.977 166.376 154.332 165.628 153.571C164.08 152.113 162.635 150.578 161.113 149.094C159.62 147.713 158.047 146.421 156.404 145.224C156.21 145.146 156.275 145.043 156.417 145.082Z" fill="#263238"/>
<path d="M161.861 159.157C160.294 154.373 158.424 149.693 156.262 145.146C156.262 145.146 156.262 145.043 156.352 145.146C159.058 149.371 161.225 153.918 162.803 158.68C163.676 161.268 164.014 164.007 163.796 166.73C163.164 170.536 160.519 170.845 159.565 170.871C158.421 170.876 157.31 170.489 156.417 169.775C155.378 168.877 154.534 167.774 153.94 166.536C153.94 166.472 153.94 166.42 154.03 166.472C155.101 168.188 157.049 170.033 159.191 170.11C159.658 170.141 160.128 170.079 160.571 169.926C161.014 169.773 161.422 169.533 161.771 169.22C162.485 168.4 162.883 167.352 162.893 166.265C162.955 163.855 162.606 161.451 161.861 159.157Z" fill="#263238"/>
<path d="M105.277 132.361L116.759 172.354C116.759 172.354 45.2747 176.431 41.3141 163.452C37.3535 150.474 71.8895 107.978 86.2226 96.2637C102.813 82.7305 103.703 88.4199 98.3109 101.953C92.6473 116.144 82.907 136.36 82.907 136.36L105.277 132.361Z" fill="#4668D6"/>
<path d="M86.1837 129.445L86.0676 129.704C85.6379 129.73 85.2071 129.73 84.7775 129.704C82.9434 129.547 81.1477 129.089 79.4623 128.349C78.0405 127.74 76.6651 127.029 75.3468 126.22L75.063 126.053L74.6244 125.782C73.0762 124.814 71.5797 123.769 70.0961 122.698C68.3674 121.408 66.6515 120.183 64.9357 118.97L65.0647 118.815C66.8192 120.015 68.5351 121.292 70.2251 122.518C71.7087 123.576 73.2053 124.62 74.7405 125.575L75.4242 125.988L75.7081 126.156C76.9474 126.909 78.241 127.569 79.5784 128.13C81.244 128.837 83.0124 129.273 84.8162 129.42C85.2712 129.454 85.7277 129.462 86.1837 129.445ZM96.7109 97.9412C96.1336 98.6589 95.6158 99.4226 95.1628 100.225C94.2743 101.824 93.54 103.505 92.9696 105.243C92.3633 106.972 91.8472 108.726 91.2667 110.404C90.7049 112.134 90.0149 113.82 89.2025 115.448C88.3873 117.067 87.3637 118.572 86.1579 119.925C84.93 121.261 83.5183 122.417 81.965 123.356C80.4291 124.322 78.7661 125.069 77.024 125.575C76.5038 125.728 75.9735 125.845 75.4371 125.924C75.317 125.936 75.196 125.936 75.0759 125.924C73.9422 126.11 72.7917 126.175 71.6442 126.117C69.8307 126.011 68.0326 125.721 66.2774 125.253C64.51 124.801 62.7554 124.259 61.0009 123.795L60.8848 123.937C62.6651 124.427 64.4325 124.982 66.2258 125.433C67.9924 125.912 69.8039 126.206 71.6313 126.311C72.8784 126.373 74.1286 126.3 75.3597 126.091L75.7209 126.027C76.1778 125.948 76.63 125.845 77.0756 125.717C80.6129 124.677 83.8069 122.708 86.3256 120.015C87.5565 118.656 88.5981 117.137 89.4219 115.499C90.2383 113.861 90.9367 112.167 91.5118 110.429C92.0924 108.701 92.6213 106.946 93.2276 105.269C93.7942 103.548 94.5243 101.884 95.4079 100.302C96.2975 98.7254 97.4493 97.3118 98.8138 96.1221C99.4147 95.6051 100.058 95.139 100.736 94.7288C100.736 94.5869 100.736 94.4708 100.826 94.3418C100.051 94.797 99.3172 95.3193 98.6332 95.9028C97.9352 96.5259 97.2921 97.2079 96.7109 97.9412ZM103.226 132.774H103.136C103.239 133.57 103.291 134.371 103.29 135.174C103.29 135.677 103.29 136.167 103.29 136.67C103.29 136.67 103.29 136.786 103.29 136.851C103.19 138.105 102.978 139.349 102.658 140.566C102.211 142.33 101.521 144.024 100.607 145.598C99.6829 147.165 98.5257 148.583 97.1754 149.803C94.3505 152.1 91.3673 154.196 88.2479 156.073C86.7222 157.082 85.3043 158.245 84.0163 159.544C83.1442 160.439 82.37 161.425 81.707 162.485L81.5135 162.808C81.2813 163.207 81.062 163.607 80.8685 164.02C79.6025 166.75 78.9381 169.72 78.9204 172.728H79.1526C79.1548 171.578 79.254 170.43 79.4493 169.297C79.7367 167.51 80.2752 165.772 81.0491 164.136C81.2817 163.654 81.5401 163.185 81.8231 162.73C81.8782 162.618 81.9476 162.514 82.0295 162.42C82.6428 161.446 83.3563 160.538 84.1582 159.711C85.4328 158.417 86.8379 157.259 88.3511 156.254C91.3441 154.19 94.5951 152.448 97.2915 149.945C98.6466 148.712 99.8079 147.281 100.736 145.701C101.655 144.116 102.346 142.409 102.787 140.631C103.088 139.45 103.287 138.246 103.381 137.031C103.381 136.967 103.381 136.902 103.381 136.851C103.381 136.296 103.381 135.754 103.381 135.199C103.375 134.38 103.323 133.562 103.226 132.748V132.774ZM107.69 146.449C107.468 144.635 106.894 142.882 106 141.289C105.2 139.766 104.258 138.334 103.342 136.889L103.239 136.735C102.49 135.589 101.809 134.4 101.2 133.174H101.123C101.748 134.458 102.45 135.703 103.226 136.902L103.316 137.057C104.206 138.463 105.122 139.87 105.896 141.34C106.776 142.937 107.336 144.69 107.548 146.501C107.711 148.31 107.423 150.132 106.709 151.803C105.963 153.464 104.759 154.878 103.239 155.88C101.721 156.853 100.082 157.621 98.3623 158.163C94.8878 159.239 91.3613 160.139 87.7963 160.859C86.016 161.272 84.2356 161.698 82.494 162.227L81.9908 162.382L81.6683 162.472C80.1939 162.928 78.7539 163.488 77.3594 164.149C75.6923 164.929 74.163 165.975 72.8311 167.246C71.499 168.53 70.4832 170.107 69.8639 171.851L69.7478 172.199H70.0316C70.0558 172.103 70.086 172.008 70.1219 171.916C70.7257 170.209 71.7146 168.664 73.0117 167.4C74.3214 166.152 75.8245 165.124 77.4626 164.356C78.7609 163.733 80.1016 163.202 81.4748 162.769C81.5738 162.723 81.6777 162.688 81.7844 162.666L82.5585 162.42C84.3001 161.904 86.0676 161.466 87.835 161.053C91.4098 160.322 94.945 159.409 98.4268 158.318C100.169 157.742 101.827 156.935 103.355 155.918C104.9 154.896 106.121 153.455 106.877 151.764C107.582 150.078 107.861 148.243 107.69 146.423V146.449Z" fill="white"/>
<path d="M60.3171 142.771C63.8881 141.096 67.5742 139.677 71.3475 138.527C75.0826 137.412 78.8942 136.571 82.752 136.011C84.9451 135.663 87.1512 135.431 89.3573 135.186C89.4347 135.186 89.4347 135.276 89.3573 135.289C85.4828 135.873 81.645 136.679 77.8625 137.701C74.0954 138.682 70.3541 139.731 66.6386 140.849C64.5228 141.481 62.4458 142.217 60.3687 142.926C60.3517 142.924 60.3357 142.917 60.3225 142.906C60.3092 142.896 60.2993 142.881 60.2939 142.865C60.2885 142.849 60.2878 142.831 60.2919 142.815C60.296 142.798 60.3048 142.783 60.3171 142.771Z" fill="#263238"/>
<path d="M105.109 132.246C104.748 132.246 84.8678 135.381 84.1969 135.574C84.3259 135.303 89.3573 125.834 90.1185 124.454C90.1959 124.312 90.2604 124.17 90.3378 124.041C90.7893 123.434 91.2409 122.841 91.6279 122.235L93.2663 119.848L91.5376 122.144C91.2624 122.506 91.0044 122.867 90.7635 123.228C91.2667 122.248 91.7569 121.267 92.2472 120.274C93.0341 118.687 93.7566 117.087 94.4919 115.487C94.4919 115.487 94.4274 115.397 94.4016 115.487C92.918 118.248 91.357 120.957 89.8605 123.705C88.364 126.453 82.7133 136.606 82.7391 136.606C82.7649 136.606 104.671 132.736 105.148 132.62C105.198 132.615 105.243 132.59 105.275 132.551C105.306 132.513 105.321 132.463 105.316 132.414C105.311 132.364 105.286 132.318 105.247 132.287C105.209 132.255 105.159 132.241 105.109 132.246Z" fill="#263238"/>
<path d="M102.375 156.641C101.085 152.178 99.8979 147.714 98.5046 143.302C97.7047 140.721 96.9048 138.283 96.0792 135.78C96.0792 135.69 95.8857 135.78 95.8986 135.78C96.9823 140.309 98.0788 144.811 99.3689 149.314C100.659 153.816 101.949 158.228 103.239 162.666C103.996 165.195 104.856 167.689 105.819 170.149C105.819 170.149 105.923 170.149 105.91 170.149C104.891 165.608 103.639 161.131 102.375 156.641Z" fill="#263238"/>
<path d="M117.559 173.09C117.056 171.8 116.449 170.045 115.895 168.82C115.753 168.484 115.521 168.51 115.624 168.82C115.972 169.942 116.217 171.18 116.566 172.329C115.559 172.329 114.566 172.329 113.56 172.419L110.089 172.561C107.832 172.651 105.561 172.716 103.303 172.767C98.7105 172.845 94.1221 172.845 89.5379 172.767C80.3339 172.594 71.1449 171.948 62.0071 170.832C59.4269 170.497 56.8467 170.123 54.3697 169.671C51.8674 169.263 49.3873 168.729 46.9387 168.071C46.9387 168.071 46.8355 168.162 46.9387 168.187C49.012 168.999 51.1477 169.642 53.3247 170.11C55.5953 170.6 57.8917 171.039 60.2009 171.4C64.7937 172.109 69.4123 172.574 74.0437 172.909C83.2293 173.563 92.432 173.838 101.652 173.735C104.232 173.735 106.812 173.679 109.393 173.567L113.263 173.412C114.702 173.429 116.139 173.321 117.559 173.09Z" fill="#263238"/>
<path d="M103.523 90.614C103.523 92.0073 107.896 102.006 113.999 103.089C115.985 103.438 118.372 92.6781 118.372 92.6781L118.733 91.9169L123.726 81.3639L110.928 68.4629C110.928 68.4629 103.523 90.0334 103.523 90.614Z" fill="#FFBB96"/>
<path d="M123.687 81.3506L118.694 91.9165C115.945 90.1109 113.606 87.7482 111.829 84.9814C110.051 82.2146 108.874 79.1053 108.373 75.8548C109.663 72.1135 110.708 69.0043 110.85 68.5528C110.856 68.5317 110.856 68.5094 110.85 68.4883L112.502 70.0235L123.687 81.3506Z" fill="#263238"/>
<path d="M144.239 69.507C141.375 89.8004 128.886 90.3809 124.513 89.7617C120.539 89.194 107.084 86.7557 107.845 66.2689C108.606 45.782 118.94 40.6991 128.099 41.5118C137.259 42.3246 147.115 49.2008 144.239 69.507Z" fill="#FFBB96"/>
<path d="M141.761 67.3015C141.297 67.1466 140.91 66.9273 140.471 66.7338C139.987 66.5926 139.561 66.2984 139.258 65.8953C139.189 65.7482 139.17 65.5823 139.205 65.4236C139.241 65.2649 139.327 65.1222 139.452 65.018C139.73 64.8559 140.046 64.7705 140.368 64.7705C140.69 64.7705 141.006 64.8559 141.284 65.018C141.906 65.2536 142.417 65.714 142.716 66.3081C142.762 66.4427 142.77 66.5876 142.74 66.7267C142.709 66.8658 142.641 66.9938 142.542 67.0965C142.443 67.1992 142.318 67.2727 142.18 67.3089C142.043 67.345 141.898 67.3425 141.761 67.3015Z" fill="#263238"/>
<path d="M128.099 64.5923C128.577 64.5923 129.028 64.5923 129.518 64.5923C130.017 64.6608 130.524 64.5658 130.963 64.3214C131.084 64.2142 131.167 64.0708 131.199 63.9127C131.232 63.7546 131.213 63.5902 131.144 63.4441C130.964 63.1777 130.716 62.9644 130.425 62.8261C130.135 62.6877 129.813 62.6294 129.493 62.6571C128.831 62.6178 128.179 62.8246 127.661 63.2377C127.552 63.3398 127.474 63.4708 127.437 63.6153C127.4 63.7599 127.404 63.912 127.45 64.0541C127.496 64.1961 127.582 64.3221 127.697 64.4174C127.812 64.5127 127.951 64.5733 128.099 64.5923Z" fill="#263238"/>
<path d="M130.757 68.1396C130.757 68.1396 130.641 68.1396 130.628 68.2428C130.421 69.6232 129.931 71.1714 128.615 71.3907V71.4681C130.163 71.5455 130.783 69.4814 130.757 68.1396Z" fill="#263238"/>
<path d="M129.802 66.475C127.635 65.8944 126.628 70.3453 128.641 70.8355C130.654 71.3258 131.634 66.9652 129.802 66.475Z" fill="#263238"/>
<path d="M128.886 66.5658C128.448 66.7206 127.97 67.0819 127.506 67.0174C127.041 66.9528 126.654 66.3981 126.409 65.8691C126.409 65.8691 126.332 65.8691 126.319 65.8691C126.159 66.2555 126.152 66.6886 126.301 67.0796C126.45 67.4706 126.742 67.7899 127.119 67.972C127.906 68.2816 128.667 67.6753 129.08 66.8754C129.157 66.7077 129.067 66.4497 128.886 66.5658Z" fill="#263238"/>
<path d="M138.355 69.5332C138.355 69.5332 138.445 69.6235 138.433 69.6751C138.071 70.9652 137.878 72.6295 139 73.3777C139 73.3777 139 73.468 139 73.4422C137.465 72.8746 137.736 70.7459 138.355 69.5332Z" fill="#263238"/>
<path d="M139.852 68.3981C142.084 68.7593 141.142 73.1844 139.142 72.8489C137.142 72.5135 137.994 68.1014 139.852 68.3981Z" fill="#263238"/>
<path d="M140.716 68.8752C141.026 69.1849 141.284 69.6751 141.697 69.7783C142.109 69.8815 142.625 69.5074 142.987 69.1075H143.051C142.909 69.946 142.445 70.7717 141.606 70.7846C140.768 70.7975 140.432 69.946 140.394 69.0688C140.432 68.9655 140.6 68.7591 140.716 68.8752Z" fill="#263238"/>
<path d="M127.712 80.0224C127.944 80.4353 128.138 80.9513 128.615 81.1319C129.126 81.2414 129.653 81.2414 130.163 81.1319C130.163 81.1319 130.241 81.1319 130.163 81.2093C129.899 81.4228 129.581 81.5597 129.245 81.6052C128.908 81.6507 128.565 81.603 128.254 81.4673C127.999 81.3199 127.793 81.1004 127.662 80.8365C127.532 80.5726 127.482 80.2759 127.519 79.9837C127.557 79.9708 127.674 79.9708 127.712 80.0224Z" fill="#263238"/>
<path d="M134.692 76.2288C134.692 76.2288 134.524 78.3317 134.318 79.2993C134.318 79.3896 134.06 79.3767 133.724 79.2993C132.867 79.2703 132.034 79.0057 131.318 78.5346C130.601 78.0636 130.027 77.4041 129.661 76.6287C129.661 76.5255 129.764 76.4481 129.828 76.5255C130.859 77.6244 132.216 78.3618 133.699 78.6284C133.828 78.3833 133.866 75.029 134.021 75.0548C134.751 75.2797 135.446 75.6054 136.085 76.0224C136.55 71.6618 136.318 67.2626 136.847 62.9278C136.847 62.8936 136.86 62.8608 136.884 62.8366C136.908 62.8124 136.941 62.7988 136.976 62.7988C137.01 62.7988 137.043 62.8124 137.067 62.8366C137.091 62.8608 137.105 62.8936 137.105 62.9278C137.511 67.6532 137.442 72.4074 136.898 77.119C136.859 77.635 135.04 76.4868 134.692 76.2288Z" fill="#263238"/>
<path d="M133.195 78.8608C132.52 79.4584 131.703 79.8716 130.821 80.0606C130.337 80.155 129.835 80.0917 129.389 79.88C128.409 79.4156 128.564 78.4738 128.912 77.6997C129.099 77.2953 129.333 76.9143 129.609 76.5645C130.528 77.6936 131.785 78.4984 133.195 78.8608Z" fill="#263238"/>
<path d="M130.873 80.0611C130.389 80.1554 129.887 80.0921 129.441 79.8805C128.461 79.416 128.615 78.4743 128.964 77.7002C129.5 77.824 129.979 78.1237 130.325 78.5516C130.671 78.9795 130.864 79.5109 130.873 80.0611Z" fill="#FF9BBC"/>
<path d="M107.587 67.353C109.024 67.1048 110.373 66.4899 111.503 65.5678C112.633 64.6457 113.506 63.4476 114.037 62.0894C117.933 61.6031 121.628 60.0892 124.745 57.7031C124.487 58.0643 122.668 60.7219 121.701 62.0378C134.898 63.4182 141.607 54.9939 141.607 54.9939C143.343 57.903 144.402 61.1661 144.703 64.5406C144.703 64.5406 147.077 56.9032 144.703 50.5946C143.956 48.4284 142.646 46.5002 140.907 45.0083C139.168 43.5163 137.063 42.5145 134.808 42.1057C131.94 40.4398 128.676 39.5775 125.359 39.6092C122.042 39.641 118.795 40.5658 115.96 42.2863C105.226 48.724 107.587 67.353 107.587 67.353Z" fill="#263238"/>
<path d="M131.905 62.7989C129.57 63.2964 127.175 63.4485 124.797 63.2505C128.598 63.34 132.348 62.3611 135.621 60.4251C137.031 59.6032 138.331 58.6062 139.491 57.4579C140.791 56.2526 141.839 54.8012 142.574 53.1877C142.583 53.1637 142.6 53.1441 142.623 53.1333C142.635 53.1279 142.647 53.1248 142.66 53.1241C142.672 53.1235 142.685 53.1254 142.697 53.1296C142.709 53.1338 142.72 53.1404 142.729 53.1488C142.738 53.1573 142.746 53.1675 142.751 53.1789C142.757 53.1902 142.76 53.2026 142.76 53.2151C142.761 53.2277 142.759 53.2403 142.755 53.2522C142.204 54.9267 141.375 56.4967 140.304 57.8965C139.178 59.2357 137.819 60.3591 136.291 61.2121C134.929 61.9517 133.47 62.4988 131.957 62.8376" fill="#263238"/>
<path d="M110.851 68.2815C110.851 68.2815 107.923 61.0441 104.736 61.9471C101.55 62.8502 102.736 72.6421 105.781 74.6417C106.153 74.9241 106.578 75.1284 107.031 75.2425C107.484 75.3567 107.955 75.3782 108.416 75.306C108.878 75.2337 109.32 75.0691 109.716 74.8219C110.112 74.5748 110.454 74.2502 110.722 73.8677L110.851 68.2815Z" fill="#FFBB96"/>
<path d="M105.148 64.7471C105.148 64.7471 105.071 64.7471 105.148 64.8245C107.264 66.3081 107.986 68.6948 108.322 71.1847C108.24 70.9206 108.102 70.6774 107.917 70.4718C107.733 70.2662 107.505 70.1032 107.251 69.994C106.998 69.8848 106.723 69.8321 106.447 69.8394C106.17 69.8467 105.899 69.914 105.651 70.0365C105.587 70.0365 105.651 70.1784 105.651 70.1784C106.095 70.1437 106.538 70.2497 106.918 70.4813C107.297 70.7129 107.595 71.0583 107.767 71.4685C108.067 72.1425 108.292 72.8478 108.438 73.5714C108.502 73.8036 108.902 73.7778 108.876 73.5714V73.5069C109.612 70.4364 108.27 65.7792 105.148 64.7471Z" fill="#263238"/>
<path d="M216.832 181.656H132.421V185.436H216.832V181.656Z" fill="#C7C7C7"/>
<path d="M216.833 181.656V185.436H159.462L162.352 181.656H216.833Z" fill="#A6A6A6"/>
<path d="M165.989 185.436H248.259L255.11 129.562H172.84L165.989 185.436Z" fill="#C7C7C7"/>
<path d="M205.544 157.505C205.53 158.158 205.647 158.808 205.888 159.415C206.129 160.023 206.489 160.576 206.947 161.043C207.405 161.509 207.952 161.879 208.555 162.131C209.158 162.383 209.806 162.512 210.459 162.51C211.79 162.494 213.064 161.964 214.013 161.032C214.963 160.099 215.515 158.835 215.555 157.505C215.571 156.851 215.455 156.2 215.215 155.592C214.974 154.983 214.614 154.43 214.156 153.963C213.698 153.496 213.15 153.126 212.546 152.875C211.942 152.623 211.294 152.495 210.64 152.499C209.309 152.515 208.036 153.045 207.086 153.978C206.136 154.911 205.584 156.174 205.544 157.505Z" fill="white"/>
<path d="M212.895 30.7853C212.369 35.841 210.447 40.6509 207.346 44.6779C204.244 48.7048 200.084 51.7904 195.33 53.5901C190.576 55.3898 185.416 55.8327 180.425 54.8695C175.434 53.9062 170.809 51.5746 167.066 48.1351L153.338 50.1587L160.236 38.2932C158.66 34.4312 157.985 30.2605 158.262 26.0984C158.54 21.9362 159.763 17.8922 161.839 14.2739C163.914 10.6556 166.788 7.55825 170.241 5.21749C173.693 2.87672 177.635 1.35417 181.764 0.765627C185.894 0.17709 190.103 0.538073 194.073 1.82111C198.042 3.10414 201.666 5.27544 204.67 8.16987C207.674 11.0643 209.978 14.6056 211.407 18.5245C212.837 22.4434 213.353 26.6366 212.918 30.7853H212.895Z" fill="white"/>
<path d="M204.893 7.92801C200.304 3.46582 194.325 0.710054 187.952 0.119503C181.578 -0.471049 175.195 1.13924 169.864 4.68229C164.534 8.22535 160.577 13.4874 158.654 19.5924C156.731 25.6973 156.957 32.2769 159.294 38.2357L152.165 50.6416C152.14 50.6894 152.127 50.7427 152.127 50.7968C152.127 50.8509 152.14 50.9041 152.165 50.952C152.196 50.9977 152.24 51.0331 152.291 51.0536C152.343 51.0741 152.399 51.0788 152.453 51.067L166.848 48.8364C170.657 52.2101 175.317 54.4766 180.323 55.3901C181.583 55.624 182.859 55.7585 184.14 55.7925C184.531 55.7925 184.922 55.7925 185.29 55.7925C185.98 55.7925 186.658 55.7925 187.325 55.712H188.003C190.559 55.4807 193.068 54.8844 195.454 53.9414C197.844 53.0237 200.093 51.7735 202.134 50.2277C202.883 49.6913 203.593 49.1035 204.261 48.4685L205.077 47.7212L205.836 46.9049C206.466 46.264 207.047 45.576 207.572 44.8468C210.703 40.7718 212.641 35.908 213.172 30.7967C213.598 26.6079 213.075 22.3768 211.642 18.4178C210.209 14.4587 207.902 10.8734 204.893 7.92801ZM212.597 30.7622C212.052 35.7591 210.125 40.5052 207.032 44.4674C206.512 45.1693 205.943 45.834 205.33 46.4564C205.066 46.7209 204.813 46.9968 204.583 47.2498L203.778 47.9626C203.128 48.5782 202.433 49.1433 201.697 49.6528C199.703 51.1461 197.498 52.3356 195.155 53.1825C192.828 54.0415 190.395 54.5792 187.923 54.7807H187.256C186.234 54.8553 185.208 54.8553 184.186 54.7807C182.953 54.7314 181.727 54.5814 180.518 54.3323C175.652 53.3731 171.152 51.071 167.526 47.6867L167.4 47.5602C167.345 47.5121 167.276 47.4838 167.204 47.4797L154.856 49.2159L161.099 38.5231C161.119 38.484 161.13 38.4406 161.13 38.3966C161.13 38.3526 161.119 38.3093 161.099 38.2701L161.007 38.0287C159.5 34.2798 158.848 30.2419 159.098 26.2092C159.355 22.1635 160.535 18.2304 162.548 14.7116C164.583 11.2027 167.357 8.17803 170.676 5.84695C174.025 3.54107 177.855 2.02733 181.875 1.42037C185.916 0.807685 190.044 1.11823 193.948 2.32869C199.851 4.20206 204.928 8.05235 208.325 13.2312C211.722 18.4101 213.23 24.6013 212.597 30.7622Z" fill="#263238"/>
<path d="M175.011 29.0257C175.013 29.6175 174.84 30.1965 174.513 30.6897C174.186 31.1828 173.719 31.5677 173.173 31.7957C172.627 32.0238 172.026 32.0846 171.445 31.9706C170.865 31.8565 170.331 31.5727 169.912 31.1551C169.493 30.7375 169.207 30.2049 169.09 29.6247C168.974 29.0445 169.033 28.4428 169.259 27.8959C169.484 27.349 169.868 26.8815 170.359 26.5525C170.851 26.2235 171.43 26.0479 172.021 26.0479C172.812 26.0478 173.571 26.3612 174.131 26.9194C174.692 27.4775 175.008 28.2349 175.011 29.0257Z" fill="#263238"/>
<path d="M185.945 32.0036C187.59 32.0036 188.923 30.6704 188.923 29.0257C188.923 27.3811 187.59 26.0479 185.945 26.0479C184.301 26.0479 182.967 27.3811 182.967 29.0257C182.967 30.6704 184.301 32.0036 185.945 32.0036Z" fill="#263238"/>
<path d="M199.869 32.0036C201.514 32.0036 202.847 30.6704 202.847 29.0257C202.847 27.3811 201.514 26.0479 199.869 26.0479C198.224 26.0479 196.891 27.3811 196.891 29.0257C196.891 30.6704 198.224 32.0036 199.869 32.0036Z" fill="#263238"/>
</svg>
