<svg width="357" height="422" viewBox="0 0 357 422" fill="none" xmlns="http://www.w3.org/2000/svg">
<path d="M190.022 422.001C250.813 422.001 300.095 417.572 300.095 412.109C300.095 406.646 250.813 402.217 190.022 402.217C129.23 402.217 79.9482 406.646 79.9482 412.109C79.9482 417.572 129.23 422.001 190.022 422.001Z" fill="#EBEBEB"/>
<path d="M63.2529 388.661L99.9504 388.411L136.654 388.317L210.056 388.14L283.458 388.317L320.155 388.411L356.859 388.661L320.155 388.922L283.458 389.006L210.056 389.183L136.654 389.006L99.9504 388.922L63.2529 388.661Z" fill="#263238"/>
<path d="M60.6768 322.781C60.6768 322.781 78.6345 318.702 88.4847 309.634C98.3348 300.566 103.834 284.31 103.834 284.31C97.0052 285.614 90.2734 287.382 83.6848 289.6C81.214 292.135 79.1576 295.044 77.5911 298.219C77.4221 296.167 77.4046 294.106 77.5389 292.052C75.2411 293.055 73.0894 294.364 71.1425 295.944C62.9828 303.081 60.6768 322.781 60.6768 322.781Z" fill="#3ACC6C"/>
<path d="M92.6166 292.209C95.0582 290.508 97.5521 288.88 99.9938 287.169C100.026 287.149 100.048 287.118 100.057 287.082C100.066 287.046 100.06 287.007 100.041 286.976C100.021 286.944 99.9901 286.921 99.9539 286.912C99.9177 286.903 99.8795 286.909 99.8477 286.929C95.2148 289.694 90.6549 292.647 86.2828 295.746C84.7385 296.789 83.2256 297.948 81.7334 299.085L82.0464 298.553C82.589 297.655 83.1525 296.768 83.7264 295.881C84.8509 294.084 86.125 292.384 87.535 290.8C87.5872 290.737 87.535 290.654 87.4515 290.706C86.0533 292.323 84.6551 293.92 83.3716 295.631C82.7664 296.445 82.203 297.29 81.6708 298.146C81.3891 298.594 81.1178 299.043 80.8569 299.502L80.5961 299.972C78.2692 301.798 76.0049 303.697 73.845 305.711C72.5233 306.949 71.2398 308.232 69.9946 309.561C70.6833 307.391 71.2885 305.189 72.0815 303.05C72.0815 302.977 71.998 302.946 71.9667 303.05C71.1842 305.293 70.3285 307.547 69.7233 309.864C68.3321 311.345 67.0208 312.886 65.7895 314.486C65.809 314.388 65.8333 314.29 65.8626 314.194C66.0608 313.349 66.2695 312.504 66.4991 311.669C66.9373 310.041 67.4173 308.424 67.9599 306.838C68.9932 303.525 70.6313 300.433 72.7911 297.718C72.8432 297.655 72.7911 297.572 72.6972 297.634C69.3327 301.833 66.9798 306.749 65.8208 312.003C65.6226 312.764 65.4452 313.537 65.2678 314.298C65.1843 314.705 65.0696 315.123 65.007 315.54C64.4644 316.281 63.9635 317.022 63.4209 317.783C60.3585 322.463 57.8083 327.459 55.8142 332.684C53.572 338.558 51.6493 344.549 50.0543 350.631C50.0474 350.656 50.0507 350.683 50.0634 350.705C50.0761 350.728 50.0973 350.744 50.1222 350.751C50.1471 350.758 50.1737 350.755 50.1962 350.742C50.2187 350.729 50.2352 350.708 50.2421 350.683C53.7586 340.165 57.348 329.501 63.3583 320.11C64.6313 318.128 65.9982 316.215 67.459 314.371C70.4338 314.174 73.3701 313.589 76.1927 312.629C79.2768 311.593 82.2181 310.174 84.9472 308.403C86.5022 307.353 87.9999 306.221 89.434 305.012C89.4434 305.008 89.4518 305.003 89.4586 304.996C89.4653 304.988 89.4703 304.98 89.473 304.97C89.4758 304.961 89.4763 304.951 89.4744 304.941C89.4726 304.931 89.4684 304.922 89.4623 304.914C89.4563 304.906 89.4484 304.9 89.4395 304.896C89.4305 304.892 89.4207 304.89 89.4108 304.89C89.4009 304.89 89.3912 304.893 89.3826 304.898C89.3739 304.903 89.3666 304.91 89.361 304.918C86.8533 306.94 84.084 308.614 81.1282 309.895C78.2231 311.231 75.1833 312.253 72.0606 312.942C70.7355 313.224 69.3894 313.443 68.0434 313.62C69.7105 311.577 71.4796 309.62 73.3441 307.756C73.9493 307.151 74.5754 306.566 75.2014 305.982C77.2991 304.52 79.5236 303.249 81.8482 302.184C84.7907 300.754 87.6811 299.252 90.6027 297.77C92.2409 296.935 93.8792 296.08 95.5278 295.266C95.6008 295.266 95.5278 295.13 95.4652 295.161C92.5122 296.591 89.5175 297.927 86.5333 299.335C83.7264 300.619 80.8882 301.902 78.1857 303.415L77.8414 303.624C80.2726 301.537 82.7977 299.45 85.375 297.541C87.7471 295.69 90.161 293.913 92.6166 292.209Z" fill="#263238"/>
<path d="M91.5938 301.464C90.133 302.111 88.6408 302.674 87.2009 303.353C85.7609 304.031 84.3001 304.866 82.8914 305.7C82.8288 305.7 82.8915 305.826 82.9436 305.794C84.3836 305.106 85.8339 304.469 87.253 303.707C88.6721 302.946 90.133 302.194 91.6251 301.547C91.6668 301.558 91.6668 301.433 91.5938 301.464Z" fill="#263238"/>
<path d="M2.31641 232.241C5.63278 236.525 7.51002 241.748 7.67974 247.163C7.74235 248.78 7.49191 251.023 7.30409 253.663C11.7867 256.262 15.7577 259.656 19.022 263.68C15.4271 261.592 11.2982 260.605 7.14757 260.842C7.23893 262.648 7.46917 264.445 7.83625 266.216C10.4487 266.218 13.0358 266.729 15.4534 267.718C13.0916 267.696 10.7507 268.161 8.57709 269.085C11.7805 279.269 21.2967 289.735 47.5916 294.128C50.3802 281.631 48.7311 268.552 42.9274 257.138C35.0911 241.705 2.31641 232.241 2.31641 232.241Z" fill="#3ACC6C"/>
<path d="M56.7114 337.776C56.2662 333.428 55.6993 329.091 55.0106 324.764C53.6788 316.103 51.9096 307.515 49.7099 299.033C48.6775 295.052 47.4128 291.136 45.9222 287.304C45.9947 286.611 46.0261 285.914 46.0161 285.217C46.0161 284.372 46.0161 283.527 46.0161 282.692C46.0161 281.002 45.9222 279.322 45.7761 277.642C45.5139 274.319 44.9729 271.024 44.1588 267.792C43.6788 265.914 43.1153 264.077 42.5727 262.22C42.5679 262.209 42.5598 262.199 42.5496 262.192C42.5395 262.186 42.5275 262.182 42.5153 262.182C42.5031 262.182 42.4912 262.186 42.481 262.192C42.4708 262.199 42.4628 262.209 42.4579 262.22C43.328 265.452 43.9765 268.739 44.3988 272.059C44.8686 275.332 45.1612 278.627 45.2753 281.93C45.2753 282.828 45.3274 283.736 45.3274 284.633C45.3274 285.019 45.3274 285.405 45.3274 285.802C44.037 282.659 42.5596 279.596 40.9032 276.63C38.2313 271.933 35.2254 267.435 31.9087 263.169C31.8987 262.672 31.8251 262.177 31.6896 261.698C31.5643 261.114 31.4391 260.529 31.3035 259.945C31.0426 258.745 30.74 257.545 30.4061 256.356C29.7592 253.976 28.8931 251.67 28.1523 249.323C28.1564 249.313 28.1582 249.303 28.1573 249.292C28.1564 249.282 28.1529 249.272 28.1472 249.263C28.1416 249.255 28.1338 249.248 28.1246 249.243C28.1155 249.238 28.1053 249.235 28.0949 249.235C28.0845 249.235 28.0743 249.238 28.0651 249.243C28.056 249.248 28.0482 249.255 28.0425 249.263C28.0368 249.272 28.0334 249.282 28.0325 249.292C28.0316 249.303 28.0333 249.313 28.0375 249.323C28.7262 251.65 29.1853 254.06 29.7175 256.429C29.9887 257.597 30.2392 258.776 30.5 259.945L30.8757 261.708C30.8757 261.708 30.8757 261.792 30.8757 261.844C29.8322 260.498 28.7366 259.173 27.6201 257.879C22.6011 251.994 17.1022 246.558 11.5615 241.184C10.8832 240.516 10.1841 239.869 9.47457 239.222C9.47026 239.213 9.46384 239.205 9.45585 239.199C9.44786 239.193 9.43853 239.189 9.42866 239.187C9.41878 239.186 9.40865 239.186 9.3991 239.189C9.38956 239.192 9.38087 239.198 9.37379 239.205C9.36671 239.212 9.36144 239.221 9.35841 239.23C9.35537 239.24 9.35468 239.25 9.35637 239.26C9.35806 239.27 9.36208 239.279 9.36812 239.287C9.37416 239.295 9.38204 239.301 9.39108 239.306C14.6814 244.825 19.8882 250.418 24.8341 256.262C26.0028 257.649 27.161 259.058 28.2879 260.435C27.6932 260.028 27.088 259.642 26.4932 259.246C24.9698 258.255 23.415 257.274 21.829 256.387C20.2429 255.5 18.6256 254.613 16.9874 253.799C15.3492 252.985 13.4918 252.286 11.8745 251.347C11.8014 251.347 11.7388 251.42 11.8119 251.451C13.473 252.219 15.0771 253.105 16.6118 254.102C18.2082 255.051 19.8047 256.011 21.3803 257.002C22.9559 257.994 24.5107 258.954 26.0028 259.945C27.2862 260.78 28.5488 261.688 29.874 262.46C32.9193 266.374 35.7311 270.464 38.2946 274.71C39.8842 277.385 41.3364 280.14 42.6458 282.963L41.7067 282.557L39.2963 281.513C37.752 280.824 36.166 280.157 34.6425 279.478C31.7 278.195 28.7053 277.016 25.815 275.618C24.1842 274.851 22.6084 273.972 21.0986 272.988C21.0255 272.988 20.9734 273.051 21.036 273.103C26.4201 276.818 32.4617 279.437 38.4302 282.077L41.018 283.214C41.7275 283.527 42.4371 283.882 43.1675 284.153C44.9391 288.104 46.4247 292.177 47.6126 296.34C49.9716 304.708 51.8804 313.197 53.3307 321.769C54.8437 330.346 55.8558 338.997 56.6488 347.668C56.7532 348.711 56.8471 349.838 56.9723 350.923C56.9863 351.003 57.028 351.075 57.0901 351.127C57.1521 351.179 57.2305 351.208 57.3114 351.208C57.3924 351.208 57.4708 351.179 57.5328 351.127C57.5948 351.075 57.6365 351.003 57.6505 350.923C57.6297 346.572 57.1706 342.158 56.7114 337.776Z" fill="#263238"/>
<path d="M40.7263 265.194C40.2464 262.512 39.5264 259.903 38.8064 257.284C38.8064 257.211 38.6708 257.284 38.6916 257.284C39.3594 259.851 39.8394 262.502 40.3194 265.069C40.7994 267.635 41.2481 270.401 41.6237 273.072H41.6967C41.5184 270.43 41.1944 267.8 40.7263 265.194Z" fill="#263238"/>
<path d="M29.3946 272.435C27.5667 271.23 25.6559 270.156 23.6765 269.221C22.727 268.72 21.7566 268.251 20.7862 267.781C19.8157 267.312 18.6993 266.894 17.7497 266.394C17.6767 266.394 17.6245 266.467 17.6871 266.498C18.6471 266.988 19.5653 267.541 20.5044 268.084C21.4435 268.627 22.4452 269.127 23.4261 269.68C25.346 270.724 27.2347 271.851 29.2589 272.696C29.2935 272.714 29.3339 272.718 29.371 272.706C29.4082 272.694 29.4392 272.668 29.4572 272.633C29.4752 272.599 29.4787 272.558 29.4669 272.521C29.4552 272.484 29.4292 272.453 29.3946 272.435Z" fill="#263238"/>
<path opacity="0.1" d="M61 291.655C61 291.655 77.6221 287.69 85.2602 276.535C92.5643 265.882 94.9016 247.736 95.0895 246.14C94.7868 247.6 91.3539 263.461 80.0429 270.859C71.3719 276.525 63.0034 281.179 61 291.655Z" fill="#263238"/>
<path d="M76.3389 262.94C73.386 265.658 71.2625 269.156 70.2139 273.03C70.2139 273.03 70.2139 273.082 70.266 273.03C71.4856 269.243 73.5969 265.804 76.4224 263.002C76.4331 262.999 76.4425 262.992 76.4497 262.983C76.4569 262.975 76.4616 262.964 76.4633 262.953C76.465 262.942 76.4636 262.93 76.4594 262.92C76.4551 262.909 76.448 262.9 76.439 262.893C76.4299 262.887 76.4192 262.882 76.4079 262.881C76.3967 262.88 76.3853 262.882 76.375 262.887C76.3648 262.891 76.356 262.899 76.3496 262.908C76.3433 262.918 76.3396 262.929 76.3389 262.94Z" fill="#263238"/>
<path d="M61.0003 291.655C61.0003 291.655 77.6224 287.69 85.2604 276.536C92.5646 265.882 94.9019 247.737 95.0897 246.14C95.0865 246.102 95.0865 246.064 95.0897 246.025C95.0897 246.025 87.1178 257.357 78.7389 260.248C70.36 263.138 58.6004 273.134 61.0003 291.655Z" fill="#3ACC6C"/>
<path d="M92.1575 252.275C90.6728 255.331 88.9566 258.268 87.0238 261.061C85.0811 263.713 82.7771 266.08 80.1787 268.094C77.9249 269.889 75.5354 271.517 73.2503 273.311V273.238C73.6781 272.602 74.1372 271.976 74.6172 271.37C75.5667 270.16 76.5997 269.012 77.6536 267.875C79.7405 265.632 81.8274 263.43 83.6743 261.009C84.7076 259.67 85.6026 258.23 86.3455 256.71C86.3455 256.647 86.2621 256.606 86.2308 256.71C83.5282 262.324 78.144 265.924 74.3041 270.661C73.7542 271.327 73.2421 272.024 72.7703 272.748C72.3877 273.273 72.0657 273.84 71.8103 274.438C69.7043 276.123 67.7996 278.045 66.134 280.167C66.2861 279.079 66.5092 278.002 66.8018 276.942C67.1963 275.477 67.7896 274.073 68.5652 272.769C68.5652 272.706 68.5026 272.633 68.4713 272.706C67.6602 274.015 67.0086 275.416 66.5305 276.88C66.179 278.046 65.9757 279.252 65.9252 280.469C65.1015 281.58 64.3521 282.745 63.6818 283.954C63.7444 283.6 63.8175 283.245 63.8801 282.911C64.214 281.262 64.5792 279.603 65.007 277.976C65.7902 274.639 67.1421 271.462 69.0034 268.584C69.0556 268.522 68.9513 268.459 68.9095 268.522C66.9986 271.347 65.5051 274.432 64.4749 277.683C63.9427 279.311 63.5253 280.97 63.1497 282.65C62.9619 283.464 62.8054 284.288 62.6488 285.102C62.5654 285.53 62.4715 285.968 62.3984 286.407C60.7518 290.027 59.469 293.802 58.569 297.676C56.9385 304.598 55.7535 311.617 55.0212 318.691C54.1696 326.099 53.7863 333.554 53.8734 341.01C53.8734 341.949 53.9465 342.878 53.9986 343.817C53.9986 344.057 54.3743 344.088 54.3847 343.817C54.5517 340.123 54.6456 336.44 54.8647 332.746C55.0839 329.052 55.3969 325.379 55.7934 321.706C56.5561 314.484 57.7125 307.308 59.2576 300.211C60.6037 294.139 62.388 288.013 65.6748 282.692C67.328 280.045 69.348 277.645 71.6747 275.565C74.0015 273.478 76.558 271.631 78.9788 269.701C81.4651 267.812 83.7237 265.641 85.709 263.232C87.742 260.544 89.5135 257.669 90.9993 254.644C91.3854 253.893 91.7923 253.141 92.1888 252.39C92.3036 252.275 92.1993 252.202 92.1575 252.275Z" fill="#263238"/>
<path d="M0.000371096 284.31C0.000371096 284.31 -0.270926 307.933 13.8574 314.747C27.9856 321.561 35.5611 315.884 45.1608 318.169C44.7851 317.606 37.9401 307.735 27.0361 305.053C15.8086 302.246 3.39158 294.149 0.000371096 284.31Z" fill="#3ACC6C"/>
<path opacity="0.1" d="M0.000371096 284.31C0.000371096 284.31 -0.270926 307.933 13.8574 314.747C27.9856 321.561 35.5611 315.884 45.1608 318.169C40.0753 315.755 34.6425 314.153 29.0604 313.422C20.1702 312.347 3.15158 306.545 0.000371096 284.31Z" fill="black"/>
<path d="M46.0899 318.597C44.4065 317.066 42.5126 315.783 40.4657 314.788C40.1631 314.642 39.85 314.528 39.5474 314.392C39.2448 314.256 39.2344 314.027 39.0675 313.849C38.6501 313.411 38.2014 312.994 37.7423 312.587C36.8589 311.81 35.9092 311.111 34.9041 310.5C32.5564 309.123 29.9999 308.163 27.6 306.879C27.5374 306.879 27.4747 306.952 27.5478 306.994C28.7269 307.599 29.8747 308.277 31.0225 308.956C32.1703 309.634 33.2868 310.229 34.3719 310.928C35.3515 311.557 36.2859 312.255 37.1684 313.015C37.4188 313.234 37.6588 313.474 37.8988 313.714C36.3352 313.186 34.7388 312.761 33.1198 312.441C30.5321 311.919 27.9026 311.554 25.3357 311.001C24.0692 310.72 22.8187 310.372 21.5897 309.957C20.421 309.018 19.2524 308.079 18.1359 307.056C16.7976 305.821 15.5751 304.466 14.4838 303.008C14.4838 302.945 14.3378 303.008 14.3899 303.071C16.1011 305.385 18.0375 307.524 20.1706 309.456C19.5654 309.227 18.9602 308.976 18.3655 308.705C13.5199 306.526 9.36033 303.066 6.33451 298.698C6.33451 298.625 6.18842 298.698 6.23016 298.761C8.79212 302.53 12.1069 305.727 15.9655 308.152C17.8991 309.356 19.9648 310.332 22.1219 311.063C24.6229 311.842 27.1751 312.445 29.7599 312.868C32.2976 313.279 34.8016 313.875 37.2519 314.653C39.4998 315.414 41.6129 316.527 43.5126 317.95C47.1264 320.756 50.0379 324.364 52.0166 328.489C54.5393 333.939 56.1131 339.779 56.6704 345.758C56.6704 346.019 57.0982 346.019 57.0774 345.758C56.3887 335.824 53.7383 325.494 46.0899 318.597Z" fill="#263238"/>
<path d="M29.6966 310.886C28.9561 309.784 27.9564 308.881 26.7854 308.256C25.444 307.559 24.2665 306.585 23.3316 305.397C23.3316 305.334 23.1855 305.397 23.2272 305.46C24.0728 306.548 25.1086 307.474 26.2845 308.193C27.5678 308.874 28.6973 309.812 29.6027 310.948C29.611 310.961 29.6239 310.969 29.6386 310.972C29.6532 310.975 29.6685 310.972 29.6809 310.964C29.6934 310.956 29.7021 310.943 29.705 310.928C29.7079 310.913 29.7049 310.898 29.6966 310.886Z" fill="#263238"/>
<path d="M37.1885 336.033L37.825 349.024L39.7971 388.706H69.431L71.4031 349.024L72.0396 336.033H37.1885Z" fill="#37474F"/>
<path d="M37.1885 336.033L37.825 349.024H71.4031L72.0396 336.033H37.1885Z" fill="#263238"/>
<path d="M35.1017 343.003H74.1162V330.607H35.1017V343.003Z" fill="#37474F"/>
<path d="M261.789 405.742C259.358 406.525 189.979 405.648 187.36 403.937C186.317 403.3 185.889 393.179 185.68 380.981V380.595C185.68 378.08 185.597 375.482 185.597 372.853C185.597 372.487 185.597 372.122 185.597 371.757L188.957 335.769L235.359 336.228L230.788 371.882L230.736 373.291L230.454 380.668V381.43C230.454 381.43 256.854 393.649 259.535 395.829C262.217 398.01 264.22 404.97 261.789 405.742Z" fill="#AD6359"/>
<path d="M261.789 405.743C259.358 406.525 189.979 405.649 187.36 403.938C186.317 403.301 185.889 393.18 185.68 380.982V380.596C185.68 378.081 185.597 375.483 185.597 372.853C185.597 372.488 185.597 372.123 185.597 371.758L230.788 371.883L230.736 373.292L230.454 380.669V381.431C230.454 381.431 256.854 393.649 259.535 395.83C262.217 398.011 264.22 404.971 261.789 405.743Z" fill="#EBEBEB"/>
<path d="M261.789 405.743C260.537 406.139 241.693 406.108 223.265 405.743C219.561 405.67 215.878 405.586 212.372 405.492C199.224 405.138 188.372 404.595 187.329 403.938C186.286 403.28 185.879 393.503 185.67 381.462C185.67 381.295 185.67 381.117 185.67 380.951C185.67 380.784 185.67 380.69 185.67 380.564L230.382 380.637V381.399C230.382 381.399 256.791 393.608 259.473 395.799C262.155 397.99 264.221 404.96 261.789 405.743Z" fill="#37474F"/>
<path d="M261.038 403.041C249.341 402.602 202.146 401.997 190.553 402.404C190.459 402.404 190.459 402.477 190.553 402.488C202.135 403.166 249.341 403.437 261.038 403.239C261.278 403.228 261.288 403.051 261.038 403.041Z" fill="#263238"/>
<path d="M235.432 380.826C230.841 379.907 225.196 380.533 221.638 383.768C221.502 383.893 221.638 384.092 221.836 384.05C226.25 382.683 230.797 381.794 235.401 381.399C235.469 381.391 235.531 381.359 235.578 381.309C235.624 381.259 235.652 381.194 235.656 381.126C235.659 381.057 235.639 380.99 235.598 380.935C235.557 380.88 235.499 380.842 235.432 380.826Z" fill="#263238"/>
<path d="M238.74 382.86C234.149 381.942 228.503 382.578 224.945 385.813C224.81 385.938 224.945 386.136 225.144 386.094C229.557 384.728 234.105 383.839 238.708 383.444C238.786 383.448 238.862 383.421 238.92 383.37C238.977 383.318 239.012 383.245 239.016 383.168C239.02 383.09 238.994 383.014 238.942 382.956C238.89 382.899 238.817 382.864 238.74 382.86Z" fill="#263238"/>
<path d="M242.027 384.905C237.436 383.986 231.791 384.623 228.232 387.858C228.097 387.983 228.232 388.181 228.431 388.129C232.846 386.77 237.393 385.885 241.996 385.489C242.073 385.493 242.149 385.466 242.207 385.415C242.264 385.363 242.299 385.29 242.303 385.212C242.307 385.135 242.281 385.059 242.229 385.001C242.177 384.944 242.104 384.909 242.027 384.905Z" fill="#263238"/>
<path d="M223.265 405.732C219.561 405.659 215.878 405.576 212.372 405.482C199.224 405.127 188.372 404.584 187.329 403.927C186.286 403.27 185.879 393.492 185.67 381.451C185.67 381.284 185.67 381.107 185.67 380.94C185.67 380.773 185.67 380.679 185.67 380.554C191.858 384.842 213.446 399.211 223.265 405.732Z" fill="#263238"/>
<path d="M233.116 380.783H183.156C183.156 380.783 193.194 264.095 192.828 262.091C192.327 259.483 189.375 247.671 185.441 232.238C184.209 227.417 182.884 222.231 181.507 216.868C177.771 202.343 173.66 186.483 170.029 172.678C164.655 151.945 160.481 135.834 160.481 135.834H202.825C202.825 135.834 207.77 151.486 213.989 171.823C224.132 204.91 237.686 250.436 239.032 261.496C241.192 279.412 233.116 380.783 233.116 380.783Z" fill="#263238"/>
<path d="M230.903 372.258C223.276 372.101 225.467 372.039 217.839 371.966C214.104 371.966 189.552 371.726 186.066 372.3C185.993 372.3 185.993 372.446 186.066 372.456C189.562 373.03 214.104 372.811 217.839 372.78C225.467 372.707 223.276 372.644 230.903 372.477C230.927 372.47 230.947 372.455 230.962 372.436C230.976 372.416 230.984 372.392 230.984 372.368C230.984 372.343 230.976 372.319 230.962 372.3C230.947 372.28 230.927 372.265 230.903 372.258Z" fill="#37474F"/>
<path d="M202.219 254.923C200.581 247.691 198.128 240.617 195.958 233.532C191.617 219.118 187.256 204.719 182.873 190.333C180.682 183.14 178.484 175.947 176.279 168.755C175.166 165.137 174.042 161.51 172.908 157.871C171.792 154.334 170.529 150.818 169.517 147.239C169.11 145.778 168.891 146.581 169.413 148.428C170.456 152.153 171.5 155.889 172.543 159.604C174.7 166.963 176.866 174.32 179.044 181.673C183.385 196.281 187.757 210.91 192.16 225.56C194.358 232.885 196.567 240.213 198.786 247.545C199.9 251.032 200.803 254.583 201.488 258.178C202.077 261.943 202.225 265.763 201.927 269.562C201.457 277.2 200.57 284.838 199.84 292.466C199.109 300.093 198.431 307.752 197.753 315.422C196.362 330.635 194.97 345.849 193.579 361.062C193.412 362.982 193.249 364.909 193.089 366.843C193.089 367.49 194.017 367.438 194.132 366.843C195.77 351.796 197.033 336.708 198.441 321.651C199.85 306.594 201.248 291.673 202.615 276.678C202.96 272.912 203.356 269.145 203.367 265.357C203.375 261.847 202.99 258.347 202.219 254.923Z" fill="#37474F"/>
<path d="M198.046 135.834C195.103 158.571 189.51 201.216 185.43 232.155C175.851 194.716 160.481 135.834 160.481 135.834H198.046Z" fill="#37474F"/>
<path d="M207.948 406.421C205.516 407.214 136.138 406.588 133.519 404.887C132.475 404.251 132.006 394.14 131.755 381.932V381.546C131.755 379.031 131.651 376.433 131.64 373.793C131.64 373.438 131.64 373.073 131.64 372.749C131.484 355.084 132.746 336.761 132.746 336.761L178.105 337.042L176.843 372.708V374.116L176.592 381.493V382.255C176.592 382.255 203.044 394.38 205.736 396.55C208.428 398.721 210.379 405.639 207.948 406.421Z" fill="#AD6359"/>
<path d="M207.948 406.421C205.517 407.214 136.138 406.588 133.519 404.887C132.475 404.251 132.006 394.14 131.755 381.931V381.545C131.755 379.031 131.651 376.432 131.641 373.792C131.641 373.438 131.641 373.072 131.641 372.749H176.843V374.158L176.592 381.535V382.297C176.592 382.297 203.044 394.421 205.736 396.592C208.428 398.762 210.379 405.639 207.948 406.421Z" fill="#EBEBEB"/>
<path d="M207.947 406.421C205.516 407.214 136.137 406.588 133.518 404.887C132.475 404.25 132.005 394.139 131.755 381.931V381.545L176.519 381.451V382.213C176.519 382.213 202.97 394.338 205.662 396.508C208.354 398.678 210.379 405.638 207.947 406.421Z" fill="#37474F"/>
<path d="M207.196 403.729C195.499 403.333 148.304 402.853 136.711 403.353C136.617 403.353 136.617 403.416 136.711 403.426C148.293 404.063 195.488 404.167 207.186 403.917C207.436 403.917 207.436 403.739 207.196 403.729Z" fill="#263238"/>
<path d="M181.507 381.597C176.905 380.699 171.27 381.346 167.723 384.602C167.587 384.727 167.775 384.915 167.921 384.873C172.333 383.491 176.88 382.588 181.486 382.181C181.563 382.184 181.639 382.156 181.695 382.103C181.752 382.05 181.786 381.977 181.788 381.899C181.791 381.822 181.763 381.746 181.71 381.69C181.657 381.633 181.584 381.6 181.507 381.597Z" fill="#263238"/>
<path d="M184.804 383.632C180.213 382.724 174.578 383.381 171.031 386.626C170.895 386.752 171.031 386.95 171.218 386.908C175.63 385.524 180.178 384.618 184.783 384.206C184.851 384.195 184.912 384.162 184.958 384.111C185.003 384.06 185.029 383.995 185.032 383.927C185.034 383.859 185.013 383.792 184.971 383.738C184.93 383.684 184.87 383.647 184.804 383.632Z" fill="#263238"/>
<path d="M188.111 385.657C183.52 384.759 177.886 385.417 174.338 388.662C174.192 388.787 174.338 388.985 174.526 388.933C178.939 387.558 183.486 386.655 188.09 386.241C188.168 386.244 188.243 386.216 188.3 386.163C188.357 386.11 188.39 386.037 188.393 385.959C188.396 385.882 188.368 385.806 188.315 385.75C188.262 385.693 188.189 385.659 188.111 385.657Z" fill="#263238"/>
<path d="M201.457 135.834C201.457 135.834 200.487 156.087 195.854 172.136C195.478 173.461 195.082 174.765 194.643 176.028C190.393 177.733 186.31 179.829 182.446 182.288C182.446 182.288 181.955 198.587 181.475 216.774C180.933 237.09 180.38 259.764 180.494 264.575C180.922 282.564 178.272 381.441 178.272 381.441L128.312 381.66C128.312 381.66 137.327 271.19 137.254 264.606C137.16 254.015 139.664 207.216 141.595 173.054C142.784 152.018 143.755 135.803 143.755 135.803L201.457 135.834Z" fill="#263238"/>
<path d="M176.56 372.696C168.922 372.571 171.114 372.498 163.486 372.456C159.75 372.456 135.208 372.331 131.723 372.926C131.707 372.932 131.694 372.942 131.684 372.956C131.674 372.97 131.669 372.987 131.669 373.004C131.669 373.021 131.674 373.038 131.684 373.052C131.694 373.066 131.707 373.076 131.723 373.082C135.208 373.646 159.75 373.322 163.486 373.27C171.124 373.166 168.933 373.114 176.56 372.915C176.578 372.921 176.596 372.922 176.613 372.919C176.631 372.916 176.648 372.909 176.663 372.898C176.677 372.888 176.689 372.874 176.697 372.858C176.705 372.842 176.709 372.824 176.709 372.806C176.709 372.788 176.705 372.77 176.697 372.754C176.689 372.738 176.677 372.724 176.663 372.713C176.648 372.703 176.631 372.696 176.613 372.693C176.596 372.69 176.578 372.691 176.56 372.696Z" fill="#37474F"/>
<path d="M147.96 143.139C147.042 171.019 146.071 198.89 144.83 226.75C143.588 254.61 141.908 282.648 139.612 310.528C138.308 326.118 137.077 348.03 135.438 363.577C135.438 363.682 135.595 363.713 135.605 363.577C139.237 335.926 141.261 301.743 143.035 273.924C144.809 246.106 145.956 218.267 146.916 190.386C147.449 174.63 147.856 158.863 148.325 143.107C148.315 142.878 147.96 142.899 147.96 143.139Z" fill="#37474F"/>
<path d="M196.72 174.859C191.752 176.931 186.975 179.434 182.445 182.341C182.421 182.347 182.399 182.359 182.38 182.375C182.361 182.391 182.346 182.411 182.335 182.433C182.325 182.456 182.32 182.481 182.32 182.506C182.321 182.53 182.327 182.555 182.338 182.577C182.349 182.599 182.365 182.619 182.385 182.634C182.404 182.649 182.427 182.66 182.451 182.666C182.476 182.671 182.501 182.671 182.525 182.665C182.549 182.66 182.572 182.649 182.591 182.633C187.412 180.296 192.327 178.032 197.012 175.433C197.08 175.39 197.129 175.323 197.15 175.246C197.171 175.168 197.163 175.085 197.126 175.014C197.09 174.942 197.028 174.886 196.953 174.858C196.878 174.829 196.794 174.83 196.72 174.859Z" fill="#37474F"/>
<path d="M197.002 157.663C196.668 159.448 196.24 161.201 195.854 162.964C195.468 164.727 195.228 166.313 194.811 167.952C194.457 169.537 193.652 170.986 192.494 172.125C191.847 172.731 191.127 173.263 190.407 173.816C190.032 174.118 189.625 174.4 189.239 174.703C189.291 174.473 189.333 174.233 189.374 173.993L189.719 171.969C189.969 170.477 190.209 168.974 190.439 167.472C190.887 164.529 191.305 161.555 191.92 158.634C191.92 158.609 191.91 158.585 191.893 158.567C191.875 158.55 191.851 158.54 191.826 158.54C191.801 158.54 191.778 158.55 191.76 158.567C191.742 158.585 191.732 158.609 191.732 158.634C191.002 161.524 190.188 164.383 189.552 167.294C189.239 168.724 188.122 175.788 188.07 176.289C188.018 176.79 187.976 177.332 187.955 177.833C187.893 178.36 187.893 178.892 187.955 179.419C187.955 179.544 188.143 179.524 188.195 179.419C188.412 178.93 188.563 178.414 188.644 177.885C188.769 177.374 188.884 176.842 188.978 176.351C188.978 176.174 188.978 175.976 189.061 175.788C189.76 175.371 190.407 174.807 191.054 174.338C191.701 173.868 192.463 173.294 193.141 172.783C194.361 171.742 195.244 170.362 195.677 168.818C196.102 167.155 196.378 165.458 196.501 163.747C196.731 161.743 196.887 159.719 197.169 157.726C197.2 157.59 197.002 157.549 197.002 157.663Z" fill="#37474F"/>
<path d="M180.307 74.271C185.065 86.4689 209.335 115.205 219.227 117.47C226.385 119.118 251.574 109.227 259.567 103.55C261.831 101.943 250.541 73.3737 245.825 76.3579C239.167 80.5317 223.411 89.8706 220.542 89.8706C218.528 89.8706 207.436 82.1491 190.543 68.2921C181.235 60.581 177.5 66.9669 180.307 74.271Z" fill="#FFBB96"/>
<path d="M258.565 103.79C262.029 102.799 280.477 96.3396 284.422 93.731C288.366 91.1224 299.155 82.7853 297.465 79.561C295.774 76.3368 292.414 78.5176 292.414 78.5176C292.414 78.5176 296.421 74.2812 294.418 71.2134C292.414 68.1457 287.312 71.7038 287.312 71.7038C287.312 71.7038 291.1 67.0396 288.888 64.1075C286.676 61.1755 282.137 65.631 282.137 65.631C282.137 65.631 285.799 61.5302 282.961 59.8816C279.538 57.8886 273.632 66.2049 269.073 68.7613C268.029 69.3457 247.16 79.0288 247.16 79.0288L258.565 103.79Z" fill="#FFBB96"/>
<path d="M282.481 65.2449C278.13 71.3491 275.177 73.2586 268.332 76.055C268.306 76.0659 268.285 76.0859 268.273 76.1112C268.261 76.1365 268.258 76.1653 268.266 76.1923C268.274 76.2193 268.291 76.2425 268.315 76.2576C268.338 76.2727 268.367 76.2785 268.395 76.2741C275.333 74.1872 279.392 72.2777 282.794 65.4327C282.951 65.0988 282.69 64.9527 282.481 65.2449Z" fill="#263238"/>
<path d="M287.594 71.2029C282.523 77.1402 279.32 79.2479 272.381 82.6809C272.287 82.6809 272.381 82.9 272.464 82.8582C279.549 80.0409 283.567 78.0897 287.855 71.4847C288.054 71.2029 287.834 70.9316 287.594 71.2029Z" fill="#263238"/>
<path d="M292.008 78.6946C286.676 84.0892 283.274 86.5517 276.106 89.0351C276.088 89.0399 276.071 89.0482 276.057 89.0594C276.042 89.0707 276.03 89.0847 276.021 89.1007C276.002 89.133 275.997 89.1713 276.007 89.2073C276.016 89.2433 276.04 89.2739 276.072 89.2925C276.105 89.3111 276.143 89.3161 276.179 89.3064C283.734 87.4804 288.001 84.444 292.154 78.872C292.436 78.4963 292.342 78.3502 292.008 78.6946Z" fill="#263238"/>
<path d="M242.674 82.7644C242.674 82.7644 246.315 74.1037 248.757 70.6499C251.199 67.1961 265.014 57.6799 267.247 60.5494C270.117 64.2536 263.219 71.3177 259.39 74.3437C259.39 74.3437 266.047 82.9 262.197 89.0459C258.346 95.1918 242.674 82.7644 242.674 82.7644Z" fill="#FFBB96"/>
<path d="M267.695 61.8223C267.883 67.0917 262.603 70.7333 259.108 73.9471C259.053 73.9912 259.009 74.0481 258.982 74.113C258.954 74.1778 258.943 74.2484 258.949 74.3187C258.955 74.3889 258.979 74.4565 259.017 74.5154C259.056 74.5744 259.108 74.6229 259.17 74.6567C261.716 78.4235 264.21 84.4964 262.478 88.9832C262.475 89.0075 262.479 89.0322 262.49 89.0539C262.502 89.0755 262.52 89.0928 262.542 89.1033C262.565 89.1138 262.59 89.117 262.614 89.1122C262.638 89.1075 262.66 89.0952 262.676 89.0771C265.191 84.5172 263.219 78.3609 260.162 74.3958C263.803 71.1715 268.937 67.2795 267.747 61.8223H267.695Z" fill="#263238"/>
<path d="M244.729 73.1231L257.366 109.185C257.366 109.185 227.304 120.663 218.633 118.242C209.962 115.821 187.799 90.6008 180.077 75.2308C175.371 65.8398 180.881 59.5791 191.754 67.8432C202.929 76.3265 218.622 88.0757 219.822 88.4931C221.022 88.9104 244.729 73.1231 244.729 73.1231Z" fill="#FFC727"/>
<path d="M242.913 94.7227C242.141 92.0202 239.146 81.1579 238.614 78.4241C238.614 78.4241 238.614 78.351 238.687 78.4241C239.731 80.9492 242.986 91.5715 243.758 94.274C245.45 99.6431 246.844 105.102 247.932 110.625C247.932 110.719 247.797 110.792 247.755 110.687C245.793 105.46 244.447 100.065 242.913 94.7227Z" fill="#263238"/>
<path opacity="0.1" d="M180.077 75.231C186.338 87.6793 202.073 106.639 212.424 114.642L185.065 64.2957C178.866 62.6887 176.467 68.0625 180.077 75.231Z" fill="black"/>
<path d="M141.459 156.526C141.647 156.703 207.582 153.719 208.24 152.915C209.106 151.767 196.48 78.267 188.039 65.203C185.138 60.7057 172.387 58.8171 168.766 64.2639C144.83 100.586 140.802 155.868 141.459 156.526Z" fill="#DBDBDB"/>
<path d="M170.759 61.749L178.908 95.7654L178.585 178.427L136.982 176.528L141.396 146.571C141.396 146.571 148.7 98.3427 161.389 73.9052C166.742 63.6272 170.759 61.749 170.759 61.749Z" fill="#FFC727"/>
<path opacity="0.1" d="M170.759 61.7705L172.042 89.8914L176.706 93.0739L172.835 100.535L178.699 149.222L178.908 95.7869L170.759 61.7705Z" fill="black"/>
<path d="M186.661 63.377C186.661 63.377 191.492 91.1014 191.753 91.9674C192.014 92.8335 204.755 174.828 204.755 174.828L215.106 170.769L206.956 136.575C206.956 136.575 194.748 69.2724 186.661 63.377Z" fill="#FFC727"/>
<path opacity="0.1" d="M186.661 63.377L195.207 88.1588L193.214 91.9674L197.19 96.1308L199.109 138.536L192.254 94.6074L186.661 63.377Z" fill="black"/>
<path d="M159.855 72.3093C148.064 88.4827 123.731 126.443 131.088 135.104C143.171 149.284 171.782 160.783 181.09 163.642C185.096 164.874 199.694 135.751 195.917 133.32C191.388 130.408 162.328 118.711 162.203 117.355C162.078 115.998 167.65 95.8494 169.507 80.0934C171.959 60.5183 164.77 65.5581 159.855 72.3093Z" fill="#FFBB96"/>
<path d="M186.734 130.805C186.734 130.805 199.443 132.036 207.718 133.236C212.33 133.904 220.145 135.751 223.317 137.785C228.055 140.843 245.919 156.63 242.183 161.044C238.802 165.04 225.175 149.566 225.175 149.566C225.175 149.566 240.305 164.007 235.348 168.066C230.392 172.125 217.328 152.529 217.328 152.529C217.328 152.529 232.542 167.722 226.771 171.103C222.41 173.659 209.575 156.588 209.575 156.588C209.575 156.588 222.566 169.736 218.194 172.553C213.363 175.683 200.529 160.658 200.529 160.658C188.205 165.958 180.108 164.08 174.661 160.971C173.399 160.219 186.734 130.805 186.734 130.805Z" fill="#FFBB96"/>
<path d="M221.001 144.902C232.969 154.689 235.828 163.152 235.713 162.943C232.833 157.997 226.896 151.465 225.206 149.702C223.515 147.938 222.618 146.749 220.938 144.964C220.844 144.912 220.907 144.86 221.001 144.902Z" fill="#263238"/>
<path d="M213.697 150.171C218.709 153.901 223.016 158.494 226.416 163.736C226.542 163.945 226.416 163.945 226.26 163.736C224.173 161.399 215.825 152.383 213.644 150.171C213.592 150.181 213.697 150.14 213.697 150.171Z" fill="#263238"/>
<path d="M207.123 154.282C210.946 157.266 214.18 160.935 216.66 165.102C216.785 165.301 216.608 165.301 216.451 165.102C213.321 161.45 210.942 158.56 207.06 154.397C206.945 154.344 207.039 154.219 207.123 154.282Z" fill="#263238"/>
<path d="M186.984 128.738L170.289 163.61C170.289 163.61 132.37 143.326 129.49 133.35C126.611 123.375 152.446 79.0178 160.596 70.1903C168.745 61.3627 171.333 65.0252 171.03 75.1571C170.727 85.289 162.547 116.822 162.745 117.417C162.943 118.011 186.984 128.738 186.984 128.738Z" fill="#FFC727"/>
<path d="M165.802 102.559C166.352 100.187 166.884 97.8179 167.399 95.4528C167.67 94.2215 167.931 92.9903 168.223 91.759C168.348 91.1955 168.484 90.6216 168.609 90.0582C168.694 89.7803 168.763 89.4982 168.818 89.213C168.867 88.8265 168.965 88.4478 169.11 88.0861C169.11 88.0695 169.117 88.0535 169.129 88.0418C169.14 88.03 169.156 88.0234 169.173 88.0234C169.189 88.0234 169.205 88.03 169.217 88.0418C169.229 88.0535 169.235 88.0695 169.235 88.0861C169.162 88.7434 169.298 88.4826 169.162 88.973C169.027 89.4634 169.027 89.7138 168.964 90.0999C168.881 90.6738 168.776 91.2373 168.682 91.8112C168.484 92.9903 168.265 94.1589 168.035 95.3276L167.942 95.7867C167.942 95.7867 167.942 95.7032 167.942 95.6615C168.38 94.3885 168.839 93.1363 169.298 91.8738H169.392C169.079 93.1781 168.724 94.4615 168.296 95.7345C168.046 96.4649 167.754 97.1849 167.451 97.9049C167.138 99.4596 166.825 101.035 166.481 102.58C165.437 107.39 164.394 112.221 162.923 116.937C165.009 117.887 167.096 118.743 169.079 119.703C171.061 120.662 173.159 121.643 175.193 122.624C177.228 123.605 179.252 124.586 181.266 125.608C182.237 126.088 183.186 126.589 184.136 127.09C185.085 127.591 186.16 128.29 187.214 128.801C187.318 128.854 187.214 129.01 187.11 128.958C186.066 128.447 184.856 128.071 183.75 127.581C182.644 127.09 181.809 126.735 180.839 126.297C178.752 125.358 176.738 124.377 174.703 123.407C172.668 122.436 170.623 121.476 168.588 120.475C166.554 119.473 164.592 118.388 162.578 117.344C162.547 117.332 162.52 117.312 162.498 117.287C162.476 117.261 162.461 117.231 162.453 117.198C162.409 117.17 162.374 117.129 162.354 117.08C162.333 117.032 162.328 116.978 162.338 116.927C163.423 112.179 164.655 107.379 165.802 102.559Z" fill="#263238"/>
<path d="M170.592 142.429C171.823 139.904 176.853 129.835 178.293 127.435C178.293 127.435 178.387 127.435 178.366 127.435C177.437 129.991 172.773 140.081 171.542 142.606C169.201 147.723 166.581 152.708 163.695 157.538C163.695 157.622 163.486 157.538 163.528 157.465C165.542 152.331 168.15 147.406 170.592 142.429Z" fill="#263238"/>
<path d="M140.655 144.839C143.055 146.529 145.528 148.084 147.959 149.66L155.441 154.272L162.943 158.863C165.437 160.397 167.921 161.993 170.446 163.433L170.174 163.517C170.769 162.473 171.343 161.336 171.959 160.251C171.51 161.409 171.02 162.546 170.54 163.694L170.456 163.882L170.268 163.788C167.608 162.515 165.051 161.106 162.463 159.614C159.876 158.122 157.35 156.703 154.898 155.138C152.446 153.573 149.932 152.007 147.542 150.275C145.13 148.615 142.83 146.799 140.655 144.839Z" fill="#263238"/>
<path d="M184.366 73.8537C180.589 74.4902 173.796 67.8538 171.573 63.0853C171.427 62.7618 172.126 59.4645 172.794 55.4159C173.18 52.9534 173.566 50.1987 173.733 47.684C173.733 47.1623 175.465 48.2266 175.465 48.2266L178.69 49.27L189.354 52.6091C188.24 55.7158 187.508 58.9463 187.173 62.2297C187.146 62.577 187.146 62.9258 187.173 63.2731C187.173 63.2731 187.173 63.3774 187.173 63.44C187.423 65.4122 188.018 73.2276 184.366 73.8537Z" fill="#FFBB96"/>
<path d="M187.214 63.2411C187.214 63.2411 187.214 63.3455 187.214 63.4081C186.669 63.4545 186.121 63.4545 185.576 63.4081C174.912 62.469 174.474 48.7998 174.474 48.7998L178.647 49.2589L189.311 52.598C188.198 55.7047 187.465 58.9352 187.131 62.2185C187.133 62.561 187.161 62.9028 187.214 63.2411Z" fill="#263238"/>
<path d="M192.567 22.2861C192.567 22.2861 198.223 24.6443 199.256 30.3833C200.289 36.1223 198.974 42.1534 198.473 42.4455C197.972 42.7377 192.567 22.2861 192.567 22.2861Z" fill="#263238"/>
<path d="M172.178 30.6546C170.383 36.2683 173.148 52.567 177.103 56.2817C182.852 61.6241 192.369 62.2502 196.928 55.3217C201.353 48.6123 197.377 27.3886 192.943 24.0183C186.411 19.0827 174.828 22.3592 172.178 30.6546Z" fill="#FFBB96"/>
<path d="M186.744 41.4434C186.744 41.4434 186.671 41.506 186.682 41.5477C186.89 42.5912 186.953 43.9372 186.024 44.4589C186.024 44.4589 186.024 44.532 186.024 44.5215C187.224 44.1563 187.13 42.4451 186.744 41.4434Z" fill="#263238"/>
<path d="M185.576 40.452C183.781 40.6085 184.23 44.1771 185.889 44.031C187.548 43.885 187.079 40.3164 185.576 40.452Z" fill="#263238"/>
<path d="M193.506 40.4521C193.506 40.4521 193.6 40.4522 193.6 40.5356C193.704 41.6521 194.007 42.9043 195.061 43.1442C195.061 43.1442 195.061 43.2173 195.061 43.2069C193.809 43.1964 193.423 41.5165 193.506 40.4521Z" fill="#263238"/>
<path d="M194.351 39.1694C196.114 38.8146 196.699 42.3727 195.06 42.6962C193.422 43.0197 192.827 39.472 194.351 39.1694Z" fill="#263238"/>
<path d="M183.959 38.9913C184.412 38.7953 184.854 38.5759 185.284 38.3339C185.783 38.1676 186.212 37.8411 186.505 37.4053C186.572 37.2497 186.585 37.0766 186.544 36.9126C186.502 36.7486 186.408 36.6027 186.276 36.4975C185.984 36.3289 185.653 36.2402 185.316 36.2402C184.979 36.2402 184.647 36.3289 184.356 36.4975C183.725 36.7697 183.217 37.2634 182.926 37.8852C182.856 38.0327 182.832 38.1977 182.857 38.3589C182.882 38.5201 182.955 38.67 183.067 38.7893C183.178 38.9085 183.323 38.9915 183.482 39.0275C183.641 39.0636 183.807 39.0509 183.959 38.9913Z" fill="#263238"/>
<path d="M195.509 37.2074C195.016 37.167 194.525 37.1008 194.038 37.0091C193.515 37.0114 193.006 36.8429 192.588 36.5292C192.473 36.4051 192.403 36.246 192.39 36.0775C192.377 35.909 192.421 35.7409 192.515 35.6005C192.741 35.3507 193.028 35.1651 193.349 35.0625C193.67 34.9599 194.012 34.9439 194.341 35.0161C195.027 35.0637 195.67 35.365 196.146 35.8613C196.249 35.9807 196.315 36.1274 196.337 36.2837C196.358 36.44 196.334 36.5991 196.266 36.7417C196.199 36.8843 196.091 37.0042 195.957 37.0869C195.823 37.1696 195.667 37.2115 195.509 37.2074Z" fill="#263238"/>
<path d="M187.027 51.4716C187.319 51.7011 187.632 52.0246 188.07 52.0037C188.483 51.9478 188.878 51.8018 189.228 51.5759C189.228 51.5759 189.301 51.5759 189.228 51.5759C189.096 51.8138 188.902 52.0118 188.667 52.1495C188.432 52.2871 188.165 52.3593 187.893 52.3585C187.659 52.327 187.44 52.2268 187.264 52.0708C187.087 51.9148 186.961 51.7098 186.901 51.482C186.901 51.4716 186.985 51.4403 187.027 51.4716Z" fill="#263238"/>
<path d="M187.778 48.0179C188.113 48.42 188.529 48.7482 188.997 48.9816C189.466 49.2151 189.978 49.3489 190.501 49.3744C190.96 49.4124 191.421 49.3772 191.868 49.2701C191.954 49.2603 192.038 49.2393 192.119 49.2075L192.359 49.1449C192.417 49.1261 192.468 49.0881 192.502 49.0369C192.536 48.9857 192.552 48.9244 192.546 48.8631C192.551 48.825 192.551 48.7864 192.546 48.7483V48.6544C192.463 47.7988 192.223 46.5675 192.223 46.5675C192.557 46.6823 194.226 47.1936 194.153 46.7554C193.578 42.9246 192.613 39.1625 191.273 35.5279C191.273 35.4131 191.044 35.4653 191.075 35.5279C191.586 39.0756 192.713 42.4981 193.287 46.0562C192.691 45.8597 192.068 45.7508 191.44 45.7328C191.326 45.7328 191.962 48.2058 191.962 48.6023C191.273 48.7613 190.559 48.7785 189.863 48.6529C189.167 48.5274 188.504 48.2616 187.914 47.8718C187.778 47.851 187.705 47.9344 187.778 48.0179Z" fill="#263238"/>
<path d="M191.305 48.9046C190.915 49.572 190.357 50.1259 189.687 50.5115C189.319 50.7146 188.895 50.795 188.477 50.741C187.569 50.6158 187.434 49.8124 187.517 49.0924C187.562 48.715 187.649 48.344 187.778 47.9863C188.827 48.6572 190.062 48.9787 191.305 48.9046Z" fill="#263238"/>
<path d="M189.698 50.5118C189.329 50.7149 188.905 50.7953 188.488 50.7413C187.58 50.6161 187.444 49.8127 187.528 49.0927C187.997 49.0498 188.466 49.1666 188.86 49.4242C189.254 49.6818 189.55 50.0651 189.698 50.5118Z" fill="#FF98B9"/>
<path d="M173.096 46.3585C175.089 46.5254 176.018 40.4421 176.164 38.1465C176.279 36.1222 175.59 29.945 175.59 29.5172C175.59 29.0894 184.908 33.0962 189.322 30.6963C193.736 28.2964 195.969 23.3922 195.583 21.3992C195.197 19.4062 188.279 15.6707 183.166 16.5054C178.053 17.3402 172.606 25.2286 172.606 25.2286C173.229 24.1069 173.762 22.9382 174.203 21.7331C174.077 21.5244 171.072 23.5383 170.989 26.0008C170.989 26.0008 170.989 22.9331 170.749 22.9331C170.509 22.9331 168.484 25.9904 169.476 27.7642C169.476 27.7642 167.086 30.8946 167.389 33.7954C167.691 36.6961 170.749 46.1602 173.096 46.3585Z" fill="#263238"/>
<path d="M192.452 28.9855C191.222 30.0425 189.839 30.9078 188.351 31.5523C186.66 32.066 184.87 32.1627 183.134 31.8341C181.379 31.552 179.68 30.9883 178.105 30.1646C176.717 29.4446 175.412 28.5055 173.931 27.9107C173.566 27.7646 173.305 28.2968 173.555 28.5472C176.299 31.0492 179.774 32.6037 183.468 32.9819C185.184 33.1608 186.918 32.8903 188.499 32.197C190.079 31.5037 191.452 30.4114 192.483 29.0272C192.483 29.0272 192.473 28.975 192.452 28.9855Z" fill="#263238"/>
<path d="M185.858 47.2766C184.99 47.287 184.136 47.0538 183.394 46.6035C182.652 46.1532 182.051 45.5039 181.659 44.7291C181.267 43.9544 181.1 43.0853 181.178 42.2206C181.255 41.3558 181.573 40.5301 182.096 39.837C182.619 39.144 183.325 38.6114 184.136 38.2997C184.946 37.9881 185.827 37.9098 186.68 38.0739C187.532 38.2379 188.322 38.6377 188.959 39.2279C189.596 39.818 190.054 40.5748 190.282 41.4124C190.602 42.6023 190.436 43.8703 189.822 44.9382C189.208 46.0062 188.195 46.7871 187.006 47.1096C186.631 47.2103 186.246 47.2663 185.858 47.2766ZM185.733 38.6055C185.398 38.6052 185.064 38.6508 184.742 38.7412C183.749 39.0056 182.894 39.6386 182.351 40.5112C181.809 41.3839 181.619 42.4306 181.821 43.4381C182.024 44.4456 182.602 45.3381 183.44 45.9338C184.277 46.5295 185.31 46.7836 186.328 46.6443C187.346 46.5049 188.273 45.9827 188.919 45.184C189.566 44.3852 189.884 43.3701 189.808 42.3453C189.732 41.3205 189.268 40.3631 188.511 39.6683C187.754 38.9735 186.76 38.5934 185.733 38.6055Z" fill="#455A64"/>
<path d="M196.428 45.8156C194.644 45.8156 193.005 44.0521 192.692 41.6418C192.517 40.496 192.707 39.3241 193.235 38.2923C193.434 37.8344 193.748 37.4358 194.146 37.1353C194.545 36.8348 195.014 36.6426 195.509 36.5775C196.004 36.5123 196.507 36.5764 196.97 36.7636C197.433 36.9507 197.839 37.2545 198.15 37.6454C198.936 38.5144 199.425 39.6105 199.548 40.7757C199.882 43.3217 198.619 45.586 196.731 45.8364C196.629 45.8396 196.528 45.8326 196.428 45.8156ZM195.823 37.1862C195.747 37.1759 195.669 37.1759 195.593 37.1862C195.202 37.2553 194.832 37.4174 194.516 37.6589C194.2 37.9004 193.947 38.2142 193.778 38.574C193.315 39.4922 193.151 40.5319 193.308 41.5479C193.6 43.7391 195.092 45.3669 196.647 45.1582C198.202 44.9495 199.224 42.9983 198.932 40.7966C198.815 39.7767 198.385 38.8182 197.701 38.0523C197.464 37.7866 197.175 37.5725 196.852 37.4235C196.529 37.2745 196.179 37.1937 195.823 37.1862Z" fill="#455A64"/>
<path d="M190.198 41.9237L189.739 41.5063C190.355 40.8281 191.826 39.8264 193.151 40.8803L192.755 41.3603C191.607 40.4525 190.251 41.9237 190.198 41.9237Z" fill="#455A64"/>
<path d="M169.872 45.8679L169.288 45.6592C169.382 45.3879 170.279 42.9776 171.625 42.5289C172.971 42.0802 181.246 41.8298 181.601 41.8193V42.435C179.201 42.5289 172.752 42.8315 171.782 43.1236C170.812 43.4158 170.06 45.2105 169.872 45.8679Z" fill="#455A64"/>
<path d="M175.486 44.0109C175.486 44.0109 171.761 38.7937 169.382 40.098C167.003 41.4023 169.82 49.0508 172.637 50.0734C172.988 50.2298 173.367 50.3136 173.752 50.3196C174.136 50.3257 174.517 50.254 174.873 50.1087C175.229 49.9635 175.552 49.7477 175.822 49.4744C176.092 49.2012 176.304 48.876 176.446 48.5186L175.486 44.0109Z" fill="#FFBB96"/>
<path d="M170.248 42.2266C170.248 42.2266 170.196 42.2266 170.248 42.2996C172.22 43.0822 173.263 44.8978 174.004 46.7864C173.889 46.5903 173.732 46.4216 173.545 46.2918C173.358 46.162 173.145 46.0743 172.921 46.0346C172.697 45.995 172.467 46.0043 172.247 46.0621C172.027 46.1198 171.822 46.2245 171.646 46.3691C171.638 46.3784 171.632 46.3901 171.63 46.4026C171.629 46.4151 171.631 46.4278 171.636 46.4391C171.642 46.4503 171.651 46.4596 171.662 46.4658C171.673 46.4719 171.686 46.4746 171.698 46.4734C172.043 46.3609 172.414 46.3587 172.76 46.4672C173.106 46.5757 173.41 46.7894 173.629 47.0786C173.999 47.56 174.314 48.0815 174.568 48.6333C174.662 48.8107 174.975 48.7168 174.912 48.5081C174.912 45.9517 172.94 42.4561 170.248 42.2266Z" fill="#263238"/>
<path d="M187.287 63.1374L183.437 72.4762L171.959 60.4766L168.62 64.2434C168.62 64.2434 179.795 83.2237 179.879 82.3681L183.834 74.3335L189.353 80.0203L188.999 65.9234L187.287 63.1374Z" fill="white"/>
<path d="M189.541 73.0286C189.416 70.7017 189.353 68.3539 189.113 66.027C189.113 65.954 188.978 65.9123 188.957 66.027C188.466 68.2704 188.957 77.1815 188.957 79.3101C188.727 79.0597 183.844 74.3016 183.739 74.3746C182.894 75.6476 179.983 81.5014 179.785 82.0335C178.021 79.018 171.239 68.0617 169.131 65.2027C169.128 65.19 169.122 65.1782 169.113 65.1683C169.105 65.1585 169.094 65.1507 169.082 65.1458C169.07 65.1409 169.056 65.1388 169.043 65.1399C169.03 65.141 169.018 65.1452 169.007 65.152C168.995 65.1589 168.986 65.1683 168.979 65.1795C168.972 65.1906 168.968 65.2033 168.967 65.2163C168.966 65.2294 168.968 65.2425 168.973 65.2547C168.978 65.2668 168.986 65.2776 168.996 65.2862C170.55 68.4165 179.524 83.223 179.67 83.1813C181.207 80.4238 182.6 77.5888 183.844 74.6876C184.668 75.7311 189.593 81.084 189.614 80.7396C189.722 78.1697 189.697 75.596 189.541 73.0286Z" fill="#263238"/>
<path d="M230.11 161.158H77.1514V175.85H230.11V161.158Z" fill="#455A64"/>
<path d="M88.4727 175.85H218.778L209.387 412.097H98.9071L88.4727 175.85Z" fill="#455A64"/>
<path d="M106.378 205.901H200.873L193.871 382.046H114.162L106.378 205.901Z" fill="#263238"/>
<path d="M106.378 205.901H196.271L189.572 378.216H113.818L106.378 205.901Z" fill="#37474F"/>
<path d="M88.4727 175.85H218.778L218.267 188.674L88.7544 182.267L88.4727 175.85Z" fill="#37474F"/>
<path d="M94.1904 161.158H113.494V157.757H94.1904V161.158Z" fill="#263238"/>
<path d="M104.354 158.769L108.58 125.796L119.61 112.221L118.796 111.563L107.589 125.368L103.321 158.633L104.354 158.769Z" fill="#263238"/>
<path d="M121.978 109.487C120.204 107.786 116.166 111.699 118.086 113.546C120.006 115.393 123.564 111.01 121.978 109.487Z" fill="#263238"/>
<path d="M194.425 158.498H135.084V161.159H194.425V158.498Z" fill="#A6A6A6"/>
<path d="M164.958 158.498H135.084V161.159H164.958V158.498Z" fill="#A6A6A6"/>
<path d="M169.268 161.159H227.106L235.276 121.873H177.438L169.268 161.159Z" fill="#A6A6A6"/>
<path d="M172.283 161.159H230.122L238.292 121.873H180.453L172.283 161.159Z" fill="#C7C7C7"/>
<path d="M198.797 142.387C198.729 142.874 198.768 143.369 198.909 143.84C199.051 144.311 199.292 144.745 199.617 145.114C199.942 145.482 200.343 145.776 200.792 145.976C201.241 146.175 201.728 146.275 202.22 146.269C203.275 146.246 204.287 145.843 205.07 145.134C205.852 144.424 206.351 143.456 206.477 142.408C206.544 141.921 206.504 141.426 206.36 140.956C206.216 140.486 205.972 140.053 205.645 139.687C205.317 139.321 204.914 139.03 204.463 138.835C204.013 138.64 203.525 138.546 203.034 138.558C201.987 138.586 200.985 138.988 200.208 139.69C199.431 140.392 198.931 141.349 198.797 142.387Z" fill="white"/>
<path d="M208.479 23.351C207.091 21.2938 206.34 18.873 206.319 16.3912C206.319 7.57406 216.013 0.416016 227.95 0.416016C239.887 0.416016 249.57 7.57406 249.57 16.3912C249.57 25.2083 239.887 32.3664 227.95 32.3664C222.641 32.4516 217.433 30.9075 213.029 27.9422L205.589 29.8412L208.479 23.351Z" fill="#FFFEFD"/>
<path d="M208.48 23.3506C207.098 21.4128 206.307 19.116 206.203 16.7382C206.1 14.3604 206.687 12.0035 207.895 9.95276C209.103 7.8995 210.727 6.12219 212.664 4.73552C214.571 3.33978 216.683 2.24856 218.925 1.50084C221.175 0.744495 223.508 0.264463 225.874 0.0713119C228.245 -0.0926827 230.627 0.0264184 232.969 0.426088C237.726 1.13272 242.151 3.2815 245.647 6.58242C247.394 8.28592 248.701 10.3877 249.456 12.7075C250.191 15.0516 250.213 17.5612 249.518 19.9177C248.796 22.237 247.522 24.3461 245.804 26.0636C244.108 27.7594 242.136 29.1533 239.971 30.1852C235.644 32.2093 230.867 33.0827 226.104 32.7208C221.349 32.4589 216.759 30.8881 212.841 28.1818H213.04L205.568 29.9661L205.308 30.0287L205.422 29.7991L208.48 23.3506ZM208.48 23.3506L205.704 29.8826L205.558 29.7157L212.977 27.7122H213.081L213.175 27.7749C217.055 30.3348 221.563 31.7787 226.208 31.9486C228.511 32.0679 230.821 31.9032 233.084 31.4582C235.348 31.0716 237.547 30.3691 239.616 29.3713C241.677 28.3727 243.551 27.028 245.157 25.3958C246.758 23.7899 247.94 21.8157 248.6 19.6464C249.227 17.4809 249.194 15.1777 248.506 13.0309C247.813 10.8727 246.602 8.91674 244.979 7.33371C241.645 4.14803 237.413 2.06439 232.855 1.36518C228.298 0.554185 223.613 0.851231 219.196 2.23125C214.727 3.52112 210.862 6.35778 208.292 10.2345C207.058 12.19 206.399 14.4539 206.393 16.7665C206.467 19.1118 207.19 21.3906 208.48 23.3506Z" fill="#263238"/>
<path d="M235.672 16.3909C235.672 16.8346 235.803 17.2683 236.05 17.6373C236.296 18.0062 236.647 18.2937 237.057 18.4635C237.467 18.6333 237.918 18.6777 238.353 18.5912C238.788 18.5046 239.188 18.291 239.502 17.9772C239.815 17.6635 240.029 17.2637 240.116 16.8285C240.202 16.3934 240.158 15.9423 239.988 15.5324C239.818 15.1224 239.531 14.7721 239.162 14.5255C238.793 14.279 238.359 14.1475 237.915 14.1475C237.32 14.1475 236.75 14.3838 236.329 14.8045C235.908 15.2253 235.672 15.7959 235.672 16.3909Z" fill="#263238"/>
<path d="M225.654 16.3909C225.654 16.8346 225.786 17.2683 226.032 17.6373C226.279 18.0062 226.629 18.2937 227.039 18.4635C227.449 18.6333 227.9 18.6777 228.335 18.5912C228.771 18.5046 229.17 18.291 229.484 17.9772C229.798 17.6635 230.011 17.2637 230.098 16.8285C230.185 16.3934 230.14 15.9423 229.97 15.5324C229.801 15.1224 229.513 14.7721 229.144 14.5255C228.775 14.279 228.341 14.1475 227.898 14.1475C227.303 14.1475 226.732 14.3838 226.311 14.8045C225.891 15.2253 225.654 15.7959 225.654 16.3909Z" fill="#263238"/>
<path d="M215.638 16.3909C215.638 16.835 215.77 17.2692 216.017 17.6384C216.263 18.0075 216.614 18.295 217.025 18.4645C217.436 18.634 217.887 18.6778 218.323 18.5904C218.758 18.503 219.158 18.2883 219.471 17.9735C219.784 17.6587 219.997 17.258 220.083 16.8221C220.168 16.3863 220.122 15.9349 219.951 15.5251C219.779 15.1154 219.49 14.7657 219.12 14.5205C218.75 14.2752 218.315 14.1454 217.871 14.1475C217.277 14.1502 216.71 14.3878 216.291 14.8082C215.873 15.2287 215.638 15.7977 215.638 16.3909Z" fill="#263238"/>
</svg>
