<svg width="137" height="135" viewBox="0 0 137 135" fill="none" xmlns="http://www.w3.org/2000/svg">
<path d="M65.189 125.771C92.4977 125.771 114.636 103.632 114.636 76.3237C114.636 49.015 92.4977 26.877 65.189 26.877C37.8803 26.877 15.7422 49.015 15.7422 76.3237C15.7422 103.632 37.8803 125.771 65.189 125.771Z" fill="#6360AB"/>
<path d="M12.617 26.4095C11.7812 24.328 13.5122 22.1222 15.7327 22.4392C17.9533 22.7562 18.998 25.3581 17.6132 27.1227C16.2285 28.8873 13.4527 28.4911 12.617 26.4095Z" fill="#FF9E87"/>
<path d="M4.09698 68.4214C3.55648 67.0753 4.6759 65.6489 6.11193 65.8538C7.54795 66.0588 8.22357 67.7415 7.32804 68.8826C6.43251 70.0238 4.63747 69.7676 4.09698 68.4214Z" fill="#FF9E87"/>
<path d="M122.844 57.6498C121.793 55.0322 123.969 52.2585 126.762 52.6571C129.554 53.0557 130.868 56.3277 129.127 58.5467C127.385 60.7657 123.895 60.2675 122.844 57.6498Z" fill="#FF9E87"/>
<path opacity="0.2" d="M106.806 85.0898C105.233 83.491 105.98 80.7886 108.152 80.2254C110.323 79.6623 112.289 81.6607 111.692 83.8227C111.094 85.9846 108.38 86.6885 106.806 85.0898Z" fill="#FF9E87"/>
<path opacity="0.3" d="M106.756 19.8826C104.818 22.7565 104.698 13.8994 101.824 11.9617C98.9504 10.024 90.9661 8.82089 92.9038 5.94701C94.8415 3.07312 104.075 4.82878 106.949 6.7665C109.823 8.70423 108.694 17.0088 106.756 19.8826Z" fill="#03A9F4"/>
<circle opacity="0.2" r="1.97787" transform="matrix(1 0 0 -1 55.3016 133.022)" fill="#27308C"/>
<path d="M23.4313 126.702C23.2687 126.127 22.4559 125.082 20.506 125.5C18.5562 125.918 17.5484 124.792 17.2882 124.177" stroke="#FF83CC" stroke-width="3" stroke-linecap="round"/>
<path d="M127.835 23.0183C127.611 23.9405 127.921 26.0206 130.945 26.9628C133.969 27.905 134.485 30.248 134.366 31.3018" stroke="#FF83CC" stroke-width="3" stroke-linecap="round"/>
<g filter="url(#filter0_d_2403_22951)">
<path d="M93.5384 55.2266H36.8394C35.0188 55.2266 33.543 56.7024 33.543 58.523V127.749C33.543 129.569 35.0188 131.045 36.8394 131.045H93.5384C95.359 131.045 96.8348 129.569 96.8348 127.749V58.523C96.8348 56.7024 95.359 55.2266 93.5384 55.2266Z" fill="white"/>
</g>
<path d="M58.597 65.1152H41.4554C40.3631 65.1152 39.4775 66.0008 39.4775 67.0931C39.4775 68.1855 40.3631 69.071 41.4554 69.071H58.597C59.6893 69.071 60.5748 68.1855 60.5748 67.0931C60.5748 66.0008 59.6893 65.1152 58.597 65.1152Z" fill="#A09DE7"/>
<path d="M70.4642 73.6855H41.4554C40.3631 73.6855 39.4775 74.5711 39.4775 75.6634C39.4775 76.7558 40.3631 77.6413 41.4554 77.6413H70.4642C71.5565 77.6413 72.4421 76.7558 72.4421 75.6634C72.4421 74.5711 71.5565 73.6855 70.4642 73.6855Z" fill="#DEDCFF"/>
<path d="M58.596 82.916H41.4544C40.3621 82.916 39.4766 83.8015 39.4766 84.8939C39.4766 85.9862 40.3621 86.8718 41.4544 86.8718H58.596C59.6883 86.8718 60.5739 85.9862 60.5739 84.8939C60.5739 83.8015 59.6883 82.916 58.596 82.916Z" fill="#A09DE7"/>
<path d="M70.4632 91.4863H41.4544C40.3621 91.4863 39.4766 92.3719 39.4766 93.4642C39.4766 94.5565 40.3621 95.4421 41.4544 95.4421H70.4632C71.5556 95.4421 72.4411 94.5565 72.4411 93.4642C72.4411 92.3719 71.5556 91.4863 70.4632 91.4863Z" fill="#DEDCFF"/>
<path d="M58.597 100.717H41.4554C40.3631 100.717 39.4775 101.602 39.4775 102.695C39.4775 103.787 40.3631 104.673 41.4554 104.673H58.597C59.6893 104.673 60.5748 103.787 60.5748 102.695C60.5748 101.602 59.6893 100.717 58.597 100.717Z" fill="#A09DE7"/>
<path d="M70.4642 109.287H41.4554C40.3631 109.287 39.4775 110.173 39.4775 111.265C39.4775 112.357 40.3631 113.243 41.4554 113.243H70.4642C71.5565 113.243 72.4421 112.357 72.4421 111.265C72.4421 110.173 71.5565 109.287 70.4642 109.287Z" fill="#DEDCFF"/>
<g filter="url(#filter1_d_2403_22951)">
<path d="M93.5379 19.623H36.8389C35.0184 19.623 33.5425 21.0989 33.5425 22.9195V42.6982C33.5425 44.5188 35.0184 45.9947 36.8389 45.9947H93.5379C95.3585 45.9947 96.8344 44.5188 96.8344 42.6982V22.9195C96.8344 21.0989 95.3585 19.623 93.5379 19.623Z" fill="#4CCB86"/>
</g>
<path d="M58.596 26.875H41.4544C40.3621 26.875 39.4766 27.7605 39.4766 28.8529C39.4766 29.9452 40.3621 30.8307 41.4544 30.8307H58.596C59.6883 30.8307 60.5739 29.9452 60.5739 28.8529C60.5739 27.7605 59.6883 26.875 58.596 26.875Z" fill="#DCFFEC"/>
<path d="M70.4632 35.4453H41.4544C40.3621 35.4453 39.4766 36.3308 39.4766 37.4232C39.4766 38.5155 40.3621 39.4011 41.4544 39.4011H70.4632C71.5556 39.4011 72.4411 38.5155 72.4411 37.4232C72.4411 36.3308 71.5556 35.4453 70.4632 35.4453Z" fill="#83FFBC"/>
<defs>
<filter id="filter0_d_2403_22951" x="27.543" y="46.2266" width="75.292" height="87.8184" filterUnits="userSpaceOnUse" color-interpolation-filters="sRGB">
<feFlood flood-opacity="0" result="BackgroundImageFix"/>
<feColorMatrix in="SourceAlpha" type="matrix" values="0 0 0 0 0 0 0 0 0 0 0 0 0 0 0 0 0 0 127 0" result="hardAlpha"/>
<feOffset dy="-3"/>
<feGaussianBlur stdDeviation="3"/>
<feColorMatrix type="matrix" values="0 0 0 0 0.788235 0 0 0 0 0.803922 0 0 0 0 0.85098 0 0 0 0.349 0"/>
<feBlend mode="normal" in2="BackgroundImageFix" result="effect1_dropShadow_2403_22951"/>
<feBlend mode="normal" in="SourceGraphic" in2="effect1_dropShadow_2403_22951" result="shape"/>
</filter>
<filter id="filter1_d_2403_22951" x="27.5425" y="10.623" width="75.292" height="38.3711" filterUnits="userSpaceOnUse" color-interpolation-filters="sRGB">
<feFlood flood-opacity="0" result="BackgroundImageFix"/>
<feColorMatrix in="SourceAlpha" type="matrix" values="0 0 0 0 0 0 0 0 0 0 0 0 0 0 0 0 0 0 127 0" result="hardAlpha"/>
<feOffset dy="-3"/>
<feGaussianBlur stdDeviation="3"/>
<feColorMatrix type="matrix" values="0 0 0 0 0.788235 0 0 0 0 0.803922 0 0 0 0 0.85098 0 0 0 0.349 0"/>
<feBlend mode="normal" in2="BackgroundImageFix" result="effect1_dropShadow_2403_22951"/>
<feBlend mode="normal" in="SourceGraphic" in2="effect1_dropShadow_2403_22951" result="shape"/>
</filter>
</defs>
</svg>
