<svg width="155" height="139" viewBox="0 0 155 139" fill="none" xmlns="http://www.w3.org/2000/svg">
<path d="M77.5504 123.698C106.376 123.698 129.744 100.33 129.744 71.5041C129.744 42.6784 106.376 19.3105 77.5504 19.3105C48.7248 19.3105 25.3569 42.6784 25.3569 71.5041C25.3569 100.33 48.7248 123.698 77.5504 123.698Z" fill="#FF862D"/>
<g filter="url(#filter0_d_2403_22983)">
<mask id="mask0_2403_22983" style="mask-type:alpha" maskUnits="userSpaceOnUse" x="25" y="19" width="105" height="105">
<path d="M77.5504 123.698C106.376 123.698 129.744 100.33 129.744 71.5041C129.744 42.6784 106.376 19.3105 77.5504 19.3105C48.7248 19.3105 25.3569 42.6784 25.3569 71.5041C25.3569 100.33 48.7248 123.698 77.5504 123.698Z" fill="#FF862D"/>
</mask>
<g mask="url(#mask0_2403_22983)">
<path d="M107.475 49.2344H47.6261C45.7043 49.2344 44.1465 50.7922 44.1465 52.7139V125.785C44.1465 127.707 45.7043 129.264 47.6261 129.264H107.475C109.396 129.264 110.954 127.707 110.954 125.785V52.7139C110.954 50.7922 109.396 49.2344 107.475 49.2344Z" fill="white"/>
</g>
<circle opacity="0.2" r="2.08774" transform="matrix(1 0 0 -1 55.9774 125.088)" fill="#27308C"/>
<path d="M29.3346 19.6209C28.1873 16.7634 30.5635 13.7355 33.6118 14.1706L35.4069 14.4268C38.4552 14.862 39.8893 18.4338 37.9884 20.8561L36.8689 22.2826C34.968 24.7049 31.1576 24.161 30.0103 21.3036L29.3346 19.6209Z" fill="#87D4FF"/>
<path d="M6.49979 98.2048C5.66073 96.1151 7.39851 93.9007 9.62779 94.2189V94.2189C11.8571 94.5371 12.9059 97.1493 11.5157 98.9208V98.9208C10.1255 100.692 7.33886 100.295 6.49979 98.2048V98.2048Z" fill="#FFC727"/>
<path d="M132.783 81.9413C131.152 77.8777 134.531 73.5717 138.866 74.1905V74.1905C143.201 74.8093 145.24 79.8887 142.537 83.3335V83.3335C139.834 86.7783 134.415 86.0048 132.783 81.9413V81.9413Z" fill="#FFC727"/>
<path d="M101.523 130.394C99.3637 128.2 100.39 124.49 103.37 123.717L105.125 123.262C108.106 122.488 110.806 125.232 109.985 128.2L109.502 129.947C108.681 132.915 104.955 133.881 102.795 131.687L101.523 130.394Z" fill="#FFE1DA"/>
<path opacity="0.3" d="M128.881 30.8514C126.904 35.8559 123.761 22.4689 118.756 20.4921C113.752 18.5152 101.245 19.3604 103.222 14.3559C105.199 9.35144 119.784 8.92629 124.789 10.9031C129.793 12.88 130.857 25.8469 128.881 30.8514Z" fill="#3F13E4"/>
</g>
<path d="M71.2874 56.1934H53.1937C52.0407 56.1934 51.106 57.1281 51.106 58.2811C51.106 59.4341 52.0407 60.3688 53.1937 60.3688H71.2874C72.4405 60.3688 73.3752 59.4341 73.3752 58.2811C73.3752 57.1281 72.4405 56.1934 71.2874 56.1934Z" fill="#E1EBFA"/>
<path d="M71.2874 85.4219H53.1937C52.0407 85.4219 51.106 86.3566 51.106 87.5096C51.106 88.6626 52.0407 89.5974 53.1937 89.5974H71.2874C72.4405 89.5974 73.3752 88.6626 73.3752 87.5096C73.3752 86.3566 72.4405 85.4219 71.2874 85.4219Z" fill="#E1EBFA"/>
<path d="M100.515 66.6328H54.5849C53.0476 66.6328 51.8013 67.8791 51.8013 69.4165V76.3756C51.8013 77.913 53.0476 79.1593 54.5849 79.1593H100.515C102.053 79.1593 103.299 77.913 103.299 76.3756V69.4165C103.299 67.8791 102.053 66.6328 100.515 66.6328Z" stroke="#1485FD" stroke-width="2"/>
<path d="M57.1414 70.2453C57.483 69.424 58.6465 69.424 58.9881 70.2453L59.1187 70.5594C59.2627 70.9056 59.5883 71.1422 59.9621 71.1721L60.3011 71.1993C61.1878 71.2704 61.5473 72.3769 60.8718 72.9556L60.6135 73.1768C60.3287 73.4208 60.2043 73.8036 60.2913 74.1683L60.3702 74.4992C60.5766 75.3644 59.6354 76.0482 58.8763 75.5846L58.586 75.4073C58.266 75.2118 57.8635 75.2118 57.5435 75.4073L57.2532 75.5846C56.4941 76.0482 55.5529 75.3644 55.7593 74.4992L55.8382 74.1683C55.9252 73.8036 55.8008 73.4208 55.516 73.1768L55.2577 72.9556C54.5822 72.3769 54.9417 71.2704 55.8284 71.1993L56.1674 71.1721C56.5412 71.1422 56.8668 70.9056 57.0108 70.5594L57.1414 70.2453Z" fill="#FFC727"/>
<path d="M66.8841 70.2453C67.2257 69.424 68.3892 69.424 68.7307 70.2453L68.8614 70.5594C69.0054 70.9056 69.331 71.1422 69.7048 71.1721L70.0438 71.1993C70.9305 71.2704 71.29 72.3769 70.6144 72.9556L70.3561 73.1768C70.0714 73.4208 69.947 73.8036 70.034 74.1683L70.1129 74.4992C70.3193 75.3644 69.378 76.0482 68.6189 75.5846L68.3287 75.4073C68.0087 75.2118 67.6062 75.2118 67.2862 75.4073L66.9959 75.5846C66.2368 76.0482 65.2956 75.3644 65.502 74.4992L65.5809 74.1683C65.6679 73.8036 65.5435 73.4208 65.2587 73.1768L65.0004 72.9556C64.3249 72.3769 64.6844 71.2704 65.5711 71.1993L65.9101 71.1721C66.2839 71.1422 66.6095 70.9056 66.7535 70.5594L66.8841 70.2453Z" fill="#FFC727"/>
<path d="M76.6268 70.2453C76.9684 69.424 78.1318 69.424 78.4734 70.2453L78.604 70.5594C78.748 70.9056 79.0737 71.1422 79.4474 71.1721L79.7865 71.1993C80.6731 71.2704 81.0327 72.3769 80.3571 72.9556L80.0988 73.1768C79.814 73.4208 79.6897 73.8036 79.7767 74.1683L79.8556 74.4992C80.062 75.3644 79.1207 76.0482 78.3616 75.5846L78.0714 75.4073C77.7513 75.2118 77.3489 75.2118 77.0289 75.4073L76.7386 75.5846C75.9795 76.0482 75.0382 75.3644 75.2446 74.4992L75.3235 74.1683C75.4106 73.8036 75.2862 73.4208 75.0014 73.1768L74.7431 72.9556C74.0676 72.3769 74.4271 71.2704 75.3137 71.1993L75.6528 71.1721C76.0266 71.1422 76.3522 70.9056 76.4962 70.5594L76.6268 70.2453Z" fill="#FFC727"/>
<path d="M86.3695 70.2453C86.7111 69.424 87.8745 69.424 88.2161 70.2453L88.3467 70.5594C88.4907 70.9056 88.8163 71.1422 89.1901 71.1721L89.5292 71.1993C90.4158 71.2704 90.7753 72.3769 90.0998 72.9556L89.8415 73.1768C89.5567 73.4208 89.4323 73.8036 89.5193 74.1683L89.5983 74.4992C89.8046 75.3644 88.8634 76.0482 88.1043 75.5846L87.814 75.4073C87.494 75.2118 87.0915 75.2118 86.7715 75.4073L86.4813 75.5846C85.7222 76.0482 84.7809 75.3644 84.9873 74.4992L85.0662 74.1683C85.1532 73.8036 85.0289 73.4208 84.7441 73.1768L84.4858 72.9556C83.8102 72.3769 84.1698 71.2704 85.0564 71.1993L85.3954 71.1721C85.7692 71.1422 86.0948 70.9056 86.2388 70.5594L86.3695 70.2453Z" fill="#FFC727"/>
<path d="M96.1126 70.2453C96.4542 69.424 97.6177 69.424 97.9593 70.2453L98.0899 70.5594C98.2339 70.9056 98.5595 71.1422 98.9333 71.1721L99.2723 71.1993C100.159 71.2704 100.518 72.3769 99.843 72.9556L99.5847 73.1768C99.2999 73.4208 99.1755 73.8036 99.2625 74.1683L99.3414 74.4992C99.5478 75.3644 98.6066 76.0482 97.8475 75.5846L97.5572 75.4073C97.2372 75.2118 96.8347 75.2118 96.5147 75.4073L96.2244 75.5846C95.4653 76.0482 94.5241 75.3644 94.7305 74.4992L94.8094 74.1683C94.8964 73.8036 94.772 73.4208 94.4872 73.1768L94.2289 72.9556C93.5534 72.3769 93.9129 71.2704 94.7996 71.1993L95.1386 71.1721C95.5124 71.1422 95.838 70.9056 95.982 70.5594L96.1126 70.2453Z" fill="#E0E0E0"/>
<path d="M100.516 95.1641H54.5855C52.6638 95.1641 51.106 96.7219 51.106 98.6436V104.211C51.106 106.133 52.6638 107.691 54.5855 107.691H100.516C102.438 107.691 103.995 106.133 103.995 104.211V98.6436C103.995 96.7219 102.438 95.1641 100.516 95.1641Z" fill="#DFEAFB"/>
<path d="M62.936 41.579C64.4734 41.579 65.7197 40.3327 65.7197 38.7954C65.7197 37.258 64.4734 36.0117 62.936 36.0117C61.3986 36.0117 60.1523 37.258 60.1523 38.7954C60.1523 40.3327 61.3986 41.579 62.936 41.579Z" fill="#FFA15C"/>
<path d="M77.5503 41.579C79.0876 41.579 80.3339 40.3327 80.3339 38.7954C80.3339 37.258 79.0876 36.0117 77.5503 36.0117C76.0129 36.0117 74.7666 37.258 74.7666 38.7954C74.7666 40.3327 76.0129 41.579 77.5503 41.579Z" fill="white"/>
<path d="M92.1645 41.579C93.7019 41.579 94.9482 40.3327 94.9482 38.7954C94.9482 37.258 93.7019 36.0117 92.1645 36.0117C90.6271 36.0117 89.3809 37.258 89.3809 38.7954C89.3809 40.3327 90.6271 41.579 92.1645 41.579Z" fill="#FFA15C"/>
<path d="M85.2052 80.5509C87.1269 80.5509 88.6847 78.9931 88.6847 77.0714C88.6847 75.1497 87.1269 73.5918 85.2052 73.5918C83.2834 73.5918 81.7256 75.1497 81.7256 77.0714C81.7256 78.9931 83.2834 80.5509 85.2052 80.5509Z" fill="#DFEAFB"/>
<path d="M87.9243 91.9425C87.3675 91.9425 86.8477 91.9425 86.3745 91.9126C85.7916 91.8732 85.2308 91.6737 84.754 91.3362C84.2771 90.9987 83.9025 90.5362 83.6715 89.9995L80.7355 84.197C80.5201 83.9463 80.4126 83.6206 80.4363 83.2909C80.4601 82.9613 80.6131 82.6544 80.8621 82.437C81.0662 82.2731 81.3207 82.1848 81.5824 82.1872C81.7751 82.1928 81.9643 82.2401 82.1369 82.3259C82.3096 82.4117 82.4616 82.5339 82.5824 82.6841L83.9158 84.5039L83.936 84.5276V77.6137C83.936 77.2707 84.0723 76.9417 84.3148 76.6991C84.5574 76.4566 84.8863 76.3203 85.2293 76.3203C85.5724 76.3203 85.9013 76.4566 86.1439 76.6991C86.3864 76.9417 86.5227 77.2707 86.5227 77.6137V82.1371C86.5077 81.9707 86.5275 81.8029 86.5809 81.6445C86.6343 81.4862 86.7201 81.3406 86.8328 81.2173C86.9456 81.0939 87.0828 80.9954 87.2357 80.9279C87.3886 80.8605 87.5539 80.8257 87.7211 80.8257C87.8882 80.8257 88.0535 80.8605 88.2064 80.9279C88.3593 80.9954 88.4966 81.0939 88.6093 81.2173C88.722 81.3406 88.8078 81.4862 88.8612 81.6445C88.9146 81.8029 88.9344 81.9707 88.9194 82.1371V83.0801C88.9044 82.9136 88.9242 82.7459 88.9776 82.5875C89.031 82.4291 89.1168 82.2836 89.2296 82.1602C89.3423 82.0369 89.4795 81.9383 89.6324 81.8709C89.7854 81.8035 89.9507 81.7687 90.1178 81.7687C90.2849 81.7687 90.4502 81.8035 90.6031 81.8709C90.7561 81.9383 90.8933 82.0369 91.006 82.1602C91.1188 82.2836 91.2046 82.4291 91.258 82.5875C91.3114 82.7459 91.3312 82.9136 91.3162 83.0801V83.8066C91.3011 83.6402 91.3209 83.4724 91.3743 83.314C91.4277 83.1557 91.5135 83.0101 91.6263 82.8868C91.739 82.7634 91.8762 82.6649 92.0292 82.5974C92.1821 82.53 92.3474 82.4952 92.5145 82.4952C92.6816 82.4952 92.8469 82.53 92.9999 82.5974C93.1528 82.6649 93.29 82.7634 93.4027 82.8868C93.5155 83.0101 93.6013 83.1557 93.6547 83.314C93.7081 83.4724 93.7279 83.6402 93.7129 83.8066V88.2166C93.6892 89.5729 93.0761 91.8597 90.9195 91.8597C90.7629 91.8667 89.4365 91.9432 87.9271 91.9432L87.9243 91.9425Z" fill="#1485FD" stroke="white"/>
<defs>
<filter id="filter0_d_2403_22983" x="0.284668" y="0.802734" width="149.472" height="135.08" filterUnits="userSpaceOnUse" color-interpolation-filters="sRGB">
<feFlood flood-opacity="0" result="BackgroundImageFix"/>
<feColorMatrix in="SourceAlpha" type="matrix" values="0 0 0 0 0 0 0 0 0 0 0 0 0 0 0 0 0 0 127 0" result="hardAlpha"/>
<feOffset dy="-3"/>
<feGaussianBlur stdDeviation="3"/>
<feColorMatrix type="matrix" values="0 0 0 0 0.788235 0 0 0 0 0.803922 0 0 0 0 0.85098 0 0 0 0.349 0"/>
<feBlend mode="normal" in2="BackgroundImageFix" result="effect1_dropShadow_2403_22983"/>
<feBlend mode="normal" in="SourceGraphic" in2="effect1_dropShadow_2403_22983" result="shape"/>
</filter>
</defs>
</svg>
