<svg width="219" height="298" viewBox="0 0 219 298" fill="none" xmlns="http://www.w3.org/2000/svg">
<path d="M43.4714 234.505C34.9052 246.107 25.9774 259.58 23.8075 274.103C23.8007 274.151 23.813 274.201 23.8417 274.241C23.8704 274.281 23.9133 274.308 23.9616 274.317C24.0099 274.326 24.0599 274.316 24.1012 274.29C24.1424 274.263 24.1718 274.221 24.1833 274.174C25.1679 270.207 26.4333 266.316 27.97 262.53C33.6004 260.984 39.1245 259.693 42.0815 254.12C45.0953 248.376 44.7123 240.888 44.1379 234.633C44.0954 234.3 43.6416 234.279 43.4714 234.505Z" fill="#50BFA5"/>
<path d="M28.0597 262.414C31.9032 253.784 36.8457 245.111 43.1215 238.013C43.164 237.971 43.2278 238.013 43.1924 238.084C39.0795 243.14 35.9593 248.643 32.9101 254.245C35.7466 251.366 38.8526 248.792 41.533 245.735C41.5898 245.679 41.6678 245.735 41.6181 245.828C38.9518 249.026 36.0444 252.5 32.5698 254.869C31.6337 256.592 30.6977 258.315 29.7333 260.038C29.9673 259.904 30.2084 259.79 30.4424 259.67C30.4849 259.67 30.5204 259.712 30.4778 259.733C30.2155 259.868 29.9531 260.01 29.6765 260.123C29.2298 260.939 28.783 261.762 28.315 262.57C28.2583 262.761 27.9747 262.605 28.0597 262.414Z" fill="#263238"/>
<path d="M30.9147 259.406C33.2187 258.119 35.4168 256.651 37.4883 255.016C37.545 254.974 37.6301 255.052 37.5733 255.101C35.5651 256.837 33.3643 258.336 31.014 259.569C30.9076 259.625 30.8083 259.469 30.9147 259.406Z" fill="#263238"/>
<path d="M22.8207 271.94C22.8207 272.117 23.1398 272.11 23.1327 271.94C23.1753 267.153 23.1327 262.338 23.2107 257.53C24.4375 255.055 27.0683 253.68 28.8837 251.701C30.2039 250.253 31.351 248.657 32.3016 246.943C34.5042 242.853 35.8528 238.359 36.2656 233.732C36.7691 228.605 34.8474 211.7 32.6633 212.288C31.55 212.593 27.9264 220.968 26.9903 223.734C25.4337 228.299 24.2921 232.996 23.5795 237.767C21.8137 249.028 21.9627 260.601 22.8207 271.94Z" fill="#50BFA5"/>
<path d="M22.7862 251.281C23.0486 245.218 24.4172 239.098 25.6936 233.227C27.0693 226.894 28.679 220.93 31.9339 215.286C31.9461 215.264 31.9664 215.248 31.9904 215.242C32.0143 215.235 32.0399 215.238 32.0615 215.25C32.0832 215.263 32.0991 215.283 32.1057 215.307C32.1124 215.331 32.1092 215.356 32.097 215.378C29.9226 219.769 28.2412 224.388 27.0835 229.149C27.3033 228.809 27.5657 228.483 27.7926 228.163C27.8848 228.036 28.0905 228.163 28.0054 228.284C27.712 228.789 27.37 229.264 26.9842 229.702C26.9776 229.705 26.9703 229.707 26.963 229.707C26.9556 229.707 26.9483 229.705 26.9417 229.702C25.8213 234.234 25.0129 238.857 24.325 243.48L24.481 243.296C24.481 243.261 24.5732 243.296 24.552 243.353C24.4669 243.509 24.3676 243.658 24.2754 243.814C23.9279 246.154 23.6088 248.494 23.2826 250.813C27.4594 247.267 31.0191 243.012 33.033 237.864C33.033 237.864 33.0827 237.864 33.033 237.864C31.0971 243.268 28.0196 248.04 23.2401 251.295C23.1479 251.919 23.0628 252.55 22.9777 253.167C22.9777 253.295 22.7508 253.266 22.7508 253.167C22.7508 252.614 22.7508 252.061 22.8004 251.508C22.7789 251.498 22.7603 251.483 22.7468 251.464C22.7333 251.445 22.7253 251.422 22.7239 251.399C22.7224 251.375 22.7275 251.352 22.7385 251.331C22.7495 251.31 22.766 251.293 22.7862 251.281Z" fill="#263238"/>
<path d="M24.7488 242.495C27.9399 237.737 30.9182 233.113 33.2583 227.852C33.2583 227.795 33.3859 227.852 33.3646 227.901C31.4004 233.128 28.6419 238.425 24.919 242.623C24.9106 242.634 24.9001 242.643 24.8881 242.65C24.8761 242.658 24.8628 242.662 24.849 242.664C24.8351 242.666 24.821 242.665 24.8075 242.662C24.794 242.659 24.7813 242.652 24.7701 242.644C24.7589 242.636 24.7495 242.625 24.7424 242.613C24.7353 242.601 24.7306 242.588 24.7286 242.574C24.7266 242.56 24.7274 242.546 24.7309 242.533C24.7343 242.519 24.7404 242.506 24.7488 242.495Z" fill="#263238"/>
<path d="M28.9659 226.682C30.2849 224.342 31.6819 222.066 32.9228 219.683C32.9228 219.619 33.0505 219.683 33.0221 219.74C32.0048 222.227 30.7133 224.594 29.1716 226.795C29.1007 226.916 28.9092 226.817 28.9659 226.682Z" fill="#263238"/>
<path d="M19.5813 258.091C19.5145 261.264 19.1393 264.423 18.4609 267.523L18.6098 268.558C19.5877 265.132 20.1542 261.602 20.2975 258.042C20.3276 257.993 20.3435 257.936 20.3435 257.879C20.3435 257.821 20.3276 257.765 20.2975 257.716C20.4311 252.941 20.0771 248.165 19.2409 243.462C17.7589 234.662 14.5182 226.217 8.3772 219.615C8.32537 219.567 8.26295 219.532 8.19504 219.513C8.12713 219.494 8.05566 219.491 7.98648 219.505C7.91731 219.519 7.85239 219.549 7.79705 219.592C7.7417 219.636 7.69751 219.692 7.66808 219.756C5.19325 226.053 6.05837 233.57 8.17155 239.853C9.31669 243.256 10.9557 246.472 13.0361 249.398C15.1847 252.355 17.8723 254.858 19.5813 258.091Z" fill="#50BFA5"/>
<path d="M9.11072 222.553C14.9326 231.999 18.9817 243.188 19.471 254.343C19.471 254.541 19.1519 254.591 19.1235 254.393C18.9817 253.386 18.8328 252.393 18.6697 251.407C16.2586 249.103 13.7909 246.67 12.0677 243.791C12.0677 243.742 12.1103 243.678 12.1528 243.727C14.14 246.178 16.2711 248.508 18.5349 250.705C18.1189 248.237 17.6202 245.81 17.0387 243.422L16.5777 242.884C16.4785 242.763 16.6487 242.593 16.7479 242.706L16.8898 242.862C16.0713 239.584 15.0554 236.359 13.8476 233.204C12.3656 231.438 10.7133 229.914 9.63546 227.786C9.63546 227.737 9.67801 227.694 9.71347 227.737C10.5489 228.963 11.4459 230.147 12.401 231.282C12.791 231.729 13.2236 232.155 13.6278 232.594C12.2909 229.171 10.7004 225.853 8.86962 222.667C8.86217 222.651 8.85791 222.634 8.85708 222.616C8.85626 222.599 8.85888 222.581 8.86481 222.565C8.87073 222.548 8.87985 222.533 8.89162 222.52C8.9034 222.507 8.9176 222.497 8.93344 222.489C8.94927 222.482 8.96641 222.478 8.98388 222.477C9.00136 222.476 9.01883 222.479 9.03529 222.484C9.05175 222.49 9.06689 222.499 9.07983 222.511C9.09277 222.523 9.10327 222.537 9.11072 222.553Z" fill="#263238"/>
<path d="M10.2883 234.207C12.1675 236.732 14.3161 239.171 16.0606 241.766C16.1102 241.837 16.0038 241.915 15.94 241.859C13.6921 239.731 11.7916 236.895 10.1607 234.278C10.111 234.193 10.2387 234.129 10.2883 234.207Z" fill="#263238"/>
<path d="M16.3289 242.346L16.414 242.431C16.4219 242.443 16.4252 242.458 16.4232 242.473C16.4212 242.488 16.4142 242.501 16.4032 242.512C16.3923 242.522 16.3782 242.528 16.3633 242.528C16.3484 242.529 16.3338 242.525 16.3218 242.516L16.2438 242.438C16.2349 242.426 16.2305 242.411 16.2313 242.396C16.2321 242.382 16.238 242.367 16.2481 242.356C16.2582 242.346 16.2718 242.338 16.2866 242.336C16.3013 242.335 16.3163 242.338 16.3289 242.346Z" fill="#263238"/>
<path d="M0.00100901 240.712C0.686145 245.985 2.81087 250.968 6.14199 255.114C7.50881 256.738 9.19944 258.059 11.1058 258.993C13.2332 260.063 15.5166 261.29 17.7503 262.17C18.8095 264.869 19.5958 267.667 20.0975 270.523C20.1755 270.282 20.2464 270.027 20.3173 269.814C18.8991 257.511 10.9285 247.001 0.745585 240.251C0.66782 240.206 0.579252 240.182 0.489343 240.184C0.399435 240.185 0.311563 240.211 0.235109 240.258C0.158656 240.305 0.0964936 240.372 0.0552621 240.452C0.0140306 240.532 -0.00472075 240.622 0.00100901 240.712Z" fill="#50BFA5"/>
<path d="M3.51512 244.34C3.4442 244.276 3.51512 244.149 3.62148 244.206C9.21192 248.366 13.6709 253.862 16.5913 260.189C16.6622 260.359 16.4353 260.508 16.336 260.338C15.8609 259.508 15.3787 258.707 14.9178 257.913C12.5989 257.473 10.3936 255.842 8.67042 254.289C8.62078 254.247 8.67042 254.176 8.74133 254.218C9.62951 255.027 10.6158 255.72 11.6771 256.282C12.6273 256.764 13.6484 257.069 14.6341 257.452C13.769 256.083 12.8755 254.779 11.9395 253.502C9.42882 252.55 7.07453 251.229 4.95463 249.581C4.89081 249.531 4.95463 249.425 5.01845 249.467C7.11786 250.738 9.28377 251.896 11.5069 252.935C10.0914 251.062 8.56153 249.279 6.92598 247.595C6.13886 247.177 5.33755 246.758 4.5717 246.312C4.55572 246.305 4.543 246.292 4.53635 246.276C4.52971 246.261 4.52967 246.243 4.53625 246.227C4.54283 246.211 4.55549 246.198 4.57145 246.191C4.58741 246.185 4.60536 246.185 4.62134 246.191C5.25778 246.415 5.86491 246.715 6.4296 247.085C5.47229 246.149 4.52916 245.234 3.51512 244.34Z" fill="#263238"/>
<path d="M3.73725 248.59C3.87333 248.674 4.00363 248.766 4.12726 248.867C4.16272 248.902 4.12727 248.952 4.07763 248.931C3.93537 248.865 3.79794 248.789 3.66634 248.704C3.59542 248.654 3.66633 248.541 3.73725 248.59Z" fill="#263238"/>
<path d="M36.2156 297.158H8.32593L10.5738 271.758L11.0702 266.148H33.4713L33.9677 271.758L36.2156 297.158Z" fill="#455A64"/>
<path d="M33.9642 271.758H10.5703L11.0667 266.148H33.4678L33.9642 271.758Z" fill="#263238"/>
<path d="M34.8062 262.23H9.73877V267.776H34.8062V262.23Z" fill="#455A64"/>
<path d="M140.825 77.5894C136.868 79.0077 131.926 79.2062 128.458 76.4903C125.579 74.2353 124.523 70.399 124.998 66.8675C125.248 65.0212 125.904 63.2532 126.92 61.691C128.238 59.8216 129.755 58.1003 131.444 56.5569C134.493 53.5361 137.946 49.8841 137.826 45.2677C137.719 41.2116 134.408 38.0489 130.685 36.9498C128.056 36.1977 125.254 36.3196 122.7 37.2972C122.58 37.1129 122.445 36.9285 122.303 36.7512C120.119 33.9927 116.453 32.7234 113.014 32.7305C109.043 32.7702 105.207 34.1749 102.15 36.7087C101.4 37.3263 100.709 38.0123 100.086 38.758C99.8808 38.9991 100.235 39.3324 100.441 39.0913C102.956 36.1492 106.411 34.1675 110.22 33.4822C113.687 32.8581 117.453 33.3474 120.325 35.5102C121.062 36.061 121.705 36.7294 122.225 37.4887C121.343 37.8617 120.507 38.3378 119.736 38.9069C118.353 39.9281 116.325 41.7434 117.127 43.658C117.454 44.3408 118.006 44.8899 118.69 45.2128C119.375 45.5358 120.15 45.6128 120.885 45.4308C122.636 44.9628 123.636 43.1049 123.792 41.4101C123.889 40.1294 123.598 38.8492 122.956 37.7369C125.384 36.8272 128.041 36.7179 130.536 37.4249C134.231 38.5027 137.457 41.6796 137.329 45.7499C137.163 47.9157 136.384 49.9892 135.082 51.7278C133.775 53.4883 132.305 55.1218 130.692 56.6066C129.095 58.0991 127.668 59.7639 126.437 61.5704C125.479 63.0635 124.842 64.7393 124.565 66.4917C124.048 69.782 124.764 73.3702 127.054 75.8734C129.813 78.8942 134.202 79.5466 138.067 78.8587C139.069 78.6706 140.054 78.3978 141.01 78.0433C141.272 77.9511 141.123 77.476 140.825 77.5894ZM123.097 39.3466C123.361 40.1817 123.398 41.0716 123.206 41.9259C123.015 42.7803 122.6 43.5687 122.005 44.2112C121.72 44.4998 121.374 44.7215 120.993 44.8601C120.611 44.9987 120.204 45.0507 119.8 45.0125C119.068 44.9323 118.394 44.5775 117.914 44.0197C116.495 42.3249 118.58 40.3819 119.885 39.3962C120.687 38.7953 121.561 38.2974 122.488 37.9142C122.754 38.3638 122.964 38.845 123.112 39.3466H123.097Z" fill="#263238"/>
<path d="M213.824 113.75C209.364 112.332 205.166 115.573 202.13 118.459C199.095 121.345 195.805 124.805 191.302 124.593C190.288 124.573 189.292 124.32 188.39 123.854C187.489 123.388 186.707 122.721 186.104 121.905C184.941 120.203 184.736 118.062 184.863 116.055C185.147 111.687 187.381 107.056 185.573 102.745C184.717 100.842 183.208 99.3095 181.318 98.4261C179.122 97.4328 176.743 96.9064 174.333 96.8802C173.695 96.8802 173.049 96.8306 172.411 96.8164C172.345 96.8164 172.282 96.8426 172.236 96.8891C172.189 96.9357 172.163 96.9988 172.163 97.0646C172.163 97.1304 172.189 97.1936 172.236 97.2401C172.282 97.2866 172.345 97.3128 172.411 97.3128C174.95 97.2432 177.482 97.593 179.907 98.3481C181.946 99.024 183.677 100.407 184.785 102.248C185.92 104.312 185.863 106.758 185.53 109.02C185.197 111.282 184.587 113.367 184.388 115.58C184.11 117.581 184.408 119.62 185.246 121.458C185.702 122.32 186.341 123.072 187.117 123.661C187.894 124.25 188.79 124.662 189.742 124.869C191.712 125.305 193.771 125.07 195.592 124.203C197.511 123.228 199.259 121.949 200.769 120.416C202.329 118.82 204.012 117.35 205.804 116.019C207.633 114.778 209.789 113.793 212.044 113.892C212.598 113.929 213.145 114.031 213.675 114.197C214.001 114.325 214.129 113.849 213.824 113.75Z" fill="#263238"/>
<path d="M77.3921 100.025C76.9666 99.2167 76.4844 97.9757 77.0801 97.1248C77.1429 97.0347 77.2232 96.9581 77.3161 96.8995C77.4091 96.8409 77.5128 96.8015 77.6212 96.7837C77.7296 96.7658 77.8404 96.7699 77.9473 96.7956C78.0541 96.8213 78.1546 96.8681 78.2431 96.9333C78.5817 97.2049 78.8291 97.5736 78.9522 97.9899C79.2075 98.8652 79.2075 99.7951 78.9522 100.67C78.8579 101.011 78.7345 101.343 78.5834 101.663C78.1054 101.181 77.7036 100.629 77.3921 100.025ZM89.6173 99.8975C89.1586 100.808 88.5075 101.608 87.7093 102.242C86.911 102.876 85.9845 103.33 84.9939 103.571C84.0135 103.797 82.995 103.8 82.0133 103.58C81.0315 103.361 80.1115 102.924 79.3209 102.301L78.9947 102.018C79.1957 101.619 79.355 101.201 79.4698 100.77C79.7322 99.8255 79.7322 98.8277 79.4698 97.8836C79.2216 97.0893 78.548 96.1817 77.6119 96.2951C76.4703 96.4299 76.2433 97.7914 76.4064 98.7203C76.6423 99.7768 77.1481 100.754 77.8743 101.557C78.0374 101.748 78.2076 101.933 78.3849 102.103C77.7349 103.259 76.7445 104.188 75.5484 104.762C73.7085 105.541 71.6399 105.584 69.7691 104.883C65.3867 103.33 62.9757 98.7416 62.2382 94.3876C61.5657 90.336 62.2016 86.1756 64.0536 82.5098C64.2876 82.056 64.5358 81.6234 64.8052 81.1909C64.9683 80.9214 64.5712 80.6236 64.4081 80.893C62.0199 84.7354 61.0259 89.2823 61.5929 93.7707C62.2099 98.4934 64.713 103.592 69.4429 105.315C71.4533 106.097 73.6896 106.064 75.676 105.223C76.9498 104.625 78.011 103.653 78.7182 102.436C80.0435 103.585 81.7365 104.222 83.4905 104.23C84.5811 104.198 85.652 103.932 86.6307 103.45C87.6095 102.968 88.4732 102.281 89.1635 101.436C89.5009 101.013 89.791 100.554 90.0286 100.068C90.213 99.784 89.7592 99.5996 89.6173 99.8833V99.8975ZM64.9187 80.1697C63.2861 81.2045 61.7206 82.3413 60.2314 83.5735C60.0045 83.765 60.2314 84.155 60.4796 83.9706C61.8135 82.8594 63.213 81.8293 64.6705 80.8859C64.2706 82.4581 64.0564 84.0717 64.0323 85.6938C64.0418 85.748 64.0702 85.7971 64.1123 85.8324C64.1545 85.8678 64.2077 85.8872 64.2628 85.8872C64.3178 85.8872 64.371 85.8678 64.4132 85.8324C64.4553 85.7971 64.4837 85.748 64.4932 85.6938C64.5156 83.911 64.7755 82.1391 65.2662 80.425C65.2768 80.3803 65.2741 80.3334 65.2582 80.2902C65.2424 80.247 65.2142 80.2094 65.1771 80.1822C65.14 80.1549 65.0957 80.1392 65.0498 80.137C65.0038 80.1348 64.9582 80.1462 64.9187 80.1697Z" fill="#263238"/>
<path d="M192.239 61.0596C192.572 60.2087 193.196 59.0315 194.232 58.9322C194.341 58.9205 194.451 58.9309 194.555 58.9626C194.66 58.9943 194.757 59.0468 194.842 59.117C194.926 59.1871 194.995 59.2735 195.045 59.3709C195.095 59.4683 195.124 59.5747 195.132 59.6839C195.157 60.1216 195.043 60.5558 194.806 60.9249C194.315 61.6902 193.617 62.3001 192.792 62.6835C192.472 62.8346 192.14 62.9579 191.799 63.0522C191.845 62.3696 191.993 61.6978 192.239 61.0596ZM200.344 70.2427C199.356 70.4927 198.325 70.5238 197.323 70.334C196.321 70.1441 195.372 69.7379 194.544 69.1436C193.728 68.5508 193.056 67.7823 192.577 66.8948C192.099 66.0074 191.826 65.0238 191.778 64.0166C191.778 63.8748 191.778 63.733 191.778 63.5912C192.211 63.4811 192.632 63.3267 193.033 63.1302C193.918 62.7099 194.671 62.0551 195.21 61.2369C195.65 60.5278 195.919 59.4286 195.21 58.7904C194.359 58.0175 193.175 58.7337 192.579 59.4995C191.927 60.3593 191.506 61.3729 191.36 62.4424C191.322 62.6914 191.298 62.9423 191.289 63.1941C189.984 63.4558 188.629 63.3098 187.41 62.7757C185.622 61.904 184.234 60.3819 183.531 58.521C181.836 54.1882 183.73 49.3662 186.538 45.9624C189.159 42.8076 192.719 40.5718 196.699 39.5804C197.196 39.4598 197.685 39.3605 198.189 39.2825C198.501 39.2329 198.465 38.7436 198.153 38.7932C193.694 39.5214 189.621 41.7595 186.616 45.1328C183.453 48.6784 181.241 53.9188 183.035 58.606C183.764 60.6345 185.251 62.3017 187.183 63.2579C188.471 63.8245 189.899 63.9901 191.282 63.733C191.287 65.486 191.915 67.18 193.055 68.5125C193.792 69.3227 194.696 69.9635 195.705 70.3907C196.713 70.8179 197.803 71.0215 198.898 70.9873C199.437 70.9712 199.973 70.8903 200.493 70.7462C200.812 70.6044 200.649 70.1363 200.344 70.2427ZM199.047 38.6869C197.186 38.1282 195.291 37.69 193.374 37.375C193.09 37.3254 192.948 37.765 193.246 37.8146C194.959 38.1014 196.655 38.4873 198.323 38.9705C196.869 39.6933 195.507 40.5885 194.267 41.6368C194.04 41.8283 194.352 42.1686 194.579 41.9772C195.94 40.8355 197.447 39.8815 199.061 39.1407C199.125 39.1388 199.185 39.1116 199.229 39.0651C199.273 39.0185 199.297 38.9565 199.295 38.8925C199.293 38.8286 199.266 38.768 199.219 38.7241C199.173 38.6802 199.111 38.6566 199.047 38.6585V38.6869Z" fill="#263238"/>
<path d="M169.58 140.757C169.612 140.405 169.676 140.056 169.772 139.715C170.014 138.833 170.507 138.04 171.19 137.432C171.511 137.134 171.918 136.945 172.353 136.893C172.463 136.883 172.573 136.895 172.678 136.928C172.783 136.962 172.88 137.016 172.964 137.087C173.047 137.158 173.116 137.246 173.166 137.344C173.216 137.442 173.246 137.549 173.254 137.658C173.325 138.694 172.275 139.509 171.488 139.984C170.896 140.339 170.252 140.6 169.58 140.757ZM160.567 133.475C160.522 134.013 160.534 134.555 160.603 135.091C160.756 136.177 161.143 137.217 161.737 138.138C162.331 139.06 163.117 139.842 164.042 140.431C165.546 141.331 167.322 141.66 169.049 141.36C169.027 142.767 169.435 144.148 170.219 145.317C171.483 147.065 173.382 148.249 175.509 148.614C180.472 149.586 185.224 146.487 188.195 142.792C190.995 139.253 192.497 134.86 192.45 130.347C192.45 130.028 191.96 130.078 191.96 130.397C191.96 130.898 191.946 131.402 191.918 131.908C191.614 136.005 190.009 139.898 187.337 143.019C184.458 146.366 180.026 149.054 175.473 148.111C173.508 147.752 171.757 146.646 170.587 145.026C169.849 143.917 169.472 142.607 169.509 141.275C169.758 141.218 169.999 141.154 170.219 141.076C171.263 140.756 172.208 140.172 172.963 139.382C173.58 138.673 174.083 137.382 173.176 136.673C172.431 136.098 171.389 136.531 170.765 137.084C170.051 137.752 169.533 138.603 169.268 139.545C169.146 139.976 169.065 140.417 169.027 140.864C168.893 140.864 168.751 140.92 168.609 140.935C167.609 141.059 166.595 140.957 165.64 140.637C164.685 140.317 163.814 139.786 163.092 139.084C162.365 138.37 161.802 137.505 161.443 136.551C161.084 135.597 160.938 134.576 161.014 133.56C161.085 133.241 160.596 133.163 160.567 133.475ZM191.946 129.496C191.482 131.216 190.791 132.867 189.89 134.404C189.741 134.659 190.131 134.907 190.28 134.652C191.099 133.249 191.749 131.754 192.216 130.199C192.973 131.762 193.64 133.367 194.215 135.006C194.315 135.29 194.726 135.077 194.634 134.801C193.994 132.976 193.241 131.192 192.379 129.461C192.358 129.419 192.325 129.385 192.284 129.362C192.243 129.339 192.197 129.329 192.15 129.333C192.104 129.337 192.06 129.354 192.023 129.383C191.987 129.413 191.96 129.452 191.946 129.496Z" fill="#263238"/>
<path d="M99.4334 120.376C97.2047 121.339 94.8622 122.013 92.4627 122.383C90.4938 122.597 88.5019 122.389 86.6196 121.773C82.7197 120.445 79.4603 117.702 77.4861 114.086C76.2773 111.899 75.4771 109.511 75.1247 107.037C75.0751 106.725 74.5858 106.739 74.6284 107.037C75.2103 111.552 77.3376 115.727 80.6488 118.851C83.5981 121.56 87.4806 123.024 91.4841 122.936C94.3206 122.822 96.9798 121.837 99.5823 120.808C99.8872 120.73 99.7312 120.262 99.4334 120.376Z" fill="#37474F"/>
<path d="M180.17 106.997C180.195 109.428 179.906 111.852 179.312 114.209C178.746 116.108 177.779 117.864 176.476 119.357C173.743 122.45 169.945 124.4 165.839 124.817C163.354 125.091 160.84 124.906 158.422 124.271C158.117 124.193 157.939 124.654 158.244 124.739C162.635 125.944 167.308 125.593 171.469 123.747C175.107 122.071 177.957 119.055 179.426 115.329C180.404 112.684 180.525 109.834 180.603 107.047C180.667 106.728 180.177 106.678 180.17 106.997Z" fill="#37474F"/>
<path d="M174.296 57.9819C170.784 55.9143 166.995 54.3597 163.042 53.3656C159.203 52.3638 155.233 51.9573 151.271 52.16C147.487 52.2946 143.823 53.5265 140.726 55.7057L140.62 55.7837C138.937 55.2696 137.208 54.9228 135.458 54.7483C132.191 54.3732 128.887 54.4783 125.65 55.0603C119.175 56.1915 113.162 59.16 108.327 63.6123C107.745 64.1513 107.192 64.7115 106.653 65.293C106.384 65.5837 106.809 66.0375 107.086 65.7397C111.312 61.2207 116.714 57.9694 122.686 56.351C125.662 55.5371 128.735 55.1315 131.82 55.1454C134.58 55.1205 137.33 55.498 139.982 56.2659C138.788 57.2651 137.778 58.4649 136.996 59.8115C136.096 61.3573 135.458 63.2294 135.94 65.0164C136.141 65.8021 136.567 66.512 137.167 67.0587C137.883 67.6474 138.772 67.986 139.698 68.0231C141.396 68.14 143.076 67.6106 144.4 66.541C145.046 66.0106 145.571 65.3472 145.938 64.5959C146.305 63.8445 146.506 63.023 146.527 62.187C146.523 61.391 146.347 60.6052 146.012 59.8832C145.676 59.1612 145.189 58.52 144.584 58.0032C143.624 57.1653 142.519 56.5115 141.322 56.0744C143.76 54.3828 146.574 53.3095 149.519 52.9472C153.241 52.5182 157.008 52.6954 160.674 53.4719C164.435 54.2018 168.079 55.4449 171.502 57.1664C172.339 57.5848 173.169 58.0387 173.977 58.5138C174.012 58.5347 174.051 58.5486 174.091 58.5546C174.131 58.5606 174.172 58.5586 174.212 58.5487C174.251 58.5388 174.288 58.5213 174.321 58.497C174.354 58.4728 174.381 58.4423 174.402 58.4074C174.423 58.3725 174.437 58.3338 174.443 58.2935C174.449 58.2532 174.447 58.2121 174.437 58.1726C174.427 58.1331 174.41 58.0959 174.386 58.0632C174.361 58.0305 174.331 58.0029 174.296 57.9819ZM140.967 56.5637C142.453 57.0437 143.784 57.9101 144.825 59.074C145.327 59.6879 145.668 60.4171 145.818 61.1957C145.968 61.9744 145.921 62.778 145.683 63.5343C145.428 64.3216 144.995 65.0397 144.418 65.6335C143.842 66.2273 143.137 66.6809 142.357 66.9594C140.811 67.5338 138.656 67.6685 137.393 66.3637C136.131 65.0589 136.223 63.1089 136.812 61.5275C137.484 59.8437 138.537 58.3388 139.89 57.131C140.145 56.9041 140.407 56.6842 140.677 56.4715L140.967 56.5637Z" fill="#37474F"/>
<path d="M154.784 38.5987C154.386 40.2722 153.365 41.9032 151.6 42.2932C151.184 42.3982 150.75 42.4035 150.332 42.3086C149.914 42.2137 149.525 42.0213 149.196 41.7472C148.59 41.175 148.231 40.3888 148.196 39.556C148.082 37.7264 149.267 36.0104 150.486 34.7978C151.522 33.7547 152.719 32.8855 154.032 32.2237C154.97 34.2102 155.234 36.4485 154.784 38.5987ZM169.157 29.4227C164.974 29.373 160.648 29.3163 156.634 30.6069C155.828 30.8671 155.039 31.1798 154.273 31.5429C151.273 25.4161 143.821 22.9271 137.297 22.7995C133.219 22.7131 129.169 23.4888 125.412 25.0757C121.866 26.5791 118.618 28.7277 115.158 30.4225C111.856 32.1413 108.18 33.0182 104.457 32.9753C99.9045 32.8622 95.5197 31.2325 91.998 28.3448C91.7569 28.1462 91.4095 28.4866 91.6506 28.6923C94.2785 30.8308 97.3793 32.3108 100.695 33.0089C104.01 33.707 107.445 33.6031 110.712 32.7059C114.208 31.706 117.363 29.8694 120.526 28.0895C122.136 27.168 123.793 26.3301 125.49 25.5792C127.315 24.7996 129.216 24.2126 131.163 23.8277C134.991 23.059 138.938 23.1 142.75 23.9482C146.203 24.7354 149.593 26.3238 151.968 29.0185C152.695 29.8538 153.312 30.7783 153.805 31.7698C151.532 32.8342 149.637 34.5657 148.373 36.7337C147.586 38.2157 147.331 40.0949 148.373 41.5273C148.848 42.1518 149.528 42.5882 150.294 42.7595C151.06 42.9308 151.861 42.8259 152.557 42.4634C154.096 41.7542 154.961 40.1233 155.294 38.5278C155.636 36.8181 155.541 35.0498 155.018 33.3866C154.865 32.905 154.687 32.4316 154.486 31.9684L154.656 31.8762C158.201 30.2169 162.215 29.8978 166.094 29.8694C167.115 29.8694 168.136 29.8694 169.157 29.8694C169.199 29.8491 169.235 29.8173 169.259 29.7778C169.284 29.7383 169.297 29.6927 169.297 29.646C169.297 29.5994 169.284 29.5537 169.259 29.5142C169.235 29.4747 169.199 29.443 169.157 29.4227ZM90.8918 28.3306C92.049 29.8776 93.3019 31.3508 94.6431 32.7413C94.8487 32.9541 95.2245 32.6846 95.0189 32.4719C93.8131 31.2178 92.6791 29.8968 91.6222 28.515C93.222 28.8018 94.8506 28.8947 96.4726 28.7915C96.7704 28.7915 96.7208 28.3093 96.43 28.3306C94.6511 28.4459 92.8647 28.3219 91.1187 27.9619C91.0729 27.9544 91.0259 27.9607 90.9837 27.9799C90.9415 27.9992 90.906 28.0306 90.8816 28.0702C90.8573 28.1097 90.8453 28.1556 90.8471 28.2019C90.8489 28.2483 90.8645 28.2931 90.8918 28.3306Z" fill="#37474F"/>
<path d="M196.32 105.968C196.85 105.008 197.533 104.141 198.341 103.401C199.207 102.536 200.315 101.955 201.518 101.734C202.091 101.67 202.67 101.797 203.164 102.096C203.658 102.395 204.039 102.849 204.248 103.387C204.462 103.929 204.553 104.513 204.515 105.095C204.477 105.678 204.311 106.244 204.028 106.755C202.475 109.797 198.064 112.222 194.689 111.073C194.899 109.282 195.452 107.549 196.32 105.968ZM218.062 134.403C213.159 134.869 208.244 133.656 204.12 130.964C200.039 128.239 197.019 124.193 195.568 119.505C194.753 116.946 194.449 114.253 194.675 111.577C197.923 112.605 201.95 110.591 203.893 107.939C204.649 106.99 205.057 105.812 205.049 104.599C205.031 104.086 204.908 103.583 204.69 103.119C204.472 102.654 204.163 102.239 203.78 101.897C201.83 100.281 199.192 101.897 197.696 103.351C195.739 105.411 194.528 108.068 194.256 110.896C193.658 110.625 193.119 110.239 192.668 109.761C191.165 108.173 190.81 105.769 191.136 103.684C191.526 101.139 192.902 98.8694 194.164 96.6853C196.696 92.303 198.596 87.5093 198.653 82.3824C198.694 79.9211 198.225 77.4779 197.277 75.2061C196.372 73.129 195.088 71.2388 193.491 69.6324C190.172 66.2286 185.839 63.9594 181.436 62.2788C176.264 60.3277 170.806 59.2447 165.282 59.0736C163.942 59.0311 162.608 59.0736 161.268 59.0736C160.956 59.0736 160.949 59.5842 161.268 59.57C167.045 59.2807 172.828 60.0006 178.358 61.6973C183.244 63.2007 188.13 65.3989 191.98 68.7885C193.808 70.3795 195.314 72.305 196.419 74.4615C197.565 76.8038 198.16 79.3776 198.157 81.9853C198.151 84.6404 197.705 87.2762 196.838 89.7856C195.929 92.319 194.768 94.7542 193.37 97.0541C192.101 99.2523 190.831 101.571 190.576 104.145C190.426 105.214 190.506 106.302 190.812 107.337C191.118 108.372 191.642 109.329 192.349 110.144C192.868 110.687 193.493 111.116 194.186 111.407C194.034 112.977 194.067 114.56 194.285 116.122C194.942 121.096 197.3 125.689 200.96 129.121C204.619 132.553 209.354 134.613 214.36 134.949C215.598 135.041 216.841 135.022 218.076 134.893C218.381 134.864 218.381 134.368 218.069 134.403H218.062ZM218.891 134.403C217.087 133.714 215.239 133.143 213.36 132.694C213.069 132.624 212.906 133.056 213.19 133.12C214.872 133.533 216.529 134.039 218.154 134.637C216.646 135.254 215.217 136.049 213.899 137.006C213.658 137.183 213.942 137.545 214.183 137.368C215.624 136.319 217.198 135.465 218.863 134.829C218.9 134.812 218.932 134.785 218.956 134.751C218.98 134.717 218.994 134.678 218.998 134.637C219.001 134.596 218.994 134.555 218.976 134.518C218.959 134.48 218.932 134.448 218.898 134.425L218.891 134.403Z" fill="#37474F"/>
<path d="M130.631 97.4984C128.071 98.2076 124.745 97.9168 123.001 95.6831C121.462 93.7259 121.831 91.0738 123.001 89.0245C123.597 87.955 124.399 87.0148 125.362 86.2589C126.49 85.3796 127.745 84.6705 128.908 83.8266C130.015 83.0832 130.911 82.0672 131.51 80.8767C131.762 80.2919 131.888 79.6607 131.879 79.0241C131.871 78.3876 131.728 77.7599 131.461 77.1821C130.156 74.3031 126.972 73.3245 124.058 73.0267C120.682 72.6863 117.278 72.7785 113.896 72.4878C110.8 72.3197 107.761 71.5817 104.933 70.3108C102.367 69.1542 100.231 67.219 98.8271 64.7796C97.5181 62.1729 97.2273 59.1719 98.0116 56.3624C98.8793 53.3322 100.657 50.6415 103.103 48.6543C103.705 48.1434 104.337 47.6697 104.996 47.236C105.259 47.0587 104.961 46.6687 104.699 46.8389C101.954 48.5855 99.7451 51.0568 98.3166 53.9797C97.0528 56.6554 96.7377 59.6815 97.4231 62.5601C98.9264 68.4316 104.791 71.5376 110.35 72.5374C113.752 73.0264 117.182 73.2823 120.618 73.3033C123.795 73.438 127.759 73.4238 130.064 75.9908C130.538 76.478 130.897 77.0654 131.114 77.7097C131.332 78.354 131.402 79.0388 131.319 79.7137C130.993 81.0788 130.169 82.2726 129.007 83.0608C127.859 83.9755 126.575 84.7059 125.384 85.571C124.371 86.3026 123.502 87.2164 122.824 88.2657C121.569 90.23 120.916 92.8253 121.987 95.0165C123.228 97.541 126.157 98.4912 128.802 98.2927C129.474 98.2399 130.139 98.1187 130.787 97.931C131.12 97.8955 130.929 97.4063 130.631 97.4984Z" fill="#263238"/>
<path d="M105.556 46.5703C103.63 46.7414 101.716 47.0303 99.826 47.4354C99.5424 47.4993 99.5707 47.9602 99.826 47.8964C101.526 47.5339 103.245 47.2664 104.974 47.0951C103.892 48.307 102.957 49.6423 102.187 51.0732C102.053 51.3356 102.464 51.5342 102.606 51.2718C103.445 49.7007 104.489 48.2484 105.712 46.9532C105.739 46.9206 105.757 46.8812 105.763 46.8392C105.77 46.7972 105.765 46.7542 105.749 46.7148C105.733 46.6755 105.706 46.6412 105.672 46.6158C105.638 46.5903 105.598 46.5746 105.556 46.5703Z" fill="#263238"/>
<path d="M90.324 91.2262C89.4754 92.3943 88.3621 93.3446 87.0752 93.9992C85.7883 94.6537 84.3646 94.9938 82.9208 94.9917C79.878 95.0198 76.9148 94.0204 74.5106 92.1552C71.8974 90.06 69.6827 87.5114 67.9725 84.6314C67.5187 83.9223 67.079 83.2132 66.6465 82.504C66.4834 82.2275 66.9159 81.9935 67.079 82.2701C68.7289 85.251 70.7757 87.9944 73.1633 90.4249C75.3989 92.6664 78.3238 94.0902 81.4671 94.4669C84.3745 94.7435 87.4308 93.9351 89.3951 91.6659C91.5224 89.2549 91.9408 85.7447 91.3239 82.7026C90.6147 79.157 88.5725 76.0511 86.4593 73.1862C84.1431 70.0629 81.6525 67.0727 78.9994 64.23C76.6451 61.7056 74.0781 59.2662 72.2556 56.3375C70.6077 53.8269 69.9343 50.8006 70.3623 47.8281C70.8232 45.0767 72.4896 42.609 75.2268 41.7226C78.1555 40.7652 81.4033 41.8431 83.8497 43.5166C84.4655 43.9456 85.0486 44.4196 85.5942 44.9349C85.8211 45.1547 85.4665 45.4951 85.2325 45.2753C83.0271 43.1479 79.8928 41.5949 76.7798 41.9069C75.3054 42.0428 73.9241 42.687 72.8726 43.7294C71.9272 44.7156 71.27 45.9418 70.9721 47.275C70.3585 50.2501 70.9392 53.3472 72.5889 55.8979C74.3546 58.8974 76.9713 61.3297 79.3185 63.8613C81.9711 66.705 84.4594 69.6976 86.7713 72.8246C88.8987 75.661 90.87 78.7103 91.6784 82.192C92.4088 85.2058 92.0826 88.6308 90.324 91.2262Z" fill="#263238"/>
<path d="M210.318 102.023C210.142 101.182 209.749 100.402 209.177 99.7613C208.437 99.0461 207.562 98.4867 206.603 98.1162C205.584 97.6947 204.646 97.0996 203.83 96.3576C203.112 95.6507 202.551 94.8001 202.185 93.8615C200.447 89.3798 203.915 85.0329 206.837 82.005C209.758 78.977 212.978 75.9136 213.346 71.588C213.694 67.6311 211.687 63.7877 208.843 61.1427C205.539 58.0722 201.043 56.6043 196.746 55.6895C191.867 54.6542 186.818 54.2713 182.06 52.8105C178.139 51.5837 174.331 49.4776 171.87 46.1022C166.417 38.6139 171.437 28.7713 177.848 23.7153C178.732 23.0159 179.682 22.4032 180.684 21.8858C180.961 21.7369 180.762 21.283 180.486 21.4319C176.624 23.5611 173.462 26.7629 171.381 30.6505C169.409 34.1961 168.381 38.5076 169.551 42.5141C170.657 46.2937 173.565 49.2294 176.912 51.1583C180.982 53.4983 185.655 54.3564 190.229 55.0868C194.916 55.8384 199.71 56.505 204.036 58.5615C207.929 60.4194 211.297 63.582 212.495 67.8368C213.076 69.782 213.046 71.8584 212.41 73.7863C211.614 75.8191 210.407 77.6658 208.865 79.211C205.979 82.3879 202.334 85.3733 201.419 89.7911C201.2 90.7825 201.185 91.808 201.376 92.8052C201.566 93.8024 201.957 94.7505 202.525 95.5917C203.077 96.4082 203.783 97.1091 204.603 97.6553C205.49 98.1746 206.404 98.6479 207.34 99.0735C208.289 99.5284 209.056 100.291 209.517 101.236C209.897 102.103 210.046 103.053 209.95 103.995C209.772 106.172 208.531 107.994 207 109.505C206.241 110.263 205.425 110.958 204.61 111.632C204.369 111.838 204.674 112.221 204.915 112.015C207.829 109.498 211.283 106.271 210.318 102.023Z" fill="#37474F"/>
<path d="M181.159 21.0083C179.243 21.3182 177.349 21.7469 175.486 22.2918C175.21 22.3769 175.273 22.8307 175.564 22.7456C177.231 22.258 178.923 21.865 180.634 21.5685C179.645 22.8567 178.81 24.256 178.145 25.7381C178.025 26.0147 178.457 26.1848 178.578 25.9154C179.301 24.2852 180.238 22.7589 181.365 21.377C181.39 21.341 181.405 21.2984 181.407 21.2544C181.41 21.2103 181.4 21.1664 181.378 21.1278C181.357 21.0893 181.325 21.0576 181.286 21.0364C181.247 21.0153 181.203 21.0055 181.159 21.0083Z" fill="#37474F"/>
<path d="M142.048 73.7864C141.264 74.1386 140.585 74.6884 140.077 75.3819C139.534 76.2463 139.17 77.2108 139.006 78.2184C138.809 79.3044 138.425 80.348 137.872 81.3031C137.321 82.1547 136.596 82.8798 135.744 83.4304C131.731 86.0684 126.746 83.5865 123.179 81.3669C119.612 79.1474 115.946 76.6371 111.62 77.176C107.685 77.6724 104.33 80.445 102.352 83.7779C100.047 87.6497 99.5155 92.2874 99.558 96.7477C99.558 101.712 100.267 106.725 99.8275 111.717C99.4516 115.802 98.1894 119.971 95.4097 123.063C89.2474 130.027 78.6106 127.183 72.2923 122.007C71.4257 121.294 70.6279 120.501 69.9097 119.638C69.7111 119.397 69.3069 119.681 69.5126 119.929C72.3947 123.253 76.1739 125.675 80.3976 126.907C84.3119 128.084 88.7156 128.183 92.3817 126.197C95.8493 124.325 98.1114 120.865 99.2885 117.185C100.707 112.724 100.586 107.966 100.338 103.343C100.09 98.7191 99.7353 93.7836 100.842 89.1176C101.841 84.9196 104.224 80.9627 108.131 78.8992C109.912 77.9239 111.949 77.518 113.967 77.7362C116.121 78.0827 118.18 78.8697 120.016 80.0479C123.725 82.1753 127.405 85.1394 131.922 85.1111C132.937 85.1134 133.941 84.9112 134.876 84.5164C135.81 84.1216 136.656 83.5425 137.361 82.8135C138.04 82.0982 138.576 81.2609 138.943 80.3458C139.255 79.3716 139.517 78.3823 139.73 77.3817C139.974 76.3576 140.556 75.4458 141.382 74.7934C142.153 74.2427 143.051 73.8963 143.991 73.7864C146.154 73.5028 148.211 74.3679 149.998 75.5167C150.898 76.0981 151.749 76.7505 152.593 77.4029C152.848 77.5944 153.16 77.2115 152.905 77.02C149.877 74.6728 145.977 71.9711 142.048 73.7864Z" fill="#37474F"/>
<path d="M68.9501 119.309C69.6531 121.11 70.4678 122.865 71.3895 124.564C71.5313 124.819 71.9639 124.663 71.822 124.401C70.9952 122.871 70.2542 121.297 69.6025 119.685C71.0695 120.385 72.6144 120.909 74.2047 121.245C74.4954 121.302 74.5734 120.848 74.2827 120.784C72.5366 120.424 70.8476 119.827 69.2621 119.012C69.2199 118.993 69.1732 118.988 69.1279 118.996C69.0825 119.004 69.0406 119.025 69.0072 119.057C68.9739 119.089 68.9507 119.13 68.9406 119.175C68.9304 119.219 68.9337 119.266 68.9501 119.309Z" fill="#37474F"/>
<path d="M121.997 126.648C121.024 127.204 119.912 127.469 118.792 127.41C117.673 127.35 116.595 126.97 115.686 126.315C113.424 124.719 113.076 121.805 113.707 119.28C115.041 113.933 120.409 110.062 119.969 104.183C119.925 103.015 119.542 101.885 118.867 100.931C118.192 99.9764 117.255 99.2389 116.168 98.8079C113.757 97.879 110.992 98.2832 108.588 99.0136C105.808 99.8987 103.206 101.267 100.901 103.056C98.4614 104.899 96.1993 107.048 93.4124 108.374C90.8596 109.594 87.8813 110.019 85.3001 108.658C83.1338 107.461 81.5168 105.471 80.7901 103.105C78.996 97.4819 82.3785 91.7593 86.5127 88.1428C88.7707 86.2726 91.2188 84.6445 93.8166 83.2853C96.3347 82.0117 98.7402 80.5266 101.007 78.8462C103.105 77.2446 104.702 75.0771 105.609 72.5989C106.041 71.45 106.218 70.2214 106.13 68.9974C106.042 67.7734 105.69 66.5829 105.099 65.5077C102.567 61.2529 97.1211 60.3594 92.8735 58.7214C90.6469 57.8633 88.3493 56.7075 86.8743 54.7645C86.1422 53.7981 85.6726 52.6588 85.511 51.4572C85.3495 50.2556 85.5016 49.0327 85.9525 47.9073C86.3836 46.7975 87.0974 45.8196 88.0231 45.0708C88.2642 44.8723 87.9167 44.5248 87.6686 44.7233C86.759 45.4889 86.0406 46.4561 85.5704 47.548C85.1001 48.6399 84.891 49.8264 84.9597 51.0132C85.0576 52.1655 85.4044 53.2827 85.9762 54.2878C86.5479 55.293 87.331 56.1621 88.2713 56.8351C92.2707 59.9056 97.6175 60.1325 101.787 62.8697C102.865 63.5092 103.777 64.3942 104.449 65.4527C105.12 66.5112 105.533 67.7132 105.652 68.9611C105.708 71.6682 104.741 74.2969 102.943 76.3217C101.064 78.5484 98.5252 80.1155 96.0078 81.5267C93.4174 82.8791 90.9033 84.3728 88.4769 86.0012C83.9102 89.249 79.854 94.0639 79.8257 99.9567C79.8257 104.807 83.3358 109.813 88.4698 110.019C91.4694 110.147 94.2846 108.714 96.6531 107.005C99.1563 105.204 101.411 103.07 104.099 101.524C106.608 99.9969 109.434 99.0676 112.36 98.8079C114.963 98.659 117.771 99.4532 118.934 102.006C120.054 104.438 119.409 107.324 118.267 109.622C116.962 112.246 115.033 114.522 113.885 117.224C112.849 119.677 112.381 122.698 113.842 125.081C114.433 125.977 115.243 126.707 116.194 127.203C117.146 127.7 118.208 127.945 119.281 127.917C120.327 127.907 121.351 127.615 122.245 127.073C122.515 126.91 122.267 126.485 121.997 126.648Z" fill="#37474F"/>
<path d="M141.437 152.275C140.393 151.868 139.487 151.17 138.827 150.264C138.168 149.357 137.781 148.281 137.714 147.162C137.537 144.397 139.579 142.291 141.969 141.192C146.968 138.859 153.365 140.589 157.648 136.554C158.526 135.781 159.161 134.77 159.475 133.644C159.79 132.517 159.771 131.323 159.42 130.207C158.633 127.747 156.584 125.86 154.457 124.456C152.02 122.852 149.319 121.69 146.479 121.024C143.508 120.315 140.409 119.89 137.622 118.564C135.076 117.344 132.864 115.302 132.297 112.437C131.863 110.002 132.389 107.494 133.764 105.438C137.005 100.474 143.6 99.5095 148.996 100.474C151.871 101.049 154.678 101.924 157.371 103.083C159.946 104.24 162.615 105.174 165.349 105.877C167.914 106.497 170.603 106.372 173.099 105.516C174.263 105.127 175.329 104.49 176.223 103.651C177.118 102.811 177.821 101.788 178.283 100.651C180.006 95.9993 177.262 91.2128 175.858 86.8729C175.149 84.6038 174.574 82.0935 175.149 79.725C175.439 78.5482 176.028 77.4663 176.859 76.5842C177.69 75.7021 178.735 75.0497 179.893 74.6903C181.039 74.3222 182.26 74.2587 183.438 74.5059C183.75 74.5697 183.8 74.0804 183.488 74.0166C182.32 73.7919 181.116 73.8428 179.971 74.1653C178.826 74.4878 177.772 75.0731 176.893 75.8745C176.059 76.6756 175.409 77.6488 174.989 78.7265C174.569 79.8041 174.389 80.9604 174.461 82.1147C174.596 87.1495 177.787 91.4468 178.283 96.4106C178.467 97.6505 178.354 98.9163 177.955 100.104C177.556 101.292 176.881 102.369 175.985 103.247C173.922 104.997 171.272 105.902 168.568 105.778C165.646 105.721 162.838 104.736 160.158 103.651C157.475 102.494 154.731 101.483 151.939 100.623C146.536 99.1194 140.239 98.9989 135.629 102.693C131.843 105.728 130.183 111.621 133.254 115.741C135.048 118.152 137.934 119.436 140.749 120.202C143.728 121.01 146.805 121.414 149.698 122.535C152.462 123.523 154.963 125.131 157.009 127.236C158.768 129.165 159.917 131.838 158.669 134.327C157.477 136.731 154.832 138.05 152.329 138.582C149.493 139.22 146.486 139.149 143.664 139.965C141.111 140.674 138.466 142.241 137.537 144.879C137.209 145.902 137.148 146.992 137.359 148.045C137.57 149.099 138.046 150.081 138.742 150.899C139.413 151.703 140.284 152.315 141.267 152.672C141.558 152.842 141.721 152.381 141.437 152.275Z" fill="#455A64"/>
<path d="M87.8299 118.293C92.7441 119.315 97.7079 120.896 101.7 124.044C104.967 126.528 107.194 130.137 107.948 134.171C108.267 136.164 108.089 138.205 107.43 140.113C106.721 142.141 105.686 144.027 105.012 146.07C104.287 147.911 104.216 149.945 104.811 151.832C105.406 153.719 106.631 155.345 108.281 156.437C111.592 158.756 116.081 158.529 119.492 156.572C122.903 154.615 125.406 150.899 124.896 146.914C124.836 146.479 124.734 146.052 124.591 145.637C126.027 144.559 127.199 143.167 128.016 141.567C129.102 139.328 129.425 136.795 128.934 134.355C128.444 131.915 127.167 129.703 125.3 128.058C125.059 127.852 124.768 128.25 125.002 128.455C126.431 129.74 127.501 131.375 128.107 133.199C128.712 135.023 128.832 136.973 128.455 138.858C127.893 141.372 126.459 143.605 124.406 145.162C123.876 143.879 122.971 142.787 121.81 142.028C120.648 141.268 119.284 140.878 117.897 140.907C116.039 141.021 113.982 142.269 114.16 144.354C114.253 145.254 114.678 146.088 115.351 146.694C116.116 147.353 117.079 147.737 118.088 147.786C120.185 147.882 122.257 147.298 123.995 146.119L124.222 145.956C124.296 146.174 124.353 146.397 124.392 146.623C125.101 150.424 122.655 154.196 119.464 156.082C116.273 157.969 111.834 158.316 108.621 156.082C107.081 155.019 105.924 153.487 105.324 151.714C104.785 149.803 104.9 147.767 105.65 145.928C106.359 144.006 107.302 142.212 107.955 140.255C108.565 138.479 108.775 136.59 108.572 134.724C108.056 130.986 106.277 127.538 103.53 124.952C100.176 121.704 95.7295 119.818 91.2833 118.613C90.1771 118.315 89.0566 118.052 87.9362 117.818C87.603 117.755 87.5533 118.23 87.8299 118.293ZM120.627 147.034C118.783 147.516 116.372 147.509 115.195 145.772C114.929 145.418 114.753 145.004 114.683 144.567C114.612 144.129 114.649 143.681 114.791 143.262C115.028 142.795 115.373 142.391 115.797 142.084C116.221 141.777 116.712 141.575 117.23 141.496C120.066 140.879 122.945 142.865 124.009 145.46C122.993 146.179 121.857 146.712 120.655 147.034H120.627Z" fill="#37474F"/>
<path d="M124.612 127.589C124.916 129.505 125.34 131.399 125.881 133.262C125.966 133.546 126.42 133.482 126.342 133.191C125.854 131.525 125.463 129.832 125.172 128.121C126.457 129.111 127.854 129.947 129.335 130.61C129.388 130.622 129.445 130.615 129.493 130.589C129.542 130.564 129.581 130.522 129.602 130.471C129.623 130.421 129.626 130.364 129.609 130.312C129.593 130.259 129.558 130.214 129.512 130.184C127.883 129.461 126.359 128.521 124.981 127.39C124.945 127.365 124.903 127.351 124.86 127.348C124.816 127.345 124.773 127.355 124.735 127.376C124.697 127.396 124.665 127.427 124.643 127.465C124.621 127.503 124.611 127.545 124.612 127.589Z" fill="#37474F"/>
<path d="M140.202 124.136C139.812 119.173 139.932 113.925 141.833 109.245C143.299 105.412 146.137 102.261 149.796 100.402C151.621 99.5395 153.63 99.1378 155.646 99.2322C157.774 99.3315 159.901 99.8137 162.029 99.8846C164 100.064 165.972 99.5611 167.617 98.46C169.261 97.3589 170.478 95.7265 171.063 93.8358C172.353 90.0066 170.885 85.7731 168.049 83.0359C165.213 80.2987 160.922 78.9585 157.263 80.5611C156.861 80.7379 156.478 80.9565 156.122 81.2135C154.683 80.1391 153.016 79.4111 151.25 79.0861C149.284 78.7562 147.265 78.9502 145.398 79.6486C143.531 80.347 141.88 81.5251 140.613 83.0643C140.002 83.8018 139.487 84.6144 139.081 85.4824C138.954 85.766 139.415 85.9362 139.549 85.6525C140.381 83.9203 141.649 82.4345 143.23 81.3415C144.81 80.2486 146.648 79.5861 148.562 79.4194C151.135 79.2588 153.682 80.0123 155.753 81.5467C154.673 82.4163 153.879 83.5908 153.476 84.9176C153.072 86.2443 153.077 87.6617 153.491 88.9854C154.129 90.7369 155.895 92.3608 157.852 91.6092C158.69 91.2649 159.372 90.6236 159.766 89.808C160.183 88.8875 160.28 87.8543 160.043 86.8722C159.534 84.8519 158.387 83.0493 156.774 81.7311L156.554 81.5538C156.744 81.4248 156.94 81.3064 157.143 81.1993C160.589 79.4548 164.9 80.7454 167.602 83.277C170.304 85.8086 171.892 89.9782 170.637 93.6869C170.048 95.4652 168.901 97.0067 167.368 98.0834C165.677 99.1414 163.68 99.6032 161.695 99.3953C159.66 99.2818 157.667 98.8493 155.632 98.7642C153.757 98.6744 151.885 99.0014 150.151 99.7215C146.707 101.266 143.897 103.944 142.187 107.309C140.003 111.436 139.443 116.23 139.535 120.839C139.535 121.988 139.62 123.13 139.713 124.271C139.741 124.548 140.23 124.463 140.202 124.136ZM158.589 84.596C159.568 86.234 160.227 88.5174 158.901 90.1626C158.636 90.5178 158.288 90.8034 157.888 90.9948C157.488 91.1862 157.047 91.2778 156.604 91.2617C156.089 91.1618 155.605 90.9422 155.192 90.6207C154.778 90.2991 154.445 89.8847 154.221 89.4109C152.838 86.8722 153.93 83.5465 156.129 81.7949C157.109 82.5776 157.942 83.5285 158.589 84.6031V84.596Z" fill="#37474F"/>
<path d="M138.808 86.2632C140.556 85.4259 142.25 84.4785 143.878 83.4267C144.126 83.2707 143.935 82.8523 143.68 83.0084C142.218 83.9448 140.702 84.7948 139.141 85.5541C139.733 84.043 140.145 82.4673 140.368 80.8597C140.366 80.8032 140.344 80.7493 140.306 80.7078C140.267 80.6664 140.215 80.6402 140.159 80.6342C140.103 80.6281 140.047 80.6426 140 80.6749C139.954 80.7073 139.921 80.7553 139.907 80.8101C139.664 82.5767 139.187 84.3031 138.489 85.9441C138.464 85.9887 138.453 86.0403 138.46 86.0911C138.467 86.1419 138.491 86.189 138.527 86.2253C138.563 86.2615 138.61 86.2849 138.661 86.2917C138.712 86.2986 138.763 86.2886 138.808 86.2632Z" fill="#37474F"/>
<path d="M194.802 22.7733L198.525 8.83913L203.758 11.3423L207.708 0.421875L213.225 3.15908L204.531 14.583L200.12 11.8954L194.802 22.7733Z" fill="#455A64"/>
<path d="M199.14 22.1764L208.522 16.1914L209.713 19.4463L217.315 17.2551L218.648 20.7156L208.04 22.5238L207.664 19.0492L199.14 22.1764Z" fill="#455A64"/>
<path d="M192.588 18.0258L188.73 9.5093L191.992 8.75763L189.333 1.63807L192.673 0L194.056 9.96314L191.092 10.4524L192.588 18.0258Z" fill="#455A64"/>
<path d="M137.69 243.496C137.69 243.496 133.619 275.889 133.612 275.889C133.243 282.271 133.031 287.837 133.187 290.738C133.184 290.754 133.184 290.771 133.187 290.787C133.149 291.47 133.271 292.152 133.541 292.78L133.577 292.822C134.775 293.737 157.417 295.595 173.082 297.297C175.209 297.524 187.356 296.942 187.973 296.794C189.803 296.361 188.682 291.121 186.853 289.376C186.03 288.596 181.889 287.54 177.5 285.008C172.075 281.859 166.345 278.668 166.345 278.668L170.104 246.297L137.69 243.496Z" fill="#FFBB96"/>
<path d="M187.982 296.794C187.365 296.943 175.218 297.503 173.091 297.298C157.426 295.603 134.798 293.752 133.578 292.823C133.578 292.823 133.578 292.823 133.578 292.781C133.304 292.151 133.18 291.466 133.217 290.781C133.214 290.764 133.214 290.748 133.217 290.731C133.061 287.831 133.273 282.222 133.642 275.882C133.642 275.882 134.351 270.493 135.124 264.125L167.744 267.032L166.389 278.662C166.389 278.662 172.126 281.86 177.551 285.001C181.912 287.533 186.06 288.59 186.904 289.37C188.691 291.121 189.812 296.362 187.982 296.794Z" fill="#EBEBEB"/>
<path d="M188.024 296.963C187.407 297.105 175.508 297.672 173.494 297.495C157.539 296.148 134.166 294.098 132.932 293.148C132.223 292.616 132.982 275.292 134.492 266.57L167.693 269.648C167.693 269.648 167.168 278.569 167.558 278.796C169.097 279.689 173.309 282.221 177.486 284.653C178.238 285.085 186.222 288.404 187.08 289.22C188.938 290.992 189.874 296.524 188.024 296.963Z" fill="#4668D6"/>
<path d="M188.367 294.527C185.658 294.903 174.333 294.853 173.844 294.796C160.591 293.307 141.565 291.868 135.615 291.641C135.545 291.641 135.537 291.683 135.615 291.69C141.522 292.513 160.144 294.002 173.851 295.3C178.696 295.423 183.544 295.212 188.36 294.669C188.53 294.633 188.53 294.505 188.367 294.527Z" fill="#263238"/>
<path d="M183.465 287.724C182.508 287.611 181.537 287.698 180.616 287.98C179.694 288.262 178.841 288.732 178.111 289.362C176.785 290.482 175.942 292.069 175.757 293.794C175.757 293.844 175.849 293.858 175.863 293.794C176.312 292.111 177.296 290.619 178.665 289.543C180.035 288.466 181.716 287.863 183.458 287.823C183.467 287.819 183.475 287.813 183.481 287.804C183.487 287.796 183.49 287.786 183.491 287.776C183.492 287.766 183.49 287.756 183.485 287.746C183.48 287.737 183.474 287.73 183.465 287.724Z" fill="#263238"/>
<path d="M169.576 279.556C166.129 279.194 162.009 280.045 159.605 282.676C159.513 282.782 159.655 282.91 159.761 282.867C162.928 281.559 166.225 280.594 169.597 279.988C169.647 279.977 169.692 279.948 169.724 279.907C169.755 279.866 169.771 279.815 169.768 279.763C169.766 279.711 169.745 279.662 169.71 279.624C169.674 279.586 169.627 279.562 169.576 279.556Z" fill="#263238"/>
<path d="M172.157 280.853C168.703 280.491 164.59 281.342 162.179 283.973C162.087 284.079 162.236 284.207 162.343 284.164C165.509 282.855 168.806 281.89 172.178 281.285C172.229 281.274 172.273 281.245 172.305 281.204C172.336 281.162 172.352 281.112 172.349 281.06C172.347 281.008 172.326 280.959 172.291 280.921C172.256 280.883 172.208 280.859 172.157 280.853Z" fill="#263238"/>
<path d="M174.722 282.118C171.268 281.757 167.155 282.607 164.744 285.238C164.652 285.345 164.801 285.472 164.908 285.43C168.073 284.12 171.371 283.155 174.743 282.551C174.793 282.539 174.838 282.51 174.87 282.469C174.901 282.428 174.917 282.377 174.914 282.326C174.912 282.274 174.891 282.225 174.856 282.187C174.821 282.149 174.773 282.125 174.722 282.118Z" fill="#263238"/>
<path d="M177.297 283.407C173.843 283.046 169.723 283.897 167.319 286.527C167.227 286.634 167.376 286.761 167.482 286.719C170.648 285.409 173.946 284.444 177.318 283.84C177.368 283.828 177.413 283.8 177.445 283.758C177.476 283.717 177.492 283.666 177.489 283.615C177.487 283.563 177.466 283.514 177.431 283.476C177.395 283.438 177.348 283.414 177.297 283.407Z" fill="#263238"/>
<path d="M139.683 270.268C135.804 269.927 135.265 275.941 139.151 276.295C143.037 276.65 143.569 270.615 139.683 270.268Z" fill="#263238"/>
<path d="M174.147 270.68C172.538 269.071 170.205 270.283 168.992 271.694C168.424 272.357 167.917 273.069 167.475 273.822C166.43 275.532 165.669 277.4 165.22 279.353C165.181 279.5 165.152 279.649 165.134 279.8C165.126 279.817 165.122 279.837 165.122 279.856C165.122 279.876 165.126 279.895 165.134 279.913C165.099 280.041 165.078 280.154 165.056 280.268C165.055 280.282 165.057 280.296 165.062 280.31C165.067 280.323 165.075 280.335 165.085 280.345C165.095 280.355 165.107 280.363 165.121 280.368C165.134 280.373 165.149 280.375 165.163 280.374C165.177 280.458 165.214 280.537 165.27 280.601C165.327 280.665 165.4 280.711 165.482 280.736C165.524 280.756 165.57 280.766 165.617 280.766C165.663 280.766 165.709 280.756 165.751 280.736C166.46 280.331 167.226 279.934 167.985 279.53L168.382 279.317C170.247 278.419 171.953 277.221 173.431 275.772C174.637 274.41 175.686 272.198 174.147 270.68ZM169.247 277.637C168.659 277.984 168.07 278.346 167.489 278.651C166.907 278.956 166.361 279.303 165.822 279.651C165.757 279.682 165.695 279.72 165.638 279.764L165.439 279.885L165.524 279.693C165.524 279.693 165.524 279.693 165.524 279.658C166.134 278.339 166.702 276.991 167.418 275.715C167.545 275.46 167.694 275.205 167.843 274.949C168.279 274.177 168.767 273.435 169.304 272.73C170.162 271.666 173.828 269.078 173.821 272.864C173.835 274.963 170.751 276.736 169.247 277.637Z" fill="#263238"/>
<path d="M165.832 280.143C165.882 280.101 165.903 280.044 165.832 279.994L165.641 279.796L165.577 279.718H165.542C165.435 279.604 165.329 279.491 165.222 279.392C163.146 277.372 160.621 275.873 157.855 275.016C156.068 274.492 153.451 274.747 152.976 276.974C152.522 279.101 154.607 280.37 156.344 280.796C158.104 281.177 159.914 281.275 161.705 281.086C162.967 280.994 164.237 280.86 165.464 280.774C165.537 280.774 165.609 280.754 165.673 280.717C165.737 280.68 165.79 280.627 165.827 280.564C165.864 280.5 165.884 280.428 165.885 280.354C165.886 280.28 165.868 280.208 165.832 280.143ZM160.904 280.101C159.152 280.179 155.6 280.363 154.458 278.619C152.402 275.435 156.862 275.598 158.167 276.03C159.004 276.33 159.821 276.683 160.613 277.087C162.174 277.912 163.689 278.821 165.152 279.81L165.315 279.916C165.253 279.909 165.192 279.909 165.13 279.916H164.605C163.357 279.931 162.124 280.023 160.868 280.065L160.904 280.101Z" fill="#263238"/>
<path d="M133.536 261.034L169.289 264.651C169.289 264.651 176.047 216.431 177.615 195.086C179.309 171.905 177.054 102.106 177.054 102.106L147.137 98.7734C147.137 98.7734 147.094 168.579 144.683 191.668C142.435 213.119 133.536 261.034 133.536 261.034Z" fill="#37474F"/>
<path d="M171.174 101.446L146.27 161.622C147.426 131.952 147.135 98.7656 147.135 98.7656L171.174 101.446Z" fill="#263238"/>
<path d="M152.434 102.785L152.051 123.506L151.526 144.219C151.122 158.026 150.668 171.825 149.952 185.632C149.767 189.078 149.505 192.538 149.072 195.978C148.64 199.417 148.108 202.849 147.541 206.232C146.42 213.053 145.215 219.856 143.924 226.64C142.641 233.426 138.485 253.374 138.485 253.374C138.485 253.374 142.123 233.334 143.335 226.534C144.548 219.733 145.754 212.94 146.839 206.118C147.377 202.714 147.888 199.303 148.335 195.886C148.782 192.468 148.994 189.035 149.172 185.589C149.952 171.804 150.398 157.997 150.923 144.198L152.434 102.785Z" fill="#263238"/>
<path d="M168.863 257.245C163.332 256.571 164.928 256.685 159.397 256.075C156.695 255.777 138.903 253.827 136.329 253.99C136.272 253.99 136.258 254.089 136.329 254.104C138.818 254.813 156.638 256.415 159.354 256.664C164.899 257.167 163.311 256.961 168.856 257.373C168.867 257.366 168.876 257.357 168.882 257.346C168.889 257.335 168.892 257.323 168.893 257.311C168.894 257.298 168.892 257.286 168.886 257.274C168.881 257.263 168.873 257.253 168.863 257.245Z" fill="#263238"/>
<path d="M77.8962 155.628L48.4677 145.665C42.8586 142.644 37.8876 140.092 35.193 139.014H35.1434C34.5392 138.694 33.8696 138.517 33.1862 138.496H33.1365C31.0943 139.553 5.63687 183.702 5.26812 185.518C4.89938 187.333 10.1043 188.56 12.4657 187.645C14.8271 186.73 32.1296 174.172 32.1296 174.172L61.6361 183.837L77.8962 155.628Z" fill="#FFBB96"/>
<path d="M58.8648 149.189L43.4769 177.88L32.131 174.164C32.131 174.164 14.8285 186.694 12.46 187.637C10.0916 188.581 4.88662 187.354 5.26955 185.51C5.65247 183.666 31.0957 139.545 33.138 138.488C33.138 138.488 33.138 138.488 33.1947 138.488C33.8751 138.514 34.5414 138.69 35.1448 139.006H35.1944C37.8891 140.091 42.86 142.644 48.4691 145.665L58.8648 149.189Z" fill="#EBEBEB"/>
<path d="M5.0888 185.682C5.47881 183.817 31.0426 138.838 33.1132 137.76C33.7018 137.448 47.3736 144.638 48.8273 145.284C51.4085 146.425 56.5709 148.255 56.5709 148.255L40.715 177.456C40.715 177.456 31.8794 174.953 31.4964 175.208C28.4827 177.336 14.4775 187.015 12.3502 187.852C10.003 188.781 4.70587 187.547 5.0888 185.682Z" fill="#4668D6"/>
<path d="M7.2536 186.079C11.7991 178.697 29.4278 148.495 33.3634 140.83C33.3634 140.766 33.3634 140.744 33.3138 140.83C28.6478 148.048 11.2672 178.413 7.13306 186.036C7.04796 186.171 7.16142 186.235 7.2536 186.079Z" fill="#263238"/>
<path d="M15.6757 185.908C16.1821 185.088 16.5123 184.171 16.6454 183.217C16.7784 182.262 16.7115 181.29 16.4487 180.363C15.9936 178.691 14.9117 177.258 13.4278 176.363C13.3782 176.363 13.3286 176.42 13.3711 176.448C14.7028 177.564 15.6373 179.081 16.0349 180.772C16.4325 182.463 16.2716 184.238 15.5765 185.83C15.5661 185.843 15.5614 185.86 15.5634 185.877C15.5654 185.893 15.5739 185.908 15.5871 185.919C15.6003 185.929 15.617 185.934 15.6336 185.932C15.6502 185.93 15.6654 185.921 15.6757 185.908Z" fill="#263238"/>
<path d="M29.9665 176.723C31.7535 173.745 32.7179 169.632 31.3493 166.363C31.2997 166.235 31.1153 166.313 31.1082 166.427C30.9576 169.849 30.4417 173.247 29.5694 176.56C29.5608 176.609 29.5693 176.66 29.5935 176.704C29.6177 176.748 29.6562 176.782 29.7025 176.801C29.7488 176.82 29.8002 176.823 29.8482 176.808C29.8962 176.794 29.938 176.764 29.9665 176.723Z" fill="#263238"/>
<path d="M27.7135 178.512C29.5004 175.54 30.4648 171.42 29.1317 168.151C29.075 168.024 28.8977 168.102 28.8906 168.222C28.7405 171.643 28.2246 175.038 27.3518 178.349C27.3527 178.39 27.3654 178.43 27.3882 178.465C27.4111 178.5 27.4434 178.527 27.4812 178.544C27.519 178.561 27.5609 178.567 27.602 178.561C27.6431 178.556 27.6818 178.538 27.7135 178.512Z" fill="#263238"/>
<path d="M25.4641 180.305C27.2511 177.327 28.2155 173.214 26.8823 169.945C26.8256 169.817 26.6483 169.895 26.6412 170.009C26.4812 173.438 25.951 176.84 25.0599 180.156C25.0522 180.206 25.0621 180.257 25.0879 180.301C25.1136 180.345 25.1537 180.378 25.2012 180.396C25.2487 180.413 25.3009 180.414 25.3488 180.397C25.3967 180.381 25.4374 180.348 25.4641 180.305Z" fill="#263238"/>
<path d="M23.2149 182.094C25.0019 179.123 25.9663 175.003 24.6332 171.734C24.5835 171.606 24.3992 171.684 24.3992 171.798C24.2462 175.221 23.7279 178.618 22.8533 181.931C22.8542 181.972 22.8668 182.013 22.8897 182.047C22.9126 182.082 22.9448 182.109 22.9827 182.127C23.0205 182.144 23.0624 182.15 23.1035 182.144C23.1446 182.138 23.1832 182.121 23.2149 182.094Z" fill="#263238"/>
<path d="M51.0149 153.543C52.9579 150.167 47.7246 147.161 45.7745 150.515C43.8244 153.869 49.0577 156.918 51.0149 153.543Z" fill="#263238"/>
<path d="M36.0596 184.616C38.187 183.836 38.0877 181.205 37.3219 179.51C36.9641 178.723 36.5419 177.966 36.0596 177.248C34.9484 175.579 33.5765 174.1 31.9964 172.866C31.8798 172.77 31.7566 172.682 31.6276 172.604C31.6167 172.586 31.6023 172.57 31.5852 172.558C31.5681 172.546 31.5488 172.537 31.5283 172.533L31.2447 172.313C31.2319 172.306 31.2177 172.302 31.2031 172.301C31.1886 172.3 31.174 172.302 31.1605 172.308C31.1469 172.313 31.1348 172.322 31.1248 172.332C31.1148 172.343 31.1074 172.356 31.1029 172.37C31.0213 172.344 30.934 172.343 30.852 172.367C30.77 172.391 30.6969 172.439 30.6419 172.504C30.6083 172.537 30.5826 172.577 30.5666 172.621C30.5507 172.666 30.5449 172.713 30.5498 172.76C30.6065 173.582 30.6561 174.44 30.6987 175.291V175.745C30.7388 177.817 31.1123 179.869 31.8049 181.822C32.514 183.481 34.0599 185.368 36.0596 184.616ZM31.8049 177.234C31.7411 176.525 31.6844 175.887 31.6276 175.213C31.5709 174.539 31.5142 173.915 31.422 173.277C31.4286 173.206 31.4286 173.135 31.422 173.064C31.422 172.994 31.422 172.908 31.422 172.83L31.5567 172.994C32.4928 174.1 33.4784 175.185 34.3365 176.369C34.5137 176.596 34.6839 176.837 34.847 177.078C35.3724 177.8 35.8463 178.559 36.2653 179.347C36.8751 180.574 37.6835 185.02 34.2372 183.382C32.3367 182.524 32.0247 178.979 31.8474 177.234H31.8049Z" fill="#263238"/>
<path d="M31.0569 173.068C31.0584 173.083 31.0631 173.097 31.0706 173.109C31.0782 173.122 31.0884 173.133 31.1007 173.141C31.1129 173.149 31.1267 173.154 31.1412 173.156C31.1557 173.158 31.1705 173.157 31.1846 173.153C31.2768 173.153 31.3619 173.096 31.447 173.068H31.5391H31.5817L32.0142 172.912C34.7277 171.888 37.1584 170.232 39.1055 168.083C40.3322 166.665 41.2328 164.204 39.3891 162.835C37.5454 161.467 35.6166 162.878 34.5033 164.254C33.4147 165.688 32.5624 167.287 31.9788 168.991C31.525 170.175 31.1137 171.38 30.674 172.536C30.6569 172.597 30.6536 172.66 30.6645 172.723C30.6754 172.785 30.7002 172.843 30.7371 172.895C30.7739 172.946 30.8218 172.988 30.8771 173.018C30.9325 173.048 30.994 173.065 31.0569 173.068ZM33.1843 168.622C33.858 167.005 35.184 163.7 37.2546 163.403C41.013 162.885 38.9707 166.856 38.0276 167.856C37.4065 168.491 36.7432 169.083 36.0421 169.629C34.6369 170.697 33.1739 171.686 31.6597 172.593C31.5959 172.593 31.5533 172.664 31.4895 172.699C31.5204 172.643 31.5442 172.584 31.5604 172.522C31.6384 172.366 31.7164 172.21 31.7802 172.047C32.2553 170.941 32.6879 169.771 33.1772 168.622H33.1843Z" fill="#263238"/>
<path d="M173.994 101.735C173.796 102.338 170.619 111.812 167.52 119.903C165.265 125.824 163.046 130.994 162.053 131.44C160.932 131.951 155.543 133.653 153.742 134.178C153.742 134.178 137.255 187.468 129.377 195.098C116.783 207.309 44.4949 181.391 44.4949 181.391L61.8967 148.771C61.8967 148.771 107.614 163.663 109.301 160.883C116.201 149.537 123.732 123.825 123.732 123.825C123.732 123.825 125.732 104.778 133.064 97.1758L173.994 101.735Z" fill="#37474F"/>
<path d="M52.8306 181.446C55.4685 176.546 54.7807 177.993 57.369 173.064C58.6312 170.653 66.935 154.797 67.7221 152.337C67.7221 152.287 67.6512 152.244 67.6158 152.287C66.0841 154.358 58.0639 170.355 56.8442 172.795C54.3481 177.759 55.1211 176.34 52.6888 181.375C52.6841 181.384 52.6814 181.395 52.6806 181.405C52.6799 181.415 52.6812 181.426 52.6845 181.436C52.6878 181.445 52.693 181.455 52.6998 181.462C52.7066 181.47 52.7149 181.477 52.7242 181.481C52.7336 181.486 52.7437 181.489 52.7541 181.49C52.7645 181.49 52.7749 181.489 52.7848 181.486C52.7947 181.482 52.8038 181.477 52.8116 181.47C52.8195 181.464 52.826 181.455 52.8306 181.446Z" fill="#263238"/>
<path d="M133.463 118.392C134.413 118.257 137.923 118.158 138.696 118.08C140.173 117.998 141.61 117.573 142.894 116.839C145.532 115.123 148.78 108.436 149 107.94C149.035 107.862 149.149 107.94 149.113 107.982C148.929 108.308 146.752 114.499 145.128 116.265C144.251 117.162 143.196 117.868 142.032 118.335C140.867 118.803 139.617 119.023 138.363 118.981C136.724 118.975 135.087 118.861 133.463 118.64C133.435 118.633 133.41 118.618 133.393 118.595C133.375 118.573 133.365 118.545 133.365 118.516C133.365 118.487 133.375 118.46 133.393 118.437C133.41 118.415 133.435 118.399 133.463 118.392Z" fill="#263238"/>
<path d="M177.323 123.019C176.441 122.938 175.596 122.623 174.876 122.105C174.157 121.588 173.589 120.887 173.232 120.076C172.416 118.098 172.04 111.765 172.026 111.297C172.026 111.226 171.962 111.255 171.97 111.297C171.97 111.609 171.87 117.367 172.296 119.175C172.771 121.175 173.771 122.232 174.941 122.686C175.694 122.955 176.478 123.134 177.274 123.217C177.345 123.232 177.401 123.033 177.323 123.019Z" fill="#263238"/>
<path d="M164.926 130.413C161.11 131.342 157.38 132.597 153.779 134.164C153.748 134.174 153.722 134.197 153.707 134.226C153.693 134.255 153.69 134.289 153.701 134.32C153.711 134.351 153.733 134.377 153.762 134.391C153.792 134.406 153.826 134.408 153.857 134.398C157.594 133.263 161.395 132.2 165.068 130.852C165.117 130.827 165.156 130.785 165.177 130.734C165.199 130.682 165.201 130.625 165.184 130.572C165.167 130.519 165.132 130.474 165.084 130.445C165.037 130.416 164.981 130.404 164.926 130.413Z" fill="#263238"/>
<path d="M168.728 106.099C168.728 105.978 168.523 105.921 168.509 106.056C168.062 110.311 167.374 113.991 166.58 117.913C166.211 119.728 163.594 129.719 160.496 128.627C159.971 128.443 159.786 127.918 159.786 127.074C159.916 126.023 160.175 124.991 160.559 124.004C161.148 121.919 161.673 119.82 162.091 117.693C162.91 113.727 163.317 109.687 163.304 105.638C163.298 105.615 163.284 105.595 163.266 105.581C163.247 105.566 163.224 105.559 163.201 105.559C163.177 105.559 163.155 105.566 163.136 105.581C163.117 105.595 163.104 105.615 163.098 105.638C162.565 111.192 161.617 116.698 160.262 122.111C159.552 124.713 157.794 128.542 160.51 129.251C163.226 129.961 165.842 123.522 166.388 121.742C167.842 116.651 168.628 111.392 168.728 106.099Z" fill="#263238"/>
<path d="M160.544 128.905C160.185 129.558 159.867 130.233 159.594 130.926C159.327 131.458 159.162 132.035 159.105 132.628C159.105 132.741 159.254 132.763 159.317 132.699C159.707 132.215 160.02 131.675 160.246 131.096C160.566 130.472 160.892 129.855 161.19 129.224C161.221 129.14 161.221 129.047 161.188 128.964C161.155 128.88 161.092 128.812 161.012 128.772C160.931 128.732 160.839 128.724 160.752 128.748C160.666 128.773 160.592 128.829 160.544 128.905Z" fill="#263238"/>
<path d="M135.55 98.3469C132.256 106.299 129.992 114.64 128.813 123.166C126.523 130.35 124.062 137.476 121.53 144.574C119.616 149.886 117.687 155.211 115.439 160.381C114.404 162.508 113.652 164.877 111.986 166.664C110.66 167.373 109.014 167.096 107.589 167.032C101.916 166.458 96.463 164.976 91.0099 163.522C83.7485 161.544 76.5722 159.267 69.4526 156.849C76.6289 159.09 83.8525 161.163 91.1233 163.068C94.7611 164.011 98.4202 164.877 102.101 165.586C104.831 166.075 107.632 166.628 110.404 166.437C110.811 166.42 111.211 166.324 111.581 166.153C113.071 164.465 113.851 162.154 114.815 160.104C117.013 154.921 118.97 149.638 120.906 144.348C123.452 137.363 125.97 129.967 128.324 123.074C129.48 114.565 132.16 106.239 135.55 98.3398V98.3469Z" fill="#263238"/>
<path d="M170.636 55.9818C171.402 65.6613 175.104 84.6657 180.975 89.9415C186.591 94.9905 190.768 77.766 190.718 76.759C190.392 69.9444 185.684 61.5767 178.209 51.7767C171.388 42.8276 169.998 47.8978 170.636 55.9818Z" fill="#FFBB96"/>
<path d="M172.779 75.3862L186.926 63.863C186.926 63.863 181.43 53.6233 176.53 48.4538C172.793 44.5111 170.524 47.305 170.382 50.9074C169.893 62.9199 172.779 75.3862 172.779 75.3862Z" fill="#4668D6"/>
<path d="M184.563 61.9707C180.356 64.9416 176.343 68.1795 172.551 71.6644C172.551 71.6644 172.6 71.7779 172.621 71.7637C176.047 69.303 182.514 63.9633 184.676 62.1125C184.712 62.07 184.613 61.9353 184.563 61.9707Z" fill="#263238"/>
<path opacity="0.1" d="M182.847 67.1937L172.806 75.384C172.806 75.384 169.913 62.9177 170.402 50.9052C170.487 48.7778 171.303 46.9483 172.728 46.5938L182.847 67.1937Z" fill="black"/>
<path d="M128.106 103.02C128.212 103.162 178.935 111.791 179.503 111.359C179.602 111.288 181.502 70.0172 175.595 49.396C174.581 45.8504 166.696 42.085 161.775 45.8504C148.542 55.9341 128.006 102.864 128.106 103.02Z" fill="#4668D6"/>
<g opacity="0.1">
<path opacity="0.1" d="M161.733 45.8627L174.901 48.061C174.675 47.7507 174.415 47.4654 174.128 47.2101L162.612 45.2812C162.321 45.4456 162.041 45.6305 161.775 45.8344C161.775 45.8344 161.754 45.8556 161.733 45.8627Z" fill="black"/>
<path opacity="0.1" d="M159.409 47.9412L175.952 50.7067C175.896 50.4514 175.825 50.1962 175.754 49.948L160.047 47.3242C159.844 47.518 159.631 47.7237 159.409 47.9412Z" fill="black"/>
<path opacity="0.1" d="M157.465 50.0835L176.611 53.2817L176.441 52.5229L158.039 49.4453C157.834 49.6793 157.642 49.8566 157.465 50.0835Z" fill="black"/>
<path opacity="0.1" d="M155.691 52.2547L177.093 55.8357C177.05 55.5804 177.008 55.3252 176.944 55.0841L156.195 51.6094L155.691 52.2547Z" fill="black"/>
<path opacity="0.1" d="M154.048 54.439L177.534 58.3675C177.534 58.1193 177.456 57.8711 177.414 57.6584L154.495 53.8008C154.367 54.0135 154.204 54.2192 154.048 54.439Z" fill="black"/>
<path opacity="0.1" d="M152.485 56.645L177.914 60.8997C177.879 60.6515 177.843 60.4033 177.801 60.1906L152.932 56.0352C152.79 56.2124 152.634 56.4252 152.485 56.645Z" fill="black"/>
<path opacity="0.1" d="M151.012 58.8982L178.25 63.4578C178.214 63.2025 178.186 62.9614 178.158 62.7487L151.431 58.2812C151.296 58.4373 151.161 58.65 151.012 58.8982Z" fill="black"/>
<path opacity="0.1" d="M149.6 61.0999L178.532 65.9361C178.532 65.695 178.489 65.4468 178.461 65.2269L150.011 60.4688C149.862 60.6602 149.735 60.8729 149.6 61.0999Z" fill="black"/>
<path opacity="0.1" d="M148.217 63.3342L178.78 68.447C178.78 68.1988 178.738 67.9577 178.716 67.7379L148.614 62.7031C148.487 62.8946 148.345 63.1499 148.217 63.3342Z" fill="black"/>
<path opacity="0.1" d="M146.875 65.5764L179.005 70.9516C179.005 70.7105 178.955 70.4623 178.941 70.2424L147.265 64.9453C147.137 65.1439 147.009 65.3637 146.875 65.5764Z" fill="black"/>
<path opacity="0.1" d="M145.572 67.8243L179.184 73.4476C179.184 73.2065 179.184 72.9725 179.128 72.7385L145.983 67.1719L145.572 67.8243Z" fill="black"/>
<path opacity="0.1" d="M144.3 70.0806L179.344 75.9167L179.302 75.2076L144.668 69.4141C144.562 69.641 144.42 69.8679 144.3 70.0806Z" fill="black"/>
<path opacity="0.1" d="M143.057 72.3693L179.485 78.4606C179.485 78.2195 179.485 77.9855 179.449 77.7515L143.412 71.6602L143.057 72.3693Z" fill="black"/>
<path opacity="0.1" d="M141.825 74.6055L179.592 80.9167C179.592 80.6827 179.592 80.4345 179.592 80.2076L142.201 73.9531C142.059 74.173 141.938 74.3857 141.825 74.6055Z" fill="black"/>
<path opacity="0.1" d="M140.613 76.8719L179.678 83.41C179.678 83.1618 179.678 82.9207 179.678 82.7008L140.988 76.2266C140.854 76.4322 140.733 76.6237 140.613 76.8719Z" fill="black"/>
<path opacity="0.1" d="M139.44 79.1414L179.761 85.8851C179.761 85.644 179.761 85.4029 179.761 85.176L139.809 78.4961L139.44 79.1414Z" fill="black"/>
<path opacity="0.1" d="M138.268 81.4173L179.808 88.3596C179.808 88.1185 179.808 87.8774 179.808 87.6505L138.63 80.7578L138.268 81.4173Z" fill="black"/>
<path opacity="0.1" d="M137.136 83.7169L179.853 90.8081C179.853 90.5741 179.853 90.3259 179.853 90.099L137.476 83.0078L137.136 83.7169Z" fill="black"/>
<path opacity="0.1" d="M135.994 85.9688L179.874 93.3082C179.874 93.0671 179.874 92.826 179.874 92.5991L136.334 85.3164L135.994 85.9688Z" fill="black"/>
<path opacity="0.1" d="M134.882 88.2461L179.875 95.7699C179.875 95.5288 179.875 95.2877 179.875 95.0608L135.201 87.5938C135.101 87.8065 134.988 88.0192 134.882 88.2461Z" fill="black"/>
<path opacity="0.1" d="M133.789 90.5274L179.882 98.2355C179.882 98.0015 179.882 97.7604 179.882 97.5264L134.108 89.875C133.995 90.0948 133.889 90.3147 133.789 90.5274Z" fill="black"/>
<path opacity="0.1" d="M132.697 92.8222L179.84 100.736C179.84 100.502 179.84 100.268 179.84 100.027L133.038 92.2266C132.903 92.3826 132.804 92.6024 132.697 92.8222Z" fill="black"/>
<path opacity="0.1" d="M131.635 95.1041L179.799 103.16V102.451L131.919 94.4375C131.834 94.6644 131.727 94.8842 131.635 95.1041Z" fill="black"/>
<path opacity="0.1" d="M130.573 97.397L179.744 105.623C179.744 105.396 179.744 105.148 179.744 104.914L130.878 96.7305C130.772 96.9574 130.68 97.1914 130.573 97.397Z" fill="black"/>
<path opacity="0.1" d="M129.541 99.6946L179.669 108.076C179.669 107.85 179.669 107.616 179.669 107.367L129.811 99.0352C129.747 99.255 129.676 99.4819 129.541 99.6946Z" fill="black"/>
<path opacity="0.1" d="M128.529 101.986L179.586 110.496C179.586 110.297 179.586 110.056 179.621 109.787L128.841 101.277C128.707 101.568 128.614 101.788 128.529 101.986Z" fill="black"/>
</g>
<path d="M171.204 56.5561C168.432 55.9462 165.602 49.5074 165.397 45.6143C165.397 45.352 166.78 43.2813 168.361 40.6505C169.311 39.0692 170.332 37.2893 171.148 35.6016L180.515 43.2955C178.89 45.1201 177.494 47.1372 176.36 49.3018C176.252 49.5293 176.166 49.7668 176.104 50.0109C176.104 50.0109 176.104 50.0818 176.062 50.1314C175.643 51.5993 173.885 57.1446 171.204 56.5561Z" fill="#FFBB96"/>
<path d="M176.104 50.0582C176.09 50.0953 176.078 50.1332 176.068 50.1716C175.682 50.0515 175.307 49.8973 174.948 49.7107C168.871 46.6119 171.048 38.3648 171.785 36.1523L174.125 38.0741L180.507 43.3215C178.884 45.1467 177.491 47.1638 176.359 49.3278C176.25 49.5624 176.165 49.807 176.104 50.0582Z" fill="#263238"/>
<path d="M174.637 23.4423C171.949 26.9879 169.857 39.3549 171.765 42.9715C174.538 48.2189 181.168 51.0412 186.16 47.2262C190.989 43.5387 193.443 27.3708 191.124 23.889C187.678 18.6983 178.601 18.1523 174.637 23.4423Z" fill="#FFBB96"/>
<path d="M171.021 33.2624C173.376 33.4042 176.985 26.6038 176.985 26.6038C176.985 26.6038 175.893 29.6388 176.496 29.7664C177.099 29.8941 180.878 26.5825 182.169 23.7035C183.46 25.4107 184.969 26.9413 186.658 28.256C189.09 30.0217 192.153 30.8939 192.331 30.433C192.813 29.0573 192.82 25.0366 191.402 23.1078C190.402 21.603 189.024 20.3884 187.406 19.5866C185.787 18.7848 183.986 18.4242 182.183 18.5411C177.155 18.6829 174.993 21.1223 173.56 23.0936C172.128 25.065 170.149 33.2057 171.021 33.2624Z" fill="#263238"/>
<path d="M174.018 33.8815C174.018 33.8815 172.671 29.2155 170.636 29.57C168.6 29.9246 168.721 36.0656 170.473 37.498C170.683 37.7016 170.932 37.8597 171.206 37.9625C171.48 38.0652 171.772 38.1103 172.065 38.095C172.357 38.0797 172.643 38.0043 172.904 37.8735C173.166 37.7427 173.398 37.5594 173.586 37.3349L174.018 33.8815Z" fill="#FFBB96"/>
<path d="M170.723 31.3281C170.723 31.3281 170.674 31.3281 170.723 31.3778C171.936 32.4273 172.234 33.9873 172.29 35.519C172.256 35.3506 172.185 35.1915 172.084 35.0526C171.983 34.9138 171.852 34.7984 171.702 34.7143C171.552 34.6302 171.386 34.5794 171.215 34.5653C171.043 34.5512 170.871 34.5742 170.709 34.6326C170.659 34.6326 170.709 34.7177 170.709 34.7248C170.984 34.7278 171.251 34.817 171.472 34.9799C171.694 35.1427 171.858 35.371 171.943 35.6325C172.087 36.0698 172.182 36.5216 172.227 36.9798C172.227 37.1287 172.496 37.1358 172.503 36.9798V36.916C173.127 35.1574 172.588 32.1649 170.723 31.3281Z" fill="#263238"/>
<path d="M188.423 20.4277C187.061 19.2696 185.54 18.3143 183.906 17.5912C182.062 16.8254 175.921 15.6199 174.148 16.4283C172.375 17.2367 170.418 22.8103 170.149 23.6117C169.879 24.413 168.858 29.5399 170.34 31.256C171.822 32.972 174.354 24.5051 177.999 22.4771C181.644 20.449 188.423 20.4277 188.423 20.4277Z" fill="#4668D6"/>
<path opacity="0.1" d="M188.414 20.4289C188.414 20.4289 181.634 20.4289 177.99 22.4782C174.345 24.5276 171.813 32.9661 170.331 31.2429C169.679 30.4842 169.509 29.5907 169.551 28.1654C170.615 25.7827 172.692 22.2017 175.508 20.1027C178.146 18.1384 181.84 17.8051 185.528 18.3866C186.544 18.9865 187.51 19.6696 188.414 20.4289Z" fill="black"/>
<path d="M169.428 36.4488C170.222 34.2222 174.207 28.7903 177.597 25.9822C180.987 23.1741 188.652 23.1457 189.652 23.4436C192.028 24.2519 192.127 25.5709 192.574 25.4858C193.02 25.4007 191.552 22.4862 190.985 21.8906C190.418 21.2949 188.858 19.827 187.801 19.5647C186.745 19.3023 180.093 18.1464 176.973 20.2738C173.853 22.4011 168.385 29.1945 168.463 31.3431C168.463 31.8608 169.024 32.3359 169.038 33.0663C169.038 34.0236 168.96 35.1015 169.038 35.7964C169.095 36.3283 169.378 36.6403 169.428 36.4488Z" fill="#4668D6"/>
<path d="M178.599 24.5687C178.14 24.0767 177.722 23.5478 177.35 22.9873C176.963 22.4258 176.646 21.8184 176.407 21.1791C176.407 21.1365 176.315 21.1791 176.329 21.1791C176.482 21.8637 176.743 22.5196 177.102 23.1221C177.476 23.716 177.957 24.2353 178.521 24.6538C178.599 24.7176 178.634 24.6254 178.599 24.5687Z" fill="#263238"/>
<path d="M170.033 34.1707C170.033 33.9935 169.948 33.8162 169.912 33.6389C169.868 33.4339 169.849 33.2244 169.855 33.0149C169.914 32.6278 169.931 32.2355 169.905 31.8448C169.828 31.534 169.719 31.2322 169.579 30.9443C169.392 30.6283 169.32 30.2578 169.373 29.8948C169.373 29.8522 169.317 29.8238 169.302 29.8948C169.222 30.5618 169.315 31.2383 169.572 31.859C169.607 32.2814 169.607 32.706 169.572 33.1283C169.561 33.5255 169.678 33.9157 169.905 34.2417C169.948 34.2629 170.04 34.2346 170.033 34.1707Z" fill="#263238"/>
<path d="M171.501 31.9488C171.359 31.6297 171.189 31.339 171.076 31.0057C170.971 30.683 170.888 30.3537 170.827 30.02C170.764 29.6938 170.728 29.3605 170.671 29.0344C170.615 28.7082 170.487 28.2614 170.437 27.8714C170.437 27.862 170.434 27.853 170.427 27.8463C170.42 27.8397 170.411 27.8359 170.402 27.8359C170.393 27.8359 170.383 27.8397 170.377 27.8463C170.37 27.853 170.366 27.862 170.366 27.8714C170.416 28.2756 170.366 28.694 170.43 29.0982C170.465 29.4517 170.524 29.8024 170.608 30.1477C170.677 30.4785 170.779 30.8015 170.912 31.1121C171.039 31.4294 171.227 31.7186 171.466 31.963L171.501 31.9488Z" fill="#263238"/>
<path d="M172.92 29.9543C172.557 29.4177 172.27 28.8329 172.069 28.2169C171.885 27.6142 171.729 26.9972 171.587 26.3874C171.587 26.3448 171.502 26.3448 171.509 26.3874C171.529 27.0429 171.631 27.6934 171.814 28.3233C171.907 28.6292 172.033 28.9241 172.19 29.2026C172.378 29.4915 172.602 29.7559 172.856 29.9897C172.92 30.0323 172.963 29.9897 172.92 29.9543Z" fill="#263238"/>
<path d="M174.421 28.0697C174.225 27.8437 174.075 27.581 173.981 27.2968C173.861 26.9918 173.74 26.6798 173.634 26.3607C173.527 26.0416 173.414 25.7651 173.307 25.4601C173.184 25.159 173.126 24.8351 173.137 24.5099C173.134 24.5023 173.129 24.4959 173.122 24.4913C173.115 24.4868 173.107 24.4844 173.098 24.4844C173.09 24.4844 173.082 24.4868 173.075 24.4913C173.068 24.4959 173.063 24.5023 173.059 24.5099C172.996 24.8258 172.996 25.1513 173.059 25.4672C173.121 25.8168 173.211 26.1607 173.329 26.4955C173.447 26.8247 173.584 27.1467 173.74 27.4599C173.862 27.7511 174.07 27.9983 174.336 28.169C174.342 28.1746 174.35 28.1788 174.358 28.1815C174.366 28.1841 174.375 28.1852 174.383 28.1845C174.392 28.1839 174.4 28.1815 174.408 28.1776C174.416 28.1738 174.422 28.1684 174.428 28.1619C174.434 28.1554 174.438 28.1478 174.44 28.1397C174.443 28.1315 174.444 28.1229 174.443 28.1143C174.443 28.1058 174.44 28.0974 174.437 28.0898C174.433 28.0821 174.427 28.0753 174.421 28.0697Z" fill="#263238"/>
<path d="M175.814 25.5681C175.665 25.3057 175.509 25.0434 175.382 24.7668C175.254 24.4902 175.133 24.2066 175.02 23.9229C174.906 23.6393 174.772 23.3344 174.672 23.0294C174.669 23.0219 174.664 23.0154 174.657 23.0109C174.65 23.0063 174.642 23.0039 174.634 23.0039C174.625 23.0039 174.617 23.0063 174.61 23.0109C174.603 23.0154 174.598 23.0219 174.594 23.0294C174.633 23.3461 174.697 23.6591 174.786 23.9655C174.878 24.2686 174.992 24.5648 175.126 24.8519C175.258 25.1372 175.408 25.4143 175.573 25.6816C175.724 25.9541 175.926 26.1949 176.169 26.3907C176.177 26.3979 176.188 26.402 176.199 26.4024C176.21 26.4028 176.221 26.3995 176.23 26.3929C176.239 26.3864 176.246 26.377 176.249 26.3663C176.252 26.3556 176.251 26.3442 176.247 26.3339C176.129 26.0646 175.984 25.808 175.814 25.5681Z" fill="#263238"/>
<path d="M180.688 23.7667C180.539 23.4263 180.397 23.093 180.22 22.7668C180.039 22.4331 179.838 22.111 179.617 21.8024C179.204 21.1961 178.729 20.6351 178.199 20.1289C178.199 20.1289 178.113 20.1289 178.135 20.1785C178.957 21.3911 179.822 22.5754 180.631 23.8021C180.645 23.8447 180.73 23.8092 180.688 23.7667Z" fill="#263238"/>
<path d="M182.594 22.1978C182.442 21.8625 182.252 21.546 182.027 21.2547C181.542 20.6549 180.99 20.1125 180.381 19.6379C180.378 19.6341 180.374 19.6311 180.37 19.6289C180.365 19.6267 180.361 19.6254 180.356 19.6251C180.351 19.6248 180.346 19.6254 180.341 19.627C180.336 19.6286 180.332 19.6311 180.328 19.6343C180.325 19.6376 180.322 19.6415 180.319 19.646C180.317 19.6504 180.316 19.6552 180.316 19.6602C180.315 19.6651 180.316 19.6701 180.317 19.6748C180.319 19.6795 180.321 19.6838 180.325 19.6875C180.807 20.2477 181.296 20.7937 181.743 21.3681C181.968 21.6539 182.176 21.9522 182.367 22.2616C182.558 22.5736 182.679 22.914 182.849 23.2331H182.906C182.871 22.8708 182.765 22.5189 182.594 22.1978Z" fill="#263238"/>
<path d="M184.721 21.8394C184.584 21.5139 184.415 21.2027 184.217 20.9104C183.825 20.3638 183.346 19.8848 182.799 19.4922C182.764 19.4922 182.721 19.4922 182.75 19.556C183.212 20.0397 183.63 20.5642 183.998 21.1232C184.182 21.3997 184.352 21.6905 184.529 21.9741C184.679 22.2757 184.845 22.5692 185.026 22.8534C185.026 22.8534 185.075 22.8534 185.068 22.8534C184.989 22.5038 184.873 22.1639 184.721 21.8394Z" fill="#263238"/>
<path d="M186.399 21.0862C186.214 20.8238 186.016 20.5756 185.817 20.3275C185.633 20.0722 185.408 19.8493 185.151 19.668C185.115 19.668 185.08 19.668 185.101 19.7247C185.463 20.2211 185.81 20.7316 186.165 21.2351C186.458 21.7225 186.696 22.241 186.874 22.781H186.924C186.923 22.1762 186.74 21.5855 186.399 21.0862Z" fill="#263238"/>
<path d="M188.208 21.1935C187.885 20.6627 187.461 20.2001 186.96 19.832C186.925 19.832 186.875 19.832 186.91 19.8888C187.342 20.3036 187.708 20.7818 187.995 21.307C188.291 21.8281 188.528 22.3797 188.704 22.9522C188.704 22.9522 188.761 22.9522 188.754 22.9522C188.713 22.3311 188.526 21.7284 188.208 21.1935Z" fill="#263238"/>
<path d="M190.153 22.8274C190.131 22.6926 190.097 22.5597 190.054 22.4303C189.97 22.166 189.859 21.9115 189.72 21.6715C189.426 21.1911 189.087 20.7399 188.706 20.3242C188.706 20.3242 188.614 20.3242 188.649 20.3809C189.01 20.7912 189.32 21.2436 189.571 21.7283C189.694 21.9572 189.8 22.1941 189.89 22.4374C189.933 22.5579 189.968 22.6856 190.004 22.8132C190.022 22.9397 190.055 23.0636 190.103 23.182C190.103 23.1914 190.107 23.2004 190.114 23.207C190.12 23.2137 190.129 23.2174 190.139 23.2174C190.148 23.2174 190.157 23.2137 190.164 23.207C190.17 23.2004 190.174 23.1914 190.174 23.182C190.188 23.0635 190.181 22.9434 190.153 22.8274Z" fill="#263238"/>
<path d="M191.489 23.3314C191.408 23.1184 191.316 22.9101 191.213 22.7074C191.108 22.5049 190.992 22.3084 190.865 22.1188C190.737 21.9273 190.596 21.743 190.475 21.5444C190.469 21.536 190.461 21.5301 190.451 21.5281C190.441 21.5261 190.43 21.5281 190.422 21.5338C190.413 21.5394 190.408 21.5482 190.406 21.5582C190.404 21.5681 190.406 21.5785 190.411 21.587C190.541 21.7822 190.657 21.9859 190.759 22.1968C190.858 22.3954 190.957 22.5939 191.049 22.7925C191.142 22.991 191.248 23.1896 191.34 23.3881C191.426 23.5944 191.523 23.7956 191.631 23.9909H191.688C191.647 23.7642 191.58 23.5429 191.489 23.3314Z" fill="#263238"/>
<path d="M181.58 31.6154C181.963 31.5706 182.349 31.5469 182.736 31.5445C183.139 31.4631 183.558 31.518 183.927 31.7005C184.033 31.7803 184.11 31.8935 184.145 32.022C184.18 32.1506 184.17 32.287 184.118 32.4096C183.983 32.6342 183.79 32.8185 183.559 32.9432C183.328 33.0679 183.069 33.1285 182.807 33.1187C182.271 33.185 181.729 33.0484 181.289 32.7358C181.192 32.66 181.12 32.5576 181.08 32.4412C181.041 32.3247 181.036 32.1993 181.067 32.0803C181.098 31.9613 181.163 31.8539 181.254 31.7713C181.345 31.6887 181.458 31.6346 181.58 31.6154Z" fill="#263238"/>
<path d="M190.489 33.7453C190.137 33.5913 189.794 33.4185 189.46 33.2276C189.075 33.1009 188.741 32.8519 188.51 32.5185C188.457 32.3966 188.447 32.2607 188.48 32.1322C188.514 32.0038 188.589 31.8901 188.694 31.8094C188.925 31.6816 189.185 31.6181 189.448 31.6256C189.712 31.6331 189.968 31.7113 190.191 31.8519C190.686 32.0651 191.085 32.4541 191.311 32.944C191.349 33.0577 191.354 33.1797 191.325 33.2961C191.297 33.4125 191.237 33.5186 191.151 33.6022C191.065 33.6858 190.957 33.7436 190.84 33.7689C190.723 33.7942 190.601 33.786 190.489 33.7453Z" fill="#263238"/>
<path d="M181.688 41.2933C182.844 41.2013 184.005 41.3836 185.078 41.8251C185.184 41.8251 185.312 41.6549 185.347 41.5627L185.688 39.7474C185.893 39.9176 186.992 40.7189 187.042 40.3714C187.577 37.4267 187.814 34.4358 187.751 31.4436C187.746 31.426 187.735 31.4106 187.72 31.3997C187.706 31.3887 187.688 31.3828 187.67 31.3828C187.651 31.3828 187.633 31.3887 187.619 31.3997C187.604 31.4106 187.593 31.426 187.588 31.4436C187.07 34.1666 187.035 36.9535 186.56 39.6978C186.174 39.4004 185.746 39.1614 185.29 38.9886C185.191 38.9886 185.042 40.9316 184.95 41.2153C183.957 40.7073 182.805 40.6056 181.738 40.9316C181.341 41.0734 181.128 41.3855 181.688 41.2933Z" fill="#263238"/>
<path d="M183.486 42.7975C184.011 42.7975 185.053 41.2516 184.195 40.9325C183.337 40.6134 181.358 40.5851 180.451 41.4998C179.671 42.3011 182.266 42.2089 182.642 42.4642C183.018 42.7195 183.11 42.8117 183.486 42.7975Z" fill="#263238"/>
<path d="M182.677 42.466L182.861 42.5866C182.975 42.0405 182.606 41.2605 181.443 40.9414C181.08 41.0444 180.748 41.2371 180.478 41.5016C179.705 42.3029 182.301 42.2178 182.677 42.466Z" fill="#FF9ABB"/>
<path d="M181.045 34.0313C181.285 34.0299 181.525 34.0658 181.754 34.1377C181.986 34.2099 182.208 34.3124 182.414 34.4426C182.622 34.589 182.802 34.7715 182.945 34.9815C183.085 35.1953 183.174 35.4376 183.208 35.6906L183.265 36.1657L182.839 35.9459C182.539 35.7851 182.223 35.6567 181.896 35.563C181.555 35.461 181.195 35.444 180.846 35.5133C181.157 35.2676 181.552 35.1531 181.946 35.1942C182.341 35.2176 182.727 35.3214 183.08 35.4992L182.711 35.7545C182.633 35.3796 182.434 35.0408 182.144 34.79C181.81 34.4927 181.441 34.2378 181.045 34.0313Z" fill="#263238"/>
<path d="M181.608 36.3022C181.975 36.3483 182.347 36.3483 182.714 36.3022C182.799 36.3022 183.147 36.1958 183.154 36.132C183.183 35.9511 183.183 35.7668 183.154 35.5859C183.221 35.7695 183.25 35.965 183.239 36.1603C183.179 36.2468 183.102 36.319 183.011 36.3718C182.92 36.4245 182.819 36.4564 182.714 36.4653C182.338 36.5052 181.957 36.4491 181.608 36.3022Z" fill="#263238"/>
<path d="M190.818 35.7826C190.589 35.7013 190.351 35.6512 190.109 35.6337C189.871 35.619 189.632 35.6381 189.4 35.6905C189.146 35.7489 188.905 35.8548 188.691 36.0025C188.477 36.1591 188.302 36.363 188.18 36.5981L187.96 37.0236L188.435 36.9669C188.775 36.9313 189.117 36.9313 189.456 36.9669C189.81 36.9896 190.151 37.1018 190.449 37.2931C190.351 37.1205 190.219 36.9691 190.062 36.8474C189.905 36.7257 189.726 36.6362 189.534 36.584C189.159 36.4656 188.763 36.4246 188.372 36.4634L188.627 36.8321C188.831 36.5033 189.141 36.2534 189.506 36.123C189.928 35.9558 190.368 35.8415 190.818 35.7826Z" fill="#263238"/>
<path d="M189.491 37.7087C189.129 37.6272 188.779 37.501 188.448 37.3329C188.37 37.2832 188.072 37.0776 188.094 37.0137C188.128 36.8337 188.188 36.6595 188.271 36.4961C188.139 36.6441 188.04 36.818 187.98 37.0067C188.006 37.1087 188.055 37.2037 188.122 37.2847C188.19 37.3656 188.275 37.4305 188.37 37.4747C188.717 37.6487 189.103 37.7293 189.491 37.7087Z" fill="#263238"/>
<path d="M181.429 89.9554C178.259 85.644 180.777 75.9786 184.152 58.7541C184.719 55.8751 202.837 55.8255 202.589 58.9598C202.263 62.9025 198.044 78.8151 197.164 80.6092C192.619 89.8349 183.556 92.8841 181.429 89.9554Z" fill="#FFBB96"/>
<path d="M201.64 60.8796C201.64 60.8796 204.838 54.4621 205.483 50.5761C206.047 46.5148 205.614 42.3774 204.221 38.521C202.739 34.3585 196.265 25.303 193.336 26.7142C190.684 27.9906 197.74 36.9184 197.74 36.9184C197.74 36.9184 192.024 26.6362 189.11 28.7635C186.195 30.8909 195.003 40.769 195.003 40.769C195.003 40.769 188.89 30.3307 186.231 32.9686C184.224 34.9825 191.698 44.3855 191.698 44.3855C191.698 44.3855 186.394 35.5002 184.267 37.4503C181.884 39.6414 188.238 48.7466 188.238 48.7466C183.607 54.7103 183.841 59.4401 184.408 62.7871C184.529 63.5955 201.64 60.8796 201.64 60.8796Z" fill="#FFBB96"/>
<path d="M199.968 40.3347C199.344 39.1008 198.713 37.8528 197.982 36.6756C197.252 35.4985 196.465 34.3568 195.628 33.2577C194.559 31.8006 193.324 30.4727 191.948 29.3008C194.231 31.5629 196.912 35.6829 197.663 36.8884C198.415 38.0939 199.195 39.193 199.925 40.3631C199.947 40.3914 199.989 40.3631 199.968 40.3347Z" fill="#263238"/>
<path d="M195.782 43.0616C194.917 41.5228 194.108 39.9628 193.172 38.4665C192.236 36.9703 191.215 35.63 190.187 34.2118C190.102 34.0983 190.074 34.2118 190.144 34.2969C191.123 35.7577 191.91 37.1901 192.875 38.6651C193.839 40.14 194.846 41.5796 195.746 43.09C195.761 43.1113 195.796 43.09 195.782 43.0616Z" fill="#263238"/>
<path d="M192.617 46.0554C191.343 43.6645 189.824 41.4117 188.086 39.3329C188.001 39.2266 187.966 39.3329 188.044 39.4464C189.597 41.6518 190.83 43.3749 192.539 46.0979C192.561 46.1334 192.646 46.1334 192.617 46.0554Z" fill="#263238"/>
<path d="M184.12 58.749C184.304 55.031 185.693 51.4738 188.077 48.6156V48.8567C186.454 46.5153 185.084 44.0074 183.993 41.3755C182.107 36.5748 184.979 35.816 188.155 39.1134L187.78 39.4183C186.815 37.7803 185.822 36.0997 185.73 34.1425C185.936 31.1287 188.879 32.6746 190.155 34.029L189.957 34.1921C189.446 33.3454 189.039 32.4408 188.744 31.4975C188.489 30.604 188.276 29.3701 189.148 28.7461C187.574 30.2282 189.815 33.4405 190.701 34.8729C189.815 34.0787 188.836 33.1143 187.68 32.8023C187.485 32.7371 187.276 32.724 187.073 32.7644C186.871 32.8049 186.683 32.8973 186.528 33.0327C186.372 33.168 186.255 33.3416 186.187 33.5363C186.12 33.7309 186.104 33.9399 186.141 34.1425C186.354 36.6031 188.035 38.8652 189.311 40.9146C188.358 39.9061 187.319 38.9831 186.205 38.1561C184.901 37.2626 183.688 37.3619 183.936 39.2127C184.588 42.6378 186.631 45.6799 188.404 48.6369L188.482 48.7646L188.389 48.878C185.986 51.65 184.499 55.0982 184.135 58.749H184.12Z" fill="#263238"/>
<path d="M158.599 54.5841C156.727 64.1147 155.195 83.4169 159.45 90.0968C163.499 96.4789 172.158 81.0059 172.377 80.0202C173.902 73.3687 171.619 64.0438 167.059 52.5915C162.861 42.1178 160.159 46.6278 158.599 54.5841Z" fill="#FFBB96"/>
<path d="M155.448 73.8523L172.176 66.5626C172.176 66.5626 169.637 55.2167 166.311 48.9197C163.766 44.1189 160.837 46.1967 159.724 49.6288C156.022 61.0669 155.448 73.8523 155.448 73.8523Z" fill="#4668D6"/>
<path d="M170.402 64.0947C165.55 65.8265 160.813 67.8634 156.219 70.1931C156.219 70.1931 156.219 70.3137 156.269 70.3066C160.226 68.8883 167.906 65.4208 170.451 64.2578C170.515 64.2294 170.451 64.0805 170.402 64.0947Z" fill="#263238"/>
<path d="M172.359 66.506C172.04 65.0878 171.132 61.8755 170.707 60.4501C170.664 60.0247 170.629 59.6063 170.565 59.1808C170.493 58.6379 170.367 58.1034 170.189 57.5853C170.189 57.5853 170.139 57.5853 170.146 57.5853C170.189 57.8477 170.26 58.103 170.302 58.3653C170.345 58.6277 170.395 58.883 170.437 59.1454C170.48 59.4077 170.522 59.6843 170.558 59.9538C170.132 58.5355 169.671 57.174 169.14 55.8125C169.14 55.8125 169.062 55.8125 169.076 55.8125C169.402 57.3371 169.785 58.8475 170.232 60.3367C170.678 61.8258 171.508 65.0169 172.033 66.4422C171.806 66.5628 171.586 66.6762 171.366 66.811C171.352 66.8166 171.341 66.8276 171.335 66.8416C171.329 66.8555 171.329 66.8713 171.334 66.8854C171.34 66.8995 171.351 66.9108 171.365 66.9168C171.379 66.9228 171.395 66.923 171.409 66.9173C171.692 66.8464 171.962 66.7471 172.245 66.6549C172.279 66.6468 172.308 66.6276 172.329 66.6005C172.349 66.5734 172.36 66.5401 172.359 66.506Z" fill="#263238"/>
<path d="M155.047 74.3993C155.047 73.9951 156.025 64.4007 156.366 62.7201C156.366 62.2946 156.366 61.8691 156.366 61.4437C156.389 60.8963 156.465 60.3524 156.593 59.8198H156.635C156.635 60.0822 156.579 61.5855 156.579 61.855C156.768 60.4422 157.045 59.0426 157.408 57.6641C157.408 57.6641 157.479 57.6641 157.472 57.6641C156.763 62.3017 155.508 72.6194 155.437 73.8178C155.664 73.7398 156.99 73.1087 157.274 73.0378C157.337 73.0378 157.274 73.1725 157.238 73.208C156.533 73.6493 155.801 74.0472 155.047 74.3993Z" fill="#263238"/>
<path d="M159.975 90.5224C158.394 85.2324 165.123 70.2416 176.469 54.2367C178.221 51.7619 194.793 60.4061 193.453 63.356C191.765 67.0718 181.206 83.2114 180.54 84.1545C174.909 92.2243 161.039 94.1176 159.975 90.5224Z" fill="#FFBB96"/>
<path d="M182.278 46.5553C181.335 47.4205 180.86 46.9312 181.236 44.6904C181.612 42.4495 184.923 33.8621 181.832 32.9544C178.74 32.0467 174.216 44.2223 173.904 48.0019C173.592 51.7816 174.414 58.0218 174.414 58.0218C175.762 55.8235 179.562 50.8242 182.278 46.5553Z" fill="#FFBB96"/>
<path d="M191.553 66.1697C196.056 59.7451 199.999 52.2143 199.879 44.0168C199.89 43.1043 199.592 42.2147 199.035 41.4924C199.035 37.8191 197.312 36.7129 197.312 36.7129C196.276 33.2879 194.347 32.3944 194.347 32.3944C194.347 32.3944 193.993 29.4444 191.915 29.5579C189.837 29.6713 188.816 34.5217 187.093 38.124C183.136 46.3498 175.79 55.774 174.414 58.0361L191.553 66.1697Z" fill="#FFBB96"/>
<path d="M189.58 48.4806C190.767 46.088 191.788 43.6168 192.636 41.0844C193.395 38.255 193.94 35.3726 194.267 32.4615C194.267 32.4427 194.275 32.4247 194.288 32.4114C194.301 32.3981 194.319 32.3906 194.338 32.3906C194.357 32.3906 194.375 32.3981 194.388 32.4114C194.402 32.4247 194.409 32.4427 194.409 32.4615C194.339 38.1464 192.708 43.7026 189.694 48.5231C189.623 48.6437 189.523 48.6011 189.58 48.4806Z" fill="#263238"/>
<path d="M194.198 51.5907C195.148 49.1514 196.801 44.8541 197.219 36.6992H197.269C197.691 41.8531 196.667 47.0226 194.312 51.6262C194.248 51.8035 194.142 51.7538 194.198 51.5907Z" fill="#263238"/>
<path d="M196.711 53.2239C198.179 49.0117 198.569 46.1753 199.008 41.5234H199.058C199.115 46.8631 198.526 48.8061 196.852 53.2948C196.789 53.4437 196.654 53.3799 196.711 53.2239Z" fill="#263238"/>
<path d="M161.139 82.0078C164.241 73.1909 168.615 64.8748 174.123 57.3234C173.544 53.8962 173.429 50.4067 173.782 46.9489C174.224 44.8847 174.838 42.8614 175.619 40.9002C176.569 38.6877 178.895 32.334 181.817 32.6885C182.204 32.7901 182.553 33.0026 182.822 33.2999C183.09 33.5972 183.266 33.9663 183.327 34.3621C183.88 37.9644 182.122 41.2618 181.483 44.6939C181.405 45.2896 181.178 46.4667 181.618 46.7291C183.377 44.8854 184.554 42.4744 185.873 40.2974C187.291 37.8864 187.929 35.135 189.135 32.6034C189.773 31.3767 190.439 29.845 191.971 29.4975C193.638 29.2351 194.389 31.1072 194.588 32.4545L194.517 32.3482C195.274 32.8042 195.921 33.4222 196.412 34.1578C196.902 34.8934 197.224 35.7284 197.353 36.6029C198.772 37.6878 199.254 39.9216 199.069 41.4533C200.169 42.758 199.949 44.6656 199.85 46.2611C199.928 45.4356 199.928 44.6046 199.85 43.7792C199.824 42.9496 199.525 42.1517 198.999 41.51C199.077 39.8081 198.665 37.8509 197.254 36.766C197.098 35.8881 196.755 35.0539 196.248 34.3199C195.742 33.5859 195.084 32.9692 194.318 32.5113C194.035 30.157 192.234 28.4764 190.461 30.9016C188.887 33.2062 188.263 35.993 187.17 38.5459C185.946 41.0768 184.523 43.5072 182.916 45.8144C182.54 46.2753 182.278 46.8355 181.71 47.112C179.533 47.0482 182.512 39.8932 182.582 38.475C182.93 37.1569 183.01 35.7824 182.816 34.433C182.483 32.9084 181.1 32.7736 180.086 33.8586C177.321 36.9149 175.959 41.0916 174.697 44.9634C173.392 49.0125 174.144 53.3594 174.406 57.4794C168.89 64.9968 164.426 73.2326 161.139 81.9582V82.0078Z" fill="#263238"/>
<path d="M156.73 76.4487C156.893 80.278 157.404 88.8158 160.666 91.1346C166.027 93.7158 174.465 90.3049 178.394 86.2984C184.343 79.349 188.648 71.1303 193.285 63.2591C197.306 57.5861 199.901 50.6438 199.916 43.6094C200.107 50.6368 197.561 57.7918 193.64 63.4647C191.13 68.074 188.485 72.6053 185.705 77.0586C182.826 81.3984 180.195 86.2771 175.664 89.1136C172.3 91.2881 168.373 92.4295 164.367 92.3968C161.205 92.2763 159.29 91.2552 158.312 88.1421C157.042 84.398 156.78 80.3914 156.744 76.47L156.73 76.4487Z" fill="#263238"/>
</svg>
