<svg width="348" height="228" viewBox="0 0 348 228" fill="none" xmlns="http://www.w3.org/2000/svg">
<path d="M208.06 227.465C259.333 227.465 300.898 223.46 300.898 218.52C300.898 213.579 259.333 209.574 208.06 209.574C156.786 209.574 115.221 213.579 115.221 218.52C115.221 223.46 156.786 227.465 208.06 227.465Z" fill="#EBEBEB"/>
<path d="M0 172.826L43.4987 172.699L86.9973 172.651L174 172.561L261.003 172.651L304.501 172.699L348 172.826L304.501 172.959L261.003 173.002L174 173.092L86.9973 173.002L43.4987 172.954L0 172.826Z" fill="#263238"/>
<path d="M290.873 19.1016H56.2388V176.051H290.873V19.1016Z" fill="#DBDBDB"/>
<path d="M289.162 21.0156H57.9395V174.138H289.162V21.0156Z" fill="#263238"/>
<path d="M321.43 187.824H25.6772V198.598H321.43V187.824Z" fill="#C7C7C7"/>
<path d="M25.6772 187.824L56.239 176.057H290.868L321.43 187.824H25.6772Z" fill="#DBDBDB"/>
<path d="M58.9653 183.652L78.6843 176.057H268.417L288.141 183.652H58.9653Z" fill="#263238"/>
<path d="M276.097 32.6504H71.0093V162.509H276.097V32.6504Z" fill="white"/>
<path d="M276.097 32.6504H70.834V37.6466H276.097V32.6504Z" fill="#455A64"/>
<path d="M74.8097 35.1489C74.8107 35.3942 74.7392 35.6343 74.6041 35.839C74.469 36.0437 74.2763 36.204 74.0504 36.2995C73.8245 36.395 73.5753 36.4216 73.3343 36.376C73.0933 36.3303 72.8712 36.2143 72.6959 36.0427C72.5206 35.8711 72.4 35.6515 72.3492 35.4115C72.2984 35.1716 72.3197 34.9219 72.4104 34.694C72.5012 34.4661 72.6573 34.2701 72.8591 34.1307C73.0609 33.9913 73.2995 33.9146 73.5447 33.9104C73.7096 33.9069 73.8735 33.9363 74.0268 33.997C74.1801 34.0576 74.3198 34.1483 74.4376 34.2636C74.5555 34.379 74.6491 34.5167 74.713 34.6687C74.7769 34.8207 74.8098 34.984 74.8097 35.1489Z" fill="#C7C7C7"/>
<path d="M79.8698 35.1486C79.8708 35.3948 79.7988 35.6358 79.6628 35.841C79.5267 36.0462 79.3329 36.2065 79.1057 36.3014C78.8785 36.3964 78.6283 36.4218 78.3867 36.3744C78.1451 36.327 77.923 36.209 77.7485 36.0352C77.574 35.8615 77.455 35.6399 77.4066 35.3985C77.3582 35.1571 77.3825 34.9068 77.4765 34.6792C77.5705 34.4516 77.7299 34.257 77.9345 34.1201C78.1392 33.9832 78.3798 33.9102 78.626 33.9102C78.7891 33.9095 78.9507 33.941 79.1016 34.0029C79.2525 34.0648 79.3896 34.1559 79.5052 34.271C79.6207 34.3861 79.7124 34.5228 79.775 34.6734C79.8376 34.824 79.8698 34.9855 79.8698 35.1486Z" fill="white"/>
<path d="M84.9293 35.1486C84.9304 35.395 84.8582 35.6362 84.722 35.8416C84.5857 36.0469 84.3915 36.2071 84.164 36.3019C83.9365 36.3967 83.686 36.4218 83.4443 36.374C83.2025 36.3262 82.9804 36.2076 82.8062 36.0333C82.6319 35.8591 82.5134 35.637 82.4655 35.3952C82.4177 35.1535 82.4428 34.903 82.5376 34.6755C82.6324 34.448 82.7926 34.2538 82.998 34.1176C83.2033 33.9813 83.4445 33.9091 83.6909 33.9102C84.0194 33.9102 84.3344 34.0406 84.5666 34.2729C84.7989 34.5051 84.9293 34.8201 84.9293 35.1486Z" fill="#FFC727"/>
<path d="M224.222 83.1113H123.777V96.8136H224.222V83.1113Z" fill="white"/>
<path d="M224.493 97.0848H123.506V82.8457H224.493V97.0848ZM124.038 96.5533H223.962V83.3772H124.038V96.5533Z" fill="#C7C7C7"/>
<path d="M224.227 83.1113H210.52V96.8136H224.227V83.1113Z" fill="#FF862D"/>
<path d="M221.714 93.8063L220.449 94.7683L218.115 91.6696L217.26 90.5375C217.435 90.4694 217.6 90.3764 217.749 90.2611C218.036 90.042 218.26 89.7503 218.397 89.416L219.311 90.6172L221.714 93.8063Z" fill="white"/>
<path d="M219.226 86.519C218.825 85.9956 218.283 85.5977 217.664 85.3724C217.044 85.147 216.373 85.1034 215.73 85.2469C215.087 85.3904 214.498 85.7149 214.033 86.1821C213.568 86.6493 213.247 87.2398 213.106 87.8838C212.966 88.5278 213.013 89.1985 213.242 89.8167C213.47 90.4349 213.871 90.9749 214.396 91.3728C214.922 91.7708 215.55 92.0102 216.207 92.0627C216.864 92.1152 217.522 91.9787 218.104 91.6693C218.271 91.5785 218.431 91.4754 218.582 91.361C218.857 91.1497 219.099 90.8989 219.3 90.6169C219.727 90.0154 219.949 89.2931 219.936 88.5557C219.923 87.8184 219.674 87.1047 219.226 86.519ZM217.737 90.2395C217.589 90.3548 217.424 90.4479 217.248 90.5159C216.805 90.6939 216.314 90.7128 215.858 90.5696C215.402 90.4264 215.01 90.1299 214.749 89.7303C214.487 89.3308 214.372 88.853 214.422 88.378C214.473 87.903 214.686 87.4603 215.026 87.1249C215.367 86.7895 215.812 86.5823 216.288 86.5384C216.764 86.4945 217.24 86.6166 217.636 86.884C218.031 87.1513 218.322 87.5475 218.459 88.0052C218.596 88.4628 218.57 88.9537 218.386 89.3944C218.252 89.7364 218.028 90.0358 217.737 90.2608V90.2395Z" fill="white"/>
<path d="M127.376 85.8066H126.642V94.1247H127.376V85.8066Z" fill="#263238"/>
<path d="M146.978 102.16H123.777V109.511H146.978V102.16Z" fill="#C7C7C7"/>
<path d="M185.597 102.16H162.397V109.511H185.597V102.16Z" fill="#FF862D"/>
<path d="M224.509 102.16H201.309V109.511H224.509V102.16Z" fill="#C7C7C7"/>
<path d="M206.034 68.2715H141.96V72.7202H206.034V68.2715Z" fill="#37474F"/>
<path d="M107.696 121.447H72.834V76.6992H98.7185L107.696 85.2246V121.447Z" fill="#EBEBEB"/>
<path d="M98.7183 76.6992L107.695 85.2246H98.7183V76.6992Z" fill="#DBDBDB"/>
<path d="M76.235 85.3574H95.6138V84.2094H76.235V85.3574Z" fill="#DBDBDB"/>
<path d="M76.235 88.2598H95.6138V87.1117H76.235V88.2598Z" fill="#DBDBDB"/>
<path d="M76.235 91.1562H95.6138V90.0082H76.235V91.1562Z" fill="#DBDBDB"/>
<path d="M76.2353 94.0586H104.634V92.9105H76.2353V94.0586Z" fill="#DBDBDB"/>
<path d="M76.2353 96.9609H104.634V95.8129H76.2353V96.9609Z" fill="#DBDBDB"/>
<path d="M76.2353 99.8574H104.634V98.7094H76.2353V99.8574Z" fill="#DBDBDB"/>
<path d="M76.2353 102.76H104.634V101.612H76.2353V102.76Z" fill="#DBDBDB"/>
<path d="M76.2353 105.662H104.634V104.514H76.2353V105.662Z" fill="#DBDBDB"/>
<path d="M76.2353 108.559H104.634V107.411H76.2353V108.559Z" fill="#DBDBDB"/>
<path d="M76.2353 111.461H104.634V110.313H76.2353V111.461Z" fill="#DBDBDB"/>
<path d="M76.2353 114.363H104.634V113.215H76.2353V114.363Z" fill="#DBDBDB"/>
<path d="M76.2353 117.26H104.634V116.112H76.2353V117.26Z" fill="#DBDBDB"/>
<path d="M312.863 138.998V106.273H249.157V138.998H312.863Z" fill="white"/>
<path d="M312.996 139.126H249.023V106.141H312.996V139.126ZM249.289 138.86H312.757V106.406H249.289V138.86Z" fill="#DBDBDB"/>
<path d="M253.01 134.74H279.771V110.525H253.01V134.74Z" fill="#EBEBEB"/>
<path d="M256.464 115.818C256.343 116.421 256.42 117.046 256.682 117.602C256.944 118.158 257.378 118.615 257.92 118.905C258.461 119.196 259.082 119.304 259.69 119.215C260.298 119.125 260.861 118.843 261.296 118.409C261.731 117.975 262.015 117.412 262.106 116.804C262.197 116.196 262.09 115.575 261.801 115.033C261.512 114.491 261.056 114.056 260.501 113.792C259.946 113.529 259.32 113.451 258.718 113.57C258.162 113.681 257.651 113.953 257.25 114.353C256.849 114.753 256.576 115.263 256.464 115.818Z" fill="#DBDBDB"/>
<path d="M260.541 129.521H279.771L270.156 116.488L260.541 129.521Z" fill="#C7C7C7"/>
<path d="M253.01 129.532H268.886L260.945 121.049L253.01 129.532Z" fill="#DBDBDB"/>
<path d="M279.771 129.521H253.01V134.741H279.771V129.521Z" fill="#DBDBDB"/>
<path d="M307.048 110.525H284.252V112.184H307.048V110.525Z" fill="#EBEBEB"/>
<path d="M307.048 113.959H284.252V115.617H307.048V113.959Z" fill="#EBEBEB"/>
<path d="M307.048 117.393H284.252V119.051H307.048V117.393Z" fill="#EBEBEB"/>
<path d="M307.048 120.826H284.252V122.484H307.048V120.826Z" fill="#EBEBEB"/>
<path d="M307.048 124.26H284.252V125.918H307.048V124.26Z" fill="#EBEBEB"/>
<path d="M96.4595 103.131H36.2661V179.998H96.4595V103.131Z" fill="white"/>
<path d="M96.7249 180.264H36V102.865H96.7249V180.264ZM36.5315 179.732H96.1934V103.397H36.5315V179.732Z" fill="#EBEBEB"/>
<path d="M96.4595 103.131H36.2661V108.887H96.4595V103.131Z" fill="#FF862D"/>
<path d="M96.7249 109.153H36V102.865H96.7249V109.153ZM36.5315 108.621H96.1934V103.397H36.5315V108.621Z" fill="#EBEBEB"/>
<path d="M41.6872 106.049C41.6882 106.336 41.604 106.618 41.4452 106.857C41.2864 107.096 41.0602 107.283 40.7951 107.394C40.5301 107.504 40.2382 107.534 39.9564 107.478C39.6745 107.423 39.4155 107.285 39.212 107.082C39.0086 106.88 38.8698 106.621 38.8134 106.34C38.757 106.058 38.7854 105.766 38.8951 105.501C39.0048 105.235 39.1907 105.008 39.4295 104.848C39.6682 104.689 39.949 104.604 40.2362 104.604C40.4265 104.603 40.615 104.64 40.791 104.712C40.9671 104.784 41.1271 104.891 41.2619 105.025C41.3967 105.159 41.5036 105.319 41.5766 105.495C41.6496 105.671 41.6872 105.859 41.6872 106.049Z" fill="#263238"/>
<path d="M47.5763 106.049C47.5774 106.337 47.4931 106.618 47.334 106.857C47.175 107.097 46.9484 107.284 46.6831 107.394C46.4177 107.505 46.1255 107.534 45.8436 107.478C45.5616 107.422 45.3026 107.284 45.0993 107.081C44.8961 106.877 44.7578 106.618 44.7019 106.336C44.6461 106.054 44.6753 105.762 44.7858 105.497C44.8963 105.231 45.0831 105.005 45.3225 104.846C45.5619 104.687 45.8432 104.602 46.1306 104.604C46.5141 104.604 46.8818 104.756 47.1529 105.027C47.424 105.298 47.5763 105.666 47.5763 106.049Z" fill="#EBEBEB"/>
<path d="M53.4919 106.049C53.4929 106.336 53.4087 106.618 53.2499 106.857C53.0911 107.096 52.8649 107.283 52.5998 107.394C52.3348 107.504 52.0429 107.534 51.761 107.478C51.4792 107.423 51.2202 107.285 51.0167 107.082C50.8133 106.88 50.6745 106.621 50.6181 106.34C50.5617 106.058 50.5901 105.766 50.6998 105.501C50.8095 105.235 50.9954 105.008 51.2342 104.848C51.4729 104.689 51.7536 104.604 52.0409 104.604C52.2312 104.603 52.4197 104.64 52.5957 104.712C52.7717 104.784 52.9318 104.891 53.0666 105.025C53.2014 105.159 53.3083 105.319 53.3813 105.495C53.4543 105.671 53.4919 105.859 53.4919 106.049Z" fill="#455A64"/>
<path d="M96.4595 108.621H36.2661V109.153H96.4595V108.621Z" fill="#EBEBEB"/>
<path d="M69.9848 162.518H40.4595V165.276H69.9848V162.518Z" fill="#C7C7C7"/>
<path d="M92.2656 167.875H40.4595V169.539H92.2656V167.875Z" fill="#EBEBEB"/>
<path d="M92.2656 171.043H40.4595V172.707H92.2656V171.043Z" fill="#EBEBEB"/>
<path d="M92.2656 174.215H40.4595V175.878H92.2656V174.215Z" fill="#EBEBEB"/>
<path d="M40.502 159.115H92.2178V112.321H40.502L40.502 159.115Z" fill="#EBEBEB"/>
<path d="M47.1831 122.558C46.9518 123.723 47.1015 124.932 47.6101 126.006C48.1186 127.08 48.9591 127.962 50.0073 128.522C51.0556 129.081 52.256 129.289 53.4312 129.114C54.6065 128.939 55.6944 128.39 56.5341 127.55C57.3738 126.709 57.9208 125.621 58.0944 124.445C58.268 123.27 58.0589 122.069 57.498 121.022C56.9372 119.974 56.0543 119.135 54.9798 118.628C53.9052 118.12 52.6961 117.972 51.5308 118.205C50.4572 118.42 49.4714 118.948 48.6977 119.723C47.9239 120.498 47.3969 121.484 47.1831 122.558Z" fill="#DBDBDB"/>
<path d="M55.0601 149.032H92.2178L73.6416 123.85L55.0601 149.032Z" fill="#C7C7C7"/>
<path d="M40.502 149.059H71.1806L55.8413 132.656L40.502 149.059Z" fill="#DBDBDB"/>
<path d="M92.2177 149.033H40.502V159.116H92.2177V149.033Z" fill="#DBDBDB"/>
<path d="M294.303 58.3194H257.15V26.886L275.727 15.0918L294.303 26.886V58.3194Z" fill="#FF862D"/>
<path opacity="0.2" d="M294.303 58.3194H257.15V26.886L275.727 15.0918L294.303 26.886V58.3194Z" fill="black"/>
<path d="M292.208 53.3187H259.244V11H283.72L292.208 19.063V53.3187Z" fill="#EBEBEB"/>
<path d="M283.721 11L292.209 19.063H283.721V11Z" fill="#DBDBDB"/>
<path d="M262.466 19.1914L280.792 19.1914V18.1071L262.466 18.1071V19.1914Z" fill="#DBDBDB"/>
<path d="M262.466 21.9336L280.792 21.9336V20.8493L262.466 20.8493V21.9336Z" fill="#DBDBDB"/>
<path d="M262.466 24.6758L280.792 24.6758V23.5915L262.466 23.5915V24.6758Z" fill="#DBDBDB"/>
<path d="M262.466 27.418L289.317 27.418V26.3337L262.466 26.3337V27.418Z" fill="#DBDBDB"/>
<path d="M262.465 30.1602L289.316 30.1602V29.0759L262.465 29.0759V30.1602Z" fill="#DBDBDB"/>
<path d="M262.465 32.9023H289.316V31.8181L262.465 31.8181V32.9023Z" fill="#DBDBDB"/>
<path d="M262.465 35.6465H289.316V34.5622H262.465V35.6465Z" fill="#DBDBDB"/>
<path d="M262.465 38.3887H289.316V37.3044H262.465V38.3887Z" fill="#DBDBDB"/>
<path d="M262.466 41.1309H289.317V40.0466H262.466V41.1309Z" fill="#DBDBDB"/>
<path d="M262.465 43.873H289.316V42.7888H262.465V43.873Z" fill="#DBDBDB"/>
<path d="M262.465 46.6152H289.316V45.531H262.465V46.6152Z" fill="#DBDBDB"/>
<path d="M262.465 49.3594H289.316V48.2751H262.465V49.3594Z" fill="#DBDBDB"/>
<path d="M294.303 34.7539V58.3157H257.15V34.7539C258.745 35.6575 260.339 36.6089 261.891 37.5337C263.443 38.4585 265.038 39.4206 266.601 40.3773C268.344 41.4403 270.084 42.5157 271.82 43.6035L271.873 43.5716L271.831 43.6088C273.133 44.4167 274.43 45.2353 275.732 46.0485C277.024 45.2353 278.326 44.4114 279.623 43.6088L279.58 43.5716H279.639C281.371 42.4874 283.109 41.4119 284.853 40.3454C286.415 39.394 287.983 38.4426 289.556 37.5071C291.13 36.5717 292.708 35.6575 294.303 34.7539Z" fill="#FF862D"/>
<path d="M294.303 34.7539C292.804 35.8169 291.273 36.8215 289.764 37.8579C288.254 38.8944 286.713 39.8883 285.177 40.8928C283.641 41.8974 281.988 42.9817 280.361 44.0128L280.218 44.1138L275.966 46.8404L275.753 46.968L275.546 46.8404C274.129 45.9333 272.711 45.0227 271.294 44.1085L271.14 44.0128C269.531 42.9817 267.924 41.9399 266.319 40.8875C264.794 39.8883 263.263 38.8731 261.737 37.8579C260.212 36.8427 258.697 35.8116 257.198 34.7539C258.793 35.6575 260.387 36.6089 261.939 37.5337C263.491 38.4585 265.086 39.4206 266.648 40.3773C268.392 41.4403 270.132 42.5157 271.868 43.6035C273.17 44.4114 274.467 45.2299 275.769 46.0432C277.061 45.2299 278.363 44.4061 279.66 43.6035C281.393 42.5192 283.131 41.4438 284.874 40.3773C286.437 39.4259 288.005 38.4745 289.578 37.539C291.151 36.6036 292.708 35.6575 294.303 34.7539Z" fill="white"/>
<path d="M271.873 43.5703L271.83 43.6075L271.246 44.1071C270.31 44.8938 269.359 45.6432 268.386 46.3767C267.206 47.2802 265.994 48.1466 264.777 49.0023C263.56 49.8581 262.327 50.6819 261.057 51.4898C259.786 52.2977 258.532 53.0843 257.225 53.7965C258.351 52.8079 259.521 51.8884 260.706 50.9902C261.891 50.0919 263.103 49.2202 264.315 48.3645C265.527 47.5088 266.77 46.6796 268.035 45.8717C269.035 45.2339 270.05 44.6014 271.086 44.0115L271.814 43.6022L271.873 43.5703Z" fill="white"/>
<path d="M294.218 53.7977C292.905 53.0802 291.635 52.2936 290.38 51.491C289.126 50.6884 287.898 49.8486 286.66 49.0035C285.421 48.1584 284.236 47.2814 283.051 46.3779C282.089 45.6444 281.132 44.9003 280.207 44.1136L279.612 43.5821L279.569 43.5449H279.628L280.351 43.9595C281.414 44.5495 282.397 45.182 283.402 45.8198C284.661 46.6277 285.884 47.4621 287.122 48.3126C288.361 49.163 289.551 50.0346 290.736 50.9382C291.922 51.8418 293.091 52.8091 294.218 53.7977Z" fill="white"/>
<path d="M211.163 221.57C212.279 221.932 244.117 221.517 245.339 220.731C245.801 220.444 246.009 215.798 246.104 210.175V209.999C246.104 208.841 246.142 207.65 246.142 206.438C246.142 206.274 246.142 206.109 246.142 205.944L244.595 189.414L223.287 189.627L225.413 206.002V206.651L225.546 210.037V210.387C225.546 210.387 213.422 216 212.194 216.999C210.966 217.999 210.047 221.214 211.163 221.57Z" fill="#AD6359"/>
<path d="M211.163 221.57C212.279 221.931 244.117 221.517 245.339 220.73C245.801 220.443 246.009 215.798 246.104 210.174V209.999C246.104 208.84 246.142 207.649 246.142 206.438C246.142 206.273 246.142 206.108 246.142 205.943L225.413 206.002V206.65L225.546 210.036V210.387C225.546 210.387 213.422 215.999 212.194 216.999C210.966 217.998 210.047 221.214 211.163 221.57Z" fill="#EBEBEB"/>
<path d="M211.158 221.569C211.738 221.755 220.391 221.734 228.847 221.569L233.854 221.452C239.886 221.287 244.872 221.037 245.334 220.735C245.797 220.432 246.004 215.951 246.094 210.413C246.094 210.338 246.094 210.258 246.094 210.179C246.094 210.099 246.094 210.057 246.094 209.998H246.068L225.541 210.041V210.391C225.541 210.391 213.412 215.999 212.184 217.003C210.956 218.008 210.042 221.213 211.158 221.569Z" fill="#2B59EC"/>
<path d="M211.509 220.331C216.877 220.129 238.546 219.8 243.867 220.034C243.909 220.034 243.909 220.066 243.867 220.066C238.552 220.385 216.877 220.512 211.509 220.422C211.397 220.416 211.392 220.337 211.509 220.331Z" fill="#263238"/>
<path d="M223.26 210.127C225.386 209.702 227.958 209.995 229.59 211.477C229.654 211.536 229.59 211.626 229.505 211.605C227.478 210.979 225.39 210.572 223.276 210.393C223.241 210.395 223.206 210.383 223.18 210.36C223.153 210.336 223.137 210.304 223.135 210.268C223.133 210.233 223.145 210.198 223.168 210.172C223.192 210.146 223.225 210.13 223.26 210.127Z" fill="#263238"/>
<path d="M221.751 211.062C223.877 210.642 226.444 210.934 228.081 212.417C228.145 212.475 228.081 212.566 227.991 212.545C225.964 211.918 223.876 211.512 221.762 211.333C221.73 211.328 221.701 211.312 221.68 211.288C221.658 211.264 221.646 211.234 221.645 211.202C221.643 211.17 221.653 211.138 221.673 211.113C221.692 211.087 221.72 211.069 221.751 211.062Z" fill="#263238"/>
<path d="M220.241 212.002C222.367 211.582 224.94 211.869 226.572 213.357C226.635 213.416 226.572 213.501 226.481 213.48C224.45 212.854 222.358 212.448 220.241 212.268C220.206 212.268 220.172 212.254 220.147 212.229C220.122 212.204 220.108 212.17 220.108 212.135C220.108 212.1 220.122 212.066 220.147 212.041C220.172 212.016 220.206 212.002 220.241 212.002Z" fill="#263238"/>
<path d="M228.846 221.565L233.853 221.448C239.885 221.283 244.871 221.034 245.333 220.731C245.796 220.428 246.003 215.947 246.093 210.409C246.093 210.334 246.093 210.255 246.093 210.175C246.093 210.095 246.093 210.053 246.093 209.994H246.067C243.266 211.971 233.358 218.567 228.846 221.565Z" fill="#263238"/>
<path d="M224.153 210.105H247.093C247.093 210.105 242.474 156.524 242.655 155.588C242.884 154.387 251.446 120.865 253.089 114.524C255.555 105.031 257.479 97.6484 257.479 97.6484H238.036C238.036 97.6484 235.767 104.834 232.912 114.178C228.256 129.369 222.043 150.273 221.427 155.36C220.433 163.566 224.153 210.105 224.153 210.105Z" fill="#455A64"/>
<path d="M225.168 206.194C228.671 206.119 227.666 206.093 231.169 206.061C232.886 206.061 244.154 205.944 245.754 206.21C245.761 206.212 245.767 206.217 245.771 206.223C245.775 206.229 245.777 206.237 245.777 206.244C245.777 206.252 245.775 206.259 245.771 206.265C245.767 206.271 245.761 206.276 245.754 206.279C244.159 206.544 232.886 206.449 231.169 206.433C227.666 206.396 228.671 206.369 225.168 206.295C225.16 206.297 225.152 206.298 225.144 206.297C225.135 206.295 225.127 206.292 225.121 206.287C225.114 206.282 225.108 206.276 225.104 206.268C225.101 206.261 225.099 206.253 225.099 206.244C225.099 206.236 225.101 206.227 225.104 206.22C225.108 206.212 225.114 206.206 225.121 206.201C225.127 206.196 225.135 206.193 225.144 206.192C225.152 206.19 225.16 206.191 225.168 206.194Z" fill="#263238"/>
<path d="M238.339 152.315C239.089 148.998 240.216 145.745 241.194 142.492C243.181 135.873 245.182 129.261 247.194 122.656C248.201 119.358 249.209 116.055 250.219 112.749C250.75 111.08 251.244 109.417 251.765 107.753C252.286 106.089 252.86 104.511 253.317 102.868C253.509 102.199 253.61 102.565 253.37 103.4C252.887 105.111 252.408 106.823 251.909 108.529C250.92 111.909 249.926 115.288 248.927 118.665C246.939 125.397 244.932 132.114 242.905 138.814C241.895 142.177 240.883 145.543 239.87 148.913C239.357 150.514 238.943 152.145 238.632 153.797C238.36 155.525 238.292 157.279 238.43 159.022C238.648 162.536 239.052 166.038 239.376 169.541C239.7 173.043 240.03 176.562 240.354 180.07C240.999 187.054 241.638 194.038 242.273 201.022C242.352 201.91 242.432 202.792 242.501 203.68C242.501 203.977 242.076 203.951 242.044 203.68C241.289 196.77 240.71 189.86 240.061 182.951C239.413 176.041 238.77 169.185 238.127 162.302C237.962 160.574 237.781 158.842 237.781 157.103C237.784 155.491 237.972 153.884 238.339 152.315Z" fill="#263238"/>
<path d="M235.124 221.57C236.24 221.932 268.077 221.517 269.294 220.731C269.757 220.444 269.969 215.798 270.065 210.175V209.999C270.065 208.841 270.102 207.65 270.102 206.438C270.102 206.274 270.102 206.109 270.102 205.944L268.556 189.414L247.247 189.627L249.373 206.002V206.651L249.506 210.037V210.387C249.506 210.387 237.393 216 236.187 216.999C234.98 217.999 233.997 221.214 235.124 221.57Z" fill="#AD6359"/>
<path d="M235.123 221.57C236.239 221.931 268.076 221.517 269.293 220.73C269.756 220.443 269.968 215.798 270.064 210.174V209.999C270.064 208.84 270.101 207.649 270.101 206.438C270.101 206.273 270.101 206.108 270.101 205.943L249.372 206.002V206.65L249.505 210.036V210.387C249.505 210.387 237.392 215.999 236.186 216.999C234.979 217.998 233.996 221.214 235.123 221.57Z" fill="#EBEBEB"/>
<path d="M235.124 221.569C235.698 221.755 244.356 221.734 252.812 221.569L257.819 221.452C263.852 221.287 268.837 221.037 269.3 220.735C269.762 220.432 269.969 215.951 270.06 210.413C270.06 210.338 270.06 210.258 270.06 210.179C270.06 210.099 270.06 210.057 270.06 209.998H270.033L249.506 210.041V210.391C249.506 210.391 237.388 215.993 236.187 216.998C234.985 218.003 233.997 221.213 235.124 221.569Z" fill="#2B59EC"/>
<path d="M235.464 220.331C240.832 220.129 262.502 219.8 267.822 220.034C267.864 220.034 267.864 220.066 267.822 220.066C262.507 220.385 240.832 220.512 235.464 220.422C235.347 220.416 235.347 220.337 235.464 220.331Z" fill="#263238"/>
<path d="M247.216 210.127C249.342 209.702 251.914 209.995 253.546 211.477C253.61 211.536 253.546 211.626 253.461 211.605C251.432 210.978 249.342 210.572 247.226 210.393C247.191 210.395 247.157 210.382 247.131 210.358C247.105 210.334 247.089 210.301 247.088 210.266C247.087 210.23 247.099 210.196 247.123 210.17C247.147 210.144 247.18 210.129 247.216 210.127Z" fill="#263238"/>
<path d="M245.706 211.062C247.832 210.642 250.399 210.934 252.036 212.417C252.1 212.475 252.036 212.566 251.946 212.545C249.919 211.918 247.831 211.512 245.717 211.333C245.685 211.328 245.656 211.312 245.635 211.288C245.613 211.264 245.601 211.234 245.6 211.202C245.598 211.17 245.608 211.138 245.628 211.113C245.647 211.087 245.675 211.069 245.706 211.062Z" fill="#263238"/>
<path d="M244.19 212.002C246.316 211.582 248.883 211.869 250.52 213.357C250.584 213.416 250.52 213.501 250.43 213.48C248.403 212.856 246.314 212.45 244.201 212.268C244.166 212.269 244.131 212.256 244.105 212.233C244.079 212.209 244.064 212.175 244.063 212.14C244.061 212.105 244.074 212.071 244.098 212.045C244.122 212.019 244.155 212.003 244.19 212.002Z" fill="#263238"/>
<path d="M238.664 97.6484C238.664 97.6484 239.111 106.955 241.242 114.322C241.412 114.933 241.598 115.528 241.8 116.102C241.8 116.102 241.502 115.869 244.888 117.947C244.888 117.947 243.581 154.94 243.527 157.146C243.331 165.405 249.337 210.445 249.337 210.445L272.271 210.536C272.271 210.536 264.081 159.452 264.107 156.439C264.155 151.575 267.047 130.432 266.154 114.758C265.77 108.799 264.184 102.979 261.492 97.6484H238.664Z" fill="#455A64"/>
<path d="M250.122 206.363C253.625 206.305 252.621 206.273 256.123 206.251C257.84 206.251 269.108 206.193 270.708 206.464C270.745 206.464 270.745 206.533 270.708 206.538C269.113 206.794 257.835 206.65 256.123 206.623C252.615 206.576 253.625 206.554 250.122 206.464C250.114 206.467 250.106 206.467 250.098 206.466C250.089 206.465 250.082 206.461 250.075 206.457C250.068 206.452 250.062 206.445 250.059 206.438C250.055 206.43 250.053 206.422 250.053 206.414C250.053 206.405 250.055 206.397 250.059 206.389C250.062 206.382 250.068 206.375 250.075 206.37C250.082 206.366 250.089 206.362 250.098 206.361C250.106 206.36 250.114 206.36 250.122 206.363Z" fill="#263238"/>
<path d="M260.105 99.0357C263.007 104.617 264.086 110.963 264.319 117.181C264.574 123.942 263.788 130.682 263.054 137.379C262.31 144.432 261.662 151.501 262.199 158.591C262.73 165.761 264.016 172.868 265.042 179.979C266.068 187.091 267.168 194.192 268.035 201.319C268.146 202.223 268.258 203.121 268.364 204.025C268.364 204.035 268.36 204.044 268.353 204.051C268.346 204.058 268.337 204.062 268.327 204.062C268.317 204.062 268.308 204.058 268.301 204.051C268.294 204.044 268.29 204.035 268.29 204.025C267.03 197.003 265.999 189.94 264.925 182.887C263.852 175.833 262.65 168.833 261.922 161.764C261.194 154.695 261.502 147.685 262.215 140.637C262.895 133.85 263.809 127.068 263.809 120.232C263.809 113.881 263.193 107.38 260.939 101.39C260.641 100.593 260.317 99.7958 259.982 99.0145C259.961 98.9241 260.067 98.9188 260.105 99.0357Z" fill="#263238"/>
<path d="M240.842 115.549C243.123 116.503 245.317 117.652 247.401 118.983C247.481 119.036 247.401 119.163 247.332 119.121C245.121 118.058 242.862 116.995 240.709 115.815C240.676 115.796 240.652 115.765 240.641 115.729C240.63 115.692 240.634 115.653 240.65 115.619C240.667 115.585 240.697 115.559 240.732 115.546C240.768 115.533 240.807 115.534 240.842 115.549Z" fill="#263238"/>
<path d="M240.715 107.657C240.864 108.476 241.066 109.283 241.247 110.091C241.428 110.899 241.534 111.627 241.731 112.377C241.895 113.105 242.264 113.771 242.794 114.296C243.091 114.572 243.421 114.827 243.74 115.072C243.91 115.21 244.096 115.343 244.271 115.481C244.271 115.375 244.234 115.263 244.213 115.151L244.053 114.227C243.936 113.536 243.83 112.85 243.724 112.159C243.517 110.809 243.325 109.443 243.043 108.104C243.043 108.092 243.048 108.081 243.056 108.073C243.064 108.066 243.075 108.061 243.086 108.061C243.097 108.061 243.108 108.066 243.116 108.073C243.124 108.081 243.129 108.092 243.129 108.104C243.463 109.427 243.835 110.761 244.133 112.079C244.277 112.738 244.787 115.981 244.813 116.209C244.84 116.438 244.856 116.682 244.861 116.921C244.896 117.163 244.896 117.408 244.861 117.649C244.861 117.708 244.776 117.697 244.755 117.649C244.656 117.423 244.587 117.186 244.548 116.943C244.489 116.714 244.436 116.48 244.394 116.241C244.394 116.156 244.367 116.071 244.356 115.986C244.037 115.789 243.74 115.534 243.442 115.316C243.144 115.098 242.794 114.859 242.491 114.604C241.928 114.13 241.522 113.496 241.327 112.786C241.127 112.022 240.999 111.241 240.944 110.453C240.838 109.533 240.763 108.608 240.636 107.689C240.625 107.625 240.705 107.604 240.715 107.657Z" fill="#263238"/>
<path d="M242.447 72.52C242.517 76.7189 239.843 96.4645 235.841 101.041C230.526 107.095 221.006 115.243 219.136 114.934C217.35 114.642 210.185 104.538 211.519 103.13C212.853 101.721 224.77 93.9664 226.29 92.4356C227.31 91.4205 233.279 79.7273 236.718 73.6149C239.838 68.0819 242.357 66.7425 242.447 72.52Z" fill="#AD6359"/>
<path d="M241.268 84.6321L229.245 83.9783C229.245 83.9783 236.038 72.6094 238.982 69.8296C242.294 66.699 243.171 69.0802 243.08 73.4066C242.99 77.7331 241.268 84.6321 241.268 84.6321Z" fill="#2B59EC"/>
<path d="M231.057 81.9155C231.477 81.873 235.224 82.0272 236.037 82.075C236.851 82.1228 240.189 82.3035 241.023 82.4258C241.06 82.4258 241.06 82.4843 241.023 82.4843C240.183 82.5215 236.819 82.3567 235.99 82.3195C235.16 82.2823 231.451 82.0537 231.047 81.9687C231.015 81.9634 231.025 81.9155 231.057 81.9155Z" fill="#263238"/>
<path d="M243.096 73.3859C243.011 77.7124 241.284 84.6326 241.284 84.6326L234.241 84.2393L240.731 68.5651C242.612 67.7413 243.149 69.9524 243.096 73.3859Z" fill="#263238"/>
<path d="M233.364 108.896C233.896 109.427 266.185 107.711 266.344 107.498C266.764 106.929 255.491 72.9978 247.917 67.5605C246.29 66.3911 241.64 67.5126 240.518 68.6235C239.811 69.3304 238.281 73.8004 237.276 77.4944C235.267 84.9089 232.907 108.428 233.364 108.896Z" fill="#2B59EC"/>
<path d="M253.03 74.7523C252.887 74.4314 252.792 74.0911 252.749 73.7425C252.746 73.7213 252.746 73.6999 252.749 73.6787C252.85 73.8541 252.951 74.0348 253.062 74.2102C253.073 74.3915 253.062 74.5735 253.03 74.7523ZM242.932 97.6072C242.882 97.9598 242.882 98.3176 242.932 98.6702C242.976 99.0187 243.071 99.3589 243.213 99.6801C243.265 99.3277 243.265 98.9695 243.213 98.6171C243.169 98.2703 243.074 97.9319 242.932 97.6125V97.6072ZM251.967 91.9094C251.918 92.2621 251.918 92.6198 251.967 92.9725C252.012 93.3192 252.107 93.6576 252.249 93.977C252.333 93.2793 252.232 92.5717 251.957 91.9254L251.967 91.9094ZM252.568 105.824C252.49 106.522 252.591 107.228 252.86 107.876C252.912 107.524 252.912 107.165 252.86 106.813C252.807 106.472 252.705 106.141 252.557 105.83L252.568 105.824ZM262.401 99.7917C262.349 100.144 262.349 100.502 262.401 100.855C262.445 101.201 262.54 101.54 262.682 101.859C262.735 101.507 262.735 101.149 262.682 100.796C262.633 100.451 262.535 100.114 262.39 99.797L262.401 99.7917ZM240.816 80.8115C240.732 81.5092 240.833 82.2168 241.109 82.8632C241.161 82.5107 241.161 82.1526 241.109 81.8001C241.055 81.4595 240.953 81.1283 240.806 80.8169L240.816 80.8115ZM240.816 70.0644C240.732 70.7621 240.833 71.4697 241.109 72.116C241.161 71.7636 241.161 71.4055 241.109 71.053C241.055 70.7124 240.953 70.3812 240.806 70.0697L240.816 70.0644ZM257.293 84.3089C257.244 84.6615 257.244 85.0193 257.293 85.3719C257.336 85.7183 257.429 86.0566 257.569 86.3764C257.655 85.6787 257.554 84.9709 257.277 84.3248L257.293 84.3089ZM247.88 78.1646C248.233 78.2146 248.59 78.2146 248.943 78.1646C249.289 78.1219 249.628 78.0288 249.948 77.8882C249.252 77.8033 248.546 77.9042 247.901 78.1806L247.88 78.1646ZM243.67 67.7843C244.023 67.837 244.381 67.837 244.733 67.7843C245.082 67.741 245.422 67.6479 245.743 67.5079C245.391 67.4557 245.033 67.4557 244.68 67.5079C244.332 67.5502 243.992 67.6433 243.67 67.7843ZM237.351 77.2504C237.324 77.3355 237.303 77.4258 237.276 77.5109H237.383C237.73 77.47 238.068 77.3769 238.387 77.2345C238.043 77.1887 237.694 77.194 237.351 77.2504ZM239.418 88.1357C239.771 88.1884 240.129 88.1884 240.481 88.1357C240.829 88.0924 241.17 87.9994 241.491 87.8593C241.139 87.8072 240.781 87.8072 240.428 87.8593C240.08 87.9017 239.74 87.9948 239.418 88.1357ZM249.373 87.3013C250.071 87.3786 250.777 87.278 251.425 87.0089C251.073 86.9568 250.714 86.9568 250.362 87.0089C250.02 87.0583 249.687 87.1568 249.373 87.3013ZM246.854 103.454C247.55 103.539 248.256 103.438 248.9 103.161C248.204 103.077 247.498 103.177 246.854 103.454ZM256.916 96.2519C257.268 96.3039 257.626 96.3039 257.979 96.2519C258.325 96.2073 258.664 96.1124 258.983 95.9702C258.286 95.8928 257.58 95.9934 256.932 96.2625L256.916 96.2519ZM235.868 107.61C236.22 107.662 236.578 107.662 236.931 107.61C237.278 107.566 237.616 107.471 237.935 107.328C237.583 107.276 237.225 107.276 236.872 107.328C236.517 107.374 236.17 107.469 235.841 107.61H235.868ZM235.113 99.138C235.466 99.1873 235.823 99.1873 236.176 99.138C236.523 99.0953 236.861 99.0022 237.181 98.8616C236.483 98.7772 235.775 98.878 235.129 99.1539L235.113 99.138ZM248.151 70.9308C247.602 71.3682 247.173 71.9391 246.907 72.5891C247.457 72.1517 247.885 71.5808 248.151 70.9308ZM236.187 82.8047C236.155 82.9801 236.123 83.1555 236.096 83.3362C236.189 83.2384 236.276 83.1354 236.357 83.0279C236.576 82.7517 236.755 82.4457 236.888 82.119C236.623 82.3134 236.387 82.5443 236.187 82.8047ZM254.125 80.9072C253.574 81.3411 253.146 81.9107 252.881 82.5602C253.16 82.3479 253.407 82.0974 253.615 81.8161C253.826 81.5379 253.998 81.2321 254.125 80.9072ZM245.499 90.5647C244.948 90.9986 244.519 91.5682 244.255 92.2177C244.533 92.0054 244.78 91.7549 244.989 91.4736C245.199 91.1954 245.371 90.8896 245.499 90.5647ZM240.216 102.3C239.666 102.738 239.238 103.309 238.972 103.959C239.521 103.521 239.95 102.95 240.216 102.3ZM254.306 99.1698C253.755 99.6037 253.326 100.173 253.062 100.823C253.613 100.389 254.042 99.8193 254.306 99.1698ZM264.405 105.016C263.855 105.454 263.427 106.025 263.161 106.675C263.714 106.241 264.143 105.669 264.405 105.016ZM235.124 89.9641L235.092 90.2192C235.261 90.3193 235.439 90.4029 235.623 90.4691C235.477 90.2822 235.309 90.1128 235.124 89.9641ZM258.037 90.8464C257.821 90.5711 257.569 90.3261 257.288 90.1183C257.012 89.8979 256.706 89.7188 256.379 89.5867C256.812 90.1403 257.384 90.5694 258.037 90.8305V90.8464ZM258.861 104.873C258.648 104.597 258.398 104.351 258.117 104.145C257.842 103.924 257.536 103.744 257.208 103.613C257.419 103.891 257.67 104.136 257.952 104.341C258.224 104.561 258.527 104.74 258.85 104.873H258.861ZM244.096 77.1016C243.881 76.8248 243.629 76.5797 243.346 76.3734C243.071 76.153 242.764 75.974 242.437 75.8419C242.652 76.1202 242.904 76.3671 243.187 76.5754C243.459 76.7932 243.762 76.9705 244.085 77.1016H244.096ZM248.911 97.3521C248.481 96.7973 247.91 96.3678 247.258 96.1084C247.471 96.3848 247.721 96.6299 248.002 96.8365C248.277 97.0483 248.579 97.2217 248.9 97.3521H248.911ZM233.657 103.852L233.593 103.81C233.593 103.911 233.593 104.017 233.566 104.118C233.823 104.308 234.104 104.464 234.401 104.581C234.184 104.305 233.93 104.06 233.646 103.852H233.657ZM247.019 84.1388C246.807 83.8605 246.556 83.6136 246.275 83.4053C245.998 83.1869 245.692 83.008 245.366 82.8738C245.8 83.4246 246.369 83.8532 247.019 84.1175V84.1388ZM239.817 94.769C239.38 94.2195 238.809 93.7913 238.159 93.5252C238.589 94.0819 239.162 94.5117 239.817 94.769ZM244.765 107.754C244.553 107.477 244.302 107.232 244.021 107.026C243.743 106.806 243.435 106.627 243.107 106.494C243.32 106.772 243.572 107.017 243.856 107.222C244.129 107.435 244.432 107.607 244.755 107.732L244.765 107.754Z" fill="white"/>
<path d="M213.297 89.4114L208.865 93.582L233.208 119.45L237.64 115.279L213.297 89.4114Z" fill="#37474F"/>
<path d="M251.154 127.377L244.452 133.686L227.454 115.62L234.156 109.311L251.154 127.377Z" fill="#263238"/>
<path d="M196.382 100.147C190.931 100.762 185.419 99.747 180.545 97.2299C175.671 94.7127 171.653 90.8066 168.999 86.0055C166.344 81.2044 165.174 75.7241 165.635 70.2577C166.096 64.7912 168.167 59.5842 171.588 55.2953C175.008 51.0064 179.624 47.8281 184.851 46.1626C190.077 44.4971 195.681 44.4191 200.952 45.9385C206.223 47.4579 210.926 50.5064 214.464 54.6984C218.003 58.8905 220.218 64.0378 220.831 69.4893C221.644 76.795 219.527 84.1248 214.944 89.8718C210.36 95.6187 203.685 99.3138 196.382 100.147ZM190.535 48.1811C185.709 48.7233 181.152 50.6844 177.441 53.8164C173.729 56.9485 171.029 61.1107 169.683 65.777C168.337 70.4432 168.405 75.4038 169.878 80.0315C171.351 84.6592 174.163 88.7462 177.959 91.7757C181.755 94.8051 186.364 96.641 191.203 97.0512C196.042 97.4614 200.894 96.4275 205.146 94.0802C209.397 91.7328 212.857 88.1775 215.088 83.8638C217.319 79.55 218.221 74.6716 217.679 69.8454C216.945 63.3773 213.676 57.4645 208.588 53.4033C203.501 49.3421 197.011 47.4641 190.541 48.1811H190.535Z" fill="#263238"/>
<path d="M193.262 101.12C185.829 101.125 178.688 98.2302 173.355 93.0518C168.023 87.8734 164.921 80.8195 164.708 73.3896C164.496 65.9598 167.189 58.74 172.217 53.265C177.244 47.79 184.208 44.4917 191.629 44.0712C199.05 43.6506 206.342 46.1411 211.956 51.0131C217.569 55.8851 221.061 62.7544 221.689 70.1607C222.317 77.567 220.032 84.9263 215.319 90.6739C210.606 96.4215 203.837 100.104 196.451 100.939C195.392 101.056 194.328 101.117 193.262 101.12ZM193.305 45.6465C192.292 45.6481 191.281 45.7049 190.275 45.8166C183.311 46.6032 176.928 50.0746 172.483 55.4931C168.038 60.9116 165.881 67.8499 166.471 74.8335C167.061 81.8171 170.351 88.2953 175.642 92.8914C180.933 97.4874 187.808 99.8389 194.805 99.446C201.803 99.0532 208.371 95.947 213.115 90.7876C217.858 85.6283 220.402 78.8225 220.207 71.8168C220.011 64.811 217.092 58.1577 212.068 53.2708C207.044 48.3839 200.313 45.6487 193.305 45.6465ZM193.267 97.9363C186.792 97.9294 180.564 95.4449 175.862 90.9924C171.16 86.54 168.34 80.4571 167.981 73.9915C167.621 67.5259 169.749 61.1678 173.928 56.2213C178.107 51.2748 184.021 48.115 190.456 47.3899C197.14 46.6392 203.849 48.5748 209.107 52.7707C214.364 56.9666 217.74 63.0792 218.49 69.7637C219.241 76.4483 217.305 83.1572 213.109 88.4147C208.913 93.6722 202.801 97.0475 196.116 97.7982C195.17 97.8994 194.219 97.9455 193.267 97.9363ZM190.61 48.9791C185.945 49.5064 181.541 51.4048 177.955 54.4344C174.368 57.4641 171.761 61.4889 170.461 66.0002C169.162 70.5115 169.229 75.3068 170.655 79.7799C172.08 84.2529 174.8 88.203 178.469 91.1309C182.139 94.0588 186.595 95.8329 191.273 96.2291C195.951 96.6254 200.641 95.6258 204.751 93.3569C208.861 91.088 212.206 87.6516 214.364 83.482C216.521 79.3123 217.394 74.5967 216.872 69.9312C216.162 63.6728 212.998 57.9519 208.074 54.0238C203.15 50.0958 196.87 48.2815 190.61 48.9791Z" fill="#263238"/>
<g opacity="0.2">
<path d="M210.466 56.4194C213.663 59.8184 215.781 64.0892 216.551 68.6915C217.32 73.2939 216.708 78.0212 214.791 82.2757C212.875 86.5301 209.739 90.1206 205.782 92.5932C201.824 95.0657 197.223 96.3092 192.559 96.1665C187.895 96.0238 183.377 94.5013 179.579 91.7914C175.78 89.0815 172.87 85.306 171.217 80.9424C169.564 76.5787 169.242 71.8228 170.291 67.2761C171.341 62.7294 173.715 58.5961 177.114 55.3989C179.371 53.2758 182.024 51.6181 184.922 50.5204C187.819 49.4227 190.905 48.9065 194.002 49.0013C197.099 49.096 200.147 49.7999 202.972 51.0727C205.797 52.3455 208.344 54.1623 210.466 56.4194Z" fill="white"/>
<path d="M214.316 61.8789C217.143 67.4274 217.664 73.8679 215.766 79.7988C213.867 85.7296 209.703 90.6705 204.18 93.5462L214.316 61.8789Z" fill="#EBEBEB"/>
<path d="M194.272 49.0092L180.378 92.3538C178.826 91.3251 177.399 90.1193 176.126 88.7608C174.651 87.1972 173.399 85.4372 172.405 83.5307L182.621 51.5552C186.223 49.7237 190.234 48.8472 194.272 49.0092Z" fill="#EBEBEB"/>
<path d="M208.771 54.788L195.553 96.0702C194.012 96.2217 192.459 96.2217 190.918 96.0702L204.998 52.0879C206.344 52.8574 207.608 53.7621 208.771 54.788Z" fill="#EBEBEB"/>
<path d="M197.482 49.3726L183.217 93.9289C182.956 93.8067 182.685 93.6844 182.451 93.5516L196.637 49.2344C196.919 49.2716 197.201 49.3141 197.482 49.3726Z" fill="#EBEBEB"/>
<path d="M176.269 56.2344L169.939 76.0065C169.833 75.3049 169.764 74.6033 169.727 73.8805L174.877 57.797C175.313 57.2761 175.775 56.7446 176.269 56.2344Z" fill="#EBEBEB"/>
</g>
<path d="M253.503 71.8502C256.251 75.0393 267.716 90.5647 267.684 97.7772C267.684 102.194 256.49 114.849 253.583 117.815C252.312 119.107 243.218 111.193 243.303 109.258C243.388 107.323 254.337 96.1189 254.837 94.7583C254.837 94.7583 250.925 82.1721 248.852 75.4698C246.896 69.1342 248.379 65.908 253.503 71.8502Z" fill="#AD6359"/>
<path d="M236.431 118.091C234.762 119.622 231.302 120.26 232.03 121.78C232.673 123.135 235.028 122.46 235.028 122.46C235.028 122.46 232.62 124.081 233.731 125.341C234.842 126.601 237.271 125.341 237.271 125.341C237.271 125.341 235.203 126.595 236.404 127.775C237.605 128.955 239.859 128.248 239.859 128.248C239.859 128.248 239.514 129.014 240.736 129.465C242.479 130.109 245.902 128.009 247.433 126.484C248.964 124.958 253.429 118.261 254.093 117.22L244.409 107.328C244.409 107.328 240.444 108.784 238.52 109.762C236.596 110.74 231.169 115.742 232.317 117.172C233.465 118.601 237.239 115.014 238.355 114.333C239.471 113.653 239.822 113.802 239.556 114.498C239.375 114.945 237.164 117.411 236.431 118.091Z" fill="#AD6359"/>
<path d="M235.123 122.375C238.312 121.2 239.54 120.126 241.597 117.463C241.634 117.41 241.724 117.463 241.687 117.517C239.907 120.312 238.594 121.87 235.171 122.529C235.001 122.566 234.969 122.428 235.123 122.375Z" fill="#263238"/>
<path d="M237.122 125.346C240.354 123.836 241.666 122.688 244.032 120.031C244.064 119.993 244.133 120.031 244.101 120.084C242.001 122.864 240.657 124.389 237.228 125.473C237.069 125.548 236.973 125.436 237.122 125.346Z" fill="#263238"/>
<path d="M239.907 128.195C242.931 126.505 244.425 125.309 246.391 122.46C246.401 122.45 246.415 122.444 246.429 122.442C246.443 122.44 246.457 122.443 246.47 122.45C246.482 122.458 246.491 122.469 246.496 122.482C246.501 122.496 246.502 122.511 246.498 122.524C244.781 125.628 242.926 127.132 239.971 128.286C239.742 128.36 239.689 128.302 239.907 128.195Z" fill="#263238"/>
<path d="M250.708 84.6478L262.614 82.8406C262.614 82.8406 254.79 72.1626 251.601 69.6752C248.013 66.8688 247.349 69.319 247.88 73.6243C248.412 77.9295 250.708 84.6478 250.708 84.6478Z" fill="#2B59EC"/>
<path d="M260.636 80.9805C260.216 80.9805 256.496 81.4854 255.693 81.613C254.891 81.7405 251.585 82.2295 250.766 82.4262C250.758 82.4262 250.75 82.4295 250.744 82.4355C250.738 82.4415 250.734 82.4496 250.734 82.4581C250.734 82.4665 250.738 82.4746 250.744 82.4806C250.75 82.4866 250.758 82.49 250.766 82.49C251.606 82.4474 254.933 81.9584 255.757 81.8468C256.581 81.7352 260.254 81.1559 260.647 81.0389C260.663 81.0283 260.636 80.9805 260.636 80.9805Z" fill="#263238"/>
<path d="M251.648 84.5099C251.287 84.5365 250.723 84.6056 250.723 84.6056C250.245 83.2874 248.438 76.431 247.97 74.7833C247.97 74.7567 247.928 74.7833 247.933 74.7833C248.135 75.7294 248.344 76.6755 248.56 77.6216L248.417 77.2814C248.247 76.8774 248.066 76.4841 247.885 76.0749C247.885 76.0678 247.882 76.0611 247.877 76.0561C247.872 76.0511 247.866 76.0483 247.859 76.0483C247.852 76.0483 247.845 76.0511 247.84 76.0561C247.835 76.0611 247.832 76.0678 247.832 76.0749C247.947 76.4997 248.089 76.9169 248.257 77.3239C248.38 77.6056 248.518 77.882 248.667 78.1531C248.794 78.6846 248.916 79.2161 249.055 79.7742C249.49 81.4272 249.878 83.1546 250.442 84.7703C250.848 84.7394 251.25 84.67 251.643 84.5631C251.65 84.5561 251.654 84.5471 251.655 84.5374C251.656 84.5278 251.654 84.518 251.648 84.5099Z" fill="#263238"/>
<path d="M210.249 104.447C210.425 104.879 210.734 105.243 211.132 105.486C211.53 105.729 211.996 105.838 212.46 105.797C212.46 105.797 211.334 107.556 212.29 108.986C212.785 109.735 214.416 109.603 214.416 109.603C214.416 109.603 213.577 111.059 214.507 112.297C215.251 113.281 216.771 113.004 216.771 113.004C216.771 113.004 216.611 114.774 217.69 115.534C219.875 117.081 228.969 111.638 228.368 107.45C228.087 105.494 225.939 106.945 225.939 106.945C225.939 106.945 228.528 104.112 227.454 102.209C226.381 100.307 223.702 102.358 223.702 102.358C223.702 102.358 226.184 99.5943 224.871 97.734C223.558 95.8737 221.177 98.308 221.177 98.308C221.177 98.308 222.378 95.7249 221.044 94.5343C218.849 92.5571 216.436 98.4515 214.135 99.1744L211.094 95.9322C211.094 95.9322 209.479 102.72 210.249 104.447Z" fill="#AD6359"/>
<path d="M217.004 113.015C216.997 113.015 216.99 113.018 216.985 113.023C216.98 113.028 216.978 113.034 216.978 113.041C216.978 113.048 216.98 113.055 216.985 113.06C216.99 113.065 216.997 113.068 217.004 113.068C220.571 111.976 223.723 109.826 226.04 106.902C226.109 106.807 225.987 106.647 225.891 106.738C223.248 109.249 220.255 111.364 217.004 113.015Z" fill="#263238"/>
<path d="M214.394 109.671C214.357 109.671 214.394 109.75 214.432 109.735C217.955 108.624 221.761 106.014 223.866 102.4C223.94 102.272 223.866 102.091 223.786 102.224C222.181 104.531 217.45 108.167 214.394 109.671Z" fill="#263238"/>
<path d="M221.235 98.0162C219.083 101.413 216.058 103.778 212.604 105.755C212.561 105.782 212.604 105.845 212.646 105.829C214.597 105.298 216.67 103.831 218.179 102.534C219.613 101.358 220.713 99.8256 221.368 98.0906C221.379 98.0215 221.304 97.9418 221.235 98.0162Z" fill="#263238"/>
<path d="M241.13 67.8212C239.727 68.8842 238.441 73.9973 241.661 74.7308C244.882 75.4643 247.843 70.3937 248.284 68.7567C248.725 67.1196 244.16 65.5676 241.13 67.8212Z" fill="#37474F"/>
<path d="M242.059 73.6996C243.877 73.9334 246.635 70.9038 247.603 68.5864C247.672 68.427 247.273 66.8644 246.88 64.9403C246.646 63.7763 246.412 62.4741 246.29 61.2676L238.918 63.8985C239.509 65.3595 239.917 66.8875 240.135 68.4483C240.151 68.6144 240.151 68.7817 240.135 68.9479C240.135 68.9745 240.135 69.001 240.135 69.0329C240.077 69.9896 240.305 73.471 242.059 73.6996Z" fill="#AD6359"/>
<path d="M245.939 61.3887C245.859 62.9194 245.28 68.4365 240.911 68.9946C240.654 69.0272 240.394 69.0396 240.135 69.0318C240.132 69.0035 240.132 68.975 240.135 68.9467C240.151 68.7806 240.151 68.6133 240.135 68.4471C239.917 66.8865 239.508 65.3586 238.918 63.8974L245.939 61.3887Z" fill="#263238"/>
<path d="M246.227 52.9916C247.189 55.6491 246.163 63.4942 244.34 65.3279C241.682 67.9854 237.159 68.4585 234.852 65.2322C232.615 62.1016 234.129 51.8967 236.186 50.2065C239.216 47.7243 244.807 49.0797 246.227 52.9916Z" fill="#AD6359"/>
<path d="M239.322 57.9766C239.322 57.9766 239.359 58.0084 239.359 58.0297C239.274 58.5612 239.269 59.1725 239.726 59.4063C239.726 59.4063 239.726 59.4435 239.726 59.4382C239.141 59.2841 239.157 58.4656 239.322 57.9766Z" fill="#263238"/>
<path d="M239.864 57.4829C240.725 57.5254 240.576 59.2422 239.779 59.205C238.982 59.1677 239.141 57.451 239.864 57.4829Z" fill="#263238"/>
<path d="M236.267 57.7324C236.267 57.7324 236.219 57.7324 236.219 57.7749C236.192 58.3065 236.07 58.9124 235.57 59.0506V59.0771C236.187 59.0452 236.325 58.2427 236.267 57.7324Z" fill="#263238"/>
<path d="M235.836 57.1369C234.991 56.9987 234.773 58.7048 235.56 58.8324C236.346 58.9599 236.548 57.2538 235.836 57.1369Z" fill="#263238"/>
<path d="M240.608 56.7603C240.389 56.6737 240.175 56.5761 239.965 56.4679C239.723 56.3978 239.511 56.248 239.365 56.0427C239.329 55.9708 239.319 55.8889 239.336 55.8105C239.354 55.7322 239.398 55.6622 239.46 55.6122C239.599 55.5298 239.757 55.4863 239.918 55.4863C240.078 55.4863 240.236 55.5298 240.375 55.6122C240.682 55.7308 240.935 55.9576 241.087 56.25C241.113 56.3182 241.12 56.3924 241.106 56.4641C241.092 56.5359 241.058 56.6022 241.008 56.6555C240.958 56.7089 240.894 56.747 240.823 56.7655C240.753 56.784 240.678 56.7822 240.608 56.7603Z" fill="#263238"/>
<path d="M235.246 56.2189C235.491 56.2189 235.708 56.1392 235.948 56.0967C236.198 56.0899 236.439 56.0001 236.633 55.8416C236.682 55.7784 236.708 55.7008 236.708 55.621C236.708 55.5412 236.682 55.4636 236.633 55.4004C236.522 55.2838 236.381 55.1992 236.226 55.1553C236.071 55.1113 235.907 55.1097 235.751 55.1506C235.425 55.1897 235.123 55.3443 234.901 55.5864C234.854 55.6469 234.826 55.7197 234.82 55.796C234.814 55.8722 234.83 55.9486 234.867 56.0157C234.903 56.0828 234.959 56.1378 235.026 56.1739C235.093 56.21 235.17 56.2256 235.246 56.2189Z" fill="#263238"/>
<path d="M237.388 61.9112C237.611 62.2029 237.906 62.4318 238.243 62.5756C238.431 62.6447 238.634 62.6558 238.828 62.6075C239.253 62.4959 239.259 62.1079 239.184 61.7784C239.141 61.6031 239.076 61.4336 238.993 61.2734C238.539 61.6508 237.977 61.8741 237.388 61.9112Z" fill="#263238"/>
<path d="M238.243 62.5746C238.43 62.6437 238.634 62.6548 238.828 62.6065C239.253 62.4949 239.258 62.1069 239.184 61.7773C238.961 61.7868 238.747 61.8703 238.577 62.0146C238.406 62.159 238.289 62.3561 238.243 62.5746Z" fill="#F392B9"/>
<path d="M246.504 60.258C245.042 59.8381 244.319 54.9429 244.319 54.9429C244.319 54.9429 244.319 57.0211 243.936 56.9679C243.554 56.9148 241.959 54.0925 241.81 52.0727C240.653 52.8283 239.402 53.4304 238.09 53.8639C236.246 54.3954 234.199 54.2785 234.199 53.9649C234.199 53.0295 235.06 50.5898 236.325 49.7128C237.254 49.0143 238.35 48.5736 239.504 48.4354C240.658 48.2973 241.828 48.4666 242.895 48.9262C245.908 50.0902 246.695 52.0355 247.147 53.5397C247.599 55.0439 247.04 60.4121 246.504 60.258Z" fill="#263238"/>
<path d="M239.779 61.1607C239.12 60.9827 238.558 60.5502 238.217 59.9582C237.876 59.3663 237.784 58.6632 237.961 58.0035C238.087 57.5374 238.34 57.1159 238.694 56.787C239.047 56.4581 239.485 56.2349 239.959 56.1429C240.433 56.051 240.923 56.0939 241.374 56.2668C241.824 56.4397 242.218 56.7356 242.508 57.1209C242.799 57.5062 242.976 57.9654 243.018 58.4462C243.061 58.927 242.968 59.4101 242.749 59.8404C242.531 60.2708 242.196 60.6312 241.782 60.8806C241.369 61.13 240.894 61.2583 240.411 61.251C240.198 61.2465 239.985 61.2161 239.779 61.1607ZM238.312 58.0939C238.201 58.5205 238.219 58.9705 238.363 59.3871C238.508 59.8036 238.772 60.1681 239.123 60.4345C239.475 60.7009 239.897 60.8573 240.337 60.8841C240.777 60.9109 241.215 60.8067 241.596 60.5848C241.977 60.3629 242.284 60.0332 242.478 59.6372C242.671 59.2412 242.744 58.7967 242.685 58.3597C242.627 57.9228 242.44 57.5129 242.149 57.1818C241.858 56.8507 241.475 56.6133 241.049 56.4994C240.875 56.4553 240.697 56.4303 240.518 56.4249C240.016 56.4166 239.527 56.5764 239.127 56.8789C238.727 57.1814 238.44 57.6092 238.312 58.0939Z" fill="#455A64"/>
<path d="M234.389 60.4382C233.326 60.3 232.635 59.0457 232.821 57.6372C232.892 56.9983 233.161 56.3977 233.592 55.9204C233.762 55.701 233.987 55.5301 234.244 55.4244C234.501 55.3188 234.782 55.2821 235.057 55.3181C235.333 55.3541 235.594 55.4615 235.815 55.6296C236.037 55.7977 236.21 56.0207 236.319 56.2765C236.613 56.8474 236.719 57.4967 236.622 58.1315C236.451 59.4656 235.559 60.4648 234.554 60.4488L234.389 60.4382ZM233.858 56.1596C233.477 56.5825 233.239 57.1142 233.177 57.6797C233.018 58.9022 233.587 59.9864 234.448 60.0981C235.309 60.2097 236.138 59.3114 236.297 58.0889C236.382 57.5254 236.289 56.9494 236.032 56.4413C235.938 56.2421 235.797 56.0682 235.623 55.9341C235.448 55.8 235.244 55.7097 235.027 55.6706H234.899C234.699 55.6726 234.5 55.7172 234.318 55.8015C234.136 55.8858 233.973 56.0078 233.842 56.1596H233.858Z" fill="#455A64"/>
<path d="M238.01 58.3128L238.259 58.079C237.919 57.7016 237.079 57.1488 236.367 57.7335L236.585 57.9992C237.249 57.473 237.978 58.2756 238.01 58.3128Z" fill="#455A64"/>
<path d="M247.784 60.3534L248.109 60.2311C248.05 60.0823 247.577 58.7535 246.806 58.5303C245.478 58.3543 244.139 58.262 242.799 58.2539V58.5941C244.111 58.5957 245.421 58.6845 246.721 58.8598C247.2 58.998 247.652 59.9866 247.784 60.3534Z" fill="#455A64"/>
<path d="M244.515 59.2951C244.515 59.2951 246.195 56.7226 247.359 57.3125C248.523 57.9025 247.311 61.5965 245.987 62.1386C245.822 62.2192 245.642 62.2656 245.458 62.2749C245.274 62.2842 245.09 62.2562 244.918 62.1926C244.745 62.1291 244.587 62.0313 244.453 61.9051C244.319 61.7789 244.211 61.6269 244.138 61.4583L244.515 59.2951Z" fill="#AD6359"/>
<path d="M246.988 58.3594V58.3966C246.063 58.8058 245.595 59.6935 245.276 60.6077C245.328 60.5119 245.4 60.4286 245.488 60.3634C245.575 60.2982 245.675 60.2527 245.782 60.2299C245.888 60.2072 245.999 60.2078 246.105 60.2317C246.211 60.2557 246.311 60.3023 246.398 60.3685C246.398 60.3685 246.398 60.4269 246.371 60.4216C246.204 60.3731 246.027 60.3778 245.863 60.4349C245.699 60.4921 245.557 60.5989 245.457 60.7405C245.292 60.9794 245.152 61.234 245.037 61.5006C245 61.5856 244.846 61.5484 244.872 61.4474C244.824 60.2303 245.701 58.5241 246.988 58.3594Z" fill="#263238"/>
<path d="M238.228 48.7819C239.159 48.2674 240.162 47.8948 241.204 47.6763C242.368 47.4531 246.094 47.4956 247.051 48.2078C248.007 48.9201 248.454 52.3696 248.507 52.8798C248.56 53.3901 248.539 56.4941 247.47 57.3126C246.402 58.1311 245.95 52.8904 244.069 51.264C242.187 49.6376 238.228 48.7819 238.228 48.7819Z" fill="#2B59EC"/>
<path opacity="0.1" d="M238.228 48.7817C238.228 48.7817 242.171 49.6109 244.074 51.2373C245.977 52.8637 246.407 58.1044 247.476 57.2859C247.719 57.0711 247.918 56.8102 248.06 56.5183C248.203 56.2264 248.286 55.9092 248.305 55.585C247.97 54.0702 247.194 51.7316 245.807 50.1637C244.51 48.702 242.395 48.0376 240.178 47.9473C239.506 48.17 238.853 48.4492 238.228 48.7817Z" fill="black"/>
<path d="M247.349 60.4224C247.158 59.0299 245.489 55.3784 243.857 53.3321C242.225 51.2858 237.755 50.3131 237.144 50.3929C235.661 50.5736 235.188 51.0573 234.944 50.9244C234.699 50.7915 236.155 49.585 236.538 49.3299C236.921 49.0747 238.032 48.3891 238.664 48.3572C239.297 48.3253 243.325 48.4688 244.888 50.074C246.451 51.6791 248.816 56.3139 248.518 57.5576C248.449 57.8606 248.072 58.0891 247.987 58.4984C247.859 59.0299 247.79 59.689 247.647 60.0929C247.503 60.4969 247.349 60.5394 247.349 60.4224Z" fill="#2B59EC"/>
<path d="M243.458 52.3911C243.785 52.1573 244.092 51.8978 244.378 51.6151C244.67 51.3345 244.929 51.0205 245.148 50.6797C245.148 50.6797 245.201 50.6797 245.185 50.6797C245.018 51.0701 244.787 51.4295 244.5 51.7427C244.213 52.0463 243.87 52.2917 243.49 52.4656C243.453 52.4762 243.421 52.4124 243.458 52.3911Z" fill="#263238"/>
<path d="M246.694 57.5405C246.823 57.3806 246.944 57.2138 247.055 57.0409C247.154 56.869 247.243 56.6915 247.321 56.5094C247.396 56.3233 247.459 56.1373 247.534 55.9513C247.608 55.7652 247.73 55.5261 247.805 55.3028C247.805 55.2763 247.858 55.3028 247.847 55.3028C247.773 55.5314 247.73 55.7759 247.661 56.0097C247.598 56.2093 247.521 56.4046 247.433 56.5944C247.351 56.7807 247.251 56.9586 247.135 57.1259C247.024 57.2969 246.879 57.4434 246.71 57.5564C246.71 57.5564 246.683 57.5564 246.694 57.5405Z" fill="#263238"/>
<path d="M246.094 56.2076C246.38 55.9359 246.624 55.6222 246.817 55.2774C246.997 54.9479 247.162 54.6077 247.321 54.2676C247.321 54.2676 247.375 54.2676 247.364 54.2676C247.273 54.6479 247.135 55.0156 246.955 55.3625C246.862 55.5282 246.752 55.6832 246.625 55.8249C246.482 55.9711 246.321 56.0996 246.147 56.2076C246.147 56.2076 246.072 56.2288 246.094 56.2076Z" fill="#263238"/>
<path d="M245.456 54.9374C245.595 54.828 245.713 54.6926 245.801 54.5387C245.913 54.374 246.019 54.2039 246.12 54.0072C246.221 53.8106 246.322 53.683 246.418 53.5182C246.527 53.3582 246.601 53.1772 246.636 52.9867C246.636 52.9602 246.678 52.9602 246.683 52.9867C246.678 53.1794 246.635 53.3691 246.556 53.5448C246.478 53.742 246.384 53.9322 246.274 54.1135C246.166 54.2975 246.047 54.4749 245.918 54.645C245.812 54.7991 245.662 54.9177 245.488 54.9852C245.45 55.0011 245.424 54.9586 245.456 54.9374Z" fill="#263238"/>
<path d="M242.33 51.6635C242.458 51.4827 242.58 51.3074 242.723 51.132C242.87 50.9617 243.026 50.8002 243.191 50.6483C243.505 50.3425 243.853 50.0733 244.228 49.8457C244.228 49.8457 244.281 49.8457 244.259 49.8776C243.638 50.4888 242.984 51.0735 242.367 51.69L242.33 51.6635Z" fill="#263238"/>
<path d="M241.406 50.5247C241.535 50.3462 241.685 50.1838 241.852 50.041C242.209 49.7516 242.595 49.502 243.006 49.2969C243.032 49.2969 243.059 49.2969 243.032 49.3341C242.687 49.5998 242.336 49.8656 242.001 50.142C241.836 50.2806 241.678 50.4278 241.528 50.5831C241.385 50.7426 241.273 50.9286 241.135 51.1146C241.135 51.1146 241.098 51.1146 241.103 51.1146C241.161 50.8986 241.264 50.6974 241.406 50.5247Z" fill="#263238"/>
<path d="M240.204 50.0524C240.325 49.88 240.462 49.7198 240.613 49.574C240.901 49.2969 241.233 49.0705 241.597 48.9043C241.623 48.9043 241.639 48.9309 241.597 48.9468C241.271 49.1765 240.964 49.4306 240.677 49.7069C240.539 49.8504 240.401 49.9939 240.268 50.1427C240.135 50.2915 240.018 50.4669 239.869 50.5945C239.869 50.5945 239.843 50.5945 239.869 50.5945C239.964 50.4037 240.076 50.2222 240.204 50.0524Z" fill="#263238"/>
<path d="M239.317 49.4309L239.747 49.0588C239.888 48.9342 240.048 48.832 240.22 48.7559C240.22 48.7559 240.257 48.7559 240.22 48.7931C239.949 49.0429 239.689 49.2927 239.412 49.5478C239.182 49.7956 238.981 50.0684 238.812 50.361H238.785C238.864 50.0043 239.049 49.6799 239.317 49.4309Z" fill="#263238"/>
<path d="M238.254 49.2491C238.509 48.9797 238.814 48.763 239.152 48.6113C239.152 48.6113 239.195 48.6113 239.152 48.6485C238.849 48.8377 238.576 49.0726 238.344 49.3448C238.108 49.6124 237.901 49.9046 237.728 50.2165C237.728 50.2165 237.691 50.2165 237.696 50.2165C237.806 49.8557 237.997 49.5249 238.254 49.2491Z" fill="#263238"/>
<path d="M236.92 49.9626C236.952 49.8882 236.989 49.8138 237.026 49.7447C237.109 49.6014 237.205 49.4661 237.313 49.3407C237.541 49.0947 237.794 48.8738 238.068 48.6816C238.068 48.6816 238.116 48.6816 238.068 48.7189C237.808 48.9145 237.572 49.1412 237.366 49.3939C237.265 49.5184 237.173 49.6498 237.09 49.7872C237.048 49.851 237.016 49.9201 236.978 49.9892C236.951 50.0612 236.917 50.1306 236.877 50.1964H236.835C236.848 50.1138 236.877 50.0344 236.92 49.9626Z" fill="#263238"/>
<path d="M236.085 50.1C236.157 49.9842 236.235 49.8725 236.319 49.7652C236.404 49.6642 236.495 49.5632 236.59 49.4675C236.686 49.3719 236.798 49.2815 236.893 49.1805C236.989 49.0795 236.946 49.1805 236.925 49.2124C236.825 49.3092 236.732 49.414 236.649 49.526L236.404 49.8396C236.325 49.9406 236.239 50.0416 236.16 50.1479C236.086 50.2585 236.006 50.365 235.921 50.4668H235.889C235.938 50.3364 236.004 50.2131 236.085 50.1Z" fill="#263238"/>
<path d="M335.361 129.3C329.403 137.368 323.195 146.722 321.686 156.837C321.686 156.991 321.914 157.039 321.946 156.89C322.639 154.131 323.527 151.424 324.604 148.79C328.515 147.727 332.358 146.829 334.415 142.943C336.509 138.952 336.244 133.743 335.845 129.39C335.797 129.156 335.484 129.156 335.361 129.3Z" fill="#4CCB86"/>
<path d="M324.641 148.716C327.298 142.715 330.748 136.688 335.111 131.75C335.118 131.744 335.126 131.74 335.135 131.74C335.144 131.74 335.153 131.744 335.159 131.75C335.166 131.756 335.169 131.765 335.169 131.774C335.169 131.783 335.166 131.792 335.159 131.798C332.305 135.311 330.131 139.143 328.01 143.039C329.982 141.036 332.146 139.244 334.011 137.118C334.048 137.081 334.107 137.118 334.07 137.182C332.215 139.404 330.19 141.822 327.777 143.47C327.128 144.666 326.474 145.867 325.81 147.063C325.975 146.973 326.139 146.893 326.31 146.808C326.336 146.808 326.363 146.84 326.336 146.856C326.15 146.946 325.969 147.047 325.778 147.127L324.832 148.828C324.758 148.955 324.582 148.822 324.641 148.716Z" fill="#263238"/>
<path d="M326.628 146.622C328.23 145.726 329.758 144.706 331.199 143.571C331.237 143.539 331.295 143.571 331.258 143.624C329.861 144.83 328.331 145.874 326.698 146.734C326.623 146.771 326.543 146.665 326.628 146.622Z" fill="#263238"/>
<path d="M320.994 155.333C320.994 155.455 321.217 155.455 321.212 155.333C321.244 152.006 321.212 148.657 321.265 145.314C322.121 143.592 323.923 142.656 325.225 141.259C326.14 140.251 326.937 139.141 327.601 137.953C329.133 135.108 330.07 131.981 330.354 128.763C330.705 125.202 329.355 113.45 327.85 113.854C327.074 114.067 324.555 119.892 323.885 121.827C322.801 125.001 322.008 128.267 321.515 131.585C320.298 139.398 320.399 147.445 320.994 155.333Z" fill="#4CCB86"/>
<path d="M320.973 140.965C321.154 136.75 322.105 132.493 322.993 128.405C323.949 124.005 325.065 119.859 327.335 115.931C327.378 115.862 327.484 115.931 327.447 116C325.934 119.05 324.765 122.259 323.96 125.567C324.109 125.333 324.295 125.105 324.454 124.882C324.513 124.791 324.662 124.882 324.598 124.967C324.395 125.323 324.156 125.658 323.886 125.966H323.854C323.078 129.112 322.514 132.344 322.036 135.533L322.142 135.405C322.142 135.379 322.211 135.405 322.19 135.443C322.169 135.48 322.068 135.655 321.999 135.762C321.759 137.393 321.536 139.02 321.313 140.63C324.215 138.153 326.692 135.23 328.09 131.626C328.09 131.626 328.122 131.626 328.09 131.626C326.718 135.347 324.561 138.685 321.239 140.954C321.18 141.39 321.116 141.821 321.053 142.257C321.053 142.347 320.898 142.32 320.898 142.257C320.898 141.869 320.898 141.486 320.936 141.103C320.927 141.092 320.922 141.079 320.919 141.066C320.916 141.052 320.917 141.038 320.92 141.025C320.924 141.012 320.93 140.999 320.94 140.989C320.949 140.978 320.96 140.97 320.973 140.965Z" fill="#263238"/>
<path d="M322.339 134.864C324.556 131.553 326.628 128.337 328.25 124.681C328.255 124.674 328.263 124.669 328.272 124.667C328.281 124.665 328.29 124.666 328.298 124.669C328.307 124.673 328.314 124.679 328.318 124.687C328.323 124.695 328.325 124.704 328.324 124.713C326.958 128.343 325.039 132.026 322.451 134.949C322.398 135.003 322.291 134.928 322.339 134.864Z" fill="#263238"/>
<path d="M325.284 123.84C326.204 122.214 327.176 120.651 328.038 118.977C328.064 118.929 328.128 118.977 328.107 119.014C327.407 120.746 326.516 122.393 325.449 123.925C325.369 124.026 325.231 123.957 325.284 123.84Z" fill="#263238"/>
<path d="M318.741 145.701C318.699 147.91 318.439 150.108 317.965 152.266C317.997 152.499 318.034 152.739 318.066 152.983C318.745 150.6 319.139 148.145 319.241 145.67C319.26 145.635 319.271 145.595 319.271 145.555C319.271 145.515 319.26 145.476 319.241 145.441C319.338 142.123 319.095 138.803 318.518 135.534C317.487 129.411 315.233 123.538 310.96 118.951C310.925 118.92 310.884 118.897 310.839 118.885C310.795 118.873 310.748 118.872 310.702 118.881C310.657 118.89 310.614 118.91 310.578 118.939C310.541 118.967 310.512 119.004 310.492 119.046C308.77 123.426 309.371 128.651 310.838 133.02C311.634 135.387 312.775 137.624 314.223 139.658C315.685 141.71 317.551 143.453 318.741 145.701Z" fill="#4CCB86"/>
<path d="M311.464 120.992C315.515 127.562 318.326 135.343 318.672 143.098C318.672 143.236 318.448 143.273 318.427 143.135C318.332 142.439 318.225 141.748 318.114 141.057C316.439 139.462 314.717 137.761 313.521 135.742C313.518 135.734 313.518 135.725 313.52 135.717C313.522 135.709 313.527 135.702 313.534 135.697C313.541 135.692 313.549 135.69 313.557 135.69C313.565 135.691 313.573 135.694 313.58 135.699C314.969 137.403 316.458 139.023 318.039 140.552C317.747 138.835 317.407 137.15 316.976 135.486L316.657 135.109C316.588 135.024 316.705 134.907 316.774 134.987L316.875 135.098C316.301 132.819 315.591 130.575 314.749 128.38C313.718 127.152 312.565 126.089 311.815 124.612C311.813 124.605 311.813 124.598 311.816 124.591C311.818 124.584 311.823 124.579 311.829 124.575C311.835 124.571 311.843 124.57 311.85 124.571C311.857 124.571 311.863 124.575 311.868 124.58C312.474 125.425 313.059 126.275 313.739 127.062C314.016 127.376 314.313 127.668 314.595 127.976C313.664 125.594 312.557 123.285 311.284 121.067C311.274 121.043 311.274 121.016 311.284 120.992C311.294 120.968 311.313 120.949 311.337 120.939C311.361 120.929 311.388 120.929 311.412 120.939C311.436 120.949 311.455 120.968 311.464 120.992Z" fill="#263238"/>
<path d="M312.283 129.093C313.59 130.852 315.084 132.532 316.296 134.349C316.333 134.402 316.259 134.456 316.211 134.418C314.66 132.836 313.311 131.069 312.193 129.156C312.161 129.087 312.246 129.045 312.283 129.093Z" fill="#263238"/>
<path d="M316.482 134.758L316.535 134.816C316.577 134.854 316.535 134.912 316.476 134.875L316.423 134.816C316.381 134.779 316.445 134.721 316.482 134.758Z" fill="#263238"/>
<path d="M305.129 133.616C305.599 137.281 307.07 140.746 309.381 143.63C310.333 144.762 311.512 145.684 312.841 146.335C314.345 147.074 315.913 147.93 317.465 148.535C318.202 150.415 318.75 152.363 319.102 154.35C319.155 154.18 319.203 154.005 319.256 153.819C318.257 145.267 312.724 137.958 305.644 133.265C305.588 133.23 305.523 133.212 305.457 133.213C305.391 133.214 305.327 133.235 305.272 133.272C305.217 133.309 305.174 133.361 305.149 133.423C305.124 133.484 305.117 133.551 305.129 133.616Z" fill="#4CCB86"/>
<path d="M307.574 136.141C307.526 136.098 307.574 136.008 307.648 136.05C311.541 138.942 314.647 142.763 316.684 147.164C316.732 147.281 316.572 147.387 316.509 147.27C316.179 146.691 315.844 146.133 315.499 145.58C313.904 145.277 312.357 144.14 311.156 143.061C311.15 143.054 311.146 143.046 311.146 143.037C311.146 143.028 311.15 143.019 311.156 143.013C311.163 143.007 311.171 143.003 311.18 143.003C311.189 143.003 311.198 143.007 311.204 143.013C311.822 143.577 312.51 144.059 313.25 144.448C313.92 144.753 314.605 145.025 315.302 145.261C314.701 144.31 314.08 143.401 313.426 142.513C311.682 141.85 310.046 140.931 308.573 139.787C308.525 139.755 308.573 139.675 308.616 139.707C310.077 140.589 311.583 141.394 313.128 142.12C312.142 140.816 311.077 139.574 309.939 138.399C309.408 138.112 308.834 137.82 308.302 137.506C308.26 137.506 308.302 137.411 308.334 137.427C308.777 137.58 309.2 137.787 309.594 138.043C308.94 137.4 308.281 136.762 307.574 136.141Z" fill="#263238"/>
<path d="M307.723 139.095C307.82 139.153 307.913 139.219 307.999 139.292C307.999 139.292 307.999 139.345 307.962 139.334C307.865 139.287 307.771 139.233 307.68 139.175C307.632 139.143 307.675 139.063 307.723 139.095Z" fill="#263238"/>
<path d="M330.312 172.867H310.917L312.48 155.205L312.825 151.309H328.404L328.744 155.205L330.312 172.867Z" fill="#455A64"/>
<path d="M328.744 155.205H312.479L312.825 151.309H328.404L328.744 155.205Z" fill="#263238"/>
<path d="M329.328 148.582H311.895V152.435H329.328V148.582Z" fill="#455A64"/>
</svg>
