<svg width="10" height="10" viewBox="0 0 10 10" fill="none" xmlns="http://www.w3.org/2000/svg">
<path d="M6.9425 1.99805H1.25C1.05109 1.99805 0.860322 1.91903 0.719669 1.77838C0.579017 1.63772 0.5 1.44696 0.5 1.24805C0.5 1.04913 0.579017 0.858369 0.719669 0.717717C0.860322 0.577065 1.05109 0.498047 1.25 0.498047H8.75C8.84801 0.499232 8.94483 0.519616 9.035 0.558047C9.21826 0.634153 9.36389 0.779785 9.44 0.963047C9.47843 1.05321 9.49882 1.15004 9.5 1.24805V8.74805C9.5 8.94696 9.42098 9.13772 9.28033 9.27838C9.13968 9.41903 8.94891 9.49805 8.75 9.49805C8.55109 9.49805 8.36032 9.41903 8.21967 9.27838C8.07902 9.13772 8 8.94696 8 8.74805V3.05555L1.7825 9.28055C1.71278 9.35084 1.62983 9.40664 1.53843 9.44472C1.44704 9.48279 1.34901 9.5024 1.25 9.5024C1.15099 9.5024 1.05296 9.48279 0.961567 9.44472C0.870173 9.40664 0.787223 9.35084 0.717501 9.28055C0.647204 9.21082 0.591408 9.12787 0.553331 9.03648C0.515254 8.94508 0.495651 8.84706 0.495651 8.74805C0.495651 8.64904 0.515254 8.55101 0.553331 8.45961C0.591408 8.36822 0.647204 8.28527 0.717501 8.21555L6.9425 1.99805Z" fill="#696969"/>
</svg>
